M48
;DRILL file {KiCad 4.0.7-e2-6376~58~ubuntu16.04.1} date Sat Sep 15 23:25:47 2018
;FORMAT={-:-/ absolute / inch / decimal}
FMAT,2
INCH,TZ
T1C0.016
T2C0.024
T3C0.031
T4C0.035
T5C0.039
T6C0.040
T7C0.047
T8C0.051
T9C0.055
T10C0.059
T11C0.079
T12C0.146
%
G90
G05
M72
T1
X7.5997Y-7.314
X7.7544Y-7.3145
X8.0802Y-7.4058
X8.2202Y-7.4058
X8.3953Y-7.9177
X8.3957Y-7.9528
X8.4646Y-7.4016
X8.4646Y-7.4409
X8.5138Y-7.5984
X8.5531Y-7.5394
X8.5899Y-7.5709
X8.622Y-7.9823
X8.7205Y-7.9823
X8.7598Y-7.5984
X8.7598Y-7.6378
X8.7783Y-7.0629
X8.8455Y-7.4486
X8.8583Y-7.0866
X8.8855Y-7.4085
X8.8976Y-7.0472
X8.9004Y-8.4345
X8.9173Y-8.0906
X8.918Y-8.1634
X8.9407Y-8.4351
X8.9465Y-8.2568
X8.9469Y-8.1894
X8.9567Y-7.5394
X8.9612Y-7.2468
X8.9774Y-8.4338
X9.0159Y-8.4338
X9.0446Y-7.2056
X9.0924Y-7.1184
X9.1239Y-8.174
X9.124Y-8.2094
X9.124Y-8.1369
X9.1575Y-8.1733
X9.1582Y-8.1371
X9.1584Y-8.2097
X9.1908Y-8.1369
X9.1909Y-8.1742
X9.1909Y-8.2094
X9.2193Y-7.9235
X9.2716Y-7.9931
X9.8649Y-7.0747
X9.8778Y-7.1175
X10.0446Y-7.1728
X10.0629Y-7.0906
T2
X6.6437Y-7.0276
X6.6831Y-7.0276
X6.6831Y-7.0768
X6.8707Y-7.2614
X7.0472Y-6.5748
X7.1586Y-7.0799
X7.3228Y-7.2835
X7.4307Y-7.5469
X7.4723Y-7.4214
X7.5511Y-7.3623
X7.6378Y-6.1024
X7.6378Y-6.8504
X7.6392Y-6.7605
X7.6772Y-7.4803
X7.8346Y-7.4803
X7.8389Y-7.3642
X7.874Y-6.9685
X7.9134Y-5.748
X7.9921Y-7.3622
X7.9921Y-8.3071
X8.0118Y-7.5197
X8.1364Y-7.2387
X8.1558Y-7.6285
X8.189Y-5.748
X8.3071Y-7.874
X8.4646Y-8.3071
X8.5335Y-7.7953
X8.5335Y-7.7953
X8.6614Y-6.7717
X8.6614Y-6.8504
X8.7402Y-7.874
X8.7402Y-8.1102
X8.7502Y-8.2194
X8.7673Y-7.7694
X8.937Y-6.7717
X8.9764Y-7.3622
X9.4488Y-6.7717
X9.6063Y-7.5984
X9.6063Y-7.9921
X9.6063Y-8.1102
X9.6457Y-5.2362
X9.7049Y-7.3664
X9.7963Y-7.2736
X9.7963Y-7.7461
X9.7963Y-8.2185
X9.8819Y-5.2362
X9.9213Y-5.7874
X9.9213Y-6.4961
X9.9963Y-7.2736
X10.1144Y-5.2948
X10.1181Y-7.2047
T3
X3.8523Y-4.8532
X6.1614Y-8.4744
X6.7551Y-7.6252
X6.7551Y-7.7252
X6.7551Y-8.1252
X6.7551Y-8.4252
X7.3457Y-7.6252
X7.3457Y-7.7252
X7.3457Y-8.1252
X7.3457Y-8.4252
T4
X8.7402Y-5.6693
X8.7402Y-6.6299
X8.8189Y-5.6693
X8.8189Y-6.6299
X8.8976Y-5.6693
X8.8976Y-6.6299
X8.9764Y-5.6693
X8.9764Y-6.6299
X9.0551Y-5.6693
X9.0551Y-6.6299
X9.1339Y-5.6693
X9.1339Y-6.6299
X9.2126Y-5.6693
X9.2126Y-6.6299
X9.2913Y-5.6693
X9.2913Y-6.6299
X9.3701Y-5.6693
X9.3701Y-6.6299
X9.4488Y-5.6693
X9.4488Y-6.6299
X9.5276Y-5.6693
X9.5276Y-6.6299
X9.6063Y-5.6693
X9.6063Y-6.6299
X9.685Y-5.6693
X9.685Y-6.6299
X9.7638Y-5.6693
X9.7638Y-6.6299
X9.8425Y-5.6693
X9.8425Y-6.6299
X9.9213Y-5.6693
X9.9213Y-6.6299
T5
X8.0964Y-6.941
X8.0964Y-7.041
X8.1964Y-6.941
X8.1964Y-7.041
X8.2964Y-6.941
X8.2964Y-7.041
X8.3964Y-6.941
X8.3964Y-7.041
X8.4964Y-6.941
X8.4964Y-7.041
X9.4Y-6.9
X9.5Y-6.9
X9.6Y-6.9
X9.7Y-6.9
X9.8Y-6.9
X9.9Y-6.9
T6
X9.Y-6.9
X9.1Y-6.9
X9.2Y-6.9
T7
X3.7008Y-7.4803
X3.7008Y-8.2677
X6.1417Y-7.0276
X6.1417Y-7.9331
T8
X7.9528Y-6.0236
X8.1496Y-6.0236
X8.4055Y-5.1969
X8.6024Y-5.1969
T9
X4.1339Y-5.115
X4.1339Y-5.315
X4.1339Y-8.8551
X4.1339Y-9.0551
X4.5276Y-5.115
X4.5276Y-5.315
X4.5276Y-8.8551
X4.5276Y-9.0551
X4.9213Y-5.115
X4.9213Y-5.315
X4.9213Y-8.8551
X4.9213Y-9.0551
X5.315Y-5.115
X5.315Y-5.315
X5.315Y-8.8551
X5.315Y-9.0551
X5.7087Y-5.115
X5.7087Y-5.315
X5.7087Y-8.8551
X5.7087Y-9.0551
X6.1024Y-5.115
X6.1024Y-5.315
X6.1024Y-8.8551
X6.1024Y-9.0551
X6.5551Y-8.7551
X6.5551Y-9.0551
X6.6535Y-5.1543
X6.6535Y-5.3543
X6.7551Y-8.7551
X6.7551Y-9.0551
X7.0835Y-5.1331
X7.0835Y-5.4331
X7.1457Y-8.7551
X7.1457Y-9.0551
X7.2835Y-5.1331
X7.2835Y-5.4331
X7.3457Y-8.7551
X7.3457Y-9.0551
X7.674Y-5.1331
X7.674Y-5.4331
X7.7362Y-8.7551
X7.7362Y-9.0551
X7.874Y-5.1331
X7.874Y-5.4331
X7.9362Y-8.7551
X7.9362Y-9.0551
X8.3268Y-8.7551
X8.3268Y-9.0551
X8.5268Y-8.7551
X8.5268Y-9.0551
X8.9276Y-8.7551
X8.9276Y-9.0551
X9.1276Y-8.7551
X9.1276Y-9.0551
X9.2488Y-5.1331
X9.2488Y-5.4331
X9.3276Y-8.7551
X9.3276Y-9.0551
X9.4488Y-5.1331
X9.4488Y-5.4331
X9.5276Y-8.7551
X9.5276Y-9.0551
T10
X3.5276Y-5.8024
X3.5276Y-6.1024
X3.7276Y-5.8024
X3.7276Y-6.1024
X3.9276Y-5.8024
X3.9276Y-6.1024
X4.5276Y-5.8024
X4.5276Y-6.1024
X4.9055Y-5.8024
X4.9055Y-6.1024
X5.1055Y-5.8024
X5.1055Y-6.1024
X5.3055Y-5.8024
X5.3055Y-6.1024
X5.9055Y-5.8024
X5.9055Y-6.1024
X6.2835Y-5.8024
X6.2835Y-6.1024
X6.4835Y-5.8024
X6.4835Y-6.1024
X6.6835Y-5.8024
X6.6835Y-6.1024
X7.2835Y-5.8024
X7.2835Y-6.1024
T11
X3.5433Y-6.3386
X4.9055Y-6.3228
X6.1543Y-6.3903
T12
X3.5433Y-4.9213
X3.5433Y-9.252
X10.0382Y-9.252
X10.0394Y-4.9213
T0
M30
