G04 #@! TF.FileFunction,Copper,L1,Top,Signal*
%FSLAX46Y46*%
G04 Gerber Fmt 4.6, Leading zero omitted, Abs format (unit mm)*
G04 Created by KiCad (PCBNEW 4.0.7-e2-6376~58~ubuntu16.04.1) date Wed Aug 29 18:27:50 2018*
%MOMM*%
%LPD*%
G01*
G04 APERTURE LIST*
%ADD10C,0.100000*%
%ADD11C,7.400000*%
%ADD12C,3.000000*%
%ADD13C,2.500000*%
%ADD14R,1.250000X1.000000*%
%ADD15R,1.000000X1.250000*%
%ADD16R,2.300000X2.500000*%
%ADD17R,2.500000X2.300000*%
%ADD18O,2.540000X3.810000*%
%ADD19C,4.000000*%
%ADD20R,1.700000X1.700000*%
%ADD21O,1.700000X1.700000*%
%ADD22R,0.700000X1.300000*%
%ADD23R,1.300000X0.700000*%
%ADD24R,1.524000X1.524000*%
%ADD25R,0.900000X0.800000*%
%ADD26R,3.800000X2.000000*%
%ADD27R,1.500000X2.000000*%
%ADD28O,2.500000X3.500000*%
%ADD29O,1.100000X2.200000*%
%ADD30R,0.600000X1.200000*%
%ADD31R,1.200000X0.600000*%
%ADD32R,1.500000X0.450000*%
%ADD33R,0.650000X1.060000*%
%ADD34R,1.500000X1.500000*%
%ADD35R,2.000000X2.000000*%
%ADD36C,5.000000*%
%ADD37C,8.000000*%
%ADD38C,1.524000*%
%ADD39R,1.500000X3.000000*%
%ADD40R,1.100000X2.000000*%
%ADD41R,3.200000X1.000000*%
%ADD42C,0.900000*%
%ADD43C,2.000000*%
%ADD44C,0.600000*%
%ADD45C,0.400000*%
%ADD46C,0.600000*%
%ADD47C,1.500000*%
%ADD48C,1.000000*%
%ADD49C,4.500000*%
%ADD50C,4.000000*%
G04 APERTURE END LIST*
D10*
D11*
X267970000Y-236000000D03*
X177000000Y-199000000D03*
X78000000Y-236000000D03*
X268000000Y-86000000D03*
X158719581Y-88719581D03*
D12*
X212400000Y-153000000D03*
X212400000Y-160620000D03*
X192080000Y-153000000D03*
X187000000Y-153000000D03*
X197160000Y-153000000D03*
X192080000Y-160620000D03*
X187000000Y-160620000D03*
X197160000Y-160620000D03*
D13*
X201767767Y-180232233D03*
X198232233Y-183767767D03*
D14*
X224300000Y-192700000D03*
X224300000Y-194700000D03*
X224300000Y-180700000D03*
X224300000Y-182700000D03*
D15*
X234000000Y-202500000D03*
X236000000Y-202500000D03*
D14*
X214000000Y-212500000D03*
X214000000Y-214500000D03*
X214000000Y-216500000D03*
X214000000Y-218500000D03*
D15*
X234000000Y-205500000D03*
X236000000Y-205500000D03*
D14*
X214000000Y-210500000D03*
X214000000Y-208500000D03*
D15*
X229000000Y-204500000D03*
X227000000Y-204500000D03*
D14*
X221000000Y-217500000D03*
X221000000Y-215500000D03*
D15*
X267000000Y-221000000D03*
X265000000Y-221000000D03*
D16*
X209000000Y-196700000D03*
X209000000Y-201000000D03*
D17*
X211700000Y-170000000D03*
X216000000Y-170000000D03*
D18*
X87000000Y-223380000D03*
X87000000Y-231000000D03*
X92080000Y-223380000D03*
X92080000Y-231000000D03*
D19*
X207500000Y-101000000D03*
X198000000Y-101000000D03*
X188500000Y-101000000D03*
X179000000Y-101000000D03*
D20*
X243540000Y-213160000D03*
D21*
X241000000Y-213160000D03*
X243540000Y-210620000D03*
X241000000Y-210620000D03*
X243540000Y-208080000D03*
X241000000Y-208080000D03*
X243540000Y-205540000D03*
X241000000Y-205540000D03*
X243540000Y-203000000D03*
X241000000Y-203000000D03*
D18*
X194760000Y-223500000D03*
X194760000Y-231120000D03*
X199840000Y-223500000D03*
X199840000Y-231120000D03*
X210000000Y-223500000D03*
X204920000Y-223500000D03*
X204920000Y-231120000D03*
X210000000Y-231120000D03*
X164500000Y-223500000D03*
X164500000Y-231120000D03*
X169580000Y-223500000D03*
X169580000Y-231120000D03*
X134500000Y-223380000D03*
X134500000Y-231000000D03*
X139580000Y-223380000D03*
X139580000Y-231000000D03*
X149500000Y-223380000D03*
X149500000Y-231000000D03*
X154580000Y-223380000D03*
X154580000Y-231000000D03*
X179500000Y-223500000D03*
X179500000Y-231120000D03*
X184580000Y-223500000D03*
X184580000Y-231120000D03*
D19*
X105000000Y-224000000D03*
X114500000Y-224000000D03*
X124000000Y-224000000D03*
D12*
X212400000Y-114380000D03*
X212400000Y-122000000D03*
X192080000Y-114380000D03*
X187000000Y-114380000D03*
X197160000Y-114380000D03*
X192080000Y-122000000D03*
X187000000Y-122000000D03*
X197160000Y-122000000D03*
X212400000Y-134000000D03*
X212400000Y-141620000D03*
X192080000Y-134000000D03*
X187000000Y-134000000D03*
X197160000Y-134000000D03*
X192080000Y-141620000D03*
X187000000Y-141620000D03*
X197160000Y-141620000D03*
D22*
X243000000Y-226500000D03*
X241100000Y-226500000D03*
X241100000Y-224500000D03*
X243000000Y-224500000D03*
D23*
X222000000Y-221500000D03*
X222000000Y-223400000D03*
X224000000Y-221500000D03*
X224000000Y-223400000D03*
X226000000Y-221500000D03*
X226000000Y-223400000D03*
X231000000Y-223400000D03*
X231000000Y-221500000D03*
X229000000Y-223400000D03*
X229000000Y-221500000D03*
X199000000Y-212500000D03*
X199000000Y-210600000D03*
X199000000Y-214600000D03*
X199000000Y-216500000D03*
X233000000Y-223400000D03*
X233000000Y-221500000D03*
X224500000Y-169050000D03*
X224500000Y-170950000D03*
D22*
X177100000Y-217500000D03*
X179000000Y-217500000D03*
X179000000Y-214500000D03*
X177100000Y-214500000D03*
X188100000Y-217500000D03*
X190000000Y-217500000D03*
X189900000Y-214500000D03*
X188000000Y-214500000D03*
D24*
X241000000Y-219500000D03*
X243032000Y-219500000D03*
D25*
X221500000Y-170950000D03*
X221500000Y-169050000D03*
X219500000Y-170000000D03*
D26*
X219300000Y-196700000D03*
D27*
X219300000Y-190400000D03*
X217000000Y-190400000D03*
X221600000Y-190400000D03*
D26*
X219300000Y-184700000D03*
D27*
X219300000Y-178400000D03*
X217000000Y-178400000D03*
X221600000Y-178400000D03*
D28*
X234000000Y-159500000D03*
X257000000Y-159500000D03*
X225500000Y-97500000D03*
X245500000Y-97500000D03*
D29*
X264000000Y-171000000D03*
X262000000Y-171000000D03*
X260000000Y-171000000D03*
X258000000Y-171000000D03*
X256000000Y-171000000D03*
X254000000Y-171000000D03*
X252000000Y-171000000D03*
X250000000Y-171000000D03*
X248000000Y-171000000D03*
X246000000Y-171000000D03*
X244000000Y-171000000D03*
X242000000Y-171000000D03*
X240000000Y-171000000D03*
X238000000Y-171000000D03*
X236000000Y-171000000D03*
X234000000Y-171000000D03*
X234000000Y-195400000D03*
X236000000Y-195400000D03*
X238000000Y-195400000D03*
X240000000Y-195400000D03*
X242000000Y-195400000D03*
X244000000Y-195400000D03*
X246000000Y-195400000D03*
X248000000Y-195400000D03*
X250000000Y-195400000D03*
X252000000Y-195400000D03*
X254000000Y-195400000D03*
X256000000Y-195400000D03*
X258000000Y-195400000D03*
X260000000Y-195400000D03*
X262000000Y-195400000D03*
X264000000Y-195400000D03*
D30*
X232050000Y-208250000D03*
X231250000Y-208250000D03*
X230450000Y-208250000D03*
X229650000Y-208250000D03*
X228850000Y-208250000D03*
X228050000Y-208250000D03*
X227250000Y-208250000D03*
X226450000Y-208250000D03*
D31*
X225000000Y-209700000D03*
X225000000Y-210500000D03*
X225000000Y-211300000D03*
X225000000Y-212100000D03*
X225000000Y-212900000D03*
X225000000Y-213700000D03*
X225000000Y-214500000D03*
X225000000Y-215300000D03*
D30*
X226450000Y-216750000D03*
X227250000Y-216750000D03*
X228050000Y-216750000D03*
X228850000Y-216750000D03*
X229650000Y-216750000D03*
X230450000Y-216750000D03*
X231250000Y-216750000D03*
X232050000Y-216750000D03*
D31*
X233500000Y-215300000D03*
X233500000Y-214500000D03*
X233500000Y-213700000D03*
X233500000Y-212900000D03*
X233500000Y-212100000D03*
X233500000Y-211300000D03*
X233500000Y-210500000D03*
X233500000Y-209700000D03*
D32*
X203100000Y-211225000D03*
X203100000Y-211875000D03*
X203100000Y-212525000D03*
X203100000Y-213175000D03*
X203100000Y-213825000D03*
X203100000Y-214475000D03*
X203100000Y-215125000D03*
X203100000Y-215775000D03*
X209000000Y-215775000D03*
X209000000Y-215125000D03*
X209000000Y-214475000D03*
X209000000Y-213825000D03*
X209000000Y-213175000D03*
X209000000Y-212525000D03*
X209000000Y-211875000D03*
X209000000Y-211225000D03*
D33*
X267950000Y-224500000D03*
X267000000Y-224500000D03*
X266050000Y-224500000D03*
X266050000Y-226700000D03*
X267950000Y-226700000D03*
X267000000Y-226700000D03*
D34*
X162160000Y-216000000D03*
X159620000Y-216000000D03*
D35*
X149460000Y-216000000D03*
X141840000Y-216000000D03*
D34*
X162160000Y-208000000D03*
X159620000Y-208000000D03*
D35*
X149460000Y-208000000D03*
X141840000Y-208000000D03*
D36*
X178000000Y-141500000D03*
X178000000Y-161500000D03*
X178000000Y-181500000D03*
X78000000Y-141500000D03*
X78000000Y-161500000D03*
X78000000Y-181500000D03*
D37*
X152000000Y-103000000D03*
X152000000Y-195000000D03*
X104000000Y-103000000D03*
X104000000Y-195000000D03*
D12*
X140500000Y-86500000D03*
X135500000Y-86500000D03*
X130500000Y-86500000D03*
X125500000Y-86500000D03*
X120500000Y-86500000D03*
X115500000Y-86500000D03*
D38*
X237000000Y-233500000D03*
X239540000Y-233500000D03*
X242080000Y-233500000D03*
D39*
X252825000Y-228750000D03*
X254095000Y-233250000D03*
X255365000Y-228750000D03*
X256635000Y-233250000D03*
X257905000Y-228750000D03*
X259175000Y-233250000D03*
X252825000Y-216750000D03*
X254095000Y-221250000D03*
X255365000Y-216750000D03*
X256635000Y-221250000D03*
X257905000Y-216750000D03*
X259175000Y-221250000D03*
X252825000Y-204750000D03*
X254095000Y-209250000D03*
X255365000Y-204750000D03*
X256635000Y-209250000D03*
X257905000Y-204750000D03*
X259175000Y-209250000D03*
D40*
X222300000Y-233500000D03*
X224000000Y-233500000D03*
X225700000Y-233500000D03*
X225700000Y-228700000D03*
X224000000Y-228700000D03*
X222300000Y-228700000D03*
D16*
X203000000Y-201000000D03*
X203000000Y-196700000D03*
D41*
X188000000Y-196000000D03*
X188000000Y-202200000D03*
X198000000Y-196000000D03*
X198000000Y-202200000D03*
X193000000Y-196000000D03*
X193000000Y-202200000D03*
D20*
X268000000Y-215700000D03*
D21*
X268000000Y-213160000D03*
X268000000Y-210620000D03*
X268000000Y-208080000D03*
X268000000Y-205540000D03*
X268000000Y-203000000D03*
D11*
X78000000Y-86000000D03*
D42*
X218182794Y-208883179D03*
X243032000Y-217032000D03*
X224234408Y-235550990D03*
X221500000Y-167000000D03*
X222434290Y-176434290D03*
X162160000Y-213000000D03*
X221881580Y-219292528D03*
X251500000Y-232000000D03*
X265000000Y-219000000D03*
X267950000Y-227950000D03*
X243000000Y-223000000D03*
X237000000Y-204000000D03*
X225000000Y-205000000D03*
X197000000Y-214000000D03*
X187000000Y-214000000D03*
X176000000Y-214000000D03*
X222000000Y-188000000D03*
X234500000Y-207000000D03*
X227000000Y-200500000D03*
X223000000Y-200500000D03*
X216000000Y-217500000D03*
X223000000Y-217500000D03*
X261500000Y-200500000D03*
X255913203Y-202150001D03*
X187431192Y-236823794D03*
X184465605Y-205965605D03*
X184465605Y-200465605D03*
X261212570Y-206936711D03*
X265500000Y-204000000D03*
X230000000Y-198500000D03*
X212000000Y-198500000D03*
X241000000Y-198500000D03*
X251500000Y-224000000D03*
X257905000Y-224000000D03*
D43*
X140899523Y-190358460D03*
X160043607Y-153068565D03*
X160023895Y-166651243D03*
D44*
X239000000Y-224500000D03*
X236000000Y-224500000D03*
X231004371Y-215384180D03*
X227350990Y-219000000D03*
X230463590Y-204483724D03*
X255365000Y-212699010D03*
X228898011Y-218841750D03*
X230500000Y-210000000D03*
X255365000Y-225000000D03*
X260500000Y-225000000D03*
X230773908Y-203199010D03*
X228199010Y-219834723D03*
X229500000Y-210000000D03*
X254095000Y-213500000D03*
X254095000Y-226000000D03*
X260500000Y-226000000D03*
X205156524Y-215432615D03*
X197500000Y-216000000D03*
X231230717Y-204260257D03*
X231500000Y-210000000D03*
X231500000Y-210000000D03*
X259244119Y-211815719D03*
X230116365Y-218500000D03*
X215000000Y-189000000D03*
X215000000Y-193500000D03*
X220863054Y-201458709D03*
X232500000Y-206000000D03*
X220989416Y-202586248D03*
X232500000Y-205000000D03*
X224828259Y-208264736D03*
X221637059Y-208333438D03*
X228597627Y-210973385D03*
X206500000Y-210299990D03*
X228592793Y-212429114D03*
X206814289Y-212825738D03*
X228119624Y-214199418D03*
X211000000Y-215500000D03*
X227181444Y-213791514D03*
X205868949Y-214121965D03*
X222702247Y-211517403D03*
X201000000Y-211500000D03*
X226339675Y-218986329D03*
X203000000Y-216500000D03*
D42*
X216500000Y-167000000D03*
D45*
X217927020Y-200427020D02*
X214000000Y-196500000D01*
X221153829Y-200427020D02*
X217927020Y-200427020D01*
X222114108Y-201387299D02*
X221153829Y-200427020D01*
X222114108Y-204885460D02*
X222114108Y-201387299D01*
X220900557Y-206099011D02*
X222114108Y-204885460D01*
X206900989Y-206099011D02*
X220900557Y-206099011D01*
X205500000Y-207500000D02*
X206900989Y-206099011D01*
X205500000Y-212764465D02*
X205500000Y-207500000D01*
X206560535Y-213825000D02*
X205500000Y-212764465D01*
X209000000Y-213825000D02*
X206560535Y-213825000D01*
X214000000Y-214500000D02*
X214000000Y-216500000D01*
X214000000Y-196500000D02*
X209200000Y-196500000D01*
X209200000Y-196500000D02*
X209000000Y-196700000D01*
X214000000Y-196500000D02*
X214000000Y-192000000D01*
X214000000Y-192000000D02*
X215600000Y-190400000D01*
X215600000Y-190400000D02*
X217000000Y-190400000D01*
D46*
X203000000Y-201000000D02*
X203000000Y-200900000D01*
X203000000Y-200900000D02*
X207200000Y-196700000D01*
X207200000Y-196700000D02*
X207250000Y-196700000D01*
X207250000Y-196700000D02*
X209000000Y-196700000D01*
D45*
X209000000Y-213825000D02*
X213325000Y-213825000D01*
X213325000Y-213825000D02*
X214000000Y-214500000D01*
D46*
X214000000Y-212500000D02*
X214959493Y-212500000D01*
X214959493Y-212500000D02*
X218182794Y-209276699D01*
X218182794Y-209276699D02*
X218182794Y-208883179D01*
X243032000Y-219500000D02*
X243032000Y-217032000D01*
X224000000Y-235316582D02*
X224234408Y-235550990D01*
X224000000Y-233500000D02*
X224000000Y-235316582D01*
X221500000Y-169050000D02*
X221500000Y-167000000D01*
X221984291Y-176884289D02*
X222434290Y-176434290D01*
X221600000Y-177268580D02*
X221984291Y-176884289D01*
X221600000Y-178400000D02*
X221600000Y-177268580D01*
X162160000Y-213000000D02*
X162160000Y-208000000D01*
X162160000Y-214650000D02*
X162160000Y-213000000D01*
X162160000Y-216000000D02*
X162160000Y-214650000D01*
X221245184Y-219292528D02*
X221881580Y-219292528D01*
X220578010Y-219292528D02*
X221245184Y-219292528D01*
X220323352Y-215500000D02*
X219488781Y-216334571D01*
X221000000Y-215500000D02*
X220323352Y-215500000D01*
X219488781Y-216334571D02*
X219488781Y-218203299D01*
X219488781Y-218203299D02*
X220578010Y-219292528D01*
X251675000Y-232000000D02*
X251500000Y-232000000D01*
X252825000Y-228750000D02*
X252825000Y-230850000D01*
X252825000Y-230850000D02*
X251675000Y-232000000D01*
X252825000Y-216750000D02*
X252825000Y-218850000D01*
X252825000Y-218850000D02*
X252825000Y-228750000D01*
X252825000Y-204750000D02*
X252825000Y-216750000D01*
X265000000Y-221000000D02*
X265000000Y-219000000D01*
X266050000Y-224500000D02*
X266050000Y-224488165D01*
X266050000Y-224488165D02*
X266044966Y-224483131D01*
X266044966Y-224483131D02*
X266044966Y-223269966D01*
X266044966Y-223269966D02*
X265000000Y-222225000D01*
X265000000Y-222225000D02*
X265000000Y-221000000D01*
X267950000Y-226700000D02*
X267950000Y-227950000D01*
X243000000Y-224500000D02*
X243000000Y-223000000D01*
X224000000Y-233500000D02*
X225700000Y-233500000D01*
X222300000Y-233500000D02*
X224000000Y-233500000D01*
D45*
X209000000Y-213175000D02*
X213325000Y-213175000D01*
X213325000Y-213175000D02*
X214000000Y-212500000D01*
D46*
X236000000Y-204000000D02*
X236000000Y-202500000D01*
X236000000Y-205500000D02*
X236000000Y-204000000D01*
X236000000Y-204000000D02*
X237000000Y-204000000D01*
X225500000Y-204500000D02*
X225000000Y-205000000D01*
X227000000Y-204500000D02*
X225500000Y-204500000D01*
X236000000Y-205500000D02*
X236000000Y-207200000D01*
X236000000Y-207200000D02*
X233500000Y-209700000D01*
X233500000Y-210500000D02*
X233500000Y-209700000D01*
X225000000Y-215300000D02*
X221200000Y-215300000D01*
X221200000Y-215300000D02*
X221000000Y-215500000D01*
X214000000Y-210500000D02*
X214000000Y-212500000D01*
X197600000Y-214600000D02*
X197000000Y-214000000D01*
X199000000Y-214600000D02*
X197600000Y-214600000D01*
X199000000Y-212500000D02*
X199000000Y-214600000D01*
X187000000Y-214450000D02*
X187000000Y-214000000D01*
X188000000Y-214500000D02*
X187050000Y-214500000D01*
X187050000Y-214500000D02*
X187000000Y-214450000D01*
X176000000Y-214350000D02*
X176000000Y-214000000D01*
X177100000Y-214500000D02*
X176150000Y-214500000D01*
X176150000Y-214500000D02*
X176000000Y-214350000D01*
X221600000Y-188400000D02*
X222000000Y-188000000D01*
X221600000Y-190400000D02*
X221600000Y-188400000D01*
X221600000Y-190400000D02*
X222000000Y-190400000D01*
X222000000Y-190400000D02*
X224300000Y-192700000D01*
X221600000Y-178400000D02*
X222000000Y-178400000D01*
X222000000Y-178400000D02*
X224300000Y-180700000D01*
X216000000Y-217500000D02*
X216000000Y-212840525D01*
X216000000Y-212840525D02*
X223588823Y-205251702D01*
X223588823Y-205251702D02*
X223588823Y-201088823D01*
X223588823Y-201088823D02*
X223000000Y-200500000D01*
X234500000Y-207000000D02*
X234500000Y-206000000D01*
X234500000Y-206000000D02*
X234000000Y-205500000D01*
X227000000Y-200500000D02*
X229000000Y-200500000D01*
X234000000Y-206000000D02*
X234000000Y-205500000D01*
X232050000Y-207950000D02*
X234000000Y-206000000D01*
X232050000Y-208250000D02*
X232050000Y-207950000D01*
X229000000Y-204500000D02*
X229000000Y-200500000D01*
X229000000Y-200500000D02*
X229000000Y-199275000D01*
X221000000Y-217500000D02*
X223000000Y-217500000D01*
X224300000Y-194700000D02*
X222200000Y-194700000D01*
X222200000Y-194700000D02*
X220200000Y-196700000D01*
X220200000Y-196700000D02*
X219300000Y-196700000D01*
X229000000Y-199275000D02*
X226425000Y-196700000D01*
X226425000Y-196700000D02*
X222306340Y-196700000D01*
X219300000Y-190400000D02*
X219300000Y-196700000D01*
X228850000Y-208250000D02*
X228850000Y-204650000D01*
X228850000Y-204650000D02*
X229000000Y-204500000D01*
X226450000Y-216750000D02*
X221750000Y-216750000D01*
X221750000Y-216750000D02*
X221000000Y-217500000D01*
X219300000Y-196700000D02*
X222306340Y-196700000D01*
X256635000Y-233250000D02*
X256635000Y-234730373D01*
X256635000Y-234730373D02*
X255865373Y-235500000D01*
X255865373Y-235500000D02*
X233188020Y-235500000D01*
X233188020Y-235500000D02*
X231000000Y-233311980D01*
X231000000Y-233311980D02*
X231000000Y-223400000D01*
X262000000Y-200000000D02*
X262000000Y-195400000D01*
X261500000Y-200500000D02*
X262000000Y-200000000D01*
X256635000Y-209250000D02*
X256635000Y-202871798D01*
X256635000Y-202871798D02*
X255913203Y-202150001D01*
X255913203Y-202150001D02*
X244389999Y-202150001D01*
X244389999Y-202150001D02*
X243540000Y-203000000D01*
X219300000Y-184700000D02*
X251850000Y-184700000D01*
X251850000Y-184700000D02*
X262000000Y-194850000D01*
X262000000Y-194850000D02*
X262000000Y-195400000D01*
X224300000Y-182700000D02*
X222110366Y-182700000D01*
X222110366Y-182700000D02*
X220110366Y-184700000D01*
X220110366Y-184700000D02*
X219300000Y-184700000D01*
X231000000Y-223400000D02*
X233000000Y-223400000D01*
X229000000Y-223400000D02*
X231000000Y-223400000D01*
X219300000Y-178400000D02*
X219300000Y-184700000D01*
X256635000Y-221250000D02*
X256635000Y-233250000D01*
X256635000Y-209250000D02*
X256635000Y-218628202D01*
X256635000Y-218628202D02*
X256635000Y-221250000D01*
X224300000Y-182712883D02*
X224300000Y-182700000D01*
D45*
X229650000Y-208250000D02*
X229650000Y-206850000D01*
X229650000Y-206850000D02*
X234000000Y-202500000D01*
X213875000Y-218500000D02*
X214000000Y-218500000D01*
X211700002Y-216325002D02*
X213875000Y-218500000D01*
X211700002Y-215163998D02*
X211700002Y-216325002D01*
X211011004Y-214475000D02*
X211700002Y-215163998D01*
X209000000Y-214475000D02*
X211011004Y-214475000D01*
X209000000Y-212525000D02*
X210504130Y-212525000D01*
X210504130Y-212525000D02*
X211500000Y-211529130D01*
X211500000Y-211529130D02*
X211500000Y-209742283D01*
X211500000Y-209742283D02*
X212742283Y-208500000D01*
X212742283Y-208500000D02*
X214000000Y-208500000D01*
D46*
X267000000Y-223000000D02*
X267000000Y-225303202D01*
X267000000Y-225303202D02*
X267367797Y-225670999D01*
X267367797Y-225670999D02*
X268670999Y-225670999D01*
X268670999Y-225670999D02*
X269000000Y-226000000D01*
X269000000Y-226000000D02*
X269000000Y-228999864D01*
X269000000Y-228999864D02*
X268104301Y-229895563D01*
X268104301Y-229895563D02*
X265906293Y-229895563D01*
X265906293Y-229895563D02*
X261729359Y-234072497D01*
X261729359Y-234072497D02*
X261729359Y-235833009D01*
X261729359Y-235833009D02*
X260738574Y-236823794D01*
X260738574Y-236823794D02*
X188067588Y-236823794D01*
X188067588Y-236823794D02*
X187431192Y-236823794D01*
X184465605Y-205965605D02*
X184465605Y-217500000D01*
X184465605Y-217500000D02*
X184465605Y-221465605D01*
X188100000Y-217500000D02*
X187150000Y-217500000D01*
X187150000Y-217500000D02*
X184465605Y-217500000D01*
X184465605Y-221465605D02*
X184580000Y-221580000D01*
X184580000Y-221580000D02*
X184580000Y-223500000D01*
X184465605Y-191890693D02*
X184465605Y-200465605D01*
X211700000Y-170000000D02*
X206356298Y-170000000D01*
X206356298Y-170000000D02*
X184465605Y-191890693D01*
X267000000Y-223000000D02*
X267000000Y-221000000D01*
X267000000Y-224500000D02*
X267000000Y-223000000D01*
X184531475Y-223451475D02*
X184580000Y-223500000D01*
X216500000Y-153000000D02*
X216500000Y-165300000D01*
X216500000Y-165300000D02*
X211800000Y-170000000D01*
X211800000Y-170000000D02*
X211700000Y-170000000D01*
X216500000Y-134000000D02*
X216500000Y-153000000D01*
X212400000Y-153000000D02*
X216500000Y-153000000D01*
X216500000Y-115500000D02*
X216500000Y-134000000D01*
X212400000Y-134000000D02*
X216500000Y-134000000D01*
X215380000Y-114380000D02*
X216500000Y-115500000D01*
X212400000Y-114380000D02*
X215380000Y-114380000D01*
X184580000Y-223500000D02*
X184580000Y-231120000D01*
X182811450Y-202200000D02*
X164500000Y-220511450D01*
X164500000Y-220995000D02*
X164500000Y-223500000D01*
X188000000Y-202200000D02*
X182811450Y-202200000D01*
X164500000Y-220511450D02*
X164500000Y-220995000D01*
X257905000Y-216750000D02*
X257905000Y-207000000D01*
X257905000Y-207000000D02*
X257905000Y-204750000D01*
X261212570Y-206936711D02*
X257968289Y-206936711D01*
X257968289Y-206936711D02*
X257905000Y-207000000D01*
X266500000Y-203000000D02*
X268000000Y-203000000D01*
X265500000Y-204000000D02*
X266500000Y-203000000D01*
X241000000Y-198500000D02*
X253755000Y-198500000D01*
X257905000Y-202650000D02*
X257905000Y-204750000D01*
X253755000Y-198500000D02*
X257905000Y-202650000D01*
X221008573Y-174141427D02*
X217000000Y-178150000D01*
X217000000Y-178400000D02*
X217000000Y-180000000D01*
X217000000Y-180000000D02*
X215699011Y-181300989D01*
X230000000Y-194029972D02*
X230000000Y-197863604D01*
X234000000Y-164903156D02*
X224761729Y-174141427D01*
X217000000Y-178150000D02*
X217000000Y-178400000D01*
X234000000Y-159500000D02*
X234000000Y-164903156D01*
X224761729Y-174141427D02*
X221008573Y-174141427D01*
X215699011Y-181300989D02*
X215699011Y-185699011D01*
X215699011Y-185699011D02*
X217000000Y-187000000D01*
X222970028Y-187000000D02*
X230000000Y-194029972D01*
X217000000Y-187000000D02*
X222970028Y-187000000D01*
X230000000Y-197863604D02*
X230000000Y-198500000D01*
X209000000Y-201000000D02*
X209500000Y-201000000D01*
X209500000Y-201000000D02*
X212000000Y-198500000D01*
X241000000Y-203000000D02*
X241000000Y-198500000D01*
X243000000Y-226500000D02*
X249000000Y-226500000D01*
X249000000Y-226500000D02*
X251500000Y-224000000D01*
X257905000Y-224000000D02*
X257905000Y-228750000D01*
X257905000Y-216750000D02*
X257905000Y-224000000D01*
X164500000Y-223500000D02*
X164500000Y-226005000D01*
X164500000Y-226005000D02*
X164500000Y-231120000D01*
X198000000Y-202200000D02*
X200200000Y-202200000D01*
X200200000Y-202200000D02*
X201292976Y-203292976D01*
X201292976Y-203292976D02*
X204957024Y-203292976D01*
X204957024Y-203292976D02*
X207250000Y-201000000D01*
X207250000Y-201000000D02*
X209000000Y-201000000D01*
X193000000Y-202200000D02*
X198000000Y-202200000D01*
X188000000Y-202200000D02*
X193000000Y-202200000D01*
D47*
X87000000Y-223380000D02*
X87000000Y-231000000D01*
X119386540Y-190358460D02*
X139838863Y-190358460D01*
X87000000Y-222745000D02*
X119386540Y-190358460D01*
X87000000Y-223380000D02*
X87000000Y-222745000D01*
X139838863Y-190358460D02*
X140899523Y-190358460D01*
X87000000Y-223380000D02*
X87000000Y-224015000D01*
X87000000Y-224015000D02*
X87305769Y-223709231D01*
X179000000Y-101000000D02*
X179000000Y-95500000D01*
X142737581Y-95858901D02*
X178641099Y-95858901D01*
X179000000Y-95500000D02*
X179000000Y-94000000D01*
X135500000Y-86500000D02*
X135500000Y-88621320D01*
X135500000Y-88621320D02*
X142737581Y-95858901D01*
X178641099Y-95858901D02*
X179000000Y-95500000D01*
X179000000Y-94000000D02*
X179017011Y-94000000D01*
X179017011Y-94000000D02*
X182543199Y-90473812D01*
X182543199Y-90473812D02*
X235723812Y-90473812D01*
X242750000Y-97500000D02*
X245500000Y-97500000D01*
X235723812Y-90473812D02*
X242750000Y-97500000D01*
D48*
X160043607Y-153068565D02*
X160043607Y-166631531D01*
X160043607Y-166631531D02*
X160023895Y-166651243D01*
D49*
X203000000Y-162550002D02*
X203000000Y-105500000D01*
X203000000Y-105500000D02*
X207500000Y-101000000D01*
X178000000Y-181500000D02*
X193629999Y-165870001D01*
X193629999Y-165870001D02*
X199680001Y-165870001D01*
X199680001Y-165870001D02*
X203000000Y-162550002D01*
D45*
X233500000Y-212100000D02*
X236980000Y-212100000D01*
X236980000Y-212100000D02*
X241000000Y-208080000D01*
X233500000Y-211300000D02*
X235240000Y-211300000D01*
X235240000Y-211300000D02*
X241000000Y-205540000D01*
X194760000Y-223500000D02*
X194760000Y-225805000D01*
X194760000Y-225805000D02*
X194760000Y-231120000D01*
X203100000Y-211875000D02*
X201950000Y-211875000D01*
X201950000Y-211875000D02*
X200757749Y-213067251D01*
X200757749Y-213067251D02*
X200757749Y-216867251D01*
X200757749Y-216867251D02*
X194760000Y-222865000D01*
X194760000Y-222865000D02*
X194760000Y-223500000D01*
X199840000Y-223500000D02*
X199840000Y-231120000D01*
X203100000Y-213175000D02*
X201600152Y-213175001D01*
X201600152Y-213175001D02*
X201600152Y-221739848D01*
X201600152Y-221739848D02*
X199840000Y-223500000D01*
X210000000Y-221195000D02*
X210000000Y-223500000D01*
X203100000Y-213825000D02*
X204537460Y-213825000D01*
X204537460Y-213825000D02*
X210000000Y-219287540D01*
X210000000Y-219287540D02*
X210000000Y-221195000D01*
X210000000Y-223500000D02*
X210000000Y-231120000D01*
X204457522Y-220732522D02*
X204920000Y-221195000D01*
X204457522Y-215498949D02*
X204457522Y-220732522D01*
X204083573Y-215125000D02*
X204457522Y-215498949D01*
X203100000Y-215125000D02*
X204083573Y-215125000D01*
X204920000Y-221195000D02*
X204920000Y-223500000D01*
X204920000Y-223500000D02*
X204920000Y-231120000D01*
X169580000Y-223500000D02*
X177000000Y-223500000D01*
X177000000Y-223500000D02*
X179500000Y-223500000D01*
X177100000Y-217500000D02*
X177100000Y-223400000D01*
X177100000Y-223400000D02*
X177000000Y-223500000D01*
X179500000Y-223500000D02*
X179500000Y-231120000D01*
X169580000Y-223500000D02*
X169580000Y-231120000D01*
D48*
X149460000Y-208000000D02*
X149460000Y-210000000D01*
X154580000Y-220475000D02*
X154580000Y-223380000D01*
X154580000Y-215120000D02*
X154580000Y-220475000D01*
X149460000Y-210000000D02*
X154580000Y-215120000D01*
D50*
X187000000Y-118000000D02*
X187000000Y-122000000D01*
X187000000Y-114380000D02*
X187000000Y-118000000D01*
X187000000Y-118000000D02*
X184000000Y-118000000D01*
D49*
X97964467Y-118000000D02*
X184000000Y-118000000D01*
X78000000Y-141500000D02*
X78000000Y-137964467D01*
X78000000Y-137964467D02*
X97964467Y-118000000D01*
D50*
X187000000Y-134000000D02*
X182000000Y-134000000D01*
X187000000Y-141620000D02*
X187000000Y-134000000D01*
D49*
X105500000Y-134000000D02*
X182000000Y-134000000D01*
X78000000Y-161500000D02*
X105500000Y-134000000D01*
D50*
X187000000Y-163000000D02*
X185750002Y-163000000D01*
X185750002Y-163000000D02*
X183750002Y-165000000D01*
X187000000Y-160620000D02*
X187000000Y-163000000D01*
X187000000Y-153000000D02*
X187000000Y-160620000D01*
D49*
X78000000Y-181500000D02*
X167250002Y-181500000D01*
X167250002Y-181500000D02*
X183750002Y-165000000D01*
D45*
X230450000Y-216750000D02*
X230450000Y-217750000D01*
X230450000Y-217750000D02*
X232462174Y-219762174D01*
X232462174Y-219762174D02*
X233991655Y-219762174D01*
X233991655Y-219762174D02*
X236000000Y-221770519D01*
X236000000Y-221770519D02*
X236000000Y-224500000D01*
X239000000Y-224500000D02*
X241100000Y-224500000D01*
X241100000Y-226500000D02*
X241100000Y-224500000D01*
X218190759Y-218740956D02*
X220949803Y-221500000D01*
X219726512Y-213700000D02*
X218190759Y-215235752D01*
X220949803Y-221500000D02*
X220950000Y-221500000D01*
X220950000Y-221500000D02*
X222000000Y-221500000D01*
X218190759Y-215235752D02*
X218190759Y-218740956D01*
X225000000Y-213700000D02*
X219726512Y-213700000D01*
X225000000Y-214500000D02*
X219773640Y-214500000D01*
X219773640Y-214500000D02*
X218789770Y-215483870D01*
X218789770Y-215483870D02*
X218789770Y-218492838D01*
X218789770Y-218492838D02*
X220737247Y-220440315D01*
X220737247Y-220440315D02*
X222640315Y-220440315D01*
X222640315Y-220440315D02*
X223700000Y-221500000D01*
X223700000Y-221500000D02*
X224000000Y-221500000D01*
X233500000Y-214500000D02*
X231888551Y-214500000D01*
X231888551Y-214500000D02*
X231304370Y-215084181D01*
X231304370Y-215084181D02*
X231004371Y-215384180D01*
X227050991Y-219299999D02*
X227350990Y-219000000D01*
X226000000Y-220350990D02*
X227050991Y-219299999D01*
X226000000Y-221500000D02*
X226000000Y-220350990D01*
X230500000Y-210424264D02*
X230500000Y-210000000D01*
X228850000Y-216750000D02*
X228850000Y-215439292D01*
X230500000Y-213789292D02*
X230500000Y-210424264D01*
X228850000Y-215439292D02*
X230500000Y-213789292D01*
X234000000Y-197994922D02*
X230074906Y-201920016D01*
X230074906Y-201920016D02*
X230074906Y-204095040D01*
X230074906Y-204095040D02*
X230163591Y-204183725D01*
X234000000Y-195400000D02*
X234000000Y-197994922D01*
X230163591Y-204183725D02*
X230463590Y-204483724D01*
X255365000Y-206650000D02*
X255365000Y-212699010D01*
X255365000Y-204750000D02*
X255365000Y-206650000D01*
X255365000Y-216750000D02*
X255365000Y-212699010D01*
X229091750Y-218841750D02*
X228898011Y-218841750D01*
X231000000Y-220750000D02*
X229091750Y-218841750D01*
X228850000Y-218793739D02*
X228898011Y-218841750D01*
X231000000Y-221500000D02*
X231000000Y-220750000D01*
X228850000Y-216750000D02*
X228850000Y-218793739D01*
X255365000Y-225000000D02*
X255365000Y-228750000D01*
X255365000Y-224500000D02*
X255365000Y-225000000D01*
X255365000Y-216750000D02*
X255365000Y-224500000D01*
X262200000Y-226700000D02*
X260500000Y-225000000D01*
X266050000Y-226700000D02*
X262200000Y-226700000D01*
X229499290Y-213942873D02*
X229499290Y-210000710D01*
X229499290Y-210000710D02*
X229500000Y-210000000D01*
X228050000Y-216750000D02*
X228050000Y-215392163D01*
X228050000Y-215392163D02*
X229499290Y-213942873D01*
X230773908Y-202774746D02*
X230773908Y-203199010D01*
X236000000Y-195400000D02*
X236000000Y-197095168D01*
X236000000Y-197095168D02*
X230773908Y-202321260D01*
X230773908Y-202321260D02*
X230773908Y-202774746D01*
X228050000Y-216750000D02*
X228050000Y-219700603D01*
X228050000Y-219700603D02*
X228184120Y-219834723D01*
X228184120Y-219834723D02*
X228199010Y-219834723D01*
X229000000Y-220635713D02*
X228499009Y-220134722D01*
X229000000Y-221500000D02*
X229000000Y-220635713D01*
X228499009Y-220134722D02*
X228199010Y-219834723D01*
X254095000Y-213500000D02*
X254095000Y-221250000D01*
X254095000Y-209250000D02*
X254095000Y-213500000D01*
X254095000Y-226000000D02*
X254095000Y-233250000D01*
X254095000Y-221250000D02*
X254095000Y-226000000D01*
X262500000Y-228000000D02*
X260500000Y-226000000D01*
X266630000Y-228000000D02*
X262500000Y-228000000D01*
X267000000Y-226700000D02*
X267000000Y-227630000D01*
X267000000Y-227630000D02*
X266630000Y-228000000D01*
X203100000Y-212525000D02*
X204250001Y-212524999D01*
X204250001Y-212524999D02*
X204250001Y-210679999D01*
X204250001Y-210679999D02*
X204170002Y-210600000D01*
X204170002Y-210600000D02*
X200050000Y-210600000D01*
X200050000Y-210600000D02*
X199000000Y-210600000D01*
X203100000Y-214475000D02*
X204340331Y-214475000D01*
X204340331Y-214475000D02*
X205156524Y-215291193D01*
X205156524Y-215291193D02*
X205156524Y-215432615D01*
X197500000Y-216000000D02*
X198500000Y-216000000D01*
X198500000Y-216000000D02*
X199000000Y-216500000D01*
X238000000Y-195400000D02*
X238000000Y-195950000D01*
X238000000Y-195950000D02*
X231519091Y-202430909D01*
X231519091Y-202430909D02*
X231519091Y-203948633D01*
X231519091Y-203948633D02*
X231530716Y-203960258D01*
X231530716Y-203960258D02*
X231230717Y-204260257D01*
X231500000Y-213900000D02*
X231500000Y-210000000D01*
X229650000Y-215750000D02*
X231500000Y-213900000D01*
X229650000Y-216750000D02*
X229650000Y-215750000D01*
X259175000Y-211746600D02*
X259244119Y-211815719D01*
X259175000Y-209250000D02*
X259175000Y-211746600D01*
X259175000Y-221250000D02*
X259175000Y-211884838D01*
X259175000Y-211884838D02*
X259244119Y-211815719D01*
X230116365Y-218500000D02*
X233000000Y-221383635D01*
X229650000Y-218033635D02*
X230116365Y-218500000D01*
X259175000Y-221250000D02*
X259175000Y-233250000D01*
X229650000Y-216750000D02*
X229650000Y-218033635D01*
X233000000Y-221383635D02*
X233000000Y-221500000D01*
X221500000Y-170950000D02*
X222156546Y-170950000D01*
X222156546Y-170950000D02*
X224056546Y-169050000D01*
X224056546Y-169050000D02*
X224500000Y-169050000D01*
X228050000Y-208250000D02*
X228050000Y-203706798D01*
X228050000Y-203706798D02*
X223591245Y-199248043D01*
X223591245Y-199248043D02*
X218229841Y-199248043D01*
X218229841Y-199248043D02*
X215000000Y-196018202D01*
X215000000Y-196018202D02*
X215000000Y-193500000D01*
X215000000Y-189000000D02*
X214092149Y-188092149D01*
X214092149Y-188092149D02*
X214092149Y-176911471D01*
X214092149Y-176911471D02*
X218032197Y-172971423D01*
X218032197Y-172971423D02*
X221428577Y-172971423D01*
X221428577Y-172971423D02*
X223450000Y-170950000D01*
X223450000Y-170950000D02*
X224500000Y-170950000D01*
X179000000Y-214500000D02*
X179000000Y-208834307D01*
X179000000Y-208834307D02*
X183081210Y-204753097D01*
X183081210Y-204753097D02*
X217568666Y-204753097D01*
X217568666Y-204753097D02*
X220563055Y-201758708D01*
X220563055Y-201758708D02*
X220863054Y-201458709D01*
X232500000Y-206181798D02*
X232500000Y-206000000D01*
X231250000Y-208250000D02*
X231250000Y-207431798D01*
X231250000Y-207431798D02*
X232500000Y-206181798D01*
X179000000Y-217500000D02*
X179000000Y-214500000D01*
X189900000Y-214500000D02*
X189900000Y-209074667D01*
X220689417Y-202886247D02*
X220989416Y-202586248D01*
X189900000Y-209074667D02*
X193569490Y-205405177D01*
X193569490Y-205405177D02*
X218170487Y-205405177D01*
X218170487Y-205405177D02*
X220689417Y-202886247D01*
X230450000Y-207050000D02*
X232500000Y-205000000D01*
X230450000Y-208250000D02*
X230450000Y-207050000D01*
X190000000Y-217500000D02*
X190000000Y-214600000D01*
X190000000Y-214600000D02*
X189900000Y-214500000D01*
X233500000Y-215300000D02*
X237962000Y-215300000D01*
X241000000Y-218338000D02*
X241000000Y-219500000D01*
X237962000Y-215300000D02*
X241000000Y-218338000D01*
X224005019Y-207000000D02*
X227000000Y-207000000D01*
X217524378Y-213480641D02*
X224005019Y-207000000D01*
X217524378Y-229514518D02*
X217524378Y-213480641D01*
X227000000Y-207000000D02*
X227250000Y-207250000D01*
X162357450Y-235390925D02*
X211647971Y-235390925D01*
X159620000Y-232653475D02*
X162357450Y-235390925D01*
X159620000Y-216000000D02*
X159620000Y-232653475D01*
X227250000Y-207250000D02*
X227250000Y-208250000D01*
X211647971Y-235390925D02*
X217524378Y-229514518D01*
X221337060Y-208633437D02*
X221637059Y-208333438D01*
X216925367Y-229266400D02*
X216925367Y-213045130D01*
X160262352Y-232448698D02*
X162605568Y-234791914D01*
X160262352Y-222055059D02*
X160262352Y-232448698D01*
X163964276Y-218353135D02*
X160262352Y-222055059D01*
X163964276Y-207251760D02*
X163964276Y-218353135D01*
X162605568Y-234791914D02*
X211399853Y-234791914D01*
X160264962Y-206205038D02*
X162917554Y-206205038D01*
X159620000Y-206850000D02*
X160264962Y-206205038D01*
X159620000Y-208000000D02*
X159620000Y-206850000D01*
X211399853Y-234791914D02*
X216925367Y-229266400D01*
X216925367Y-213045130D02*
X221337060Y-208633437D01*
X162917554Y-206205038D02*
X163964276Y-207251760D01*
X224842995Y-208250000D02*
X224828259Y-208264736D01*
X226450000Y-208250000D02*
X224842995Y-208250000D01*
X228297628Y-210673386D02*
X228597627Y-210973385D01*
X227324242Y-209700000D02*
X228297628Y-210673386D01*
X225000000Y-209700000D02*
X227324242Y-209700000D01*
X209000000Y-211225000D02*
X206991655Y-211225000D01*
X206991655Y-211225000D02*
X206497728Y-210731073D01*
X206497728Y-210731073D02*
X206500000Y-210728801D01*
X206500000Y-210728801D02*
X206500000Y-210299990D01*
X228292794Y-212129115D02*
X228592793Y-212429114D01*
X226663679Y-210500000D02*
X228292794Y-212129115D01*
X225000000Y-210500000D02*
X226663679Y-210500000D01*
X209000000Y-211875000D02*
X207168631Y-211875000D01*
X207168631Y-211875000D02*
X206820147Y-212223484D01*
X206820147Y-212819880D02*
X206814289Y-212825738D01*
X206820147Y-212223484D02*
X206820147Y-212819880D01*
X228119624Y-213775154D02*
X228119624Y-214199418D01*
X228119624Y-213419624D02*
X228119624Y-213775154D01*
X226000000Y-211300000D02*
X228119624Y-213419624D01*
X225000000Y-211300000D02*
X226000000Y-211300000D01*
X210725000Y-215775000D02*
X211000000Y-215500000D01*
X209000000Y-215775000D02*
X210725000Y-215775000D01*
X227181444Y-213367250D02*
X227181444Y-213791514D01*
X225000000Y-212100000D02*
X225914194Y-212100000D01*
X225914194Y-212100000D02*
X227181444Y-213367250D01*
X206010371Y-214121965D02*
X205868949Y-214121965D01*
X207013406Y-215125000D02*
X206010371Y-214121965D01*
X209000000Y-215125000D02*
X207013406Y-215125000D01*
X224000000Y-212900000D02*
X222702247Y-211602247D01*
X222702247Y-211602247D02*
X222702247Y-211517403D01*
X225000000Y-212900000D02*
X224000000Y-212900000D01*
X201275000Y-211225000D02*
X201000000Y-211500000D01*
X203100000Y-211225000D02*
X201275000Y-211225000D01*
X226639674Y-218686330D02*
X226339675Y-218986329D01*
X227250000Y-218076004D02*
X226639674Y-218686330D01*
X227250000Y-216750000D02*
X227250000Y-218076004D01*
X203100000Y-216400000D02*
X203000000Y-216500000D01*
X203100000Y-215775000D02*
X203100000Y-216400000D01*
X234239773Y-219163163D02*
X237000000Y-221923390D01*
X231250000Y-216750000D02*
X231250000Y-217507794D01*
X237000000Y-232422370D02*
X237000000Y-233500000D01*
X237000000Y-221923390D02*
X237000000Y-232422370D01*
X232905369Y-219163163D02*
X234239773Y-219163163D01*
X231250000Y-217507794D02*
X232905369Y-219163163D01*
X232750000Y-216750000D02*
X238000000Y-222000000D01*
X241318001Y-232738001D02*
X242080000Y-233500000D01*
X238000000Y-222000000D02*
X238000000Y-229420000D01*
X232050000Y-216750000D02*
X232750000Y-216750000D01*
X238000000Y-229420000D02*
X241318001Y-232738001D01*
X270081878Y-220979869D02*
X267950000Y-223111747D01*
X267950000Y-223111747D02*
X267950000Y-224500000D01*
X120500000Y-86500000D02*
X120500000Y-84378680D01*
X120500000Y-84378680D02*
X122878680Y-82000000D01*
X122878680Y-82000000D02*
X251000000Y-82000000D01*
X251000000Y-82000000D02*
X270081878Y-101081878D01*
X270081878Y-101081878D02*
X270081878Y-220979869D01*
X267950000Y-224295000D02*
X267950000Y-224500000D01*
X226000000Y-223400000D02*
X226000000Y-228400000D01*
X226000000Y-228400000D02*
X225700000Y-228700000D01*
X224000000Y-223400000D02*
X224000000Y-224150000D01*
X224000000Y-224150000D02*
X224000000Y-228700000D01*
X222000000Y-223400000D02*
X222000000Y-228400000D01*
X222000000Y-228400000D02*
X222300000Y-228700000D01*
X233500000Y-213700000D02*
X240460000Y-213700000D01*
X240460000Y-213700000D02*
X241000000Y-213160000D01*
X233500000Y-212900000D02*
X238720000Y-212900000D01*
X238720000Y-212900000D02*
X241000000Y-210620000D01*
D47*
X92080000Y-223380000D02*
X92080000Y-231000000D01*
X141840000Y-216000000D02*
X141840000Y-208000000D01*
X92080000Y-223380000D02*
X94850000Y-223380000D01*
X110230000Y-208000000D02*
X139340000Y-208000000D01*
X139340000Y-208000000D02*
X141840000Y-208000000D01*
X94850000Y-223380000D02*
X110230000Y-208000000D01*
D45*
X254000000Y-195400000D02*
X254000000Y-197472726D01*
X254000000Y-197472726D02*
X265716096Y-209188822D01*
X265716096Y-209188822D02*
X265716096Y-212096979D01*
X265716096Y-212096979D02*
X266779117Y-213160000D01*
X266779117Y-213160000D02*
X268000000Y-213160000D01*
X267150001Y-209770001D02*
X268000000Y-210620000D01*
X256000000Y-195400000D02*
X256000000Y-198620000D01*
X256000000Y-198620000D02*
X267150001Y-209770001D01*
X258000000Y-195400000D02*
X258000000Y-199623110D01*
X258000000Y-199623110D02*
X266456890Y-208080000D01*
X266456890Y-208080000D02*
X268000000Y-208080000D01*
X260000000Y-195400000D02*
X260000000Y-200698303D01*
X260000000Y-200698303D02*
X264841697Y-205540000D01*
X264841697Y-205540000D02*
X268000000Y-205540000D01*
D46*
X203000000Y-196700000D02*
X203000000Y-181464466D01*
X203000000Y-181464466D02*
X201767767Y-180232233D01*
X198000000Y-196000000D02*
X202300000Y-196000000D01*
X202300000Y-196000000D02*
X203000000Y-196700000D01*
X193000000Y-196000000D02*
X198000000Y-196000000D01*
X188000000Y-196000000D02*
X193000000Y-196000000D01*
X216000000Y-170000000D02*
X219500000Y-170000000D01*
X216000000Y-167500000D02*
X216500000Y-167000000D01*
X216000000Y-170000000D02*
X216000000Y-167500000D01*
M02*
