M48
;DRILL file {KiCad 4.0.7-e2-6376~58~ubuntu16.04.1} date Wed Aug 29 18:27:52 2018
;FORMAT={-:-/ absolute / inch / decimal}
FMAT,2
INCH,TZ
T1C0.016
T2C0.024
T3C0.031
T4C0.035
T5C0.039
T6C0.040
T7C0.043
T8C0.047
T9C0.051
T10C0.055
T11C0.059
T12C0.067
T13C0.075
T14C0.146
T15C0.213
%
G90
G05
M72
T1
X7.7756Y-8.5039
X7.9134Y-8.3268
X7.9921Y-8.5236
X8.077Y-8.4816
X8.1051Y-8.43
X8.1299Y-8.2795
X8.1423Y-8.379
X8.3071Y-8.4843
X8.4646Y-7.4409
X8.4646Y-7.6181
X8.6954Y-7.9314
X8.7004Y-7.9758
X8.7259Y-8.2021
X8.7678Y-8.3275
X8.8515Y-8.1994
X8.911Y-8.6215
X8.9442Y-8.417
X8.9508Y-8.622
X8.9811Y-8.433
X8.9842Y-8.6549
X8.9997Y-8.3634
X8.9999Y-8.306
X9.0117Y-8.6158
X9.0354Y-8.2677
X9.0597Y-8.6024
X9.0734Y-8.0505
X9.0748Y-8.2677
X9.0856Y-8.
X9.0947Y-8.4797
X9.1036Y-8.0417
X9.1142Y-8.2677
X9.1142Y-8.2677
X9.1535Y-8.0709
X9.1535Y-8.1102
X9.2913Y-8.8386
X9.4094Y-8.8386
X10.0037Y-8.4055
X10.0037Y-8.8976
X10.0537Y-8.374
X10.0537Y-8.8583
X10.2065Y-8.3392
X10.2559Y-8.8583
X10.2559Y-8.8976
T2
X6.3843Y-8.3858
X6.9291Y-8.4252
X7.2624Y-7.8923
X7.2624Y-8.1089
X7.3622Y-8.4252
X7.3792Y-9.3238
X7.7559Y-8.4252
X8.3465Y-7.815
X8.5039Y-8.563
X8.5236Y-6.5748
X8.5899Y-8.2237
X8.7205Y-6.5748
X8.7355Y-8.6336
X8.7402Y-7.4016
X8.7573Y-6.9462
X8.7795Y-7.8937
X8.7795Y-8.563
X8.8281Y-9.2737
X8.8583Y-8.0709
X8.937Y-7.8937
X9.0551Y-7.815
X9.2323Y-8.1496
X9.3307Y-8.0315
X9.4882Y-7.815
X9.5669Y-8.7795
X9.5682Y-8.5446
X9.9016Y-8.8189
X9.9016Y-9.1339
X10.0753Y-7.9587
X10.1537Y-8.8189
X10.284Y-8.1471
X10.2953Y-7.8937
X10.4331Y-8.622
X10.4528Y-8.0315
X10.5492Y-8.9744
T3
X5.5843Y-8.189
X5.5843Y-8.5039
X5.8843Y-8.189
X5.8843Y-8.5039
X6.2843Y-8.189
X6.2843Y-8.5039
X6.3843Y-8.189
X6.3843Y-8.5039
T4
X9.2126Y-6.7323
X9.2126Y-7.6929
X9.2913Y-6.7323
X9.2913Y-7.6929
X9.3701Y-6.7323
X9.3701Y-7.6929
X9.4488Y-6.7323
X9.4488Y-7.6929
X9.5276Y-6.7323
X9.5276Y-7.6929
X9.6063Y-6.7323
X9.6063Y-7.6929
X9.685Y-6.7323
X9.685Y-7.6929
X9.7638Y-6.7323
X9.7638Y-7.6929
X9.8425Y-6.7323
X9.8425Y-7.6929
X9.9213Y-6.7323
X9.9213Y-7.6929
X10.Y-6.7323
X10.Y-7.6929
X10.0787Y-6.7323
X10.0787Y-7.6929
X10.1575Y-6.7323
X10.1575Y-7.6929
X10.2362Y-6.7323
X10.2362Y-7.6929
X10.315Y-6.7323
X10.315Y-7.6929
X10.3937Y-6.7323
X10.3937Y-7.6929
T5
X9.4882Y-7.9921
X9.4882Y-8.0921
X9.4882Y-8.1921
X9.4882Y-8.2921
X9.4882Y-8.3921
X9.5882Y-7.9921
X9.5882Y-8.0921
X9.5882Y-8.1921
X9.5882Y-8.2921
X9.5882Y-8.3921
X10.5512Y-7.9921
X10.5512Y-8.0921
X10.5512Y-8.1921
X10.5512Y-8.2921
X10.5512Y-8.3921
X10.5512Y-8.4921
T6
X9.3307Y-9.1929
X9.4307Y-9.1929
X9.5307Y-9.1929
T7
X4.5472Y-3.4055
X4.7441Y-3.4055
X4.9409Y-3.4055
X5.1378Y-3.4055
X5.3346Y-3.4055
X5.5315Y-3.4055
T8
X5.5472Y-7.4944
X6.3002Y-6.5611
X6.3009Y-6.0263
X8.878Y-3.8386
X9.2126Y-6.2795
X9.6654Y-3.8386
X10.1181Y-6.2795
T9
X7.8044Y-7.235
X7.9436Y-7.0958
T10
X3.4252Y-8.7945
X3.4252Y-9.0945
X3.6252Y-8.7945
X3.6252Y-9.0945
X5.2953Y-8.7945
X5.2953Y-9.0945
X5.4953Y-8.7945
X5.4953Y-9.0945
X5.8858Y-8.7945
X5.8858Y-9.0945
X6.0858Y-8.7945
X6.0858Y-9.0945
X6.4764Y-8.7992
X6.4764Y-9.0992
X6.6764Y-8.7992
X6.6764Y-9.0992
X7.0669Y-8.7992
X7.0669Y-9.0992
X7.2669Y-8.7992
X7.2669Y-9.0992
X7.6677Y-8.7992
X7.6677Y-9.0992
X7.8677Y-8.7992
X7.8677Y-9.0992
X8.0677Y-8.7992
X8.0677Y-9.0992
X8.2677Y-8.7992
X8.2677Y-9.0992
T11
X7.3622Y-4.5031
X7.3622Y-4.8031
X7.3622Y-5.2756
X7.3622Y-5.5756
X7.3622Y-6.0236
X7.3622Y-6.3236
X7.5622Y-4.5031
X7.5622Y-4.8031
X7.5622Y-5.2756
X7.5622Y-5.5756
X7.5622Y-6.0236
X7.5622Y-6.3236
X7.7622Y-4.5031
X7.7622Y-4.8031
X7.7622Y-5.2756
X7.7622Y-5.5756
X7.7622Y-6.0236
X7.7622Y-6.3236
X8.3622Y-4.5031
X8.3622Y-4.8031
X8.3622Y-5.2756
X8.3622Y-5.5756
X8.3622Y-6.0236
X8.3622Y-6.3236
T12
X3.0709Y-5.5709
X3.0709Y-6.3583
X3.0709Y-7.1457
X7.0079Y-5.5709
X7.0079Y-6.3583
X7.0079Y-7.1457
T13
X4.1339Y-8.8189
X4.5079Y-8.8189
X4.8819Y-8.8189
X7.0472Y-3.9764
X7.4213Y-3.9764
X7.7953Y-3.9764
X8.1693Y-3.9764
T14
X3.0709Y-3.3858
X3.0709Y-9.2913
X6.2488Y-3.4929
X6.9685Y-7.8346
X10.55Y-9.2913
X10.5512Y-3.3858
T15
X4.0945Y-4.0551
X4.0945Y-7.6772
X5.9843Y-4.0551
X5.9843Y-7.6772
T0
M30
