M48
;DRILL file {KiCad 4.0.7-e2-6376~58~ubuntu16.04.1} date Wed Dec 12 02:29:37 2018
;FORMAT={-:-/ absolute / inch / decimal}
FMAT,2
INCH,TZ
T1C0.016
T2C0.024
T3C0.028
T4C0.031
T5C0.039
T6C0.040
T7C0.047
T8C0.051
T9C0.055
T10C0.059
T11C0.079
T12C0.146
%
G90
G05
M72
T1
X8.0802Y-7.4058
X8.2202Y-7.4058
X8.3953Y-7.9177
X8.3957Y-7.9528
X8.4646Y-7.4016
X8.4646Y-7.4409
X8.5138Y-7.5984
X8.5531Y-7.5394
X8.5899Y-7.5709
X8.622Y-7.9823
X8.6614Y-5.9449
X8.6614Y-5.9843
X8.7205Y-7.9823
X8.7598Y-7.5984
X8.7598Y-7.6378
X8.853Y-7.0493
X8.8573Y-7.4488
X8.8795Y-7.0166
X8.9004Y-8.4345
X8.9057Y-7.4106
X8.9173Y-8.0906
X8.918Y-8.1634
X8.9226Y-6.9975
X8.9407Y-8.4351
X8.9465Y-8.2568
X8.9469Y-8.1894
X8.9567Y-7.5394
X8.9774Y-8.4338
X8.9961Y-5.9449
X8.9961Y-7.0472
X9.0159Y-8.4338
X9.0183Y-5.63
X9.0258Y-7.2244
X9.0354Y-7.0472
X9.0354Y-7.1298
X9.0354Y-7.1726
X9.051Y-5.9865
X9.1239Y-8.174
X9.124Y-8.2094
X9.124Y-8.1369
X9.1575Y-8.1733
X9.1582Y-8.1371
X9.1584Y-8.2097
X9.1908Y-8.1369
X9.1909Y-8.1742
X9.1909Y-8.2094
X9.2193Y-7.9235
X9.2716Y-7.9931
X9.8649Y-7.0747
X9.8778Y-7.1175
X10.0446Y-7.1728
X10.0629Y-7.0906
T2
X6.6535Y-7.3622
X6.7323Y-6.8672
X7.1185Y-7.2974
X7.1989Y-6.8672
X7.2835Y-6.2598
X7.4409Y-6.2598
X7.4606Y-6.752
X7.6378Y-7.3622
X7.6384Y-7.4454
X7.7559Y-5.7283
X7.8033Y-6.76
X7.8331Y-7.282
X7.8346Y-7.4409
X7.874Y-6.9685
X7.9921Y-7.3622
X7.9921Y-8.3071
X8.0118Y-7.5197
X8.0976Y-6.8334
X8.1364Y-7.2387
X8.1558Y-7.6285
X8.248Y-6.4173
X8.248Y-6.5748
X8.3071Y-7.874
X8.4646Y-8.3071
X8.5335Y-7.7953
X8.5335Y-7.7953
X8.6614Y-6.8504
X8.7402Y-7.874
X8.7402Y-8.1102
X8.7502Y-8.2194
X8.7673Y-7.7694
X8.9764Y-7.3622
X9.6063Y-7.5984
X9.6063Y-7.9921
X9.6063Y-8.1102
X9.6457Y-5.2362
X9.7049Y-7.3664
X9.7963Y-7.2736
X9.7963Y-7.7461
X9.7963Y-8.2185
X9.8819Y-5.2362
X9.9963Y-7.2736
X10.1144Y-5.2948
X10.1181Y-7.2047
T3
X8.5798Y-5.7339
X8.5798Y-6.6339
X8.6732Y-5.7339
X8.6732Y-6.6339
X8.7732Y-5.7339
X8.7732Y-6.6339
X8.8732Y-5.7339
X8.8732Y-6.6339
X8.9732Y-5.7339
X8.9732Y-6.6339
X9.0732Y-5.7339
X9.0732Y-6.6339
X9.1732Y-5.7339
X9.1732Y-6.6339
X9.2732Y-5.7339
X9.2732Y-6.6339
X9.3732Y-5.7339
X9.3732Y-6.6339
X9.4732Y-5.7339
X9.4732Y-6.6339
X9.5732Y-5.7339
X9.5732Y-6.6339
X9.6732Y-5.7339
X9.6732Y-6.6339
X9.7732Y-5.7339
X9.7732Y-6.6339
X9.8732Y-5.7339
X9.8732Y-6.6339
X9.9732Y-5.7339
X9.9732Y-6.6339
X10.0732Y-5.7339
X10.0732Y-6.6339
T4
X3.8523Y-4.8532
X6.1614Y-8.4744
X6.7551Y-7.6252
X6.7551Y-7.7252
X6.7551Y-8.1252
X6.7551Y-8.4252
X7.3457Y-7.6252
X7.3457Y-7.7252
X7.3457Y-8.1252
X7.3457Y-8.4252
T5
X8.0964Y-6.941
X8.0964Y-7.041
X8.1964Y-6.941
X8.1964Y-7.041
X8.2964Y-6.941
X8.2964Y-7.041
X8.3964Y-6.941
X8.3964Y-7.041
X8.4964Y-6.941
X8.4964Y-7.041
X9.4Y-6.9
X9.5Y-6.9
X9.6Y-6.9
X9.7Y-6.9
X9.8Y-6.9
X9.9Y-6.9
T6
X9.Y-6.9
X9.1Y-6.9
X9.2Y-6.9
T7
X3.7008Y-7.4803
X3.7008Y-8.2677
X6.1417Y-7.0276
X6.1417Y-7.9331
T8
X7.7559Y-6.0433
X7.9528Y-6.0433
X8.4055Y-5.1969
X8.6024Y-5.1969
T9
X4.1339Y-5.115
X4.1339Y-5.315
X4.1339Y-8.8551
X4.1339Y-9.0551
X4.5276Y-5.115
X4.5276Y-5.315
X4.5276Y-8.8551
X4.5276Y-9.0551
X4.9213Y-5.115
X4.9213Y-5.315
X4.9213Y-8.8551
X4.9213Y-9.0551
X5.315Y-5.115
X5.315Y-5.315
X5.315Y-8.8551
X5.315Y-9.0551
X5.7087Y-5.115
X5.7087Y-5.315
X5.7087Y-8.8551
X5.7087Y-9.0551
X6.1024Y-5.115
X6.1024Y-5.315
X6.1024Y-8.8551
X6.1024Y-9.0551
X6.5551Y-8.7551
X6.5551Y-9.0551
X6.6535Y-5.1543
X6.6535Y-5.3543
X6.7551Y-8.7551
X6.7551Y-9.0551
X7.0835Y-5.1331
X7.0835Y-5.4331
X7.1457Y-8.7551
X7.1457Y-9.0551
X7.2835Y-5.1331
X7.2835Y-5.4331
X7.3457Y-8.7551
X7.3457Y-9.0551
X7.674Y-5.1331
X7.674Y-5.4331
X7.7362Y-8.7551
X7.7362Y-9.0551
X7.874Y-5.1331
X7.874Y-5.4331
X7.9362Y-8.7551
X7.9362Y-9.0551
X8.3268Y-8.7551
X8.3268Y-9.0551
X8.5268Y-8.7551
X8.5268Y-9.0551
X8.9276Y-8.7551
X8.9276Y-9.0551
X9.1276Y-8.7551
X9.1276Y-9.0551
X9.2488Y-5.1331
X9.2488Y-5.4331
X9.3276Y-8.7551
X9.3276Y-9.0551
X9.4488Y-5.1331
X9.4488Y-5.4331
X9.5276Y-8.7551
X9.5276Y-9.0551
T10
X3.5276Y-5.8024
X3.5276Y-6.1024
X3.7276Y-5.8024
X3.7276Y-6.1024
X3.9276Y-5.8024
X3.9276Y-6.1024
X4.5276Y-5.8024
X4.5276Y-6.1024
X4.9055Y-5.8024
X4.9055Y-6.1024
X5.1055Y-5.8024
X5.1055Y-6.1024
X5.3055Y-5.8024
X5.3055Y-6.1024
X5.9055Y-5.8024
X5.9055Y-6.1024
X6.2835Y-5.8024
X6.2835Y-6.1024
X6.4835Y-5.8024
X6.4835Y-6.1024
X6.6835Y-5.8024
X6.6835Y-6.1024
X7.2835Y-5.8024
X7.2835Y-6.1024
T11
X3.5433Y-6.3386
X4.9055Y-6.3228
X6.1543Y-6.3903
T12
X3.5433Y-4.9213
X3.5433Y-9.252
X10.0382Y-9.252
X10.0394Y-4.9213
T0
M30
