G04 #@! TF.FileFunction,Soldermask,Bot*
%FSLAX46Y46*%
G04 Gerber Fmt 4.6, Leading zero omitted, Abs format (unit mm)*
G04 Created by KiCad (PCBNEW 4.0.7-e2-6376~58~ubuntu16.04.1) date Sat Sep 15 23:25:49 2018*
%MOMM*%
%LPD*%
G01*
G04 APERTURE LIST*
%ADD10C,0.100000*%
%ADD11C,7.800000*%
%ADD12C,3.400000*%
%ADD13C,2.900000*%
%ADD14O,2.940000X4.210000*%
%ADD15R,2.100000X2.100000*%
%ADD16O,2.100000X2.100000*%
%ADD17O,3.900000X2.900000*%
%ADD18O,1.500000X2.600000*%
%ADD19R,1.900000X1.900000*%
%ADD20R,2.400000X2.400000*%
%ADD21C,1.924000*%
%ADD22C,4.400000*%
G04 APERTURE END LIST*
D10*
D11*
X254970000Y-235000000D03*
X90000000Y-235000000D03*
X255000000Y-125000000D03*
D12*
X185000000Y-147380000D03*
X185000000Y-155000000D03*
X164680000Y-147380000D03*
X159600000Y-147380000D03*
X169760000Y-147380000D03*
X164680000Y-155000000D03*
X159600000Y-155000000D03*
X169760000Y-155000000D03*
D13*
X213500000Y-132000000D03*
X218500000Y-132000000D03*
D14*
X185000000Y-138000000D03*
X185000000Y-130380000D03*
X179920000Y-138000000D03*
X179920000Y-130380000D03*
D15*
X215808659Y-176301441D03*
D16*
X215808659Y-178841441D03*
X213268659Y-176301441D03*
X213268659Y-178841441D03*
X210728659Y-176301441D03*
X210728659Y-178841441D03*
X208188659Y-176301441D03*
X208188659Y-178841441D03*
X205648659Y-176301441D03*
X205648659Y-178841441D03*
D14*
X226760000Y-222380000D03*
X226760000Y-230000000D03*
X231840000Y-222380000D03*
X231840000Y-230000000D03*
X242000000Y-222380000D03*
X236920000Y-222380000D03*
X236920000Y-230000000D03*
X242000000Y-230000000D03*
X196500000Y-222380000D03*
X196500000Y-230000000D03*
X201580000Y-222380000D03*
X201580000Y-230000000D03*
X166500000Y-222380000D03*
X166500000Y-230000000D03*
X171580000Y-222380000D03*
X171580000Y-230000000D03*
X181500000Y-222380000D03*
X181500000Y-230000000D03*
X186580000Y-222380000D03*
X186580000Y-230000000D03*
X211500000Y-222380000D03*
X211500000Y-230000000D03*
X216580000Y-222380000D03*
X216580000Y-230000000D03*
D12*
X115000000Y-147380000D03*
X115000000Y-155000000D03*
X94680000Y-147380000D03*
X89600000Y-147380000D03*
X99760000Y-147380000D03*
X94680000Y-155000000D03*
X89600000Y-155000000D03*
X99760000Y-155000000D03*
X150000000Y-147380000D03*
X150000000Y-155000000D03*
X129680000Y-147380000D03*
X124600000Y-147380000D03*
X134760000Y-147380000D03*
X129680000Y-155000000D03*
X124600000Y-155000000D03*
X134760000Y-155000000D03*
D17*
X156000000Y-201500000D03*
X156000000Y-178500000D03*
X94000000Y-210000000D03*
X94000000Y-190000000D03*
D18*
X252000000Y-144000000D03*
X250000000Y-144000000D03*
X248000000Y-144000000D03*
X246000000Y-144000000D03*
X244000000Y-144000000D03*
X242000000Y-144000000D03*
X240000000Y-144000000D03*
X238000000Y-144000000D03*
X236000000Y-144000000D03*
X234000000Y-144000000D03*
X232000000Y-144000000D03*
X230000000Y-144000000D03*
X228000000Y-144000000D03*
X226000000Y-144000000D03*
X224000000Y-144000000D03*
X222000000Y-144000000D03*
X222000000Y-168400000D03*
X224000000Y-168400000D03*
X226000000Y-168400000D03*
X228000000Y-168400000D03*
X230000000Y-168400000D03*
X232000000Y-168400000D03*
X234000000Y-168400000D03*
X236000000Y-168400000D03*
X238000000Y-168400000D03*
X240000000Y-168400000D03*
X242000000Y-168400000D03*
X244000000Y-168400000D03*
X246000000Y-168400000D03*
X248000000Y-168400000D03*
X250000000Y-168400000D03*
X252000000Y-168400000D03*
D19*
X171580000Y-193680000D03*
X171580000Y-196220000D03*
D20*
X171580000Y-206380000D03*
X171580000Y-214000000D03*
D19*
X186580000Y-193680000D03*
X186580000Y-196220000D03*
D20*
X186580000Y-206380000D03*
X186580000Y-214000000D03*
D21*
X233680000Y-175260000D03*
X231140000Y-175260000D03*
X228600000Y-175260000D03*
D15*
X238760000Y-175260000D03*
D16*
X241300000Y-175260000D03*
X243840000Y-175260000D03*
X246380000Y-175260000D03*
X248920000Y-175260000D03*
X251460000Y-175260000D03*
D11*
X90000000Y-125000000D03*
D14*
X200000000Y-138000000D03*
X200000000Y-130380000D03*
X194920000Y-138000000D03*
X194920000Y-130380000D03*
X240000000Y-138000000D03*
X240000000Y-130380000D03*
X234920000Y-138000000D03*
X234920000Y-130380000D03*
D22*
X115000000Y-230000000D03*
X115000000Y-224920000D03*
X135000000Y-230000000D03*
X135000000Y-224920000D03*
X155000000Y-230000000D03*
X155000000Y-224920000D03*
X105000000Y-230000000D03*
X105000000Y-224920000D03*
X125000000Y-230000000D03*
X125000000Y-224920000D03*
X145000000Y-230000000D03*
X145000000Y-224920000D03*
X105000000Y-135000000D03*
X105000000Y-129920000D03*
X125000000Y-135000000D03*
X125000000Y-129920000D03*
X145000000Y-135000000D03*
X145000000Y-129920000D03*
X115000000Y-135000000D03*
X115000000Y-129920000D03*
X135000000Y-135000000D03*
X135000000Y-129920000D03*
X155000000Y-135000000D03*
X155000000Y-129920000D03*
X169000000Y-130920000D03*
X169000000Y-136000000D03*
D13*
X202000000Y-153000000D03*
X207000000Y-153000000D03*
M02*
