G04 #@! TF.FileFunction,Legend,Top*
%FSLAX46Y46*%
G04 Gerber Fmt 4.6, Leading zero omitted, Abs format (unit mm)*
G04 Created by KiCad (PCBNEW 4.0.7-e2-6376~58~ubuntu16.04.1) date Sat Sep 15 23:25:49 2018*
%MOMM*%
%LPD*%
G01*
G04 APERTURE LIST*
%ADD10C,0.100000*%
%ADD11C,0.300000*%
%ADD12C,1.200000*%
%ADD13C,1.250000*%
%ADD14C,0.500000*%
%ADD15C,0.200000*%
%ADD16C,0.250000*%
%ADD17C,0.150000*%
%ADD18C,0.120000*%
%ADD19C,0.010000*%
G04 APERTURE END LIST*
D10*
D11*
X200428571Y-121071429D02*
X200428571Y-122571429D01*
X199571428Y-121071429D01*
X199571428Y-122571429D01*
X194535714Y-121071429D02*
X195250000Y-121071429D01*
X195250000Y-122571429D01*
D12*
X99750000Y-130750000D02*
X87750000Y-130750000D01*
X87750000Y-130750000D02*
X93750000Y-140750000D01*
D13*
X93750000Y-132964286D02*
X93511905Y-132726190D01*
X93750000Y-132488095D01*
X93988095Y-132726190D01*
X93750000Y-132964286D01*
X93750000Y-132488095D01*
X93750000Y-134392857D02*
X93988095Y-137250000D01*
X93750000Y-137488095D01*
X93511905Y-137250000D01*
X93750000Y-134392857D01*
X93750000Y-137488095D01*
D12*
X93750000Y-140750000D02*
X99750000Y-130750000D01*
X93750000Y-219250000D02*
X87750000Y-229250000D01*
X99750000Y-229250000D02*
X93750000Y-219250000D01*
X87750000Y-229250000D02*
X99750000Y-229250000D01*
D13*
X93750000Y-227035714D02*
X93988095Y-227273810D01*
X93750000Y-227511905D01*
X93511905Y-227273810D01*
X93750000Y-227035714D01*
X93750000Y-227511905D01*
X93750000Y-225607143D02*
X93511905Y-222750000D01*
X93750000Y-222511905D01*
X93988095Y-222750000D01*
X93750000Y-225607143D01*
X93750000Y-222511905D01*
D11*
X235357142Y-122321429D02*
X235214285Y-122321429D01*
X235071428Y-122250000D01*
X234999999Y-122178571D01*
X234928570Y-122035714D01*
X234857142Y-121750000D01*
X234857142Y-121392857D01*
X234928570Y-121107143D01*
X234999999Y-120964286D01*
X235071428Y-120892857D01*
X235214285Y-120821429D01*
X235357142Y-120821429D01*
X235499999Y-120892857D01*
X235571428Y-120964286D01*
X235642856Y-121107143D01*
X235714285Y-121392857D01*
X235714285Y-121750000D01*
X235642856Y-122035714D01*
X235571428Y-122178571D01*
X235499999Y-122250000D01*
X235357142Y-122321429D01*
X234214285Y-121392857D02*
X233071428Y-121392857D01*
X231642856Y-122321429D02*
X232357142Y-122321429D01*
X232428571Y-121607143D01*
X232357142Y-121678571D01*
X232214285Y-121750000D01*
X231857142Y-121750000D01*
X231714285Y-121678571D01*
X231642856Y-121607143D01*
X231571428Y-121464286D01*
X231571428Y-121107143D01*
X231642856Y-120964286D01*
X231714285Y-120892857D01*
X231857142Y-120821429D01*
X232214285Y-120821429D01*
X232357142Y-120892857D01*
X232428571Y-120964286D01*
X231142857Y-122321429D02*
X230642857Y-120821429D01*
X230142857Y-122321429D01*
X241678571Y-120964286D02*
X241750000Y-120892857D01*
X241964286Y-120821429D01*
X242107143Y-120821429D01*
X242321428Y-120892857D01*
X242464286Y-121035714D01*
X242535714Y-121178571D01*
X242607143Y-121464286D01*
X242607143Y-121678571D01*
X242535714Y-121964286D01*
X242464286Y-122107143D01*
X242321428Y-122250000D01*
X242107143Y-122321429D01*
X241964286Y-122321429D01*
X241750000Y-122250000D01*
X241678571Y-122178571D01*
X240750000Y-122321429D02*
X240464286Y-122321429D01*
X240321428Y-122250000D01*
X240178571Y-122107143D01*
X240107143Y-121821429D01*
X240107143Y-121321429D01*
X240178571Y-121035714D01*
X240321428Y-120892857D01*
X240464286Y-120821429D01*
X240750000Y-120821429D01*
X240892857Y-120892857D01*
X241035714Y-121035714D01*
X241107143Y-121321429D01*
X241107143Y-121821429D01*
X241035714Y-122107143D01*
X240892857Y-122250000D01*
X240750000Y-122321429D01*
X239464285Y-120821429D02*
X239464285Y-122321429D01*
X238964285Y-121250000D01*
X238464285Y-122321429D01*
X238464285Y-120821429D01*
X184285714Y-123596429D02*
X184285714Y-125096429D01*
X183785714Y-124025000D01*
X183285714Y-125096429D01*
X183285714Y-123596429D01*
X182642857Y-124025000D02*
X181928571Y-124025000D01*
X182785714Y-123596429D02*
X182285714Y-125096429D01*
X181785714Y-123596429D01*
X181285714Y-123596429D02*
X181285714Y-125096429D01*
X180571428Y-123596429D02*
X180571428Y-125096429D01*
X179714285Y-123596429D01*
X179714285Y-125096429D01*
X185750000Y-121117857D02*
X185535714Y-121046429D01*
X185178571Y-121046429D01*
X185035714Y-121117857D01*
X184964285Y-121189286D01*
X184892857Y-121332143D01*
X184892857Y-121475000D01*
X184964285Y-121617857D01*
X185035714Y-121689286D01*
X185178571Y-121760714D01*
X185464285Y-121832143D01*
X185607143Y-121903571D01*
X185678571Y-121975000D01*
X185750000Y-122117857D01*
X185750000Y-122260714D01*
X185678571Y-122403571D01*
X185607143Y-122475000D01*
X185464285Y-122546429D01*
X185107143Y-122546429D01*
X184892857Y-122475000D01*
X184392857Y-122546429D02*
X184035714Y-121046429D01*
X183750000Y-122117857D01*
X183464286Y-121046429D01*
X183107143Y-122546429D01*
X182535714Y-121046429D02*
X182535714Y-122546429D01*
X182035714Y-122546429D02*
X181178571Y-122546429D01*
X181607142Y-121046429D02*
X181607142Y-122546429D01*
X179821428Y-121189286D02*
X179892857Y-121117857D01*
X180107143Y-121046429D01*
X180250000Y-121046429D01*
X180464285Y-121117857D01*
X180607143Y-121260714D01*
X180678571Y-121403571D01*
X180750000Y-121689286D01*
X180750000Y-121903571D01*
X180678571Y-122189286D01*
X180607143Y-122332143D01*
X180464285Y-122475000D01*
X180250000Y-122546429D01*
X180107143Y-122546429D01*
X179892857Y-122475000D01*
X179821428Y-122403571D01*
X179178571Y-121046429D02*
X179178571Y-122546429D01*
X179178571Y-121832143D02*
X178321428Y-121832143D01*
X178321428Y-121046429D02*
X178321428Y-122546429D01*
X201749999Y-123642857D02*
X201535713Y-123571429D01*
X201178570Y-123571429D01*
X201035713Y-123642857D01*
X200964284Y-123714286D01*
X200892856Y-123857143D01*
X200892856Y-124000000D01*
X200964284Y-124142857D01*
X201035713Y-124214286D01*
X201178570Y-124285714D01*
X201464284Y-124357143D01*
X201607142Y-124428571D01*
X201678570Y-124500000D01*
X201749999Y-124642857D01*
X201749999Y-124785714D01*
X201678570Y-124928571D01*
X201607142Y-125000000D01*
X201464284Y-125071429D01*
X201107142Y-125071429D01*
X200892856Y-125000000D01*
X200321428Y-123642857D02*
X200107142Y-123571429D01*
X199749999Y-123571429D01*
X199607142Y-123642857D01*
X199535713Y-123714286D01*
X199464285Y-123857143D01*
X199464285Y-124000000D01*
X199535713Y-124142857D01*
X199607142Y-124214286D01*
X199749999Y-124285714D01*
X200035713Y-124357143D01*
X200178571Y-124428571D01*
X200249999Y-124500000D01*
X200321428Y-124642857D01*
X200321428Y-124785714D01*
X200249999Y-124928571D01*
X200178571Y-125000000D01*
X200035713Y-125071429D01*
X199678571Y-125071429D01*
X199464285Y-125000000D01*
X197964285Y-123571429D02*
X198464285Y-124285714D01*
X198821428Y-123571429D02*
X198821428Y-125071429D01*
X198250000Y-125071429D01*
X198107142Y-125000000D01*
X198035714Y-124928571D01*
X197964285Y-124785714D01*
X197964285Y-124571429D01*
X198035714Y-124428571D01*
X198107142Y-124357143D01*
X198250000Y-124285714D01*
X198821428Y-124285714D01*
X196250000Y-124928571D02*
X196178571Y-125000000D01*
X196035714Y-125071429D01*
X195678571Y-125071429D01*
X195535714Y-125000000D01*
X195464285Y-124928571D01*
X195392857Y-124785714D01*
X195392857Y-124642857D01*
X195464285Y-124428571D01*
X196321428Y-123571429D01*
X195392857Y-123571429D01*
X194892857Y-125071429D02*
X193964286Y-125071429D01*
X194464286Y-124500000D01*
X194250000Y-124500000D01*
X194107143Y-124428571D01*
X194035714Y-124357143D01*
X193964286Y-124214286D01*
X193964286Y-123857143D01*
X194035714Y-123714286D01*
X194107143Y-123642857D01*
X194250000Y-123571429D01*
X194678572Y-123571429D01*
X194821429Y-123642857D01*
X194892857Y-123714286D01*
X193035715Y-125071429D02*
X192892858Y-125071429D01*
X192750001Y-125000000D01*
X192678572Y-124928571D01*
X192607143Y-124785714D01*
X192535715Y-124500000D01*
X192535715Y-124142857D01*
X192607143Y-123857143D01*
X192678572Y-123714286D01*
X192750001Y-123642857D01*
X192892858Y-123571429D01*
X193035715Y-123571429D01*
X193178572Y-123642857D01*
X193250001Y-123714286D01*
X193321429Y-123857143D01*
X193392858Y-124142857D01*
X193392858Y-124500000D01*
X193321429Y-124785714D01*
X193250001Y-124928571D01*
X193178572Y-125000000D01*
X193035715Y-125071429D01*
X192107144Y-125071429D02*
X191607144Y-123571429D01*
X191107144Y-125071429D01*
D14*
X169571429Y-123095238D02*
X169571429Y-125095238D01*
X168428571Y-123095238D01*
X168428571Y-125095238D01*
D11*
X163500000Y-139321429D02*
X163500000Y-140821429D01*
X163000000Y-139750000D01*
X162500000Y-140821429D01*
X162500000Y-139321429D01*
X161857143Y-139750000D02*
X161142857Y-139750000D01*
X162000000Y-139321429D02*
X161500000Y-140821429D01*
X161000000Y-139321429D01*
X160500000Y-139321429D02*
X160500000Y-140821429D01*
X159785714Y-139321429D02*
X159785714Y-140821429D01*
X158928571Y-139321429D01*
X158928571Y-140821429D01*
X158285714Y-139392857D02*
X158071428Y-139321429D01*
X157714285Y-139321429D01*
X157571428Y-139392857D01*
X157499999Y-139464286D01*
X157428571Y-139607143D01*
X157428571Y-139750000D01*
X157499999Y-139892857D01*
X157571428Y-139964286D01*
X157714285Y-140035714D01*
X157999999Y-140107143D01*
X158142857Y-140178571D01*
X158214285Y-140250000D01*
X158285714Y-140392857D01*
X158285714Y-140535714D01*
X158214285Y-140678571D01*
X158142857Y-140750000D01*
X157999999Y-140821429D01*
X157642857Y-140821429D01*
X157428571Y-140750000D01*
X155214286Y-138750000D02*
X155285714Y-138821429D01*
X155428571Y-139035714D01*
X155500000Y-139178571D01*
X155571429Y-139392857D01*
X155642857Y-139750000D01*
X155642857Y-140035714D01*
X155571429Y-140392857D01*
X155500000Y-140607143D01*
X155428571Y-140750000D01*
X155285714Y-140964286D01*
X155214286Y-141035714D01*
X154642857Y-139321429D02*
X154642857Y-140821429D01*
X153785714Y-139321429D01*
X153785714Y-140821429D01*
X153071428Y-139892857D02*
X151928571Y-139892857D01*
X150499999Y-139321429D02*
X151214285Y-139321429D01*
X151214285Y-140821429D01*
X149214285Y-139321429D02*
X150071428Y-139321429D01*
X149642856Y-139321429D02*
X149642856Y-140821429D01*
X149785713Y-140607143D01*
X149928571Y-140464286D01*
X150071428Y-140392857D01*
X148571428Y-139892857D02*
X147428571Y-139892857D01*
X145999999Y-139321429D02*
X146714285Y-139321429D01*
X146714285Y-140821429D01*
X145571428Y-140678571D02*
X145499999Y-140750000D01*
X145357142Y-140821429D01*
X144999999Y-140821429D01*
X144857142Y-140750000D01*
X144785713Y-140678571D01*
X144714285Y-140535714D01*
X144714285Y-140392857D01*
X144785713Y-140178571D01*
X145642856Y-139321429D01*
X144714285Y-139321429D01*
X144071428Y-139892857D02*
X142928571Y-139892857D01*
X141499999Y-139321429D02*
X142214285Y-139321429D01*
X142214285Y-140821429D01*
X141142856Y-140821429D02*
X140214285Y-140821429D01*
X140714285Y-140250000D01*
X140499999Y-140250000D01*
X140357142Y-140178571D01*
X140285713Y-140107143D01*
X140214285Y-139964286D01*
X140214285Y-139607143D01*
X140285713Y-139464286D01*
X140357142Y-139392857D01*
X140499999Y-139321429D01*
X140928571Y-139321429D01*
X141071428Y-139392857D01*
X141142856Y-139464286D01*
X139714285Y-138750000D02*
X139642857Y-138821429D01*
X139500000Y-139035714D01*
X139428571Y-139178571D01*
X139357142Y-139392857D01*
X139285714Y-139750000D01*
X139285714Y-140035714D01*
X139357142Y-140392857D01*
X139428571Y-140607143D01*
X139500000Y-140750000D01*
X139642857Y-140964286D01*
X139714285Y-141035714D01*
X138500000Y-139392857D02*
X138500000Y-139321429D01*
X138571428Y-139178571D01*
X138642857Y-139107143D01*
X136785714Y-139392857D02*
X136571428Y-139321429D01*
X136214285Y-139321429D01*
X136071428Y-139392857D01*
X135999999Y-139464286D01*
X135928571Y-139607143D01*
X135928571Y-139750000D01*
X135999999Y-139892857D01*
X136071428Y-139964286D01*
X136214285Y-140035714D01*
X136499999Y-140107143D01*
X136642857Y-140178571D01*
X136714285Y-140250000D01*
X136785714Y-140392857D01*
X136785714Y-140535714D01*
X136714285Y-140678571D01*
X136642857Y-140750000D01*
X136499999Y-140821429D01*
X136142857Y-140821429D01*
X135928571Y-140750000D01*
X135357143Y-139392857D02*
X135142857Y-139321429D01*
X134785714Y-139321429D01*
X134642857Y-139392857D01*
X134571428Y-139464286D01*
X134500000Y-139607143D01*
X134500000Y-139750000D01*
X134571428Y-139892857D01*
X134642857Y-139964286D01*
X134785714Y-140035714D01*
X135071428Y-140107143D01*
X135214286Y-140178571D01*
X135285714Y-140250000D01*
X135357143Y-140392857D01*
X135357143Y-140535714D01*
X135285714Y-140678571D01*
X135214286Y-140750000D01*
X135071428Y-140821429D01*
X134714286Y-140821429D01*
X134500000Y-140750000D01*
X133000000Y-139321429D02*
X133500000Y-140035714D01*
X133857143Y-139321429D02*
X133857143Y-140821429D01*
X133285715Y-140821429D01*
X133142857Y-140750000D01*
X133071429Y-140678571D01*
X133000000Y-140535714D01*
X133000000Y-140321429D01*
X133071429Y-140178571D01*
X133142857Y-140107143D01*
X133285715Y-140035714D01*
X133857143Y-140035714D01*
X131214286Y-139321429D02*
X131214286Y-140821429D01*
X130500000Y-139321429D02*
X130500000Y-140821429D01*
X129642857Y-139321429D01*
X129642857Y-140821429D01*
X128928571Y-139321429D02*
X128928571Y-140821429D01*
X128357143Y-140821429D01*
X128214285Y-140750000D01*
X128142857Y-140678571D01*
X128071428Y-140535714D01*
X128071428Y-140321429D01*
X128142857Y-140178571D01*
X128214285Y-140107143D01*
X128357143Y-140035714D01*
X128928571Y-140035714D01*
X127428571Y-140821429D02*
X127428571Y-139607143D01*
X127357143Y-139464286D01*
X127285714Y-139392857D01*
X127142857Y-139321429D01*
X126857143Y-139321429D01*
X126714285Y-139392857D01*
X126642857Y-139464286D01*
X126571428Y-139607143D01*
X126571428Y-140821429D01*
X126071428Y-140821429D02*
X125214285Y-140821429D01*
X125642856Y-139321429D02*
X125642856Y-140821429D01*
X123142857Y-138750000D02*
X123214285Y-138821429D01*
X123357142Y-139035714D01*
X123428571Y-139178571D01*
X123500000Y-139392857D01*
X123571428Y-139750000D01*
X123571428Y-140035714D01*
X123500000Y-140392857D01*
X123428571Y-140607143D01*
X123357142Y-140750000D01*
X123214285Y-140964286D01*
X123142857Y-141035714D01*
X121714285Y-139321429D02*
X122214285Y-140035714D01*
X122571428Y-139321429D02*
X122571428Y-140821429D01*
X122000000Y-140821429D01*
X121857142Y-140750000D01*
X121785714Y-140678571D01*
X121714285Y-140535714D01*
X121714285Y-140321429D01*
X121785714Y-140178571D01*
X121857142Y-140107143D01*
X122000000Y-140035714D01*
X122571428Y-140035714D01*
X121071428Y-139892857D02*
X119928571Y-139892857D01*
X119285714Y-139392857D02*
X119071428Y-139321429D01*
X118714285Y-139321429D01*
X118571428Y-139392857D01*
X118499999Y-139464286D01*
X118428571Y-139607143D01*
X118428571Y-139750000D01*
X118499999Y-139892857D01*
X118571428Y-139964286D01*
X118714285Y-140035714D01*
X118999999Y-140107143D01*
X119142857Y-140178571D01*
X119214285Y-140250000D01*
X119285714Y-140392857D01*
X119285714Y-140535714D01*
X119214285Y-140678571D01*
X119142857Y-140750000D01*
X118999999Y-140821429D01*
X118642857Y-140821429D01*
X118428571Y-140750000D01*
X117785714Y-139892857D02*
X116642857Y-139892857D01*
X116142857Y-140821429D02*
X115285714Y-140821429D01*
X115714285Y-139321429D02*
X115714285Y-140821429D01*
X114928571Y-138750000D02*
X114857143Y-138821429D01*
X114714286Y-139035714D01*
X114642857Y-139178571D01*
X114571428Y-139392857D01*
X114500000Y-139750000D01*
X114500000Y-140035714D01*
X114571428Y-140392857D01*
X114642857Y-140607143D01*
X114714286Y-140750000D01*
X114857143Y-140964286D01*
X114928571Y-141035714D01*
D14*
X114380952Y-123095238D02*
X115047619Y-124047619D01*
X115523810Y-123095238D02*
X115523810Y-125095238D01*
X114761905Y-125095238D01*
X114571429Y-125000000D01*
X114476190Y-124904762D01*
X114380952Y-124714286D01*
X114380952Y-124428571D01*
X114476190Y-124238095D01*
X114571429Y-124142857D01*
X114761905Y-124047619D01*
X115523810Y-124047619D01*
X105333334Y-123095238D02*
X106285715Y-123095238D01*
X106285715Y-125095238D01*
X103619047Y-123095238D02*
X104761905Y-123095238D01*
X104190476Y-123095238D02*
X104190476Y-125095238D01*
X104380952Y-124809524D01*
X104571428Y-124619048D01*
X104761905Y-124523810D01*
X135571429Y-123190476D02*
X135285714Y-123095238D01*
X134809524Y-123095238D01*
X134619048Y-123190476D01*
X134523810Y-123285714D01*
X134428571Y-123476190D01*
X134428571Y-123666667D01*
X134523810Y-123857143D01*
X134619048Y-123952381D01*
X134809524Y-124047619D01*
X135190476Y-124142857D01*
X135380952Y-124238095D01*
X135476191Y-124333333D01*
X135571429Y-124523810D01*
X135571429Y-124714286D01*
X135476191Y-124904762D01*
X135380952Y-125000000D01*
X135190476Y-125095238D01*
X134714286Y-125095238D01*
X134428571Y-125000000D01*
X125333334Y-123095238D02*
X126285715Y-123095238D01*
X126285715Y-125095238D01*
X124761905Y-124904762D02*
X124666667Y-125000000D01*
X124476190Y-125095238D01*
X124000000Y-125095238D01*
X123809524Y-125000000D01*
X123714286Y-124904762D01*
X123619047Y-124714286D01*
X123619047Y-124523810D01*
X123714286Y-124238095D01*
X124857143Y-123095238D01*
X123619047Y-123095238D01*
X155571429Y-125095238D02*
X154428572Y-125095238D01*
X155000000Y-123095238D02*
X155000000Y-125095238D01*
X145333334Y-123095238D02*
X146285715Y-123095238D01*
X146285715Y-125095238D01*
X144857143Y-125095238D02*
X143619047Y-125095238D01*
X144285714Y-124333333D01*
X144000000Y-124333333D01*
X143809524Y-124238095D01*
X143714286Y-124142857D01*
X143619047Y-123952381D01*
X143619047Y-123476190D01*
X143714286Y-123285714D01*
X143809524Y-123190476D01*
X144000000Y-123095238D01*
X144571428Y-123095238D01*
X144761905Y-123190476D01*
X144857143Y-123285714D01*
X154142857Y-234904762D02*
X154619048Y-236904762D01*
X155000000Y-235476190D01*
X155380953Y-236904762D01*
X155857143Y-234904762D01*
X144666666Y-236904762D02*
X143714285Y-236904762D01*
X143714285Y-234904762D01*
X145142857Y-234904762D02*
X146380953Y-234904762D01*
X145714286Y-235666667D01*
X146000000Y-235666667D01*
X146190476Y-235761905D01*
X146285714Y-235857143D01*
X146380953Y-236047619D01*
X146380953Y-236523810D01*
X146285714Y-236714286D01*
X146190476Y-236809524D01*
X146000000Y-236904762D01*
X145428572Y-236904762D01*
X145238095Y-236809524D01*
X145142857Y-236714286D01*
X134333333Y-234904762D02*
X135000000Y-236904762D01*
X135666667Y-234904762D01*
X124666666Y-236904762D02*
X123714285Y-236904762D01*
X123714285Y-234904762D01*
X125238095Y-235095238D02*
X125333333Y-235000000D01*
X125523810Y-234904762D01*
X126000000Y-234904762D01*
X126190476Y-235000000D01*
X126285714Y-235095238D01*
X126380953Y-235285714D01*
X126380953Y-235476190D01*
X126285714Y-235761905D01*
X125142857Y-236904762D01*
X126380953Y-236904762D01*
X114428571Y-234904762D02*
X114428571Y-236523810D01*
X114523810Y-236714286D01*
X114619048Y-236809524D01*
X114809524Y-236904762D01*
X115190476Y-236904762D01*
X115380952Y-236809524D01*
X115476191Y-236714286D01*
X115571429Y-236523810D01*
X115571429Y-234904762D01*
D11*
X241392858Y-238668857D02*
X241607144Y-238740286D01*
X241678572Y-238811714D01*
X241750001Y-238954571D01*
X241750001Y-239168857D01*
X241678572Y-239311714D01*
X241607144Y-239383143D01*
X241464286Y-239454571D01*
X240892858Y-239454571D01*
X240892858Y-237954571D01*
X241392858Y-237954571D01*
X241535715Y-238026000D01*
X241607144Y-238097429D01*
X241678572Y-238240286D01*
X241678572Y-238383143D01*
X241607144Y-238526000D01*
X241535715Y-238597429D01*
X241392858Y-238668857D01*
X240892858Y-238668857D01*
X242321429Y-238097429D02*
X242392858Y-238026000D01*
X242535715Y-237954571D01*
X242892858Y-237954571D01*
X243035715Y-238026000D01*
X243107144Y-238097429D01*
X243178572Y-238240286D01*
X243178572Y-238383143D01*
X243107144Y-238597429D01*
X242250001Y-239454571D01*
X243178572Y-239454571D01*
X236392858Y-238668857D02*
X236607144Y-238740286D01*
X236678572Y-238811714D01*
X236750001Y-238954571D01*
X236750001Y-239168857D01*
X236678572Y-239311714D01*
X236607144Y-239383143D01*
X236464286Y-239454571D01*
X235892858Y-239454571D01*
X235892858Y-237954571D01*
X236392858Y-237954571D01*
X236535715Y-238026000D01*
X236607144Y-238097429D01*
X236678572Y-238240286D01*
X236678572Y-238383143D01*
X236607144Y-238526000D01*
X236535715Y-238597429D01*
X236392858Y-238668857D01*
X235892858Y-238668857D01*
X238178572Y-239454571D02*
X237321429Y-239454571D01*
X237750001Y-239454571D02*
X237750001Y-237954571D01*
X237607144Y-238168857D01*
X237464286Y-238311714D01*
X237321429Y-238383143D01*
X230928572Y-239026000D02*
X231642858Y-239026000D01*
X230785715Y-239454571D02*
X231285715Y-237954571D01*
X231785715Y-239454571D01*
X232214286Y-238097429D02*
X232285715Y-238026000D01*
X232428572Y-237954571D01*
X232785715Y-237954571D01*
X232928572Y-238026000D01*
X233000001Y-238097429D01*
X233071429Y-238240286D01*
X233071429Y-238383143D01*
X233000001Y-238597429D01*
X232142858Y-239454571D01*
X233071429Y-239454571D01*
X225928572Y-239026000D02*
X226642858Y-239026000D01*
X225785715Y-239454571D02*
X226285715Y-237954571D01*
X226785715Y-239454571D01*
X228071429Y-239454571D02*
X227214286Y-239454571D01*
X227642858Y-239454571D02*
X227642858Y-237954571D01*
X227500001Y-238168857D01*
X227357143Y-238311714D01*
X227214286Y-238383143D01*
D15*
X167500000Y-218500000D02*
X167500000Y-171500000D01*
D11*
X166535714Y-187357142D02*
X166607143Y-187428571D01*
X166678571Y-187642857D01*
X166678571Y-187785714D01*
X166607143Y-187999999D01*
X166464286Y-188142857D01*
X166321429Y-188214285D01*
X166035714Y-188285714D01*
X165821429Y-188285714D01*
X165535714Y-188214285D01*
X165392857Y-188142857D01*
X165250000Y-187999999D01*
X165178571Y-187785714D01*
X165178571Y-187642857D01*
X165250000Y-187428571D01*
X165321429Y-187357142D01*
X166535714Y-185857142D02*
X166607143Y-185928571D01*
X166678571Y-186142857D01*
X166678571Y-186285714D01*
X166607143Y-186499999D01*
X166464286Y-186642857D01*
X166321429Y-186714285D01*
X166035714Y-186785714D01*
X165821429Y-186785714D01*
X165535714Y-186714285D01*
X165392857Y-186642857D01*
X165250000Y-186499999D01*
X165178571Y-186285714D01*
X165178571Y-186142857D01*
X165250000Y-185928571D01*
X165321429Y-185857142D01*
X166107143Y-185214285D02*
X166107143Y-184071428D01*
X165892857Y-182857142D02*
X165964286Y-182642856D01*
X166035714Y-182571428D01*
X166178571Y-182499999D01*
X166392857Y-182499999D01*
X166535714Y-182571428D01*
X166607143Y-182642856D01*
X166678571Y-182785714D01*
X166678571Y-183357142D01*
X165178571Y-183357142D01*
X165178571Y-182857142D01*
X165250000Y-182714285D01*
X165321429Y-182642856D01*
X165464286Y-182571428D01*
X165607143Y-182571428D01*
X165750000Y-182642856D01*
X165821429Y-182714285D01*
X165892857Y-182857142D01*
X165892857Y-183357142D01*
X165964286Y-181571428D02*
X166678571Y-181571428D01*
X165178571Y-182071428D02*
X165964286Y-181571428D01*
X165178571Y-181071428D01*
X166107143Y-180571428D02*
X166107143Y-179428571D01*
X166678571Y-178714285D02*
X165178571Y-178714285D01*
X166678571Y-177857142D01*
X165178571Y-177857142D01*
X166535714Y-176285713D02*
X166607143Y-176357142D01*
X166678571Y-176571428D01*
X166678571Y-176714285D01*
X166607143Y-176928570D01*
X166464286Y-177071428D01*
X166321429Y-177142856D01*
X166035714Y-177214285D01*
X165821429Y-177214285D01*
X165535714Y-177142856D01*
X165392857Y-177071428D01*
X165250000Y-176928570D01*
X165178571Y-176714285D01*
X165178571Y-176571428D01*
X165250000Y-176357142D01*
X165321429Y-176285713D01*
X166107143Y-175642856D02*
X166107143Y-174499999D01*
X166607143Y-173857142D02*
X166678571Y-173642856D01*
X166678571Y-173285713D01*
X166607143Y-173142856D01*
X166535714Y-173071427D01*
X166392857Y-172999999D01*
X166250000Y-172999999D01*
X166107143Y-173071427D01*
X166035714Y-173142856D01*
X165964286Y-173285713D01*
X165892857Y-173571427D01*
X165821429Y-173714285D01*
X165750000Y-173785713D01*
X165607143Y-173857142D01*
X165464286Y-173857142D01*
X165321429Y-173785713D01*
X165250000Y-173714285D01*
X165178571Y-173571427D01*
X165178571Y-173214285D01*
X165250000Y-172999999D01*
X166250000Y-172428571D02*
X166250000Y-171714285D01*
X166678571Y-172571428D02*
X165178571Y-172071428D01*
X166678571Y-171571428D01*
X166678571Y-204250000D02*
X165178571Y-204250000D01*
X165178571Y-203892857D01*
X165250000Y-203678572D01*
X165392857Y-203535714D01*
X165535714Y-203464286D01*
X165821429Y-203392857D01*
X166035714Y-203392857D01*
X166321429Y-203464286D01*
X166464286Y-203535714D01*
X166607143Y-203678572D01*
X166678571Y-203892857D01*
X166678571Y-204250000D01*
X165892857Y-202750000D02*
X165892857Y-202250000D01*
X166678571Y-202035714D02*
X166678571Y-202750000D01*
X165178571Y-202750000D01*
X165178571Y-202035714D01*
X165178571Y-201607143D02*
X166678571Y-201107143D01*
X165178571Y-200607143D01*
X166678571Y-200107143D02*
X165178571Y-200107143D01*
X166535714Y-198535714D02*
X166607143Y-198607143D01*
X166678571Y-198821429D01*
X166678571Y-198964286D01*
X166607143Y-199178571D01*
X166464286Y-199321429D01*
X166321429Y-199392857D01*
X166035714Y-199464286D01*
X165821429Y-199464286D01*
X165535714Y-199392857D01*
X165392857Y-199321429D01*
X165250000Y-199178571D01*
X165178571Y-198964286D01*
X165178571Y-198821429D01*
X165250000Y-198607143D01*
X165321429Y-198535714D01*
X165892857Y-197892857D02*
X165892857Y-197392857D01*
X166678571Y-197178571D02*
X166678571Y-197892857D01*
X165178571Y-197892857D01*
X165178571Y-197178571D01*
X166535714Y-196535714D02*
X166607143Y-196464286D01*
X166678571Y-196535714D01*
X166607143Y-196607143D01*
X166535714Y-196535714D01*
X166678571Y-196535714D01*
X165892857Y-195321428D02*
X165892857Y-195821428D01*
X166678571Y-195821428D02*
X165178571Y-195821428D01*
X165178571Y-195107142D01*
X166250000Y-194607143D02*
X166250000Y-193892857D01*
X166678571Y-194750000D02*
X165178571Y-194250000D01*
X166678571Y-193750000D01*
X166678571Y-192392857D02*
X165964286Y-192892857D01*
X166678571Y-193250000D02*
X165178571Y-193250000D01*
X165178571Y-192678572D01*
X165250000Y-192535714D01*
X165321429Y-192464286D01*
X165464286Y-192392857D01*
X165678571Y-192392857D01*
X165821429Y-192464286D01*
X165892857Y-192535714D01*
X165964286Y-192678572D01*
X165964286Y-193250000D01*
X166678571Y-191750000D02*
X165178571Y-191750000D01*
X166250000Y-191250000D01*
X165178571Y-190750000D01*
X166678571Y-190750000D01*
X165250000Y-217428571D02*
X165178571Y-217571428D01*
X165178571Y-217785714D01*
X165250000Y-217999999D01*
X165392857Y-218142857D01*
X165535714Y-218214285D01*
X165821429Y-218285714D01*
X166035714Y-218285714D01*
X166321429Y-218214285D01*
X166464286Y-218142857D01*
X166607143Y-217999999D01*
X166678571Y-217785714D01*
X166678571Y-217642857D01*
X166607143Y-217428571D01*
X166535714Y-217357142D01*
X166035714Y-217357142D01*
X166035714Y-217642857D01*
X165178571Y-216857142D02*
X166678571Y-216499999D01*
X165607143Y-216214285D01*
X166678571Y-215928571D01*
X165178571Y-215571428D01*
X166678571Y-214999999D02*
X165178571Y-214999999D01*
X165892857Y-214999999D02*
X165892857Y-214142856D01*
X166678571Y-214142856D02*
X165178571Y-214142856D01*
X166678571Y-213428570D02*
X165178571Y-213428570D01*
X165178571Y-212857142D01*
X165250000Y-212714284D01*
X165321429Y-212642856D01*
X165464286Y-212571427D01*
X165678571Y-212571427D01*
X165821429Y-212642856D01*
X165892857Y-212714284D01*
X165964286Y-212857142D01*
X165964286Y-213428570D01*
X165678571Y-210928570D02*
X166678571Y-210571427D01*
X165678571Y-210214285D01*
X166678571Y-208857142D02*
X166678571Y-209714285D01*
X166678571Y-209285713D02*
X165178571Y-209285713D01*
X165392857Y-209428570D01*
X165535714Y-209571428D01*
X165607143Y-209714285D01*
X166535714Y-208214285D02*
X166607143Y-208142857D01*
X166678571Y-208214285D01*
X166607143Y-208285714D01*
X166535714Y-208214285D01*
X166678571Y-208214285D01*
X166678571Y-206714285D02*
X166678571Y-207571428D01*
X166678571Y-207142856D02*
X165178571Y-207142856D01*
X165392857Y-207285713D01*
X165535714Y-207428571D01*
X165607143Y-207571428D01*
D16*
X250912381Y-178895238D02*
X250912381Y-179371429D01*
X251388571Y-179419048D01*
X251340952Y-179371429D01*
X251293333Y-179276191D01*
X251293333Y-179038095D01*
X251340952Y-178942857D01*
X251388571Y-178895238D01*
X251483810Y-178847619D01*
X251721905Y-178847619D01*
X251817143Y-178895238D01*
X251864762Y-178942857D01*
X251912381Y-179038095D01*
X251912381Y-179276191D01*
X251864762Y-179371429D01*
X251817143Y-179419048D01*
X250912381Y-178561905D02*
X251912381Y-178228572D01*
X250912381Y-177895238D01*
X249372381Y-179800000D02*
X248372381Y-179800000D01*
X248372381Y-179561905D01*
X248420000Y-179419047D01*
X248515238Y-179323809D01*
X248610476Y-179276190D01*
X248800952Y-179228571D01*
X248943810Y-179228571D01*
X249134286Y-179276190D01*
X249229524Y-179323809D01*
X249324762Y-179419047D01*
X249372381Y-179561905D01*
X249372381Y-179800000D01*
X248991429Y-178800000D02*
X248991429Y-178038095D01*
X249372381Y-178419047D02*
X248610476Y-178419047D01*
X246832381Y-179800000D02*
X245832381Y-179800000D01*
X245832381Y-179561905D01*
X245880000Y-179419047D01*
X245975238Y-179323809D01*
X246070476Y-179276190D01*
X246260952Y-179228571D01*
X246403810Y-179228571D01*
X246594286Y-179276190D01*
X246689524Y-179323809D01*
X246784762Y-179419047D01*
X246832381Y-179561905D01*
X246832381Y-179800000D01*
X246451429Y-178800000D02*
X246451429Y-178038095D01*
X238260000Y-180085714D02*
X238212381Y-180180952D01*
X238212381Y-180323809D01*
X238260000Y-180466667D01*
X238355238Y-180561905D01*
X238450476Y-180609524D01*
X238640952Y-180657143D01*
X238783810Y-180657143D01*
X238974286Y-180609524D01*
X239069524Y-180561905D01*
X239164762Y-180466667D01*
X239212381Y-180323809D01*
X239212381Y-180228571D01*
X239164762Y-180085714D01*
X239117143Y-180038095D01*
X238783810Y-180038095D01*
X238783810Y-180228571D01*
X239212381Y-179609524D02*
X238212381Y-179609524D01*
X239212381Y-179038095D01*
X238212381Y-179038095D01*
X239212381Y-178561905D02*
X238212381Y-178561905D01*
X238212381Y-178323810D01*
X238260000Y-178180952D01*
X238355238Y-178085714D01*
X238450476Y-178038095D01*
X238640952Y-177990476D01*
X238783810Y-177990476D01*
X238974286Y-178038095D01*
X239069524Y-178085714D01*
X239164762Y-178180952D01*
X239212381Y-178323810D01*
X239212381Y-178561905D01*
X240752381Y-180371429D02*
X240752381Y-179800000D01*
X241752381Y-180085715D02*
X240752381Y-180085715D01*
X240752381Y-179561905D02*
X241752381Y-178895238D01*
X240752381Y-178895238D02*
X241752381Y-179561905D01*
X240752381Y-178323810D02*
X240752381Y-178228571D01*
X240800000Y-178133333D01*
X240847619Y-178085714D01*
X240942857Y-178038095D01*
X241133333Y-177990476D01*
X241371429Y-177990476D01*
X241561905Y-178038095D01*
X241657143Y-178085714D01*
X241704762Y-178133333D01*
X241752381Y-178228571D01*
X241752381Y-178323810D01*
X241704762Y-178419048D01*
X241657143Y-178466667D01*
X241561905Y-178514286D01*
X241371429Y-178561905D01*
X241133333Y-178561905D01*
X240942857Y-178514286D01*
X240847619Y-178466667D01*
X240800000Y-178419048D01*
X240752381Y-178323810D01*
X244292381Y-179895238D02*
X243816190Y-180228572D01*
X244292381Y-180466667D02*
X243292381Y-180466667D01*
X243292381Y-180085714D01*
X243340000Y-179990476D01*
X243387619Y-179942857D01*
X243482857Y-179895238D01*
X243625714Y-179895238D01*
X243720952Y-179942857D01*
X243768571Y-179990476D01*
X243816190Y-180085714D01*
X243816190Y-180466667D01*
X243292381Y-179561905D02*
X244292381Y-178895238D01*
X243292381Y-178895238D02*
X244292381Y-179561905D01*
X243292381Y-178323810D02*
X243292381Y-178228571D01*
X243340000Y-178133333D01*
X243387619Y-178085714D01*
X243482857Y-178038095D01*
X243673333Y-177990476D01*
X243911429Y-177990476D01*
X244101905Y-178038095D01*
X244197143Y-178085714D01*
X244244762Y-178133333D01*
X244292381Y-178228571D01*
X244292381Y-178323810D01*
X244244762Y-178419048D01*
X244197143Y-178466667D01*
X244101905Y-178514286D01*
X243911429Y-178561905D01*
X243673333Y-178561905D01*
X243482857Y-178514286D01*
X243387619Y-178466667D01*
X243340000Y-178419048D01*
X243292381Y-178323810D01*
D14*
X104666666Y-236904762D02*
X103714285Y-236904762D01*
X103714285Y-234904762D01*
X106380953Y-236904762D02*
X105238095Y-236904762D01*
X105809524Y-236904762D02*
X105809524Y-234904762D01*
X105619048Y-235190476D01*
X105428572Y-235380952D01*
X105238095Y-235476190D01*
D11*
X243535715Y-211678571D02*
X243535715Y-210178571D01*
X244178572Y-210321429D02*
X244250001Y-210250000D01*
X244392858Y-210178571D01*
X244750001Y-210178571D01*
X244892858Y-210250000D01*
X244964287Y-210321429D01*
X245035715Y-210464286D01*
X245035715Y-210607143D01*
X244964287Y-210821429D01*
X244107144Y-211678571D01*
X245035715Y-211678571D01*
X246535715Y-211535714D02*
X246464286Y-211607143D01*
X246250000Y-211678571D01*
X246107143Y-211678571D01*
X245892858Y-211607143D01*
X245750000Y-211464286D01*
X245678572Y-211321429D01*
X245607143Y-211035714D01*
X245607143Y-210821429D01*
X245678572Y-210535714D01*
X245750000Y-210392857D01*
X245892858Y-210250000D01*
X246107143Y-210178571D01*
X246250000Y-210178571D01*
X246464286Y-210250000D01*
X246535715Y-210321429D01*
X243535715Y-199678571D02*
X243535715Y-198178571D01*
X244178572Y-198321429D02*
X244250001Y-198250000D01*
X244392858Y-198178571D01*
X244750001Y-198178571D01*
X244892858Y-198250000D01*
X244964287Y-198321429D01*
X245035715Y-198464286D01*
X245035715Y-198607143D01*
X244964287Y-198821429D01*
X244107144Y-199678571D01*
X245035715Y-199678571D01*
X246535715Y-199535714D02*
X246464286Y-199607143D01*
X246250000Y-199678571D01*
X246107143Y-199678571D01*
X245892858Y-199607143D01*
X245750000Y-199464286D01*
X245678572Y-199321429D01*
X245607143Y-199035714D01*
X245607143Y-198821429D01*
X245678572Y-198535714D01*
X245750000Y-198392857D01*
X245892858Y-198250000D01*
X246107143Y-198178571D01*
X246250000Y-198178571D01*
X246464286Y-198250000D01*
X246535715Y-198321429D01*
X243535715Y-187678571D02*
X243535715Y-186178571D01*
X244178572Y-186321429D02*
X244250001Y-186250000D01*
X244392858Y-186178571D01*
X244750001Y-186178571D01*
X244892858Y-186250000D01*
X244964287Y-186321429D01*
X245035715Y-186464286D01*
X245035715Y-186607143D01*
X244964287Y-186821429D01*
X244107144Y-187678571D01*
X245035715Y-187678571D01*
X246535715Y-187535714D02*
X246464286Y-187607143D01*
X246250000Y-187678571D01*
X246107143Y-187678571D01*
X245892858Y-187607143D01*
X245750000Y-187464286D01*
X245678572Y-187321429D01*
X245607143Y-187035714D01*
X245607143Y-186821429D01*
X245678572Y-186535714D01*
X245750000Y-186392857D01*
X245892858Y-186250000D01*
X246107143Y-186178571D01*
X246250000Y-186178571D01*
X246464286Y-186250000D01*
X246535715Y-186321429D01*
X213142857Y-173250000D02*
X213857143Y-173250000D01*
X213000000Y-173678571D02*
X213500000Y-172178571D01*
X214000000Y-173678571D01*
X214500000Y-172178571D02*
X214500000Y-173392857D01*
X214571428Y-173535714D01*
X214642857Y-173607143D01*
X214785714Y-173678571D01*
X215071428Y-173678571D01*
X215214286Y-173607143D01*
X215285714Y-173535714D01*
X215357143Y-173392857D01*
X215357143Y-172178571D01*
X215928572Y-172178571D02*
X216928572Y-173678571D01*
X216928572Y-172178571D02*
X215928572Y-173678571D01*
X237714286Y-172607143D02*
X237928572Y-172678571D01*
X238285715Y-172678571D01*
X238428572Y-172607143D01*
X238500001Y-172535714D01*
X238571429Y-172392857D01*
X238571429Y-172250000D01*
X238500001Y-172107143D01*
X238428572Y-172035714D01*
X238285715Y-171964286D01*
X238000001Y-171892857D01*
X237857143Y-171821429D01*
X237785715Y-171750000D01*
X237714286Y-171607143D01*
X237714286Y-171464286D01*
X237785715Y-171321429D01*
X237857143Y-171250000D01*
X238000001Y-171178571D01*
X238357143Y-171178571D01*
X238571429Y-171250000D01*
X239214286Y-171892857D02*
X239714286Y-171892857D01*
X239928572Y-172678571D02*
X239214286Y-172678571D01*
X239214286Y-171178571D01*
X239928572Y-171178571D01*
X241428572Y-172678571D02*
X240928572Y-171964286D01*
X240571429Y-172678571D02*
X240571429Y-171178571D01*
X241142857Y-171178571D01*
X241285715Y-171250000D01*
X241357143Y-171321429D01*
X241428572Y-171464286D01*
X241428572Y-171678571D01*
X241357143Y-171821429D01*
X241285715Y-171892857D01*
X241142857Y-171964286D01*
X240571429Y-171964286D01*
X241857143Y-171178571D02*
X242357143Y-172678571D01*
X242857143Y-171178571D01*
X243357143Y-172678571D02*
X243357143Y-171178571D01*
X244928572Y-172535714D02*
X244857143Y-172607143D01*
X244642857Y-172678571D01*
X244500000Y-172678571D01*
X244285715Y-172607143D01*
X244142857Y-172464286D01*
X244071429Y-172321429D01*
X244000000Y-172035714D01*
X244000000Y-171821429D01*
X244071429Y-171535714D01*
X244142857Y-171392857D01*
X244285715Y-171250000D01*
X244500000Y-171178571D01*
X244642857Y-171178571D01*
X244857143Y-171250000D01*
X244928572Y-171321429D01*
X245571429Y-171892857D02*
X246071429Y-171892857D01*
X246285715Y-172678571D02*
X245571429Y-172678571D01*
X245571429Y-171178571D01*
X246285715Y-171178571D01*
X230964286Y-172607143D02*
X231178572Y-172678571D01*
X231535715Y-172678571D01*
X231678572Y-172607143D01*
X231750001Y-172535714D01*
X231821429Y-172392857D01*
X231821429Y-172250000D01*
X231750001Y-172107143D01*
X231678572Y-172035714D01*
X231535715Y-171964286D01*
X231250001Y-171892857D01*
X231107143Y-171821429D01*
X231035715Y-171750000D01*
X230964286Y-171607143D01*
X230964286Y-171464286D01*
X231035715Y-171321429D01*
X231107143Y-171250000D01*
X231250001Y-171178571D01*
X231607143Y-171178571D01*
X231821429Y-171250000D01*
X232321429Y-171178571D02*
X232678572Y-172678571D01*
X232964286Y-171607143D01*
X233250000Y-172678571D01*
X233607143Y-171178571D01*
X234178572Y-172678571D02*
X234178572Y-171178571D01*
X234535715Y-171178571D01*
X234750000Y-171250000D01*
X234892858Y-171392857D01*
X234964286Y-171535714D01*
X235035715Y-171821429D01*
X235035715Y-172035714D01*
X234964286Y-172321429D01*
X234892858Y-172464286D01*
X234750000Y-172607143D01*
X234535715Y-172678571D01*
X234178572Y-172678571D01*
X225857143Y-236382857D02*
X226357143Y-236382857D01*
X226571429Y-237168571D02*
X225857143Y-237168571D01*
X225857143Y-235668571D01*
X226571429Y-235668571D01*
X227071429Y-235668571D02*
X228071429Y-237168571D01*
X228071429Y-235668571D02*
X227071429Y-237168571D01*
X228642857Y-237168571D02*
X228642857Y-235668571D01*
X229214285Y-235668571D01*
X229357143Y-235740000D01*
X229428571Y-235811429D01*
X229500000Y-235954286D01*
X229500000Y-236168571D01*
X229428571Y-236311429D01*
X229357143Y-236382857D01*
X229214285Y-236454286D01*
X228642857Y-236454286D01*
X230071428Y-236740000D02*
X230785714Y-236740000D01*
X229928571Y-237168571D02*
X230428571Y-235668571D01*
X230928571Y-237168571D01*
X231428571Y-237168571D02*
X231428571Y-235668571D01*
X232285714Y-237168571D01*
X232285714Y-235668571D01*
X232928571Y-237097143D02*
X233142857Y-237168571D01*
X233500000Y-237168571D01*
X233642857Y-237097143D01*
X233714286Y-237025714D01*
X233785714Y-236882857D01*
X233785714Y-236740000D01*
X233714286Y-236597143D01*
X233642857Y-236525714D01*
X233500000Y-236454286D01*
X233214286Y-236382857D01*
X233071428Y-236311429D01*
X233000000Y-236240000D01*
X232928571Y-236097143D01*
X232928571Y-235954286D01*
X233000000Y-235811429D01*
X233071428Y-235740000D01*
X233214286Y-235668571D01*
X233571428Y-235668571D01*
X233785714Y-235740000D01*
X234428571Y-237168571D02*
X234428571Y-235668571D01*
X235428571Y-235668571D02*
X235714285Y-235668571D01*
X235857143Y-235740000D01*
X236000000Y-235882857D01*
X236071428Y-236168571D01*
X236071428Y-236668571D01*
X236000000Y-236954286D01*
X235857143Y-237097143D01*
X235714285Y-237168571D01*
X235428571Y-237168571D01*
X235285714Y-237097143D01*
X235142857Y-236954286D01*
X235071428Y-236668571D01*
X235071428Y-236168571D01*
X235142857Y-235882857D01*
X235285714Y-235740000D01*
X235428571Y-235668571D01*
X236714286Y-237168571D02*
X236714286Y-235668571D01*
X237571429Y-237168571D01*
X237571429Y-235668571D01*
X239214286Y-235668571D02*
X239714286Y-237168571D01*
X240214286Y-235668571D01*
X240642857Y-236740000D02*
X241357143Y-236740000D01*
X240500000Y-237168571D02*
X241000000Y-235668571D01*
X241500000Y-237168571D01*
X242714286Y-237168571D02*
X242000000Y-237168571D01*
X242000000Y-235668571D01*
X243000000Y-235668571D02*
X243500000Y-237168571D01*
X244000000Y-235668571D01*
X244500000Y-236382857D02*
X245000000Y-236382857D01*
X245214286Y-237168571D02*
X244500000Y-237168571D01*
X244500000Y-235668571D01*
X245214286Y-235668571D01*
X212678571Y-236903571D02*
X212678571Y-235403571D01*
X212678571Y-236117857D02*
X213535714Y-236117857D01*
X213535714Y-236903571D02*
X213535714Y-235403571D01*
X214250000Y-236903571D02*
X214250000Y-235403571D01*
X215750000Y-235475000D02*
X215607143Y-235403571D01*
X215392857Y-235403571D01*
X215178572Y-235475000D01*
X215035714Y-235617857D01*
X214964286Y-235760714D01*
X214892857Y-236046429D01*
X214892857Y-236260714D01*
X214964286Y-236546429D01*
X215035714Y-236689286D01*
X215178572Y-236832143D01*
X215392857Y-236903571D01*
X215535714Y-236903571D01*
X215750000Y-236832143D01*
X215821429Y-236760714D01*
X215821429Y-236260714D01*
X215535714Y-236260714D01*
X216464286Y-236903571D02*
X216464286Y-235403571D01*
X216464286Y-236117857D02*
X217321429Y-236117857D01*
X217321429Y-236903571D02*
X217321429Y-235403571D01*
X209535715Y-239453571D02*
X209535715Y-237953571D01*
X210107143Y-237953571D01*
X210250001Y-238025000D01*
X210321429Y-238096429D01*
X210392858Y-238239286D01*
X210392858Y-238453571D01*
X210321429Y-238596429D01*
X210250001Y-238667857D01*
X210107143Y-238739286D01*
X209535715Y-238739286D01*
X211892858Y-239453571D02*
X211392858Y-238739286D01*
X211035715Y-239453571D02*
X211035715Y-237953571D01*
X211607143Y-237953571D01*
X211750001Y-238025000D01*
X211821429Y-238096429D01*
X211892858Y-238239286D01*
X211892858Y-238453571D01*
X211821429Y-238596429D01*
X211750001Y-238667857D01*
X211607143Y-238739286D01*
X211035715Y-238739286D01*
X212535715Y-238667857D02*
X213035715Y-238667857D01*
X213250001Y-239453571D02*
X212535715Y-239453571D01*
X212535715Y-237953571D01*
X213250001Y-237953571D01*
X213821429Y-239382143D02*
X214035715Y-239453571D01*
X214392858Y-239453571D01*
X214535715Y-239382143D01*
X214607144Y-239310714D01*
X214678572Y-239167857D01*
X214678572Y-239025000D01*
X214607144Y-238882143D01*
X214535715Y-238810714D01*
X214392858Y-238739286D01*
X214107144Y-238667857D01*
X213964286Y-238596429D01*
X213892858Y-238525000D01*
X213821429Y-238382143D01*
X213821429Y-238239286D01*
X213892858Y-238096429D01*
X213964286Y-238025000D01*
X214107144Y-237953571D01*
X214464286Y-237953571D01*
X214678572Y-238025000D01*
X215250000Y-239382143D02*
X215464286Y-239453571D01*
X215821429Y-239453571D01*
X215964286Y-239382143D01*
X216035715Y-239310714D01*
X216107143Y-239167857D01*
X216107143Y-239025000D01*
X216035715Y-238882143D01*
X215964286Y-238810714D01*
X215821429Y-238739286D01*
X215535715Y-238667857D01*
X215392857Y-238596429D01*
X215321429Y-238525000D01*
X215250000Y-238382143D01*
X215250000Y-238239286D01*
X215321429Y-238096429D01*
X215392857Y-238025000D01*
X215535715Y-237953571D01*
X215892857Y-237953571D01*
X216107143Y-238025000D01*
X216750000Y-237953571D02*
X216750000Y-239167857D01*
X216821428Y-239310714D01*
X216892857Y-239382143D01*
X217035714Y-239453571D01*
X217321428Y-239453571D01*
X217464286Y-239382143D01*
X217535714Y-239310714D01*
X217607143Y-239167857D01*
X217607143Y-237953571D01*
X219178572Y-239453571D02*
X218678572Y-238739286D01*
X218321429Y-239453571D02*
X218321429Y-237953571D01*
X218892857Y-237953571D01*
X219035715Y-238025000D01*
X219107143Y-238096429D01*
X219178572Y-238239286D01*
X219178572Y-238453571D01*
X219107143Y-238596429D01*
X219035715Y-238667857D01*
X218892857Y-238739286D01*
X218321429Y-238739286D01*
X219821429Y-238667857D02*
X220321429Y-238667857D01*
X220535715Y-239453571D02*
X219821429Y-239453571D01*
X219821429Y-237953571D01*
X220535715Y-237953571D01*
X198821429Y-236903571D02*
X198107143Y-236903571D01*
X198107143Y-235403571D01*
X199607143Y-235403571D02*
X199892857Y-235403571D01*
X200035715Y-235475000D01*
X200178572Y-235617857D01*
X200250000Y-235903571D01*
X200250000Y-236403571D01*
X200178572Y-236689286D01*
X200035715Y-236832143D01*
X199892857Y-236903571D01*
X199607143Y-236903571D01*
X199464286Y-236832143D01*
X199321429Y-236689286D01*
X199250000Y-236403571D01*
X199250000Y-235903571D01*
X199321429Y-235617857D01*
X199464286Y-235475000D01*
X199607143Y-235403571D01*
X200750001Y-235403571D02*
X201107144Y-236903571D01*
X201392858Y-235832143D01*
X201678572Y-236903571D01*
X202035715Y-235403571D01*
X194535715Y-239453571D02*
X194535715Y-237953571D01*
X195107143Y-237953571D01*
X195250001Y-238025000D01*
X195321429Y-238096429D01*
X195392858Y-238239286D01*
X195392858Y-238453571D01*
X195321429Y-238596429D01*
X195250001Y-238667857D01*
X195107143Y-238739286D01*
X194535715Y-238739286D01*
X196892858Y-239453571D02*
X196392858Y-238739286D01*
X196035715Y-239453571D02*
X196035715Y-237953571D01*
X196607143Y-237953571D01*
X196750001Y-238025000D01*
X196821429Y-238096429D01*
X196892858Y-238239286D01*
X196892858Y-238453571D01*
X196821429Y-238596429D01*
X196750001Y-238667857D01*
X196607143Y-238739286D01*
X196035715Y-238739286D01*
X197535715Y-238667857D02*
X198035715Y-238667857D01*
X198250001Y-239453571D02*
X197535715Y-239453571D01*
X197535715Y-237953571D01*
X198250001Y-237953571D01*
X198821429Y-239382143D02*
X199035715Y-239453571D01*
X199392858Y-239453571D01*
X199535715Y-239382143D01*
X199607144Y-239310714D01*
X199678572Y-239167857D01*
X199678572Y-239025000D01*
X199607144Y-238882143D01*
X199535715Y-238810714D01*
X199392858Y-238739286D01*
X199107144Y-238667857D01*
X198964286Y-238596429D01*
X198892858Y-238525000D01*
X198821429Y-238382143D01*
X198821429Y-238239286D01*
X198892858Y-238096429D01*
X198964286Y-238025000D01*
X199107144Y-237953571D01*
X199464286Y-237953571D01*
X199678572Y-238025000D01*
X200250000Y-239382143D02*
X200464286Y-239453571D01*
X200821429Y-239453571D01*
X200964286Y-239382143D01*
X201035715Y-239310714D01*
X201107143Y-239167857D01*
X201107143Y-239025000D01*
X201035715Y-238882143D01*
X200964286Y-238810714D01*
X200821429Y-238739286D01*
X200535715Y-238667857D01*
X200392857Y-238596429D01*
X200321429Y-238525000D01*
X200250000Y-238382143D01*
X200250000Y-238239286D01*
X200321429Y-238096429D01*
X200392857Y-238025000D01*
X200535715Y-237953571D01*
X200892857Y-237953571D01*
X201107143Y-238025000D01*
X201750000Y-237953571D02*
X201750000Y-239167857D01*
X201821428Y-239310714D01*
X201892857Y-239382143D01*
X202035714Y-239453571D01*
X202321428Y-239453571D01*
X202464286Y-239382143D01*
X202535714Y-239310714D01*
X202607143Y-239167857D01*
X202607143Y-237953571D01*
X204178572Y-239453571D02*
X203678572Y-238739286D01*
X203321429Y-239453571D02*
X203321429Y-237953571D01*
X203892857Y-237953571D01*
X204035715Y-238025000D01*
X204107143Y-238096429D01*
X204178572Y-238239286D01*
X204178572Y-238453571D01*
X204107143Y-238596429D01*
X204035715Y-238667857D01*
X203892857Y-238739286D01*
X203321429Y-238739286D01*
X204821429Y-238667857D02*
X205321429Y-238667857D01*
X205535715Y-239453571D02*
X204821429Y-239453571D01*
X204821429Y-237953571D01*
X205535715Y-237953571D01*
X182214286Y-236903571D02*
X182214286Y-235403571D01*
X182785714Y-235403571D01*
X182928572Y-235475000D01*
X183000000Y-235546429D01*
X183071429Y-235689286D01*
X183071429Y-235903571D01*
X183000000Y-236046429D01*
X182928572Y-236117857D01*
X182785714Y-236189286D01*
X182214286Y-236189286D01*
X183714286Y-235403571D02*
X183714286Y-236617857D01*
X183785714Y-236760714D01*
X183857143Y-236832143D01*
X184000000Y-236903571D01*
X184285714Y-236903571D01*
X184428572Y-236832143D01*
X184500000Y-236760714D01*
X184571429Y-236617857D01*
X184571429Y-235403571D01*
X185285715Y-236903571D02*
X185285715Y-235403571D01*
X185785715Y-236475000D01*
X186285715Y-235403571D01*
X186285715Y-236903571D01*
X187000001Y-236903571D02*
X187000001Y-235403571D01*
X187571429Y-235403571D01*
X187714287Y-235475000D01*
X187785715Y-235546429D01*
X187857144Y-235689286D01*
X187857144Y-235903571D01*
X187785715Y-236046429D01*
X187714287Y-236117857D01*
X187571429Y-236189286D01*
X187000001Y-236189286D01*
X180142857Y-239453571D02*
X180142857Y-237953571D01*
X180142857Y-238667857D02*
X181000000Y-238667857D01*
X181000000Y-239453571D02*
X181000000Y-237953571D01*
X182000000Y-237953571D02*
X182285714Y-237953571D01*
X182428572Y-238025000D01*
X182571429Y-238167857D01*
X182642857Y-238453571D01*
X182642857Y-238953571D01*
X182571429Y-239239286D01*
X182428572Y-239382143D01*
X182285714Y-239453571D01*
X182000000Y-239453571D01*
X181857143Y-239382143D01*
X181714286Y-239239286D01*
X181642857Y-238953571D01*
X181642857Y-238453571D01*
X181714286Y-238167857D01*
X181857143Y-238025000D01*
X182000000Y-237953571D01*
X183071429Y-237953571D02*
X183928572Y-237953571D01*
X183500001Y-239453571D02*
X183500001Y-237953571D01*
X185500000Y-239382143D02*
X185714286Y-239453571D01*
X186071429Y-239453571D01*
X186214286Y-239382143D01*
X186285715Y-239310714D01*
X186357143Y-239167857D01*
X186357143Y-239025000D01*
X186285715Y-238882143D01*
X186214286Y-238810714D01*
X186071429Y-238739286D01*
X185785715Y-238667857D01*
X185642857Y-238596429D01*
X185571429Y-238525000D01*
X185500000Y-238382143D01*
X185500000Y-238239286D01*
X185571429Y-238096429D01*
X185642857Y-238025000D01*
X185785715Y-237953571D01*
X186142857Y-237953571D01*
X186357143Y-238025000D01*
X187000000Y-239453571D02*
X187000000Y-237953571D01*
X187714286Y-239453571D02*
X187714286Y-237953571D01*
X188071429Y-237953571D01*
X188285714Y-238025000D01*
X188428572Y-238167857D01*
X188500000Y-238310714D01*
X188571429Y-238596429D01*
X188571429Y-238810714D01*
X188500000Y-239096429D01*
X188428572Y-239239286D01*
X188285714Y-239382143D01*
X188071429Y-239453571D01*
X187714286Y-239453571D01*
X189214286Y-238667857D02*
X189714286Y-238667857D01*
X189928572Y-239453571D02*
X189214286Y-239453571D01*
X189214286Y-237953571D01*
X189928572Y-237953571D01*
X167214286Y-236903571D02*
X167214286Y-235403571D01*
X167785714Y-235403571D01*
X167928572Y-235475000D01*
X168000000Y-235546429D01*
X168071429Y-235689286D01*
X168071429Y-235903571D01*
X168000000Y-236046429D01*
X167928572Y-236117857D01*
X167785714Y-236189286D01*
X167214286Y-236189286D01*
X168714286Y-235403571D02*
X168714286Y-236617857D01*
X168785714Y-236760714D01*
X168857143Y-236832143D01*
X169000000Y-236903571D01*
X169285714Y-236903571D01*
X169428572Y-236832143D01*
X169500000Y-236760714D01*
X169571429Y-236617857D01*
X169571429Y-235403571D01*
X170285715Y-236903571D02*
X170285715Y-235403571D01*
X170785715Y-236475000D01*
X171285715Y-235403571D01*
X171285715Y-236903571D01*
X172000001Y-236903571D02*
X172000001Y-235403571D01*
X172571429Y-235403571D01*
X172714287Y-235475000D01*
X172785715Y-235546429D01*
X172857144Y-235689286D01*
X172857144Y-235903571D01*
X172785715Y-236046429D01*
X172714287Y-236117857D01*
X172571429Y-236189286D01*
X172000001Y-236189286D01*
X165250000Y-239310714D02*
X165178571Y-239382143D01*
X164964285Y-239453571D01*
X164821428Y-239453571D01*
X164607143Y-239382143D01*
X164464285Y-239239286D01*
X164392857Y-239096429D01*
X164321428Y-238810714D01*
X164321428Y-238596429D01*
X164392857Y-238310714D01*
X164464285Y-238167857D01*
X164607143Y-238025000D01*
X164821428Y-237953571D01*
X164964285Y-237953571D01*
X165178571Y-238025000D01*
X165250000Y-238096429D01*
X166178571Y-237953571D02*
X166464285Y-237953571D01*
X166607143Y-238025000D01*
X166750000Y-238167857D01*
X166821428Y-238453571D01*
X166821428Y-238953571D01*
X166750000Y-239239286D01*
X166607143Y-239382143D01*
X166464285Y-239453571D01*
X166178571Y-239453571D01*
X166035714Y-239382143D01*
X165892857Y-239239286D01*
X165821428Y-238953571D01*
X165821428Y-238453571D01*
X165892857Y-238167857D01*
X166035714Y-238025000D01*
X166178571Y-237953571D01*
X168178572Y-239453571D02*
X167464286Y-239453571D01*
X167464286Y-237953571D01*
X168678572Y-239453571D02*
X168678572Y-237953571D01*
X169035715Y-237953571D01*
X169250000Y-238025000D01*
X169392858Y-238167857D01*
X169464286Y-238310714D01*
X169535715Y-238596429D01*
X169535715Y-238810714D01*
X169464286Y-239096429D01*
X169392858Y-239239286D01*
X169250000Y-239382143D01*
X169035715Y-239453571D01*
X168678572Y-239453571D01*
X171250000Y-239382143D02*
X171464286Y-239453571D01*
X171821429Y-239453571D01*
X171964286Y-239382143D01*
X172035715Y-239310714D01*
X172107143Y-239167857D01*
X172107143Y-239025000D01*
X172035715Y-238882143D01*
X171964286Y-238810714D01*
X171821429Y-238739286D01*
X171535715Y-238667857D01*
X171392857Y-238596429D01*
X171321429Y-238525000D01*
X171250000Y-238382143D01*
X171250000Y-238239286D01*
X171321429Y-238096429D01*
X171392857Y-238025000D01*
X171535715Y-237953571D01*
X171892857Y-237953571D01*
X172107143Y-238025000D01*
X172750000Y-239453571D02*
X172750000Y-237953571D01*
X173464286Y-239453571D02*
X173464286Y-237953571D01*
X173821429Y-237953571D01*
X174035714Y-238025000D01*
X174178572Y-238167857D01*
X174250000Y-238310714D01*
X174321429Y-238596429D01*
X174321429Y-238810714D01*
X174250000Y-239096429D01*
X174178572Y-239239286D01*
X174035714Y-239382143D01*
X173821429Y-239453571D01*
X173464286Y-239453571D01*
X174964286Y-238667857D02*
X175464286Y-238667857D01*
X175678572Y-239453571D02*
X174964286Y-239453571D01*
X174964286Y-237953571D01*
X175678572Y-237953571D01*
X238892857Y-123392857D02*
X238678571Y-123321429D01*
X238321428Y-123321429D01*
X238178571Y-123392857D01*
X238107142Y-123464286D01*
X238035714Y-123607143D01*
X238035714Y-123750000D01*
X238107142Y-123892857D01*
X238178571Y-123964286D01*
X238321428Y-124035714D01*
X238607142Y-124107143D01*
X238750000Y-124178571D01*
X238821428Y-124250000D01*
X238892857Y-124392857D01*
X238892857Y-124535714D01*
X238821428Y-124678571D01*
X238750000Y-124750000D01*
X238607142Y-124821429D01*
X238250000Y-124821429D01*
X238035714Y-124750000D01*
X237464286Y-123392857D02*
X237250000Y-123321429D01*
X236892857Y-123321429D01*
X236750000Y-123392857D01*
X236678571Y-123464286D01*
X236607143Y-123607143D01*
X236607143Y-123750000D01*
X236678571Y-123892857D01*
X236750000Y-123964286D01*
X236892857Y-124035714D01*
X237178571Y-124107143D01*
X237321429Y-124178571D01*
X237392857Y-124250000D01*
X237464286Y-124392857D01*
X237464286Y-124535714D01*
X237392857Y-124678571D01*
X237321429Y-124750000D01*
X237178571Y-124821429D01*
X236821429Y-124821429D01*
X236607143Y-124750000D01*
X235107143Y-123321429D02*
X235607143Y-124035714D01*
X235964286Y-123321429D02*
X235964286Y-124821429D01*
X235392858Y-124821429D01*
X235250000Y-124750000D01*
X235178572Y-124678571D01*
X235107143Y-124535714D01*
X235107143Y-124321429D01*
X235178572Y-124178571D01*
X235250000Y-124107143D01*
X235392858Y-124035714D01*
X235964286Y-124035714D01*
X102642857Y-220535714D02*
X102571428Y-220607143D01*
X102357142Y-220678571D01*
X102214285Y-220678571D01*
X102000000Y-220607143D01*
X101857142Y-220464286D01*
X101785714Y-220321429D01*
X101714285Y-220035714D01*
X101714285Y-219821429D01*
X101785714Y-219535714D01*
X101857142Y-219392857D01*
X102000000Y-219250000D01*
X102214285Y-219178571D01*
X102357142Y-219178571D01*
X102571428Y-219250000D01*
X102642857Y-219321429D01*
X103571428Y-219178571D02*
X103857142Y-219178571D01*
X104000000Y-219250000D01*
X104142857Y-219392857D01*
X104214285Y-219678571D01*
X104214285Y-220178571D01*
X104142857Y-220464286D01*
X104000000Y-220607143D01*
X103857142Y-220678571D01*
X103571428Y-220678571D01*
X103428571Y-220607143D01*
X103285714Y-220464286D01*
X103214285Y-220178571D01*
X103214285Y-219678571D01*
X103285714Y-219392857D01*
X103428571Y-219250000D01*
X103571428Y-219178571D01*
X104857143Y-220678571D02*
X104857143Y-219178571D01*
X105357143Y-220250000D01*
X105857143Y-219178571D01*
X105857143Y-220678571D01*
X106571429Y-220678571D02*
X106571429Y-219178571D01*
X107142857Y-219178571D01*
X107285715Y-219250000D01*
X107357143Y-219321429D01*
X107428572Y-219464286D01*
X107428572Y-219678571D01*
X107357143Y-219821429D01*
X107285715Y-219892857D01*
X107142857Y-219964286D01*
X106571429Y-219964286D01*
X108928572Y-220678571D02*
X108428572Y-219964286D01*
X108071429Y-220678571D02*
X108071429Y-219178571D01*
X108642857Y-219178571D01*
X108785715Y-219250000D01*
X108857143Y-219321429D01*
X108928572Y-219464286D01*
X108928572Y-219678571D01*
X108857143Y-219821429D01*
X108785715Y-219892857D01*
X108642857Y-219964286D01*
X108071429Y-219964286D01*
X109571429Y-219892857D02*
X110071429Y-219892857D01*
X110285715Y-220678571D02*
X109571429Y-220678571D01*
X109571429Y-219178571D01*
X110285715Y-219178571D01*
X110857143Y-220607143D02*
X111071429Y-220678571D01*
X111428572Y-220678571D01*
X111571429Y-220607143D01*
X111642858Y-220535714D01*
X111714286Y-220392857D01*
X111714286Y-220250000D01*
X111642858Y-220107143D01*
X111571429Y-220035714D01*
X111428572Y-219964286D01*
X111142858Y-219892857D01*
X111000000Y-219821429D01*
X110928572Y-219750000D01*
X110857143Y-219607143D01*
X110857143Y-219464286D01*
X110928572Y-219321429D01*
X111000000Y-219250000D01*
X111142858Y-219178571D01*
X111500000Y-219178571D01*
X111714286Y-219250000D01*
X112285714Y-220607143D02*
X112500000Y-220678571D01*
X112857143Y-220678571D01*
X113000000Y-220607143D01*
X113071429Y-220535714D01*
X113142857Y-220392857D01*
X113142857Y-220250000D01*
X113071429Y-220107143D01*
X113000000Y-220035714D01*
X112857143Y-219964286D01*
X112571429Y-219892857D01*
X112428571Y-219821429D01*
X112357143Y-219750000D01*
X112285714Y-219607143D01*
X112285714Y-219464286D01*
X112357143Y-219321429D01*
X112428571Y-219250000D01*
X112571429Y-219178571D01*
X112928571Y-219178571D01*
X113142857Y-219250000D01*
X114071428Y-219178571D02*
X114357142Y-219178571D01*
X114500000Y-219250000D01*
X114642857Y-219392857D01*
X114714285Y-219678571D01*
X114714285Y-220178571D01*
X114642857Y-220464286D01*
X114500000Y-220607143D01*
X114357142Y-220678571D01*
X114071428Y-220678571D01*
X113928571Y-220607143D01*
X113785714Y-220464286D01*
X113714285Y-220178571D01*
X113714285Y-219678571D01*
X113785714Y-219392857D01*
X113928571Y-219250000D01*
X114071428Y-219178571D01*
X116214286Y-220678571D02*
X115714286Y-219964286D01*
X115357143Y-220678571D02*
X115357143Y-219178571D01*
X115928571Y-219178571D01*
X116071429Y-219250000D01*
X116142857Y-219321429D01*
X116214286Y-219464286D01*
X116214286Y-219678571D01*
X116142857Y-219821429D01*
X116071429Y-219892857D01*
X115928571Y-219964286D01*
X115357143Y-219964286D01*
X118428571Y-221250000D02*
X118357143Y-221178571D01*
X118214286Y-220964286D01*
X118142857Y-220821429D01*
X118071428Y-220607143D01*
X118000000Y-220250000D01*
X118000000Y-219964286D01*
X118071428Y-219607143D01*
X118142857Y-219392857D01*
X118214286Y-219250000D01*
X118357143Y-219035714D01*
X118428571Y-218964286D01*
X119714286Y-220678571D02*
X119000000Y-220678571D01*
X119000000Y-219178571D01*
X121000000Y-220678571D02*
X120142857Y-220678571D01*
X120571429Y-220678571D02*
X120571429Y-219178571D01*
X120428572Y-219392857D01*
X120285714Y-219535714D01*
X120142857Y-219607143D01*
X121642857Y-220107143D02*
X122785714Y-220107143D01*
X124214286Y-220678571D02*
X123500000Y-220678571D01*
X123500000Y-219178571D01*
X124642857Y-219321429D02*
X124714286Y-219250000D01*
X124857143Y-219178571D01*
X125214286Y-219178571D01*
X125357143Y-219250000D01*
X125428572Y-219321429D01*
X125500000Y-219464286D01*
X125500000Y-219607143D01*
X125428572Y-219821429D01*
X124571429Y-220678571D01*
X125500000Y-220678571D01*
X126142857Y-220107143D02*
X127285714Y-220107143D01*
X128714286Y-220678571D02*
X128000000Y-220678571D01*
X128000000Y-219178571D01*
X129071429Y-219178571D02*
X130000000Y-219178571D01*
X129500000Y-219750000D01*
X129714286Y-219750000D01*
X129857143Y-219821429D01*
X129928572Y-219892857D01*
X130000000Y-220035714D01*
X130000000Y-220392857D01*
X129928572Y-220535714D01*
X129857143Y-220607143D01*
X129714286Y-220678571D01*
X129285714Y-220678571D01*
X129142857Y-220607143D01*
X129071429Y-220535714D01*
X130500000Y-221250000D02*
X130571428Y-221178571D01*
X130714285Y-220964286D01*
X130785714Y-220821429D01*
X130857143Y-220607143D01*
X130928571Y-220250000D01*
X130928571Y-219964286D01*
X130857143Y-219607143D01*
X130785714Y-219392857D01*
X130714285Y-219250000D01*
X130571428Y-219035714D01*
X130500000Y-218964286D01*
X131714285Y-220607143D02*
X131714285Y-220678571D01*
X131642857Y-220821429D01*
X131571428Y-220892857D01*
X133428571Y-220607143D02*
X133642857Y-220678571D01*
X134000000Y-220678571D01*
X134142857Y-220607143D01*
X134214286Y-220535714D01*
X134285714Y-220392857D01*
X134285714Y-220250000D01*
X134214286Y-220107143D01*
X134142857Y-220035714D01*
X134000000Y-219964286D01*
X133714286Y-219892857D01*
X133571428Y-219821429D01*
X133500000Y-219750000D01*
X133428571Y-219607143D01*
X133428571Y-219464286D01*
X133500000Y-219321429D01*
X133571428Y-219250000D01*
X133714286Y-219178571D01*
X134071428Y-219178571D01*
X134285714Y-219250000D01*
X134857142Y-220607143D02*
X135071428Y-220678571D01*
X135428571Y-220678571D01*
X135571428Y-220607143D01*
X135642857Y-220535714D01*
X135714285Y-220392857D01*
X135714285Y-220250000D01*
X135642857Y-220107143D01*
X135571428Y-220035714D01*
X135428571Y-219964286D01*
X135142857Y-219892857D01*
X134999999Y-219821429D01*
X134928571Y-219750000D01*
X134857142Y-219607143D01*
X134857142Y-219464286D01*
X134928571Y-219321429D01*
X134999999Y-219250000D01*
X135142857Y-219178571D01*
X135499999Y-219178571D01*
X135714285Y-219250000D01*
X137214285Y-220678571D02*
X136714285Y-219964286D01*
X136357142Y-220678571D02*
X136357142Y-219178571D01*
X136928570Y-219178571D01*
X137071428Y-219250000D01*
X137142856Y-219321429D01*
X137214285Y-219464286D01*
X137214285Y-219678571D01*
X137142856Y-219821429D01*
X137071428Y-219892857D01*
X136928570Y-219964286D01*
X136357142Y-219964286D01*
X139285713Y-219178571D02*
X139571427Y-219178571D01*
X139714285Y-219250000D01*
X139857142Y-219392857D01*
X139928570Y-219678571D01*
X139928570Y-220178571D01*
X139857142Y-220464286D01*
X139714285Y-220607143D01*
X139571427Y-220678571D01*
X139285713Y-220678571D01*
X139142856Y-220607143D01*
X138999999Y-220464286D01*
X138928570Y-220178571D01*
X138928570Y-219678571D01*
X138999999Y-219392857D01*
X139142856Y-219250000D01*
X139285713Y-219178571D01*
X140571428Y-219178571D02*
X140571428Y-220392857D01*
X140642856Y-220535714D01*
X140714285Y-220607143D01*
X140857142Y-220678571D01*
X141142856Y-220678571D01*
X141285714Y-220607143D01*
X141357142Y-220535714D01*
X141428571Y-220392857D01*
X141428571Y-219178571D01*
X141928571Y-219178571D02*
X142785714Y-219178571D01*
X142357143Y-220678571D02*
X142357143Y-219178571D01*
X143285714Y-220678571D02*
X143285714Y-219178571D01*
X143857142Y-219178571D01*
X144000000Y-219250000D01*
X144071428Y-219321429D01*
X144142857Y-219464286D01*
X144142857Y-219678571D01*
X144071428Y-219821429D01*
X144000000Y-219892857D01*
X143857142Y-219964286D01*
X143285714Y-219964286D01*
X144785714Y-219178571D02*
X144785714Y-220392857D01*
X144857142Y-220535714D01*
X144928571Y-220607143D01*
X145071428Y-220678571D01*
X145357142Y-220678571D01*
X145500000Y-220607143D01*
X145571428Y-220535714D01*
X145642857Y-220392857D01*
X145642857Y-219178571D01*
X146142857Y-219178571D02*
X147000000Y-219178571D01*
X146571429Y-220678571D02*
X146571429Y-219178571D01*
X149071428Y-221250000D02*
X149000000Y-221178571D01*
X148857143Y-220964286D01*
X148785714Y-220821429D01*
X148714285Y-220607143D01*
X148642857Y-220250000D01*
X148642857Y-219964286D01*
X148714285Y-219607143D01*
X148785714Y-219392857D01*
X148857143Y-219250000D01*
X149000000Y-219035714D01*
X149071428Y-218964286D01*
X149642857Y-219178571D02*
X149642857Y-220392857D01*
X149714285Y-220535714D01*
X149785714Y-220607143D01*
X149928571Y-220678571D01*
X150214285Y-220678571D01*
X150357143Y-220607143D01*
X150428571Y-220535714D01*
X150500000Y-220392857D01*
X150500000Y-219178571D01*
X151214286Y-220107143D02*
X152357143Y-220107143D01*
X152857143Y-219178571D02*
X153357143Y-220678571D01*
X153857143Y-219178571D01*
X154357143Y-220107143D02*
X155500000Y-220107143D01*
X156071429Y-219178571D02*
X156428572Y-220678571D01*
X156714286Y-219607143D01*
X157000000Y-220678571D01*
X157357143Y-219178571D01*
X157785715Y-221250000D02*
X157857143Y-221178571D01*
X158000000Y-220964286D01*
X158071429Y-220821429D01*
X158142858Y-220607143D01*
X158214286Y-220250000D01*
X158214286Y-219964286D01*
X158142858Y-219607143D01*
X158071429Y-219392857D01*
X158000000Y-219250000D01*
X157857143Y-219035714D01*
X157785715Y-218964286D01*
D17*
X187540000Y-157540000D02*
X157060000Y-157540000D01*
X157060000Y-157540000D02*
X157060000Y-144840000D01*
X187540000Y-144840000D02*
X157060000Y-144840000D01*
X187540000Y-144840000D02*
X187540000Y-157540000D01*
D10*
X210850000Y-130500000D02*
X210850000Y-131500000D01*
X208850000Y-131500000D02*
X209850000Y-131500000D01*
X208850000Y-132500000D02*
X209850000Y-132500000D01*
X209850000Y-133500000D02*
X210850000Y-133500000D01*
X209850000Y-130500000D02*
X209850000Y-131500000D01*
X208850000Y-131500000D02*
X208850000Y-132500000D01*
X211850000Y-131500000D02*
X211850000Y-132500000D01*
X210850000Y-132500000D02*
X211850000Y-132500000D01*
X210850000Y-132500000D02*
X210850000Y-133500000D01*
X209850000Y-132500000D02*
X209850000Y-133500000D01*
X209850000Y-130500000D02*
X210850000Y-130500000D01*
X226250000Y-132000000D02*
G75*
G03X226250000Y-132000000I-10250000J0D01*
G01*
X210850000Y-131500000D02*
X211850000Y-131500000D01*
D18*
X187254098Y-176278234D02*
X186254098Y-176278234D01*
X186254098Y-177978234D02*
X187254098Y-177978234D01*
X175254098Y-176278234D02*
X174254098Y-176278234D01*
X174254098Y-177978234D02*
X175254098Y-177978234D01*
X204298659Y-184341441D02*
X204298659Y-185341441D01*
X205998659Y-185341441D02*
X205998659Y-184341441D01*
X242850000Y-207500000D02*
X242850000Y-206500000D01*
X241150000Y-206500000D02*
X241150000Y-207500000D01*
X240500000Y-211850000D02*
X241500000Y-211850000D01*
X241500000Y-210150000D02*
X240500000Y-210150000D01*
X207298659Y-184341441D02*
X207298659Y-185341441D01*
X208998659Y-185341441D02*
X208998659Y-184341441D01*
X240500000Y-203850000D02*
X241500000Y-203850000D01*
X241500000Y-202150000D02*
X240500000Y-202150000D01*
X205500000Y-191850000D02*
X206500000Y-191850000D01*
X206500000Y-190150000D02*
X205500000Y-190150000D01*
X218648659Y-199691441D02*
X219648659Y-199691441D01*
X219648659Y-197991441D02*
X218648659Y-197991441D01*
X248500000Y-132150000D02*
X247500000Y-132150000D01*
X247500000Y-133850000D02*
X248500000Y-133850000D01*
X192150000Y-163300000D02*
X187850000Y-163300000D01*
X187850000Y-163300000D02*
X187850000Y-169000000D01*
X192150000Y-163300000D02*
X192150000Y-169000000D01*
X203700000Y-171150000D02*
X203700000Y-166850000D01*
X203700000Y-166850000D02*
X198000000Y-166850000D01*
X203700000Y-171150000D02*
X198000000Y-171150000D01*
D17*
X181952000Y-132666000D02*
X181952000Y-125808000D01*
X177380000Y-132666000D02*
X181952000Y-132666000D01*
X187032000Y-132666000D02*
X187032000Y-125808000D01*
X182460000Y-132666000D02*
X187032000Y-132666000D01*
X177380000Y-139778000D02*
X177380000Y-125808000D01*
X182460000Y-139778000D02*
X182460000Y-125808000D01*
X174840000Y-125808000D02*
X174840000Y-139778000D01*
X187540000Y-125808000D02*
X174840000Y-125808000D01*
X187540000Y-139778000D02*
X187540000Y-125808000D01*
X187540000Y-139778000D02*
X174840000Y-139778000D01*
D18*
X204318659Y-174971441D02*
X204318659Y-180171441D01*
X214538659Y-174971441D02*
X204318659Y-174971441D01*
X217138659Y-180171441D02*
X204318659Y-180171441D01*
X214538659Y-174971441D02*
X214538659Y-177571441D01*
X214538659Y-177571441D02*
X217138659Y-177571441D01*
X217138659Y-177571441D02*
X217138659Y-180171441D01*
X215808659Y-174971441D02*
X217138659Y-174971441D01*
X217138659Y-174971441D02*
X217138659Y-176301441D01*
D17*
X229808000Y-227714000D02*
X229808000Y-234572000D01*
X234380000Y-227714000D02*
X229808000Y-227714000D01*
X224728000Y-227714000D02*
X224728000Y-234572000D01*
X229300000Y-227714000D02*
X224728000Y-227714000D01*
X229300000Y-220602000D02*
X229300000Y-234572000D01*
X224220000Y-234572000D02*
X247080000Y-234572000D01*
X224220000Y-220602000D02*
X224220000Y-234572000D01*
X224220000Y-220602000D02*
X247080000Y-220602000D01*
X234380000Y-220602000D02*
X234380000Y-234572000D01*
X247080000Y-234572000D02*
X247080000Y-220602000D01*
X234888000Y-227714000D02*
X234888000Y-234572000D01*
X239460000Y-227714000D02*
X234888000Y-227714000D01*
X239460000Y-220602000D02*
X239460000Y-234572000D01*
X239968000Y-227714000D02*
X239968000Y-234572000D01*
X244540000Y-227714000D02*
X239968000Y-227714000D01*
X244540000Y-220602000D02*
X244540000Y-234572000D01*
X199548000Y-227714000D02*
X199548000Y-234572000D01*
X204120000Y-227714000D02*
X199548000Y-227714000D01*
X194468000Y-227714000D02*
X194468000Y-234572000D01*
X199040000Y-227714000D02*
X194468000Y-227714000D01*
X204120000Y-220602000D02*
X204120000Y-234572000D01*
X199040000Y-220602000D02*
X199040000Y-234572000D01*
X206660000Y-234572000D02*
X206660000Y-220602000D01*
X193960000Y-234572000D02*
X206660000Y-234572000D01*
X193960000Y-220602000D02*
X193960000Y-234572000D01*
X193960000Y-220602000D02*
X206660000Y-220602000D01*
X169548000Y-227714000D02*
X169548000Y-234572000D01*
X174120000Y-227714000D02*
X169548000Y-227714000D01*
X164468000Y-227714000D02*
X164468000Y-234572000D01*
X169040000Y-227714000D02*
X164468000Y-227714000D01*
X174120000Y-220602000D02*
X174120000Y-234572000D01*
X169040000Y-220602000D02*
X169040000Y-234572000D01*
X176660000Y-234572000D02*
X176660000Y-220602000D01*
X163960000Y-234572000D02*
X176660000Y-234572000D01*
X163960000Y-220602000D02*
X163960000Y-234572000D01*
X163960000Y-220602000D02*
X176660000Y-220602000D01*
X184548000Y-227714000D02*
X184548000Y-234572000D01*
X189120000Y-227714000D02*
X184548000Y-227714000D01*
X179468000Y-227714000D02*
X179468000Y-234572000D01*
X184040000Y-227714000D02*
X179468000Y-227714000D01*
X189120000Y-220602000D02*
X189120000Y-234572000D01*
X184040000Y-220602000D02*
X184040000Y-234572000D01*
X191660000Y-234572000D02*
X191660000Y-220602000D01*
X178960000Y-234572000D02*
X191660000Y-234572000D01*
X178960000Y-220602000D02*
X178960000Y-234572000D01*
X178960000Y-220602000D02*
X191660000Y-220602000D01*
X214548000Y-227714000D02*
X214548000Y-234572000D01*
X219120000Y-227714000D02*
X214548000Y-227714000D01*
X209468000Y-227714000D02*
X209468000Y-234572000D01*
X214040000Y-227714000D02*
X209468000Y-227714000D01*
X219120000Y-220602000D02*
X219120000Y-234572000D01*
X214040000Y-220602000D02*
X214040000Y-234572000D01*
X221660000Y-234572000D02*
X221660000Y-220602000D01*
X208960000Y-234572000D02*
X221660000Y-234572000D01*
X208960000Y-220602000D02*
X208960000Y-234572000D01*
X208960000Y-220602000D02*
X221660000Y-220602000D01*
X117540000Y-157540000D02*
X87060000Y-157540000D01*
X87060000Y-157540000D02*
X87060000Y-144840000D01*
X117540000Y-144840000D02*
X87060000Y-144840000D01*
X117540000Y-144840000D02*
X117540000Y-157540000D01*
X152540000Y-157540000D02*
X122060000Y-157540000D01*
X122060000Y-157540000D02*
X122060000Y-144840000D01*
X152540000Y-144840000D02*
X122060000Y-144840000D01*
X152540000Y-144840000D02*
X152540000Y-157540000D01*
D18*
X256120000Y-176550000D02*
X256120000Y-175350000D01*
X257880000Y-175350000D02*
X257880000Y-176550000D01*
X256120000Y-180550000D02*
X256120000Y-179350000D01*
X257880000Y-179350000D02*
X257880000Y-180550000D01*
X233650000Y-196380000D02*
X232450000Y-196380000D01*
X232450000Y-194620000D02*
X233650000Y-194620000D01*
X233650000Y-194380000D02*
X232450000Y-194380000D01*
X232450000Y-192620000D02*
X233650000Y-192620000D01*
X233650000Y-192380000D02*
X232450000Y-192380000D01*
X232450000Y-190620000D02*
X233650000Y-190620000D01*
X253880000Y-219350000D02*
X253880000Y-220550000D01*
X252120000Y-220550000D02*
X252120000Y-219350000D01*
X250880000Y-219350000D02*
X250880000Y-220550000D01*
X249120000Y-220550000D02*
X249120000Y-219350000D01*
X224550000Y-206880000D02*
X223350000Y-206880000D01*
X223350000Y-205120000D02*
X224550000Y-205120000D01*
X224550000Y-209880000D02*
X223350000Y-209880000D01*
X223350000Y-208120000D02*
X224550000Y-208120000D01*
X256880000Y-219350000D02*
X256880000Y-220550000D01*
X255120000Y-220550000D02*
X255120000Y-219350000D01*
X196120000Y-181550000D02*
X196120000Y-180350000D01*
X197880000Y-180350000D02*
X197880000Y-181550000D01*
X202460000Y-215450000D02*
X202460000Y-216650000D01*
X200700000Y-216650000D02*
X200700000Y-215450000D01*
X202460000Y-211350000D02*
X202460000Y-212550000D01*
X200700000Y-212550000D02*
X200700000Y-211350000D01*
X217460000Y-215450000D02*
X217460000Y-216650000D01*
X215700000Y-216650000D02*
X215700000Y-215450000D01*
X217460000Y-211350000D02*
X217460000Y-212550000D01*
X215700000Y-212550000D02*
X215700000Y-211350000D01*
D17*
X218984000Y-174952000D02*
X218984000Y-179016000D01*
X218984000Y-179016000D02*
X221016000Y-179016000D01*
X221016000Y-179016000D02*
X221016000Y-174952000D01*
X221016000Y-174952000D02*
X218984000Y-174952000D01*
D18*
X199530000Y-175240000D02*
X198600000Y-175240000D01*
X196370000Y-175240000D02*
X197300000Y-175240000D01*
X196370000Y-175240000D02*
X196370000Y-177400000D01*
X199530000Y-175240000D02*
X199530000Y-176700000D01*
X188514098Y-185538234D02*
X188514098Y-184278234D01*
X188514098Y-178718234D02*
X188514098Y-179978234D01*
X184754098Y-185538234D02*
X188514098Y-185538234D01*
X182504098Y-178718234D02*
X188514098Y-178718234D01*
X176514098Y-185538234D02*
X176514098Y-184278234D01*
X176514098Y-178718234D02*
X176514098Y-179978234D01*
X172754098Y-185538234D02*
X176514098Y-185538234D01*
X170504098Y-178718234D02*
X176514098Y-178718234D01*
D10*
X90500000Y-166500000D02*
X90500000Y-213500000D01*
X159500000Y-213500000D02*
X159500000Y-166500000D01*
X159500000Y-163500000D02*
G75*
G02X162500000Y-166500000I0J-3000000D01*
G01*
X87500000Y-166500000D02*
G75*
G02X90500000Y-163500000I3000000J0D01*
G01*
X90500000Y-213500000D02*
X159500000Y-213500000D01*
X90500000Y-216500000D02*
G75*
G02X87500000Y-213500000I0J3000000D01*
G01*
X159500000Y-216500000D02*
X90500000Y-216500000D01*
X87500000Y-213500000D02*
X87500000Y-166500000D01*
X162500000Y-213500000D02*
G75*
G02X159500000Y-216500000I-3000000J0D01*
G01*
X159500000Y-166500000D02*
X90500000Y-166500000D01*
X162500000Y-166500000D02*
X162500000Y-213500000D01*
X90500000Y-163500000D02*
X159500000Y-163500000D01*
D17*
X220825000Y-165400000D02*
G75*
G03X220825000Y-165400000I-1125000J0D01*
G01*
X220725000Y-145400000D02*
G75*
G03X220725000Y-145400000I-1125000J0D01*
G01*
X254933000Y-169400000D02*
X259600000Y-164733000D01*
X221000000Y-169400000D02*
X254933000Y-169400000D01*
X216700000Y-165100000D02*
X221000000Y-169400000D01*
X216700000Y-145800000D02*
X216700000Y-165100000D01*
X219500000Y-143000000D02*
X216700000Y-145800000D01*
X259600000Y-143000000D02*
X219500000Y-143000000D01*
X259600000Y-164733000D02*
X259600000Y-143000000D01*
X211523659Y-186966441D02*
X211523659Y-187191441D01*
X218773659Y-186966441D02*
X218773659Y-187266441D01*
X218773659Y-194216441D02*
X218773659Y-193916441D01*
X211523659Y-194216441D02*
X211523659Y-193916441D01*
X211523659Y-186966441D02*
X211823659Y-186966441D01*
X211523659Y-194216441D02*
X211823659Y-194216441D01*
X218773659Y-194216441D02*
X218473659Y-194216441D01*
X218773659Y-186966441D02*
X218473659Y-186966441D01*
X211523659Y-187191441D02*
X210298659Y-187191441D01*
D18*
X246340000Y-137000000D02*
X246340000Y-138800000D01*
X249560000Y-138800000D02*
X249560000Y-136350000D01*
D17*
X175680000Y-191590000D02*
X170180000Y-191590000D01*
X175680000Y-216090000D02*
X175680000Y-191590000D01*
X170180000Y-216090000D02*
X175680000Y-216090000D01*
X170180000Y-191590000D02*
X170180000Y-216090000D01*
X190680000Y-191590000D02*
X185180000Y-191590000D01*
X190680000Y-216090000D02*
X190680000Y-191590000D01*
X185180000Y-216090000D02*
X190680000Y-216090000D01*
X185180000Y-191590000D02*
X185180000Y-216090000D01*
X232410000Y-176530000D02*
X232410000Y-173990000D01*
X234950000Y-176530000D02*
X227330000Y-176530000D01*
X227330000Y-176530000D02*
X227330000Y-173990000D01*
X227330000Y-173990000D02*
X234950000Y-173990000D01*
X234950000Y-173990000D02*
X234950000Y-176530000D01*
X247250000Y-208500000D02*
X256750000Y-208500000D01*
X247250000Y-213500000D02*
X256750000Y-213500000D01*
X247250000Y-208500000D02*
X247250000Y-213500000D01*
X256750000Y-208500000D02*
X256750000Y-213500000D01*
X247250000Y-209500000D02*
X247750000Y-209500000D01*
X247750000Y-209500000D02*
X247750000Y-212500000D01*
X247250000Y-212500000D02*
X247750000Y-212500000D01*
X247250000Y-196500000D02*
X256750000Y-196500000D01*
X247250000Y-201500000D02*
X256750000Y-201500000D01*
X247250000Y-196500000D02*
X247250000Y-201500000D01*
X256750000Y-196500000D02*
X256750000Y-201500000D01*
X247250000Y-197500000D02*
X247750000Y-197500000D01*
X247750000Y-197500000D02*
X247750000Y-200500000D01*
X247250000Y-200500000D02*
X247750000Y-200500000D01*
X247250000Y-184500000D02*
X256750000Y-184500000D01*
X247250000Y-189500000D02*
X256750000Y-189500000D01*
X247250000Y-184500000D02*
X247250000Y-189500000D01*
X256750000Y-184500000D02*
X256750000Y-189500000D01*
X247250000Y-185500000D02*
X247750000Y-185500000D01*
X247750000Y-185500000D02*
X247750000Y-188500000D01*
X247250000Y-188500000D02*
X247750000Y-188500000D01*
D18*
X243200000Y-195700000D02*
X237100000Y-195700000D01*
X243200000Y-194600000D02*
X243200000Y-195700000D01*
X237100000Y-190300000D02*
X242100000Y-190300000D01*
X181850000Y-170400000D02*
X186150000Y-170400000D01*
X186150000Y-170400000D02*
X186150000Y-164700000D01*
X181850000Y-170400000D02*
X181850000Y-164700000D01*
X167180000Y-169700000D02*
X167180000Y-164500000D01*
X170820000Y-164500000D02*
X170820000Y-169700000D01*
X177180000Y-169700000D02*
X177180000Y-164500000D01*
X180820000Y-164500000D02*
X180820000Y-169700000D01*
X172180000Y-169700000D02*
X172180000Y-164500000D01*
X175820000Y-164500000D02*
X175820000Y-169700000D01*
X252790000Y-176590000D02*
X252790000Y-173930000D01*
X240030000Y-176590000D02*
X252790000Y-176590000D01*
X240030000Y-173930000D02*
X252790000Y-173930000D01*
X240030000Y-176590000D02*
X240030000Y-173930000D01*
X238760000Y-176590000D02*
X237430000Y-176590000D01*
X237430000Y-176590000D02*
X237430000Y-175260000D01*
X239150000Y-206500000D02*
X239150000Y-207500000D01*
X240850000Y-207500000D02*
X240850000Y-206500000D01*
D17*
X230400000Y-210325000D02*
X234800000Y-210325000D01*
X228825000Y-204800000D02*
X234800000Y-204800000D01*
X196952000Y-132666000D02*
X196952000Y-125808000D01*
X192380000Y-132666000D02*
X196952000Y-132666000D01*
X202032000Y-132666000D02*
X202032000Y-125808000D01*
X197460000Y-132666000D02*
X202032000Y-132666000D01*
X192380000Y-139778000D02*
X192380000Y-125808000D01*
X197460000Y-139778000D02*
X197460000Y-125808000D01*
X189840000Y-125808000D02*
X189840000Y-139778000D01*
X202540000Y-125808000D02*
X189840000Y-125808000D01*
X202540000Y-139778000D02*
X202540000Y-125808000D01*
X202540000Y-139778000D02*
X189840000Y-139778000D01*
X236952000Y-132666000D02*
X236952000Y-125808000D01*
X232380000Y-132666000D02*
X236952000Y-132666000D01*
X242032000Y-132666000D02*
X242032000Y-125808000D01*
X237460000Y-132666000D02*
X242032000Y-132666000D01*
X232380000Y-139778000D02*
X232380000Y-125808000D01*
X237460000Y-139778000D02*
X237460000Y-125808000D01*
X229840000Y-125808000D02*
X229840000Y-139778000D01*
X242540000Y-125808000D02*
X229840000Y-125808000D01*
X242540000Y-139778000D02*
X242540000Y-125808000D01*
X242540000Y-139778000D02*
X229840000Y-139778000D01*
D10*
X112625000Y-222570000D02*
X112625000Y-232350000D01*
X117375000Y-222570000D02*
X112625000Y-222570000D01*
X117375000Y-232350000D02*
X112625000Y-232350000D01*
X115700000Y-224920000D02*
G75*
G03X115700000Y-224920000I-700000J0D01*
G01*
X115700000Y-230000000D02*
G75*
G03X115700000Y-230000000I-700000J0D01*
G01*
X117375000Y-222570000D02*
X117375000Y-232350000D01*
X132625000Y-222570000D02*
X132625000Y-232350000D01*
X137375000Y-222570000D02*
X132625000Y-222570000D01*
X137375000Y-232350000D02*
X132625000Y-232350000D01*
X135700000Y-224920000D02*
G75*
G03X135700000Y-224920000I-700000J0D01*
G01*
X135700000Y-230000000D02*
G75*
G03X135700000Y-230000000I-700000J0D01*
G01*
X137375000Y-222570000D02*
X137375000Y-232350000D01*
X152625000Y-222570000D02*
X152625000Y-232350000D01*
X157375000Y-222570000D02*
X152625000Y-222570000D01*
X157375000Y-232350000D02*
X152625000Y-232350000D01*
X155700000Y-224920000D02*
G75*
G03X155700000Y-224920000I-700000J0D01*
G01*
X155700000Y-230000000D02*
G75*
G03X155700000Y-230000000I-700000J0D01*
G01*
X157375000Y-222570000D02*
X157375000Y-232350000D01*
X102625000Y-222570000D02*
X102625000Y-232350000D01*
X107375000Y-222570000D02*
X102625000Y-222570000D01*
X107375000Y-232350000D02*
X102625000Y-232350000D01*
X105700000Y-224920000D02*
G75*
G03X105700000Y-224920000I-700000J0D01*
G01*
X105700000Y-230000000D02*
G75*
G03X105700000Y-230000000I-700000J0D01*
G01*
X107375000Y-222570000D02*
X107375000Y-232350000D01*
X122625000Y-222570000D02*
X122625000Y-232350000D01*
X127375000Y-222570000D02*
X122625000Y-222570000D01*
X127375000Y-232350000D02*
X122625000Y-232350000D01*
X125700000Y-224920000D02*
G75*
G03X125700000Y-224920000I-700000J0D01*
G01*
X125700000Y-230000000D02*
G75*
G03X125700000Y-230000000I-700000J0D01*
G01*
X127375000Y-222570000D02*
X127375000Y-232350000D01*
X142625000Y-222570000D02*
X142625000Y-232350000D01*
X147375000Y-222570000D02*
X142625000Y-222570000D01*
X147375000Y-232350000D02*
X142625000Y-232350000D01*
X145700000Y-224920000D02*
G75*
G03X145700000Y-224920000I-700000J0D01*
G01*
X145700000Y-230000000D02*
G75*
G03X145700000Y-230000000I-700000J0D01*
G01*
X147375000Y-222570000D02*
X147375000Y-232350000D01*
X102625000Y-127570000D02*
X102625000Y-137350000D01*
X107375000Y-127570000D02*
X102625000Y-127570000D01*
X107375000Y-137350000D02*
X102625000Y-137350000D01*
X105700000Y-129920000D02*
G75*
G03X105700000Y-129920000I-700000J0D01*
G01*
X105700000Y-135000000D02*
G75*
G03X105700000Y-135000000I-700000J0D01*
G01*
X107375000Y-127570000D02*
X107375000Y-137350000D01*
X122625000Y-127570000D02*
X122625000Y-137350000D01*
X127375000Y-127570000D02*
X122625000Y-127570000D01*
X127375000Y-137350000D02*
X122625000Y-137350000D01*
X125700000Y-129920000D02*
G75*
G03X125700000Y-129920000I-700000J0D01*
G01*
X125700000Y-135000000D02*
G75*
G03X125700000Y-135000000I-700000J0D01*
G01*
X127375000Y-127570000D02*
X127375000Y-137350000D01*
X142625000Y-127570000D02*
X142625000Y-137350000D01*
X147375000Y-127570000D02*
X142625000Y-127570000D01*
X147375000Y-137350000D02*
X142625000Y-137350000D01*
X145700000Y-129920000D02*
G75*
G03X145700000Y-129920000I-700000J0D01*
G01*
X145700000Y-135000000D02*
G75*
G03X145700000Y-135000000I-700000J0D01*
G01*
X147375000Y-127570000D02*
X147375000Y-137350000D01*
X112625000Y-127570000D02*
X112625000Y-137350000D01*
X117375000Y-127570000D02*
X112625000Y-127570000D01*
X117375000Y-137350000D02*
X112625000Y-137350000D01*
X115700000Y-129920000D02*
G75*
G03X115700000Y-129920000I-700000J0D01*
G01*
X115700000Y-135000000D02*
G75*
G03X115700000Y-135000000I-700000J0D01*
G01*
X117375000Y-127570000D02*
X117375000Y-137350000D01*
X132625000Y-127570000D02*
X132625000Y-137350000D01*
X137375000Y-127570000D02*
X132625000Y-127570000D01*
X137375000Y-137350000D02*
X132625000Y-137350000D01*
X135700000Y-129920000D02*
G75*
G03X135700000Y-129920000I-700000J0D01*
G01*
X135700000Y-135000000D02*
G75*
G03X135700000Y-135000000I-700000J0D01*
G01*
X137375000Y-127570000D02*
X137375000Y-137350000D01*
X152625000Y-127570000D02*
X152625000Y-137350000D01*
X157375000Y-127570000D02*
X152625000Y-127570000D01*
X157375000Y-137350000D02*
X152625000Y-137350000D01*
X155700000Y-129920000D02*
G75*
G03X155700000Y-129920000I-700000J0D01*
G01*
X155700000Y-135000000D02*
G75*
G03X155700000Y-135000000I-700000J0D01*
G01*
X157375000Y-127570000D02*
X157375000Y-137350000D01*
X171375000Y-138350000D02*
X171375000Y-128570000D01*
X166625000Y-138350000D02*
X171375000Y-138350000D01*
X166625000Y-128570000D02*
X171375000Y-128570000D01*
X169700000Y-136000000D02*
G75*
G03X169700000Y-136000000I-700000J0D01*
G01*
X169700000Y-130920000D02*
G75*
G03X169700000Y-130920000I-700000J0D01*
G01*
X166625000Y-138350000D02*
X166625000Y-128570000D01*
X199350000Y-151500000D02*
X199350000Y-152500000D01*
X197350000Y-152500000D02*
X198350000Y-152500000D01*
X197350000Y-153500000D02*
X198350000Y-153500000D01*
X198350000Y-154500000D02*
X199350000Y-154500000D01*
X198350000Y-151500000D02*
X198350000Y-152500000D01*
X197350000Y-152500000D02*
X197350000Y-153500000D01*
X200350000Y-152500000D02*
X200350000Y-153500000D01*
X199350000Y-153500000D02*
X200350000Y-153500000D01*
X199350000Y-153500000D02*
X199350000Y-154500000D01*
X198350000Y-153500000D02*
X198350000Y-154500000D01*
X198350000Y-151500000D02*
X199350000Y-151500000D01*
X214750000Y-153000000D02*
G75*
G03X214750000Y-153000000I-10250000J0D01*
G01*
X199350000Y-152500000D02*
X200350000Y-152500000D01*
D19*
G36*
X197219909Y-200909560D02*
X197272412Y-200935499D01*
X197337158Y-200980700D01*
X197384347Y-201029991D01*
X197416665Y-201091885D01*
X197436797Y-201174896D01*
X197447430Y-201287538D01*
X197451247Y-201438324D01*
X197451470Y-201503149D01*
X197450818Y-201645221D01*
X197448112Y-201746757D01*
X197442224Y-201817015D01*
X197432027Y-201865256D01*
X197416394Y-201900738D01*
X197400128Y-201924943D01*
X197296295Y-202027929D01*
X197174021Y-202089874D01*
X197042114Y-202108506D01*
X196909384Y-202081549D01*
X196867333Y-202062486D01*
X196766666Y-202010015D01*
X196766666Y-202832259D01*
X196840135Y-202794267D01*
X196936941Y-202764872D01*
X197055928Y-202757342D01*
X197174745Y-202771245D01*
X197264473Y-202802476D01*
X197338899Y-202861954D01*
X197402490Y-202947066D01*
X197407271Y-202955805D01*
X197427437Y-202996966D01*
X197442165Y-203038454D01*
X197452303Y-203088713D01*
X197458699Y-203156184D01*
X197462201Y-203249309D01*
X197463658Y-203376531D01*
X197463921Y-203519701D01*
X197463921Y-203976471D01*
X197190000Y-203976471D01*
X197190000Y-203134231D01*
X197113383Y-203069763D01*
X197033793Y-203018194D01*
X196958422Y-203008818D01*
X196882633Y-203032947D01*
X196842241Y-203056574D01*
X196812179Y-203090227D01*
X196790797Y-203141087D01*
X196776450Y-203216334D01*
X196767490Y-203323146D01*
X196762270Y-203468704D01*
X196760431Y-203565588D01*
X196754215Y-203964020D01*
X196623480Y-203971547D01*
X196492745Y-203979073D01*
X196492745Y-201506582D01*
X196766666Y-201506582D01*
X196773650Y-201644423D01*
X196797182Y-201740107D01*
X196841135Y-201799641D01*
X196909382Y-201829029D01*
X196978333Y-201834902D01*
X197056386Y-201828154D01*
X197108189Y-201801594D01*
X197140583Y-201766499D01*
X197166084Y-201728752D01*
X197181265Y-201686700D01*
X197188019Y-201627779D01*
X197188241Y-201539428D01*
X197185968Y-201465448D01*
X197180749Y-201354000D01*
X197172979Y-201280833D01*
X197159895Y-201234422D01*
X197138732Y-201203244D01*
X197118760Y-201185223D01*
X197035314Y-201145925D01*
X196936551Y-201139579D01*
X196879841Y-201153116D01*
X196823692Y-201201233D01*
X196786499Y-201294833D01*
X196768472Y-201433254D01*
X196766666Y-201506582D01*
X196492745Y-201506582D01*
X196492745Y-200888628D01*
X196629705Y-200888628D01*
X196711935Y-200891879D01*
X196754360Y-200903426D01*
X196766661Y-200925952D01*
X196766666Y-200926620D01*
X196772374Y-200948681D01*
X196797547Y-200946176D01*
X196847598Y-200921935D01*
X196964219Y-200884851D01*
X197095429Y-200880953D01*
X197219909Y-200909560D01*
X197219909Y-200909560D01*
G37*
X197219909Y-200909560D02*
X197272412Y-200935499D01*
X197337158Y-200980700D01*
X197384347Y-201029991D01*
X197416665Y-201091885D01*
X197436797Y-201174896D01*
X197447430Y-201287538D01*
X197451247Y-201438324D01*
X197451470Y-201503149D01*
X197450818Y-201645221D01*
X197448112Y-201746757D01*
X197442224Y-201817015D01*
X197432027Y-201865256D01*
X197416394Y-201900738D01*
X197400128Y-201924943D01*
X197296295Y-202027929D01*
X197174021Y-202089874D01*
X197042114Y-202108506D01*
X196909384Y-202081549D01*
X196867333Y-202062486D01*
X196766666Y-202010015D01*
X196766666Y-202832259D01*
X196840135Y-202794267D01*
X196936941Y-202764872D01*
X197055928Y-202757342D01*
X197174745Y-202771245D01*
X197264473Y-202802476D01*
X197338899Y-202861954D01*
X197402490Y-202947066D01*
X197407271Y-202955805D01*
X197427437Y-202996966D01*
X197442165Y-203038454D01*
X197452303Y-203088713D01*
X197458699Y-203156184D01*
X197462201Y-203249309D01*
X197463658Y-203376531D01*
X197463921Y-203519701D01*
X197463921Y-203976471D01*
X197190000Y-203976471D01*
X197190000Y-203134231D01*
X197113383Y-203069763D01*
X197033793Y-203018194D01*
X196958422Y-203008818D01*
X196882633Y-203032947D01*
X196842241Y-203056574D01*
X196812179Y-203090227D01*
X196790797Y-203141087D01*
X196776450Y-203216334D01*
X196767490Y-203323146D01*
X196762270Y-203468704D01*
X196760431Y-203565588D01*
X196754215Y-203964020D01*
X196623480Y-203971547D01*
X196492745Y-203979073D01*
X196492745Y-201506582D01*
X196766666Y-201506582D01*
X196773650Y-201644423D01*
X196797182Y-201740107D01*
X196841135Y-201799641D01*
X196909382Y-201829029D01*
X196978333Y-201834902D01*
X197056386Y-201828154D01*
X197108189Y-201801594D01*
X197140583Y-201766499D01*
X197166084Y-201728752D01*
X197181265Y-201686700D01*
X197188019Y-201627779D01*
X197188241Y-201539428D01*
X197185968Y-201465448D01*
X197180749Y-201354000D01*
X197172979Y-201280833D01*
X197159895Y-201234422D01*
X197138732Y-201203244D01*
X197118760Y-201185223D01*
X197035314Y-201145925D01*
X196936551Y-201139579D01*
X196879841Y-201153116D01*
X196823692Y-201201233D01*
X196786499Y-201294833D01*
X196768472Y-201433254D01*
X196766666Y-201506582D01*
X196492745Y-201506582D01*
X196492745Y-200888628D01*
X196629705Y-200888628D01*
X196711935Y-200891879D01*
X196754360Y-200903426D01*
X196766661Y-200925952D01*
X196766666Y-200926620D01*
X196772374Y-200948681D01*
X196797547Y-200946176D01*
X196847598Y-200921935D01*
X196964219Y-200884851D01*
X197095429Y-200880953D01*
X197219909Y-200909560D01*
G36*
X198258720Y-202765922D02*
X198375870Y-202797180D01*
X198465051Y-202853837D01*
X198527984Y-202928045D01*
X198547548Y-202959716D01*
X198561992Y-202992891D01*
X198572089Y-203035329D01*
X198578615Y-203094788D01*
X198582342Y-203179029D01*
X198584046Y-203295810D01*
X198584500Y-203452890D01*
X198584509Y-203494565D01*
X198584509Y-203976471D01*
X198464980Y-203976471D01*
X198388739Y-203971131D01*
X198332366Y-203957604D01*
X198318242Y-203949262D01*
X198279630Y-203934864D01*
X198240192Y-203949262D01*
X198175262Y-203967237D01*
X198080945Y-203974472D01*
X197976407Y-203971333D01*
X197880811Y-203958186D01*
X197825000Y-203941318D01*
X197716998Y-203871986D01*
X197649503Y-203775772D01*
X197619159Y-203647844D01*
X197618877Y-203644559D01*
X197621540Y-203587808D01*
X197862353Y-203587808D01*
X197883405Y-203652358D01*
X197917697Y-203688686D01*
X197986532Y-203716162D01*
X198077390Y-203727129D01*
X198170042Y-203721731D01*
X198244256Y-203700110D01*
X198265049Y-203686239D01*
X198301381Y-203622143D01*
X198310588Y-203549278D01*
X198310588Y-203453530D01*
X198172827Y-203453530D01*
X198041953Y-203463605D01*
X197942741Y-203492148D01*
X197881023Y-203536639D01*
X197862353Y-203587808D01*
X197621540Y-203587808D01*
X197625436Y-203504790D01*
X197671534Y-203394282D01*
X197758200Y-203310712D01*
X197770179Y-203303110D01*
X197821655Y-203278357D01*
X197885368Y-203263368D01*
X197974435Y-203256082D01*
X198080245Y-203254407D01*
X198310588Y-203254314D01*
X198310588Y-203157755D01*
X198300817Y-203082836D01*
X198275884Y-203032644D01*
X198272965Y-203029972D01*
X198217481Y-203008015D01*
X198133727Y-202999505D01*
X198041167Y-203003687D01*
X197959270Y-203019809D01*
X197910673Y-203043990D01*
X197884341Y-203063359D01*
X197856535Y-203067057D01*
X197818161Y-203051188D01*
X197760125Y-203011855D01*
X197673331Y-202945164D01*
X197665365Y-202938916D01*
X197669447Y-202915800D01*
X197703501Y-202877352D01*
X197755260Y-202834627D01*
X197812455Y-202798679D01*
X197830425Y-202790191D01*
X197895972Y-202773252D01*
X197992020Y-202761170D01*
X198099329Y-202756323D01*
X198104347Y-202756313D01*
X198258720Y-202765922D01*
X198258720Y-202765922D01*
G37*
X198258720Y-202765922D02*
X198375870Y-202797180D01*
X198465051Y-202853837D01*
X198527984Y-202928045D01*
X198547548Y-202959716D01*
X198561992Y-202992891D01*
X198572089Y-203035329D01*
X198578615Y-203094788D01*
X198582342Y-203179029D01*
X198584046Y-203295810D01*
X198584500Y-203452890D01*
X198584509Y-203494565D01*
X198584509Y-203976471D01*
X198464980Y-203976471D01*
X198388739Y-203971131D01*
X198332366Y-203957604D01*
X198318242Y-203949262D01*
X198279630Y-203934864D01*
X198240192Y-203949262D01*
X198175262Y-203967237D01*
X198080945Y-203974472D01*
X197976407Y-203971333D01*
X197880811Y-203958186D01*
X197825000Y-203941318D01*
X197716998Y-203871986D01*
X197649503Y-203775772D01*
X197619159Y-203647844D01*
X197618877Y-203644559D01*
X197621540Y-203587808D01*
X197862353Y-203587808D01*
X197883405Y-203652358D01*
X197917697Y-203688686D01*
X197986532Y-203716162D01*
X198077390Y-203727129D01*
X198170042Y-203721731D01*
X198244256Y-203700110D01*
X198265049Y-203686239D01*
X198301381Y-203622143D01*
X198310588Y-203549278D01*
X198310588Y-203453530D01*
X198172827Y-203453530D01*
X198041953Y-203463605D01*
X197942741Y-203492148D01*
X197881023Y-203536639D01*
X197862353Y-203587808D01*
X197621540Y-203587808D01*
X197625436Y-203504790D01*
X197671534Y-203394282D01*
X197758200Y-203310712D01*
X197770179Y-203303110D01*
X197821655Y-203278357D01*
X197885368Y-203263368D01*
X197974435Y-203256082D01*
X198080245Y-203254407D01*
X198310588Y-203254314D01*
X198310588Y-203157755D01*
X198300817Y-203082836D01*
X198275884Y-203032644D01*
X198272965Y-203029972D01*
X198217481Y-203008015D01*
X198133727Y-202999505D01*
X198041167Y-203003687D01*
X197959270Y-203019809D01*
X197910673Y-203043990D01*
X197884341Y-203063359D01*
X197856535Y-203067057D01*
X197818161Y-203051188D01*
X197760125Y-203011855D01*
X197673331Y-202945164D01*
X197665365Y-202938916D01*
X197669447Y-202915800D01*
X197703501Y-202877352D01*
X197755260Y-202834627D01*
X197812455Y-202798679D01*
X197830425Y-202790191D01*
X197895972Y-202773252D01*
X197992020Y-202761170D01*
X198099329Y-202756323D01*
X198104347Y-202756313D01*
X198258720Y-202765922D01*
G36*
X199032764Y-202758921D02*
X199070030Y-202770091D01*
X199082043Y-202794633D01*
X199082549Y-202805712D01*
X199084704Y-202836572D01*
X199099551Y-202841417D01*
X199139657Y-202820260D01*
X199163480Y-202805806D01*
X199238638Y-202774850D01*
X199328406Y-202759544D01*
X199422529Y-202758367D01*
X199510754Y-202769799D01*
X199582826Y-202792320D01*
X199628492Y-202824409D01*
X199637498Y-202864545D01*
X199632953Y-202875415D01*
X199599821Y-202920534D01*
X199548445Y-202976026D01*
X199539152Y-202984996D01*
X199490182Y-203026245D01*
X199447931Y-203039572D01*
X199388841Y-203030271D01*
X199365169Y-203024090D01*
X199291504Y-203009246D01*
X199239710Y-203015921D01*
X199195969Y-203039465D01*
X199155902Y-203071061D01*
X199126392Y-203110798D01*
X199105884Y-203166252D01*
X199092824Y-203245003D01*
X199085656Y-203354629D01*
X199082824Y-203502706D01*
X199082549Y-203592111D01*
X199082549Y-203976471D01*
X198833529Y-203976471D01*
X198833529Y-202756275D01*
X198958039Y-202756275D01*
X199032764Y-202758921D01*
X199032764Y-202758921D01*
G37*
X199032764Y-202758921D02*
X199070030Y-202770091D01*
X199082043Y-202794633D01*
X199082549Y-202805712D01*
X199084704Y-202836572D01*
X199099551Y-202841417D01*
X199139657Y-202820260D01*
X199163480Y-202805806D01*
X199238638Y-202774850D01*
X199328406Y-202759544D01*
X199422529Y-202758367D01*
X199510754Y-202769799D01*
X199582826Y-202792320D01*
X199628492Y-202824409D01*
X199637498Y-202864545D01*
X199632953Y-202875415D01*
X199599821Y-202920534D01*
X199548445Y-202976026D01*
X199539152Y-202984996D01*
X199490182Y-203026245D01*
X199447931Y-203039572D01*
X199388841Y-203030271D01*
X199365169Y-203024090D01*
X199291504Y-203009246D01*
X199239710Y-203015921D01*
X199195969Y-203039465D01*
X199155902Y-203071061D01*
X199126392Y-203110798D01*
X199105884Y-203166252D01*
X199092824Y-203245003D01*
X199085656Y-203354629D01*
X199082824Y-203502706D01*
X199082549Y-203592111D01*
X199082549Y-203976471D01*
X198833529Y-203976471D01*
X198833529Y-202756275D01*
X198958039Y-202756275D01*
X199032764Y-202758921D01*
G36*
X200601568Y-203976471D02*
X200464607Y-203976471D01*
X200385111Y-203974140D01*
X200343708Y-203964488D01*
X200328801Y-203943525D01*
X200327647Y-203929351D01*
X200325133Y-203900927D01*
X200309280Y-203895475D01*
X200267621Y-203912998D01*
X200235224Y-203929351D01*
X200110849Y-203968103D01*
X199975646Y-203970346D01*
X199865726Y-203941444D01*
X199763366Y-203871619D01*
X199685340Y-203768555D01*
X199642614Y-203646989D01*
X199641526Y-203640192D01*
X199635178Y-203566032D01*
X199632021Y-203459570D01*
X199632275Y-203379052D01*
X199904289Y-203379052D01*
X199910590Y-203486070D01*
X199924925Y-203574278D01*
X199944331Y-203624090D01*
X200017746Y-203692162D01*
X200104914Y-203716564D01*
X200194804Y-203696831D01*
X200271617Y-203637968D01*
X200300708Y-203598379D01*
X200317717Y-203551138D01*
X200325684Y-203482181D01*
X200327647Y-203378607D01*
X200324134Y-203276039D01*
X200314857Y-203185921D01*
X200301706Y-203125613D01*
X200299514Y-203120208D01*
X200246478Y-203055940D01*
X200169067Y-203020656D01*
X200082454Y-203014959D01*
X200001807Y-203039453D01*
X199942297Y-203094742D01*
X199936124Y-203105743D01*
X199916801Y-203172827D01*
X199906274Y-203269284D01*
X199904289Y-203379052D01*
X199632275Y-203379052D01*
X199632404Y-203338225D01*
X199634194Y-203272918D01*
X199646373Y-203111355D01*
X199671685Y-202990053D01*
X199713793Y-202900379D01*
X199776359Y-202833699D01*
X199837100Y-202794557D01*
X199921964Y-202767040D01*
X200027515Y-202757603D01*
X200135598Y-202765290D01*
X200228058Y-202789146D01*
X200276910Y-202817685D01*
X200327647Y-202863601D01*
X200327647Y-202283137D01*
X200601568Y-202283137D01*
X200601568Y-203976471D01*
X200601568Y-203976471D01*
G37*
X200601568Y-203976471D02*
X200464607Y-203976471D01*
X200385111Y-203974140D01*
X200343708Y-203964488D01*
X200328801Y-203943525D01*
X200327647Y-203929351D01*
X200325133Y-203900927D01*
X200309280Y-203895475D01*
X200267621Y-203912998D01*
X200235224Y-203929351D01*
X200110849Y-203968103D01*
X199975646Y-203970346D01*
X199865726Y-203941444D01*
X199763366Y-203871619D01*
X199685340Y-203768555D01*
X199642614Y-203646989D01*
X199641526Y-203640192D01*
X199635178Y-203566032D01*
X199632021Y-203459570D01*
X199632275Y-203379052D01*
X199904289Y-203379052D01*
X199910590Y-203486070D01*
X199924925Y-203574278D01*
X199944331Y-203624090D01*
X200017746Y-203692162D01*
X200104914Y-203716564D01*
X200194804Y-203696831D01*
X200271617Y-203637968D01*
X200300708Y-203598379D01*
X200317717Y-203551138D01*
X200325684Y-203482181D01*
X200327647Y-203378607D01*
X200324134Y-203276039D01*
X200314857Y-203185921D01*
X200301706Y-203125613D01*
X200299514Y-203120208D01*
X200246478Y-203055940D01*
X200169067Y-203020656D01*
X200082454Y-203014959D01*
X200001807Y-203039453D01*
X199942297Y-203094742D01*
X199936124Y-203105743D01*
X199916801Y-203172827D01*
X199906274Y-203269284D01*
X199904289Y-203379052D01*
X199632275Y-203379052D01*
X199632404Y-203338225D01*
X199634194Y-203272918D01*
X199646373Y-203111355D01*
X199671685Y-202990053D01*
X199713793Y-202900379D01*
X199776359Y-202833699D01*
X199837100Y-202794557D01*
X199921964Y-202767040D01*
X200027515Y-202757603D01*
X200135598Y-202765290D01*
X200228058Y-202789146D01*
X200276910Y-202817685D01*
X200327647Y-202863601D01*
X200327647Y-202283137D01*
X200601568Y-202283137D01*
X200601568Y-203976471D01*
G36*
X201557528Y-202761332D02*
X201656014Y-202768726D01*
X201784776Y-203154706D01*
X201913537Y-203540686D01*
X201953911Y-203403726D01*
X201978207Y-203319083D01*
X202010167Y-203204697D01*
X202044679Y-203078963D01*
X202062928Y-203011520D01*
X202131571Y-202756275D01*
X202414773Y-202756275D01*
X202330122Y-203023971D01*
X202288435Y-203155638D01*
X202238074Y-203314458D01*
X202185481Y-203480128D01*
X202138530Y-203627843D01*
X202031589Y-203964020D01*
X201800661Y-203979044D01*
X201738050Y-203772316D01*
X201699438Y-203643896D01*
X201657300Y-203502322D01*
X201620472Y-203377285D01*
X201619018Y-203372309D01*
X201591511Y-203287586D01*
X201567242Y-203229778D01*
X201550243Y-203207918D01*
X201546750Y-203210446D01*
X201534490Y-203244336D01*
X201511195Y-203316930D01*
X201479700Y-203419101D01*
X201442842Y-203541720D01*
X201422899Y-203609167D01*
X201314895Y-203976471D01*
X201085679Y-203976471D01*
X200902439Y-203397500D01*
X200850963Y-203235091D01*
X200804070Y-203087602D01*
X200763977Y-202961960D01*
X200732897Y-202865095D01*
X200713045Y-202803934D01*
X200707011Y-202786065D01*
X200711788Y-202767768D01*
X200749297Y-202759755D01*
X200827355Y-202760557D01*
X200839574Y-202761163D01*
X200984326Y-202768726D01*
X201079130Y-203117353D01*
X201113977Y-203244497D01*
X201145117Y-203356265D01*
X201169809Y-203442953D01*
X201185312Y-203494856D01*
X201188176Y-203503318D01*
X201200046Y-203493587D01*
X201223983Y-203443172D01*
X201257239Y-203358935D01*
X201297064Y-203247741D01*
X201330730Y-203147297D01*
X201459041Y-202753939D01*
X201557528Y-202761332D01*
X201557528Y-202761332D01*
G37*
X201557528Y-202761332D02*
X201656014Y-202768726D01*
X201784776Y-203154706D01*
X201913537Y-203540686D01*
X201953911Y-203403726D01*
X201978207Y-203319083D01*
X202010167Y-203204697D01*
X202044679Y-203078963D01*
X202062928Y-203011520D01*
X202131571Y-202756275D01*
X202414773Y-202756275D01*
X202330122Y-203023971D01*
X202288435Y-203155638D01*
X202238074Y-203314458D01*
X202185481Y-203480128D01*
X202138530Y-203627843D01*
X202031589Y-203964020D01*
X201800661Y-203979044D01*
X201738050Y-203772316D01*
X201699438Y-203643896D01*
X201657300Y-203502322D01*
X201620472Y-203377285D01*
X201619018Y-203372309D01*
X201591511Y-203287586D01*
X201567242Y-203229778D01*
X201550243Y-203207918D01*
X201546750Y-203210446D01*
X201534490Y-203244336D01*
X201511195Y-203316930D01*
X201479700Y-203419101D01*
X201442842Y-203541720D01*
X201422899Y-203609167D01*
X201314895Y-203976471D01*
X201085679Y-203976471D01*
X200902439Y-203397500D01*
X200850963Y-203235091D01*
X200804070Y-203087602D01*
X200763977Y-202961960D01*
X200732897Y-202865095D01*
X200713045Y-202803934D01*
X200707011Y-202786065D01*
X200711788Y-202767768D01*
X200749297Y-202759755D01*
X200827355Y-202760557D01*
X200839574Y-202761163D01*
X200984326Y-202768726D01*
X201079130Y-203117353D01*
X201113977Y-203244497D01*
X201145117Y-203356265D01*
X201169809Y-203442953D01*
X201185312Y-203494856D01*
X201188176Y-203503318D01*
X201200046Y-203493587D01*
X201223983Y-203443172D01*
X201257239Y-203358935D01*
X201297064Y-203247741D01*
X201330730Y-203147297D01*
X201459041Y-202753939D01*
X201557528Y-202761332D01*
G36*
X203056459Y-202763669D02*
X203161420Y-202789163D01*
X203191761Y-202802669D01*
X203250573Y-202838046D01*
X203295709Y-202877890D01*
X203329106Y-202929120D01*
X203352701Y-202998654D01*
X203368433Y-203093409D01*
X203378239Y-203220305D01*
X203384057Y-203386258D01*
X203386266Y-203497108D01*
X203394396Y-203976471D01*
X203255531Y-203976471D01*
X203171287Y-203972938D01*
X203127884Y-203960866D01*
X203116666Y-203940594D01*
X203110744Y-203918674D01*
X203084266Y-203922865D01*
X203048186Y-203940441D01*
X202957862Y-203967382D01*
X202841777Y-203974642D01*
X202719680Y-203962767D01*
X202611321Y-203932305D01*
X202601602Y-203928077D01*
X202502568Y-203858505D01*
X202437281Y-203761789D01*
X202407240Y-203648738D01*
X202409535Y-203608122D01*
X202654633Y-203608122D01*
X202676229Y-203662782D01*
X202740259Y-203701952D01*
X202843565Y-203722974D01*
X202898774Y-203725766D01*
X202990782Y-203718620D01*
X203051941Y-203690848D01*
X203066862Y-203677647D01*
X203107287Y-203605829D01*
X203116666Y-203540686D01*
X203116666Y-203453530D01*
X202995269Y-203453530D01*
X202854153Y-203460722D01*
X202755173Y-203483345D01*
X202692633Y-203522964D01*
X202678631Y-203540628D01*
X202654633Y-203608122D01*
X202409535Y-203608122D01*
X202413941Y-203530157D01*
X202458880Y-203416855D01*
X202520196Y-203340285D01*
X202557332Y-203307181D01*
X202593687Y-203285425D01*
X202640990Y-203272161D01*
X202710973Y-203264528D01*
X202815364Y-203259670D01*
X202856770Y-203258273D01*
X203116666Y-203249780D01*
X203116285Y-203171116D01*
X203106219Y-203088428D01*
X203069829Y-203038431D01*
X202996311Y-203006489D01*
X202994339Y-203005920D01*
X202890105Y-202993361D01*
X202788108Y-203009766D01*
X202712305Y-203049657D01*
X202681890Y-203069354D01*
X202649132Y-203066629D01*
X202598721Y-203038091D01*
X202569119Y-203017950D01*
X202511218Y-202974919D01*
X202475352Y-202942662D01*
X202469597Y-202933427D01*
X202493295Y-202885636D01*
X202563313Y-202828562D01*
X202593725Y-202809305D01*
X202681155Y-202776140D01*
X202798983Y-202757350D01*
X202929866Y-202753129D01*
X203056459Y-202763669D01*
X203056459Y-202763669D01*
G37*
X203056459Y-202763669D02*
X203161420Y-202789163D01*
X203191761Y-202802669D01*
X203250573Y-202838046D01*
X203295709Y-202877890D01*
X203329106Y-202929120D01*
X203352701Y-202998654D01*
X203368433Y-203093409D01*
X203378239Y-203220305D01*
X203384057Y-203386258D01*
X203386266Y-203497108D01*
X203394396Y-203976471D01*
X203255531Y-203976471D01*
X203171287Y-203972938D01*
X203127884Y-203960866D01*
X203116666Y-203940594D01*
X203110744Y-203918674D01*
X203084266Y-203922865D01*
X203048186Y-203940441D01*
X202957862Y-203967382D01*
X202841777Y-203974642D01*
X202719680Y-203962767D01*
X202611321Y-203932305D01*
X202601602Y-203928077D01*
X202502568Y-203858505D01*
X202437281Y-203761789D01*
X202407240Y-203648738D01*
X202409535Y-203608122D01*
X202654633Y-203608122D01*
X202676229Y-203662782D01*
X202740259Y-203701952D01*
X202843565Y-203722974D01*
X202898774Y-203725766D01*
X202990782Y-203718620D01*
X203051941Y-203690848D01*
X203066862Y-203677647D01*
X203107287Y-203605829D01*
X203116666Y-203540686D01*
X203116666Y-203453530D01*
X202995269Y-203453530D01*
X202854153Y-203460722D01*
X202755173Y-203483345D01*
X202692633Y-203522964D01*
X202678631Y-203540628D01*
X202654633Y-203608122D01*
X202409535Y-203608122D01*
X202413941Y-203530157D01*
X202458880Y-203416855D01*
X202520196Y-203340285D01*
X202557332Y-203307181D01*
X202593687Y-203285425D01*
X202640990Y-203272161D01*
X202710973Y-203264528D01*
X202815364Y-203259670D01*
X202856770Y-203258273D01*
X203116666Y-203249780D01*
X203116285Y-203171116D01*
X203106219Y-203088428D01*
X203069829Y-203038431D01*
X202996311Y-203006489D01*
X202994339Y-203005920D01*
X202890105Y-202993361D01*
X202788108Y-203009766D01*
X202712305Y-203049657D01*
X202681890Y-203069354D01*
X202649132Y-203066629D01*
X202598721Y-203038091D01*
X202569119Y-203017950D01*
X202511218Y-202974919D01*
X202475352Y-202942662D01*
X202469597Y-202933427D01*
X202493295Y-202885636D01*
X202563313Y-202828562D01*
X202593725Y-202809305D01*
X202681155Y-202776140D01*
X202798983Y-202757350D01*
X202929866Y-202753129D01*
X203056459Y-202763669D01*
G36*
X204238446Y-202755883D02*
X204334177Y-202774755D01*
X204388677Y-202802699D01*
X204446008Y-202849123D01*
X204364441Y-202952111D01*
X204314150Y-203014479D01*
X204280001Y-203044907D01*
X204246063Y-203049555D01*
X204196406Y-203034586D01*
X204173096Y-203026117D01*
X204078063Y-203013622D01*
X203991032Y-203040406D01*
X203927138Y-203100915D01*
X203916759Y-203120208D01*
X203905456Y-203171314D01*
X203896732Y-203265500D01*
X203890997Y-203396089D01*
X203888660Y-203556405D01*
X203888627Y-203579211D01*
X203888627Y-203976471D01*
X203614705Y-203976471D01*
X203614705Y-202756275D01*
X203751666Y-202756275D01*
X203830638Y-202758337D01*
X203871779Y-202767513D01*
X203886992Y-202788290D01*
X203888627Y-202807886D01*
X203888627Y-202859497D01*
X203954240Y-202807886D01*
X204029475Y-202772675D01*
X204130544Y-202755265D01*
X204238446Y-202755883D01*
X204238446Y-202755883D01*
G37*
X204238446Y-202755883D02*
X204334177Y-202774755D01*
X204388677Y-202802699D01*
X204446008Y-202849123D01*
X204364441Y-202952111D01*
X204314150Y-203014479D01*
X204280001Y-203044907D01*
X204246063Y-203049555D01*
X204196406Y-203034586D01*
X204173096Y-203026117D01*
X204078063Y-203013622D01*
X203991032Y-203040406D01*
X203927138Y-203100915D01*
X203916759Y-203120208D01*
X203905456Y-203171314D01*
X203896732Y-203265500D01*
X203890997Y-203396089D01*
X203888660Y-203556405D01*
X203888627Y-203579211D01*
X203888627Y-203976471D01*
X203614705Y-203976471D01*
X203614705Y-202756275D01*
X203751666Y-202756275D01*
X203830638Y-202758337D01*
X203871779Y-202767513D01*
X203886992Y-202788290D01*
X203888627Y-202807886D01*
X203888627Y-202859497D01*
X203954240Y-202807886D01*
X204029475Y-202772675D01*
X204130544Y-202755265D01*
X204238446Y-202755883D01*
G36*
X205025307Y-202762784D02*
X205144337Y-202793731D01*
X205244021Y-202857600D01*
X205292288Y-202905313D01*
X205371408Y-203018106D01*
X205416752Y-203148950D01*
X205432330Y-203309792D01*
X205432410Y-203322794D01*
X205432549Y-203453530D01*
X204680091Y-203453530D01*
X204696130Y-203522010D01*
X204725091Y-203584031D01*
X204775778Y-203648654D01*
X204786379Y-203658971D01*
X204877494Y-203714805D01*
X204981400Y-203724275D01*
X205101000Y-203687540D01*
X205121274Y-203677647D01*
X205183456Y-203647574D01*
X205225106Y-203630440D01*
X205232373Y-203628855D01*
X205257740Y-203644242D01*
X205306120Y-203681887D01*
X205330679Y-203702459D01*
X205381570Y-203749714D01*
X205398281Y-203780917D01*
X205386683Y-203809620D01*
X205380483Y-203817468D01*
X205338493Y-203851819D01*
X205269206Y-203893565D01*
X205220882Y-203917935D01*
X205083711Y-203960873D01*
X204931847Y-203974786D01*
X204788024Y-203958300D01*
X204747745Y-203946496D01*
X204623078Y-203879689D01*
X204530671Y-203776892D01*
X204469990Y-203637105D01*
X204440498Y-203459330D01*
X204437260Y-203366373D01*
X204446714Y-203231033D01*
X204685490Y-203231033D01*
X204708584Y-203241038D01*
X204770662Y-203248888D01*
X204860914Y-203253521D01*
X204922058Y-203254314D01*
X205032040Y-203253549D01*
X205101457Y-203249970D01*
X205139538Y-203241649D01*
X205155515Y-203226657D01*
X205158627Y-203204903D01*
X205137278Y-203137892D01*
X205083529Y-203071664D01*
X205012822Y-203020832D01*
X204942089Y-203000038D01*
X204846016Y-203018484D01*
X204762849Y-203071811D01*
X204705186Y-203148677D01*
X204685490Y-203231033D01*
X204446714Y-203231033D01*
X204451028Y-203169291D01*
X204493520Y-203012271D01*
X204565635Y-202894069D01*
X204668273Y-202813440D01*
X204802332Y-202769139D01*
X204874957Y-202760607D01*
X205025307Y-202762784D01*
X205025307Y-202762784D01*
G37*
X205025307Y-202762784D02*
X205144337Y-202793731D01*
X205244021Y-202857600D01*
X205292288Y-202905313D01*
X205371408Y-203018106D01*
X205416752Y-203148950D01*
X205432330Y-203309792D01*
X205432410Y-203322794D01*
X205432549Y-203453530D01*
X204680091Y-203453530D01*
X204696130Y-203522010D01*
X204725091Y-203584031D01*
X204775778Y-203648654D01*
X204786379Y-203658971D01*
X204877494Y-203714805D01*
X204981400Y-203724275D01*
X205101000Y-203687540D01*
X205121274Y-203677647D01*
X205183456Y-203647574D01*
X205225106Y-203630440D01*
X205232373Y-203628855D01*
X205257740Y-203644242D01*
X205306120Y-203681887D01*
X205330679Y-203702459D01*
X205381570Y-203749714D01*
X205398281Y-203780917D01*
X205386683Y-203809620D01*
X205380483Y-203817468D01*
X205338493Y-203851819D01*
X205269206Y-203893565D01*
X205220882Y-203917935D01*
X205083711Y-203960873D01*
X204931847Y-203974786D01*
X204788024Y-203958300D01*
X204747745Y-203946496D01*
X204623078Y-203879689D01*
X204530671Y-203776892D01*
X204469990Y-203637105D01*
X204440498Y-203459330D01*
X204437260Y-203366373D01*
X204446714Y-203231033D01*
X204685490Y-203231033D01*
X204708584Y-203241038D01*
X204770662Y-203248888D01*
X204860914Y-203253521D01*
X204922058Y-203254314D01*
X205032040Y-203253549D01*
X205101457Y-203249970D01*
X205139538Y-203241649D01*
X205155515Y-203226657D01*
X205158627Y-203204903D01*
X205137278Y-203137892D01*
X205083529Y-203071664D01*
X205012822Y-203020832D01*
X204942089Y-203000038D01*
X204846016Y-203018484D01*
X204762849Y-203071811D01*
X204705186Y-203148677D01*
X204685490Y-203231033D01*
X204446714Y-203231033D01*
X204451028Y-203169291D01*
X204493520Y-203012271D01*
X204565635Y-202894069D01*
X204668273Y-202813440D01*
X204802332Y-202769139D01*
X204874957Y-202760607D01*
X205025307Y-202762784D01*
G36*
X195973247Y-200901568D02*
X196103522Y-200959163D01*
X196202419Y-201055334D01*
X196270082Y-201190229D01*
X196306655Y-201363996D01*
X196309276Y-201391126D01*
X196311330Y-201582408D01*
X196284699Y-201750073D01*
X196231001Y-201885967D01*
X196202247Y-201929681D01*
X196102091Y-202022198D01*
X195974537Y-202082119D01*
X195831837Y-202106985D01*
X195686240Y-202094339D01*
X195575562Y-202055391D01*
X195480384Y-201989755D01*
X195402594Y-201903699D01*
X195401249Y-201901685D01*
X195369657Y-201848570D01*
X195349127Y-201795160D01*
X195336695Y-201727754D01*
X195329397Y-201632653D01*
X195326182Y-201554666D01*
X195324844Y-201483944D01*
X195573814Y-201483944D01*
X195576247Y-201554348D01*
X195585080Y-201648068D01*
X195600664Y-201708214D01*
X195628766Y-201751006D01*
X195655086Y-201776002D01*
X195748392Y-201828338D01*
X195846020Y-201835333D01*
X195936942Y-201797676D01*
X195982402Y-201755479D01*
X196015162Y-201712956D01*
X196034323Y-201672267D01*
X196042733Y-201619314D01*
X196043237Y-201539997D01*
X196040645Y-201466950D01*
X196035071Y-201362601D01*
X196026234Y-201294920D01*
X196010307Y-201250774D01*
X195983462Y-201217031D01*
X195962189Y-201197746D01*
X195873206Y-201147086D01*
X195777211Y-201144560D01*
X195696719Y-201174567D01*
X195628053Y-201237231D01*
X195587144Y-201340168D01*
X195573814Y-201483944D01*
X195324844Y-201483944D01*
X195323246Y-201399582D01*
X195328260Y-201283600D01*
X195343283Y-201196367D01*
X195370376Y-201127530D01*
X195411600Y-201066737D01*
X195426885Y-201048686D01*
X195522454Y-200958746D01*
X195624961Y-200906211D01*
X195750321Y-200884201D01*
X195811450Y-200882402D01*
X195973247Y-200901568D01*
X195973247Y-200901568D01*
G37*
X195973247Y-200901568D02*
X196103522Y-200959163D01*
X196202419Y-201055334D01*
X196270082Y-201190229D01*
X196306655Y-201363996D01*
X196309276Y-201391126D01*
X196311330Y-201582408D01*
X196284699Y-201750073D01*
X196231001Y-201885967D01*
X196202247Y-201929681D01*
X196102091Y-202022198D01*
X195974537Y-202082119D01*
X195831837Y-202106985D01*
X195686240Y-202094339D01*
X195575562Y-202055391D01*
X195480384Y-201989755D01*
X195402594Y-201903699D01*
X195401249Y-201901685D01*
X195369657Y-201848570D01*
X195349127Y-201795160D01*
X195336695Y-201727754D01*
X195329397Y-201632653D01*
X195326182Y-201554666D01*
X195324844Y-201483944D01*
X195573814Y-201483944D01*
X195576247Y-201554348D01*
X195585080Y-201648068D01*
X195600664Y-201708214D01*
X195628766Y-201751006D01*
X195655086Y-201776002D01*
X195748392Y-201828338D01*
X195846020Y-201835333D01*
X195936942Y-201797676D01*
X195982402Y-201755479D01*
X196015162Y-201712956D01*
X196034323Y-201672267D01*
X196042733Y-201619314D01*
X196043237Y-201539997D01*
X196040645Y-201466950D01*
X196035071Y-201362601D01*
X196026234Y-201294920D01*
X196010307Y-201250774D01*
X195983462Y-201217031D01*
X195962189Y-201197746D01*
X195873206Y-201147086D01*
X195777211Y-201144560D01*
X195696719Y-201174567D01*
X195628053Y-201237231D01*
X195587144Y-201340168D01*
X195573814Y-201483944D01*
X195324844Y-201483944D01*
X195323246Y-201399582D01*
X195328260Y-201283600D01*
X195343283Y-201196367D01*
X195370376Y-201127530D01*
X195411600Y-201066737D01*
X195426885Y-201048686D01*
X195522454Y-200958746D01*
X195624961Y-200906211D01*
X195750321Y-200884201D01*
X195811450Y-200882402D01*
X195973247Y-200901568D01*
G36*
X198313204Y-200916354D02*
X198338019Y-200928037D01*
X198423906Y-200990951D01*
X198505121Y-201082769D01*
X198565764Y-201183868D01*
X198583012Y-201230349D01*
X198598749Y-201313376D01*
X198608133Y-201413713D01*
X198609272Y-201455147D01*
X198609411Y-201585882D01*
X197856953Y-201585882D01*
X197872993Y-201654363D01*
X197912363Y-201735355D01*
X197981194Y-201805351D01*
X198063081Y-201850441D01*
X198115263Y-201859804D01*
X198186029Y-201848441D01*
X198270460Y-201819943D01*
X198299142Y-201806831D01*
X198405209Y-201753858D01*
X198495728Y-201822901D01*
X198547961Y-201869597D01*
X198575753Y-201908140D01*
X198577160Y-201919452D01*
X198552332Y-201946868D01*
X198497917Y-201988532D01*
X198448528Y-202021037D01*
X198315252Y-202079468D01*
X198165839Y-202105915D01*
X198017751Y-202099039D01*
X197899705Y-202063096D01*
X197778018Y-201986101D01*
X197691540Y-201884728D01*
X197637441Y-201753570D01*
X197612891Y-201587224D01*
X197610714Y-201511108D01*
X197619427Y-201336685D01*
X197620497Y-201331611D01*
X197869827Y-201331611D01*
X197876694Y-201347968D01*
X197904917Y-201356988D01*
X197963127Y-201360854D01*
X198059958Y-201361749D01*
X198097243Y-201361765D01*
X198210683Y-201360413D01*
X198282622Y-201355505D01*
X198321313Y-201345760D01*
X198335005Y-201329899D01*
X198335490Y-201324805D01*
X198319863Y-201284326D01*
X198280753Y-201227621D01*
X198263939Y-201207766D01*
X198201519Y-201151611D01*
X198136453Y-201129532D01*
X198101397Y-201127686D01*
X198006558Y-201150766D01*
X197927027Y-201212759D01*
X197876577Y-201302802D01*
X197875683Y-201305735D01*
X197869827Y-201331611D01*
X197620497Y-201331611D01*
X197648399Y-201199343D01*
X197700590Y-201089461D01*
X197764421Y-201011461D01*
X197882433Y-200926882D01*
X198021158Y-200881686D01*
X198168710Y-200877600D01*
X198313204Y-200916354D01*
X198313204Y-200916354D01*
G37*
X198313204Y-200916354D02*
X198338019Y-200928037D01*
X198423906Y-200990951D01*
X198505121Y-201082769D01*
X198565764Y-201183868D01*
X198583012Y-201230349D01*
X198598749Y-201313376D01*
X198608133Y-201413713D01*
X198609272Y-201455147D01*
X198609411Y-201585882D01*
X197856953Y-201585882D01*
X197872993Y-201654363D01*
X197912363Y-201735355D01*
X197981194Y-201805351D01*
X198063081Y-201850441D01*
X198115263Y-201859804D01*
X198186029Y-201848441D01*
X198270460Y-201819943D01*
X198299142Y-201806831D01*
X198405209Y-201753858D01*
X198495728Y-201822901D01*
X198547961Y-201869597D01*
X198575753Y-201908140D01*
X198577160Y-201919452D01*
X198552332Y-201946868D01*
X198497917Y-201988532D01*
X198448528Y-202021037D01*
X198315252Y-202079468D01*
X198165839Y-202105915D01*
X198017751Y-202099039D01*
X197899705Y-202063096D01*
X197778018Y-201986101D01*
X197691540Y-201884728D01*
X197637441Y-201753570D01*
X197612891Y-201587224D01*
X197610714Y-201511108D01*
X197619427Y-201336685D01*
X197620497Y-201331611D01*
X197869827Y-201331611D01*
X197876694Y-201347968D01*
X197904917Y-201356988D01*
X197963127Y-201360854D01*
X198059958Y-201361749D01*
X198097243Y-201361765D01*
X198210683Y-201360413D01*
X198282622Y-201355505D01*
X198321313Y-201345760D01*
X198335005Y-201329899D01*
X198335490Y-201324805D01*
X198319863Y-201284326D01*
X198280753Y-201227621D01*
X198263939Y-201207766D01*
X198201519Y-201151611D01*
X198136453Y-201129532D01*
X198101397Y-201127686D01*
X198006558Y-201150766D01*
X197927027Y-201212759D01*
X197876577Y-201302802D01*
X197875683Y-201305735D01*
X197869827Y-201331611D01*
X197620497Y-201331611D01*
X197648399Y-201199343D01*
X197700590Y-201089461D01*
X197764421Y-201011461D01*
X197882433Y-200926882D01*
X198021158Y-200881686D01*
X198168710Y-200877600D01*
X198313204Y-200916354D01*
G36*
X201027759Y-200884345D02*
X201122059Y-200902229D01*
X201219890Y-200939633D01*
X201230343Y-200944402D01*
X201304531Y-200983412D01*
X201355910Y-201019664D01*
X201372517Y-201042887D01*
X201356702Y-201080761D01*
X201318288Y-201136644D01*
X201301237Y-201157505D01*
X201230969Y-201239618D01*
X201140379Y-201186168D01*
X201054164Y-201150561D01*
X200954549Y-201131529D01*
X200859019Y-201130326D01*
X200785061Y-201148210D01*
X200767312Y-201159373D01*
X200733512Y-201210553D01*
X200729404Y-201269509D01*
X200754696Y-201315567D01*
X200769656Y-201324499D01*
X200814486Y-201335592D01*
X200893286Y-201348630D01*
X200990426Y-201361088D01*
X201008346Y-201363042D01*
X201164365Y-201390030D01*
X201277523Y-201435873D01*
X201352569Y-201504803D01*
X201394253Y-201601054D01*
X201407238Y-201718617D01*
X201389299Y-201852254D01*
X201331050Y-201957195D01*
X201232255Y-202033630D01*
X201092682Y-202081748D01*
X200937745Y-202100732D01*
X200811398Y-202100504D01*
X200708913Y-202083262D01*
X200638921Y-202059457D01*
X200550483Y-202017978D01*
X200468754Y-201969842D01*
X200439705Y-201948655D01*
X200365000Y-201887676D01*
X200455098Y-201796508D01*
X200545196Y-201705339D01*
X200647632Y-201773128D01*
X200750374Y-201824042D01*
X200860087Y-201850673D01*
X200965551Y-201853483D01*
X201055546Y-201832935D01*
X201118854Y-201789493D01*
X201139296Y-201752838D01*
X201136229Y-201694053D01*
X201085434Y-201649099D01*
X200987048Y-201618057D01*
X200879256Y-201603710D01*
X200713365Y-201576337D01*
X200590124Y-201524693D01*
X200507886Y-201447266D01*
X200465001Y-201342544D01*
X200459060Y-201218387D01*
X200488406Y-201088702D01*
X200555309Y-200990677D01*
X200660371Y-200923866D01*
X200804190Y-200887820D01*
X200910738Y-200880754D01*
X201027759Y-200884345D01*
X201027759Y-200884345D01*
G37*
X201027759Y-200884345D02*
X201122059Y-200902229D01*
X201219890Y-200939633D01*
X201230343Y-200944402D01*
X201304531Y-200983412D01*
X201355910Y-201019664D01*
X201372517Y-201042887D01*
X201356702Y-201080761D01*
X201318288Y-201136644D01*
X201301237Y-201157505D01*
X201230969Y-201239618D01*
X201140379Y-201186168D01*
X201054164Y-201150561D01*
X200954549Y-201131529D01*
X200859019Y-201130326D01*
X200785061Y-201148210D01*
X200767312Y-201159373D01*
X200733512Y-201210553D01*
X200729404Y-201269509D01*
X200754696Y-201315567D01*
X200769656Y-201324499D01*
X200814486Y-201335592D01*
X200893286Y-201348630D01*
X200990426Y-201361088D01*
X201008346Y-201363042D01*
X201164365Y-201390030D01*
X201277523Y-201435873D01*
X201352569Y-201504803D01*
X201394253Y-201601054D01*
X201407238Y-201718617D01*
X201389299Y-201852254D01*
X201331050Y-201957195D01*
X201232255Y-202033630D01*
X201092682Y-202081748D01*
X200937745Y-202100732D01*
X200811398Y-202100504D01*
X200708913Y-202083262D01*
X200638921Y-202059457D01*
X200550483Y-202017978D01*
X200468754Y-201969842D01*
X200439705Y-201948655D01*
X200365000Y-201887676D01*
X200455098Y-201796508D01*
X200545196Y-201705339D01*
X200647632Y-201773128D01*
X200750374Y-201824042D01*
X200860087Y-201850673D01*
X200965551Y-201853483D01*
X201055546Y-201832935D01*
X201118854Y-201789493D01*
X201139296Y-201752838D01*
X201136229Y-201694053D01*
X201085434Y-201649099D01*
X200987048Y-201618057D01*
X200879256Y-201603710D01*
X200713365Y-201576337D01*
X200590124Y-201524693D01*
X200507886Y-201447266D01*
X200465001Y-201342544D01*
X200459060Y-201218387D01*
X200488406Y-201088702D01*
X200555309Y-200990677D01*
X200660371Y-200923866D01*
X200804190Y-200887820D01*
X200910738Y-200880754D01*
X201027759Y-200884345D01*
G36*
X202209547Y-200903364D02*
X202335502Y-200971959D01*
X202434047Y-201080245D01*
X202480478Y-201168315D01*
X202500412Y-201246101D01*
X202513328Y-201356993D01*
X202518863Y-201484738D01*
X202516654Y-201613084D01*
X202506337Y-201725779D01*
X202494286Y-201785969D01*
X202453634Y-201868311D01*
X202383230Y-201955770D01*
X202298382Y-202032251D01*
X202214397Y-202081655D01*
X202212349Y-202082439D01*
X202108134Y-202104027D01*
X201984627Y-202104562D01*
X201867261Y-202084908D01*
X201821942Y-202069155D01*
X201705220Y-202002966D01*
X201621624Y-201916246D01*
X201566701Y-201801438D01*
X201535995Y-201650982D01*
X201529047Y-201572173D01*
X201529933Y-201473145D01*
X201796862Y-201473145D01*
X201805854Y-201617645D01*
X201831736Y-201727760D01*
X201872868Y-201798116D01*
X201902172Y-201818235D01*
X201977251Y-201832265D01*
X202066494Y-201828111D01*
X202143650Y-201807922D01*
X202163883Y-201796815D01*
X202217265Y-201732123D01*
X202252500Y-201633119D01*
X202267498Y-201512632D01*
X202260172Y-201383494D01*
X202243799Y-201305775D01*
X202196790Y-201215771D01*
X202122582Y-201159509D01*
X202033209Y-201140057D01*
X201940707Y-201160481D01*
X201869653Y-201210437D01*
X201832312Y-201251655D01*
X201810518Y-201292281D01*
X201800130Y-201347264D01*
X201797006Y-201431549D01*
X201796862Y-201473145D01*
X201529933Y-201473145D01*
X201530930Y-201361874D01*
X201565180Y-201189423D01*
X201631802Y-201054814D01*
X201730799Y-200958040D01*
X201862175Y-200899094D01*
X201890385Y-200892259D01*
X202059926Y-200876213D01*
X202209547Y-200903364D01*
X202209547Y-200903364D01*
G37*
X202209547Y-200903364D02*
X202335502Y-200971959D01*
X202434047Y-201080245D01*
X202480478Y-201168315D01*
X202500412Y-201246101D01*
X202513328Y-201356993D01*
X202518863Y-201484738D01*
X202516654Y-201613084D01*
X202506337Y-201725779D01*
X202494286Y-201785969D01*
X202453634Y-201868311D01*
X202383230Y-201955770D01*
X202298382Y-202032251D01*
X202214397Y-202081655D01*
X202212349Y-202082439D01*
X202108134Y-202104027D01*
X201984627Y-202104562D01*
X201867261Y-202084908D01*
X201821942Y-202069155D01*
X201705220Y-202002966D01*
X201621624Y-201916246D01*
X201566701Y-201801438D01*
X201535995Y-201650982D01*
X201529047Y-201572173D01*
X201529933Y-201473145D01*
X201796862Y-201473145D01*
X201805854Y-201617645D01*
X201831736Y-201727760D01*
X201872868Y-201798116D01*
X201902172Y-201818235D01*
X201977251Y-201832265D01*
X202066494Y-201828111D01*
X202143650Y-201807922D01*
X202163883Y-201796815D01*
X202217265Y-201732123D01*
X202252500Y-201633119D01*
X202267498Y-201512632D01*
X202260172Y-201383494D01*
X202243799Y-201305775D01*
X202196790Y-201215771D01*
X202122582Y-201159509D01*
X202033209Y-201140057D01*
X201940707Y-201160481D01*
X201869653Y-201210437D01*
X201832312Y-201251655D01*
X201810518Y-201292281D01*
X201800130Y-201347264D01*
X201797006Y-201431549D01*
X201796862Y-201473145D01*
X201529933Y-201473145D01*
X201530930Y-201361874D01*
X201565180Y-201189423D01*
X201631802Y-201054814D01*
X201730799Y-200958040D01*
X201862175Y-200899094D01*
X201890385Y-200892259D01*
X202059926Y-200876213D01*
X202209547Y-200903364D01*
G36*
X202967254Y-201276245D02*
X202969608Y-201458879D01*
X202978207Y-201597600D01*
X202995360Y-201698147D01*
X203023374Y-201766254D01*
X203064557Y-201807659D01*
X203121217Y-201828097D01*
X203191372Y-201833318D01*
X203264848Y-201827468D01*
X203320657Y-201806093D01*
X203361109Y-201763458D01*
X203388509Y-201693825D01*
X203405167Y-201591460D01*
X203413389Y-201450624D01*
X203415490Y-201276245D01*
X203415490Y-200888628D01*
X203689411Y-200888628D01*
X203689411Y-202083922D01*
X203552451Y-202083922D01*
X203469884Y-202080576D01*
X203427368Y-202068826D01*
X203415490Y-202046520D01*
X203408336Y-202026654D01*
X203379865Y-202030857D01*
X203322476Y-202058971D01*
X203190945Y-202102342D01*
X203051438Y-202099270D01*
X202917765Y-202052174D01*
X202854108Y-202014971D01*
X202805553Y-201974691D01*
X202770081Y-201924291D01*
X202745674Y-201856729D01*
X202730313Y-201764965D01*
X202721982Y-201641955D01*
X202718662Y-201480659D01*
X202718235Y-201355928D01*
X202718235Y-200888628D01*
X202967254Y-200888628D01*
X202967254Y-201276245D01*
X202967254Y-201276245D01*
G37*
X202967254Y-201276245D02*
X202969608Y-201458879D01*
X202978207Y-201597600D01*
X202995360Y-201698147D01*
X203023374Y-201766254D01*
X203064557Y-201807659D01*
X203121217Y-201828097D01*
X203191372Y-201833318D01*
X203264848Y-201827468D01*
X203320657Y-201806093D01*
X203361109Y-201763458D01*
X203388509Y-201693825D01*
X203405167Y-201591460D01*
X203413389Y-201450624D01*
X203415490Y-201276245D01*
X203415490Y-200888628D01*
X203689411Y-200888628D01*
X203689411Y-202083922D01*
X203552451Y-202083922D01*
X203469884Y-202080576D01*
X203427368Y-202068826D01*
X203415490Y-202046520D01*
X203408336Y-202026654D01*
X203379865Y-202030857D01*
X203322476Y-202058971D01*
X203190945Y-202102342D01*
X203051438Y-202099270D01*
X202917765Y-202052174D01*
X202854108Y-202014971D01*
X202805553Y-201974691D01*
X202770081Y-201924291D01*
X202745674Y-201856729D01*
X202730313Y-201764965D01*
X202721982Y-201641955D01*
X202718662Y-201480659D01*
X202718235Y-201355928D01*
X202718235Y-200888628D01*
X202967254Y-200888628D01*
X202967254Y-201276245D01*
G36*
X205390976Y-200899056D02*
X205535256Y-200960348D01*
X205580699Y-200990185D01*
X205638779Y-201036036D01*
X205675238Y-201072089D01*
X205681568Y-201083832D01*
X205663693Y-201109889D01*
X205617950Y-201154105D01*
X205581328Y-201184965D01*
X205481088Y-201265520D01*
X205401935Y-201198918D01*
X205340769Y-201155921D01*
X205281129Y-201141079D01*
X205212872Y-201144704D01*
X205104482Y-201171652D01*
X205029872Y-201227587D01*
X204984530Y-201318014D01*
X204963947Y-201448435D01*
X204963942Y-201448517D01*
X204965722Y-201594290D01*
X204993387Y-201701245D01*
X205048571Y-201774064D01*
X205086192Y-201798723D01*
X205186105Y-201829431D01*
X205292822Y-201829449D01*
X205385669Y-201799655D01*
X205407647Y-201785098D01*
X205462765Y-201747914D01*
X205505859Y-201741820D01*
X205552335Y-201769496D01*
X205603716Y-201819205D01*
X205685046Y-201903116D01*
X205594749Y-201977546D01*
X205455236Y-202061549D01*
X205297912Y-202102947D01*
X205133503Y-202099950D01*
X205025531Y-202072500D01*
X204899331Y-202004620D01*
X204798401Y-201897831D01*
X204752548Y-201822451D01*
X204715410Y-201714297D01*
X204696827Y-201577318D01*
X204696684Y-201428864D01*
X204714865Y-201286281D01*
X204751255Y-201166918D01*
X204756987Y-201154680D01*
X204841865Y-201034655D01*
X204956782Y-200947267D01*
X205092659Y-200894329D01*
X205240417Y-200877654D01*
X205390976Y-200899056D01*
X205390976Y-200899056D01*
G37*
X205390976Y-200899056D02*
X205535256Y-200960348D01*
X205580699Y-200990185D01*
X205638779Y-201036036D01*
X205675238Y-201072089D01*
X205681568Y-201083832D01*
X205663693Y-201109889D01*
X205617950Y-201154105D01*
X205581328Y-201184965D01*
X205481088Y-201265520D01*
X205401935Y-201198918D01*
X205340769Y-201155921D01*
X205281129Y-201141079D01*
X205212872Y-201144704D01*
X205104482Y-201171652D01*
X205029872Y-201227587D01*
X204984530Y-201318014D01*
X204963947Y-201448435D01*
X204963942Y-201448517D01*
X204965722Y-201594290D01*
X204993387Y-201701245D01*
X205048571Y-201774064D01*
X205086192Y-201798723D01*
X205186105Y-201829431D01*
X205292822Y-201829449D01*
X205385669Y-201799655D01*
X205407647Y-201785098D01*
X205462765Y-201747914D01*
X205505859Y-201741820D01*
X205552335Y-201769496D01*
X205603716Y-201819205D01*
X205685046Y-201903116D01*
X205594749Y-201977546D01*
X205455236Y-202061549D01*
X205297912Y-202102947D01*
X205133503Y-202099950D01*
X205025531Y-202072500D01*
X204899331Y-202004620D01*
X204798401Y-201897831D01*
X204752548Y-201822451D01*
X204715410Y-201714297D01*
X204696827Y-201577318D01*
X204696684Y-201428864D01*
X204714865Y-201286281D01*
X204751255Y-201166918D01*
X204756987Y-201154680D01*
X204841865Y-201034655D01*
X204956782Y-200947267D01*
X205092659Y-200894329D01*
X205240417Y-200877654D01*
X205390976Y-200899056D01*
G36*
X206303287Y-200884355D02*
X206367051Y-200899845D01*
X206489300Y-200956569D01*
X206593834Y-201043202D01*
X206666180Y-201147074D01*
X206676119Y-201170396D01*
X206689754Y-201231484D01*
X206699298Y-201321853D01*
X206702549Y-201413190D01*
X206702549Y-201585882D01*
X206341470Y-201585882D01*
X206192546Y-201586445D01*
X206087632Y-201589864D01*
X206020937Y-201598731D01*
X205986666Y-201615641D01*
X205979028Y-201643189D01*
X205992229Y-201683968D01*
X206015877Y-201731683D01*
X206081843Y-201811314D01*
X206173512Y-201850987D01*
X206285555Y-201849695D01*
X206412472Y-201806514D01*
X206522158Y-201753224D01*
X206613173Y-201825191D01*
X206704188Y-201897157D01*
X206618563Y-201976269D01*
X206504250Y-202051017D01*
X206363666Y-202096084D01*
X206212449Y-202108696D01*
X206066236Y-202086079D01*
X206042647Y-202078405D01*
X205914141Y-202011296D01*
X205818551Y-201911247D01*
X205753861Y-201775271D01*
X205718057Y-201600380D01*
X205717640Y-201596632D01*
X205714434Y-201406032D01*
X205727393Y-201338035D01*
X205980392Y-201338035D01*
X206003627Y-201348491D01*
X206066710Y-201356500D01*
X206159706Y-201361073D01*
X206218638Y-201361765D01*
X206328537Y-201361332D01*
X206397252Y-201358578D01*
X206433405Y-201351321D01*
X206445615Y-201337376D01*
X206442504Y-201314562D01*
X206439894Y-201305735D01*
X206395344Y-201222800D01*
X206325279Y-201155960D01*
X206263446Y-201126589D01*
X206181301Y-201128362D01*
X206098062Y-201164990D01*
X206028238Y-201225634D01*
X205986337Y-201299456D01*
X205980392Y-201338035D01*
X205727393Y-201338035D01*
X205746385Y-201238395D01*
X205809773Y-201097711D01*
X205900878Y-200987974D01*
X206015978Y-200913174D01*
X206151355Y-200877304D01*
X206303287Y-200884355D01*
X206303287Y-200884355D01*
G37*
X206303287Y-200884355D02*
X206367051Y-200899845D01*
X206489300Y-200956569D01*
X206593834Y-201043202D01*
X206666180Y-201147074D01*
X206676119Y-201170396D01*
X206689754Y-201231484D01*
X206699298Y-201321853D01*
X206702549Y-201413190D01*
X206702549Y-201585882D01*
X206341470Y-201585882D01*
X206192546Y-201586445D01*
X206087632Y-201589864D01*
X206020937Y-201598731D01*
X205986666Y-201615641D01*
X205979028Y-201643189D01*
X205992229Y-201683968D01*
X206015877Y-201731683D01*
X206081843Y-201811314D01*
X206173512Y-201850987D01*
X206285555Y-201849695D01*
X206412472Y-201806514D01*
X206522158Y-201753224D01*
X206613173Y-201825191D01*
X206704188Y-201897157D01*
X206618563Y-201976269D01*
X206504250Y-202051017D01*
X206363666Y-202096084D01*
X206212449Y-202108696D01*
X206066236Y-202086079D01*
X206042647Y-202078405D01*
X205914141Y-202011296D01*
X205818551Y-201911247D01*
X205753861Y-201775271D01*
X205718057Y-201600380D01*
X205717640Y-201596632D01*
X205714434Y-201406032D01*
X205727393Y-201338035D01*
X205980392Y-201338035D01*
X206003627Y-201348491D01*
X206066710Y-201356500D01*
X206159706Y-201361073D01*
X206218638Y-201361765D01*
X206328537Y-201361332D01*
X206397252Y-201358578D01*
X206433405Y-201351321D01*
X206445615Y-201337376D01*
X206442504Y-201314562D01*
X206439894Y-201305735D01*
X206395344Y-201222800D01*
X206325279Y-201155960D01*
X206263446Y-201126589D01*
X206181301Y-201128362D01*
X206098062Y-201164990D01*
X206028238Y-201225634D01*
X205986337Y-201299456D01*
X205980392Y-201338035D01*
X205727393Y-201338035D01*
X205746385Y-201238395D01*
X205809773Y-201097711D01*
X205900878Y-200987974D01*
X206015978Y-200913174D01*
X206151355Y-200877304D01*
X206303287Y-200884355D01*
G36*
X199506760Y-200909199D02*
X199568736Y-200938802D01*
X199628759Y-200981561D01*
X199674486Y-201030775D01*
X199707793Y-201093544D01*
X199730555Y-201176971D01*
X199744647Y-201288159D01*
X199751942Y-201434209D01*
X199754318Y-201622223D01*
X199754355Y-201641912D01*
X199754902Y-202083922D01*
X199480980Y-202083922D01*
X199480980Y-201676435D01*
X199480785Y-201525471D01*
X199479436Y-201416056D01*
X199475788Y-201339933D01*
X199468696Y-201288848D01*
X199457013Y-201254545D01*
X199439594Y-201228768D01*
X199415329Y-201203298D01*
X199330435Y-201148571D01*
X199237761Y-201138416D01*
X199149473Y-201173017D01*
X199118770Y-201198770D01*
X199096229Y-201222982D01*
X199080046Y-201248912D01*
X199069168Y-201284708D01*
X199062542Y-201338519D01*
X199059115Y-201418493D01*
X199057834Y-201532779D01*
X199057647Y-201671907D01*
X199057647Y-202083922D01*
X198783725Y-202083922D01*
X198783725Y-200888628D01*
X198920686Y-200888628D01*
X199002916Y-200891879D01*
X199045340Y-200903426D01*
X199057641Y-200925952D01*
X199057647Y-200926620D01*
X199063354Y-200948681D01*
X199088527Y-200946177D01*
X199138578Y-200921937D01*
X199252094Y-200886271D01*
X199381945Y-200882305D01*
X199506760Y-200909199D01*
X199506760Y-200909199D01*
G37*
X199506760Y-200909199D02*
X199568736Y-200938802D01*
X199628759Y-200981561D01*
X199674486Y-201030775D01*
X199707793Y-201093544D01*
X199730555Y-201176971D01*
X199744647Y-201288159D01*
X199751942Y-201434209D01*
X199754318Y-201622223D01*
X199754355Y-201641912D01*
X199754902Y-202083922D01*
X199480980Y-202083922D01*
X199480980Y-201676435D01*
X199480785Y-201525471D01*
X199479436Y-201416056D01*
X199475788Y-201339933D01*
X199468696Y-201288848D01*
X199457013Y-201254545D01*
X199439594Y-201228768D01*
X199415329Y-201203298D01*
X199330435Y-201148571D01*
X199237761Y-201138416D01*
X199149473Y-201173017D01*
X199118770Y-201198770D01*
X199096229Y-201222982D01*
X199080046Y-201248912D01*
X199069168Y-201284708D01*
X199062542Y-201338519D01*
X199059115Y-201418493D01*
X199057834Y-201532779D01*
X199057647Y-201671907D01*
X199057647Y-202083922D01*
X198783725Y-202083922D01*
X198783725Y-200888628D01*
X198920686Y-200888628D01*
X199002916Y-200891879D01*
X199045340Y-200903426D01*
X199057641Y-200925952D01*
X199057647Y-200926620D01*
X199063354Y-200948681D01*
X199088527Y-200946177D01*
X199138578Y-200921937D01*
X199252094Y-200886271D01*
X199381945Y-200882305D01*
X199506760Y-200909199D01*
G36*
X204563637Y-200887472D02*
X204649290Y-200913641D01*
X204704437Y-200946707D01*
X204722401Y-200972855D01*
X204717457Y-201003852D01*
X204685372Y-201052547D01*
X204658243Y-201087035D01*
X204602317Y-201149383D01*
X204560299Y-201175615D01*
X204524480Y-201173903D01*
X204418224Y-201146863D01*
X204340189Y-201148091D01*
X204276820Y-201178735D01*
X204255546Y-201196670D01*
X204187451Y-201259779D01*
X204187451Y-202083922D01*
X203913529Y-202083922D01*
X203913529Y-200888628D01*
X204050490Y-200888628D01*
X204132719Y-200891879D01*
X204175144Y-200903426D01*
X204187445Y-200925952D01*
X204187451Y-200926620D01*
X204193260Y-200950215D01*
X204219531Y-200947138D01*
X204255931Y-200930115D01*
X204331111Y-200898439D01*
X204392158Y-200879381D01*
X204470708Y-200874496D01*
X204563637Y-200887472D01*
X204563637Y-200887472D01*
G37*
X204563637Y-200887472D02*
X204649290Y-200913641D01*
X204704437Y-200946707D01*
X204722401Y-200972855D01*
X204717457Y-201003852D01*
X204685372Y-201052547D01*
X204658243Y-201087035D01*
X204602317Y-201149383D01*
X204560299Y-201175615D01*
X204524480Y-201173903D01*
X204418224Y-201146863D01*
X204340189Y-201148091D01*
X204276820Y-201178735D01*
X204255546Y-201196670D01*
X204187451Y-201259779D01*
X204187451Y-202083922D01*
X203913529Y-202083922D01*
X203913529Y-200888628D01*
X204050490Y-200888628D01*
X204132719Y-200891879D01*
X204175144Y-200903426D01*
X204187445Y-200925952D01*
X204187451Y-200926620D01*
X204193260Y-200950215D01*
X204219531Y-200947138D01*
X204255931Y-200930115D01*
X204331111Y-200898439D01*
X204392158Y-200879381D01*
X204470708Y-200874496D01*
X204563637Y-200887472D01*
G36*
X201746535Y-192633172D02*
X201859117Y-193230363D01*
X202274531Y-193401610D01*
X202689944Y-193572857D01*
X203188302Y-193233978D01*
X203327868Y-193139622D01*
X203454028Y-193055375D01*
X203560895Y-192985083D01*
X203642582Y-192932592D01*
X203693201Y-192901749D01*
X203706986Y-192895098D01*
X203731820Y-192912203D01*
X203784888Y-192959489D01*
X203860240Y-193030917D01*
X203951929Y-193120445D01*
X204054007Y-193222034D01*
X204160526Y-193329643D01*
X204265536Y-193437232D01*
X204363091Y-193538760D01*
X204447242Y-193628186D01*
X204512040Y-193699471D01*
X204551538Y-193746573D01*
X204560980Y-193762337D01*
X204547391Y-193791398D01*
X204509293Y-193855066D01*
X204450694Y-193947112D01*
X204375597Y-194061309D01*
X204288009Y-194191429D01*
X204237254Y-194265646D01*
X204144745Y-194401167D01*
X204062540Y-194523461D01*
X203994630Y-194626440D01*
X203945000Y-194704018D01*
X203917640Y-194750106D01*
X203913529Y-194759792D01*
X203922849Y-194787319D01*
X203948254Y-194851473D01*
X203985911Y-194943235D01*
X204031986Y-195053584D01*
X204082646Y-195173500D01*
X204134059Y-195293964D01*
X204182389Y-195405954D01*
X204223806Y-195500452D01*
X204254474Y-195568437D01*
X204270562Y-195600888D01*
X204271511Y-195602165D01*
X204296772Y-195608362D01*
X204364046Y-195622185D01*
X204466360Y-195642277D01*
X204596741Y-195667279D01*
X204748216Y-195695831D01*
X204836594Y-195712296D01*
X204998452Y-195743114D01*
X205144649Y-195772439D01*
X205267787Y-195798666D01*
X205360469Y-195820191D01*
X205415301Y-195835410D01*
X205426323Y-195840238D01*
X205437119Y-195872919D01*
X205445829Y-195946730D01*
X205452460Y-196053037D01*
X205457018Y-196183212D01*
X205459509Y-196328621D01*
X205459938Y-196480635D01*
X205458311Y-196630622D01*
X205454635Y-196769951D01*
X205448915Y-196889990D01*
X205441158Y-196982110D01*
X205431368Y-197037677D01*
X205425496Y-197049245D01*
X205390399Y-197063110D01*
X205316028Y-197082933D01*
X205212223Y-197106384D01*
X205088819Y-197131136D01*
X205045741Y-197139143D01*
X204838047Y-197177186D01*
X204673984Y-197207824D01*
X204548130Y-197232274D01*
X204455065Y-197251754D01*
X204389367Y-197267481D01*
X204345617Y-197280673D01*
X204318392Y-197292549D01*
X204302272Y-197304325D01*
X204300017Y-197306653D01*
X204277503Y-197344145D01*
X204243158Y-197417110D01*
X204200411Y-197516612D01*
X204152692Y-197633718D01*
X204103430Y-197759493D01*
X204056055Y-197885002D01*
X204013995Y-198001310D01*
X203980680Y-198099484D01*
X203959541Y-198170588D01*
X203954005Y-198205687D01*
X203954466Y-198206917D01*
X203973223Y-198235606D01*
X204015776Y-198298730D01*
X204077653Y-198389718D01*
X204154382Y-198502000D01*
X204241491Y-198629005D01*
X204266299Y-198665098D01*
X204354753Y-198795948D01*
X204432588Y-198915336D01*
X204495566Y-199016407D01*
X204539445Y-199092304D01*
X204559985Y-199136172D01*
X204560980Y-199141562D01*
X204543722Y-199169889D01*
X204496036Y-199226006D01*
X204424050Y-199303882D01*
X204333897Y-199397485D01*
X204231705Y-199500786D01*
X204123606Y-199607751D01*
X204015728Y-199712351D01*
X203914204Y-199808554D01*
X203825162Y-199890329D01*
X203754733Y-199951645D01*
X203709047Y-199986471D01*
X203696409Y-199992157D01*
X203666991Y-199978765D01*
X203606761Y-199942644D01*
X203525530Y-199889881D01*
X203463030Y-199847412D01*
X203349785Y-199769485D01*
X203215674Y-199677729D01*
X203081155Y-199586120D01*
X203008833Y-199537091D01*
X202764038Y-199371515D01*
X202558551Y-199482620D01*
X202464936Y-199531293D01*
X202385330Y-199569126D01*
X202331467Y-199590703D01*
X202317757Y-199593706D01*
X202301270Y-199571538D01*
X202268745Y-199508894D01*
X202222609Y-199411554D01*
X202165290Y-199285294D01*
X202099216Y-199135895D01*
X202026815Y-198969133D01*
X201950516Y-198790787D01*
X201872746Y-198606636D01*
X201795934Y-198422457D01*
X201722506Y-198244030D01*
X201654892Y-198077132D01*
X201595520Y-197927542D01*
X201546816Y-197801038D01*
X201511210Y-197703399D01*
X201491130Y-197640402D01*
X201487900Y-197618766D01*
X201513496Y-197591169D01*
X201569539Y-197546370D01*
X201644311Y-197493679D01*
X201650587Y-197489510D01*
X201843845Y-197334814D01*
X201999674Y-197154336D01*
X202116724Y-196953847D01*
X202193645Y-196739119D01*
X202229086Y-196515922D01*
X202221697Y-196290026D01*
X202170127Y-196067204D01*
X202073026Y-195853224D01*
X202044458Y-195806409D01*
X201895868Y-195617363D01*
X201720327Y-195465557D01*
X201523910Y-195351779D01*
X201312693Y-195276820D01*
X201092753Y-195241467D01*
X200870163Y-195246512D01*
X200651001Y-195292744D01*
X200441342Y-195380951D01*
X200247261Y-195511924D01*
X200187226Y-195565082D01*
X200034435Y-195731484D01*
X199923097Y-195906657D01*
X199846723Y-196103011D01*
X199804187Y-196297462D01*
X199793686Y-196516087D01*
X199828701Y-196735797D01*
X199905673Y-196949165D01*
X200021047Y-197148767D01*
X200171266Y-197327174D01*
X200352773Y-197476962D01*
X200376627Y-197492751D01*
X200452201Y-197544457D01*
X200509651Y-197589257D01*
X200537117Y-197617862D01*
X200537517Y-197618766D01*
X200531620Y-197649709D01*
X200508245Y-197719936D01*
X200469821Y-197823670D01*
X200418777Y-197955135D01*
X200357542Y-198108552D01*
X200288544Y-198278146D01*
X200214214Y-198458138D01*
X200136978Y-198642753D01*
X200059268Y-198826213D01*
X199983511Y-199002741D01*
X199912137Y-199166559D01*
X199847574Y-199311892D01*
X199792252Y-199432962D01*
X199748600Y-199523992D01*
X199719046Y-199579205D01*
X199707144Y-199593706D01*
X199670777Y-199582414D01*
X199602730Y-199552130D01*
X199514737Y-199508265D01*
X199466351Y-199482620D01*
X199260863Y-199371515D01*
X199016068Y-199537091D01*
X198891106Y-199621915D01*
X198754295Y-199715261D01*
X198626089Y-199803153D01*
X198561871Y-199847412D01*
X198471551Y-199908063D01*
X198395071Y-199956126D01*
X198342407Y-199985515D01*
X198325302Y-199991727D01*
X198300405Y-199974968D01*
X198245305Y-199928181D01*
X198165343Y-199856225D01*
X198065861Y-199763957D01*
X197952200Y-199656235D01*
X197880315Y-199587071D01*
X197754551Y-199463502D01*
X197645863Y-199352979D01*
X197558645Y-199260230D01*
X197497289Y-199189982D01*
X197466191Y-199146965D01*
X197463208Y-199138235D01*
X197477053Y-199105029D01*
X197515312Y-199037887D01*
X197573742Y-198943608D01*
X197648097Y-198828990D01*
X197734135Y-198700828D01*
X197758603Y-198665098D01*
X197847755Y-198535234D01*
X197927738Y-198418314D01*
X197994080Y-198320907D01*
X198042311Y-198249584D01*
X198067957Y-198210915D01*
X198070435Y-198206917D01*
X198066729Y-198176100D01*
X198047061Y-198108344D01*
X198014860Y-198012584D01*
X197973555Y-197897754D01*
X197926575Y-197772789D01*
X197877349Y-197646624D01*
X197829308Y-197528193D01*
X197785881Y-197426430D01*
X197750496Y-197350271D01*
X197726584Y-197308649D01*
X197724884Y-197306653D01*
X197710262Y-197294758D01*
X197685565Y-197282995D01*
X197645372Y-197270146D01*
X197584263Y-197254994D01*
X197496817Y-197236321D01*
X197377612Y-197212910D01*
X197221227Y-197183542D01*
X197022243Y-197147000D01*
X196979160Y-197139143D01*
X196851471Y-197114472D01*
X196740153Y-197090338D01*
X196655045Y-197069069D01*
X196605983Y-197052993D01*
X196599405Y-197049245D01*
X196588564Y-197016018D01*
X196579753Y-196941766D01*
X196572976Y-196835121D01*
X196568240Y-196704712D01*
X196565550Y-196559172D01*
X196564913Y-196407131D01*
X196566334Y-196257221D01*
X196569820Y-196118073D01*
X196575376Y-195998317D01*
X196583008Y-195906586D01*
X196592722Y-195851511D01*
X196598578Y-195840238D01*
X196631180Y-195828868D01*
X196705418Y-195810369D01*
X196813896Y-195786347D01*
X196949217Y-195758407D01*
X197103985Y-195728153D01*
X197188308Y-195712296D01*
X197348296Y-195682389D01*
X197490967Y-195655295D01*
X197609348Y-195632376D01*
X197696465Y-195614988D01*
X197745345Y-195604492D01*
X197753390Y-195602165D01*
X197766987Y-195575931D01*
X197795729Y-195512740D01*
X197835785Y-195421622D01*
X197883324Y-195311602D01*
X197934515Y-195191710D01*
X197985526Y-195070972D01*
X198032526Y-194958416D01*
X198071684Y-194863071D01*
X198099169Y-194793962D01*
X198111149Y-194760119D01*
X198111372Y-194758640D01*
X198097791Y-194731942D01*
X198059715Y-194670505D01*
X198001147Y-194580434D01*
X197926088Y-194467835D01*
X197838540Y-194338815D01*
X197787647Y-194264706D01*
X197694909Y-194128822D01*
X197612541Y-194005454D01*
X197544561Y-193900842D01*
X197494988Y-193821228D01*
X197467842Y-193772852D01*
X197463921Y-193762007D01*
X197480775Y-193736765D01*
X197527368Y-193682869D01*
X197597749Y-193606358D01*
X197685965Y-193513268D01*
X197786065Y-193409640D01*
X197892098Y-193301509D01*
X197998111Y-193194915D01*
X198098152Y-193095895D01*
X198186270Y-193010487D01*
X198256513Y-192944730D01*
X198302928Y-192904661D01*
X198318456Y-192895098D01*
X198343739Y-192908545D01*
X198404211Y-192946320D01*
X198493992Y-193004580D01*
X198607203Y-193079479D01*
X198737964Y-193167170D01*
X198836600Y-193233978D01*
X199334957Y-193572857D01*
X199750371Y-193401610D01*
X200165784Y-193230363D01*
X200278366Y-192633172D01*
X200390949Y-192035980D01*
X201633952Y-192035980D01*
X201746535Y-192633172D01*
X201746535Y-192633172D01*
G37*
X201746535Y-192633172D02*
X201859117Y-193230363D01*
X202274531Y-193401610D01*
X202689944Y-193572857D01*
X203188302Y-193233978D01*
X203327868Y-193139622D01*
X203454028Y-193055375D01*
X203560895Y-192985083D01*
X203642582Y-192932592D01*
X203693201Y-192901749D01*
X203706986Y-192895098D01*
X203731820Y-192912203D01*
X203784888Y-192959489D01*
X203860240Y-193030917D01*
X203951929Y-193120445D01*
X204054007Y-193222034D01*
X204160526Y-193329643D01*
X204265536Y-193437232D01*
X204363091Y-193538760D01*
X204447242Y-193628186D01*
X204512040Y-193699471D01*
X204551538Y-193746573D01*
X204560980Y-193762337D01*
X204547391Y-193791398D01*
X204509293Y-193855066D01*
X204450694Y-193947112D01*
X204375597Y-194061309D01*
X204288009Y-194191429D01*
X204237254Y-194265646D01*
X204144745Y-194401167D01*
X204062540Y-194523461D01*
X203994630Y-194626440D01*
X203945000Y-194704018D01*
X203917640Y-194750106D01*
X203913529Y-194759792D01*
X203922849Y-194787319D01*
X203948254Y-194851473D01*
X203985911Y-194943235D01*
X204031986Y-195053584D01*
X204082646Y-195173500D01*
X204134059Y-195293964D01*
X204182389Y-195405954D01*
X204223806Y-195500452D01*
X204254474Y-195568437D01*
X204270562Y-195600888D01*
X204271511Y-195602165D01*
X204296772Y-195608362D01*
X204364046Y-195622185D01*
X204466360Y-195642277D01*
X204596741Y-195667279D01*
X204748216Y-195695831D01*
X204836594Y-195712296D01*
X204998452Y-195743114D01*
X205144649Y-195772439D01*
X205267787Y-195798666D01*
X205360469Y-195820191D01*
X205415301Y-195835410D01*
X205426323Y-195840238D01*
X205437119Y-195872919D01*
X205445829Y-195946730D01*
X205452460Y-196053037D01*
X205457018Y-196183212D01*
X205459509Y-196328621D01*
X205459938Y-196480635D01*
X205458311Y-196630622D01*
X205454635Y-196769951D01*
X205448915Y-196889990D01*
X205441158Y-196982110D01*
X205431368Y-197037677D01*
X205425496Y-197049245D01*
X205390399Y-197063110D01*
X205316028Y-197082933D01*
X205212223Y-197106384D01*
X205088819Y-197131136D01*
X205045741Y-197139143D01*
X204838047Y-197177186D01*
X204673984Y-197207824D01*
X204548130Y-197232274D01*
X204455065Y-197251754D01*
X204389367Y-197267481D01*
X204345617Y-197280673D01*
X204318392Y-197292549D01*
X204302272Y-197304325D01*
X204300017Y-197306653D01*
X204277503Y-197344145D01*
X204243158Y-197417110D01*
X204200411Y-197516612D01*
X204152692Y-197633718D01*
X204103430Y-197759493D01*
X204056055Y-197885002D01*
X204013995Y-198001310D01*
X203980680Y-198099484D01*
X203959541Y-198170588D01*
X203954005Y-198205687D01*
X203954466Y-198206917D01*
X203973223Y-198235606D01*
X204015776Y-198298730D01*
X204077653Y-198389718D01*
X204154382Y-198502000D01*
X204241491Y-198629005D01*
X204266299Y-198665098D01*
X204354753Y-198795948D01*
X204432588Y-198915336D01*
X204495566Y-199016407D01*
X204539445Y-199092304D01*
X204559985Y-199136172D01*
X204560980Y-199141562D01*
X204543722Y-199169889D01*
X204496036Y-199226006D01*
X204424050Y-199303882D01*
X204333897Y-199397485D01*
X204231705Y-199500786D01*
X204123606Y-199607751D01*
X204015728Y-199712351D01*
X203914204Y-199808554D01*
X203825162Y-199890329D01*
X203754733Y-199951645D01*
X203709047Y-199986471D01*
X203696409Y-199992157D01*
X203666991Y-199978765D01*
X203606761Y-199942644D01*
X203525530Y-199889881D01*
X203463030Y-199847412D01*
X203349785Y-199769485D01*
X203215674Y-199677729D01*
X203081155Y-199586120D01*
X203008833Y-199537091D01*
X202764038Y-199371515D01*
X202558551Y-199482620D01*
X202464936Y-199531293D01*
X202385330Y-199569126D01*
X202331467Y-199590703D01*
X202317757Y-199593706D01*
X202301270Y-199571538D01*
X202268745Y-199508894D01*
X202222609Y-199411554D01*
X202165290Y-199285294D01*
X202099216Y-199135895D01*
X202026815Y-198969133D01*
X201950516Y-198790787D01*
X201872746Y-198606636D01*
X201795934Y-198422457D01*
X201722506Y-198244030D01*
X201654892Y-198077132D01*
X201595520Y-197927542D01*
X201546816Y-197801038D01*
X201511210Y-197703399D01*
X201491130Y-197640402D01*
X201487900Y-197618766D01*
X201513496Y-197591169D01*
X201569539Y-197546370D01*
X201644311Y-197493679D01*
X201650587Y-197489510D01*
X201843845Y-197334814D01*
X201999674Y-197154336D01*
X202116724Y-196953847D01*
X202193645Y-196739119D01*
X202229086Y-196515922D01*
X202221697Y-196290026D01*
X202170127Y-196067204D01*
X202073026Y-195853224D01*
X202044458Y-195806409D01*
X201895868Y-195617363D01*
X201720327Y-195465557D01*
X201523910Y-195351779D01*
X201312693Y-195276820D01*
X201092753Y-195241467D01*
X200870163Y-195246512D01*
X200651001Y-195292744D01*
X200441342Y-195380951D01*
X200247261Y-195511924D01*
X200187226Y-195565082D01*
X200034435Y-195731484D01*
X199923097Y-195906657D01*
X199846723Y-196103011D01*
X199804187Y-196297462D01*
X199793686Y-196516087D01*
X199828701Y-196735797D01*
X199905673Y-196949165D01*
X200021047Y-197148767D01*
X200171266Y-197327174D01*
X200352773Y-197476962D01*
X200376627Y-197492751D01*
X200452201Y-197544457D01*
X200509651Y-197589257D01*
X200537117Y-197617862D01*
X200537517Y-197618766D01*
X200531620Y-197649709D01*
X200508245Y-197719936D01*
X200469821Y-197823670D01*
X200418777Y-197955135D01*
X200357542Y-198108552D01*
X200288544Y-198278146D01*
X200214214Y-198458138D01*
X200136978Y-198642753D01*
X200059268Y-198826213D01*
X199983511Y-199002741D01*
X199912137Y-199166559D01*
X199847574Y-199311892D01*
X199792252Y-199432962D01*
X199748600Y-199523992D01*
X199719046Y-199579205D01*
X199707144Y-199593706D01*
X199670777Y-199582414D01*
X199602730Y-199552130D01*
X199514737Y-199508265D01*
X199466351Y-199482620D01*
X199260863Y-199371515D01*
X199016068Y-199537091D01*
X198891106Y-199621915D01*
X198754295Y-199715261D01*
X198626089Y-199803153D01*
X198561871Y-199847412D01*
X198471551Y-199908063D01*
X198395071Y-199956126D01*
X198342407Y-199985515D01*
X198325302Y-199991727D01*
X198300405Y-199974968D01*
X198245305Y-199928181D01*
X198165343Y-199856225D01*
X198065861Y-199763957D01*
X197952200Y-199656235D01*
X197880315Y-199587071D01*
X197754551Y-199463502D01*
X197645863Y-199352979D01*
X197558645Y-199260230D01*
X197497289Y-199189982D01*
X197466191Y-199146965D01*
X197463208Y-199138235D01*
X197477053Y-199105029D01*
X197515312Y-199037887D01*
X197573742Y-198943608D01*
X197648097Y-198828990D01*
X197734135Y-198700828D01*
X197758603Y-198665098D01*
X197847755Y-198535234D01*
X197927738Y-198418314D01*
X197994080Y-198320907D01*
X198042311Y-198249584D01*
X198067957Y-198210915D01*
X198070435Y-198206917D01*
X198066729Y-198176100D01*
X198047061Y-198108344D01*
X198014860Y-198012584D01*
X197973555Y-197897754D01*
X197926575Y-197772789D01*
X197877349Y-197646624D01*
X197829308Y-197528193D01*
X197785881Y-197426430D01*
X197750496Y-197350271D01*
X197726584Y-197308649D01*
X197724884Y-197306653D01*
X197710262Y-197294758D01*
X197685565Y-197282995D01*
X197645372Y-197270146D01*
X197584263Y-197254994D01*
X197496817Y-197236321D01*
X197377612Y-197212910D01*
X197221227Y-197183542D01*
X197022243Y-197147000D01*
X196979160Y-197139143D01*
X196851471Y-197114472D01*
X196740153Y-197090338D01*
X196655045Y-197069069D01*
X196605983Y-197052993D01*
X196599405Y-197049245D01*
X196588564Y-197016018D01*
X196579753Y-196941766D01*
X196572976Y-196835121D01*
X196568240Y-196704712D01*
X196565550Y-196559172D01*
X196564913Y-196407131D01*
X196566334Y-196257221D01*
X196569820Y-196118073D01*
X196575376Y-195998317D01*
X196583008Y-195906586D01*
X196592722Y-195851511D01*
X196598578Y-195840238D01*
X196631180Y-195828868D01*
X196705418Y-195810369D01*
X196813896Y-195786347D01*
X196949217Y-195758407D01*
X197103985Y-195728153D01*
X197188308Y-195712296D01*
X197348296Y-195682389D01*
X197490967Y-195655295D01*
X197609348Y-195632376D01*
X197696465Y-195614988D01*
X197745345Y-195604492D01*
X197753390Y-195602165D01*
X197766987Y-195575931D01*
X197795729Y-195512740D01*
X197835785Y-195421622D01*
X197883324Y-195311602D01*
X197934515Y-195191710D01*
X197985526Y-195070972D01*
X198032526Y-194958416D01*
X198071684Y-194863071D01*
X198099169Y-194793962D01*
X198111149Y-194760119D01*
X198111372Y-194758640D01*
X198097791Y-194731942D01*
X198059715Y-194670505D01*
X198001147Y-194580434D01*
X197926088Y-194467835D01*
X197838540Y-194338815D01*
X197787647Y-194264706D01*
X197694909Y-194128822D01*
X197612541Y-194005454D01*
X197544561Y-193900842D01*
X197494988Y-193821228D01*
X197467842Y-193772852D01*
X197463921Y-193762007D01*
X197480775Y-193736765D01*
X197527368Y-193682869D01*
X197597749Y-193606358D01*
X197685965Y-193513268D01*
X197786065Y-193409640D01*
X197892098Y-193301509D01*
X197998111Y-193194915D01*
X198098152Y-193095895D01*
X198186270Y-193010487D01*
X198256513Y-192944730D01*
X198302928Y-192904661D01*
X198318456Y-192895098D01*
X198343739Y-192908545D01*
X198404211Y-192946320D01*
X198493992Y-193004580D01*
X198607203Y-193079479D01*
X198737964Y-193167170D01*
X198836600Y-193233978D01*
X199334957Y-193572857D01*
X199750371Y-193401610D01*
X200165784Y-193230363D01*
X200278366Y-192633172D01*
X200390949Y-192035980D01*
X201633952Y-192035980D01*
X201746535Y-192633172D01*
D17*
X184261905Y-159452381D02*
X184261905Y-158452381D01*
X184833334Y-159452381D02*
X184404762Y-158880952D01*
X184833334Y-158452381D02*
X184261905Y-159023810D01*
X185166667Y-158452381D02*
X185785715Y-158452381D01*
X185452381Y-158833333D01*
X185595239Y-158833333D01*
X185690477Y-158880952D01*
X185738096Y-158928571D01*
X185785715Y-159023810D01*
X185785715Y-159261905D01*
X185738096Y-159357143D01*
X185690477Y-159404762D01*
X185595239Y-159452381D01*
X185309524Y-159452381D01*
X185214286Y-159404762D01*
X185166667Y-159357143D01*
X203833334Y-132357143D02*
X203785715Y-132404762D01*
X203642858Y-132452381D01*
X203547620Y-132452381D01*
X203404762Y-132404762D01*
X203309524Y-132309524D01*
X203261905Y-132214286D01*
X203214286Y-132023810D01*
X203214286Y-131880952D01*
X203261905Y-131690476D01*
X203309524Y-131595238D01*
X203404762Y-131500000D01*
X203547620Y-131452381D01*
X203642858Y-131452381D01*
X203785715Y-131500000D01*
X203833334Y-131547619D01*
X204785715Y-132452381D02*
X204214286Y-132452381D01*
X204500000Y-132452381D02*
X204500000Y-131452381D01*
X204404762Y-131595238D01*
X204309524Y-131690476D01*
X204214286Y-131738095D01*
X186333334Y-175357143D02*
X186285715Y-175404762D01*
X186142858Y-175452381D01*
X186047620Y-175452381D01*
X185904762Y-175404762D01*
X185809524Y-175309524D01*
X185761905Y-175214286D01*
X185714286Y-175023810D01*
X185714286Y-174880952D01*
X185761905Y-174690476D01*
X185809524Y-174595238D01*
X185904762Y-174500000D01*
X186047620Y-174452381D01*
X186142858Y-174452381D01*
X186285715Y-174500000D01*
X186333334Y-174547619D01*
X186714286Y-174547619D02*
X186761905Y-174500000D01*
X186857143Y-174452381D01*
X187095239Y-174452381D01*
X187190477Y-174500000D01*
X187238096Y-174547619D01*
X187285715Y-174642857D01*
X187285715Y-174738095D01*
X187238096Y-174880952D01*
X186666667Y-175452381D01*
X187285715Y-175452381D01*
X174333334Y-175357143D02*
X174285715Y-175404762D01*
X174142858Y-175452381D01*
X174047620Y-175452381D01*
X173904762Y-175404762D01*
X173809524Y-175309524D01*
X173761905Y-175214286D01*
X173714286Y-175023810D01*
X173714286Y-174880952D01*
X173761905Y-174690476D01*
X173809524Y-174595238D01*
X173904762Y-174500000D01*
X174047620Y-174452381D01*
X174142858Y-174452381D01*
X174285715Y-174500000D01*
X174333334Y-174547619D01*
X174666667Y-174452381D02*
X175285715Y-174452381D01*
X174952381Y-174833333D01*
X175095239Y-174833333D01*
X175190477Y-174880952D01*
X175238096Y-174928571D01*
X175285715Y-175023810D01*
X175285715Y-175261905D01*
X175238096Y-175357143D01*
X175190477Y-175404762D01*
X175095239Y-175452381D01*
X174809524Y-175452381D01*
X174714286Y-175404762D01*
X174666667Y-175357143D01*
X204981993Y-182198584D02*
X204934374Y-182246203D01*
X204791517Y-182293822D01*
X204696279Y-182293822D01*
X204553421Y-182246203D01*
X204458183Y-182150965D01*
X204410564Y-182055727D01*
X204362945Y-181865251D01*
X204362945Y-181722393D01*
X204410564Y-181531917D01*
X204458183Y-181436679D01*
X204553421Y-181341441D01*
X204696279Y-181293822D01*
X204791517Y-181293822D01*
X204934374Y-181341441D01*
X204981993Y-181389060D01*
X205839136Y-181627155D02*
X205839136Y-182293822D01*
X205601040Y-181246203D02*
X205362945Y-181960489D01*
X205981993Y-181960489D01*
X244357143Y-207166666D02*
X244404762Y-207214285D01*
X244452381Y-207357142D01*
X244452381Y-207452380D01*
X244404762Y-207595238D01*
X244309524Y-207690476D01*
X244214286Y-207738095D01*
X244023810Y-207785714D01*
X243880952Y-207785714D01*
X243690476Y-207738095D01*
X243595238Y-207690476D01*
X243500000Y-207595238D01*
X243452381Y-207452380D01*
X243452381Y-207357142D01*
X243500000Y-207214285D01*
X243547619Y-207166666D01*
X243452381Y-206261904D02*
X243452381Y-206738095D01*
X243928571Y-206785714D01*
X243880952Y-206738095D01*
X243833333Y-206642857D01*
X243833333Y-206404761D01*
X243880952Y-206309523D01*
X243928571Y-206261904D01*
X244023810Y-206214285D01*
X244261905Y-206214285D01*
X244357143Y-206261904D01*
X244404762Y-206309523D01*
X244452381Y-206404761D01*
X244452381Y-206642857D01*
X244404762Y-206738095D01*
X244357143Y-206785714D01*
X240833334Y-213357143D02*
X240785715Y-213404762D01*
X240642858Y-213452381D01*
X240547620Y-213452381D01*
X240404762Y-213404762D01*
X240309524Y-213309524D01*
X240261905Y-213214286D01*
X240214286Y-213023810D01*
X240214286Y-212880952D01*
X240261905Y-212690476D01*
X240309524Y-212595238D01*
X240404762Y-212500000D01*
X240547620Y-212452381D01*
X240642858Y-212452381D01*
X240785715Y-212500000D01*
X240833334Y-212547619D01*
X241690477Y-212452381D02*
X241500000Y-212452381D01*
X241404762Y-212500000D01*
X241357143Y-212547619D01*
X241261905Y-212690476D01*
X241214286Y-212880952D01*
X241214286Y-213261905D01*
X241261905Y-213357143D01*
X241309524Y-213404762D01*
X241404762Y-213452381D01*
X241595239Y-213452381D01*
X241690477Y-213404762D01*
X241738096Y-213357143D01*
X241785715Y-213261905D01*
X241785715Y-213023810D01*
X241738096Y-212928571D01*
X241690477Y-212880952D01*
X241595239Y-212833333D01*
X241404762Y-212833333D01*
X241309524Y-212880952D01*
X241261905Y-212928571D01*
X241214286Y-213023810D01*
X207981993Y-182198584D02*
X207934374Y-182246203D01*
X207791517Y-182293822D01*
X207696279Y-182293822D01*
X207553421Y-182246203D01*
X207458183Y-182150965D01*
X207410564Y-182055727D01*
X207362945Y-181865251D01*
X207362945Y-181722393D01*
X207410564Y-181531917D01*
X207458183Y-181436679D01*
X207553421Y-181341441D01*
X207696279Y-181293822D01*
X207791517Y-181293822D01*
X207934374Y-181341441D01*
X207981993Y-181389060D01*
X208315326Y-181293822D02*
X208981993Y-181293822D01*
X208553421Y-182293822D01*
X240833334Y-201357143D02*
X240785715Y-201404762D01*
X240642858Y-201452381D01*
X240547620Y-201452381D01*
X240404762Y-201404762D01*
X240309524Y-201309524D01*
X240261905Y-201214286D01*
X240214286Y-201023810D01*
X240214286Y-200880952D01*
X240261905Y-200690476D01*
X240309524Y-200595238D01*
X240404762Y-200500000D01*
X240547620Y-200452381D01*
X240642858Y-200452381D01*
X240785715Y-200500000D01*
X240833334Y-200547619D01*
X241404762Y-200880952D02*
X241309524Y-200833333D01*
X241261905Y-200785714D01*
X241214286Y-200690476D01*
X241214286Y-200642857D01*
X241261905Y-200547619D01*
X241309524Y-200500000D01*
X241404762Y-200452381D01*
X241595239Y-200452381D01*
X241690477Y-200500000D01*
X241738096Y-200547619D01*
X241785715Y-200642857D01*
X241785715Y-200690476D01*
X241738096Y-200785714D01*
X241690477Y-200833333D01*
X241595239Y-200880952D01*
X241404762Y-200880952D01*
X241309524Y-200928571D01*
X241261905Y-200976190D01*
X241214286Y-201071429D01*
X241214286Y-201261905D01*
X241261905Y-201357143D01*
X241309524Y-201404762D01*
X241404762Y-201452381D01*
X241595239Y-201452381D01*
X241690477Y-201404762D01*
X241738096Y-201357143D01*
X241785715Y-201261905D01*
X241785715Y-201071429D01*
X241738096Y-200976190D01*
X241690477Y-200928571D01*
X241595239Y-200880952D01*
X205833334Y-189357143D02*
X205785715Y-189404762D01*
X205642858Y-189452381D01*
X205547620Y-189452381D01*
X205404762Y-189404762D01*
X205309524Y-189309524D01*
X205261905Y-189214286D01*
X205214286Y-189023810D01*
X205214286Y-188880952D01*
X205261905Y-188690476D01*
X205309524Y-188595238D01*
X205404762Y-188500000D01*
X205547620Y-188452381D01*
X205642858Y-188452381D01*
X205785715Y-188500000D01*
X205833334Y-188547619D01*
X206309524Y-189452381D02*
X206500000Y-189452381D01*
X206595239Y-189404762D01*
X206642858Y-189357143D01*
X206738096Y-189214286D01*
X206785715Y-189023810D01*
X206785715Y-188642857D01*
X206738096Y-188547619D01*
X206690477Y-188500000D01*
X206595239Y-188452381D01*
X206404762Y-188452381D01*
X206309524Y-188500000D01*
X206261905Y-188547619D01*
X206214286Y-188642857D01*
X206214286Y-188880952D01*
X206261905Y-188976190D01*
X206309524Y-189023810D01*
X206404762Y-189071429D01*
X206595239Y-189071429D01*
X206690477Y-189023810D01*
X206738096Y-188976190D01*
X206785715Y-188880952D01*
X217005802Y-199484298D02*
X217053421Y-199531917D01*
X217101040Y-199674774D01*
X217101040Y-199770012D01*
X217053421Y-199912870D01*
X216958183Y-200008108D01*
X216862945Y-200055727D01*
X216672469Y-200103346D01*
X216529611Y-200103346D01*
X216339135Y-200055727D01*
X216243897Y-200008108D01*
X216148659Y-199912870D01*
X216101040Y-199770012D01*
X216101040Y-199674774D01*
X216148659Y-199531917D01*
X216196278Y-199484298D01*
X217101040Y-198531917D02*
X217101040Y-199103346D01*
X217101040Y-198817632D02*
X216101040Y-198817632D01*
X216243897Y-198912870D01*
X216339135Y-199008108D01*
X216386754Y-199103346D01*
X216101040Y-197912870D02*
X216101040Y-197817631D01*
X216148659Y-197722393D01*
X216196278Y-197674774D01*
X216291516Y-197627155D01*
X216481992Y-197579536D01*
X216720088Y-197579536D01*
X216910564Y-197627155D01*
X217005802Y-197674774D01*
X217053421Y-197722393D01*
X217101040Y-197817631D01*
X217101040Y-197912870D01*
X217053421Y-198008108D01*
X217005802Y-198055727D01*
X216910564Y-198103346D01*
X216720088Y-198150965D01*
X216481992Y-198150965D01*
X216291516Y-198103346D01*
X216196278Y-198055727D01*
X216148659Y-198008108D01*
X216101040Y-197912870D01*
X247357143Y-131357143D02*
X247309524Y-131404762D01*
X247166667Y-131452381D01*
X247071429Y-131452381D01*
X246928571Y-131404762D01*
X246833333Y-131309524D01*
X246785714Y-131214286D01*
X246738095Y-131023810D01*
X246738095Y-130880952D01*
X246785714Y-130690476D01*
X246833333Y-130595238D01*
X246928571Y-130500000D01*
X247071429Y-130452381D01*
X247166667Y-130452381D01*
X247309524Y-130500000D01*
X247357143Y-130547619D01*
X248309524Y-131452381D02*
X247738095Y-131452381D01*
X248023809Y-131452381D02*
X248023809Y-130452381D01*
X247928571Y-130595238D01*
X247833333Y-130690476D01*
X247738095Y-130738095D01*
X249261905Y-131452381D02*
X248690476Y-131452381D01*
X248976190Y-131452381D02*
X248976190Y-130452381D01*
X248880952Y-130595238D01*
X248785714Y-130690476D01*
X248690476Y-130738095D01*
X189261905Y-161952381D02*
X189261905Y-160952381D01*
X189500000Y-160952381D01*
X189642858Y-161000000D01*
X189738096Y-161095238D01*
X189785715Y-161190476D01*
X189833334Y-161380952D01*
X189833334Y-161523810D01*
X189785715Y-161714286D01*
X189738096Y-161809524D01*
X189642858Y-161904762D01*
X189500000Y-161952381D01*
X189261905Y-161952381D01*
X190785715Y-161952381D02*
X190214286Y-161952381D01*
X190500000Y-161952381D02*
X190500000Y-160952381D01*
X190404762Y-161095238D01*
X190309524Y-161190476D01*
X190214286Y-161238095D01*
X199411905Y-165452381D02*
X199411905Y-164452381D01*
X199650000Y-164452381D01*
X199792858Y-164500000D01*
X199888096Y-164595238D01*
X199935715Y-164690476D01*
X199983334Y-164880952D01*
X199983334Y-165023810D01*
X199935715Y-165214286D01*
X199888096Y-165309524D01*
X199792858Y-165404762D01*
X199650000Y-165452381D01*
X199411905Y-165452381D01*
X200316667Y-164452381D02*
X200935715Y-164452381D01*
X200602381Y-164833333D01*
X200745239Y-164833333D01*
X200840477Y-164880952D01*
X200888096Y-164928571D01*
X200935715Y-165023810D01*
X200935715Y-165261905D01*
X200888096Y-165357143D01*
X200840477Y-165404762D01*
X200745239Y-165452381D01*
X200459524Y-165452381D01*
X200364286Y-165404762D01*
X200316667Y-165357143D01*
X114261905Y-159452381D02*
X114261905Y-158452381D01*
X114833334Y-159452381D02*
X114404762Y-158880952D01*
X114833334Y-158452381D02*
X114261905Y-159023810D01*
X115785715Y-159452381D02*
X115214286Y-159452381D01*
X115500000Y-159452381D02*
X115500000Y-158452381D01*
X115404762Y-158595238D01*
X115309524Y-158690476D01*
X115214286Y-158738095D01*
X149261905Y-159452381D02*
X149261905Y-158452381D01*
X149833334Y-159452381D02*
X149404762Y-158880952D01*
X149833334Y-158452381D02*
X149261905Y-159023810D01*
X150214286Y-158547619D02*
X150261905Y-158500000D01*
X150357143Y-158452381D01*
X150595239Y-158452381D01*
X150690477Y-158500000D01*
X150738096Y-158547619D01*
X150785715Y-158642857D01*
X150785715Y-158738095D01*
X150738096Y-158880952D01*
X150166667Y-159452381D01*
X150785715Y-159452381D01*
X256833334Y-173452381D02*
X256500000Y-172976190D01*
X256261905Y-173452381D02*
X256261905Y-172452381D01*
X256642858Y-172452381D01*
X256738096Y-172500000D01*
X256785715Y-172547619D01*
X256833334Y-172642857D01*
X256833334Y-172785714D01*
X256785715Y-172880952D01*
X256738096Y-172928571D01*
X256642858Y-172976190D01*
X256261905Y-172976190D01*
X257785715Y-173452381D02*
X257214286Y-173452381D01*
X257500000Y-173452381D02*
X257500000Y-172452381D01*
X257404762Y-172595238D01*
X257309524Y-172690476D01*
X257214286Y-172738095D01*
X256833334Y-183352381D02*
X256500000Y-182876190D01*
X256261905Y-183352381D02*
X256261905Y-182352381D01*
X256642858Y-182352381D01*
X256738096Y-182400000D01*
X256785715Y-182447619D01*
X256833334Y-182542857D01*
X256833334Y-182685714D01*
X256785715Y-182780952D01*
X256738096Y-182828571D01*
X256642858Y-182876190D01*
X256261905Y-182876190D01*
X257214286Y-182447619D02*
X257261905Y-182400000D01*
X257357143Y-182352381D01*
X257595239Y-182352381D01*
X257690477Y-182400000D01*
X257738096Y-182447619D01*
X257785715Y-182542857D01*
X257785715Y-182638095D01*
X257738096Y-182780952D01*
X257166667Y-183352381D01*
X257785715Y-183352381D01*
X229833334Y-195952381D02*
X229500000Y-195476190D01*
X229261905Y-195952381D02*
X229261905Y-194952381D01*
X229642858Y-194952381D01*
X229738096Y-195000000D01*
X229785715Y-195047619D01*
X229833334Y-195142857D01*
X229833334Y-195285714D01*
X229785715Y-195380952D01*
X229738096Y-195428571D01*
X229642858Y-195476190D01*
X229261905Y-195476190D01*
X230166667Y-194952381D02*
X230785715Y-194952381D01*
X230452381Y-195333333D01*
X230595239Y-195333333D01*
X230690477Y-195380952D01*
X230738096Y-195428571D01*
X230785715Y-195523810D01*
X230785715Y-195761905D01*
X230738096Y-195857143D01*
X230690477Y-195904762D01*
X230595239Y-195952381D01*
X230309524Y-195952381D01*
X230214286Y-195904762D01*
X230166667Y-195857143D01*
X229833334Y-193952381D02*
X229500000Y-193476190D01*
X229261905Y-193952381D02*
X229261905Y-192952381D01*
X229642858Y-192952381D01*
X229738096Y-193000000D01*
X229785715Y-193047619D01*
X229833334Y-193142857D01*
X229833334Y-193285714D01*
X229785715Y-193380952D01*
X229738096Y-193428571D01*
X229642858Y-193476190D01*
X229261905Y-193476190D01*
X230690477Y-193285714D02*
X230690477Y-193952381D01*
X230452381Y-192904762D02*
X230214286Y-193619048D01*
X230833334Y-193619048D01*
X229833334Y-191952381D02*
X229500000Y-191476190D01*
X229261905Y-191952381D02*
X229261905Y-190952381D01*
X229642858Y-190952381D01*
X229738096Y-191000000D01*
X229785715Y-191047619D01*
X229833334Y-191142857D01*
X229833334Y-191285714D01*
X229785715Y-191380952D01*
X229738096Y-191428571D01*
X229642858Y-191476190D01*
X229261905Y-191476190D01*
X230738096Y-190952381D02*
X230261905Y-190952381D01*
X230214286Y-191428571D01*
X230261905Y-191380952D01*
X230357143Y-191333333D01*
X230595239Y-191333333D01*
X230690477Y-191380952D01*
X230738096Y-191428571D01*
X230785715Y-191523810D01*
X230785715Y-191761905D01*
X230738096Y-191857143D01*
X230690477Y-191904762D01*
X230595239Y-191952381D01*
X230357143Y-191952381D01*
X230261905Y-191904762D01*
X230214286Y-191857143D01*
X252833334Y-222952381D02*
X252500000Y-222476190D01*
X252261905Y-222952381D02*
X252261905Y-221952381D01*
X252642858Y-221952381D01*
X252738096Y-222000000D01*
X252785715Y-222047619D01*
X252833334Y-222142857D01*
X252833334Y-222285714D01*
X252785715Y-222380952D01*
X252738096Y-222428571D01*
X252642858Y-222476190D01*
X252261905Y-222476190D01*
X253690477Y-221952381D02*
X253500000Y-221952381D01*
X253404762Y-222000000D01*
X253357143Y-222047619D01*
X253261905Y-222190476D01*
X253214286Y-222380952D01*
X253214286Y-222761905D01*
X253261905Y-222857143D01*
X253309524Y-222904762D01*
X253404762Y-222952381D01*
X253595239Y-222952381D01*
X253690477Y-222904762D01*
X253738096Y-222857143D01*
X253785715Y-222761905D01*
X253785715Y-222523810D01*
X253738096Y-222428571D01*
X253690477Y-222380952D01*
X253595239Y-222333333D01*
X253404762Y-222333333D01*
X253309524Y-222380952D01*
X253261905Y-222428571D01*
X253214286Y-222523810D01*
X249833334Y-222952381D02*
X249500000Y-222476190D01*
X249261905Y-222952381D02*
X249261905Y-221952381D01*
X249642858Y-221952381D01*
X249738096Y-222000000D01*
X249785715Y-222047619D01*
X249833334Y-222142857D01*
X249833334Y-222285714D01*
X249785715Y-222380952D01*
X249738096Y-222428571D01*
X249642858Y-222476190D01*
X249261905Y-222476190D01*
X250166667Y-221952381D02*
X250833334Y-221952381D01*
X250404762Y-222952381D01*
X223783334Y-203952381D02*
X223450000Y-203476190D01*
X223211905Y-203952381D02*
X223211905Y-202952381D01*
X223592858Y-202952381D01*
X223688096Y-203000000D01*
X223735715Y-203047619D01*
X223783334Y-203142857D01*
X223783334Y-203285714D01*
X223735715Y-203380952D01*
X223688096Y-203428571D01*
X223592858Y-203476190D01*
X223211905Y-203476190D01*
X224354762Y-203380952D02*
X224259524Y-203333333D01*
X224211905Y-203285714D01*
X224164286Y-203190476D01*
X224164286Y-203142857D01*
X224211905Y-203047619D01*
X224259524Y-203000000D01*
X224354762Y-202952381D01*
X224545239Y-202952381D01*
X224640477Y-203000000D01*
X224688096Y-203047619D01*
X224735715Y-203142857D01*
X224735715Y-203190476D01*
X224688096Y-203285714D01*
X224640477Y-203333333D01*
X224545239Y-203380952D01*
X224354762Y-203380952D01*
X224259524Y-203428571D01*
X224211905Y-203476190D01*
X224164286Y-203571429D01*
X224164286Y-203761905D01*
X224211905Y-203857143D01*
X224259524Y-203904762D01*
X224354762Y-203952381D01*
X224545239Y-203952381D01*
X224640477Y-203904762D01*
X224688096Y-203857143D01*
X224735715Y-203761905D01*
X224735715Y-203571429D01*
X224688096Y-203476190D01*
X224640477Y-203428571D01*
X224545239Y-203380952D01*
X223733334Y-211952381D02*
X223400000Y-211476190D01*
X223161905Y-211952381D02*
X223161905Y-210952381D01*
X223542858Y-210952381D01*
X223638096Y-211000000D01*
X223685715Y-211047619D01*
X223733334Y-211142857D01*
X223733334Y-211285714D01*
X223685715Y-211380952D01*
X223638096Y-211428571D01*
X223542858Y-211476190D01*
X223161905Y-211476190D01*
X224209524Y-211952381D02*
X224400000Y-211952381D01*
X224495239Y-211904762D01*
X224542858Y-211857143D01*
X224638096Y-211714286D01*
X224685715Y-211523810D01*
X224685715Y-211142857D01*
X224638096Y-211047619D01*
X224590477Y-211000000D01*
X224495239Y-210952381D01*
X224304762Y-210952381D01*
X224209524Y-211000000D01*
X224161905Y-211047619D01*
X224114286Y-211142857D01*
X224114286Y-211380952D01*
X224161905Y-211476190D01*
X224209524Y-211523810D01*
X224304762Y-211571429D01*
X224495239Y-211571429D01*
X224590477Y-211523810D01*
X224638096Y-211476190D01*
X224685715Y-211380952D01*
X255357143Y-222952381D02*
X255023809Y-222476190D01*
X254785714Y-222952381D02*
X254785714Y-221952381D01*
X255166667Y-221952381D01*
X255261905Y-222000000D01*
X255309524Y-222047619D01*
X255357143Y-222142857D01*
X255357143Y-222285714D01*
X255309524Y-222380952D01*
X255261905Y-222428571D01*
X255166667Y-222476190D01*
X254785714Y-222476190D01*
X256309524Y-222952381D02*
X255738095Y-222952381D01*
X256023809Y-222952381D02*
X256023809Y-221952381D01*
X255928571Y-222095238D01*
X255833333Y-222190476D01*
X255738095Y-222238095D01*
X256928571Y-221952381D02*
X257023810Y-221952381D01*
X257119048Y-222000000D01*
X257166667Y-222047619D01*
X257214286Y-222142857D01*
X257261905Y-222333333D01*
X257261905Y-222571429D01*
X257214286Y-222761905D01*
X257166667Y-222857143D01*
X257119048Y-222904762D01*
X257023810Y-222952381D01*
X256928571Y-222952381D01*
X256833333Y-222904762D01*
X256785714Y-222857143D01*
X256738095Y-222761905D01*
X256690476Y-222571429D01*
X256690476Y-222333333D01*
X256738095Y-222142857D01*
X256785714Y-222047619D01*
X256833333Y-222000000D01*
X256928571Y-221952381D01*
X199357143Y-181452381D02*
X199023809Y-180976190D01*
X198785714Y-181452381D02*
X198785714Y-180452381D01*
X199166667Y-180452381D01*
X199261905Y-180500000D01*
X199309524Y-180547619D01*
X199357143Y-180642857D01*
X199357143Y-180785714D01*
X199309524Y-180880952D01*
X199261905Y-180928571D01*
X199166667Y-180976190D01*
X198785714Y-180976190D01*
X200309524Y-181452381D02*
X199738095Y-181452381D01*
X200023809Y-181452381D02*
X200023809Y-180452381D01*
X199928571Y-180595238D01*
X199833333Y-180690476D01*
X199738095Y-180738095D01*
X201261905Y-181452381D02*
X200690476Y-181452381D01*
X200976190Y-181452381D02*
X200976190Y-180452381D01*
X200880952Y-180595238D01*
X200785714Y-180690476D01*
X200690476Y-180738095D01*
X203857143Y-216552381D02*
X203523809Y-216076190D01*
X203285714Y-216552381D02*
X203285714Y-215552381D01*
X203666667Y-215552381D01*
X203761905Y-215600000D01*
X203809524Y-215647619D01*
X203857143Y-215742857D01*
X203857143Y-215885714D01*
X203809524Y-215980952D01*
X203761905Y-216028571D01*
X203666667Y-216076190D01*
X203285714Y-216076190D01*
X204809524Y-216552381D02*
X204238095Y-216552381D01*
X204523809Y-216552381D02*
X204523809Y-215552381D01*
X204428571Y-215695238D01*
X204333333Y-215790476D01*
X204238095Y-215838095D01*
X205190476Y-215647619D02*
X205238095Y-215600000D01*
X205333333Y-215552381D01*
X205571429Y-215552381D01*
X205666667Y-215600000D01*
X205714286Y-215647619D01*
X205761905Y-215742857D01*
X205761905Y-215838095D01*
X205714286Y-215980952D01*
X205142857Y-216552381D01*
X205761905Y-216552381D01*
X203857143Y-212352381D02*
X203523809Y-211876190D01*
X203285714Y-212352381D02*
X203285714Y-211352381D01*
X203666667Y-211352381D01*
X203761905Y-211400000D01*
X203809524Y-211447619D01*
X203857143Y-211542857D01*
X203857143Y-211685714D01*
X203809524Y-211780952D01*
X203761905Y-211828571D01*
X203666667Y-211876190D01*
X203285714Y-211876190D01*
X204809524Y-212352381D02*
X204238095Y-212352381D01*
X204523809Y-212352381D02*
X204523809Y-211352381D01*
X204428571Y-211495238D01*
X204333333Y-211590476D01*
X204238095Y-211638095D01*
X205142857Y-211352381D02*
X205761905Y-211352381D01*
X205428571Y-211733333D01*
X205571429Y-211733333D01*
X205666667Y-211780952D01*
X205714286Y-211828571D01*
X205761905Y-211923810D01*
X205761905Y-212161905D01*
X205714286Y-212257143D01*
X205666667Y-212304762D01*
X205571429Y-212352381D01*
X205285714Y-212352381D01*
X205190476Y-212304762D01*
X205142857Y-212257143D01*
X218857143Y-216502381D02*
X218523809Y-216026190D01*
X218285714Y-216502381D02*
X218285714Y-215502381D01*
X218666667Y-215502381D01*
X218761905Y-215550000D01*
X218809524Y-215597619D01*
X218857143Y-215692857D01*
X218857143Y-215835714D01*
X218809524Y-215930952D01*
X218761905Y-215978571D01*
X218666667Y-216026190D01*
X218285714Y-216026190D01*
X219809524Y-216502381D02*
X219238095Y-216502381D01*
X219523809Y-216502381D02*
X219523809Y-215502381D01*
X219428571Y-215645238D01*
X219333333Y-215740476D01*
X219238095Y-215788095D01*
X220666667Y-215835714D02*
X220666667Y-216502381D01*
X220428571Y-215454762D02*
X220190476Y-216169048D01*
X220809524Y-216169048D01*
X218857143Y-212402381D02*
X218523809Y-211926190D01*
X218285714Y-212402381D02*
X218285714Y-211402381D01*
X218666667Y-211402381D01*
X218761905Y-211450000D01*
X218809524Y-211497619D01*
X218857143Y-211592857D01*
X218857143Y-211735714D01*
X218809524Y-211830952D01*
X218761905Y-211878571D01*
X218666667Y-211926190D01*
X218285714Y-211926190D01*
X219809524Y-212402381D02*
X219238095Y-212402381D01*
X219523809Y-212402381D02*
X219523809Y-211402381D01*
X219428571Y-211545238D01*
X219333333Y-211640476D01*
X219238095Y-211688095D01*
X220714286Y-211402381D02*
X220238095Y-211402381D01*
X220190476Y-211878571D01*
X220238095Y-211830952D01*
X220333333Y-211783333D01*
X220571429Y-211783333D01*
X220666667Y-211830952D01*
X220714286Y-211878571D01*
X220761905Y-211973810D01*
X220761905Y-212211905D01*
X220714286Y-212307143D01*
X220666667Y-212354762D01*
X220571429Y-212402381D01*
X220333333Y-212402381D01*
X220238095Y-212354762D01*
X220190476Y-212307143D01*
X222238095Y-177404762D02*
X222380952Y-177452381D01*
X222619048Y-177452381D01*
X222714286Y-177404762D01*
X222761905Y-177357143D01*
X222809524Y-177261905D01*
X222809524Y-177166667D01*
X222761905Y-177071429D01*
X222714286Y-177023810D01*
X222619048Y-176976190D01*
X222428571Y-176928571D01*
X222333333Y-176880952D01*
X222285714Y-176833333D01*
X222238095Y-176738095D01*
X222238095Y-176642857D01*
X222285714Y-176547619D01*
X222333333Y-176500000D01*
X222428571Y-176452381D01*
X222666667Y-176452381D01*
X222809524Y-176500000D01*
X223761905Y-177452381D02*
X223190476Y-177452381D01*
X223476190Y-177452381D02*
X223476190Y-176452381D01*
X223380952Y-176595238D01*
X223285714Y-176690476D01*
X223190476Y-176738095D01*
X200188095Y-174952381D02*
X200759524Y-174952381D01*
X200473809Y-175952381D02*
X200473809Y-174952381D01*
X201616667Y-175952381D02*
X201045238Y-175952381D01*
X201330952Y-175952381D02*
X201330952Y-174952381D01*
X201235714Y-175095238D01*
X201140476Y-175190476D01*
X201045238Y-175238095D01*
X185738095Y-186452381D02*
X185738095Y-187261905D01*
X185785714Y-187357143D01*
X185833333Y-187404762D01*
X185928571Y-187452381D01*
X186119048Y-187452381D01*
X186214286Y-187404762D01*
X186261905Y-187357143D01*
X186309524Y-187261905D01*
X186309524Y-186452381D01*
X187309524Y-187452381D02*
X186738095Y-187452381D01*
X187023809Y-187452381D02*
X187023809Y-186452381D01*
X186928571Y-186595238D01*
X186833333Y-186690476D01*
X186738095Y-186738095D01*
X173738095Y-186452381D02*
X173738095Y-187261905D01*
X173785714Y-187357143D01*
X173833333Y-187404762D01*
X173928571Y-187452381D01*
X174119048Y-187452381D01*
X174214286Y-187404762D01*
X174261905Y-187357143D01*
X174309524Y-187261905D01*
X174309524Y-186452381D01*
X174738095Y-186547619D02*
X174785714Y-186500000D01*
X174880952Y-186452381D01*
X175119048Y-186452381D01*
X175214286Y-186500000D01*
X175261905Y-186547619D01*
X175309524Y-186642857D01*
X175309524Y-186738095D01*
X175261905Y-186880952D01*
X174690476Y-187452381D01*
X175309524Y-187452381D01*
X85452381Y-183761905D02*
X86261905Y-183761905D01*
X86357143Y-183714286D01*
X86404762Y-183666667D01*
X86452381Y-183571429D01*
X86452381Y-183380952D01*
X86404762Y-183285714D01*
X86357143Y-183238095D01*
X86261905Y-183190476D01*
X85452381Y-183190476D01*
X85452381Y-182809524D02*
X85452381Y-182190476D01*
X85833333Y-182523810D01*
X85833333Y-182380952D01*
X85880952Y-182285714D01*
X85928571Y-182238095D01*
X86023810Y-182190476D01*
X86261905Y-182190476D01*
X86357143Y-182238095D01*
X86404762Y-182285714D01*
X86452381Y-182380952D01*
X86452381Y-182666667D01*
X86404762Y-182761905D01*
X86357143Y-182809524D01*
X256738095Y-140952381D02*
X256738095Y-141761905D01*
X256785714Y-141857143D01*
X256833333Y-141904762D01*
X256928571Y-141952381D01*
X257119048Y-141952381D01*
X257214286Y-141904762D01*
X257261905Y-141857143D01*
X257309524Y-141761905D01*
X257309524Y-140952381D01*
X258214286Y-141285714D02*
X258214286Y-141952381D01*
X257976190Y-140904762D02*
X257738095Y-141619048D01*
X258357143Y-141619048D01*
X209886754Y-185293822D02*
X209886754Y-186103346D01*
X209934373Y-186198584D01*
X209981992Y-186246203D01*
X210077230Y-186293822D01*
X210267707Y-186293822D01*
X210362945Y-186246203D01*
X210410564Y-186198584D01*
X210458183Y-186103346D01*
X210458183Y-185293822D01*
X211410564Y-185293822D02*
X210934373Y-185293822D01*
X210886754Y-185770012D01*
X210934373Y-185722393D01*
X211029611Y-185674774D01*
X211267707Y-185674774D01*
X211362945Y-185722393D01*
X211410564Y-185770012D01*
X211458183Y-185865251D01*
X211458183Y-186103346D01*
X211410564Y-186198584D01*
X211362945Y-186246203D01*
X211267707Y-186293822D01*
X211029611Y-186293822D01*
X210934373Y-186246203D01*
X210886754Y-186198584D01*
X250738095Y-135952381D02*
X250738095Y-136761905D01*
X250785714Y-136857143D01*
X250833333Y-136904762D01*
X250928571Y-136952381D01*
X251119048Y-136952381D01*
X251214286Y-136904762D01*
X251261905Y-136857143D01*
X251309524Y-136761905D01*
X251309524Y-135952381D01*
X251690476Y-135952381D02*
X252357143Y-135952381D01*
X251928571Y-136952381D01*
X172318095Y-189792381D02*
X172318095Y-190601905D01*
X172365714Y-190697143D01*
X172413333Y-190744762D01*
X172508571Y-190792381D01*
X172699048Y-190792381D01*
X172794286Y-190744762D01*
X172841905Y-190697143D01*
X172889524Y-190601905D01*
X172889524Y-189792381D01*
X173508571Y-190220952D02*
X173413333Y-190173333D01*
X173365714Y-190125714D01*
X173318095Y-190030476D01*
X173318095Y-189982857D01*
X173365714Y-189887619D01*
X173413333Y-189840000D01*
X173508571Y-189792381D01*
X173699048Y-189792381D01*
X173794286Y-189840000D01*
X173841905Y-189887619D01*
X173889524Y-189982857D01*
X173889524Y-190030476D01*
X173841905Y-190125714D01*
X173794286Y-190173333D01*
X173699048Y-190220952D01*
X173508571Y-190220952D01*
X173413333Y-190268571D01*
X173365714Y-190316190D01*
X173318095Y-190411429D01*
X173318095Y-190601905D01*
X173365714Y-190697143D01*
X173413333Y-190744762D01*
X173508571Y-190792381D01*
X173699048Y-190792381D01*
X173794286Y-190744762D01*
X173841905Y-190697143D01*
X173889524Y-190601905D01*
X173889524Y-190411429D01*
X173841905Y-190316190D01*
X173794286Y-190268571D01*
X173699048Y-190220952D01*
X187318095Y-189792381D02*
X187318095Y-190601905D01*
X187365714Y-190697143D01*
X187413333Y-190744762D01*
X187508571Y-190792381D01*
X187699048Y-190792381D01*
X187794286Y-190744762D01*
X187841905Y-190697143D01*
X187889524Y-190601905D01*
X187889524Y-189792381D01*
X188413333Y-190792381D02*
X188603809Y-190792381D01*
X188699048Y-190744762D01*
X188746667Y-190697143D01*
X188841905Y-190554286D01*
X188889524Y-190363810D01*
X188889524Y-189982857D01*
X188841905Y-189887619D01*
X188794286Y-189840000D01*
X188699048Y-189792381D01*
X188508571Y-189792381D01*
X188413333Y-189840000D01*
X188365714Y-189887619D01*
X188318095Y-189982857D01*
X188318095Y-190220952D01*
X188365714Y-190316190D01*
X188413333Y-190363810D01*
X188508571Y-190411429D01*
X188699048Y-190411429D01*
X188794286Y-190363810D01*
X188841905Y-190316190D01*
X188889524Y-190220952D01*
X238761905Y-189452381D02*
X238761905Y-188452381D01*
X239000000Y-188452381D01*
X239142858Y-188500000D01*
X239238096Y-188595238D01*
X239285715Y-188690476D01*
X239333334Y-188880952D01*
X239333334Y-189023810D01*
X239285715Y-189214286D01*
X239238096Y-189309524D01*
X239142858Y-189404762D01*
X239000000Y-189452381D01*
X238761905Y-189452381D01*
X240190477Y-188785714D02*
X240190477Y-189452381D01*
X239952381Y-188404762D02*
X239714286Y-189119048D01*
X240333334Y-189119048D01*
X183261905Y-162452381D02*
X183261905Y-161452381D01*
X183500000Y-161452381D01*
X183642858Y-161500000D01*
X183738096Y-161595238D01*
X183785715Y-161690476D01*
X183833334Y-161880952D01*
X183833334Y-162023810D01*
X183785715Y-162214286D01*
X183738096Y-162309524D01*
X183642858Y-162404762D01*
X183500000Y-162452381D01*
X183261905Y-162452381D01*
X184214286Y-161547619D02*
X184261905Y-161500000D01*
X184357143Y-161452381D01*
X184595239Y-161452381D01*
X184690477Y-161500000D01*
X184738096Y-161547619D01*
X184785715Y-161642857D01*
X184785715Y-161738095D01*
X184738096Y-161880952D01*
X184166667Y-162452381D01*
X184785715Y-162452381D01*
X168357143Y-162452381D02*
X168023809Y-161976190D01*
X167785714Y-162452381D02*
X167785714Y-161452381D01*
X168166667Y-161452381D01*
X168261905Y-161500000D01*
X168309524Y-161547619D01*
X168357143Y-161642857D01*
X168357143Y-161785714D01*
X168309524Y-161880952D01*
X168261905Y-161928571D01*
X168166667Y-161976190D01*
X167785714Y-161976190D01*
X169309524Y-162452381D02*
X168738095Y-162452381D01*
X169023809Y-162452381D02*
X169023809Y-161452381D01*
X168928571Y-161595238D01*
X168833333Y-161690476D01*
X168738095Y-161738095D01*
X170166667Y-161452381D02*
X169976190Y-161452381D01*
X169880952Y-161500000D01*
X169833333Y-161547619D01*
X169738095Y-161690476D01*
X169690476Y-161880952D01*
X169690476Y-162261905D01*
X169738095Y-162357143D01*
X169785714Y-162404762D01*
X169880952Y-162452381D01*
X170071429Y-162452381D01*
X170166667Y-162404762D01*
X170214286Y-162357143D01*
X170261905Y-162261905D01*
X170261905Y-162023810D01*
X170214286Y-161928571D01*
X170166667Y-161880952D01*
X170071429Y-161833333D01*
X169880952Y-161833333D01*
X169785714Y-161880952D01*
X169738095Y-161928571D01*
X169690476Y-162023810D01*
X178357143Y-162452381D02*
X178023809Y-161976190D01*
X177785714Y-162452381D02*
X177785714Y-161452381D01*
X178166667Y-161452381D01*
X178261905Y-161500000D01*
X178309524Y-161547619D01*
X178357143Y-161642857D01*
X178357143Y-161785714D01*
X178309524Y-161880952D01*
X178261905Y-161928571D01*
X178166667Y-161976190D01*
X177785714Y-161976190D01*
X179309524Y-162452381D02*
X178738095Y-162452381D01*
X179023809Y-162452381D02*
X179023809Y-161452381D01*
X178928571Y-161595238D01*
X178833333Y-161690476D01*
X178738095Y-161738095D01*
X179642857Y-161452381D02*
X180309524Y-161452381D01*
X179880952Y-162452381D01*
X173357143Y-162452381D02*
X173023809Y-161976190D01*
X172785714Y-162452381D02*
X172785714Y-161452381D01*
X173166667Y-161452381D01*
X173261905Y-161500000D01*
X173309524Y-161547619D01*
X173357143Y-161642857D01*
X173357143Y-161785714D01*
X173309524Y-161880952D01*
X173261905Y-161928571D01*
X173166667Y-161976190D01*
X172785714Y-161976190D01*
X174309524Y-162452381D02*
X173738095Y-162452381D01*
X174023809Y-162452381D02*
X174023809Y-161452381D01*
X173928571Y-161595238D01*
X173833333Y-161690476D01*
X173738095Y-161738095D01*
X174880952Y-161880952D02*
X174785714Y-161833333D01*
X174738095Y-161785714D01*
X174690476Y-161690476D01*
X174690476Y-161642857D01*
X174738095Y-161547619D01*
X174785714Y-161500000D01*
X174880952Y-161452381D01*
X175071429Y-161452381D01*
X175166667Y-161500000D01*
X175214286Y-161547619D01*
X175261905Y-161642857D01*
X175261905Y-161690476D01*
X175214286Y-161785714D01*
X175166667Y-161833333D01*
X175071429Y-161880952D01*
X174880952Y-161880952D01*
X174785714Y-161928571D01*
X174738095Y-161976190D01*
X174690476Y-162071429D01*
X174690476Y-162261905D01*
X174738095Y-162357143D01*
X174785714Y-162404762D01*
X174880952Y-162452381D01*
X175071429Y-162452381D01*
X175166667Y-162404762D01*
X175214286Y-162357143D01*
X175261905Y-162261905D01*
X175261905Y-162071429D01*
X175214286Y-161976190D01*
X175166667Y-161928571D01*
X175071429Y-161880952D01*
X238357143Y-207642857D02*
X238404762Y-207690476D01*
X238452381Y-207833333D01*
X238452381Y-207928571D01*
X238404762Y-208071429D01*
X238309524Y-208166667D01*
X238214286Y-208214286D01*
X238023810Y-208261905D01*
X237880952Y-208261905D01*
X237690476Y-208214286D01*
X237595238Y-208166667D01*
X237500000Y-208071429D01*
X237452381Y-207928571D01*
X237452381Y-207833333D01*
X237500000Y-207690476D01*
X237547619Y-207642857D01*
X238452381Y-206690476D02*
X238452381Y-207261905D01*
X238452381Y-206976191D02*
X237452381Y-206976191D01*
X237595238Y-207071429D01*
X237690476Y-207166667D01*
X237738095Y-207261905D01*
X237547619Y-206309524D02*
X237500000Y-206261905D01*
X237452381Y-206166667D01*
X237452381Y-205928571D01*
X237500000Y-205833333D01*
X237547619Y-205785714D01*
X237642857Y-205738095D01*
X237738095Y-205738095D01*
X237880952Y-205785714D01*
X238452381Y-206357143D01*
X238452381Y-205738095D01*
X228738095Y-202952381D02*
X228738095Y-203761905D01*
X228785714Y-203857143D01*
X228833333Y-203904762D01*
X228928571Y-203952381D01*
X229119048Y-203952381D01*
X229214286Y-203904762D01*
X229261905Y-203857143D01*
X229309524Y-203761905D01*
X229309524Y-202952381D01*
X230214286Y-202952381D02*
X230023809Y-202952381D01*
X229928571Y-203000000D01*
X229880952Y-203047619D01*
X229785714Y-203190476D01*
X229738095Y-203380952D01*
X229738095Y-203761905D01*
X229785714Y-203857143D01*
X229833333Y-203904762D01*
X229928571Y-203952381D01*
X230119048Y-203952381D01*
X230214286Y-203904762D01*
X230261905Y-203857143D01*
X230309524Y-203761905D01*
X230309524Y-203523810D01*
X230261905Y-203428571D01*
X230214286Y-203380952D01*
X230119048Y-203333333D01*
X229928571Y-203333333D01*
X229833333Y-203380952D01*
X229785714Y-203428571D01*
X229738095Y-203523810D01*
X191357143Y-153357143D02*
X191309524Y-153404762D01*
X191166667Y-153452381D01*
X191071429Y-153452381D01*
X190928571Y-153404762D01*
X190833333Y-153309524D01*
X190785714Y-153214286D01*
X190738095Y-153023810D01*
X190738095Y-152880952D01*
X190785714Y-152690476D01*
X190833333Y-152595238D01*
X190928571Y-152500000D01*
X191071429Y-152452381D01*
X191166667Y-152452381D01*
X191309524Y-152500000D01*
X191357143Y-152547619D01*
X192309524Y-153452381D02*
X191738095Y-153452381D01*
X192023809Y-153452381D02*
X192023809Y-152452381D01*
X191928571Y-152595238D01*
X191833333Y-152690476D01*
X191738095Y-152738095D01*
X192642857Y-152452381D02*
X193261905Y-152452381D01*
X192928571Y-152833333D01*
X193071429Y-152833333D01*
X193166667Y-152880952D01*
X193214286Y-152928571D01*
X193261905Y-153023810D01*
X193261905Y-153261905D01*
X193214286Y-153357143D01*
X193166667Y-153404762D01*
X193071429Y-153452381D01*
X192785714Y-153452381D01*
X192690476Y-153404762D01*
X192642857Y-153357143D01*
M02*
