G04 #@! TF.FileFunction,Soldermask,Bot*
%FSLAX46Y46*%
G04 Gerber Fmt 4.6, Leading zero omitted, Abs format (unit mm)*
G04 Created by KiCad (PCBNEW 4.0.7-e2-6376~58~ubuntu16.04.1) date Wed Aug 29 18:27:50 2018*
%MOMM*%
%LPD*%
G01*
G04 APERTURE LIST*
%ADD10C,0.100000*%
%ADD11C,7.800000*%
%ADD12C,3.400000*%
%ADD13C,2.900000*%
%ADD14O,2.940000X4.210000*%
%ADD15C,4.400000*%
%ADD16R,2.100000X2.100000*%
%ADD17O,2.100000X2.100000*%
%ADD18O,2.900000X3.900000*%
%ADD19O,1.500000X2.600000*%
%ADD20R,1.900000X1.900000*%
%ADD21R,2.400000X2.400000*%
%ADD22C,5.400000*%
%ADD23C,8.400000*%
%ADD24C,1.924000*%
G04 APERTURE END LIST*
D10*
D11*
X267970000Y-236000000D03*
X177000000Y-199000000D03*
X78000000Y-236000000D03*
X268000000Y-86000000D03*
X158719581Y-88719581D03*
D12*
X212400000Y-153000000D03*
X212400000Y-160620000D03*
X192080000Y-153000000D03*
X187000000Y-153000000D03*
X197160000Y-153000000D03*
X192080000Y-160620000D03*
X187000000Y-160620000D03*
X197160000Y-160620000D03*
D13*
X201767767Y-180232233D03*
X198232233Y-183767767D03*
D14*
X87000000Y-223380000D03*
X87000000Y-231000000D03*
X92080000Y-223380000D03*
X92080000Y-231000000D03*
D15*
X207500000Y-101000000D03*
X198000000Y-101000000D03*
X188500000Y-101000000D03*
X179000000Y-101000000D03*
D16*
X243540000Y-213160000D03*
D17*
X241000000Y-213160000D03*
X243540000Y-210620000D03*
X241000000Y-210620000D03*
X243540000Y-208080000D03*
X241000000Y-208080000D03*
X243540000Y-205540000D03*
X241000000Y-205540000D03*
X243540000Y-203000000D03*
X241000000Y-203000000D03*
D14*
X194760000Y-223500000D03*
X194760000Y-231120000D03*
X199840000Y-223500000D03*
X199840000Y-231120000D03*
X210000000Y-223500000D03*
X204920000Y-223500000D03*
X204920000Y-231120000D03*
X210000000Y-231120000D03*
X164500000Y-223500000D03*
X164500000Y-231120000D03*
X169580000Y-223500000D03*
X169580000Y-231120000D03*
X134500000Y-223380000D03*
X134500000Y-231000000D03*
X139580000Y-223380000D03*
X139580000Y-231000000D03*
X149500000Y-223380000D03*
X149500000Y-231000000D03*
X154580000Y-223380000D03*
X154580000Y-231000000D03*
X179500000Y-223500000D03*
X179500000Y-231120000D03*
X184580000Y-223500000D03*
X184580000Y-231120000D03*
D15*
X105000000Y-224000000D03*
X114500000Y-224000000D03*
X124000000Y-224000000D03*
D12*
X212400000Y-114380000D03*
X212400000Y-122000000D03*
X192080000Y-114380000D03*
X187000000Y-114380000D03*
X197160000Y-114380000D03*
X192080000Y-122000000D03*
X187000000Y-122000000D03*
X197160000Y-122000000D03*
X212400000Y-134000000D03*
X212400000Y-141620000D03*
X192080000Y-134000000D03*
X187000000Y-134000000D03*
X197160000Y-134000000D03*
X192080000Y-141620000D03*
X187000000Y-141620000D03*
X197160000Y-141620000D03*
D18*
X234000000Y-159500000D03*
X257000000Y-159500000D03*
X225500000Y-97500000D03*
X245500000Y-97500000D03*
D19*
X264000000Y-171000000D03*
X262000000Y-171000000D03*
X260000000Y-171000000D03*
X258000000Y-171000000D03*
X256000000Y-171000000D03*
X254000000Y-171000000D03*
X252000000Y-171000000D03*
X250000000Y-171000000D03*
X248000000Y-171000000D03*
X246000000Y-171000000D03*
X244000000Y-171000000D03*
X242000000Y-171000000D03*
X240000000Y-171000000D03*
X238000000Y-171000000D03*
X236000000Y-171000000D03*
X234000000Y-171000000D03*
X234000000Y-195400000D03*
X236000000Y-195400000D03*
X238000000Y-195400000D03*
X240000000Y-195400000D03*
X242000000Y-195400000D03*
X244000000Y-195400000D03*
X246000000Y-195400000D03*
X248000000Y-195400000D03*
X250000000Y-195400000D03*
X252000000Y-195400000D03*
X254000000Y-195400000D03*
X256000000Y-195400000D03*
X258000000Y-195400000D03*
X260000000Y-195400000D03*
X262000000Y-195400000D03*
X264000000Y-195400000D03*
D20*
X162160000Y-216000000D03*
X159620000Y-216000000D03*
D21*
X149460000Y-216000000D03*
X141840000Y-216000000D03*
D20*
X162160000Y-208000000D03*
X159620000Y-208000000D03*
D21*
X149460000Y-208000000D03*
X141840000Y-208000000D03*
D22*
X178000000Y-141500000D03*
X178000000Y-161500000D03*
X178000000Y-181500000D03*
X78000000Y-141500000D03*
X78000000Y-161500000D03*
X78000000Y-181500000D03*
D23*
X152000000Y-103000000D03*
X152000000Y-195000000D03*
X104000000Y-103000000D03*
X104000000Y-195000000D03*
D12*
X140500000Y-86500000D03*
X135500000Y-86500000D03*
X130500000Y-86500000D03*
X125500000Y-86500000D03*
X120500000Y-86500000D03*
X115500000Y-86500000D03*
D24*
X237000000Y-233500000D03*
X239540000Y-233500000D03*
X242080000Y-233500000D03*
D16*
X268000000Y-215700000D03*
D17*
X268000000Y-213160000D03*
X268000000Y-210620000D03*
X268000000Y-208080000D03*
X268000000Y-205540000D03*
X268000000Y-203000000D03*
D11*
X78000000Y-86000000D03*
M02*
