G04 #@! TF.FileFunction,Copper,L2,Bot,Signal*
%FSLAX46Y46*%
G04 Gerber Fmt 4.6, Leading zero omitted, Abs format (unit mm)*
G04 Created by KiCad (PCBNEW 4.0.7-e2-6376~58~ubuntu16.04.1) date Wed Dec 12 02:29:56 2018*
%MOMM*%
%LPD*%
G01*
G04 APERTURE LIST*
%ADD10C,0.100000*%
%ADD11C,2.500000*%
%ADD12C,7.400000*%
%ADD13C,3.000000*%
%ADD14O,2.540000X3.810000*%
%ADD15R,1.700000X1.700000*%
%ADD16O,1.700000X1.700000*%
%ADD17O,3.500000X2.500000*%
%ADD18R,1.500000X1.500000*%
%ADD19R,2.000000X2.000000*%
%ADD20C,1.524000*%
%ADD21C,4.000000*%
%ADD22O,1.400000X2.540000*%
%ADD23C,0.900000*%
%ADD24C,0.600000*%
%ADD25C,1.200000*%
%ADD26C,0.600000*%
%ADD27C,0.400000*%
%ADD28C,1.000000*%
%ADD29C,5.000000*%
%ADD30C,3.600000*%
%ADD31C,0.254000*%
G04 APERTURE END LIST*
D10*
D11*
X197000000Y-153500000D03*
X202000000Y-153500000D03*
D12*
X254970000Y-235000000D03*
X90000000Y-235000000D03*
X255000000Y-125000000D03*
D13*
X185000000Y-147380000D03*
X185000000Y-155000000D03*
X164680000Y-147380000D03*
X159600000Y-147380000D03*
X169760000Y-147380000D03*
X164680000Y-155000000D03*
X159600000Y-155000000D03*
X169760000Y-155000000D03*
D11*
X213500000Y-132000000D03*
X218500000Y-132000000D03*
D14*
X185000000Y-138000000D03*
X185000000Y-130380000D03*
X179920000Y-138000000D03*
X179920000Y-130380000D03*
D15*
X215808659Y-176301441D03*
D16*
X215808659Y-178841441D03*
X213268659Y-176301441D03*
X213268659Y-178841441D03*
X210728659Y-176301441D03*
X210728659Y-178841441D03*
X208188659Y-176301441D03*
X208188659Y-178841441D03*
X205648659Y-176301441D03*
X205648659Y-178841441D03*
D14*
X226760000Y-222380000D03*
X226760000Y-230000000D03*
X231840000Y-222380000D03*
X231840000Y-230000000D03*
X242000000Y-222380000D03*
X236920000Y-222380000D03*
X236920000Y-230000000D03*
X242000000Y-230000000D03*
X196500000Y-222380000D03*
X196500000Y-230000000D03*
X201580000Y-222380000D03*
X201580000Y-230000000D03*
X166500000Y-222380000D03*
X166500000Y-230000000D03*
X171580000Y-222380000D03*
X171580000Y-230000000D03*
X181500000Y-222380000D03*
X181500000Y-230000000D03*
X186580000Y-222380000D03*
X186580000Y-230000000D03*
X211500000Y-222380000D03*
X211500000Y-230000000D03*
X216580000Y-222380000D03*
X216580000Y-230000000D03*
D13*
X115000000Y-147380000D03*
X115000000Y-155000000D03*
X94680000Y-147380000D03*
X89600000Y-147380000D03*
X99760000Y-147380000D03*
X94680000Y-155000000D03*
X89600000Y-155000000D03*
X99760000Y-155000000D03*
X150000000Y-147380000D03*
X150000000Y-155000000D03*
X129680000Y-147380000D03*
X124600000Y-147380000D03*
X134760000Y-147380000D03*
X129680000Y-155000000D03*
X124600000Y-155000000D03*
X134760000Y-155000000D03*
D17*
X156000000Y-201500000D03*
X156000000Y-178500000D03*
X94000000Y-210000000D03*
X94000000Y-190000000D03*
D18*
X171580000Y-193680000D03*
X171580000Y-196220000D03*
D19*
X171580000Y-206380000D03*
X171580000Y-214000000D03*
D18*
X186580000Y-193680000D03*
X186580000Y-196220000D03*
D19*
X186580000Y-206380000D03*
X186580000Y-214000000D03*
D20*
X233680000Y-175260000D03*
X231140000Y-175260000D03*
X228600000Y-175260000D03*
D15*
X238760000Y-175260000D03*
D16*
X241300000Y-175260000D03*
X243840000Y-175260000D03*
X246380000Y-175260000D03*
X248920000Y-175260000D03*
X251460000Y-175260000D03*
D12*
X90000000Y-125000000D03*
D14*
X200000000Y-138000000D03*
X200000000Y-130380000D03*
X194920000Y-138000000D03*
X194920000Y-130380000D03*
X240000000Y-138000000D03*
X240000000Y-130380000D03*
X234920000Y-138000000D03*
X234920000Y-130380000D03*
D21*
X115000000Y-230000000D03*
X115000000Y-224920000D03*
X135000000Y-230000000D03*
X135000000Y-224920000D03*
X155000000Y-230000000D03*
X155000000Y-224920000D03*
X105000000Y-230000000D03*
X105000000Y-224920000D03*
X125000000Y-230000000D03*
X125000000Y-224920000D03*
X145000000Y-230000000D03*
X145000000Y-224920000D03*
X105000000Y-135000000D03*
X105000000Y-129920000D03*
X125000000Y-135000000D03*
X125000000Y-129920000D03*
X145000000Y-135000000D03*
X145000000Y-129920000D03*
X115000000Y-135000000D03*
X115000000Y-129920000D03*
X135000000Y-135000000D03*
X135000000Y-129920000D03*
X155000000Y-135000000D03*
X155000000Y-129920000D03*
X169000000Y-130920000D03*
X169000000Y-136000000D03*
D22*
X217927912Y-145640000D03*
X220300000Y-145640000D03*
X222840000Y-145640000D03*
X225380000Y-145640000D03*
X227920000Y-145640000D03*
X230460000Y-145640000D03*
X233000000Y-145640000D03*
X235540000Y-145640000D03*
X238080000Y-145640000D03*
X240620000Y-145640000D03*
X243160000Y-145640000D03*
X245700000Y-145640000D03*
X248240000Y-145640000D03*
X250780000Y-145640000D03*
X253320000Y-145640000D03*
X255860000Y-145640000D03*
X217927912Y-168500000D03*
X220300000Y-168500000D03*
X222840000Y-168500000D03*
X225380000Y-168500000D03*
X227920000Y-168500000D03*
X230460000Y-168500000D03*
X233000000Y-168500000D03*
X235540000Y-168500000D03*
X238080000Y-168500000D03*
X240620000Y-168500000D03*
X243160000Y-168500000D03*
X245700000Y-168500000D03*
X248240000Y-168500000D03*
X250780000Y-168500000D03*
X253320000Y-168500000D03*
X255860000Y-168500000D03*
D23*
X222690609Y-197342502D03*
X207158156Y-193763009D03*
X200000000Y-177000000D03*
X182852857Y-174426993D03*
X171000000Y-174426993D03*
X220000000Y-174000000D03*
X222255582Y-208773488D03*
X248825000Y-184750000D03*
X248825000Y-196750000D03*
X248825000Y-208750000D03*
X216750000Y-198000000D03*
X216750000Y-198000000D03*
X206664241Y-183862581D03*
X203500000Y-191000000D03*
D24*
X232624345Y-208526575D03*
X233450064Y-207625261D03*
X231746290Y-207619446D03*
X232601085Y-207602001D03*
X232618530Y-206683243D03*
X233450064Y-208517853D03*
X233447157Y-206677428D03*
X231749198Y-206677428D03*
X231748534Y-208519201D03*
D23*
X203000000Y-211000000D03*
X215000000Y-211000000D03*
X222000000Y-206000000D03*
X244000000Y-203000000D03*
X244000000Y-206000000D03*
X244000000Y-193000000D03*
X257000000Y-183000000D03*
X251000000Y-133000000D03*
X194015841Y-189111963D03*
X199000000Y-189000000D03*
X211000000Y-200000000D03*
X222000000Y-200000000D03*
X180808711Y-185354866D03*
X198961371Y-184963253D03*
D24*
X205237904Y-188106475D03*
X208793370Y-188108559D03*
D23*
X209500000Y-163000000D03*
X209500000Y-167000000D03*
X245000000Y-133000000D03*
X256905681Y-134488175D03*
X205677770Y-173568994D03*
X169000000Y-187000000D03*
X194000000Y-187000000D03*
X203000000Y-187000000D03*
X246503833Y-187107512D03*
X228000000Y-187000000D03*
X253905000Y-184750000D03*
D25*
X97848832Y-123271247D03*
D24*
X226070884Y-214236688D03*
X226500000Y-205500000D03*
X227092852Y-214252020D03*
X226516885Y-207350425D03*
X229003605Y-214217520D03*
X227251311Y-208009909D03*
X228026031Y-214217520D03*
X227240272Y-209723542D03*
D21*
X90000000Y-161000000D03*
X124600000Y-160600000D03*
X156318565Y-162312381D03*
D24*
X250567416Y-179697388D03*
X255598020Y-180101429D03*
X222500000Y-194000000D03*
X216250000Y-193000000D03*
X218184384Y-192299990D03*
X222500000Y-193000000D03*
X227500000Y-191500000D03*
X217250000Y-191500000D03*
X225538164Y-178222148D03*
X229500000Y-182185022D03*
X224865164Y-179051657D03*
X229256168Y-183500000D03*
X229063695Y-143001342D03*
X226633741Y-177736964D03*
X229500000Y-181095741D03*
X255132023Y-182189081D03*
X250895048Y-180784690D03*
X226204161Y-188229005D03*
X215000000Y-188000000D03*
X224974706Y-189199121D03*
X215000000Y-189000000D03*
X235497888Y-203024772D03*
X213250000Y-202000000D03*
X234170308Y-201257003D03*
X213240780Y-201110186D03*
X221500000Y-202750000D03*
X219000000Y-202750000D03*
X229500000Y-179000000D03*
X228500000Y-179000000D03*
D25*
X156500000Y-215250000D03*
D24*
X228500000Y-151000000D03*
X220000000Y-151000000D03*
X229896599Y-152058026D03*
X220000000Y-152000000D03*
D23*
X197000000Y-145500000D03*
X189000000Y-159000000D03*
X185000000Y-159000000D03*
X198203932Y-171703932D03*
X189500000Y-171500000D03*
D26*
X207608155Y-194213008D02*
X207158156Y-193763009D01*
X209763798Y-196368651D02*
X207608155Y-194213008D01*
X221716758Y-196368651D02*
X209763798Y-196368651D01*
X222690609Y-197342502D02*
X221716758Y-196368651D01*
X194127804Y-189000000D02*
X194015841Y-189111963D01*
X199000000Y-189000000D02*
X194127804Y-189000000D01*
X222000000Y-200000000D02*
X211000000Y-200000000D01*
X198961371Y-184963253D02*
X198498857Y-185425767D01*
X198498857Y-185425767D02*
X180879612Y-185425767D01*
X180879612Y-185425767D02*
X180808711Y-185354866D01*
D27*
X205239988Y-188108559D02*
X205237904Y-188106475D01*
X208793370Y-188108559D02*
X205239988Y-188108559D01*
D26*
X209500000Y-167000000D02*
X209500000Y-163000000D01*
X245975460Y-133975460D02*
X245000000Y-133000000D01*
X252924461Y-133975460D02*
X245975460Y-133975460D01*
X256455682Y-134038176D02*
X256905681Y-134488175D01*
X256392966Y-133975460D02*
X256455682Y-134038176D01*
X252924461Y-133975460D02*
X256392966Y-133975460D01*
X205677770Y-173568994D02*
X205041374Y-173568994D01*
X204000000Y-174610368D02*
X204000000Y-178062834D01*
X204000000Y-178062834D02*
X204778607Y-178841441D01*
X204778607Y-178841441D02*
X205648659Y-178841441D01*
X205041374Y-173568994D02*
X204000000Y-174610368D01*
X194000000Y-187000000D02*
X169000000Y-187000000D01*
X194000000Y-187000000D02*
X202000000Y-187000000D01*
X228000000Y-187000000D02*
X203000000Y-187000000D01*
X203000000Y-187000000D02*
X202000000Y-187000000D01*
X253905000Y-184750000D02*
X253899072Y-184750000D01*
X253899072Y-184750000D02*
X251541560Y-187107512D01*
X251541560Y-187107512D02*
X247140229Y-187107512D01*
X247140229Y-187107512D02*
X246503833Y-187107512D01*
D28*
X179920000Y-130380000D02*
X179920000Y-138000000D01*
D29*
X105000000Y-129920000D02*
X105000000Y-135000000D01*
X115000000Y-129920000D02*
X105000000Y-129920000D01*
X115000000Y-129920000D02*
X115000000Y-135000000D01*
X105000000Y-135000000D02*
X115000000Y-135000000D01*
X99760000Y-147380000D02*
X99760000Y-155000000D01*
X105000000Y-135000000D02*
X105000000Y-142140000D01*
X105000000Y-142140000D02*
X99760000Y-147380000D01*
D30*
X99760000Y-155000000D02*
X94680000Y-155000000D01*
X99760000Y-147380000D02*
X94680000Y-147380000D01*
D28*
X169000000Y-136000000D02*
X169000000Y-130920000D01*
X195071180Y-123271247D02*
X169000000Y-123271247D01*
X169000000Y-123271247D02*
X98697360Y-123271247D01*
X169000000Y-130920000D02*
X169000000Y-123271247D01*
X200000000Y-130380000D02*
X200000000Y-128200067D01*
X200000000Y-128200067D02*
X195071180Y-123271247D01*
X98697360Y-123271247D02*
X97848832Y-123271247D01*
X200000000Y-130380000D02*
X200000000Y-138000000D01*
D29*
X125000000Y-135000000D02*
X125000000Y-129920000D01*
X135000000Y-135000000D02*
X125000000Y-135000000D01*
X135000000Y-129920000D02*
X135000000Y-135000000D01*
X125000000Y-129920000D02*
X135000000Y-129920000D01*
X134760000Y-147380000D02*
X134760000Y-155000000D01*
X135000000Y-135000000D02*
X135000000Y-147140000D01*
X135000000Y-147140000D02*
X134760000Y-147380000D01*
D30*
X134760000Y-155000000D02*
X129680000Y-155000000D01*
X134760000Y-147380000D02*
X129680000Y-147380000D01*
D29*
X155000000Y-135000000D02*
X156170075Y-135000000D01*
X168550075Y-147380000D02*
X169760000Y-147380000D01*
X156170075Y-135000000D02*
X168550075Y-147380000D01*
X145000000Y-135000000D02*
X145000000Y-129920000D01*
X155000000Y-135000000D02*
X145000000Y-135000000D01*
X155000000Y-129920000D02*
X155000000Y-135000000D01*
X145000000Y-129920000D02*
X155000000Y-129920000D01*
X169760000Y-147380000D02*
X169760000Y-155000000D01*
D30*
X169760000Y-155000000D02*
X164680000Y-155000000D01*
X169760000Y-147380000D02*
X164680000Y-147380000D01*
D27*
X225770885Y-206229115D02*
X225770885Y-213936689D01*
X225770885Y-213936689D02*
X226070884Y-214236688D01*
X226500000Y-205500000D02*
X225770885Y-206229115D01*
X226792853Y-213952021D02*
X227092852Y-214252020D01*
X226516885Y-213676053D02*
X226792853Y-213952021D01*
X226516885Y-207350425D02*
X226516885Y-213676053D01*
X229003605Y-209762203D02*
X229003605Y-213793256D01*
X229003605Y-213793256D02*
X229003605Y-214217520D01*
X227251311Y-208009909D02*
X229003605Y-209762203D01*
X228026031Y-213793256D02*
X228026031Y-214217520D01*
X228026031Y-210509301D02*
X228026031Y-213793256D01*
X227240272Y-209723542D02*
X228026031Y-210509301D01*
D29*
X115000000Y-224920000D02*
X115000000Y-230000000D01*
X105000000Y-224920000D02*
X105000000Y-230000000D01*
X115000000Y-230000000D02*
X105000000Y-230000000D01*
X105000000Y-224920000D02*
X115000000Y-224920000D01*
X90000000Y-161000000D02*
X105000000Y-176000000D01*
X105000000Y-176000000D02*
X105000000Y-224920000D01*
D30*
X89600000Y-155000000D02*
X89600000Y-160600000D01*
X89600000Y-160600000D02*
X90000000Y-161000000D01*
X89600000Y-147380000D02*
X89600000Y-155000000D01*
D29*
X124600000Y-224520000D02*
X125000000Y-224920000D01*
X124600000Y-160600000D02*
X124600000Y-224520000D01*
X135000000Y-224920000D02*
X135000000Y-230000000D01*
X125000000Y-224920000D02*
X125000000Y-230000000D01*
X135000000Y-230000000D02*
X125000000Y-230000000D01*
X125000000Y-224920000D02*
X135000000Y-224920000D01*
D30*
X124600000Y-155000000D02*
X124600000Y-160600000D01*
X124600000Y-147380000D02*
X124600000Y-155000000D01*
D29*
X145000000Y-224920000D02*
X145000000Y-170088759D01*
X145000000Y-170088759D02*
X150776379Y-164312380D01*
X150776379Y-164312380D02*
X154318566Y-164312380D01*
X154318566Y-164312380D02*
X156318565Y-162312381D01*
D30*
X158318564Y-160312382D02*
X156318565Y-162312381D01*
X159600000Y-159030946D02*
X158318564Y-160312382D01*
X159600000Y-155000000D02*
X159600000Y-159030946D01*
D29*
X145000000Y-224920000D02*
X145000000Y-230000000D01*
X155000000Y-224920000D02*
X155000000Y-230000000D01*
X145000000Y-230000000D02*
X155000000Y-230000000D01*
X145000000Y-224920000D02*
X155000000Y-224920000D01*
D30*
X159600000Y-147380000D02*
X159600000Y-155000000D01*
D27*
X250991680Y-179697388D02*
X250567416Y-179697388D01*
X255193979Y-179697388D02*
X250991680Y-179697388D01*
X255598020Y-180101429D02*
X255193979Y-179697388D01*
X221500000Y-193000000D02*
X222500000Y-194000000D01*
X216250000Y-193000000D02*
X221500000Y-193000000D01*
X218608648Y-192299990D02*
X218184384Y-192299990D01*
X221799990Y-192299990D02*
X218608648Y-192299990D01*
X222500000Y-193000000D02*
X221799990Y-192299990D01*
X217250000Y-191500000D02*
X227500000Y-191500000D01*
X229500000Y-182185022D02*
X229302535Y-182185022D01*
X229302535Y-182185022D02*
X225538164Y-178420651D01*
X225538164Y-178420651D02*
X225538164Y-178222148D01*
X229256168Y-183500000D02*
X224865164Y-179108996D01*
X224865164Y-179108996D02*
X224865164Y-179051657D01*
X228639431Y-143001342D02*
X229063695Y-143001342D01*
X227448658Y-143001342D02*
X228639431Y-143001342D01*
X225380000Y-145070000D02*
X227448658Y-143001342D01*
X225380000Y-145640000D02*
X225380000Y-145070000D01*
X226633741Y-178161228D02*
X226633741Y-177736964D01*
X226633741Y-178229482D02*
X226633741Y-178161228D01*
X229500000Y-181095741D02*
X226633741Y-178229482D01*
X254832024Y-181889082D02*
X255132023Y-182189081D01*
X253727632Y-180784690D02*
X254832024Y-181889082D01*
X250895048Y-180784690D02*
X253727632Y-180784690D01*
X225975156Y-188000000D02*
X226204161Y-188229005D01*
X215000000Y-188000000D02*
X225975156Y-188000000D01*
X224775585Y-189000000D02*
X224974706Y-189199121D01*
X215000000Y-189000000D02*
X224775585Y-189000000D01*
X213250000Y-202000000D02*
X213275227Y-201974773D01*
X213275227Y-201974773D02*
X234969642Y-201974773D01*
X234969642Y-201974773D02*
X235497888Y-202503019D01*
X235497888Y-202503019D02*
X235497888Y-203024772D01*
X213240780Y-201110186D02*
X234023491Y-201110186D01*
X234023491Y-201110186D02*
X234170308Y-201257003D01*
X219000000Y-202750000D02*
X221500000Y-202750000D01*
X229500000Y-179000000D02*
X229940000Y-179000000D01*
X229940000Y-179000000D02*
X233680000Y-175260000D01*
X228500000Y-179000000D02*
X228500000Y-175360000D01*
X228500000Y-175360000D02*
X228600000Y-175260000D01*
D28*
X156500000Y-215250000D02*
X156500000Y-210558236D01*
X156500000Y-210558236D02*
X160678236Y-206380000D01*
X160678236Y-206380000D02*
X162591980Y-206380000D01*
X185000000Y-138000000D02*
X185000000Y-138635000D01*
X162591980Y-171908020D02*
X162591980Y-206380000D01*
X185000000Y-138635000D02*
X177500000Y-146135000D01*
X177500000Y-146135000D02*
X177500000Y-157000000D01*
X177500000Y-157000000D02*
X162591980Y-171908020D01*
X162591980Y-206380000D02*
X165406434Y-206380000D01*
X194920000Y-138000000D02*
X185000000Y-138000000D01*
X165406434Y-206380000D02*
X171580000Y-206380000D01*
X186580000Y-206380000D02*
X184580000Y-206380000D01*
X184580000Y-206380000D02*
X171580000Y-206380000D01*
X194920000Y-130380000D02*
X194920000Y-138000000D01*
X185000000Y-130380000D02*
X185000000Y-138000000D01*
D27*
X220000000Y-151000000D02*
X228500000Y-151000000D01*
X229838573Y-152000000D02*
X229896599Y-152058026D01*
X220000000Y-152000000D02*
X229838573Y-152000000D01*
X238080000Y-168500000D02*
X238080000Y-169070000D01*
X238080000Y-169070000D02*
X241948414Y-172938414D01*
X241948414Y-172938414D02*
X244058414Y-172938414D01*
X244058414Y-172938414D02*
X245530001Y-174410001D01*
X245530001Y-174410001D02*
X246380000Y-175260000D01*
X240620000Y-168500000D02*
X240620000Y-170227996D01*
X240620000Y-170227996D02*
X242237736Y-171845732D01*
X242237736Y-171845732D02*
X245505732Y-171845732D01*
X245505732Y-171845732D02*
X248070001Y-174410001D01*
X248070001Y-174410001D02*
X248920000Y-175260000D01*
D26*
X197000000Y-145500000D02*
X197000000Y-153500000D01*
X185000000Y-159000000D02*
X189000000Y-159000000D01*
X189703932Y-171703932D02*
X198203932Y-171703932D01*
X189500000Y-171500000D02*
X189703932Y-171703932D01*
D31*
G36*
X252547628Y-121322823D02*
X251327108Y-122541213D01*
X250665754Y-124133932D01*
X250664249Y-125858502D01*
X251322823Y-127452372D01*
X252541213Y-128672892D01*
X254133932Y-129334246D01*
X255858502Y-129335751D01*
X257452372Y-128677177D01*
X258672892Y-127458787D01*
X259290000Y-125972624D01*
X259290000Y-234103378D01*
X258647177Y-232547628D01*
X257428787Y-231327108D01*
X255836068Y-230665754D01*
X254111498Y-230664249D01*
X252517628Y-231322823D01*
X251297108Y-232541213D01*
X250635754Y-234133932D01*
X250634249Y-235858502D01*
X251292823Y-237452372D01*
X252511213Y-238672892D01*
X253997376Y-239290000D01*
X194127000Y-239290000D01*
X194127000Y-229315238D01*
X194595000Y-229315238D01*
X194595000Y-230684762D01*
X194740009Y-231413774D01*
X195152962Y-232031800D01*
X195770988Y-232444753D01*
X196500000Y-232589762D01*
X197229012Y-232444753D01*
X197847038Y-232031800D01*
X198259991Y-231413774D01*
X198405000Y-230684762D01*
X198405000Y-229315238D01*
X199675000Y-229315238D01*
X199675000Y-230684762D01*
X199820009Y-231413774D01*
X200232962Y-232031800D01*
X200850988Y-232444753D01*
X201580000Y-232589762D01*
X202309012Y-232444753D01*
X202927038Y-232031800D01*
X203339991Y-231413774D01*
X203485000Y-230684762D01*
X203485000Y-229315238D01*
X209595000Y-229315238D01*
X209595000Y-230684762D01*
X209740009Y-231413774D01*
X210152962Y-232031800D01*
X210770988Y-232444753D01*
X211500000Y-232589762D01*
X212229012Y-232444753D01*
X212847038Y-232031800D01*
X213259991Y-231413774D01*
X213405000Y-230684762D01*
X213405000Y-229315238D01*
X214675000Y-229315238D01*
X214675000Y-230684762D01*
X214820009Y-231413774D01*
X215232962Y-232031800D01*
X215850988Y-232444753D01*
X216580000Y-232589762D01*
X217309012Y-232444753D01*
X217927038Y-232031800D01*
X218339991Y-231413774D01*
X218485000Y-230684762D01*
X218485000Y-229315238D01*
X224855000Y-229315238D01*
X224855000Y-230684762D01*
X225000009Y-231413774D01*
X225412962Y-232031800D01*
X226030988Y-232444753D01*
X226760000Y-232589762D01*
X227489012Y-232444753D01*
X228107038Y-232031800D01*
X228519991Y-231413774D01*
X228665000Y-230684762D01*
X228665000Y-229315238D01*
X229935000Y-229315238D01*
X229935000Y-230684762D01*
X230080009Y-231413774D01*
X230492962Y-232031800D01*
X231110988Y-232444753D01*
X231840000Y-232589762D01*
X232569012Y-232444753D01*
X233187038Y-232031800D01*
X233599991Y-231413774D01*
X233745000Y-230684762D01*
X233745000Y-229315238D01*
X235015000Y-229315238D01*
X235015000Y-230684762D01*
X235160009Y-231413774D01*
X235572962Y-232031800D01*
X236190988Y-232444753D01*
X236920000Y-232589762D01*
X237649012Y-232444753D01*
X238267038Y-232031800D01*
X238679991Y-231413774D01*
X238825000Y-230684762D01*
X238825000Y-229315238D01*
X240095000Y-229315238D01*
X240095000Y-230684762D01*
X240240009Y-231413774D01*
X240652962Y-232031800D01*
X241270988Y-232444753D01*
X242000000Y-232589762D01*
X242729012Y-232444753D01*
X243347038Y-232031800D01*
X243759991Y-231413774D01*
X243905000Y-230684762D01*
X243905000Y-229315238D01*
X243759991Y-228586226D01*
X243347038Y-227968200D01*
X242729012Y-227555247D01*
X242000000Y-227410238D01*
X241270988Y-227555247D01*
X240652962Y-227968200D01*
X240240009Y-228586226D01*
X240095000Y-229315238D01*
X238825000Y-229315238D01*
X238679991Y-228586226D01*
X238267038Y-227968200D01*
X237649012Y-227555247D01*
X236920000Y-227410238D01*
X236190988Y-227555247D01*
X235572962Y-227968200D01*
X235160009Y-228586226D01*
X235015000Y-229315238D01*
X233745000Y-229315238D01*
X233599991Y-228586226D01*
X233187038Y-227968200D01*
X232569012Y-227555247D01*
X231840000Y-227410238D01*
X231110988Y-227555247D01*
X230492962Y-227968200D01*
X230080009Y-228586226D01*
X229935000Y-229315238D01*
X228665000Y-229315238D01*
X228519991Y-228586226D01*
X228107038Y-227968200D01*
X227489012Y-227555247D01*
X226760000Y-227410238D01*
X226030988Y-227555247D01*
X225412962Y-227968200D01*
X225000009Y-228586226D01*
X224855000Y-229315238D01*
X218485000Y-229315238D01*
X218339991Y-228586226D01*
X217927038Y-227968200D01*
X217309012Y-227555247D01*
X216580000Y-227410238D01*
X215850988Y-227555247D01*
X215232962Y-227968200D01*
X214820009Y-228586226D01*
X214675000Y-229315238D01*
X213405000Y-229315238D01*
X213259991Y-228586226D01*
X212847038Y-227968200D01*
X212229012Y-227555247D01*
X211500000Y-227410238D01*
X210770988Y-227555247D01*
X210152962Y-227968200D01*
X209740009Y-228586226D01*
X209595000Y-229315238D01*
X203485000Y-229315238D01*
X203339991Y-228586226D01*
X202927038Y-227968200D01*
X202309012Y-227555247D01*
X201580000Y-227410238D01*
X200850988Y-227555247D01*
X200232962Y-227968200D01*
X199820009Y-228586226D01*
X199675000Y-229315238D01*
X198405000Y-229315238D01*
X198259991Y-228586226D01*
X197847038Y-227968200D01*
X197229012Y-227555247D01*
X196500000Y-227410238D01*
X195770988Y-227555247D01*
X195152962Y-227968200D01*
X194740009Y-228586226D01*
X194595000Y-229315238D01*
X194127000Y-229315238D01*
X194127000Y-221695238D01*
X194595000Y-221695238D01*
X194595000Y-223064762D01*
X194740009Y-223793774D01*
X195152962Y-224411800D01*
X195770988Y-224824753D01*
X196500000Y-224969762D01*
X197229012Y-224824753D01*
X197847038Y-224411800D01*
X198259991Y-223793774D01*
X198405000Y-223064762D01*
X198405000Y-221695238D01*
X199675000Y-221695238D01*
X199675000Y-223064762D01*
X199820009Y-223793774D01*
X200232962Y-224411800D01*
X200850988Y-224824753D01*
X201580000Y-224969762D01*
X202309012Y-224824753D01*
X202927038Y-224411800D01*
X203339991Y-223793774D01*
X203485000Y-223064762D01*
X203485000Y-221695238D01*
X209595000Y-221695238D01*
X209595000Y-223064762D01*
X209740009Y-223793774D01*
X210152962Y-224411800D01*
X210770988Y-224824753D01*
X211500000Y-224969762D01*
X212229012Y-224824753D01*
X212847038Y-224411800D01*
X213259991Y-223793774D01*
X213405000Y-223064762D01*
X213405000Y-221695238D01*
X214675000Y-221695238D01*
X214675000Y-223064762D01*
X214820009Y-223793774D01*
X215232962Y-224411800D01*
X215850988Y-224824753D01*
X216580000Y-224969762D01*
X217309012Y-224824753D01*
X217927038Y-224411800D01*
X218339991Y-223793774D01*
X218485000Y-223064762D01*
X218485000Y-221695238D01*
X224855000Y-221695238D01*
X224855000Y-223064762D01*
X225000009Y-223793774D01*
X225412962Y-224411800D01*
X226030988Y-224824753D01*
X226760000Y-224969762D01*
X227489012Y-224824753D01*
X228107038Y-224411800D01*
X228519991Y-223793774D01*
X228665000Y-223064762D01*
X228665000Y-221695238D01*
X229935000Y-221695238D01*
X229935000Y-223064762D01*
X230080009Y-223793774D01*
X230492962Y-224411800D01*
X231110988Y-224824753D01*
X231840000Y-224969762D01*
X232569012Y-224824753D01*
X233187038Y-224411800D01*
X233599991Y-223793774D01*
X233745000Y-223064762D01*
X233745000Y-221695238D01*
X235015000Y-221695238D01*
X235015000Y-223064762D01*
X235160009Y-223793774D01*
X235572962Y-224411800D01*
X236190988Y-224824753D01*
X236920000Y-224969762D01*
X237649012Y-224824753D01*
X238267038Y-224411800D01*
X238679991Y-223793774D01*
X238825000Y-223064762D01*
X238825000Y-221695238D01*
X240095000Y-221695238D01*
X240095000Y-223064762D01*
X240240009Y-223793774D01*
X240652962Y-224411800D01*
X241270988Y-224824753D01*
X242000000Y-224969762D01*
X242729012Y-224824753D01*
X243347038Y-224411800D01*
X243759991Y-223793774D01*
X243905000Y-223064762D01*
X243905000Y-221695238D01*
X243759991Y-220966226D01*
X243347038Y-220348200D01*
X242729012Y-219935247D01*
X242000000Y-219790238D01*
X241270988Y-219935247D01*
X240652962Y-220348200D01*
X240240009Y-220966226D01*
X240095000Y-221695238D01*
X238825000Y-221695238D01*
X238679991Y-220966226D01*
X238267038Y-220348200D01*
X237649012Y-219935247D01*
X236920000Y-219790238D01*
X236190988Y-219935247D01*
X235572962Y-220348200D01*
X235160009Y-220966226D01*
X235015000Y-221695238D01*
X233745000Y-221695238D01*
X233599991Y-220966226D01*
X233187038Y-220348200D01*
X232569012Y-219935247D01*
X231840000Y-219790238D01*
X231110988Y-219935247D01*
X230492962Y-220348200D01*
X230080009Y-220966226D01*
X229935000Y-221695238D01*
X228665000Y-221695238D01*
X228519991Y-220966226D01*
X228107038Y-220348200D01*
X227489012Y-219935247D01*
X226760000Y-219790238D01*
X226030988Y-219935247D01*
X225412962Y-220348200D01*
X225000009Y-220966226D01*
X224855000Y-221695238D01*
X218485000Y-221695238D01*
X218339991Y-220966226D01*
X217927038Y-220348200D01*
X217309012Y-219935247D01*
X216580000Y-219790238D01*
X215850988Y-219935247D01*
X215232962Y-220348200D01*
X214820009Y-220966226D01*
X214675000Y-221695238D01*
X213405000Y-221695238D01*
X213259991Y-220966226D01*
X212847038Y-220348200D01*
X212229012Y-219935247D01*
X211500000Y-219790238D01*
X210770988Y-219935247D01*
X210152962Y-220348200D01*
X209740009Y-220966226D01*
X209595000Y-221695238D01*
X203485000Y-221695238D01*
X203339991Y-220966226D01*
X202927038Y-220348200D01*
X202309012Y-219935247D01*
X201580000Y-219790238D01*
X200850988Y-219935247D01*
X200232962Y-220348200D01*
X199820009Y-220966226D01*
X199675000Y-221695238D01*
X198405000Y-221695238D01*
X198259991Y-220966226D01*
X197847038Y-220348200D01*
X197229012Y-219935247D01*
X196500000Y-219790238D01*
X195770988Y-219935247D01*
X195152962Y-220348200D01*
X194740009Y-220966226D01*
X194595000Y-221695238D01*
X194127000Y-221695238D01*
X194127000Y-206229115D01*
X224935885Y-206229115D01*
X224935885Y-213936689D01*
X224999446Y-214256230D01*
X225098396Y-214404319D01*
X225177219Y-214522286D01*
X225277767Y-214765631D01*
X225540557Y-215028880D01*
X225884085Y-215171526D01*
X226256051Y-215171850D01*
X226563739Y-215044716D01*
X226906053Y-215186858D01*
X227278019Y-215187182D01*
X227601355Y-215053582D01*
X227839232Y-215152358D01*
X228211198Y-215152682D01*
X228515142Y-215027095D01*
X228816806Y-215152358D01*
X229188772Y-215152682D01*
X229532548Y-215010637D01*
X229795797Y-214747847D01*
X229938443Y-214404319D01*
X229938767Y-214032353D01*
X229838605Y-213789942D01*
X229838605Y-209762203D01*
X229775044Y-209442662D01*
X229594039Y-209171769D01*
X228143846Y-207721576D01*
X228044428Y-207480966D01*
X227781638Y-207217717D01*
X227438110Y-207075071D01*
X227414774Y-207075051D01*
X227310002Y-206821482D01*
X227047212Y-206558233D01*
X226747208Y-206433660D01*
X226788333Y-206392535D01*
X227028943Y-206293117D01*
X227292192Y-206030327D01*
X227434838Y-205686799D01*
X227435162Y-205314833D01*
X227293117Y-204971057D01*
X227030327Y-204707808D01*
X226686799Y-204565162D01*
X226314833Y-204564838D01*
X225971057Y-204706883D01*
X225707808Y-204969673D01*
X225607222Y-205211910D01*
X225180451Y-205638681D01*
X224999446Y-205909574D01*
X224935885Y-206229115D01*
X194127000Y-206229115D01*
X194127000Y-200214873D01*
X209914812Y-200214873D01*
X210079646Y-200613800D01*
X210384595Y-200919282D01*
X210783233Y-201084811D01*
X211214873Y-201085188D01*
X211578354Y-200935000D01*
X212305932Y-200935000D01*
X212305618Y-201295353D01*
X212417628Y-201566438D01*
X212315162Y-201813201D01*
X212314838Y-202185167D01*
X212456883Y-202528943D01*
X212719673Y-202792192D01*
X213063201Y-202934838D01*
X213435167Y-202935162D01*
X213738632Y-202809773D01*
X218064947Y-202809773D01*
X218064838Y-202935167D01*
X218206883Y-203278943D01*
X218469673Y-203542192D01*
X218813201Y-203684838D01*
X219185167Y-203685162D01*
X219427578Y-203585000D01*
X221072766Y-203585000D01*
X221313201Y-203684838D01*
X221685167Y-203685162D01*
X222028943Y-203543117D01*
X222292192Y-203280327D01*
X222434838Y-202936799D01*
X222434949Y-202809773D01*
X234574760Y-202809773D01*
X234563050Y-202837973D01*
X234562726Y-203209939D01*
X234704771Y-203553715D01*
X234967561Y-203816964D01*
X235311089Y-203959610D01*
X235683055Y-203959934D01*
X236026831Y-203817889D01*
X236290080Y-203555099D01*
X236432726Y-203211571D01*
X236433050Y-202839605D01*
X236332888Y-202597194D01*
X236332888Y-202503019D01*
X236291374Y-202294313D01*
X236269328Y-202183479D01*
X236088322Y-201912585D01*
X235560076Y-201384339D01*
X235289183Y-201203334D01*
X235105387Y-201166775D01*
X235105470Y-201071836D01*
X234963425Y-200728060D01*
X234700635Y-200464811D01*
X234357107Y-200322165D01*
X234259241Y-200322080D01*
X234023491Y-200275186D01*
X223060553Y-200275186D01*
X223084811Y-200216767D01*
X223085188Y-199785127D01*
X222920354Y-199386200D01*
X222615405Y-199080718D01*
X222216767Y-198915189D01*
X221785127Y-198914812D01*
X221421646Y-199065000D01*
X211577552Y-199065000D01*
X211216767Y-198915189D01*
X210785127Y-198914812D01*
X210386200Y-199079646D01*
X210080718Y-199384595D01*
X209915189Y-199783233D01*
X209914812Y-200214873D01*
X194127000Y-200214873D01*
X194127000Y-199500000D01*
X194116994Y-199450590D01*
X194088553Y-199408965D01*
X194046159Y-199381685D01*
X194000000Y-199373000D01*
X168127000Y-199373000D01*
X168127000Y-195470000D01*
X170182560Y-195470000D01*
X170182560Y-196970000D01*
X170226838Y-197205317D01*
X170365910Y-197421441D01*
X170578110Y-197566431D01*
X170830000Y-197617440D01*
X172330000Y-197617440D01*
X172565317Y-197573162D01*
X172781441Y-197434090D01*
X172926431Y-197221890D01*
X172977440Y-196970000D01*
X172977440Y-195470000D01*
X185182560Y-195470000D01*
X185182560Y-196970000D01*
X185226838Y-197205317D01*
X185365910Y-197421441D01*
X185578110Y-197566431D01*
X185830000Y-197617440D01*
X187330000Y-197617440D01*
X187565317Y-197573162D01*
X187781441Y-197434090D01*
X187926431Y-197221890D01*
X187977440Y-196970000D01*
X187977440Y-195470000D01*
X187933162Y-195234683D01*
X187794090Y-195018559D01*
X187702231Y-194955795D01*
X187868327Y-194789698D01*
X187965000Y-194556309D01*
X187965000Y-193977882D01*
X206072968Y-193977882D01*
X206237802Y-194376809D01*
X206542751Y-194682291D01*
X206905970Y-194833113D01*
X209102653Y-197029796D01*
X209405989Y-197232478D01*
X209465354Y-197244287D01*
X209763798Y-197303652D01*
X209763803Y-197303651D01*
X221329468Y-197303651D01*
X221621073Y-197595256D01*
X221770255Y-197956302D01*
X222075204Y-198261784D01*
X222473842Y-198427313D01*
X222905482Y-198427690D01*
X223304409Y-198262856D01*
X223609891Y-197957907D01*
X223775420Y-197559269D01*
X223775797Y-197127629D01*
X223610963Y-196728702D01*
X223306014Y-196423220D01*
X222942795Y-196272398D01*
X222377903Y-195707506D01*
X222074567Y-195504824D01*
X221716758Y-195433651D01*
X210151088Y-195433651D01*
X208227692Y-193510255D01*
X208093368Y-193185167D01*
X215314838Y-193185167D01*
X215456883Y-193528943D01*
X215719673Y-193792192D01*
X216063201Y-193934838D01*
X216435167Y-193935162D01*
X216677578Y-193835000D01*
X221154132Y-193835000D01*
X221607465Y-194288333D01*
X221706883Y-194528943D01*
X221969673Y-194792192D01*
X222313201Y-194934838D01*
X222685167Y-194935162D01*
X223028943Y-194793117D01*
X223292192Y-194530327D01*
X223434838Y-194186799D01*
X223435162Y-193814833D01*
X223304931Y-193499649D01*
X223434838Y-193186799D01*
X223435162Y-192814833D01*
X223293117Y-192471057D01*
X223157297Y-192335000D01*
X227072766Y-192335000D01*
X227313201Y-192434838D01*
X227685167Y-192435162D01*
X228028943Y-192293117D01*
X228292192Y-192030327D01*
X228434838Y-191686799D01*
X228435162Y-191314833D01*
X228293117Y-190971057D01*
X228030327Y-190707808D01*
X227686799Y-190565162D01*
X227314833Y-190564838D01*
X227072422Y-190665000D01*
X217677234Y-190665000D01*
X217436799Y-190565162D01*
X217064833Y-190564838D01*
X216721057Y-190706883D01*
X216457808Y-190969673D01*
X216315162Y-191313201D01*
X216314838Y-191685167D01*
X216456883Y-192028943D01*
X216532856Y-192105048D01*
X216436799Y-192065162D01*
X216064833Y-192064838D01*
X215721057Y-192206883D01*
X215457808Y-192469673D01*
X215315162Y-192813201D01*
X215314838Y-193185167D01*
X208093368Y-193185167D01*
X208078510Y-193149209D01*
X207773561Y-192843727D01*
X207374923Y-192678198D01*
X206943283Y-192677821D01*
X206544356Y-192842655D01*
X206238874Y-193147604D01*
X206073345Y-193546242D01*
X206072968Y-193977882D01*
X187965000Y-193977882D01*
X187965000Y-193965750D01*
X187806250Y-193807000D01*
X186707000Y-193807000D01*
X186707000Y-193827000D01*
X186453000Y-193827000D01*
X186453000Y-193807000D01*
X185353750Y-193807000D01*
X185195000Y-193965750D01*
X185195000Y-194556309D01*
X185291673Y-194789698D01*
X185457249Y-194955275D01*
X185378559Y-195005910D01*
X185233569Y-195218110D01*
X185182560Y-195470000D01*
X172977440Y-195470000D01*
X172933162Y-195234683D01*
X172794090Y-195018559D01*
X172702231Y-194955795D01*
X172868327Y-194789698D01*
X172965000Y-194556309D01*
X172965000Y-193965750D01*
X172806250Y-193807000D01*
X171707000Y-193807000D01*
X171707000Y-193827000D01*
X171453000Y-193827000D01*
X171453000Y-193807000D01*
X170353750Y-193807000D01*
X170195000Y-193965750D01*
X170195000Y-194556309D01*
X170291673Y-194789698D01*
X170457249Y-194955275D01*
X170378559Y-195005910D01*
X170233569Y-195218110D01*
X170182560Y-195470000D01*
X168127000Y-195470000D01*
X168127000Y-192803691D01*
X170195000Y-192803691D01*
X170195000Y-193394250D01*
X170353750Y-193553000D01*
X171453000Y-193553000D01*
X171453000Y-192453750D01*
X171707000Y-192453750D01*
X171707000Y-193553000D01*
X172806250Y-193553000D01*
X172965000Y-193394250D01*
X172965000Y-192803691D01*
X185195000Y-192803691D01*
X185195000Y-193394250D01*
X185353750Y-193553000D01*
X186453000Y-193553000D01*
X186453000Y-192453750D01*
X186707000Y-192453750D01*
X186707000Y-193553000D01*
X187806250Y-193553000D01*
X187965000Y-193394250D01*
X187965000Y-192803691D01*
X187868327Y-192570302D01*
X187689699Y-192391673D01*
X187456310Y-192295000D01*
X186865750Y-192295000D01*
X186707000Y-192453750D01*
X186453000Y-192453750D01*
X186294250Y-192295000D01*
X185703690Y-192295000D01*
X185470301Y-192391673D01*
X185291673Y-192570302D01*
X185195000Y-192803691D01*
X172965000Y-192803691D01*
X172868327Y-192570302D01*
X172689699Y-192391673D01*
X172456310Y-192295000D01*
X171865750Y-192295000D01*
X171707000Y-192453750D01*
X171453000Y-192453750D01*
X171294250Y-192295000D01*
X170703690Y-192295000D01*
X170470301Y-192391673D01*
X170291673Y-192570302D01*
X170195000Y-192803691D01*
X168127000Y-192803691D01*
X168127000Y-187661237D01*
X168384595Y-187919282D01*
X168783233Y-188084811D01*
X169214873Y-188085188D01*
X169578354Y-187935000D01*
X193422448Y-187935000D01*
X193722023Y-188059394D01*
X193402041Y-188191609D01*
X193096559Y-188496558D01*
X192931030Y-188895196D01*
X192930653Y-189326836D01*
X193095487Y-189725763D01*
X193400436Y-190031245D01*
X193799074Y-190196774D01*
X194230714Y-190197151D01*
X194629641Y-190032317D01*
X194727128Y-189935000D01*
X198422448Y-189935000D01*
X198783233Y-190084811D01*
X199214873Y-190085188D01*
X199613800Y-189920354D01*
X199919282Y-189615405D01*
X200084811Y-189216767D01*
X200085188Y-188785127D01*
X199920354Y-188386200D01*
X199615405Y-188080718D01*
X199264477Y-187935000D01*
X202422448Y-187935000D01*
X202783233Y-188084811D01*
X203214873Y-188085188D01*
X203578354Y-187935000D01*
X204303053Y-187935000D01*
X204302742Y-188291642D01*
X204444787Y-188635418D01*
X204707577Y-188898667D01*
X205051105Y-189041313D01*
X205423071Y-189041637D01*
X205660438Y-188943559D01*
X208366136Y-188943559D01*
X208606571Y-189043397D01*
X208978537Y-189043721D01*
X209322313Y-188901676D01*
X209585562Y-188638886D01*
X209728208Y-188295358D01*
X209728522Y-187935000D01*
X214065056Y-187935000D01*
X214064838Y-188185167D01*
X214195069Y-188500351D01*
X214065162Y-188813201D01*
X214064838Y-189185167D01*
X214206883Y-189528943D01*
X214469673Y-189792192D01*
X214813201Y-189934838D01*
X215185167Y-189935162D01*
X215427578Y-189835000D01*
X224288339Y-189835000D01*
X224444379Y-189991313D01*
X224787907Y-190133959D01*
X225159873Y-190134283D01*
X225503649Y-189992238D01*
X225766898Y-189729448D01*
X225909544Y-189385920D01*
X225909776Y-189119169D01*
X226017362Y-189163843D01*
X226389328Y-189164167D01*
X226733104Y-189022122D01*
X226996353Y-188759332D01*
X227138999Y-188415804D01*
X227139323Y-188043838D01*
X227094352Y-187935000D01*
X227422448Y-187935000D01*
X227783233Y-188084811D01*
X228214873Y-188085188D01*
X228613800Y-187920354D01*
X228919282Y-187615405D01*
X229040954Y-187322385D01*
X245418645Y-187322385D01*
X245583479Y-187721312D01*
X245888428Y-188026794D01*
X246287066Y-188192323D01*
X246718706Y-188192700D01*
X247082187Y-188042512D01*
X251541560Y-188042512D01*
X251899369Y-187971339D01*
X252202705Y-187768657D01*
X254147652Y-185823710D01*
X254518800Y-185670354D01*
X254824282Y-185365405D01*
X254989811Y-184966767D01*
X254990188Y-184535127D01*
X254825354Y-184136200D01*
X254520405Y-183830718D01*
X254121767Y-183665189D01*
X253690127Y-183664812D01*
X253291200Y-183829646D01*
X252985718Y-184134595D01*
X252839106Y-184487676D01*
X251154270Y-186172512D01*
X247081385Y-186172512D01*
X246720600Y-186022701D01*
X246288960Y-186022324D01*
X245890033Y-186187158D01*
X245584551Y-186492107D01*
X245419022Y-186890745D01*
X245418645Y-187322385D01*
X229040954Y-187322385D01*
X229084811Y-187216767D01*
X229085188Y-186785127D01*
X228920354Y-186386200D01*
X228615405Y-186080718D01*
X228216767Y-185915189D01*
X227785127Y-185914812D01*
X227421646Y-186065000D01*
X203577552Y-186065000D01*
X203216767Y-185915189D01*
X202785127Y-185914812D01*
X202421646Y-186065000D01*
X199181914Y-186065000D01*
X199214125Y-186032789D01*
X199575171Y-185883607D01*
X199880653Y-185578658D01*
X200046182Y-185180020D01*
X200046559Y-184748380D01*
X199881725Y-184349453D01*
X199576776Y-184043971D01*
X199178138Y-183878442D01*
X198746498Y-183878065D01*
X198347571Y-184042899D01*
X198042089Y-184347848D01*
X197982744Y-184490767D01*
X181479203Y-184490767D01*
X181424116Y-184435584D01*
X181025478Y-184270055D01*
X180593838Y-184269678D01*
X180194911Y-184434512D01*
X179889429Y-184739461D01*
X179723900Y-185138099D01*
X179723523Y-185569739D01*
X179888357Y-185968666D01*
X179984523Y-186065000D01*
X169577552Y-186065000D01*
X169216767Y-185915189D01*
X168785127Y-185914812D01*
X168386200Y-186079646D01*
X168127000Y-186338394D01*
X168127000Y-177302606D01*
X170819238Y-174610368D01*
X203065000Y-174610368D01*
X203065000Y-178062834D01*
X203136173Y-178420643D01*
X203338855Y-178723979D01*
X204117462Y-179502586D01*
X204420798Y-179705268D01*
X204459935Y-179713053D01*
X204598605Y-179920588D01*
X205080374Y-180242495D01*
X205648659Y-180355534D01*
X206216944Y-180242495D01*
X206698713Y-179920588D01*
X206918659Y-179591415D01*
X207138605Y-179920588D01*
X207620374Y-180242495D01*
X208188659Y-180355534D01*
X208756944Y-180242495D01*
X209238713Y-179920588D01*
X209458659Y-179591415D01*
X209678605Y-179920588D01*
X210160374Y-180242495D01*
X210728659Y-180355534D01*
X211296944Y-180242495D01*
X211778713Y-179920588D01*
X211998659Y-179591415D01*
X212218605Y-179920588D01*
X212700374Y-180242495D01*
X213268659Y-180355534D01*
X213836944Y-180242495D01*
X214318713Y-179920588D01*
X214538659Y-179591415D01*
X214758605Y-179920588D01*
X215240374Y-180242495D01*
X215808659Y-180355534D01*
X216376944Y-180242495D01*
X216858713Y-179920588D01*
X217180620Y-179438819D01*
X217220799Y-179236824D01*
X223930002Y-179236824D01*
X224072047Y-179580600D01*
X224334837Y-179843849D01*
X224479019Y-179903719D01*
X228363633Y-183788333D01*
X228463051Y-184028943D01*
X228725841Y-184292192D01*
X229069369Y-184434838D01*
X229441335Y-184435162D01*
X229785111Y-184293117D01*
X230048360Y-184030327D01*
X230191006Y-183686799D01*
X230191330Y-183314833D01*
X230049285Y-182971057D01*
X230042673Y-182964433D01*
X230292192Y-182715349D01*
X230434838Y-182371821D01*
X230435162Y-181999855D01*
X230293117Y-181656079D01*
X230277650Y-181640585D01*
X230292192Y-181626068D01*
X230434838Y-181282540D01*
X230435162Y-180910574D01*
X230293117Y-180566798D01*
X230030327Y-180303549D01*
X229788090Y-180202963D01*
X229520145Y-179935018D01*
X229685167Y-179935162D01*
X229812485Y-179882555D01*
X249632254Y-179882555D01*
X249774299Y-180226331D01*
X250014557Y-180467009D01*
X249960210Y-180597891D01*
X249959886Y-180969857D01*
X250101931Y-181313633D01*
X250364721Y-181576882D01*
X250708249Y-181719528D01*
X251080215Y-181719852D01*
X251322626Y-181619690D01*
X253381764Y-181619690D01*
X254239488Y-182477414D01*
X254338906Y-182718024D01*
X254601696Y-182981273D01*
X254945224Y-183123919D01*
X255317190Y-183124243D01*
X255660966Y-182982198D01*
X255924215Y-182719408D01*
X256066861Y-182375880D01*
X256067185Y-182003914D01*
X255925140Y-181660138D01*
X255662350Y-181396889D01*
X255420113Y-181296303D01*
X254656198Y-180532388D01*
X254764417Y-180532388D01*
X254804903Y-180630372D01*
X255067693Y-180893621D01*
X255411221Y-181036267D01*
X255783187Y-181036591D01*
X256126963Y-180894546D01*
X256390212Y-180631756D01*
X256532858Y-180288228D01*
X256533182Y-179916262D01*
X256391137Y-179572486D01*
X256128347Y-179309237D01*
X255886110Y-179208651D01*
X255784413Y-179106954D01*
X255701655Y-179051657D01*
X255513520Y-178925949D01*
X255193979Y-178862388D01*
X250994650Y-178862388D01*
X250754215Y-178762550D01*
X250382249Y-178762226D01*
X250038473Y-178904271D01*
X249775224Y-179167061D01*
X249632578Y-179510589D01*
X249632254Y-179882555D01*
X229812485Y-179882555D01*
X229927578Y-179835000D01*
X229940000Y-179835000D01*
X230259541Y-179771439D01*
X230530434Y-179590434D01*
X233464056Y-176656812D01*
X233956661Y-176657242D01*
X234470303Y-176445010D01*
X234863629Y-176052370D01*
X235073995Y-175545750D01*
X237275000Y-175545750D01*
X237275000Y-176236309D01*
X237371673Y-176469698D01*
X237550301Y-176648327D01*
X237783690Y-176745000D01*
X238474250Y-176745000D01*
X238633000Y-176586250D01*
X238633000Y-175387000D01*
X237433750Y-175387000D01*
X237275000Y-175545750D01*
X235073995Y-175545750D01*
X235076757Y-175539100D01*
X235077242Y-174983339D01*
X234865010Y-174469697D01*
X234679329Y-174283691D01*
X237275000Y-174283691D01*
X237275000Y-174974250D01*
X237433750Y-175133000D01*
X238633000Y-175133000D01*
X238633000Y-173933750D01*
X238474250Y-173775000D01*
X237783690Y-173775000D01*
X237550301Y-173871673D01*
X237371673Y-174050302D01*
X237275000Y-174283691D01*
X234679329Y-174283691D01*
X234472370Y-174076371D01*
X233959100Y-173863243D01*
X233403339Y-173862758D01*
X232889697Y-174074990D01*
X232496371Y-174467630D01*
X232416605Y-174659727D01*
X232362397Y-174528857D01*
X232120213Y-174459392D01*
X231319605Y-175260000D01*
X231333748Y-175274143D01*
X231154143Y-175453748D01*
X231140000Y-175439605D01*
X230339392Y-176240213D01*
X230408857Y-176482397D01*
X230932302Y-176669144D01*
X231098296Y-176660836D01*
X229691866Y-178067266D01*
X229686799Y-178065162D01*
X229335000Y-178064856D01*
X229335000Y-176467861D01*
X229390303Y-176445010D01*
X229783629Y-176052370D01*
X229863395Y-175860273D01*
X229917603Y-175991143D01*
X230159787Y-176060608D01*
X230960395Y-175260000D01*
X230159787Y-174459392D01*
X229917603Y-174528857D01*
X229867491Y-174669318D01*
X229785010Y-174469697D01*
X229595432Y-174279787D01*
X230339392Y-174279787D01*
X231140000Y-175080395D01*
X231940608Y-174279787D01*
X231871143Y-174037603D01*
X231347698Y-173850856D01*
X230792632Y-173878638D01*
X230408857Y-174037603D01*
X230339392Y-174279787D01*
X229595432Y-174279787D01*
X229392370Y-174076371D01*
X228879100Y-173863243D01*
X228323339Y-173862758D01*
X227809697Y-174074990D01*
X227416371Y-174467630D01*
X227203243Y-174980900D01*
X227202758Y-175536661D01*
X227414990Y-176050303D01*
X227665000Y-176300750D01*
X227665000Y-178079873D01*
X227551066Y-177965939D01*
X227568579Y-177923763D01*
X227568903Y-177551797D01*
X227426858Y-177208021D01*
X227164068Y-176944772D01*
X226820540Y-176802126D01*
X226448574Y-176801802D01*
X226104798Y-176943847D01*
X225841549Y-177206637D01*
X225795831Y-177316737D01*
X225724963Y-177287310D01*
X225352997Y-177286986D01*
X225009221Y-177429031D01*
X224745972Y-177691821D01*
X224603326Y-178035349D01*
X224603228Y-178148215D01*
X224336221Y-178258540D01*
X224072972Y-178521330D01*
X223930326Y-178864858D01*
X223930002Y-179236824D01*
X217220799Y-179236824D01*
X217293659Y-178870534D01*
X217293659Y-178812348D01*
X217180620Y-178244063D01*
X216858713Y-177762294D01*
X216852801Y-177758344D01*
X217018358Y-177689768D01*
X217196986Y-177511139D01*
X217293659Y-177277750D01*
X217293659Y-176587191D01*
X217134909Y-176428441D01*
X215935659Y-176428441D01*
X215935659Y-176448441D01*
X215681659Y-176448441D01*
X215681659Y-176428441D01*
X213395659Y-176428441D01*
X213395659Y-176448441D01*
X213141659Y-176448441D01*
X213141659Y-176428441D01*
X210855659Y-176428441D01*
X210855659Y-176448441D01*
X210601659Y-176448441D01*
X210601659Y-176428441D01*
X208315659Y-176428441D01*
X208315659Y-176448441D01*
X208061659Y-176448441D01*
X208061659Y-176428441D01*
X208041659Y-176428441D01*
X208041659Y-176174441D01*
X208061659Y-176174441D01*
X208061659Y-174981286D01*
X208315659Y-174981286D01*
X208315659Y-176174441D01*
X210601659Y-176174441D01*
X210601659Y-174981286D01*
X210855659Y-174981286D01*
X210855659Y-176174441D01*
X213141659Y-176174441D01*
X213141659Y-174981286D01*
X213395659Y-174981286D01*
X213395659Y-176174441D01*
X215681659Y-176174441D01*
X215681659Y-174975191D01*
X215935659Y-174975191D01*
X215935659Y-176174441D01*
X217134909Y-176174441D01*
X217293659Y-176015691D01*
X217293659Y-175325132D01*
X217196986Y-175091743D01*
X217018358Y-174913114D01*
X216784969Y-174816441D01*
X216094409Y-174816441D01*
X215935659Y-174975191D01*
X215681659Y-174975191D01*
X215522909Y-174816441D01*
X214832349Y-174816441D01*
X214598960Y-174913114D01*
X214420332Y-175091743D01*
X214333523Y-175301319D01*
X214035583Y-175029796D01*
X213625549Y-174859965D01*
X213395659Y-174981286D01*
X213141659Y-174981286D01*
X212911769Y-174859965D01*
X212501735Y-175029796D01*
X212073476Y-175420083D01*
X211998659Y-175579395D01*
X211923842Y-175420083D01*
X211495583Y-175029796D01*
X211085549Y-174859965D01*
X210855659Y-174981286D01*
X210601659Y-174981286D01*
X210371769Y-174859965D01*
X209961735Y-175029796D01*
X209533476Y-175420083D01*
X209458659Y-175579395D01*
X209383842Y-175420083D01*
X208955583Y-175029796D01*
X208545549Y-174859965D01*
X208315659Y-174981286D01*
X208061659Y-174981286D01*
X207831769Y-174859965D01*
X207421735Y-175029796D01*
X206993476Y-175420083D01*
X206926361Y-175562994D01*
X206698713Y-175222294D01*
X206216944Y-174900387D01*
X205648659Y-174787348D01*
X205080374Y-174900387D01*
X204935408Y-174997250D01*
X205332297Y-174600361D01*
X205461003Y-174653805D01*
X205892643Y-174654182D01*
X206291570Y-174489348D01*
X206597052Y-174184399D01*
X206762581Y-173785761D01*
X206762958Y-173354121D01*
X206598124Y-172955194D01*
X206293175Y-172649712D01*
X205894537Y-172484183D01*
X205462897Y-172483806D01*
X205099416Y-172633994D01*
X205041374Y-172633994D01*
X204683565Y-172705167D01*
X204380229Y-172907849D01*
X203338855Y-173949223D01*
X203136173Y-174252559D01*
X203065000Y-174610368D01*
X170819238Y-174610368D01*
X173714733Y-171714873D01*
X188414812Y-171714873D01*
X188579646Y-172113800D01*
X188884595Y-172419282D01*
X189283233Y-172584811D01*
X189432504Y-172584941D01*
X189703932Y-172638932D01*
X197626380Y-172638932D01*
X197987165Y-172788743D01*
X198418805Y-172789120D01*
X198817732Y-172624286D01*
X199123214Y-172319337D01*
X199288743Y-171920699D01*
X199289120Y-171489059D01*
X199124286Y-171090132D01*
X198819337Y-170784650D01*
X198420699Y-170619121D01*
X197989059Y-170618744D01*
X197625578Y-170768932D01*
X190303291Y-170768932D01*
X190115405Y-170580718D01*
X189716767Y-170415189D01*
X189285127Y-170414812D01*
X188886200Y-170579646D01*
X188580718Y-170884595D01*
X188415189Y-171283233D01*
X188414812Y-171714873D01*
X173714733Y-171714873D01*
X182214733Y-163214873D01*
X208414812Y-163214873D01*
X208565000Y-163578354D01*
X208565000Y-166422448D01*
X208415189Y-166783233D01*
X208414812Y-167214873D01*
X208579646Y-167613800D01*
X208884595Y-167919282D01*
X209283233Y-168084811D01*
X209714873Y-168085188D01*
X210113800Y-167920354D01*
X210141523Y-167892679D01*
X216592912Y-167892679D01*
X216592912Y-169107321D01*
X216694533Y-169618203D01*
X216983924Y-170051309D01*
X217417030Y-170340700D01*
X217927912Y-170442321D01*
X218438794Y-170340700D01*
X218871900Y-170051309D01*
X219113956Y-169689045D01*
X219356012Y-170051309D01*
X219789118Y-170340700D01*
X220300000Y-170442321D01*
X220810882Y-170340700D01*
X221243988Y-170051309D01*
X221533379Y-169618203D01*
X221570000Y-169434097D01*
X221606621Y-169618203D01*
X221896012Y-170051309D01*
X222329118Y-170340700D01*
X222840000Y-170442321D01*
X223350882Y-170340700D01*
X223783988Y-170051309D01*
X224073379Y-169618203D01*
X224112418Y-169421940D01*
X224195222Y-169698215D01*
X224525815Y-170103790D01*
X224986450Y-170351980D01*
X225046671Y-170362716D01*
X225253000Y-170239374D01*
X225253000Y-168627000D01*
X225233000Y-168627000D01*
X225233000Y-168373000D01*
X225253000Y-168373000D01*
X225253000Y-166760626D01*
X225507000Y-166760626D01*
X225507000Y-168373000D01*
X225527000Y-168373000D01*
X225527000Y-168627000D01*
X225507000Y-168627000D01*
X225507000Y-170239374D01*
X225713329Y-170362716D01*
X225773550Y-170351980D01*
X226234185Y-170103790D01*
X226564778Y-169698215D01*
X226647582Y-169421940D01*
X226686621Y-169618203D01*
X226976012Y-170051309D01*
X227409118Y-170340700D01*
X227920000Y-170442321D01*
X228430882Y-170340700D01*
X228863988Y-170051309D01*
X229153379Y-169618203D01*
X229190000Y-169434097D01*
X229226621Y-169618203D01*
X229516012Y-170051309D01*
X229949118Y-170340700D01*
X230460000Y-170442321D01*
X230970882Y-170340700D01*
X231403988Y-170051309D01*
X231693379Y-169618203D01*
X231730000Y-169434097D01*
X231766621Y-169618203D01*
X232056012Y-170051309D01*
X232489118Y-170340700D01*
X233000000Y-170442321D01*
X233510882Y-170340700D01*
X233943988Y-170051309D01*
X234233379Y-169618203D01*
X234270000Y-169434097D01*
X234306621Y-169618203D01*
X234596012Y-170051309D01*
X235029118Y-170340700D01*
X235540000Y-170442321D01*
X236050882Y-170340700D01*
X236483988Y-170051309D01*
X236773379Y-169618203D01*
X236810000Y-169434097D01*
X236846621Y-169618203D01*
X237136012Y-170051309D01*
X237569118Y-170340700D01*
X238080000Y-170442321D01*
X238239689Y-170410557D01*
X241357980Y-173528848D01*
X241628874Y-173709854D01*
X241948414Y-173773414D01*
X243701713Y-173773414D01*
X243271715Y-173858946D01*
X242789946Y-174180853D01*
X242570000Y-174510026D01*
X242350054Y-174180853D01*
X241868285Y-173858946D01*
X241300000Y-173745907D01*
X240731715Y-173858946D01*
X240249946Y-174180853D01*
X240220597Y-174224777D01*
X240148327Y-174050302D01*
X239969699Y-173871673D01*
X239736310Y-173775000D01*
X239045750Y-173775000D01*
X238887000Y-173933750D01*
X238887000Y-175133000D01*
X238907000Y-175133000D01*
X238907000Y-175387000D01*
X238887000Y-175387000D01*
X238887000Y-176586250D01*
X239045750Y-176745000D01*
X239736310Y-176745000D01*
X239969699Y-176648327D01*
X240148327Y-176469698D01*
X240220597Y-176295223D01*
X240249946Y-176339147D01*
X240731715Y-176661054D01*
X241300000Y-176774093D01*
X241868285Y-176661054D01*
X242350054Y-176339147D01*
X242570000Y-176009974D01*
X242789946Y-176339147D01*
X243271715Y-176661054D01*
X243840000Y-176774093D01*
X244408285Y-176661054D01*
X244890054Y-176339147D01*
X245110000Y-176009974D01*
X245329946Y-176339147D01*
X245811715Y-176661054D01*
X246380000Y-176774093D01*
X246948285Y-176661054D01*
X247430054Y-176339147D01*
X247650000Y-176009974D01*
X247869946Y-176339147D01*
X248351715Y-176661054D01*
X248920000Y-176774093D01*
X249488285Y-176661054D01*
X249970054Y-176339147D01*
X250190000Y-176009974D01*
X250409946Y-176339147D01*
X250891715Y-176661054D01*
X251460000Y-176774093D01*
X252028285Y-176661054D01*
X252510054Y-176339147D01*
X252831961Y-175857378D01*
X252945000Y-175289093D01*
X252945000Y-175230907D01*
X252831961Y-174662622D01*
X252510054Y-174180853D01*
X252028285Y-173858946D01*
X251460000Y-173745907D01*
X250891715Y-173858946D01*
X250409946Y-174180853D01*
X250190000Y-174510026D01*
X249970054Y-174180853D01*
X249488285Y-173858946D01*
X248920000Y-173745907D01*
X248642061Y-173801193D01*
X246096166Y-171255298D01*
X245926889Y-171142191D01*
X245825273Y-171074293D01*
X245505732Y-171010732D01*
X242583604Y-171010732D01*
X241588098Y-170015226D01*
X241853379Y-169618203D01*
X241890000Y-169434097D01*
X241926621Y-169618203D01*
X242216012Y-170051309D01*
X242649118Y-170340700D01*
X243160000Y-170442321D01*
X243670882Y-170340700D01*
X244103988Y-170051309D01*
X244393379Y-169618203D01*
X244430000Y-169434097D01*
X244466621Y-169618203D01*
X244756012Y-170051309D01*
X245189118Y-170340700D01*
X245700000Y-170442321D01*
X246210882Y-170340700D01*
X246643988Y-170051309D01*
X246933379Y-169618203D01*
X246970000Y-169434097D01*
X247006621Y-169618203D01*
X247296012Y-170051309D01*
X247729118Y-170340700D01*
X248240000Y-170442321D01*
X248750882Y-170340700D01*
X249183988Y-170051309D01*
X249473379Y-169618203D01*
X249510000Y-169434097D01*
X249546621Y-169618203D01*
X249836012Y-170051309D01*
X250269118Y-170340700D01*
X250780000Y-170442321D01*
X251290882Y-170340700D01*
X251723988Y-170051309D01*
X252013379Y-169618203D01*
X252050000Y-169434097D01*
X252086621Y-169618203D01*
X252376012Y-170051309D01*
X252809118Y-170340700D01*
X253320000Y-170442321D01*
X253830882Y-170340700D01*
X254263988Y-170051309D01*
X254553379Y-169618203D01*
X254590000Y-169434097D01*
X254626621Y-169618203D01*
X254916012Y-170051309D01*
X255349118Y-170340700D01*
X255860000Y-170442321D01*
X256370882Y-170340700D01*
X256803988Y-170051309D01*
X257093379Y-169618203D01*
X257195000Y-169107321D01*
X257195000Y-167892679D01*
X257093379Y-167381797D01*
X256803988Y-166948691D01*
X256370882Y-166659300D01*
X255860000Y-166557679D01*
X255349118Y-166659300D01*
X254916012Y-166948691D01*
X254626621Y-167381797D01*
X254590000Y-167565903D01*
X254553379Y-167381797D01*
X254263988Y-166948691D01*
X253830882Y-166659300D01*
X253320000Y-166557679D01*
X252809118Y-166659300D01*
X252376012Y-166948691D01*
X252086621Y-167381797D01*
X252050000Y-167565903D01*
X252013379Y-167381797D01*
X251723988Y-166948691D01*
X251290882Y-166659300D01*
X250780000Y-166557679D01*
X250269118Y-166659300D01*
X249836012Y-166948691D01*
X249546621Y-167381797D01*
X249510000Y-167565903D01*
X249473379Y-167381797D01*
X249183988Y-166948691D01*
X248750882Y-166659300D01*
X248240000Y-166557679D01*
X247729118Y-166659300D01*
X247296012Y-166948691D01*
X247006621Y-167381797D01*
X246970000Y-167565903D01*
X246933379Y-167381797D01*
X246643988Y-166948691D01*
X246210882Y-166659300D01*
X245700000Y-166557679D01*
X245189118Y-166659300D01*
X244756012Y-166948691D01*
X244466621Y-167381797D01*
X244430000Y-167565903D01*
X244393379Y-167381797D01*
X244103988Y-166948691D01*
X243670882Y-166659300D01*
X243160000Y-166557679D01*
X242649118Y-166659300D01*
X242216012Y-166948691D01*
X241926621Y-167381797D01*
X241890000Y-167565903D01*
X241853379Y-167381797D01*
X241563988Y-166948691D01*
X241130882Y-166659300D01*
X240620000Y-166557679D01*
X240109118Y-166659300D01*
X239676012Y-166948691D01*
X239386621Y-167381797D01*
X239350000Y-167565903D01*
X239313379Y-167381797D01*
X239023988Y-166948691D01*
X238590882Y-166659300D01*
X238080000Y-166557679D01*
X237569118Y-166659300D01*
X237136012Y-166948691D01*
X236846621Y-167381797D01*
X236810000Y-167565903D01*
X236773379Y-167381797D01*
X236483988Y-166948691D01*
X236050882Y-166659300D01*
X235540000Y-166557679D01*
X235029118Y-166659300D01*
X234596012Y-166948691D01*
X234306621Y-167381797D01*
X234270000Y-167565903D01*
X234233379Y-167381797D01*
X233943988Y-166948691D01*
X233510882Y-166659300D01*
X233000000Y-166557679D01*
X232489118Y-166659300D01*
X232056012Y-166948691D01*
X231766621Y-167381797D01*
X231730000Y-167565903D01*
X231693379Y-167381797D01*
X231403988Y-166948691D01*
X230970882Y-166659300D01*
X230460000Y-166557679D01*
X229949118Y-166659300D01*
X229516012Y-166948691D01*
X229226621Y-167381797D01*
X229190000Y-167565903D01*
X229153379Y-167381797D01*
X228863988Y-166948691D01*
X228430882Y-166659300D01*
X227920000Y-166557679D01*
X227409118Y-166659300D01*
X226976012Y-166948691D01*
X226686621Y-167381797D01*
X226647582Y-167578060D01*
X226564778Y-167301785D01*
X226234185Y-166896210D01*
X225773550Y-166648020D01*
X225713329Y-166637284D01*
X225507000Y-166760626D01*
X225253000Y-166760626D01*
X225046671Y-166637284D01*
X224986450Y-166648020D01*
X224525815Y-166896210D01*
X224195222Y-167301785D01*
X224112418Y-167578060D01*
X224073379Y-167381797D01*
X223783988Y-166948691D01*
X223350882Y-166659300D01*
X222840000Y-166557679D01*
X222329118Y-166659300D01*
X221896012Y-166948691D01*
X221606621Y-167381797D01*
X221570000Y-167565903D01*
X221533379Y-167381797D01*
X221243988Y-166948691D01*
X220810882Y-166659300D01*
X220300000Y-166557679D01*
X219789118Y-166659300D01*
X219356012Y-166948691D01*
X219113956Y-167310955D01*
X218871900Y-166948691D01*
X218438794Y-166659300D01*
X217927912Y-166557679D01*
X217417030Y-166659300D01*
X216983924Y-166948691D01*
X216694533Y-167381797D01*
X216592912Y-167892679D01*
X210141523Y-167892679D01*
X210419282Y-167615405D01*
X210584811Y-167216767D01*
X210585188Y-166785127D01*
X210435000Y-166421646D01*
X210435000Y-163577552D01*
X210584811Y-163216767D01*
X210585188Y-162785127D01*
X210420354Y-162386200D01*
X210115405Y-162080718D01*
X209716767Y-161915189D01*
X209285127Y-161914812D01*
X208886200Y-162079646D01*
X208580718Y-162384595D01*
X208415189Y-162783233D01*
X208414812Y-163214873D01*
X182214733Y-163214873D01*
X185435636Y-159993970D01*
X185578354Y-159935000D01*
X188422448Y-159935000D01*
X188783233Y-160084811D01*
X189214873Y-160085188D01*
X189613800Y-159920354D01*
X189919282Y-159615405D01*
X190084811Y-159216767D01*
X190085188Y-158785127D01*
X189920354Y-158386200D01*
X189615405Y-158080718D01*
X189216767Y-157915189D01*
X188785127Y-157914812D01*
X188421646Y-158065000D01*
X187364606Y-158065000D01*
X187589803Y-157839803D01*
X187617666Y-157797789D01*
X187627000Y-157750000D01*
X187627000Y-145127000D01*
X195980063Y-145127000D01*
X195915189Y-145283233D01*
X195914812Y-145714873D01*
X196065000Y-146078354D01*
X196065000Y-151846761D01*
X195933628Y-151901043D01*
X195402907Y-152430839D01*
X195115328Y-153123405D01*
X195114674Y-153873305D01*
X195401043Y-154566372D01*
X195930839Y-155097093D01*
X196623405Y-155384672D01*
X197373305Y-155385326D01*
X198066372Y-155098957D01*
X198332472Y-154833320D01*
X200846285Y-154833320D01*
X200975533Y-155126123D01*
X201675806Y-155394388D01*
X202425435Y-155374250D01*
X203024467Y-155126123D01*
X203153715Y-154833320D01*
X202000000Y-153679605D01*
X200846285Y-154833320D01*
X198332472Y-154833320D01*
X198597093Y-154569161D01*
X198884672Y-153876595D01*
X198885283Y-153175806D01*
X200105612Y-153175806D01*
X200125750Y-153925435D01*
X200373877Y-154524467D01*
X200666680Y-154653715D01*
X201820395Y-153500000D01*
X202179605Y-153500000D01*
X203333320Y-154653715D01*
X203626123Y-154524467D01*
X203894388Y-153824194D01*
X203874250Y-153074565D01*
X203626123Y-152475533D01*
X203333320Y-152346285D01*
X202179605Y-153500000D01*
X201820395Y-153500000D01*
X200666680Y-152346285D01*
X200373877Y-152475533D01*
X200105612Y-153175806D01*
X198885283Y-153175806D01*
X198885326Y-153126695D01*
X198598957Y-152433628D01*
X198332475Y-152166680D01*
X200846285Y-152166680D01*
X202000000Y-153320395D01*
X203153715Y-152166680D01*
X203024467Y-151873877D01*
X202324194Y-151605612D01*
X201574565Y-151625750D01*
X200975533Y-151873877D01*
X200846285Y-152166680D01*
X198332475Y-152166680D01*
X198069161Y-151902907D01*
X197935000Y-151847198D01*
X197935000Y-151185167D01*
X219064838Y-151185167D01*
X219195069Y-151500351D01*
X219065162Y-151813201D01*
X219064838Y-152185167D01*
X219206883Y-152528943D01*
X219469673Y-152792192D01*
X219813201Y-152934838D01*
X220185167Y-152935162D01*
X220427578Y-152835000D01*
X229351081Y-152835000D01*
X229366272Y-152850218D01*
X229709800Y-152992864D01*
X230081766Y-152993188D01*
X230425542Y-152851143D01*
X230688791Y-152588353D01*
X230831437Y-152244825D01*
X230831761Y-151872859D01*
X230689716Y-151529083D01*
X230426926Y-151265834D01*
X230083398Y-151123188D01*
X229711432Y-151122864D01*
X229609455Y-151165000D01*
X229434857Y-151165000D01*
X229435162Y-150814833D01*
X229293117Y-150471057D01*
X229030327Y-150207808D01*
X228686799Y-150065162D01*
X228314833Y-150064838D01*
X228072422Y-150165000D01*
X220427234Y-150165000D01*
X220186799Y-150065162D01*
X219814833Y-150064838D01*
X219471057Y-150206883D01*
X219207808Y-150469673D01*
X219065162Y-150813201D01*
X219064838Y-151185167D01*
X197935000Y-151185167D01*
X197935000Y-146077552D01*
X198084811Y-145716767D01*
X198085188Y-145285127D01*
X198019851Y-145127000D01*
X206000000Y-145127000D01*
X206049410Y-145116994D01*
X206091035Y-145088553D01*
X206118315Y-145046159D01*
X206120851Y-145032679D01*
X216592912Y-145032679D01*
X216592912Y-146247321D01*
X216694533Y-146758203D01*
X216983924Y-147191309D01*
X217417030Y-147480700D01*
X217927912Y-147582321D01*
X218438794Y-147480700D01*
X218871900Y-147191309D01*
X219113956Y-146829045D01*
X219356012Y-147191309D01*
X219789118Y-147480700D01*
X220300000Y-147582321D01*
X220810882Y-147480700D01*
X221243988Y-147191309D01*
X221533379Y-146758203D01*
X221572418Y-146561940D01*
X221655222Y-146838215D01*
X221985815Y-147243790D01*
X222446450Y-147491980D01*
X222506671Y-147502716D01*
X222713000Y-147379374D01*
X222713000Y-145767000D01*
X222693000Y-145767000D01*
X222693000Y-145513000D01*
X222713000Y-145513000D01*
X222713000Y-143900626D01*
X222967000Y-143900626D01*
X222967000Y-145513000D01*
X222987000Y-145513000D01*
X222987000Y-145767000D01*
X222967000Y-145767000D01*
X222967000Y-147379374D01*
X223173329Y-147502716D01*
X223233550Y-147491980D01*
X223694185Y-147243790D01*
X224024778Y-146838215D01*
X224107582Y-146561940D01*
X224146621Y-146758203D01*
X224436012Y-147191309D01*
X224869118Y-147480700D01*
X225380000Y-147582321D01*
X225890882Y-147480700D01*
X226323988Y-147191309D01*
X226613379Y-146758203D01*
X226650000Y-146574097D01*
X226686621Y-146758203D01*
X226976012Y-147191309D01*
X227409118Y-147480700D01*
X227920000Y-147582321D01*
X228430882Y-147480700D01*
X228863988Y-147191309D01*
X229153379Y-146758203D01*
X229190000Y-146574097D01*
X229226621Y-146758203D01*
X229516012Y-147191309D01*
X229949118Y-147480700D01*
X230460000Y-147582321D01*
X230970882Y-147480700D01*
X231403988Y-147191309D01*
X231693379Y-146758203D01*
X231730000Y-146574097D01*
X231766621Y-146758203D01*
X232056012Y-147191309D01*
X232489118Y-147480700D01*
X233000000Y-147582321D01*
X233510882Y-147480700D01*
X233943988Y-147191309D01*
X234233379Y-146758203D01*
X234270000Y-146574097D01*
X234306621Y-146758203D01*
X234596012Y-147191309D01*
X235029118Y-147480700D01*
X235540000Y-147582321D01*
X236050882Y-147480700D01*
X236483988Y-147191309D01*
X236773379Y-146758203D01*
X236810000Y-146574097D01*
X236846621Y-146758203D01*
X237136012Y-147191309D01*
X237569118Y-147480700D01*
X238080000Y-147582321D01*
X238590882Y-147480700D01*
X239023988Y-147191309D01*
X239313379Y-146758203D01*
X239350000Y-146574097D01*
X239386621Y-146758203D01*
X239676012Y-147191309D01*
X240109118Y-147480700D01*
X240620000Y-147582321D01*
X241130882Y-147480700D01*
X241563988Y-147191309D01*
X241853379Y-146758203D01*
X241890000Y-146574097D01*
X241926621Y-146758203D01*
X242216012Y-147191309D01*
X242649118Y-147480700D01*
X243160000Y-147582321D01*
X243670882Y-147480700D01*
X244103988Y-147191309D01*
X244393379Y-146758203D01*
X244430000Y-146574097D01*
X244466621Y-146758203D01*
X244756012Y-147191309D01*
X245189118Y-147480700D01*
X245700000Y-147582321D01*
X246210882Y-147480700D01*
X246643988Y-147191309D01*
X246933379Y-146758203D01*
X246970000Y-146574097D01*
X247006621Y-146758203D01*
X247296012Y-147191309D01*
X247729118Y-147480700D01*
X248240000Y-147582321D01*
X248750882Y-147480700D01*
X249183988Y-147191309D01*
X249473379Y-146758203D01*
X249510000Y-146574097D01*
X249546621Y-146758203D01*
X249836012Y-147191309D01*
X250269118Y-147480700D01*
X250780000Y-147582321D01*
X251290882Y-147480700D01*
X251723988Y-147191309D01*
X252013379Y-146758203D01*
X252050000Y-146574097D01*
X252086621Y-146758203D01*
X252376012Y-147191309D01*
X252809118Y-147480700D01*
X253320000Y-147582321D01*
X253830882Y-147480700D01*
X254263988Y-147191309D01*
X254553379Y-146758203D01*
X254590000Y-146574097D01*
X254626621Y-146758203D01*
X254916012Y-147191309D01*
X255349118Y-147480700D01*
X255860000Y-147582321D01*
X256370882Y-147480700D01*
X256803988Y-147191309D01*
X257093379Y-146758203D01*
X257195000Y-146247321D01*
X257195000Y-145032679D01*
X257093379Y-144521797D01*
X256803988Y-144088691D01*
X256370882Y-143799300D01*
X255860000Y-143697679D01*
X255349118Y-143799300D01*
X254916012Y-144088691D01*
X254626621Y-144521797D01*
X254590000Y-144705903D01*
X254553379Y-144521797D01*
X254263988Y-144088691D01*
X253830882Y-143799300D01*
X253320000Y-143697679D01*
X252809118Y-143799300D01*
X252376012Y-144088691D01*
X252086621Y-144521797D01*
X252050000Y-144705903D01*
X252013379Y-144521797D01*
X251723988Y-144088691D01*
X251290882Y-143799300D01*
X250780000Y-143697679D01*
X250269118Y-143799300D01*
X249836012Y-144088691D01*
X249546621Y-144521797D01*
X249510000Y-144705903D01*
X249473379Y-144521797D01*
X249183988Y-144088691D01*
X248750882Y-143799300D01*
X248240000Y-143697679D01*
X247729118Y-143799300D01*
X247296012Y-144088691D01*
X247006621Y-144521797D01*
X246970000Y-144705903D01*
X246933379Y-144521797D01*
X246643988Y-144088691D01*
X246210882Y-143799300D01*
X245700000Y-143697679D01*
X245189118Y-143799300D01*
X244756012Y-144088691D01*
X244466621Y-144521797D01*
X244430000Y-144705903D01*
X244393379Y-144521797D01*
X244103988Y-144088691D01*
X243670882Y-143799300D01*
X243160000Y-143697679D01*
X242649118Y-143799300D01*
X242216012Y-144088691D01*
X241926621Y-144521797D01*
X241890000Y-144705903D01*
X241853379Y-144521797D01*
X241563988Y-144088691D01*
X241130882Y-143799300D01*
X240620000Y-143697679D01*
X240109118Y-143799300D01*
X239676012Y-144088691D01*
X239386621Y-144521797D01*
X239350000Y-144705903D01*
X239313379Y-144521797D01*
X239023988Y-144088691D01*
X238590882Y-143799300D01*
X238080000Y-143697679D01*
X237569118Y-143799300D01*
X237136012Y-144088691D01*
X236846621Y-144521797D01*
X236810000Y-144705903D01*
X236773379Y-144521797D01*
X236483988Y-144088691D01*
X236050882Y-143799300D01*
X235540000Y-143697679D01*
X235029118Y-143799300D01*
X234596012Y-144088691D01*
X234306621Y-144521797D01*
X234270000Y-144705903D01*
X234233379Y-144521797D01*
X233943988Y-144088691D01*
X233510882Y-143799300D01*
X233000000Y-143697679D01*
X232489118Y-143799300D01*
X232056012Y-144088691D01*
X231766621Y-144521797D01*
X231730000Y-144705903D01*
X231693379Y-144521797D01*
X231403988Y-144088691D01*
X230970882Y-143799300D01*
X230460000Y-143697679D01*
X229949118Y-143799300D01*
X229516012Y-144088691D01*
X229226621Y-144521797D01*
X229190000Y-144705903D01*
X229153379Y-144521797D01*
X228863988Y-144088691D01*
X228486319Y-143836342D01*
X228636461Y-143836342D01*
X228876896Y-143936180D01*
X229248862Y-143936504D01*
X229592638Y-143794459D01*
X229855887Y-143531669D01*
X229998533Y-143188141D01*
X229998857Y-142816175D01*
X229856812Y-142472399D01*
X229594022Y-142209150D01*
X229250494Y-142066504D01*
X228878528Y-142066180D01*
X228636117Y-142166342D01*
X227448658Y-142166342D01*
X227129117Y-142229903D01*
X226858224Y-142410908D01*
X225539689Y-143729443D01*
X225380000Y-143697679D01*
X224869118Y-143799300D01*
X224436012Y-144088691D01*
X224146621Y-144521797D01*
X224107582Y-144718060D01*
X224024778Y-144441785D01*
X223694185Y-144036210D01*
X223233550Y-143788020D01*
X223173329Y-143777284D01*
X222967000Y-143900626D01*
X222713000Y-143900626D01*
X222506671Y-143777284D01*
X222446450Y-143788020D01*
X221985815Y-144036210D01*
X221655222Y-144441785D01*
X221572418Y-144718060D01*
X221533379Y-144521797D01*
X221243988Y-144088691D01*
X220810882Y-143799300D01*
X220300000Y-143697679D01*
X219789118Y-143799300D01*
X219356012Y-144088691D01*
X219113956Y-144450955D01*
X218871900Y-144088691D01*
X218438794Y-143799300D01*
X217927912Y-143697679D01*
X217417030Y-143799300D01*
X216983924Y-144088691D01*
X216694533Y-144521797D01*
X216592912Y-145032679D01*
X206120851Y-145032679D01*
X206127000Y-145000000D01*
X206127000Y-137315238D01*
X233015000Y-137315238D01*
X233015000Y-138684762D01*
X233160009Y-139413774D01*
X233572962Y-140031800D01*
X234190988Y-140444753D01*
X234920000Y-140589762D01*
X235649012Y-140444753D01*
X236267038Y-140031800D01*
X236679991Y-139413774D01*
X236825000Y-138684762D01*
X236825000Y-138127000D01*
X238095000Y-138127000D01*
X238095000Y-138762000D01*
X238288610Y-139481345D01*
X238742764Y-140071841D01*
X239388321Y-140443591D01*
X239577219Y-140492493D01*
X239873000Y-140376626D01*
X239873000Y-138127000D01*
X240127000Y-138127000D01*
X240127000Y-140376626D01*
X240422781Y-140492493D01*
X240611679Y-140443591D01*
X241257236Y-140071841D01*
X241711390Y-139481345D01*
X241905000Y-138762000D01*
X241905000Y-138127000D01*
X240127000Y-138127000D01*
X239873000Y-138127000D01*
X238095000Y-138127000D01*
X236825000Y-138127000D01*
X236825000Y-137315238D01*
X236809637Y-137238000D01*
X238095000Y-137238000D01*
X238095000Y-137873000D01*
X239873000Y-137873000D01*
X239873000Y-135623374D01*
X240127000Y-135623374D01*
X240127000Y-137873000D01*
X241905000Y-137873000D01*
X241905000Y-137238000D01*
X241711390Y-136518655D01*
X241257236Y-135928159D01*
X240611679Y-135556409D01*
X240422781Y-135507507D01*
X240127000Y-135623374D01*
X239873000Y-135623374D01*
X239577219Y-135507507D01*
X239388321Y-135556409D01*
X238742764Y-135928159D01*
X238288610Y-136518655D01*
X238095000Y-137238000D01*
X236809637Y-137238000D01*
X236679991Y-136586226D01*
X236267038Y-135968200D01*
X235649012Y-135555247D01*
X234920000Y-135410238D01*
X234190988Y-135555247D01*
X233572962Y-135968200D01*
X233160009Y-136586226D01*
X233015000Y-137315238D01*
X206127000Y-137315238D01*
X206127000Y-132373305D01*
X211614674Y-132373305D01*
X211901043Y-133066372D01*
X212430839Y-133597093D01*
X213123405Y-133884672D01*
X213873305Y-133885326D01*
X214566372Y-133598957D01*
X214832472Y-133333320D01*
X217346285Y-133333320D01*
X217475533Y-133626123D01*
X218175806Y-133894388D01*
X218925435Y-133874250D01*
X219524467Y-133626123D01*
X219653715Y-133333320D01*
X219535268Y-133214873D01*
X243914812Y-133214873D01*
X244079646Y-133613800D01*
X244384595Y-133919282D01*
X244747814Y-134070104D01*
X245314315Y-134636605D01*
X245617651Y-134839287D01*
X245975460Y-134910460D01*
X255906194Y-134910460D01*
X255985327Y-135101975D01*
X256290276Y-135407457D01*
X256688914Y-135572986D01*
X257120554Y-135573363D01*
X257519481Y-135408529D01*
X257824963Y-135103580D01*
X257990492Y-134704942D01*
X257990869Y-134273302D01*
X257826035Y-133874375D01*
X257521086Y-133568893D01*
X257157867Y-133418071D01*
X257054111Y-133314315D01*
X256750775Y-133111633D01*
X256392966Y-133040460D01*
X246362750Y-133040460D01*
X246069536Y-132747246D01*
X245920354Y-132386200D01*
X245615405Y-132080718D01*
X245216767Y-131915189D01*
X244785127Y-131914812D01*
X244386200Y-132079646D01*
X244080718Y-132384595D01*
X243915189Y-132783233D01*
X243914812Y-133214873D01*
X219535268Y-133214873D01*
X218500000Y-132179605D01*
X217346285Y-133333320D01*
X214832472Y-133333320D01*
X215097093Y-133069161D01*
X215384672Y-132376595D01*
X215385283Y-131675806D01*
X216605612Y-131675806D01*
X216625750Y-132425435D01*
X216873877Y-133024467D01*
X217166680Y-133153715D01*
X218320395Y-132000000D01*
X218679605Y-132000000D01*
X219833320Y-133153715D01*
X220126123Y-133024467D01*
X220394388Y-132324194D01*
X220374250Y-131574565D01*
X220126123Y-130975533D01*
X219833320Y-130846285D01*
X218679605Y-132000000D01*
X218320395Y-132000000D01*
X217166680Y-130846285D01*
X216873877Y-130975533D01*
X216605612Y-131675806D01*
X215385283Y-131675806D01*
X215385326Y-131626695D01*
X215098957Y-130933628D01*
X214832475Y-130666680D01*
X217346285Y-130666680D01*
X218500000Y-131820395D01*
X219653715Y-130666680D01*
X219524467Y-130373877D01*
X218824194Y-130105612D01*
X218074565Y-130125750D01*
X217475533Y-130373877D01*
X217346285Y-130666680D01*
X214832475Y-130666680D01*
X214569161Y-130402907D01*
X213876595Y-130115328D01*
X213126695Y-130114674D01*
X212433628Y-130401043D01*
X211902907Y-130930839D01*
X211615328Y-131623405D01*
X211614674Y-132373305D01*
X206127000Y-132373305D01*
X206127000Y-129695238D01*
X233015000Y-129695238D01*
X233015000Y-131064762D01*
X233160009Y-131793774D01*
X233572962Y-132411800D01*
X234190988Y-132824753D01*
X234920000Y-132969762D01*
X235649012Y-132824753D01*
X236267038Y-132411800D01*
X236679991Y-131793774D01*
X236825000Y-131064762D01*
X236825000Y-130507000D01*
X238095000Y-130507000D01*
X238095000Y-131142000D01*
X238288610Y-131861345D01*
X238742764Y-132451841D01*
X239388321Y-132823591D01*
X239577219Y-132872493D01*
X239873000Y-132756626D01*
X239873000Y-130507000D01*
X240127000Y-130507000D01*
X240127000Y-132756626D01*
X240422781Y-132872493D01*
X240611679Y-132823591D01*
X241257236Y-132451841D01*
X241711390Y-131861345D01*
X241905000Y-131142000D01*
X241905000Y-130507000D01*
X240127000Y-130507000D01*
X239873000Y-130507000D01*
X238095000Y-130507000D01*
X236825000Y-130507000D01*
X236825000Y-129695238D01*
X236809637Y-129618000D01*
X238095000Y-129618000D01*
X238095000Y-130253000D01*
X239873000Y-130253000D01*
X239873000Y-128003374D01*
X240127000Y-128003374D01*
X240127000Y-130253000D01*
X241905000Y-130253000D01*
X241905000Y-129618000D01*
X241711390Y-128898655D01*
X241257236Y-128308159D01*
X240611679Y-127936409D01*
X240422781Y-127887507D01*
X240127000Y-128003374D01*
X239873000Y-128003374D01*
X239577219Y-127887507D01*
X239388321Y-127936409D01*
X238742764Y-128308159D01*
X238288610Y-128898655D01*
X238095000Y-129618000D01*
X236809637Y-129618000D01*
X236679991Y-128966226D01*
X236267038Y-128348200D01*
X235649012Y-127935247D01*
X234920000Y-127790238D01*
X234190988Y-127935247D01*
X233572962Y-128348200D01*
X233160009Y-128966226D01*
X233015000Y-129695238D01*
X206127000Y-129695238D01*
X206127000Y-120710000D01*
X254030772Y-120710000D01*
X252547628Y-121322823D01*
X252547628Y-121322823D01*
G37*
X252547628Y-121322823D02*
X251327108Y-122541213D01*
X250665754Y-124133932D01*
X250664249Y-125858502D01*
X251322823Y-127452372D01*
X252541213Y-128672892D01*
X254133932Y-129334246D01*
X255858502Y-129335751D01*
X257452372Y-128677177D01*
X258672892Y-127458787D01*
X259290000Y-125972624D01*
X259290000Y-234103378D01*
X258647177Y-232547628D01*
X257428787Y-231327108D01*
X255836068Y-230665754D01*
X254111498Y-230664249D01*
X252517628Y-231322823D01*
X251297108Y-232541213D01*
X250635754Y-234133932D01*
X250634249Y-235858502D01*
X251292823Y-237452372D01*
X252511213Y-238672892D01*
X253997376Y-239290000D01*
X194127000Y-239290000D01*
X194127000Y-229315238D01*
X194595000Y-229315238D01*
X194595000Y-230684762D01*
X194740009Y-231413774D01*
X195152962Y-232031800D01*
X195770988Y-232444753D01*
X196500000Y-232589762D01*
X197229012Y-232444753D01*
X197847038Y-232031800D01*
X198259991Y-231413774D01*
X198405000Y-230684762D01*
X198405000Y-229315238D01*
X199675000Y-229315238D01*
X199675000Y-230684762D01*
X199820009Y-231413774D01*
X200232962Y-232031800D01*
X200850988Y-232444753D01*
X201580000Y-232589762D01*
X202309012Y-232444753D01*
X202927038Y-232031800D01*
X203339991Y-231413774D01*
X203485000Y-230684762D01*
X203485000Y-229315238D01*
X209595000Y-229315238D01*
X209595000Y-230684762D01*
X209740009Y-231413774D01*
X210152962Y-232031800D01*
X210770988Y-232444753D01*
X211500000Y-232589762D01*
X212229012Y-232444753D01*
X212847038Y-232031800D01*
X213259991Y-231413774D01*
X213405000Y-230684762D01*
X213405000Y-229315238D01*
X214675000Y-229315238D01*
X214675000Y-230684762D01*
X214820009Y-231413774D01*
X215232962Y-232031800D01*
X215850988Y-232444753D01*
X216580000Y-232589762D01*
X217309012Y-232444753D01*
X217927038Y-232031800D01*
X218339991Y-231413774D01*
X218485000Y-230684762D01*
X218485000Y-229315238D01*
X224855000Y-229315238D01*
X224855000Y-230684762D01*
X225000009Y-231413774D01*
X225412962Y-232031800D01*
X226030988Y-232444753D01*
X226760000Y-232589762D01*
X227489012Y-232444753D01*
X228107038Y-232031800D01*
X228519991Y-231413774D01*
X228665000Y-230684762D01*
X228665000Y-229315238D01*
X229935000Y-229315238D01*
X229935000Y-230684762D01*
X230080009Y-231413774D01*
X230492962Y-232031800D01*
X231110988Y-232444753D01*
X231840000Y-232589762D01*
X232569012Y-232444753D01*
X233187038Y-232031800D01*
X233599991Y-231413774D01*
X233745000Y-230684762D01*
X233745000Y-229315238D01*
X235015000Y-229315238D01*
X235015000Y-230684762D01*
X235160009Y-231413774D01*
X235572962Y-232031800D01*
X236190988Y-232444753D01*
X236920000Y-232589762D01*
X237649012Y-232444753D01*
X238267038Y-232031800D01*
X238679991Y-231413774D01*
X238825000Y-230684762D01*
X238825000Y-229315238D01*
X240095000Y-229315238D01*
X240095000Y-230684762D01*
X240240009Y-231413774D01*
X240652962Y-232031800D01*
X241270988Y-232444753D01*
X242000000Y-232589762D01*
X242729012Y-232444753D01*
X243347038Y-232031800D01*
X243759991Y-231413774D01*
X243905000Y-230684762D01*
X243905000Y-229315238D01*
X243759991Y-228586226D01*
X243347038Y-227968200D01*
X242729012Y-227555247D01*
X242000000Y-227410238D01*
X241270988Y-227555247D01*
X240652962Y-227968200D01*
X240240009Y-228586226D01*
X240095000Y-229315238D01*
X238825000Y-229315238D01*
X238679991Y-228586226D01*
X238267038Y-227968200D01*
X237649012Y-227555247D01*
X236920000Y-227410238D01*
X236190988Y-227555247D01*
X235572962Y-227968200D01*
X235160009Y-228586226D01*
X235015000Y-229315238D01*
X233745000Y-229315238D01*
X233599991Y-228586226D01*
X233187038Y-227968200D01*
X232569012Y-227555247D01*
X231840000Y-227410238D01*
X231110988Y-227555247D01*
X230492962Y-227968200D01*
X230080009Y-228586226D01*
X229935000Y-229315238D01*
X228665000Y-229315238D01*
X228519991Y-228586226D01*
X228107038Y-227968200D01*
X227489012Y-227555247D01*
X226760000Y-227410238D01*
X226030988Y-227555247D01*
X225412962Y-227968200D01*
X225000009Y-228586226D01*
X224855000Y-229315238D01*
X218485000Y-229315238D01*
X218339991Y-228586226D01*
X217927038Y-227968200D01*
X217309012Y-227555247D01*
X216580000Y-227410238D01*
X215850988Y-227555247D01*
X215232962Y-227968200D01*
X214820009Y-228586226D01*
X214675000Y-229315238D01*
X213405000Y-229315238D01*
X213259991Y-228586226D01*
X212847038Y-227968200D01*
X212229012Y-227555247D01*
X211500000Y-227410238D01*
X210770988Y-227555247D01*
X210152962Y-227968200D01*
X209740009Y-228586226D01*
X209595000Y-229315238D01*
X203485000Y-229315238D01*
X203339991Y-228586226D01*
X202927038Y-227968200D01*
X202309012Y-227555247D01*
X201580000Y-227410238D01*
X200850988Y-227555247D01*
X200232962Y-227968200D01*
X199820009Y-228586226D01*
X199675000Y-229315238D01*
X198405000Y-229315238D01*
X198259991Y-228586226D01*
X197847038Y-227968200D01*
X197229012Y-227555247D01*
X196500000Y-227410238D01*
X195770988Y-227555247D01*
X195152962Y-227968200D01*
X194740009Y-228586226D01*
X194595000Y-229315238D01*
X194127000Y-229315238D01*
X194127000Y-221695238D01*
X194595000Y-221695238D01*
X194595000Y-223064762D01*
X194740009Y-223793774D01*
X195152962Y-224411800D01*
X195770988Y-224824753D01*
X196500000Y-224969762D01*
X197229012Y-224824753D01*
X197847038Y-224411800D01*
X198259991Y-223793774D01*
X198405000Y-223064762D01*
X198405000Y-221695238D01*
X199675000Y-221695238D01*
X199675000Y-223064762D01*
X199820009Y-223793774D01*
X200232962Y-224411800D01*
X200850988Y-224824753D01*
X201580000Y-224969762D01*
X202309012Y-224824753D01*
X202927038Y-224411800D01*
X203339991Y-223793774D01*
X203485000Y-223064762D01*
X203485000Y-221695238D01*
X209595000Y-221695238D01*
X209595000Y-223064762D01*
X209740009Y-223793774D01*
X210152962Y-224411800D01*
X210770988Y-224824753D01*
X211500000Y-224969762D01*
X212229012Y-224824753D01*
X212847038Y-224411800D01*
X213259991Y-223793774D01*
X213405000Y-223064762D01*
X213405000Y-221695238D01*
X214675000Y-221695238D01*
X214675000Y-223064762D01*
X214820009Y-223793774D01*
X215232962Y-224411800D01*
X215850988Y-224824753D01*
X216580000Y-224969762D01*
X217309012Y-224824753D01*
X217927038Y-224411800D01*
X218339991Y-223793774D01*
X218485000Y-223064762D01*
X218485000Y-221695238D01*
X224855000Y-221695238D01*
X224855000Y-223064762D01*
X225000009Y-223793774D01*
X225412962Y-224411800D01*
X226030988Y-224824753D01*
X226760000Y-224969762D01*
X227489012Y-224824753D01*
X228107038Y-224411800D01*
X228519991Y-223793774D01*
X228665000Y-223064762D01*
X228665000Y-221695238D01*
X229935000Y-221695238D01*
X229935000Y-223064762D01*
X230080009Y-223793774D01*
X230492962Y-224411800D01*
X231110988Y-224824753D01*
X231840000Y-224969762D01*
X232569012Y-224824753D01*
X233187038Y-224411800D01*
X233599991Y-223793774D01*
X233745000Y-223064762D01*
X233745000Y-221695238D01*
X235015000Y-221695238D01*
X235015000Y-223064762D01*
X235160009Y-223793774D01*
X235572962Y-224411800D01*
X236190988Y-224824753D01*
X236920000Y-224969762D01*
X237649012Y-224824753D01*
X238267038Y-224411800D01*
X238679991Y-223793774D01*
X238825000Y-223064762D01*
X238825000Y-221695238D01*
X240095000Y-221695238D01*
X240095000Y-223064762D01*
X240240009Y-223793774D01*
X240652962Y-224411800D01*
X241270988Y-224824753D01*
X242000000Y-224969762D01*
X242729012Y-224824753D01*
X243347038Y-224411800D01*
X243759991Y-223793774D01*
X243905000Y-223064762D01*
X243905000Y-221695238D01*
X243759991Y-220966226D01*
X243347038Y-220348200D01*
X242729012Y-219935247D01*
X242000000Y-219790238D01*
X241270988Y-219935247D01*
X240652962Y-220348200D01*
X240240009Y-220966226D01*
X240095000Y-221695238D01*
X238825000Y-221695238D01*
X238679991Y-220966226D01*
X238267038Y-220348200D01*
X237649012Y-219935247D01*
X236920000Y-219790238D01*
X236190988Y-219935247D01*
X235572962Y-220348200D01*
X235160009Y-220966226D01*
X235015000Y-221695238D01*
X233745000Y-221695238D01*
X233599991Y-220966226D01*
X233187038Y-220348200D01*
X232569012Y-219935247D01*
X231840000Y-219790238D01*
X231110988Y-219935247D01*
X230492962Y-220348200D01*
X230080009Y-220966226D01*
X229935000Y-221695238D01*
X228665000Y-221695238D01*
X228519991Y-220966226D01*
X228107038Y-220348200D01*
X227489012Y-219935247D01*
X226760000Y-219790238D01*
X226030988Y-219935247D01*
X225412962Y-220348200D01*
X225000009Y-220966226D01*
X224855000Y-221695238D01*
X218485000Y-221695238D01*
X218339991Y-220966226D01*
X217927038Y-220348200D01*
X217309012Y-219935247D01*
X216580000Y-219790238D01*
X215850988Y-219935247D01*
X215232962Y-220348200D01*
X214820009Y-220966226D01*
X214675000Y-221695238D01*
X213405000Y-221695238D01*
X213259991Y-220966226D01*
X212847038Y-220348200D01*
X212229012Y-219935247D01*
X211500000Y-219790238D01*
X210770988Y-219935247D01*
X210152962Y-220348200D01*
X209740009Y-220966226D01*
X209595000Y-221695238D01*
X203485000Y-221695238D01*
X203339991Y-220966226D01*
X202927038Y-220348200D01*
X202309012Y-219935247D01*
X201580000Y-219790238D01*
X200850988Y-219935247D01*
X200232962Y-220348200D01*
X199820009Y-220966226D01*
X199675000Y-221695238D01*
X198405000Y-221695238D01*
X198259991Y-220966226D01*
X197847038Y-220348200D01*
X197229012Y-219935247D01*
X196500000Y-219790238D01*
X195770988Y-219935247D01*
X195152962Y-220348200D01*
X194740009Y-220966226D01*
X194595000Y-221695238D01*
X194127000Y-221695238D01*
X194127000Y-206229115D01*
X224935885Y-206229115D01*
X224935885Y-213936689D01*
X224999446Y-214256230D01*
X225098396Y-214404319D01*
X225177219Y-214522286D01*
X225277767Y-214765631D01*
X225540557Y-215028880D01*
X225884085Y-215171526D01*
X226256051Y-215171850D01*
X226563739Y-215044716D01*
X226906053Y-215186858D01*
X227278019Y-215187182D01*
X227601355Y-215053582D01*
X227839232Y-215152358D01*
X228211198Y-215152682D01*
X228515142Y-215027095D01*
X228816806Y-215152358D01*
X229188772Y-215152682D01*
X229532548Y-215010637D01*
X229795797Y-214747847D01*
X229938443Y-214404319D01*
X229938767Y-214032353D01*
X229838605Y-213789942D01*
X229838605Y-209762203D01*
X229775044Y-209442662D01*
X229594039Y-209171769D01*
X228143846Y-207721576D01*
X228044428Y-207480966D01*
X227781638Y-207217717D01*
X227438110Y-207075071D01*
X227414774Y-207075051D01*
X227310002Y-206821482D01*
X227047212Y-206558233D01*
X226747208Y-206433660D01*
X226788333Y-206392535D01*
X227028943Y-206293117D01*
X227292192Y-206030327D01*
X227434838Y-205686799D01*
X227435162Y-205314833D01*
X227293117Y-204971057D01*
X227030327Y-204707808D01*
X226686799Y-204565162D01*
X226314833Y-204564838D01*
X225971057Y-204706883D01*
X225707808Y-204969673D01*
X225607222Y-205211910D01*
X225180451Y-205638681D01*
X224999446Y-205909574D01*
X224935885Y-206229115D01*
X194127000Y-206229115D01*
X194127000Y-200214873D01*
X209914812Y-200214873D01*
X210079646Y-200613800D01*
X210384595Y-200919282D01*
X210783233Y-201084811D01*
X211214873Y-201085188D01*
X211578354Y-200935000D01*
X212305932Y-200935000D01*
X212305618Y-201295353D01*
X212417628Y-201566438D01*
X212315162Y-201813201D01*
X212314838Y-202185167D01*
X212456883Y-202528943D01*
X212719673Y-202792192D01*
X213063201Y-202934838D01*
X213435167Y-202935162D01*
X213738632Y-202809773D01*
X218064947Y-202809773D01*
X218064838Y-202935167D01*
X218206883Y-203278943D01*
X218469673Y-203542192D01*
X218813201Y-203684838D01*
X219185167Y-203685162D01*
X219427578Y-203585000D01*
X221072766Y-203585000D01*
X221313201Y-203684838D01*
X221685167Y-203685162D01*
X222028943Y-203543117D01*
X222292192Y-203280327D01*
X222434838Y-202936799D01*
X222434949Y-202809773D01*
X234574760Y-202809773D01*
X234563050Y-202837973D01*
X234562726Y-203209939D01*
X234704771Y-203553715D01*
X234967561Y-203816964D01*
X235311089Y-203959610D01*
X235683055Y-203959934D01*
X236026831Y-203817889D01*
X236290080Y-203555099D01*
X236432726Y-203211571D01*
X236433050Y-202839605D01*
X236332888Y-202597194D01*
X236332888Y-202503019D01*
X236291374Y-202294313D01*
X236269328Y-202183479D01*
X236088322Y-201912585D01*
X235560076Y-201384339D01*
X235289183Y-201203334D01*
X235105387Y-201166775D01*
X235105470Y-201071836D01*
X234963425Y-200728060D01*
X234700635Y-200464811D01*
X234357107Y-200322165D01*
X234259241Y-200322080D01*
X234023491Y-200275186D01*
X223060553Y-200275186D01*
X223084811Y-200216767D01*
X223085188Y-199785127D01*
X222920354Y-199386200D01*
X222615405Y-199080718D01*
X222216767Y-198915189D01*
X221785127Y-198914812D01*
X221421646Y-199065000D01*
X211577552Y-199065000D01*
X211216767Y-198915189D01*
X210785127Y-198914812D01*
X210386200Y-199079646D01*
X210080718Y-199384595D01*
X209915189Y-199783233D01*
X209914812Y-200214873D01*
X194127000Y-200214873D01*
X194127000Y-199500000D01*
X194116994Y-199450590D01*
X194088553Y-199408965D01*
X194046159Y-199381685D01*
X194000000Y-199373000D01*
X168127000Y-199373000D01*
X168127000Y-195470000D01*
X170182560Y-195470000D01*
X170182560Y-196970000D01*
X170226838Y-197205317D01*
X170365910Y-197421441D01*
X170578110Y-197566431D01*
X170830000Y-197617440D01*
X172330000Y-197617440D01*
X172565317Y-197573162D01*
X172781441Y-197434090D01*
X172926431Y-197221890D01*
X172977440Y-196970000D01*
X172977440Y-195470000D01*
X185182560Y-195470000D01*
X185182560Y-196970000D01*
X185226838Y-197205317D01*
X185365910Y-197421441D01*
X185578110Y-197566431D01*
X185830000Y-197617440D01*
X187330000Y-197617440D01*
X187565317Y-197573162D01*
X187781441Y-197434090D01*
X187926431Y-197221890D01*
X187977440Y-196970000D01*
X187977440Y-195470000D01*
X187933162Y-195234683D01*
X187794090Y-195018559D01*
X187702231Y-194955795D01*
X187868327Y-194789698D01*
X187965000Y-194556309D01*
X187965000Y-193977882D01*
X206072968Y-193977882D01*
X206237802Y-194376809D01*
X206542751Y-194682291D01*
X206905970Y-194833113D01*
X209102653Y-197029796D01*
X209405989Y-197232478D01*
X209465354Y-197244287D01*
X209763798Y-197303652D01*
X209763803Y-197303651D01*
X221329468Y-197303651D01*
X221621073Y-197595256D01*
X221770255Y-197956302D01*
X222075204Y-198261784D01*
X222473842Y-198427313D01*
X222905482Y-198427690D01*
X223304409Y-198262856D01*
X223609891Y-197957907D01*
X223775420Y-197559269D01*
X223775797Y-197127629D01*
X223610963Y-196728702D01*
X223306014Y-196423220D01*
X222942795Y-196272398D01*
X222377903Y-195707506D01*
X222074567Y-195504824D01*
X221716758Y-195433651D01*
X210151088Y-195433651D01*
X208227692Y-193510255D01*
X208093368Y-193185167D01*
X215314838Y-193185167D01*
X215456883Y-193528943D01*
X215719673Y-193792192D01*
X216063201Y-193934838D01*
X216435167Y-193935162D01*
X216677578Y-193835000D01*
X221154132Y-193835000D01*
X221607465Y-194288333D01*
X221706883Y-194528943D01*
X221969673Y-194792192D01*
X222313201Y-194934838D01*
X222685167Y-194935162D01*
X223028943Y-194793117D01*
X223292192Y-194530327D01*
X223434838Y-194186799D01*
X223435162Y-193814833D01*
X223304931Y-193499649D01*
X223434838Y-193186799D01*
X223435162Y-192814833D01*
X223293117Y-192471057D01*
X223157297Y-192335000D01*
X227072766Y-192335000D01*
X227313201Y-192434838D01*
X227685167Y-192435162D01*
X228028943Y-192293117D01*
X228292192Y-192030327D01*
X228434838Y-191686799D01*
X228435162Y-191314833D01*
X228293117Y-190971057D01*
X228030327Y-190707808D01*
X227686799Y-190565162D01*
X227314833Y-190564838D01*
X227072422Y-190665000D01*
X217677234Y-190665000D01*
X217436799Y-190565162D01*
X217064833Y-190564838D01*
X216721057Y-190706883D01*
X216457808Y-190969673D01*
X216315162Y-191313201D01*
X216314838Y-191685167D01*
X216456883Y-192028943D01*
X216532856Y-192105048D01*
X216436799Y-192065162D01*
X216064833Y-192064838D01*
X215721057Y-192206883D01*
X215457808Y-192469673D01*
X215315162Y-192813201D01*
X215314838Y-193185167D01*
X208093368Y-193185167D01*
X208078510Y-193149209D01*
X207773561Y-192843727D01*
X207374923Y-192678198D01*
X206943283Y-192677821D01*
X206544356Y-192842655D01*
X206238874Y-193147604D01*
X206073345Y-193546242D01*
X206072968Y-193977882D01*
X187965000Y-193977882D01*
X187965000Y-193965750D01*
X187806250Y-193807000D01*
X186707000Y-193807000D01*
X186707000Y-193827000D01*
X186453000Y-193827000D01*
X186453000Y-193807000D01*
X185353750Y-193807000D01*
X185195000Y-193965750D01*
X185195000Y-194556309D01*
X185291673Y-194789698D01*
X185457249Y-194955275D01*
X185378559Y-195005910D01*
X185233569Y-195218110D01*
X185182560Y-195470000D01*
X172977440Y-195470000D01*
X172933162Y-195234683D01*
X172794090Y-195018559D01*
X172702231Y-194955795D01*
X172868327Y-194789698D01*
X172965000Y-194556309D01*
X172965000Y-193965750D01*
X172806250Y-193807000D01*
X171707000Y-193807000D01*
X171707000Y-193827000D01*
X171453000Y-193827000D01*
X171453000Y-193807000D01*
X170353750Y-193807000D01*
X170195000Y-193965750D01*
X170195000Y-194556309D01*
X170291673Y-194789698D01*
X170457249Y-194955275D01*
X170378559Y-195005910D01*
X170233569Y-195218110D01*
X170182560Y-195470000D01*
X168127000Y-195470000D01*
X168127000Y-192803691D01*
X170195000Y-192803691D01*
X170195000Y-193394250D01*
X170353750Y-193553000D01*
X171453000Y-193553000D01*
X171453000Y-192453750D01*
X171707000Y-192453750D01*
X171707000Y-193553000D01*
X172806250Y-193553000D01*
X172965000Y-193394250D01*
X172965000Y-192803691D01*
X185195000Y-192803691D01*
X185195000Y-193394250D01*
X185353750Y-193553000D01*
X186453000Y-193553000D01*
X186453000Y-192453750D01*
X186707000Y-192453750D01*
X186707000Y-193553000D01*
X187806250Y-193553000D01*
X187965000Y-193394250D01*
X187965000Y-192803691D01*
X187868327Y-192570302D01*
X187689699Y-192391673D01*
X187456310Y-192295000D01*
X186865750Y-192295000D01*
X186707000Y-192453750D01*
X186453000Y-192453750D01*
X186294250Y-192295000D01*
X185703690Y-192295000D01*
X185470301Y-192391673D01*
X185291673Y-192570302D01*
X185195000Y-192803691D01*
X172965000Y-192803691D01*
X172868327Y-192570302D01*
X172689699Y-192391673D01*
X172456310Y-192295000D01*
X171865750Y-192295000D01*
X171707000Y-192453750D01*
X171453000Y-192453750D01*
X171294250Y-192295000D01*
X170703690Y-192295000D01*
X170470301Y-192391673D01*
X170291673Y-192570302D01*
X170195000Y-192803691D01*
X168127000Y-192803691D01*
X168127000Y-187661237D01*
X168384595Y-187919282D01*
X168783233Y-188084811D01*
X169214873Y-188085188D01*
X169578354Y-187935000D01*
X193422448Y-187935000D01*
X193722023Y-188059394D01*
X193402041Y-188191609D01*
X193096559Y-188496558D01*
X192931030Y-188895196D01*
X192930653Y-189326836D01*
X193095487Y-189725763D01*
X193400436Y-190031245D01*
X193799074Y-190196774D01*
X194230714Y-190197151D01*
X194629641Y-190032317D01*
X194727128Y-189935000D01*
X198422448Y-189935000D01*
X198783233Y-190084811D01*
X199214873Y-190085188D01*
X199613800Y-189920354D01*
X199919282Y-189615405D01*
X200084811Y-189216767D01*
X200085188Y-188785127D01*
X199920354Y-188386200D01*
X199615405Y-188080718D01*
X199264477Y-187935000D01*
X202422448Y-187935000D01*
X202783233Y-188084811D01*
X203214873Y-188085188D01*
X203578354Y-187935000D01*
X204303053Y-187935000D01*
X204302742Y-188291642D01*
X204444787Y-188635418D01*
X204707577Y-188898667D01*
X205051105Y-189041313D01*
X205423071Y-189041637D01*
X205660438Y-188943559D01*
X208366136Y-188943559D01*
X208606571Y-189043397D01*
X208978537Y-189043721D01*
X209322313Y-188901676D01*
X209585562Y-188638886D01*
X209728208Y-188295358D01*
X209728522Y-187935000D01*
X214065056Y-187935000D01*
X214064838Y-188185167D01*
X214195069Y-188500351D01*
X214065162Y-188813201D01*
X214064838Y-189185167D01*
X214206883Y-189528943D01*
X214469673Y-189792192D01*
X214813201Y-189934838D01*
X215185167Y-189935162D01*
X215427578Y-189835000D01*
X224288339Y-189835000D01*
X224444379Y-189991313D01*
X224787907Y-190133959D01*
X225159873Y-190134283D01*
X225503649Y-189992238D01*
X225766898Y-189729448D01*
X225909544Y-189385920D01*
X225909776Y-189119169D01*
X226017362Y-189163843D01*
X226389328Y-189164167D01*
X226733104Y-189022122D01*
X226996353Y-188759332D01*
X227138999Y-188415804D01*
X227139323Y-188043838D01*
X227094352Y-187935000D01*
X227422448Y-187935000D01*
X227783233Y-188084811D01*
X228214873Y-188085188D01*
X228613800Y-187920354D01*
X228919282Y-187615405D01*
X229040954Y-187322385D01*
X245418645Y-187322385D01*
X245583479Y-187721312D01*
X245888428Y-188026794D01*
X246287066Y-188192323D01*
X246718706Y-188192700D01*
X247082187Y-188042512D01*
X251541560Y-188042512D01*
X251899369Y-187971339D01*
X252202705Y-187768657D01*
X254147652Y-185823710D01*
X254518800Y-185670354D01*
X254824282Y-185365405D01*
X254989811Y-184966767D01*
X254990188Y-184535127D01*
X254825354Y-184136200D01*
X254520405Y-183830718D01*
X254121767Y-183665189D01*
X253690127Y-183664812D01*
X253291200Y-183829646D01*
X252985718Y-184134595D01*
X252839106Y-184487676D01*
X251154270Y-186172512D01*
X247081385Y-186172512D01*
X246720600Y-186022701D01*
X246288960Y-186022324D01*
X245890033Y-186187158D01*
X245584551Y-186492107D01*
X245419022Y-186890745D01*
X245418645Y-187322385D01*
X229040954Y-187322385D01*
X229084811Y-187216767D01*
X229085188Y-186785127D01*
X228920354Y-186386200D01*
X228615405Y-186080718D01*
X228216767Y-185915189D01*
X227785127Y-185914812D01*
X227421646Y-186065000D01*
X203577552Y-186065000D01*
X203216767Y-185915189D01*
X202785127Y-185914812D01*
X202421646Y-186065000D01*
X199181914Y-186065000D01*
X199214125Y-186032789D01*
X199575171Y-185883607D01*
X199880653Y-185578658D01*
X200046182Y-185180020D01*
X200046559Y-184748380D01*
X199881725Y-184349453D01*
X199576776Y-184043971D01*
X199178138Y-183878442D01*
X198746498Y-183878065D01*
X198347571Y-184042899D01*
X198042089Y-184347848D01*
X197982744Y-184490767D01*
X181479203Y-184490767D01*
X181424116Y-184435584D01*
X181025478Y-184270055D01*
X180593838Y-184269678D01*
X180194911Y-184434512D01*
X179889429Y-184739461D01*
X179723900Y-185138099D01*
X179723523Y-185569739D01*
X179888357Y-185968666D01*
X179984523Y-186065000D01*
X169577552Y-186065000D01*
X169216767Y-185915189D01*
X168785127Y-185914812D01*
X168386200Y-186079646D01*
X168127000Y-186338394D01*
X168127000Y-177302606D01*
X170819238Y-174610368D01*
X203065000Y-174610368D01*
X203065000Y-178062834D01*
X203136173Y-178420643D01*
X203338855Y-178723979D01*
X204117462Y-179502586D01*
X204420798Y-179705268D01*
X204459935Y-179713053D01*
X204598605Y-179920588D01*
X205080374Y-180242495D01*
X205648659Y-180355534D01*
X206216944Y-180242495D01*
X206698713Y-179920588D01*
X206918659Y-179591415D01*
X207138605Y-179920588D01*
X207620374Y-180242495D01*
X208188659Y-180355534D01*
X208756944Y-180242495D01*
X209238713Y-179920588D01*
X209458659Y-179591415D01*
X209678605Y-179920588D01*
X210160374Y-180242495D01*
X210728659Y-180355534D01*
X211296944Y-180242495D01*
X211778713Y-179920588D01*
X211998659Y-179591415D01*
X212218605Y-179920588D01*
X212700374Y-180242495D01*
X213268659Y-180355534D01*
X213836944Y-180242495D01*
X214318713Y-179920588D01*
X214538659Y-179591415D01*
X214758605Y-179920588D01*
X215240374Y-180242495D01*
X215808659Y-180355534D01*
X216376944Y-180242495D01*
X216858713Y-179920588D01*
X217180620Y-179438819D01*
X217220799Y-179236824D01*
X223930002Y-179236824D01*
X224072047Y-179580600D01*
X224334837Y-179843849D01*
X224479019Y-179903719D01*
X228363633Y-183788333D01*
X228463051Y-184028943D01*
X228725841Y-184292192D01*
X229069369Y-184434838D01*
X229441335Y-184435162D01*
X229785111Y-184293117D01*
X230048360Y-184030327D01*
X230191006Y-183686799D01*
X230191330Y-183314833D01*
X230049285Y-182971057D01*
X230042673Y-182964433D01*
X230292192Y-182715349D01*
X230434838Y-182371821D01*
X230435162Y-181999855D01*
X230293117Y-181656079D01*
X230277650Y-181640585D01*
X230292192Y-181626068D01*
X230434838Y-181282540D01*
X230435162Y-180910574D01*
X230293117Y-180566798D01*
X230030327Y-180303549D01*
X229788090Y-180202963D01*
X229520145Y-179935018D01*
X229685167Y-179935162D01*
X229812485Y-179882555D01*
X249632254Y-179882555D01*
X249774299Y-180226331D01*
X250014557Y-180467009D01*
X249960210Y-180597891D01*
X249959886Y-180969857D01*
X250101931Y-181313633D01*
X250364721Y-181576882D01*
X250708249Y-181719528D01*
X251080215Y-181719852D01*
X251322626Y-181619690D01*
X253381764Y-181619690D01*
X254239488Y-182477414D01*
X254338906Y-182718024D01*
X254601696Y-182981273D01*
X254945224Y-183123919D01*
X255317190Y-183124243D01*
X255660966Y-182982198D01*
X255924215Y-182719408D01*
X256066861Y-182375880D01*
X256067185Y-182003914D01*
X255925140Y-181660138D01*
X255662350Y-181396889D01*
X255420113Y-181296303D01*
X254656198Y-180532388D01*
X254764417Y-180532388D01*
X254804903Y-180630372D01*
X255067693Y-180893621D01*
X255411221Y-181036267D01*
X255783187Y-181036591D01*
X256126963Y-180894546D01*
X256390212Y-180631756D01*
X256532858Y-180288228D01*
X256533182Y-179916262D01*
X256391137Y-179572486D01*
X256128347Y-179309237D01*
X255886110Y-179208651D01*
X255784413Y-179106954D01*
X255701655Y-179051657D01*
X255513520Y-178925949D01*
X255193979Y-178862388D01*
X250994650Y-178862388D01*
X250754215Y-178762550D01*
X250382249Y-178762226D01*
X250038473Y-178904271D01*
X249775224Y-179167061D01*
X249632578Y-179510589D01*
X249632254Y-179882555D01*
X229812485Y-179882555D01*
X229927578Y-179835000D01*
X229940000Y-179835000D01*
X230259541Y-179771439D01*
X230530434Y-179590434D01*
X233464056Y-176656812D01*
X233956661Y-176657242D01*
X234470303Y-176445010D01*
X234863629Y-176052370D01*
X235073995Y-175545750D01*
X237275000Y-175545750D01*
X237275000Y-176236309D01*
X237371673Y-176469698D01*
X237550301Y-176648327D01*
X237783690Y-176745000D01*
X238474250Y-176745000D01*
X238633000Y-176586250D01*
X238633000Y-175387000D01*
X237433750Y-175387000D01*
X237275000Y-175545750D01*
X235073995Y-175545750D01*
X235076757Y-175539100D01*
X235077242Y-174983339D01*
X234865010Y-174469697D01*
X234679329Y-174283691D01*
X237275000Y-174283691D01*
X237275000Y-174974250D01*
X237433750Y-175133000D01*
X238633000Y-175133000D01*
X238633000Y-173933750D01*
X238474250Y-173775000D01*
X237783690Y-173775000D01*
X237550301Y-173871673D01*
X237371673Y-174050302D01*
X237275000Y-174283691D01*
X234679329Y-174283691D01*
X234472370Y-174076371D01*
X233959100Y-173863243D01*
X233403339Y-173862758D01*
X232889697Y-174074990D01*
X232496371Y-174467630D01*
X232416605Y-174659727D01*
X232362397Y-174528857D01*
X232120213Y-174459392D01*
X231319605Y-175260000D01*
X231333748Y-175274143D01*
X231154143Y-175453748D01*
X231140000Y-175439605D01*
X230339392Y-176240213D01*
X230408857Y-176482397D01*
X230932302Y-176669144D01*
X231098296Y-176660836D01*
X229691866Y-178067266D01*
X229686799Y-178065162D01*
X229335000Y-178064856D01*
X229335000Y-176467861D01*
X229390303Y-176445010D01*
X229783629Y-176052370D01*
X229863395Y-175860273D01*
X229917603Y-175991143D01*
X230159787Y-176060608D01*
X230960395Y-175260000D01*
X230159787Y-174459392D01*
X229917603Y-174528857D01*
X229867491Y-174669318D01*
X229785010Y-174469697D01*
X229595432Y-174279787D01*
X230339392Y-174279787D01*
X231140000Y-175080395D01*
X231940608Y-174279787D01*
X231871143Y-174037603D01*
X231347698Y-173850856D01*
X230792632Y-173878638D01*
X230408857Y-174037603D01*
X230339392Y-174279787D01*
X229595432Y-174279787D01*
X229392370Y-174076371D01*
X228879100Y-173863243D01*
X228323339Y-173862758D01*
X227809697Y-174074990D01*
X227416371Y-174467630D01*
X227203243Y-174980900D01*
X227202758Y-175536661D01*
X227414990Y-176050303D01*
X227665000Y-176300750D01*
X227665000Y-178079873D01*
X227551066Y-177965939D01*
X227568579Y-177923763D01*
X227568903Y-177551797D01*
X227426858Y-177208021D01*
X227164068Y-176944772D01*
X226820540Y-176802126D01*
X226448574Y-176801802D01*
X226104798Y-176943847D01*
X225841549Y-177206637D01*
X225795831Y-177316737D01*
X225724963Y-177287310D01*
X225352997Y-177286986D01*
X225009221Y-177429031D01*
X224745972Y-177691821D01*
X224603326Y-178035349D01*
X224603228Y-178148215D01*
X224336221Y-178258540D01*
X224072972Y-178521330D01*
X223930326Y-178864858D01*
X223930002Y-179236824D01*
X217220799Y-179236824D01*
X217293659Y-178870534D01*
X217293659Y-178812348D01*
X217180620Y-178244063D01*
X216858713Y-177762294D01*
X216852801Y-177758344D01*
X217018358Y-177689768D01*
X217196986Y-177511139D01*
X217293659Y-177277750D01*
X217293659Y-176587191D01*
X217134909Y-176428441D01*
X215935659Y-176428441D01*
X215935659Y-176448441D01*
X215681659Y-176448441D01*
X215681659Y-176428441D01*
X213395659Y-176428441D01*
X213395659Y-176448441D01*
X213141659Y-176448441D01*
X213141659Y-176428441D01*
X210855659Y-176428441D01*
X210855659Y-176448441D01*
X210601659Y-176448441D01*
X210601659Y-176428441D01*
X208315659Y-176428441D01*
X208315659Y-176448441D01*
X208061659Y-176448441D01*
X208061659Y-176428441D01*
X208041659Y-176428441D01*
X208041659Y-176174441D01*
X208061659Y-176174441D01*
X208061659Y-174981286D01*
X208315659Y-174981286D01*
X208315659Y-176174441D01*
X210601659Y-176174441D01*
X210601659Y-174981286D01*
X210855659Y-174981286D01*
X210855659Y-176174441D01*
X213141659Y-176174441D01*
X213141659Y-174981286D01*
X213395659Y-174981286D01*
X213395659Y-176174441D01*
X215681659Y-176174441D01*
X215681659Y-174975191D01*
X215935659Y-174975191D01*
X215935659Y-176174441D01*
X217134909Y-176174441D01*
X217293659Y-176015691D01*
X217293659Y-175325132D01*
X217196986Y-175091743D01*
X217018358Y-174913114D01*
X216784969Y-174816441D01*
X216094409Y-174816441D01*
X215935659Y-174975191D01*
X215681659Y-174975191D01*
X215522909Y-174816441D01*
X214832349Y-174816441D01*
X214598960Y-174913114D01*
X214420332Y-175091743D01*
X214333523Y-175301319D01*
X214035583Y-175029796D01*
X213625549Y-174859965D01*
X213395659Y-174981286D01*
X213141659Y-174981286D01*
X212911769Y-174859965D01*
X212501735Y-175029796D01*
X212073476Y-175420083D01*
X211998659Y-175579395D01*
X211923842Y-175420083D01*
X211495583Y-175029796D01*
X211085549Y-174859965D01*
X210855659Y-174981286D01*
X210601659Y-174981286D01*
X210371769Y-174859965D01*
X209961735Y-175029796D01*
X209533476Y-175420083D01*
X209458659Y-175579395D01*
X209383842Y-175420083D01*
X208955583Y-175029796D01*
X208545549Y-174859965D01*
X208315659Y-174981286D01*
X208061659Y-174981286D01*
X207831769Y-174859965D01*
X207421735Y-175029796D01*
X206993476Y-175420083D01*
X206926361Y-175562994D01*
X206698713Y-175222294D01*
X206216944Y-174900387D01*
X205648659Y-174787348D01*
X205080374Y-174900387D01*
X204935408Y-174997250D01*
X205332297Y-174600361D01*
X205461003Y-174653805D01*
X205892643Y-174654182D01*
X206291570Y-174489348D01*
X206597052Y-174184399D01*
X206762581Y-173785761D01*
X206762958Y-173354121D01*
X206598124Y-172955194D01*
X206293175Y-172649712D01*
X205894537Y-172484183D01*
X205462897Y-172483806D01*
X205099416Y-172633994D01*
X205041374Y-172633994D01*
X204683565Y-172705167D01*
X204380229Y-172907849D01*
X203338855Y-173949223D01*
X203136173Y-174252559D01*
X203065000Y-174610368D01*
X170819238Y-174610368D01*
X173714733Y-171714873D01*
X188414812Y-171714873D01*
X188579646Y-172113800D01*
X188884595Y-172419282D01*
X189283233Y-172584811D01*
X189432504Y-172584941D01*
X189703932Y-172638932D01*
X197626380Y-172638932D01*
X197987165Y-172788743D01*
X198418805Y-172789120D01*
X198817732Y-172624286D01*
X199123214Y-172319337D01*
X199288743Y-171920699D01*
X199289120Y-171489059D01*
X199124286Y-171090132D01*
X198819337Y-170784650D01*
X198420699Y-170619121D01*
X197989059Y-170618744D01*
X197625578Y-170768932D01*
X190303291Y-170768932D01*
X190115405Y-170580718D01*
X189716767Y-170415189D01*
X189285127Y-170414812D01*
X188886200Y-170579646D01*
X188580718Y-170884595D01*
X188415189Y-171283233D01*
X188414812Y-171714873D01*
X173714733Y-171714873D01*
X182214733Y-163214873D01*
X208414812Y-163214873D01*
X208565000Y-163578354D01*
X208565000Y-166422448D01*
X208415189Y-166783233D01*
X208414812Y-167214873D01*
X208579646Y-167613800D01*
X208884595Y-167919282D01*
X209283233Y-168084811D01*
X209714873Y-168085188D01*
X210113800Y-167920354D01*
X210141523Y-167892679D01*
X216592912Y-167892679D01*
X216592912Y-169107321D01*
X216694533Y-169618203D01*
X216983924Y-170051309D01*
X217417030Y-170340700D01*
X217927912Y-170442321D01*
X218438794Y-170340700D01*
X218871900Y-170051309D01*
X219113956Y-169689045D01*
X219356012Y-170051309D01*
X219789118Y-170340700D01*
X220300000Y-170442321D01*
X220810882Y-170340700D01*
X221243988Y-170051309D01*
X221533379Y-169618203D01*
X221570000Y-169434097D01*
X221606621Y-169618203D01*
X221896012Y-170051309D01*
X222329118Y-170340700D01*
X222840000Y-170442321D01*
X223350882Y-170340700D01*
X223783988Y-170051309D01*
X224073379Y-169618203D01*
X224112418Y-169421940D01*
X224195222Y-169698215D01*
X224525815Y-170103790D01*
X224986450Y-170351980D01*
X225046671Y-170362716D01*
X225253000Y-170239374D01*
X225253000Y-168627000D01*
X225233000Y-168627000D01*
X225233000Y-168373000D01*
X225253000Y-168373000D01*
X225253000Y-166760626D01*
X225507000Y-166760626D01*
X225507000Y-168373000D01*
X225527000Y-168373000D01*
X225527000Y-168627000D01*
X225507000Y-168627000D01*
X225507000Y-170239374D01*
X225713329Y-170362716D01*
X225773550Y-170351980D01*
X226234185Y-170103790D01*
X226564778Y-169698215D01*
X226647582Y-169421940D01*
X226686621Y-169618203D01*
X226976012Y-170051309D01*
X227409118Y-170340700D01*
X227920000Y-170442321D01*
X228430882Y-170340700D01*
X228863988Y-170051309D01*
X229153379Y-169618203D01*
X229190000Y-169434097D01*
X229226621Y-169618203D01*
X229516012Y-170051309D01*
X229949118Y-170340700D01*
X230460000Y-170442321D01*
X230970882Y-170340700D01*
X231403988Y-170051309D01*
X231693379Y-169618203D01*
X231730000Y-169434097D01*
X231766621Y-169618203D01*
X232056012Y-170051309D01*
X232489118Y-170340700D01*
X233000000Y-170442321D01*
X233510882Y-170340700D01*
X233943988Y-170051309D01*
X234233379Y-169618203D01*
X234270000Y-169434097D01*
X234306621Y-169618203D01*
X234596012Y-170051309D01*
X235029118Y-170340700D01*
X235540000Y-170442321D01*
X236050882Y-170340700D01*
X236483988Y-170051309D01*
X236773379Y-169618203D01*
X236810000Y-169434097D01*
X236846621Y-169618203D01*
X237136012Y-170051309D01*
X237569118Y-170340700D01*
X238080000Y-170442321D01*
X238239689Y-170410557D01*
X241357980Y-173528848D01*
X241628874Y-173709854D01*
X241948414Y-173773414D01*
X243701713Y-173773414D01*
X243271715Y-173858946D01*
X242789946Y-174180853D01*
X242570000Y-174510026D01*
X242350054Y-174180853D01*
X241868285Y-173858946D01*
X241300000Y-173745907D01*
X240731715Y-173858946D01*
X240249946Y-174180853D01*
X240220597Y-174224777D01*
X240148327Y-174050302D01*
X239969699Y-173871673D01*
X239736310Y-173775000D01*
X239045750Y-173775000D01*
X238887000Y-173933750D01*
X238887000Y-175133000D01*
X238907000Y-175133000D01*
X238907000Y-175387000D01*
X238887000Y-175387000D01*
X238887000Y-176586250D01*
X239045750Y-176745000D01*
X239736310Y-176745000D01*
X239969699Y-176648327D01*
X240148327Y-176469698D01*
X240220597Y-176295223D01*
X240249946Y-176339147D01*
X240731715Y-176661054D01*
X241300000Y-176774093D01*
X241868285Y-176661054D01*
X242350054Y-176339147D01*
X242570000Y-176009974D01*
X242789946Y-176339147D01*
X243271715Y-176661054D01*
X243840000Y-176774093D01*
X244408285Y-176661054D01*
X244890054Y-176339147D01*
X245110000Y-176009974D01*
X245329946Y-176339147D01*
X245811715Y-176661054D01*
X246380000Y-176774093D01*
X246948285Y-176661054D01*
X247430054Y-176339147D01*
X247650000Y-176009974D01*
X247869946Y-176339147D01*
X248351715Y-176661054D01*
X248920000Y-176774093D01*
X249488285Y-176661054D01*
X249970054Y-176339147D01*
X250190000Y-176009974D01*
X250409946Y-176339147D01*
X250891715Y-176661054D01*
X251460000Y-176774093D01*
X252028285Y-176661054D01*
X252510054Y-176339147D01*
X252831961Y-175857378D01*
X252945000Y-175289093D01*
X252945000Y-175230907D01*
X252831961Y-174662622D01*
X252510054Y-174180853D01*
X252028285Y-173858946D01*
X251460000Y-173745907D01*
X250891715Y-173858946D01*
X250409946Y-174180853D01*
X250190000Y-174510026D01*
X249970054Y-174180853D01*
X249488285Y-173858946D01*
X248920000Y-173745907D01*
X248642061Y-173801193D01*
X246096166Y-171255298D01*
X245926889Y-171142191D01*
X245825273Y-171074293D01*
X245505732Y-171010732D01*
X242583604Y-171010732D01*
X241588098Y-170015226D01*
X241853379Y-169618203D01*
X241890000Y-169434097D01*
X241926621Y-169618203D01*
X242216012Y-170051309D01*
X242649118Y-170340700D01*
X243160000Y-170442321D01*
X243670882Y-170340700D01*
X244103988Y-170051309D01*
X244393379Y-169618203D01*
X244430000Y-169434097D01*
X244466621Y-169618203D01*
X244756012Y-170051309D01*
X245189118Y-170340700D01*
X245700000Y-170442321D01*
X246210882Y-170340700D01*
X246643988Y-170051309D01*
X246933379Y-169618203D01*
X246970000Y-169434097D01*
X247006621Y-169618203D01*
X247296012Y-170051309D01*
X247729118Y-170340700D01*
X248240000Y-170442321D01*
X248750882Y-170340700D01*
X249183988Y-170051309D01*
X249473379Y-169618203D01*
X249510000Y-169434097D01*
X249546621Y-169618203D01*
X249836012Y-170051309D01*
X250269118Y-170340700D01*
X250780000Y-170442321D01*
X251290882Y-170340700D01*
X251723988Y-170051309D01*
X252013379Y-169618203D01*
X252050000Y-169434097D01*
X252086621Y-169618203D01*
X252376012Y-170051309D01*
X252809118Y-170340700D01*
X253320000Y-170442321D01*
X253830882Y-170340700D01*
X254263988Y-170051309D01*
X254553379Y-169618203D01*
X254590000Y-169434097D01*
X254626621Y-169618203D01*
X254916012Y-170051309D01*
X255349118Y-170340700D01*
X255860000Y-170442321D01*
X256370882Y-170340700D01*
X256803988Y-170051309D01*
X257093379Y-169618203D01*
X257195000Y-169107321D01*
X257195000Y-167892679D01*
X257093379Y-167381797D01*
X256803988Y-166948691D01*
X256370882Y-166659300D01*
X255860000Y-166557679D01*
X255349118Y-166659300D01*
X254916012Y-166948691D01*
X254626621Y-167381797D01*
X254590000Y-167565903D01*
X254553379Y-167381797D01*
X254263988Y-166948691D01*
X253830882Y-166659300D01*
X253320000Y-166557679D01*
X252809118Y-166659300D01*
X252376012Y-166948691D01*
X252086621Y-167381797D01*
X252050000Y-167565903D01*
X252013379Y-167381797D01*
X251723988Y-166948691D01*
X251290882Y-166659300D01*
X250780000Y-166557679D01*
X250269118Y-166659300D01*
X249836012Y-166948691D01*
X249546621Y-167381797D01*
X249510000Y-167565903D01*
X249473379Y-167381797D01*
X249183988Y-166948691D01*
X248750882Y-166659300D01*
X248240000Y-166557679D01*
X247729118Y-166659300D01*
X247296012Y-166948691D01*
X247006621Y-167381797D01*
X246970000Y-167565903D01*
X246933379Y-167381797D01*
X246643988Y-166948691D01*
X246210882Y-166659300D01*
X245700000Y-166557679D01*
X245189118Y-166659300D01*
X244756012Y-166948691D01*
X244466621Y-167381797D01*
X244430000Y-167565903D01*
X244393379Y-167381797D01*
X244103988Y-166948691D01*
X243670882Y-166659300D01*
X243160000Y-166557679D01*
X242649118Y-166659300D01*
X242216012Y-166948691D01*
X241926621Y-167381797D01*
X241890000Y-167565903D01*
X241853379Y-167381797D01*
X241563988Y-166948691D01*
X241130882Y-166659300D01*
X240620000Y-166557679D01*
X240109118Y-166659300D01*
X239676012Y-166948691D01*
X239386621Y-167381797D01*
X239350000Y-167565903D01*
X239313379Y-167381797D01*
X239023988Y-166948691D01*
X238590882Y-166659300D01*
X238080000Y-166557679D01*
X237569118Y-166659300D01*
X237136012Y-166948691D01*
X236846621Y-167381797D01*
X236810000Y-167565903D01*
X236773379Y-167381797D01*
X236483988Y-166948691D01*
X236050882Y-166659300D01*
X235540000Y-166557679D01*
X235029118Y-166659300D01*
X234596012Y-166948691D01*
X234306621Y-167381797D01*
X234270000Y-167565903D01*
X234233379Y-167381797D01*
X233943988Y-166948691D01*
X233510882Y-166659300D01*
X233000000Y-166557679D01*
X232489118Y-166659300D01*
X232056012Y-166948691D01*
X231766621Y-167381797D01*
X231730000Y-167565903D01*
X231693379Y-167381797D01*
X231403988Y-166948691D01*
X230970882Y-166659300D01*
X230460000Y-166557679D01*
X229949118Y-166659300D01*
X229516012Y-166948691D01*
X229226621Y-167381797D01*
X229190000Y-167565903D01*
X229153379Y-167381797D01*
X228863988Y-166948691D01*
X228430882Y-166659300D01*
X227920000Y-166557679D01*
X227409118Y-166659300D01*
X226976012Y-166948691D01*
X226686621Y-167381797D01*
X226647582Y-167578060D01*
X226564778Y-167301785D01*
X226234185Y-166896210D01*
X225773550Y-166648020D01*
X225713329Y-166637284D01*
X225507000Y-166760626D01*
X225253000Y-166760626D01*
X225046671Y-166637284D01*
X224986450Y-166648020D01*
X224525815Y-166896210D01*
X224195222Y-167301785D01*
X224112418Y-167578060D01*
X224073379Y-167381797D01*
X223783988Y-166948691D01*
X223350882Y-166659300D01*
X222840000Y-166557679D01*
X222329118Y-166659300D01*
X221896012Y-166948691D01*
X221606621Y-167381797D01*
X221570000Y-167565903D01*
X221533379Y-167381797D01*
X221243988Y-166948691D01*
X220810882Y-166659300D01*
X220300000Y-166557679D01*
X219789118Y-166659300D01*
X219356012Y-166948691D01*
X219113956Y-167310955D01*
X218871900Y-166948691D01*
X218438794Y-166659300D01*
X217927912Y-166557679D01*
X217417030Y-166659300D01*
X216983924Y-166948691D01*
X216694533Y-167381797D01*
X216592912Y-167892679D01*
X210141523Y-167892679D01*
X210419282Y-167615405D01*
X210584811Y-167216767D01*
X210585188Y-166785127D01*
X210435000Y-166421646D01*
X210435000Y-163577552D01*
X210584811Y-163216767D01*
X210585188Y-162785127D01*
X210420354Y-162386200D01*
X210115405Y-162080718D01*
X209716767Y-161915189D01*
X209285127Y-161914812D01*
X208886200Y-162079646D01*
X208580718Y-162384595D01*
X208415189Y-162783233D01*
X208414812Y-163214873D01*
X182214733Y-163214873D01*
X185435636Y-159993970D01*
X185578354Y-159935000D01*
X188422448Y-159935000D01*
X188783233Y-160084811D01*
X189214873Y-160085188D01*
X189613800Y-159920354D01*
X189919282Y-159615405D01*
X190084811Y-159216767D01*
X190085188Y-158785127D01*
X189920354Y-158386200D01*
X189615405Y-158080718D01*
X189216767Y-157915189D01*
X188785127Y-157914812D01*
X188421646Y-158065000D01*
X187364606Y-158065000D01*
X187589803Y-157839803D01*
X187617666Y-157797789D01*
X187627000Y-157750000D01*
X187627000Y-145127000D01*
X195980063Y-145127000D01*
X195915189Y-145283233D01*
X195914812Y-145714873D01*
X196065000Y-146078354D01*
X196065000Y-151846761D01*
X195933628Y-151901043D01*
X195402907Y-152430839D01*
X195115328Y-153123405D01*
X195114674Y-153873305D01*
X195401043Y-154566372D01*
X195930839Y-155097093D01*
X196623405Y-155384672D01*
X197373305Y-155385326D01*
X198066372Y-155098957D01*
X198332472Y-154833320D01*
X200846285Y-154833320D01*
X200975533Y-155126123D01*
X201675806Y-155394388D01*
X202425435Y-155374250D01*
X203024467Y-155126123D01*
X203153715Y-154833320D01*
X202000000Y-153679605D01*
X200846285Y-154833320D01*
X198332472Y-154833320D01*
X198597093Y-154569161D01*
X198884672Y-153876595D01*
X198885283Y-153175806D01*
X200105612Y-153175806D01*
X200125750Y-153925435D01*
X200373877Y-154524467D01*
X200666680Y-154653715D01*
X201820395Y-153500000D01*
X202179605Y-153500000D01*
X203333320Y-154653715D01*
X203626123Y-154524467D01*
X203894388Y-153824194D01*
X203874250Y-153074565D01*
X203626123Y-152475533D01*
X203333320Y-152346285D01*
X202179605Y-153500000D01*
X201820395Y-153500000D01*
X200666680Y-152346285D01*
X200373877Y-152475533D01*
X200105612Y-153175806D01*
X198885283Y-153175806D01*
X198885326Y-153126695D01*
X198598957Y-152433628D01*
X198332475Y-152166680D01*
X200846285Y-152166680D01*
X202000000Y-153320395D01*
X203153715Y-152166680D01*
X203024467Y-151873877D01*
X202324194Y-151605612D01*
X201574565Y-151625750D01*
X200975533Y-151873877D01*
X200846285Y-152166680D01*
X198332475Y-152166680D01*
X198069161Y-151902907D01*
X197935000Y-151847198D01*
X197935000Y-151185167D01*
X219064838Y-151185167D01*
X219195069Y-151500351D01*
X219065162Y-151813201D01*
X219064838Y-152185167D01*
X219206883Y-152528943D01*
X219469673Y-152792192D01*
X219813201Y-152934838D01*
X220185167Y-152935162D01*
X220427578Y-152835000D01*
X229351081Y-152835000D01*
X229366272Y-152850218D01*
X229709800Y-152992864D01*
X230081766Y-152993188D01*
X230425542Y-152851143D01*
X230688791Y-152588353D01*
X230831437Y-152244825D01*
X230831761Y-151872859D01*
X230689716Y-151529083D01*
X230426926Y-151265834D01*
X230083398Y-151123188D01*
X229711432Y-151122864D01*
X229609455Y-151165000D01*
X229434857Y-151165000D01*
X229435162Y-150814833D01*
X229293117Y-150471057D01*
X229030327Y-150207808D01*
X228686799Y-150065162D01*
X228314833Y-150064838D01*
X228072422Y-150165000D01*
X220427234Y-150165000D01*
X220186799Y-150065162D01*
X219814833Y-150064838D01*
X219471057Y-150206883D01*
X219207808Y-150469673D01*
X219065162Y-150813201D01*
X219064838Y-151185167D01*
X197935000Y-151185167D01*
X197935000Y-146077552D01*
X198084811Y-145716767D01*
X198085188Y-145285127D01*
X198019851Y-145127000D01*
X206000000Y-145127000D01*
X206049410Y-145116994D01*
X206091035Y-145088553D01*
X206118315Y-145046159D01*
X206120851Y-145032679D01*
X216592912Y-145032679D01*
X216592912Y-146247321D01*
X216694533Y-146758203D01*
X216983924Y-147191309D01*
X217417030Y-147480700D01*
X217927912Y-147582321D01*
X218438794Y-147480700D01*
X218871900Y-147191309D01*
X219113956Y-146829045D01*
X219356012Y-147191309D01*
X219789118Y-147480700D01*
X220300000Y-147582321D01*
X220810882Y-147480700D01*
X221243988Y-147191309D01*
X221533379Y-146758203D01*
X221572418Y-146561940D01*
X221655222Y-146838215D01*
X221985815Y-147243790D01*
X222446450Y-147491980D01*
X222506671Y-147502716D01*
X222713000Y-147379374D01*
X222713000Y-145767000D01*
X222693000Y-145767000D01*
X222693000Y-145513000D01*
X222713000Y-145513000D01*
X222713000Y-143900626D01*
X222967000Y-143900626D01*
X222967000Y-145513000D01*
X222987000Y-145513000D01*
X222987000Y-145767000D01*
X222967000Y-145767000D01*
X222967000Y-147379374D01*
X223173329Y-147502716D01*
X223233550Y-147491980D01*
X223694185Y-147243790D01*
X224024778Y-146838215D01*
X224107582Y-146561940D01*
X224146621Y-146758203D01*
X224436012Y-147191309D01*
X224869118Y-147480700D01*
X225380000Y-147582321D01*
X225890882Y-147480700D01*
X226323988Y-147191309D01*
X226613379Y-146758203D01*
X226650000Y-146574097D01*
X226686621Y-146758203D01*
X226976012Y-147191309D01*
X227409118Y-147480700D01*
X227920000Y-147582321D01*
X228430882Y-147480700D01*
X228863988Y-147191309D01*
X229153379Y-146758203D01*
X229190000Y-146574097D01*
X229226621Y-146758203D01*
X229516012Y-147191309D01*
X229949118Y-147480700D01*
X230460000Y-147582321D01*
X230970882Y-147480700D01*
X231403988Y-147191309D01*
X231693379Y-146758203D01*
X231730000Y-146574097D01*
X231766621Y-146758203D01*
X232056012Y-147191309D01*
X232489118Y-147480700D01*
X233000000Y-147582321D01*
X233510882Y-147480700D01*
X233943988Y-147191309D01*
X234233379Y-146758203D01*
X234270000Y-146574097D01*
X234306621Y-146758203D01*
X234596012Y-147191309D01*
X235029118Y-147480700D01*
X235540000Y-147582321D01*
X236050882Y-147480700D01*
X236483988Y-147191309D01*
X236773379Y-146758203D01*
X236810000Y-146574097D01*
X236846621Y-146758203D01*
X237136012Y-147191309D01*
X237569118Y-147480700D01*
X238080000Y-147582321D01*
X238590882Y-147480700D01*
X239023988Y-147191309D01*
X239313379Y-146758203D01*
X239350000Y-146574097D01*
X239386621Y-146758203D01*
X239676012Y-147191309D01*
X240109118Y-147480700D01*
X240620000Y-147582321D01*
X241130882Y-147480700D01*
X241563988Y-147191309D01*
X241853379Y-146758203D01*
X241890000Y-146574097D01*
X241926621Y-146758203D01*
X242216012Y-147191309D01*
X242649118Y-147480700D01*
X243160000Y-147582321D01*
X243670882Y-147480700D01*
X244103988Y-147191309D01*
X244393379Y-146758203D01*
X244430000Y-146574097D01*
X244466621Y-146758203D01*
X244756012Y-147191309D01*
X245189118Y-147480700D01*
X245700000Y-147582321D01*
X246210882Y-147480700D01*
X246643988Y-147191309D01*
X246933379Y-146758203D01*
X246970000Y-146574097D01*
X247006621Y-146758203D01*
X247296012Y-147191309D01*
X247729118Y-147480700D01*
X248240000Y-147582321D01*
X248750882Y-147480700D01*
X249183988Y-147191309D01*
X249473379Y-146758203D01*
X249510000Y-146574097D01*
X249546621Y-146758203D01*
X249836012Y-147191309D01*
X250269118Y-147480700D01*
X250780000Y-147582321D01*
X251290882Y-147480700D01*
X251723988Y-147191309D01*
X252013379Y-146758203D01*
X252050000Y-146574097D01*
X252086621Y-146758203D01*
X252376012Y-147191309D01*
X252809118Y-147480700D01*
X253320000Y-147582321D01*
X253830882Y-147480700D01*
X254263988Y-147191309D01*
X254553379Y-146758203D01*
X254590000Y-146574097D01*
X254626621Y-146758203D01*
X254916012Y-147191309D01*
X255349118Y-147480700D01*
X255860000Y-147582321D01*
X256370882Y-147480700D01*
X256803988Y-147191309D01*
X257093379Y-146758203D01*
X257195000Y-146247321D01*
X257195000Y-145032679D01*
X257093379Y-144521797D01*
X256803988Y-144088691D01*
X256370882Y-143799300D01*
X255860000Y-143697679D01*
X255349118Y-143799300D01*
X254916012Y-144088691D01*
X254626621Y-144521797D01*
X254590000Y-144705903D01*
X254553379Y-144521797D01*
X254263988Y-144088691D01*
X253830882Y-143799300D01*
X253320000Y-143697679D01*
X252809118Y-143799300D01*
X252376012Y-144088691D01*
X252086621Y-144521797D01*
X252050000Y-144705903D01*
X252013379Y-144521797D01*
X251723988Y-144088691D01*
X251290882Y-143799300D01*
X250780000Y-143697679D01*
X250269118Y-143799300D01*
X249836012Y-144088691D01*
X249546621Y-144521797D01*
X249510000Y-144705903D01*
X249473379Y-144521797D01*
X249183988Y-144088691D01*
X248750882Y-143799300D01*
X248240000Y-143697679D01*
X247729118Y-143799300D01*
X247296012Y-144088691D01*
X247006621Y-144521797D01*
X246970000Y-144705903D01*
X246933379Y-144521797D01*
X246643988Y-144088691D01*
X246210882Y-143799300D01*
X245700000Y-143697679D01*
X245189118Y-143799300D01*
X244756012Y-144088691D01*
X244466621Y-144521797D01*
X244430000Y-144705903D01*
X244393379Y-144521797D01*
X244103988Y-144088691D01*
X243670882Y-143799300D01*
X243160000Y-143697679D01*
X242649118Y-143799300D01*
X242216012Y-144088691D01*
X241926621Y-144521797D01*
X241890000Y-144705903D01*
X241853379Y-144521797D01*
X241563988Y-144088691D01*
X241130882Y-143799300D01*
X240620000Y-143697679D01*
X240109118Y-143799300D01*
X239676012Y-144088691D01*
X239386621Y-144521797D01*
X239350000Y-144705903D01*
X239313379Y-144521797D01*
X239023988Y-144088691D01*
X238590882Y-143799300D01*
X238080000Y-143697679D01*
X237569118Y-143799300D01*
X237136012Y-144088691D01*
X236846621Y-144521797D01*
X236810000Y-144705903D01*
X236773379Y-144521797D01*
X236483988Y-144088691D01*
X236050882Y-143799300D01*
X235540000Y-143697679D01*
X235029118Y-143799300D01*
X234596012Y-144088691D01*
X234306621Y-144521797D01*
X234270000Y-144705903D01*
X234233379Y-144521797D01*
X233943988Y-144088691D01*
X233510882Y-143799300D01*
X233000000Y-143697679D01*
X232489118Y-143799300D01*
X232056012Y-144088691D01*
X231766621Y-144521797D01*
X231730000Y-144705903D01*
X231693379Y-144521797D01*
X231403988Y-144088691D01*
X230970882Y-143799300D01*
X230460000Y-143697679D01*
X229949118Y-143799300D01*
X229516012Y-144088691D01*
X229226621Y-144521797D01*
X229190000Y-144705903D01*
X229153379Y-144521797D01*
X228863988Y-144088691D01*
X228486319Y-143836342D01*
X228636461Y-143836342D01*
X228876896Y-143936180D01*
X229248862Y-143936504D01*
X229592638Y-143794459D01*
X229855887Y-143531669D01*
X229998533Y-143188141D01*
X229998857Y-142816175D01*
X229856812Y-142472399D01*
X229594022Y-142209150D01*
X229250494Y-142066504D01*
X228878528Y-142066180D01*
X228636117Y-142166342D01*
X227448658Y-142166342D01*
X227129117Y-142229903D01*
X226858224Y-142410908D01*
X225539689Y-143729443D01*
X225380000Y-143697679D01*
X224869118Y-143799300D01*
X224436012Y-144088691D01*
X224146621Y-144521797D01*
X224107582Y-144718060D01*
X224024778Y-144441785D01*
X223694185Y-144036210D01*
X223233550Y-143788020D01*
X223173329Y-143777284D01*
X222967000Y-143900626D01*
X222713000Y-143900626D01*
X222506671Y-143777284D01*
X222446450Y-143788020D01*
X221985815Y-144036210D01*
X221655222Y-144441785D01*
X221572418Y-144718060D01*
X221533379Y-144521797D01*
X221243988Y-144088691D01*
X220810882Y-143799300D01*
X220300000Y-143697679D01*
X219789118Y-143799300D01*
X219356012Y-144088691D01*
X219113956Y-144450955D01*
X218871900Y-144088691D01*
X218438794Y-143799300D01*
X217927912Y-143697679D01*
X217417030Y-143799300D01*
X216983924Y-144088691D01*
X216694533Y-144521797D01*
X216592912Y-145032679D01*
X206120851Y-145032679D01*
X206127000Y-145000000D01*
X206127000Y-137315238D01*
X233015000Y-137315238D01*
X233015000Y-138684762D01*
X233160009Y-139413774D01*
X233572962Y-140031800D01*
X234190988Y-140444753D01*
X234920000Y-140589762D01*
X235649012Y-140444753D01*
X236267038Y-140031800D01*
X236679991Y-139413774D01*
X236825000Y-138684762D01*
X236825000Y-138127000D01*
X238095000Y-138127000D01*
X238095000Y-138762000D01*
X238288610Y-139481345D01*
X238742764Y-140071841D01*
X239388321Y-140443591D01*
X239577219Y-140492493D01*
X239873000Y-140376626D01*
X239873000Y-138127000D01*
X240127000Y-138127000D01*
X240127000Y-140376626D01*
X240422781Y-140492493D01*
X240611679Y-140443591D01*
X241257236Y-140071841D01*
X241711390Y-139481345D01*
X241905000Y-138762000D01*
X241905000Y-138127000D01*
X240127000Y-138127000D01*
X239873000Y-138127000D01*
X238095000Y-138127000D01*
X236825000Y-138127000D01*
X236825000Y-137315238D01*
X236809637Y-137238000D01*
X238095000Y-137238000D01*
X238095000Y-137873000D01*
X239873000Y-137873000D01*
X239873000Y-135623374D01*
X240127000Y-135623374D01*
X240127000Y-137873000D01*
X241905000Y-137873000D01*
X241905000Y-137238000D01*
X241711390Y-136518655D01*
X241257236Y-135928159D01*
X240611679Y-135556409D01*
X240422781Y-135507507D01*
X240127000Y-135623374D01*
X239873000Y-135623374D01*
X239577219Y-135507507D01*
X239388321Y-135556409D01*
X238742764Y-135928159D01*
X238288610Y-136518655D01*
X238095000Y-137238000D01*
X236809637Y-137238000D01*
X236679991Y-136586226D01*
X236267038Y-135968200D01*
X235649012Y-135555247D01*
X234920000Y-135410238D01*
X234190988Y-135555247D01*
X233572962Y-135968200D01*
X233160009Y-136586226D01*
X233015000Y-137315238D01*
X206127000Y-137315238D01*
X206127000Y-132373305D01*
X211614674Y-132373305D01*
X211901043Y-133066372D01*
X212430839Y-133597093D01*
X213123405Y-133884672D01*
X213873305Y-133885326D01*
X214566372Y-133598957D01*
X214832472Y-133333320D01*
X217346285Y-133333320D01*
X217475533Y-133626123D01*
X218175806Y-133894388D01*
X218925435Y-133874250D01*
X219524467Y-133626123D01*
X219653715Y-133333320D01*
X219535268Y-133214873D01*
X243914812Y-133214873D01*
X244079646Y-133613800D01*
X244384595Y-133919282D01*
X244747814Y-134070104D01*
X245314315Y-134636605D01*
X245617651Y-134839287D01*
X245975460Y-134910460D01*
X255906194Y-134910460D01*
X255985327Y-135101975D01*
X256290276Y-135407457D01*
X256688914Y-135572986D01*
X257120554Y-135573363D01*
X257519481Y-135408529D01*
X257824963Y-135103580D01*
X257990492Y-134704942D01*
X257990869Y-134273302D01*
X257826035Y-133874375D01*
X257521086Y-133568893D01*
X257157867Y-133418071D01*
X257054111Y-133314315D01*
X256750775Y-133111633D01*
X256392966Y-133040460D01*
X246362750Y-133040460D01*
X246069536Y-132747246D01*
X245920354Y-132386200D01*
X245615405Y-132080718D01*
X245216767Y-131915189D01*
X244785127Y-131914812D01*
X244386200Y-132079646D01*
X244080718Y-132384595D01*
X243915189Y-132783233D01*
X243914812Y-133214873D01*
X219535268Y-133214873D01*
X218500000Y-132179605D01*
X217346285Y-133333320D01*
X214832472Y-133333320D01*
X215097093Y-133069161D01*
X215384672Y-132376595D01*
X215385283Y-131675806D01*
X216605612Y-131675806D01*
X216625750Y-132425435D01*
X216873877Y-133024467D01*
X217166680Y-133153715D01*
X218320395Y-132000000D01*
X218679605Y-132000000D01*
X219833320Y-133153715D01*
X220126123Y-133024467D01*
X220394388Y-132324194D01*
X220374250Y-131574565D01*
X220126123Y-130975533D01*
X219833320Y-130846285D01*
X218679605Y-132000000D01*
X218320395Y-132000000D01*
X217166680Y-130846285D01*
X216873877Y-130975533D01*
X216605612Y-131675806D01*
X215385283Y-131675806D01*
X215385326Y-131626695D01*
X215098957Y-130933628D01*
X214832475Y-130666680D01*
X217346285Y-130666680D01*
X218500000Y-131820395D01*
X219653715Y-130666680D01*
X219524467Y-130373877D01*
X218824194Y-130105612D01*
X218074565Y-130125750D01*
X217475533Y-130373877D01*
X217346285Y-130666680D01*
X214832475Y-130666680D01*
X214569161Y-130402907D01*
X213876595Y-130115328D01*
X213126695Y-130114674D01*
X212433628Y-130401043D01*
X211902907Y-130930839D01*
X211615328Y-131623405D01*
X211614674Y-132373305D01*
X206127000Y-132373305D01*
X206127000Y-129695238D01*
X233015000Y-129695238D01*
X233015000Y-131064762D01*
X233160009Y-131793774D01*
X233572962Y-132411800D01*
X234190988Y-132824753D01*
X234920000Y-132969762D01*
X235649012Y-132824753D01*
X236267038Y-132411800D01*
X236679991Y-131793774D01*
X236825000Y-131064762D01*
X236825000Y-130507000D01*
X238095000Y-130507000D01*
X238095000Y-131142000D01*
X238288610Y-131861345D01*
X238742764Y-132451841D01*
X239388321Y-132823591D01*
X239577219Y-132872493D01*
X239873000Y-132756626D01*
X239873000Y-130507000D01*
X240127000Y-130507000D01*
X240127000Y-132756626D01*
X240422781Y-132872493D01*
X240611679Y-132823591D01*
X241257236Y-132451841D01*
X241711390Y-131861345D01*
X241905000Y-131142000D01*
X241905000Y-130507000D01*
X240127000Y-130507000D01*
X239873000Y-130507000D01*
X238095000Y-130507000D01*
X236825000Y-130507000D01*
X236825000Y-129695238D01*
X236809637Y-129618000D01*
X238095000Y-129618000D01*
X238095000Y-130253000D01*
X239873000Y-130253000D01*
X239873000Y-128003374D01*
X240127000Y-128003374D01*
X240127000Y-130253000D01*
X241905000Y-130253000D01*
X241905000Y-129618000D01*
X241711390Y-128898655D01*
X241257236Y-128308159D01*
X240611679Y-127936409D01*
X240422781Y-127887507D01*
X240127000Y-128003374D01*
X239873000Y-128003374D01*
X239577219Y-127887507D01*
X239388321Y-127936409D01*
X238742764Y-128308159D01*
X238288610Y-128898655D01*
X238095000Y-129618000D01*
X236809637Y-129618000D01*
X236679991Y-128966226D01*
X236267038Y-128348200D01*
X235649012Y-127935247D01*
X234920000Y-127790238D01*
X234190988Y-127935247D01*
X233572962Y-128348200D01*
X233160009Y-128966226D01*
X233015000Y-129695238D01*
X206127000Y-129695238D01*
X206127000Y-120710000D01*
X254030772Y-120710000D01*
X252547628Y-121322823D01*
M02*
