G04 #@! TF.FileFunction,Copper,L1,Top,Signal*
%FSLAX46Y46*%
G04 Gerber Fmt 4.6, Leading zero omitted, Abs format (unit mm)*
G04 Created by KiCad (PCBNEW 4.0.7-e2-6376~58~ubuntu16.04.1) date Wed Dec 12 02:29:56 2018*
%MOMM*%
%LPD*%
G01*
G04 APERTURE LIST*
%ADD10C,0.100000*%
%ADD11C,2.500000*%
%ADD12C,7.400000*%
%ADD13C,3.000000*%
%ADD14R,1.250000X1.000000*%
%ADD15R,1.000000X1.250000*%
%ADD16R,2.500000X2.300000*%
%ADD17O,2.540000X3.810000*%
%ADD18R,1.700000X1.700000*%
%ADD19O,1.700000X1.700000*%
%ADD20R,1.300000X0.700000*%
%ADD21R,0.700000X1.300000*%
%ADD22R,1.524000X1.524000*%
%ADD23R,0.800000X0.900000*%
%ADD24R,2.000000X3.800000*%
%ADD25R,2.000000X1.500000*%
%ADD26O,3.500000X2.500000*%
%ADD27R,1.200000X0.600000*%
%ADD28R,0.600000X1.200000*%
%ADD29R,0.650000X1.060000*%
%ADD30R,1.500000X1.500000*%
%ADD31R,2.000000X2.000000*%
%ADD32C,1.524000*%
%ADD33R,1.500000X3.000000*%
%ADD34R,2.000000X1.100000*%
%ADD35R,3.200000X1.000000*%
%ADD36R,1.500000X0.450000*%
%ADD37R,2.310000X2.460000*%
%ADD38C,4.000000*%
%ADD39R,4.000000X2.500000*%
%ADD40R,1.270000X0.970000*%
%ADD41O,1.400000X2.540000*%
%ADD42C,0.900000*%
%ADD43C,0.600000*%
%ADD44C,1.200000*%
%ADD45C,0.600000*%
%ADD46C,0.400000*%
%ADD47C,1.000000*%
%ADD48C,3.600000*%
G04 APERTURE END LIST*
D10*
D11*
X197000000Y-153500000D03*
X202000000Y-153500000D03*
D12*
X254970000Y-235000000D03*
X90000000Y-235000000D03*
X255000000Y-125000000D03*
D13*
X185000000Y-147380000D03*
X185000000Y-155000000D03*
X164680000Y-147380000D03*
X159600000Y-147380000D03*
X169760000Y-147380000D03*
X164680000Y-155000000D03*
X159600000Y-155000000D03*
X169760000Y-155000000D03*
D11*
X213500000Y-132000000D03*
X218500000Y-132000000D03*
D14*
X205148659Y-185841441D03*
X205148659Y-183841441D03*
X242000000Y-206000000D03*
X242000000Y-208000000D03*
D15*
X242000000Y-211000000D03*
X240000000Y-211000000D03*
D14*
X208148659Y-185841441D03*
X208148659Y-183841441D03*
D15*
X242000000Y-203000000D03*
X240000000Y-203000000D03*
X207000000Y-191000000D03*
X205000000Y-191000000D03*
X220148659Y-198841441D03*
X218148659Y-198841441D03*
X247000000Y-133000000D03*
X249000000Y-133000000D03*
D16*
X198300000Y-168500000D03*
X194000000Y-168500000D03*
X207300000Y-168500000D03*
X203000000Y-168500000D03*
D17*
X185000000Y-138000000D03*
X185000000Y-130380000D03*
X179920000Y-138000000D03*
X179920000Y-130380000D03*
D18*
X215808659Y-176301441D03*
D19*
X215808659Y-178841441D03*
X213268659Y-176301441D03*
X213268659Y-178841441D03*
X210728659Y-176301441D03*
X210728659Y-178841441D03*
X208188659Y-176301441D03*
X208188659Y-178841441D03*
X205648659Y-176301441D03*
X205648659Y-178841441D03*
D17*
X226760000Y-222380000D03*
X226760000Y-230000000D03*
X231840000Y-222380000D03*
X231840000Y-230000000D03*
X242000000Y-222380000D03*
X236920000Y-222380000D03*
X236920000Y-230000000D03*
X242000000Y-230000000D03*
X196500000Y-222380000D03*
X196500000Y-230000000D03*
X201580000Y-222380000D03*
X201580000Y-230000000D03*
X166500000Y-222380000D03*
X166500000Y-230000000D03*
X171580000Y-222380000D03*
X171580000Y-230000000D03*
X181500000Y-222380000D03*
X181500000Y-230000000D03*
X186580000Y-222380000D03*
X186580000Y-230000000D03*
X211500000Y-222380000D03*
X211500000Y-230000000D03*
X216580000Y-222380000D03*
X216580000Y-230000000D03*
D13*
X115000000Y-147380000D03*
X115000000Y-155000000D03*
X94680000Y-147380000D03*
X89600000Y-147380000D03*
X99760000Y-147380000D03*
X94680000Y-155000000D03*
X89600000Y-155000000D03*
X99760000Y-155000000D03*
X150000000Y-147380000D03*
X150000000Y-155000000D03*
X129680000Y-147380000D03*
X124600000Y-147380000D03*
X134760000Y-147380000D03*
X129680000Y-155000000D03*
X124600000Y-155000000D03*
X134760000Y-155000000D03*
D20*
X257000000Y-175000000D03*
X257000000Y-176900000D03*
X257000000Y-179000000D03*
X257000000Y-180900000D03*
D21*
X232100000Y-195500000D03*
X234000000Y-195500000D03*
X232100000Y-193500000D03*
X234000000Y-193500000D03*
X232100000Y-191500000D03*
X234000000Y-191500000D03*
D20*
X253000000Y-220900000D03*
X253000000Y-219000000D03*
X250000000Y-220900000D03*
X250000000Y-219000000D03*
D21*
X223000000Y-206000000D03*
X224900000Y-206000000D03*
X223000000Y-209000000D03*
X224900000Y-209000000D03*
D20*
X256000000Y-220900000D03*
X256000000Y-219000000D03*
X197000000Y-180000000D03*
X197000000Y-181900000D03*
X201580000Y-217000000D03*
X201580000Y-215100000D03*
X201580000Y-212900000D03*
X201580000Y-211000000D03*
X216580000Y-217000000D03*
X216580000Y-215100000D03*
X216580000Y-212900000D03*
X216580000Y-211000000D03*
D22*
X220000000Y-178000000D03*
X220000000Y-175968000D03*
D23*
X197000000Y-177000000D03*
X198900000Y-177000000D03*
X197950000Y-175000000D03*
D24*
X190300000Y-186000000D03*
D25*
X184000000Y-186000000D03*
X184000000Y-188300000D03*
X184000000Y-183700000D03*
D24*
X178150000Y-186000000D03*
D25*
X171850000Y-186000000D03*
X171850000Y-188300000D03*
X171850000Y-183700000D03*
D26*
X156000000Y-201500000D03*
X156000000Y-178500000D03*
X94000000Y-210000000D03*
X94000000Y-190000000D03*
D27*
X210898659Y-187791441D03*
X210898659Y-188591441D03*
X210898659Y-189391441D03*
X210898659Y-190191441D03*
X210898659Y-190991441D03*
X210898659Y-191791441D03*
X210898659Y-192591441D03*
X210898659Y-193391441D03*
D28*
X212348659Y-194841441D03*
X213148659Y-194841441D03*
X213948659Y-194841441D03*
X214748659Y-194841441D03*
X215548659Y-194841441D03*
X216348659Y-194841441D03*
X217148659Y-194841441D03*
X217948659Y-194841441D03*
D27*
X219398659Y-193391441D03*
X219398659Y-192591441D03*
X219398659Y-191791441D03*
X219398659Y-190991441D03*
X219398659Y-190191441D03*
X219398659Y-189391441D03*
X219398659Y-188591441D03*
X219398659Y-187791441D03*
D28*
X217948659Y-186341441D03*
X217148659Y-186341441D03*
X216348659Y-186341441D03*
X215548659Y-186341441D03*
X214748659Y-186341441D03*
X213948659Y-186341441D03*
X213148659Y-186341441D03*
X212348659Y-186341441D03*
D29*
X248900000Y-136800000D03*
X247950000Y-136800000D03*
X247000000Y-136800000D03*
X247000000Y-139000000D03*
X248900000Y-139000000D03*
X247950000Y-139000000D03*
D30*
X171580000Y-193680000D03*
X171580000Y-196220000D03*
D31*
X171580000Y-206380000D03*
X171580000Y-214000000D03*
D30*
X186580000Y-193680000D03*
X186580000Y-196220000D03*
D31*
X186580000Y-206380000D03*
X186580000Y-214000000D03*
D32*
X233680000Y-175260000D03*
X231140000Y-175260000D03*
X228600000Y-175260000D03*
D33*
X248825000Y-208750000D03*
X250095000Y-213250000D03*
X251365000Y-208750000D03*
X252635000Y-213250000D03*
X253905000Y-208750000D03*
X255175000Y-213250000D03*
X248825000Y-196750000D03*
X250095000Y-201250000D03*
X251365000Y-196750000D03*
X252635000Y-201250000D03*
X253905000Y-196750000D03*
X255175000Y-201250000D03*
X248825000Y-184750000D03*
X250095000Y-189250000D03*
X251365000Y-184750000D03*
X252635000Y-189250000D03*
X253905000Y-184750000D03*
X255175000Y-189250000D03*
D34*
X242000000Y-194700000D03*
X242000000Y-193000000D03*
X242000000Y-191300000D03*
X237200000Y-191300000D03*
X237200000Y-193000000D03*
X237200000Y-194700000D03*
D16*
X189000000Y-162500000D03*
X184700000Y-162500000D03*
D35*
X169000000Y-164000000D03*
X169000000Y-170200000D03*
X179000000Y-164000000D03*
X179000000Y-170200000D03*
X174000000Y-164000000D03*
X174000000Y-170200000D03*
D18*
X238760000Y-175260000D03*
D19*
X241300000Y-175260000D03*
X243840000Y-175260000D03*
X246380000Y-175260000D03*
X248920000Y-175260000D03*
X251460000Y-175260000D03*
D12*
X90000000Y-125000000D03*
D14*
X240000000Y-208000000D03*
X240000000Y-206000000D03*
D36*
X229650000Y-205325000D03*
X229650000Y-205975000D03*
X229650000Y-206625000D03*
X229650000Y-207275000D03*
X229650000Y-207925000D03*
X229650000Y-208575000D03*
X229650000Y-209225000D03*
X229650000Y-209875000D03*
X235550000Y-209875000D03*
X235550000Y-209225000D03*
X235550000Y-208575000D03*
X235550000Y-207925000D03*
X235550000Y-207275000D03*
X235550000Y-206625000D03*
X235550000Y-205975000D03*
X235550000Y-205325000D03*
D37*
X232600000Y-207600000D03*
D17*
X200000000Y-138000000D03*
X200000000Y-130380000D03*
X194920000Y-138000000D03*
X194920000Y-130380000D03*
X240000000Y-138000000D03*
X240000000Y-130380000D03*
X234920000Y-138000000D03*
X234920000Y-130380000D03*
D38*
X115000000Y-230000000D03*
X115000000Y-224920000D03*
X135000000Y-230000000D03*
X135000000Y-224920000D03*
X155000000Y-230000000D03*
X155000000Y-224920000D03*
X105000000Y-230000000D03*
X105000000Y-224920000D03*
X125000000Y-230000000D03*
X125000000Y-224920000D03*
X145000000Y-230000000D03*
X145000000Y-224920000D03*
X105000000Y-135000000D03*
X105000000Y-129920000D03*
X125000000Y-135000000D03*
X125000000Y-129920000D03*
X145000000Y-135000000D03*
X145000000Y-129920000D03*
X115000000Y-135000000D03*
X115000000Y-129920000D03*
X135000000Y-135000000D03*
X135000000Y-129920000D03*
X155000000Y-135000000D03*
X155000000Y-129920000D03*
X169000000Y-130920000D03*
X169000000Y-136000000D03*
D16*
X184500000Y-168500000D03*
X188800000Y-168500000D03*
D39*
X189804098Y-177128234D03*
X183704098Y-177128234D03*
X177804098Y-177128234D03*
X171704098Y-177128234D03*
D40*
X213000000Y-164730000D03*
X213000000Y-166000000D03*
X213000000Y-167270000D03*
D41*
X217927912Y-145640000D03*
X220300000Y-145640000D03*
X222840000Y-145640000D03*
X225380000Y-145640000D03*
X227920000Y-145640000D03*
X230460000Y-145640000D03*
X233000000Y-145640000D03*
X235540000Y-145640000D03*
X238080000Y-145640000D03*
X240620000Y-145640000D03*
X243160000Y-145640000D03*
X245700000Y-145640000D03*
X248240000Y-145640000D03*
X250780000Y-145640000D03*
X253320000Y-145640000D03*
X255860000Y-145640000D03*
X217927912Y-168500000D03*
X220300000Y-168500000D03*
X222840000Y-168500000D03*
X225380000Y-168500000D03*
X227920000Y-168500000D03*
X230460000Y-168500000D03*
X233000000Y-168500000D03*
X235540000Y-168500000D03*
X238080000Y-168500000D03*
X240620000Y-168500000D03*
X243160000Y-168500000D03*
X245700000Y-168500000D03*
X248240000Y-168500000D03*
X250780000Y-168500000D03*
X253320000Y-168500000D03*
X255860000Y-168500000D03*
D42*
X222690609Y-197342502D03*
X207158156Y-193763009D03*
X200000000Y-177000000D03*
X182852857Y-174426993D03*
X171000000Y-174426993D03*
X220000000Y-174000000D03*
X222255582Y-208773488D03*
X248825000Y-184750000D03*
X248825000Y-196750000D03*
X248825000Y-208750000D03*
X216750000Y-198000000D03*
X216750000Y-198000000D03*
X206664241Y-183862581D03*
X203500000Y-191000000D03*
D43*
X232624345Y-208526575D03*
X233450064Y-207625261D03*
X231746290Y-207619446D03*
X232601085Y-207602001D03*
X232618530Y-206683243D03*
X233450064Y-208517853D03*
X233447157Y-206677428D03*
X231749198Y-206677428D03*
X231748534Y-208519201D03*
D42*
X203000000Y-211000000D03*
X215000000Y-211000000D03*
X222000000Y-206000000D03*
X244000000Y-203000000D03*
X244000000Y-206000000D03*
X244000000Y-193000000D03*
X257000000Y-183000000D03*
X251000000Y-133000000D03*
X194015841Y-189111963D03*
X199000000Y-189000000D03*
X211000000Y-200000000D03*
X222000000Y-200000000D03*
X180808711Y-185354866D03*
X198961371Y-184963253D03*
D43*
X205237904Y-188106475D03*
X208793370Y-188108559D03*
D42*
X209500000Y-163000000D03*
X209500000Y-167000000D03*
X245000000Y-133000000D03*
X256905681Y-134488175D03*
X205677770Y-173568994D03*
X169000000Y-187000000D03*
X194000000Y-187000000D03*
X203000000Y-187000000D03*
X246503833Y-187107512D03*
X228000000Y-187000000D03*
X253905000Y-184750000D03*
D44*
X97848832Y-123271247D03*
D43*
X226070884Y-214236688D03*
X226500000Y-205500000D03*
X227092852Y-214252020D03*
X226516885Y-207350425D03*
X229003605Y-214217520D03*
X227251311Y-208009909D03*
X228026031Y-214217520D03*
X227240272Y-209723542D03*
D38*
X90000000Y-161000000D03*
X124600000Y-160600000D03*
X156318565Y-162312381D03*
D43*
X250567416Y-179697388D03*
X255598020Y-180101429D03*
X222500000Y-194000000D03*
X216250000Y-193000000D03*
X218184384Y-192299990D03*
X222500000Y-193000000D03*
X227500000Y-191500000D03*
X217250000Y-191500000D03*
X225538164Y-178222148D03*
X229500000Y-182185022D03*
X224865164Y-179051657D03*
X229256168Y-183500000D03*
X229063695Y-143001342D03*
X226633741Y-177736964D03*
X229500000Y-181095741D03*
X255132023Y-182189081D03*
X250895048Y-180784690D03*
X226204161Y-188229005D03*
X215000000Y-188000000D03*
X224974706Y-189199121D03*
X215000000Y-189000000D03*
X235497888Y-203024772D03*
X213250000Y-202000000D03*
X234170308Y-201257003D03*
X213240780Y-201110186D03*
X221500000Y-202750000D03*
X219000000Y-202750000D03*
X229500000Y-179000000D03*
X228500000Y-179000000D03*
D44*
X156500000Y-215250000D03*
D43*
X228500000Y-151000000D03*
X220000000Y-151000000D03*
X229896599Y-152058026D03*
X220000000Y-152000000D03*
D42*
X197000000Y-145500000D03*
X189000000Y-159000000D03*
X185000000Y-159000000D03*
X198203932Y-171703932D03*
X189500000Y-171500000D03*
D45*
X198300000Y-168500000D02*
X198300000Y-168801925D01*
X198300000Y-168801925D02*
X195000000Y-172101925D01*
X195000000Y-172101925D02*
X195000000Y-193763009D01*
X213000000Y-164730000D02*
X198500000Y-164730000D01*
X198500000Y-164730000D02*
X194500000Y-164730000D01*
X198300000Y-168500000D02*
X198300000Y-164930000D01*
X198300000Y-164930000D02*
X198500000Y-164730000D01*
X194500000Y-164730000D02*
X191330000Y-164730000D01*
X191330000Y-164730000D02*
X189100000Y-162500000D01*
X189100000Y-162500000D02*
X189000000Y-162500000D01*
X195000000Y-193763009D02*
X189713009Y-193763009D01*
X207158156Y-193763009D02*
X195000000Y-193763009D01*
X189713009Y-193763009D02*
X184250000Y-188300000D01*
X184250000Y-188300000D02*
X184000000Y-188300000D01*
X242000000Y-208000000D02*
X243477533Y-208000000D01*
X243477533Y-208000000D02*
X245022012Y-206455521D01*
X245022012Y-206455521D02*
X245022012Y-198906050D01*
X245022012Y-198906050D02*
X243458464Y-197342502D01*
X243458464Y-197342502D02*
X223327005Y-197342502D01*
X223327005Y-197342502D02*
X222690609Y-197342502D01*
X242000000Y-208000000D02*
X242000000Y-211000000D01*
D46*
X239006384Y-208000000D02*
X238931384Y-207925000D01*
X238931384Y-207925000D02*
X235550000Y-207925000D01*
X240000000Y-208000000D02*
X239006384Y-208000000D01*
D45*
X240000000Y-208000000D02*
X242000000Y-208000000D01*
X198900000Y-177000000D02*
X200000000Y-177000000D01*
X182852857Y-174426993D02*
X171000000Y-174426993D01*
X171704098Y-177128234D02*
X171704098Y-175278234D01*
X171000000Y-174426993D02*
X168573007Y-174426993D01*
X171704098Y-175278234D02*
X171000000Y-174574136D01*
X171000000Y-174574136D02*
X171000000Y-174426993D01*
X183704098Y-177128234D02*
X183704098Y-175278234D01*
X183704098Y-175278234D02*
X182852857Y-174426993D01*
X168573007Y-174426993D02*
X164500000Y-178500000D01*
X164500000Y-178500000D02*
X156000000Y-178500000D01*
X171850000Y-180000000D02*
X171850000Y-177274136D01*
X171850000Y-183700000D02*
X171850000Y-180000000D01*
X184000000Y-180000000D02*
X184000000Y-177424136D01*
X184000000Y-183700000D02*
X184000000Y-180000000D01*
X184000000Y-177424136D02*
X183704098Y-177128234D01*
X171850000Y-177274136D02*
X171704098Y-177128234D01*
X220000000Y-175968000D02*
X220000000Y-174000000D01*
X223000000Y-208881510D02*
X222891978Y-208773488D01*
X222891978Y-208773488D02*
X222255582Y-208773488D01*
X223000000Y-209000000D02*
X223000000Y-208881510D01*
X218148659Y-198841441D02*
X217591441Y-198841441D01*
X217591441Y-198841441D02*
X216750000Y-198000000D01*
X217948659Y-194841441D02*
X217948659Y-198641441D01*
X217948659Y-198641441D02*
X218148659Y-198841441D01*
X206685381Y-183841441D02*
X206664241Y-183862581D01*
X208148659Y-183841441D02*
X206685381Y-183841441D01*
X206643101Y-183841441D02*
X206664241Y-183862581D01*
X205148659Y-183841441D02*
X206643101Y-183841441D01*
X205000000Y-191000000D02*
X203500000Y-191000000D01*
X212348659Y-186341441D02*
X212348659Y-185169625D01*
X212348659Y-185169625D02*
X211020475Y-183841441D01*
X211020475Y-183841441D02*
X208148659Y-183841441D01*
X213148659Y-186341441D02*
X212348659Y-186341441D01*
X201580000Y-211000000D02*
X203000000Y-211000000D01*
X216580000Y-211000000D02*
X215000000Y-211000000D01*
X223000000Y-206000000D02*
X222000000Y-206000000D01*
X243100000Y-203000000D02*
X244000000Y-203000000D01*
X242000000Y-203000000D02*
X243100000Y-203000000D01*
X242000000Y-206000000D02*
X244000000Y-206000000D01*
D46*
X239875000Y-206000000D02*
X239416082Y-206000000D01*
X239416082Y-206000000D02*
X238141082Y-207275000D01*
X238141082Y-207275000D02*
X236775002Y-207275000D01*
X236775002Y-207275000D02*
X235550000Y-207275000D01*
D45*
X240000000Y-206000000D02*
X239875000Y-206000000D01*
X240000000Y-206000000D02*
X242000000Y-206000000D01*
X248825000Y-196750000D02*
X248825000Y-198850000D01*
X248825000Y-198850000D02*
X248825000Y-208750000D01*
X248825000Y-184750000D02*
X248825000Y-186850000D01*
X248825000Y-186850000D02*
X248825000Y-196750000D01*
X242000000Y-193000000D02*
X244000000Y-193000000D01*
X242000000Y-193000000D02*
X242000000Y-194700000D01*
X242000000Y-191300000D02*
X242000000Y-193000000D01*
X257000000Y-180900000D02*
X257000000Y-183000000D01*
X247950000Y-136800000D02*
X247950000Y-135323448D01*
X247950000Y-135323448D02*
X249000000Y-134273448D01*
X249000000Y-134273448D02*
X249000000Y-133000000D01*
X249000000Y-133000000D02*
X251000000Y-133000000D01*
X184000000Y-186000000D02*
X182838638Y-186000000D01*
X182838638Y-186000000D02*
X177838638Y-191000000D01*
X177838638Y-191000000D02*
X170959398Y-191000000D01*
X170959398Y-191000000D02*
X169554215Y-192405183D01*
X169554215Y-192405183D02*
X169554215Y-197022851D01*
X169554215Y-197022851D02*
X170381994Y-197850630D01*
X170381994Y-197850630D02*
X208850630Y-197850630D01*
X208850630Y-197850630D02*
X211000000Y-200000000D01*
X193379445Y-189111963D02*
X194015841Y-189111963D01*
X192511963Y-189111963D02*
X193379445Y-189111963D01*
X190300000Y-186900000D02*
X192511963Y-189111963D01*
X190300000Y-186000000D02*
X190300000Y-186900000D01*
X207000000Y-189000000D02*
X199000000Y-189000000D01*
X184000000Y-186000000D02*
X190300000Y-186000000D01*
X190300000Y-186000000D02*
X190300000Y-177624136D01*
X190300000Y-177624136D02*
X189804098Y-177128234D01*
X220148659Y-198841441D02*
X220841441Y-198841441D01*
X220841441Y-198841441D02*
X222000000Y-200000000D01*
X207000000Y-188500000D02*
X207000000Y-189000000D01*
X207000000Y-189000000D02*
X207000000Y-191000000D01*
X208148659Y-187351341D02*
X207000000Y-188500000D01*
X208148659Y-185841441D02*
X208148659Y-187351341D01*
X219398659Y-193391441D02*
X219800551Y-193793333D01*
X219800551Y-193793333D02*
X219800551Y-198493333D01*
X219800551Y-198493333D02*
X220148659Y-198841441D01*
X210898659Y-190991441D02*
X207008559Y-190991441D01*
X207008559Y-190991441D02*
X207000000Y-191000000D01*
X210898659Y-187791441D02*
X210098659Y-187791441D01*
X210098659Y-187791441D02*
X208148659Y-185841441D01*
X252635000Y-189250000D02*
X252635000Y-180635000D01*
X252635000Y-180635000D02*
X250000000Y-178000000D01*
X250000000Y-178000000D02*
X227810607Y-178000000D01*
X227810607Y-178000000D02*
X225052980Y-180757627D01*
X225052980Y-180757627D02*
X222126224Y-177830871D01*
X222126224Y-177830871D02*
X222126224Y-174137211D01*
X222126224Y-174137211D02*
X220610701Y-172621688D01*
X220610701Y-172621688D02*
X209328412Y-172621688D01*
X209328412Y-172621688D02*
X205648659Y-176301441D01*
X178150000Y-186000000D02*
X180163577Y-186000000D01*
X180358712Y-185804865D02*
X180808711Y-185354866D01*
X180163577Y-186000000D02*
X180358712Y-185804865D01*
X198961371Y-182988729D02*
X198961371Y-184326857D01*
X198961371Y-184326857D02*
X198961371Y-184963253D01*
X205648659Y-176301441D02*
X198961371Y-182988729D01*
X171850000Y-186000000D02*
X178150000Y-186000000D01*
X178150000Y-186000000D02*
X178150000Y-177474136D01*
X178150000Y-177474136D02*
X177804098Y-177128234D01*
X254366749Y-220112053D02*
X254366749Y-220783251D01*
X254250000Y-220900000D02*
X253000000Y-220900000D01*
X254366749Y-220783251D02*
X254250000Y-220900000D01*
X252635000Y-213250000D02*
X252635000Y-215634310D01*
X252635000Y-215634310D02*
X254366749Y-217366059D01*
X254366749Y-217366059D02*
X254366749Y-220112053D01*
X254366749Y-220112053D02*
X254372800Y-220118104D01*
X256000000Y-220900000D02*
X254000000Y-220900000D01*
X254000000Y-220900000D02*
X253000000Y-220900000D01*
X250000000Y-220900000D02*
X253000000Y-220900000D01*
X252635000Y-201250000D02*
X252635000Y-203350000D01*
X252635000Y-203350000D02*
X252635000Y-213250000D01*
X252635000Y-189250000D02*
X252635000Y-191350000D01*
X252635000Y-191350000D02*
X252635000Y-201250000D01*
D46*
X205148659Y-185841441D02*
X205148659Y-188017230D01*
X205148659Y-188017230D02*
X205237904Y-188106475D01*
X208793370Y-188532823D02*
X208793370Y-188108559D01*
X208793370Y-189086152D02*
X208793370Y-188532823D01*
X209898659Y-190191441D02*
X208793370Y-189086152D01*
X210898659Y-190191441D02*
X209898659Y-190191441D01*
X240000000Y-211000000D02*
X240000000Y-210875000D01*
X240000000Y-210875000D02*
X237700000Y-208575000D01*
X237700000Y-208575000D02*
X236700000Y-208575000D01*
X236700000Y-208575000D02*
X235550000Y-208575000D01*
X235550000Y-206625000D02*
X236700000Y-206625000D01*
X236700000Y-206625000D02*
X240000000Y-203325000D01*
X240000000Y-203325000D02*
X240000000Y-203000000D01*
D45*
X209500000Y-163000000D02*
X209500000Y-147000000D01*
X209500000Y-147000000D02*
X209500000Y-144500000D01*
X185000000Y-147380000D02*
X209120000Y-147380000D01*
X209120000Y-147380000D02*
X209500000Y-147000000D01*
X209500000Y-144500000D02*
X210000000Y-144000000D01*
X209500000Y-168150000D02*
X209500000Y-167000000D01*
X207300000Y-168500000D02*
X209150000Y-168500000D01*
X209150000Y-168500000D02*
X209500000Y-168150000D01*
X247000000Y-136800000D02*
X247000000Y-133000000D01*
X245000000Y-133000000D02*
X247000000Y-133000000D01*
X210000000Y-144000000D02*
X212910439Y-141089561D01*
X244000000Y-134000000D02*
X245000000Y-133000000D01*
X212910439Y-141089561D02*
X241910439Y-141089561D01*
X241910439Y-141089561D02*
X244000000Y-139000000D01*
X244000000Y-139000000D02*
X244000000Y-134000000D01*
X216580000Y-230000000D02*
X218450000Y-230000000D01*
X218450000Y-230000000D02*
X222218353Y-233768353D01*
X222218353Y-233768353D02*
X247231647Y-233768353D01*
X247231647Y-233768353D02*
X258847981Y-222152019D01*
X258847981Y-222152019D02*
X258847981Y-136430475D01*
X258847981Y-136430475D02*
X257355680Y-134938174D01*
X257355680Y-134938174D02*
X256905681Y-134488175D01*
X209988855Y-144011145D02*
X210000000Y-144000000D01*
X216580000Y-222380000D02*
X216580000Y-224885000D01*
X216580000Y-224885000D02*
X216580000Y-230000000D01*
X216580000Y-217000000D02*
X216580000Y-222380000D01*
X150000000Y-141605010D02*
X173337234Y-141605010D01*
X183500001Y-145880001D02*
X185000000Y-147380000D01*
X173337234Y-141605010D02*
X177612225Y-145880001D01*
X177612225Y-145880001D02*
X183500001Y-145880001D01*
X119205494Y-141605010D02*
X150000000Y-141605010D01*
X150000000Y-147380000D02*
X150000000Y-141605010D01*
X115000000Y-147380000D02*
X115000000Y-145810504D01*
X115000000Y-145810504D02*
X119205494Y-141605010D01*
X206551006Y-173568994D02*
X205677770Y-173568994D01*
X212850000Y-167270000D02*
X206551006Y-173568994D01*
X213000000Y-167270000D02*
X212850000Y-167270000D01*
X188800000Y-168500000D02*
X194000000Y-168500000D01*
X194000000Y-173700000D02*
X194000000Y-168500000D01*
X194000000Y-173600000D02*
X194000000Y-173700000D01*
X194000000Y-187000000D02*
X194000000Y-173700000D01*
X169000000Y-187000000D02*
X169000000Y-188232332D01*
X169000000Y-188232332D02*
X168932332Y-188300000D01*
X166000000Y-198848503D02*
X166000000Y-191232332D01*
X166000000Y-191232332D02*
X168932332Y-188300000D01*
X168932332Y-188300000D02*
X171850000Y-188300000D01*
X194626487Y-198848503D02*
X166000000Y-198848503D01*
X166000000Y-198848503D02*
X158640049Y-198848503D01*
X196500000Y-222380000D02*
X196500000Y-200722016D01*
X158640049Y-198848503D02*
X158632505Y-198840959D01*
X196500000Y-200722016D02*
X194626487Y-198848503D01*
X158632505Y-198840959D02*
X156000000Y-201473464D01*
X156000000Y-201473464D02*
X156000000Y-201500000D01*
X253000000Y-176800000D02*
X253905000Y-177705000D01*
X253905000Y-177705000D02*
X253905000Y-182650000D01*
X253905000Y-182650000D02*
X253905000Y-184750000D01*
X203000000Y-181490100D02*
X203000000Y-187000000D01*
X205648659Y-178841441D02*
X203000000Y-181490100D01*
X246396321Y-187000000D02*
X246503833Y-187107512D01*
X228000000Y-187000000D02*
X246396321Y-187000000D01*
X251460000Y-175260000D02*
X253000000Y-176800000D01*
X257000000Y-175000000D02*
X254800000Y-175000000D01*
X254800000Y-175000000D02*
X253000000Y-176800000D01*
X196500000Y-222380000D02*
X196500000Y-224885000D01*
X196500000Y-224885000D02*
X196500000Y-230000000D01*
X253905000Y-196750000D02*
X253905000Y-208750000D01*
X253905000Y-184750000D02*
X253905000Y-196750000D01*
D47*
X179920000Y-130380000D02*
X179920000Y-127119243D01*
X179920000Y-127119243D02*
X176072004Y-123271247D01*
X114981205Y-126126001D02*
X114981205Y-129901205D01*
X176072004Y-123271247D02*
X117835959Y-123271247D01*
X117835959Y-123271247D02*
X114981205Y-126126001D01*
X114981205Y-129901205D02*
X115000000Y-129920000D01*
D48*
X94680000Y-155000000D02*
X99760000Y-155000000D01*
X99760000Y-147380000D02*
X94706927Y-147380000D01*
D47*
X104250000Y-200250000D02*
X106530119Y-197969881D01*
X106530119Y-145904603D02*
X97848832Y-137223316D01*
X106530119Y-197969881D02*
X106530119Y-145904603D01*
X97848832Y-137223316D02*
X97848832Y-124119775D01*
X97848832Y-124119775D02*
X97848832Y-123271247D01*
X94000000Y-190000000D02*
X104250000Y-200250000D01*
X104250000Y-200250000D02*
X113870381Y-209870381D01*
X166500000Y-230000000D02*
X166500000Y-222380000D01*
X113870381Y-209870381D02*
X156597012Y-209870381D01*
X156597012Y-209870381D02*
X166500000Y-219773369D01*
X166500000Y-219773369D02*
X166500000Y-222380000D01*
X181500000Y-230000000D02*
X179230000Y-230000000D01*
X179230000Y-230000000D02*
X175824990Y-233405010D01*
X175824990Y-233405010D02*
X169270010Y-233405010D01*
X169270010Y-233405010D02*
X166500000Y-230635000D01*
X166500000Y-230635000D02*
X166500000Y-230000000D01*
X181500000Y-222380000D02*
X181500000Y-230000000D01*
D48*
X129680000Y-155000000D02*
X134760000Y-155000000D01*
X129680000Y-147380000D02*
X134760000Y-147380000D01*
X164680000Y-155000000D02*
X169760000Y-155000000D01*
X164680000Y-147380000D02*
X169760000Y-147380000D01*
D46*
X214748659Y-186341441D02*
X214748659Y-182861441D01*
X214748659Y-182861441D02*
X210728659Y-178841441D01*
X213948659Y-186341441D02*
X213948659Y-184601441D01*
X213948659Y-184601441D02*
X208188659Y-178841441D01*
X226070884Y-219385884D02*
X226070884Y-214236688D01*
X226760000Y-220075000D02*
X226070884Y-219385884D01*
X226760000Y-222380000D02*
X226760000Y-220075000D01*
X226799999Y-205799999D02*
X226500000Y-205500000D01*
X228499988Y-205974988D02*
X226974988Y-205974988D01*
X228500000Y-205975000D02*
X228499988Y-205974988D01*
X229650000Y-205975000D02*
X228500000Y-205975000D01*
X226974988Y-205974988D02*
X226799999Y-205799999D01*
X226760000Y-222380000D02*
X226760000Y-230000000D01*
X227092852Y-214676284D02*
X227092852Y-214252020D01*
X227092852Y-215327852D02*
X227092852Y-214676284D01*
X231840000Y-220075000D02*
X227092852Y-215327852D01*
X231840000Y-222380000D02*
X231840000Y-220075000D01*
X226592310Y-207275000D02*
X226516885Y-207350425D01*
X229650000Y-207275000D02*
X226592310Y-207275000D01*
X231840000Y-222380000D02*
X231840000Y-224685000D01*
X231840000Y-224685000D02*
X231840000Y-230000000D01*
X229427869Y-214217520D02*
X229003605Y-214217520D01*
X232167520Y-214217520D02*
X229427869Y-214217520D01*
X240330000Y-222380000D02*
X232167520Y-214217520D01*
X242000000Y-222380000D02*
X240330000Y-222380000D01*
X227336220Y-207925000D02*
X227251311Y-208009909D01*
X229650000Y-207925000D02*
X227336220Y-207925000D01*
X242000000Y-222380000D02*
X242000000Y-230000000D01*
X228026031Y-214641784D02*
X228026031Y-214217520D01*
X235250000Y-222380000D02*
X228026031Y-215156031D01*
X236920000Y-222380000D02*
X235250000Y-222380000D01*
X228026031Y-215156031D02*
X228026031Y-214641784D01*
X227664536Y-209723542D02*
X227240272Y-209723542D01*
X228135241Y-209723542D02*
X227664536Y-209723542D01*
X228633783Y-209225000D02*
X228135241Y-209723542D01*
X229650000Y-209225000D02*
X228633783Y-209225000D01*
X236920000Y-222380000D02*
X236920000Y-224685000D01*
X236920000Y-224685000D02*
X236920000Y-230000000D01*
D45*
X201580000Y-217000000D02*
X201580000Y-222380000D01*
X211500000Y-230000000D02*
X211500000Y-222380000D01*
X201580000Y-222380000D02*
X203450000Y-222380000D01*
X203450000Y-222380000D02*
X211500000Y-222380000D01*
X201580000Y-230000000D02*
X201580000Y-227495000D01*
X201580000Y-227495000D02*
X201580000Y-222380000D01*
D47*
X171580000Y-222380000D02*
X171580000Y-214000000D01*
X171580000Y-230000000D02*
X171580000Y-222380000D01*
X186580000Y-222380000D02*
X186580000Y-214000000D01*
X186580000Y-230000000D02*
X186580000Y-222380000D01*
D48*
X89600000Y-155000000D02*
X89600000Y-160600000D01*
X89600000Y-160600000D02*
X90000000Y-161000000D01*
X89600000Y-147380000D02*
X89600000Y-155000000D01*
X124600000Y-155000000D02*
X124600000Y-160600000D01*
X124600000Y-147380000D02*
X124600000Y-155000000D01*
X158318564Y-160312382D02*
X156318565Y-162312381D01*
X159600000Y-159030946D02*
X158318564Y-160312382D01*
X159600000Y-155000000D02*
X159600000Y-159030946D01*
X159600000Y-147380000D02*
X159600000Y-155000000D01*
D46*
X219398659Y-189391441D02*
X220173895Y-189391441D01*
X220173895Y-189391441D02*
X229533720Y-180031616D01*
X249808924Y-180031616D02*
X250143152Y-179697388D01*
X250143152Y-179697388D02*
X250567416Y-179697388D01*
X229533720Y-180031616D02*
X249808924Y-180031616D01*
X257000000Y-178699449D02*
X255898019Y-179801430D01*
X255898019Y-179801430D02*
X255598020Y-180101429D01*
X257000000Y-178000000D02*
X257000000Y-178699449D01*
X257000000Y-176900000D02*
X257000000Y-178000000D01*
X257000000Y-178000000D02*
X257000000Y-179000000D01*
X222500000Y-194000000D02*
X224000000Y-195500000D01*
X224000000Y-195500000D02*
X232100000Y-195500000D01*
X216250000Y-193742782D02*
X216250000Y-193000000D01*
X216348659Y-194841441D02*
X216348659Y-193841441D01*
X216348659Y-193841441D02*
X216250000Y-193742782D01*
X232100000Y-193500000D02*
X223000000Y-193500000D01*
X223000000Y-193500000D02*
X222500000Y-193000000D01*
X217148659Y-193335715D02*
X217884385Y-192599989D01*
X217148659Y-194841441D02*
X217148659Y-193335715D01*
X217884385Y-192599989D02*
X218184384Y-192299990D01*
X227500000Y-191500000D02*
X232100000Y-191500000D01*
X217148659Y-191398659D02*
X217250000Y-191500000D01*
X217148659Y-186341441D02*
X217148659Y-191398659D01*
X225238165Y-177922149D02*
X225538164Y-178222148D01*
X224280990Y-176964974D02*
X225238165Y-177922149D01*
X227920000Y-146210000D02*
X224280990Y-149849010D01*
X227920000Y-145640000D02*
X227920000Y-146210000D01*
X224280990Y-149849010D02*
X224280990Y-176964974D01*
X230172934Y-181512088D02*
X229500000Y-182185022D01*
X229500000Y-182185022D02*
X220693581Y-190991441D01*
X251365000Y-184750000D02*
X251365000Y-182065108D01*
X251365000Y-182065108D02*
X250811980Y-181512088D01*
X250811980Y-181512088D02*
X230172934Y-181512088D01*
X220693581Y-190991441D02*
X219398659Y-190991441D01*
X247000000Y-139000000D02*
X247000000Y-139930000D01*
X227920000Y-143001730D02*
X227920000Y-145640000D01*
X247000000Y-139930000D02*
X244930000Y-142000000D01*
X244930000Y-142000000D02*
X228921730Y-142000000D01*
X228921730Y-142000000D02*
X227920000Y-143001730D01*
X251365000Y-208750000D02*
X251365000Y-217665000D01*
X251365000Y-217665000D02*
X252700000Y-219000000D01*
X252700000Y-219000000D02*
X253000000Y-219000000D01*
X251365000Y-196750000D02*
X251365000Y-198650000D01*
X251365000Y-198650000D02*
X251365000Y-208750000D01*
X251365000Y-184750000D02*
X251365000Y-186650000D01*
X251365000Y-186650000D02*
X251365000Y-196750000D01*
X224565165Y-178751658D02*
X224865164Y-179051657D01*
X223406986Y-177593479D02*
X224565165Y-178751658D01*
X223406986Y-174054643D02*
X223406986Y-177593479D01*
X221716667Y-172364324D02*
X223406986Y-174054643D01*
X225380000Y-145640000D02*
X225380000Y-146210000D01*
X225380000Y-146210000D02*
X221716667Y-149873333D01*
X221716667Y-149873333D02*
X221716667Y-172364324D01*
X220964727Y-191791441D02*
X229256168Y-183500000D01*
X229256168Y-183500000D02*
X229433975Y-183322193D01*
X247950000Y-139000000D02*
X247950000Y-140174454D01*
X247950000Y-140174454D02*
X245123112Y-143001342D01*
X245123112Y-143001342D02*
X229487959Y-143001342D01*
X229487959Y-143001342D02*
X229063695Y-143001342D01*
X250095000Y-213250000D02*
X250095000Y-218905000D01*
X250095000Y-218905000D02*
X250000000Y-219000000D01*
X250095000Y-189250000D02*
X250095000Y-182555392D01*
X250095000Y-182555392D02*
X249871508Y-182331900D01*
X249871508Y-182331900D02*
X230424268Y-182331900D01*
X230424268Y-182331900D02*
X230033973Y-182722195D01*
X230033973Y-182722195D02*
X229733974Y-183022194D01*
X219398659Y-191791441D02*
X220964727Y-191791441D01*
X229433975Y-183322193D02*
X229733974Y-183022194D01*
X250095000Y-189250000D02*
X250095000Y-201250000D01*
X250095000Y-201250000D02*
X250095000Y-213250000D01*
X224900000Y-206000000D02*
X225650000Y-206000000D01*
X225650000Y-206000000D02*
X226275000Y-206625000D01*
X226275000Y-206625000D02*
X228500000Y-206625000D01*
X228500000Y-206625000D02*
X229650000Y-206625000D01*
X228500000Y-208575000D02*
X229650000Y-208575000D01*
X228406456Y-208575000D02*
X228500000Y-208575000D01*
X224900000Y-209000000D02*
X227981456Y-209000000D01*
X227981456Y-209000000D02*
X228406456Y-208575000D01*
X226633741Y-150036259D02*
X226633741Y-177312700D01*
X230460000Y-146210000D02*
X226633741Y-150036259D01*
X226633741Y-177312700D02*
X226633741Y-177736964D01*
X230460000Y-145640000D02*
X230460000Y-146210000D01*
X220404300Y-190191441D02*
X229500000Y-181095741D01*
X229500000Y-181095741D02*
X229787248Y-180808493D01*
X219398659Y-190191441D02*
X220404300Y-190191441D01*
X229787248Y-180808493D02*
X250871245Y-180808493D01*
X250871245Y-180808493D02*
X250895048Y-180784690D01*
X255175000Y-213250000D02*
X255175000Y-215486880D01*
X255175000Y-215486880D02*
X256004696Y-216316576D01*
X256004696Y-216316576D02*
X256004696Y-218995304D01*
X256004696Y-218995304D02*
X256000000Y-219000000D01*
X255175000Y-182232058D02*
X255132023Y-182189081D01*
X255175000Y-189250000D02*
X255175000Y-182232058D01*
X255175000Y-201250000D02*
X255175000Y-213250000D01*
X255175000Y-189250000D02*
X255175000Y-201250000D01*
X197000000Y-180000000D02*
X197000000Y-177000000D01*
X197000000Y-181900000D02*
X197000000Y-189742540D01*
X197000000Y-189742540D02*
X199714338Y-192456878D01*
X209373737Y-191791441D02*
X210898659Y-191791441D01*
X199714338Y-192456878D02*
X208708300Y-192456878D01*
X208708300Y-192456878D02*
X209373737Y-191791441D01*
X226628425Y-188229005D02*
X226204161Y-188229005D01*
X246599011Y-189568060D02*
X245259956Y-188229005D01*
X246599011Y-212248118D02*
X246599011Y-189568060D01*
X220806953Y-213144106D02*
X245703023Y-213144106D01*
X218101059Y-215850000D02*
X220806953Y-213144106D01*
X202630000Y-215850000D02*
X218101059Y-215850000D01*
X201880000Y-215100000D02*
X202630000Y-215850000D01*
X245259956Y-188229005D02*
X226628425Y-188229005D01*
X201580000Y-215100000D02*
X201880000Y-215100000D01*
X245703023Y-213144106D02*
X246599011Y-212248118D01*
X214575736Y-188000000D02*
X215000000Y-188000000D01*
X212442971Y-188000000D02*
X214575736Y-188000000D01*
X211851530Y-188591441D02*
X212442971Y-188000000D01*
X210898659Y-188591441D02*
X211851530Y-188591441D01*
X201580000Y-212900000D02*
X201580000Y-215100000D01*
X225398970Y-189199121D02*
X224974706Y-189199121D01*
X245199121Y-189199121D02*
X225398970Y-189199121D01*
X246000000Y-190000000D02*
X245199121Y-189199121D01*
X246000000Y-212000000D02*
X246000000Y-190000000D01*
X218129009Y-212400991D02*
X245599009Y-212400991D01*
X245599009Y-212400991D02*
X246000000Y-212000000D01*
X217630000Y-212900000D02*
X218129009Y-212400991D01*
X216580000Y-212900000D02*
X217630000Y-212900000D01*
X212290100Y-189000000D02*
X215000000Y-189000000D01*
X210898659Y-189391441D02*
X211898659Y-189391441D01*
X211898659Y-189391441D02*
X212290100Y-189000000D01*
X216580000Y-212900000D02*
X216580000Y-215100000D01*
X217948659Y-181879441D02*
X220000000Y-179828100D01*
X220000000Y-179828100D02*
X220000000Y-178000000D01*
X217948659Y-186341441D02*
X217948659Y-181879441D01*
X172730000Y-196220000D02*
X171580000Y-196220000D01*
X207558099Y-194932001D02*
X174017999Y-194932001D01*
X209898659Y-192591441D02*
X207558099Y-194932001D01*
X210898659Y-192591441D02*
X209898659Y-192591441D01*
X174017999Y-194932001D02*
X172730000Y-196220000D01*
X187730000Y-196220000D02*
X186580000Y-196220000D01*
X207770100Y-196220000D02*
X187730000Y-196220000D01*
X210898659Y-193391441D02*
X210598659Y-193391441D01*
X210598659Y-193391441D02*
X207770100Y-196220000D01*
X212348659Y-194841441D02*
X212348659Y-201522923D01*
X212348659Y-201522923D02*
X212825736Y-202000000D01*
X212825736Y-202000000D02*
X213250000Y-202000000D01*
X235550000Y-205325000D02*
X235550000Y-203076884D01*
X235550000Y-203076884D02*
X235497888Y-203024772D01*
X234170308Y-201681267D02*
X234170308Y-201257003D01*
X234170308Y-205745308D02*
X234170308Y-201681267D01*
X234400000Y-205975000D02*
X234170308Y-205745308D01*
X235550000Y-205975000D02*
X234400000Y-205975000D01*
X213148659Y-201018065D02*
X213240780Y-201110186D01*
X213148659Y-194841441D02*
X213148659Y-201018065D01*
X221913365Y-211700022D02*
X232574978Y-211700022D01*
X232574978Y-211700022D02*
X234400000Y-209875000D01*
X213950002Y-203736659D02*
X221913365Y-211700022D01*
X213950002Y-195842784D02*
X213950002Y-203736659D01*
X213948659Y-195841441D02*
X213950002Y-195842784D01*
X213948659Y-194841441D02*
X213948659Y-195841441D01*
X234400000Y-209875000D02*
X235550000Y-209875000D01*
X214748659Y-203686773D02*
X222161897Y-211100011D01*
X214748659Y-194841441D02*
X214748659Y-203686773D01*
X232204991Y-211100011D02*
X234080002Y-209225000D01*
X234080002Y-209225000D02*
X234400000Y-209225000D01*
X222161897Y-211100011D02*
X232204991Y-211100011D01*
X234400000Y-209225000D02*
X235550000Y-209225000D01*
X215548659Y-194841441D02*
X215548659Y-198086443D01*
X215548659Y-198086443D02*
X222049846Y-204587630D01*
X222049846Y-204587630D02*
X227762630Y-204587630D01*
X227762630Y-204587630D02*
X228500000Y-205325000D01*
X228500000Y-205325000D02*
X229650000Y-205325000D01*
X222849002Y-201400998D02*
X221799999Y-202450001D01*
X221799999Y-202450001D02*
X221500000Y-202750000D01*
X221500000Y-198243476D02*
X222849002Y-199592478D01*
X221500000Y-193692782D02*
X221500000Y-198243476D01*
X220398659Y-192591441D02*
X221500000Y-193692782D01*
X222849002Y-199592478D02*
X222849002Y-201400998D01*
X219398659Y-192591441D02*
X220398659Y-192591441D01*
X229650000Y-209875000D02*
X229125000Y-209875000D01*
X229125000Y-209875000D02*
X228500000Y-210500000D01*
X228500000Y-210500000D02*
X222530042Y-210500000D01*
X222530042Y-210500000D02*
X219000000Y-206969958D01*
X219000000Y-206969958D02*
X219000000Y-202750000D01*
X229392071Y-179326136D02*
X229392071Y-179107929D01*
X229392071Y-179107929D02*
X229500000Y-179000000D01*
X219398659Y-188591441D02*
X220126766Y-188591441D01*
X220126766Y-188591441D02*
X229392071Y-179326136D01*
X229392071Y-179326136D02*
X229392071Y-179320783D01*
X228600000Y-179223140D02*
X228600000Y-179100000D01*
X228600000Y-179100000D02*
X228500000Y-179000000D01*
X219398659Y-187791441D02*
X220031699Y-187791441D01*
X220031699Y-187791441D02*
X228600000Y-179223140D01*
X234000000Y-191500000D02*
X237000000Y-191500000D01*
X237000000Y-191500000D02*
X237200000Y-191300000D01*
X234000000Y-193500000D02*
X236700000Y-193500000D01*
X236700000Y-193500000D02*
X237200000Y-193000000D01*
X234000000Y-195500000D02*
X236400000Y-195500000D01*
X236400000Y-195500000D02*
X237200000Y-194700000D01*
X216348659Y-186341441D02*
X216348659Y-179381441D01*
X216348659Y-179381441D02*
X215808659Y-178841441D01*
X215548659Y-186341441D02*
X215548659Y-181121441D01*
X215548659Y-181121441D02*
X213268659Y-178841441D01*
D47*
X102000000Y-215250000D02*
X156500000Y-215250000D01*
X94000000Y-210000000D02*
X96750000Y-210000000D01*
X96750000Y-210000000D02*
X102000000Y-215250000D01*
D46*
X228500000Y-151000000D02*
X228500000Y-155500000D01*
X228500000Y-155500000D02*
X239359625Y-166359625D01*
X239359625Y-166359625D02*
X239359625Y-173319625D01*
X239359625Y-173319625D02*
X240450001Y-174410001D01*
X240450001Y-174410001D02*
X241300000Y-175260000D01*
X220000000Y-147610000D02*
X220000000Y-151000000D01*
X220300000Y-145640000D02*
X220300000Y-147310000D01*
X220300000Y-147310000D02*
X220000000Y-147610000D01*
X229896599Y-152058026D02*
X229896599Y-154987049D01*
X229896599Y-154987049D02*
X241887805Y-166978255D01*
X241887805Y-166978255D02*
X241887805Y-173307805D01*
X241887805Y-173307805D02*
X242990001Y-174410001D01*
X242990001Y-174410001D02*
X243840000Y-175260000D01*
X217927912Y-150427912D02*
X219500000Y-152000000D01*
X219500000Y-152000000D02*
X220000000Y-152000000D01*
X217927912Y-145640000D02*
X217927912Y-150427912D01*
D45*
X205500000Y-145500000D02*
X197000000Y-145500000D01*
X213500000Y-137500000D02*
X205500000Y-145500000D01*
X213500000Y-132000000D02*
X213500000Y-137500000D01*
X184700000Y-162500000D02*
X184724098Y-162500000D01*
X184724098Y-162500000D02*
X185000000Y-162224098D01*
X185000000Y-162224098D02*
X185000000Y-159000000D01*
X189000000Y-159000000D02*
X191500000Y-159000000D01*
X191500000Y-159000000D02*
X197000000Y-153500000D01*
X179000000Y-164000000D02*
X183200000Y-164000000D01*
X183200000Y-164000000D02*
X184700000Y-162500000D01*
X174000000Y-164000000D02*
X179000000Y-164000000D01*
X169000000Y-164000000D02*
X174000000Y-164000000D01*
X198203932Y-171703932D02*
X198220706Y-171687158D01*
X198220706Y-171687158D02*
X199712842Y-171687158D01*
X199712842Y-171687158D02*
X202900000Y-168500000D01*
X202900000Y-168500000D02*
X203000000Y-168500000D01*
X198203932Y-171703932D02*
X198203932Y-174746068D01*
X198203932Y-174746068D02*
X197950000Y-175000000D01*
X189330903Y-171669097D02*
X189500000Y-171500000D01*
X186732398Y-171669097D02*
X189330903Y-171669097D01*
X138000000Y-173000000D02*
X185401495Y-173000000D01*
X185401495Y-173000000D02*
X186732398Y-171669097D01*
X186732398Y-171669097D02*
X186732398Y-156732398D01*
X186732398Y-156732398D02*
X185000000Y-155000000D01*
X121000000Y-173000000D02*
X138000000Y-173000000D01*
X150000000Y-155000000D02*
X147878680Y-155000000D01*
X138000000Y-164878680D02*
X138000000Y-173000000D01*
X147878680Y-155000000D02*
X138000000Y-164878680D01*
X115000000Y-167000000D02*
X121000000Y-173000000D01*
X115000000Y-155000000D02*
X115000000Y-167000000D01*
D46*
X248900000Y-136800000D02*
X251200000Y-136800000D01*
X251200000Y-136800000D02*
X253000000Y-135000000D01*
X253000000Y-135000000D02*
X253000000Y-132000000D01*
X253000000Y-132000000D02*
X247000000Y-126000000D01*
X247000000Y-126000000D02*
X236000000Y-126000000D01*
X234920000Y-127080000D02*
X234920000Y-130380000D01*
X236000000Y-126000000D02*
X234920000Y-127080000D01*
X234920000Y-130380000D02*
X234920000Y-138000000D01*
D45*
X179000000Y-170200000D02*
X182800000Y-170200000D01*
X182800000Y-170200000D02*
X184500000Y-168500000D01*
X174000000Y-170200000D02*
X179000000Y-170200000D01*
X169000000Y-170200000D02*
X174000000Y-170200000D01*
X220300000Y-168500000D02*
X217927912Y-168500000D01*
X213000000Y-166000000D02*
X215997912Y-166000000D01*
X215997912Y-166000000D02*
X217927912Y-167930000D01*
X217927912Y-167930000D02*
X217927912Y-168500000D01*
M02*
