G04 #@! TF.FileFunction,Legend,Top*
%FSLAX46Y46*%
G04 Gerber Fmt 4.6, Leading zero omitted, Abs format (unit mm)*
G04 Created by KiCad (PCBNEW 4.0.7-e2-6376~58~ubuntu16.04.1) date Wed Aug 29 18:27:50 2018*
%MOMM*%
%LPD*%
G01*
G04 APERTURE LIST*
%ADD10C,0.100000*%
%ADD11C,0.300000*%
%ADD12C,0.500000*%
%ADD13C,0.200000*%
%ADD14C,0.250000*%
%ADD15C,0.150000*%
%ADD16C,0.120000*%
G04 APERTURE END LIST*
D10*
D11*
X209392858Y-239668857D02*
X209607144Y-239740286D01*
X209678572Y-239811714D01*
X209750001Y-239954571D01*
X209750001Y-240168857D01*
X209678572Y-240311714D01*
X209607144Y-240383143D01*
X209464286Y-240454571D01*
X208892858Y-240454571D01*
X208892858Y-238954571D01*
X209392858Y-238954571D01*
X209535715Y-239026000D01*
X209607144Y-239097429D01*
X209678572Y-239240286D01*
X209678572Y-239383143D01*
X209607144Y-239526000D01*
X209535715Y-239597429D01*
X209392858Y-239668857D01*
X208892858Y-239668857D01*
X210321429Y-239097429D02*
X210392858Y-239026000D01*
X210535715Y-238954571D01*
X210892858Y-238954571D01*
X211035715Y-239026000D01*
X211107144Y-239097429D01*
X211178572Y-239240286D01*
X211178572Y-239383143D01*
X211107144Y-239597429D01*
X210250001Y-240454571D01*
X211178572Y-240454571D01*
X204392858Y-239668857D02*
X204607144Y-239740286D01*
X204678572Y-239811714D01*
X204750001Y-239954571D01*
X204750001Y-240168857D01*
X204678572Y-240311714D01*
X204607144Y-240383143D01*
X204464286Y-240454571D01*
X203892858Y-240454571D01*
X203892858Y-238954571D01*
X204392858Y-238954571D01*
X204535715Y-239026000D01*
X204607144Y-239097429D01*
X204678572Y-239240286D01*
X204678572Y-239383143D01*
X204607144Y-239526000D01*
X204535715Y-239597429D01*
X204392858Y-239668857D01*
X203892858Y-239668857D01*
X206178572Y-240454571D02*
X205321429Y-240454571D01*
X205750001Y-240454571D02*
X205750001Y-238954571D01*
X205607144Y-239168857D01*
X205464286Y-239311714D01*
X205321429Y-239383143D01*
X198928572Y-240026000D02*
X199642858Y-240026000D01*
X198785715Y-240454571D02*
X199285715Y-238954571D01*
X199785715Y-240454571D01*
X200214286Y-239097429D02*
X200285715Y-239026000D01*
X200428572Y-238954571D01*
X200785715Y-238954571D01*
X200928572Y-239026000D01*
X201000001Y-239097429D01*
X201071429Y-239240286D01*
X201071429Y-239383143D01*
X201000001Y-239597429D01*
X200142858Y-240454571D01*
X201071429Y-240454571D01*
X193928572Y-240026000D02*
X194642858Y-240026000D01*
X193785715Y-240454571D02*
X194285715Y-238954571D01*
X194785715Y-240454571D01*
X196071429Y-240454571D02*
X195214286Y-240454571D01*
X195642858Y-240454571D02*
X195642858Y-238954571D01*
X195500001Y-239168857D01*
X195357143Y-239311714D01*
X195214286Y-239383143D01*
D12*
X88900000Y-135890000D02*
X88900000Y-100330000D01*
X76200000Y-135890000D02*
X88900000Y-135890000D01*
X76200000Y-100330000D02*
X76200000Y-135890000D01*
X76200000Y-100330000D02*
X88900000Y-100330000D01*
X78407143Y-127538571D02*
X81407143Y-126824285D01*
X79264286Y-126252856D01*
X81407143Y-125681428D01*
X78407143Y-124967142D01*
X80550000Y-123967142D02*
X80550000Y-122538571D01*
X81407143Y-124252857D02*
X78407143Y-123252857D01*
X81407143Y-122252857D01*
X81407143Y-119538571D02*
X79978571Y-120538571D01*
X81407143Y-121252856D02*
X78407143Y-121252856D01*
X78407143Y-120109999D01*
X78550000Y-119824285D01*
X78692857Y-119681428D01*
X78978571Y-119538571D01*
X79407143Y-119538571D01*
X79692857Y-119681428D01*
X79835714Y-119824285D01*
X79978571Y-120109999D01*
X79978571Y-121252856D01*
X81407143Y-118252856D02*
X78407143Y-118252856D01*
X81407143Y-116538571D01*
X78407143Y-116538571D01*
X81407143Y-115109999D02*
X78407143Y-115109999D01*
X81407143Y-113681428D02*
X78407143Y-113681428D01*
X81407143Y-111967143D01*
X78407143Y-111967143D01*
X78550000Y-108967143D02*
X78407143Y-109252857D01*
X78407143Y-109681428D01*
X78550000Y-110110000D01*
X78835714Y-110395714D01*
X79121429Y-110538571D01*
X79692857Y-110681428D01*
X80121429Y-110681428D01*
X80692857Y-110538571D01*
X80978571Y-110395714D01*
X81264286Y-110110000D01*
X81407143Y-109681428D01*
X81407143Y-109395714D01*
X81264286Y-108967143D01*
X81121429Y-108824286D01*
X80121429Y-108824286D01*
X80121429Y-109395714D01*
X86407143Y-133252856D02*
X83407143Y-133252856D01*
X84835714Y-133252856D02*
X84835714Y-131538571D01*
X86407143Y-131538571D02*
X83407143Y-131538571D01*
X86407143Y-130109999D02*
X83407143Y-130109999D01*
X83550000Y-127110000D02*
X83407143Y-127395714D01*
X83407143Y-127824285D01*
X83550000Y-128252857D01*
X83835714Y-128538571D01*
X84121429Y-128681428D01*
X84692857Y-128824285D01*
X85121429Y-128824285D01*
X85692857Y-128681428D01*
X85978571Y-128538571D01*
X86264286Y-128252857D01*
X86407143Y-127824285D01*
X86407143Y-127538571D01*
X86264286Y-127110000D01*
X86121429Y-126967143D01*
X85121429Y-126967143D01*
X85121429Y-127538571D01*
X86407143Y-125681428D02*
X83407143Y-125681428D01*
X84835714Y-125681428D02*
X84835714Y-123967143D01*
X86407143Y-123967143D02*
X83407143Y-123967143D01*
X83407143Y-120681429D02*
X86407143Y-119681429D01*
X83407143Y-118681429D01*
X83407143Y-117110000D02*
X83407143Y-116538571D01*
X83550000Y-116252857D01*
X83835714Y-115967143D01*
X84407143Y-115824285D01*
X85407143Y-115824285D01*
X85978571Y-115967143D01*
X86264286Y-116252857D01*
X86407143Y-116538571D01*
X86407143Y-117110000D01*
X86264286Y-117395714D01*
X85978571Y-117681428D01*
X85407143Y-117824285D01*
X84407143Y-117824285D01*
X83835714Y-117681428D01*
X83550000Y-117395714D01*
X83407143Y-117110000D01*
X86407143Y-113110000D02*
X86407143Y-114538571D01*
X83407143Y-114538571D01*
X83407143Y-112538572D02*
X83407143Y-110824286D01*
X86407143Y-111681429D02*
X83407143Y-111681429D01*
X85550000Y-109967143D02*
X85550000Y-108538572D01*
X86407143Y-110252858D02*
X83407143Y-109252858D01*
X86407143Y-108252858D01*
X83550000Y-105681429D02*
X83407143Y-105967143D01*
X83407143Y-106395714D01*
X83550000Y-106824286D01*
X83835714Y-107110000D01*
X84121429Y-107252857D01*
X84692857Y-107395714D01*
X85121429Y-107395714D01*
X85692857Y-107252857D01*
X85978571Y-107110000D01*
X86264286Y-106824286D01*
X86407143Y-106395714D01*
X86407143Y-106110000D01*
X86264286Y-105681429D01*
X86121429Y-105538572D01*
X85121429Y-105538572D01*
X85121429Y-106110000D01*
X84835714Y-104252857D02*
X84835714Y-103252857D01*
X86407143Y-102824286D02*
X86407143Y-104252857D01*
X83407143Y-104252857D01*
X83407143Y-102824286D01*
D13*
X82550000Y-210820000D02*
X137160000Y-210820000D01*
D11*
X119642858Y-208815714D02*
X119571429Y-208887143D01*
X119357143Y-208958571D01*
X119214286Y-208958571D01*
X119000001Y-208887143D01*
X118857143Y-208744286D01*
X118785715Y-208601429D01*
X118714286Y-208315714D01*
X118714286Y-208101429D01*
X118785715Y-207815714D01*
X118857143Y-207672857D01*
X119000001Y-207530000D01*
X119214286Y-207458571D01*
X119357143Y-207458571D01*
X119571429Y-207530000D01*
X119642858Y-207601429D01*
X121142858Y-208815714D02*
X121071429Y-208887143D01*
X120857143Y-208958571D01*
X120714286Y-208958571D01*
X120500001Y-208887143D01*
X120357143Y-208744286D01*
X120285715Y-208601429D01*
X120214286Y-208315714D01*
X120214286Y-208101429D01*
X120285715Y-207815714D01*
X120357143Y-207672857D01*
X120500001Y-207530000D01*
X120714286Y-207458571D01*
X120857143Y-207458571D01*
X121071429Y-207530000D01*
X121142858Y-207601429D01*
X121785715Y-208387143D02*
X122928572Y-208387143D01*
X124142858Y-208172857D02*
X124357144Y-208244286D01*
X124428572Y-208315714D01*
X124500001Y-208458571D01*
X124500001Y-208672857D01*
X124428572Y-208815714D01*
X124357144Y-208887143D01*
X124214286Y-208958571D01*
X123642858Y-208958571D01*
X123642858Y-207458571D01*
X124142858Y-207458571D01*
X124285715Y-207530000D01*
X124357144Y-207601429D01*
X124428572Y-207744286D01*
X124428572Y-207887143D01*
X124357144Y-208030000D01*
X124285715Y-208101429D01*
X124142858Y-208172857D01*
X123642858Y-208172857D01*
X125428572Y-208244286D02*
X125428572Y-208958571D01*
X124928572Y-207458571D02*
X125428572Y-208244286D01*
X125928572Y-207458571D01*
X126428572Y-208387143D02*
X127571429Y-208387143D01*
X128285715Y-208958571D02*
X128285715Y-207458571D01*
X129142858Y-208958571D01*
X129142858Y-207458571D01*
X130714287Y-208815714D02*
X130642858Y-208887143D01*
X130428572Y-208958571D01*
X130285715Y-208958571D01*
X130071430Y-208887143D01*
X129928572Y-208744286D01*
X129857144Y-208601429D01*
X129785715Y-208315714D01*
X129785715Y-208101429D01*
X129857144Y-207815714D01*
X129928572Y-207672857D01*
X130071430Y-207530000D01*
X130285715Y-207458571D01*
X130428572Y-207458571D01*
X130642858Y-207530000D01*
X130714287Y-207601429D01*
X131357144Y-208387143D02*
X132500001Y-208387143D01*
X133142858Y-208887143D02*
X133357144Y-208958571D01*
X133714287Y-208958571D01*
X133857144Y-208887143D01*
X133928573Y-208815714D01*
X134000001Y-208672857D01*
X134000001Y-208530000D01*
X133928573Y-208387143D01*
X133857144Y-208315714D01*
X133714287Y-208244286D01*
X133428573Y-208172857D01*
X133285715Y-208101429D01*
X133214287Y-208030000D01*
X133142858Y-207887143D01*
X133142858Y-207744286D01*
X133214287Y-207601429D01*
X133285715Y-207530000D01*
X133428573Y-207458571D01*
X133785715Y-207458571D01*
X134000001Y-207530000D01*
X134571429Y-208530000D02*
X135285715Y-208530000D01*
X134428572Y-208958571D02*
X134928572Y-207458571D01*
X135428572Y-208958571D01*
X101200000Y-208958571D02*
X101200000Y-207458571D01*
X101557143Y-207458571D01*
X101771428Y-207530000D01*
X101914286Y-207672857D01*
X101985714Y-207815714D01*
X102057143Y-208101429D01*
X102057143Y-208315714D01*
X101985714Y-208601429D01*
X101914286Y-208744286D01*
X101771428Y-208887143D01*
X101557143Y-208958571D01*
X101200000Y-208958571D01*
X102700000Y-208172857D02*
X103200000Y-208172857D01*
X103414286Y-208958571D02*
X102700000Y-208958571D01*
X102700000Y-207458571D01*
X103414286Y-207458571D01*
X103842857Y-207458571D02*
X104342857Y-208958571D01*
X104842857Y-207458571D01*
X105342857Y-208958571D02*
X105342857Y-207458571D01*
X106914286Y-208815714D02*
X106842857Y-208887143D01*
X106628571Y-208958571D01*
X106485714Y-208958571D01*
X106271429Y-208887143D01*
X106128571Y-208744286D01*
X106057143Y-208601429D01*
X105985714Y-208315714D01*
X105985714Y-208101429D01*
X106057143Y-207815714D01*
X106128571Y-207672857D01*
X106271429Y-207530000D01*
X106485714Y-207458571D01*
X106628571Y-207458571D01*
X106842857Y-207530000D01*
X106914286Y-207601429D01*
X107557143Y-208172857D02*
X108057143Y-208172857D01*
X108271429Y-208958571D02*
X107557143Y-208958571D01*
X107557143Y-207458571D01*
X108271429Y-207458571D01*
X108914286Y-208815714D02*
X108985714Y-208887143D01*
X108914286Y-208958571D01*
X108842857Y-208887143D01*
X108914286Y-208815714D01*
X108914286Y-208958571D01*
X110128572Y-208172857D02*
X109628572Y-208172857D01*
X109628572Y-208958571D02*
X109628572Y-207458571D01*
X110342858Y-207458571D01*
X110842857Y-208530000D02*
X111557143Y-208530000D01*
X110700000Y-208958571D02*
X111200000Y-207458571D01*
X111700000Y-208958571D01*
X113057143Y-208958571D02*
X112557143Y-208244286D01*
X112200000Y-208958571D02*
X112200000Y-207458571D01*
X112771428Y-207458571D01*
X112914286Y-207530000D01*
X112985714Y-207601429D01*
X113057143Y-207744286D01*
X113057143Y-207958571D01*
X112985714Y-208101429D01*
X112914286Y-208172857D01*
X112771428Y-208244286D01*
X112200000Y-208244286D01*
X113700000Y-208958571D02*
X113700000Y-207458571D01*
X114200000Y-208530000D01*
X114700000Y-207458571D01*
X114700000Y-208958571D01*
X85241429Y-207530000D02*
X85098572Y-207458571D01*
X84884286Y-207458571D01*
X84670001Y-207530000D01*
X84527143Y-207672857D01*
X84455715Y-207815714D01*
X84384286Y-208101429D01*
X84384286Y-208315714D01*
X84455715Y-208601429D01*
X84527143Y-208744286D01*
X84670001Y-208887143D01*
X84884286Y-208958571D01*
X85027143Y-208958571D01*
X85241429Y-208887143D01*
X85312858Y-208815714D01*
X85312858Y-208315714D01*
X85027143Y-208315714D01*
X85812858Y-207458571D02*
X86170001Y-208958571D01*
X86455715Y-207887143D01*
X86741429Y-208958571D01*
X87098572Y-207458571D01*
X87670001Y-208958571D02*
X87670001Y-207458571D01*
X87670001Y-208172857D02*
X88527144Y-208172857D01*
X88527144Y-208958571D02*
X88527144Y-207458571D01*
X89241430Y-208958571D02*
X89241430Y-207458571D01*
X89812858Y-207458571D01*
X89955716Y-207530000D01*
X90027144Y-207601429D01*
X90098573Y-207744286D01*
X90098573Y-207958571D01*
X90027144Y-208101429D01*
X89955716Y-208172857D01*
X89812858Y-208244286D01*
X89241430Y-208244286D01*
X91741430Y-207958571D02*
X92098573Y-208958571D01*
X92455715Y-207958571D01*
X93812858Y-208958571D02*
X92955715Y-208958571D01*
X93384287Y-208958571D02*
X93384287Y-207458571D01*
X93241430Y-207672857D01*
X93098572Y-207815714D01*
X92955715Y-207887143D01*
X94455715Y-208815714D02*
X94527143Y-208887143D01*
X94455715Y-208958571D01*
X94384286Y-208887143D01*
X94455715Y-208815714D01*
X94455715Y-208958571D01*
X95455715Y-207458571D02*
X95598572Y-207458571D01*
X95741429Y-207530000D01*
X95812858Y-207601429D01*
X95884287Y-207744286D01*
X95955715Y-208030000D01*
X95955715Y-208387143D01*
X95884287Y-208672857D01*
X95812858Y-208815714D01*
X95741429Y-208887143D01*
X95598572Y-208958571D01*
X95455715Y-208958571D01*
X95312858Y-208887143D01*
X95241429Y-208815714D01*
X95170001Y-208672857D01*
X95098572Y-208387143D01*
X95098572Y-208030000D01*
X95170001Y-207744286D01*
X95241429Y-207601429D01*
X95312858Y-207530000D01*
X95455715Y-207458571D01*
D14*
X264334762Y-202652381D02*
X263858571Y-202652381D01*
X263810952Y-203128571D01*
X263858571Y-203080952D01*
X263953809Y-203033333D01*
X264191905Y-203033333D01*
X264287143Y-203080952D01*
X264334762Y-203128571D01*
X264382381Y-203223810D01*
X264382381Y-203461905D01*
X264334762Y-203557143D01*
X264287143Y-203604762D01*
X264191905Y-203652381D01*
X263953809Y-203652381D01*
X263858571Y-203604762D01*
X263810952Y-203557143D01*
X264668095Y-202652381D02*
X265001428Y-203652381D01*
X265334762Y-202652381D01*
X263430000Y-206192381D02*
X263430000Y-205192381D01*
X263668095Y-205192381D01*
X263810953Y-205240000D01*
X263906191Y-205335238D01*
X263953810Y-205430476D01*
X264001429Y-205620952D01*
X264001429Y-205763810D01*
X263953810Y-205954286D01*
X263906191Y-206049524D01*
X263810953Y-206144762D01*
X263668095Y-206192381D01*
X263430000Y-206192381D01*
X264430000Y-205811429D02*
X265191905Y-205811429D01*
X264810953Y-206192381D02*
X264810953Y-205430476D01*
X263430000Y-208732381D02*
X263430000Y-207732381D01*
X263668095Y-207732381D01*
X263810953Y-207780000D01*
X263906191Y-207875238D01*
X263953810Y-207970476D01*
X264001429Y-208160952D01*
X264001429Y-208303810D01*
X263953810Y-208494286D01*
X263906191Y-208589524D01*
X263810953Y-208684762D01*
X263668095Y-208732381D01*
X263430000Y-208732381D01*
X264430000Y-208351429D02*
X265191905Y-208351429D01*
X263144286Y-215400000D02*
X263049048Y-215352381D01*
X262906191Y-215352381D01*
X262763333Y-215400000D01*
X262668095Y-215495238D01*
X262620476Y-215590476D01*
X262572857Y-215780952D01*
X262572857Y-215923810D01*
X262620476Y-216114286D01*
X262668095Y-216209524D01*
X262763333Y-216304762D01*
X262906191Y-216352381D01*
X263001429Y-216352381D01*
X263144286Y-216304762D01*
X263191905Y-216257143D01*
X263191905Y-215923810D01*
X263001429Y-215923810D01*
X263620476Y-216352381D02*
X263620476Y-215352381D01*
X264191905Y-216352381D01*
X264191905Y-215352381D01*
X264668095Y-216352381D02*
X264668095Y-215352381D01*
X264906190Y-215352381D01*
X265049048Y-215400000D01*
X265144286Y-215495238D01*
X265191905Y-215590476D01*
X265239524Y-215780952D01*
X265239524Y-215923810D01*
X265191905Y-216114286D01*
X265144286Y-216209524D01*
X265049048Y-216304762D01*
X264906190Y-216352381D01*
X264668095Y-216352381D01*
X262858571Y-212812381D02*
X263430000Y-212812381D01*
X263144285Y-213812381D02*
X263144285Y-212812381D01*
X263668095Y-212812381D02*
X264334762Y-213812381D01*
X264334762Y-212812381D02*
X263668095Y-213812381D01*
X264906190Y-212812381D02*
X265001429Y-212812381D01*
X265096667Y-212860000D01*
X265144286Y-212907619D01*
X265191905Y-213002857D01*
X265239524Y-213193333D01*
X265239524Y-213431429D01*
X265191905Y-213621905D01*
X265144286Y-213717143D01*
X265096667Y-213764762D01*
X265001429Y-213812381D01*
X264906190Y-213812381D01*
X264810952Y-213764762D01*
X264763333Y-213717143D01*
X264715714Y-213621905D01*
X264668095Y-213431429D01*
X264668095Y-213193333D01*
X264715714Y-213002857D01*
X264763333Y-212907619D01*
X264810952Y-212860000D01*
X264906190Y-212812381D01*
X263334762Y-210952381D02*
X263001428Y-210476190D01*
X262763333Y-210952381D02*
X262763333Y-209952381D01*
X263144286Y-209952381D01*
X263239524Y-210000000D01*
X263287143Y-210047619D01*
X263334762Y-210142857D01*
X263334762Y-210285714D01*
X263287143Y-210380952D01*
X263239524Y-210428571D01*
X263144286Y-210476190D01*
X262763333Y-210476190D01*
X263668095Y-209952381D02*
X264334762Y-210952381D01*
X264334762Y-209952381D02*
X263668095Y-210952381D01*
X264906190Y-209952381D02*
X265001429Y-209952381D01*
X265096667Y-210000000D01*
X265144286Y-210047619D01*
X265191905Y-210142857D01*
X265239524Y-210333333D01*
X265239524Y-210571429D01*
X265191905Y-210761905D01*
X265144286Y-210857143D01*
X265096667Y-210904762D01*
X265001429Y-210952381D01*
X264906190Y-210952381D01*
X264810952Y-210904762D01*
X264763333Y-210857143D01*
X264715714Y-210761905D01*
X264668095Y-210571429D01*
X264668095Y-210333333D01*
X264715714Y-210142857D01*
X264763333Y-210047619D01*
X264810952Y-210000000D01*
X264906190Y-209952381D01*
D11*
X123750001Y-240454571D02*
X123035715Y-240454571D01*
X123035715Y-238954571D01*
X125035715Y-240454571D02*
X124178572Y-240454571D01*
X124607144Y-240454571D02*
X124607144Y-238954571D01*
X124464287Y-239168857D01*
X124321429Y-239311714D01*
X124178572Y-239383143D01*
X114250001Y-240454571D02*
X113535715Y-240454571D01*
X113535715Y-238954571D01*
X114678572Y-239097429D02*
X114750001Y-239026000D01*
X114892858Y-238954571D01*
X115250001Y-238954571D01*
X115392858Y-239026000D01*
X115464287Y-239097429D01*
X115535715Y-239240286D01*
X115535715Y-239383143D01*
X115464287Y-239597429D01*
X114607144Y-240454571D01*
X115535715Y-240454571D01*
X104750001Y-240454571D02*
X104035715Y-240454571D01*
X104035715Y-238954571D01*
X105107144Y-238954571D02*
X106035715Y-238954571D01*
X105535715Y-239526000D01*
X105750001Y-239526000D01*
X105892858Y-239597429D01*
X105964287Y-239668857D01*
X106035715Y-239811714D01*
X106035715Y-240168857D01*
X105964287Y-240311714D01*
X105892858Y-240383143D01*
X105750001Y-240454571D01*
X105321429Y-240454571D01*
X105178572Y-240383143D01*
X105107144Y-240311714D01*
X207749999Y-83321429D02*
X208464285Y-83321429D01*
X208464285Y-84821429D01*
X207392856Y-84821429D02*
X206464285Y-84821429D01*
X206964285Y-84250000D01*
X206749999Y-84250000D01*
X206607142Y-84178571D01*
X206535713Y-84107143D01*
X206464285Y-83964286D01*
X206464285Y-83607143D01*
X206535713Y-83464286D01*
X206607142Y-83392857D01*
X206749999Y-83321429D01*
X207178571Y-83321429D01*
X207321428Y-83392857D01*
X207392856Y-83464286D01*
X197749999Y-83321429D02*
X198464285Y-83321429D01*
X198464285Y-84821429D01*
X197321428Y-84678571D02*
X197249999Y-84750000D01*
X197107142Y-84821429D01*
X196749999Y-84821429D01*
X196607142Y-84750000D01*
X196535713Y-84678571D01*
X196464285Y-84535714D01*
X196464285Y-84392857D01*
X196535713Y-84178571D01*
X197392856Y-83321429D01*
X196464285Y-83321429D01*
X188749999Y-83321429D02*
X189464285Y-83321429D01*
X189464285Y-84821429D01*
X187464285Y-83321429D02*
X188321428Y-83321429D01*
X187892856Y-83321429D02*
X187892856Y-84821429D01*
X188035713Y-84607143D01*
X188178571Y-84464286D01*
X188321428Y-84392857D01*
X179428571Y-83321429D02*
X179428571Y-84821429D01*
X178571428Y-83321429D01*
X178571428Y-84821429D01*
X196000000Y-86321429D02*
X196000000Y-87821429D01*
X195500000Y-86750000D01*
X195000000Y-87821429D01*
X195000000Y-86321429D01*
X194357143Y-86750000D02*
X193642857Y-86750000D01*
X194500000Y-86321429D02*
X194000000Y-87821429D01*
X193500000Y-86321429D01*
X193000000Y-86321429D02*
X193000000Y-87821429D01*
X192285714Y-86321429D02*
X192285714Y-87821429D01*
X191428571Y-86321429D01*
X191428571Y-87821429D01*
X190785714Y-86392857D02*
X190571428Y-86321429D01*
X190214285Y-86321429D01*
X190071428Y-86392857D01*
X189999999Y-86464286D01*
X189928571Y-86607143D01*
X189928571Y-86750000D01*
X189999999Y-86892857D01*
X190071428Y-86964286D01*
X190214285Y-87035714D01*
X190499999Y-87107143D01*
X190642857Y-87178571D01*
X190714285Y-87250000D01*
X190785714Y-87392857D01*
X190785714Y-87535714D01*
X190714285Y-87678571D01*
X190642857Y-87750000D01*
X190499999Y-87821429D01*
X190142857Y-87821429D01*
X189928571Y-87750000D01*
X247035715Y-207678571D02*
X247035715Y-206178571D01*
X247678572Y-206321429D02*
X247750001Y-206250000D01*
X247892858Y-206178571D01*
X248250001Y-206178571D01*
X248392858Y-206250000D01*
X248464287Y-206321429D01*
X248535715Y-206464286D01*
X248535715Y-206607143D01*
X248464287Y-206821429D01*
X247607144Y-207678571D01*
X248535715Y-207678571D01*
X250035715Y-207535714D02*
X249964286Y-207607143D01*
X249750000Y-207678571D01*
X249607143Y-207678571D01*
X249392858Y-207607143D01*
X249250000Y-207464286D01*
X249178572Y-207321429D01*
X249107143Y-207035714D01*
X249107143Y-206821429D01*
X249178572Y-206535714D01*
X249250000Y-206392857D01*
X249392858Y-206250000D01*
X249607143Y-206178571D01*
X249750000Y-206178571D01*
X249964286Y-206250000D01*
X250035715Y-206321429D01*
X247035715Y-219678571D02*
X247035715Y-218178571D01*
X247678572Y-218321429D02*
X247750001Y-218250000D01*
X247892858Y-218178571D01*
X248250001Y-218178571D01*
X248392858Y-218250000D01*
X248464287Y-218321429D01*
X248535715Y-218464286D01*
X248535715Y-218607143D01*
X248464287Y-218821429D01*
X247607144Y-219678571D01*
X248535715Y-219678571D01*
X250035715Y-219535714D02*
X249964286Y-219607143D01*
X249750000Y-219678571D01*
X249607143Y-219678571D01*
X249392858Y-219607143D01*
X249250000Y-219464286D01*
X249178572Y-219321429D01*
X249107143Y-219035714D01*
X249107143Y-218821429D01*
X249178572Y-218535714D01*
X249250000Y-218392857D01*
X249392858Y-218250000D01*
X249607143Y-218178571D01*
X249750000Y-218178571D01*
X249964286Y-218250000D01*
X250035715Y-218321429D01*
X247035715Y-231678571D02*
X247035715Y-230178571D01*
X247678572Y-230321429D02*
X247750001Y-230250000D01*
X247892858Y-230178571D01*
X248250001Y-230178571D01*
X248392858Y-230250000D01*
X248464287Y-230321429D01*
X248535715Y-230464286D01*
X248535715Y-230607143D01*
X248464287Y-230821429D01*
X247607144Y-231678571D01*
X248535715Y-231678571D01*
X250035715Y-231535714D02*
X249964286Y-231607143D01*
X249750000Y-231678571D01*
X249607143Y-231678571D01*
X249392858Y-231607143D01*
X249250000Y-231464286D01*
X249178572Y-231321429D01*
X249107143Y-231035714D01*
X249107143Y-230821429D01*
X249178572Y-230535714D01*
X249250000Y-230392857D01*
X249392858Y-230250000D01*
X249607143Y-230178571D01*
X249750000Y-230178571D01*
X249964286Y-230250000D01*
X250035715Y-230321429D01*
X240142857Y-199750000D02*
X240857143Y-199750000D01*
X240000000Y-200178571D02*
X240500000Y-198678571D01*
X241000000Y-200178571D01*
X241500000Y-198678571D02*
X241500000Y-199892857D01*
X241571428Y-200035714D01*
X241642857Y-200107143D01*
X241785714Y-200178571D01*
X242071428Y-200178571D01*
X242214286Y-200107143D01*
X242285714Y-200035714D01*
X242357143Y-199892857D01*
X242357143Y-198678571D01*
X242928572Y-198678571D02*
X243928572Y-200178571D01*
X243928572Y-198678571D02*
X242928572Y-200178571D01*
X271607143Y-212285714D02*
X271678571Y-212071428D01*
X271678571Y-211714285D01*
X271607143Y-211571428D01*
X271535714Y-211499999D01*
X271392857Y-211428571D01*
X271250000Y-211428571D01*
X271107143Y-211499999D01*
X271035714Y-211571428D01*
X270964286Y-211714285D01*
X270892857Y-211999999D01*
X270821429Y-212142857D01*
X270750000Y-212214285D01*
X270607143Y-212285714D01*
X270464286Y-212285714D01*
X270321429Y-212214285D01*
X270250000Y-212142857D01*
X270178571Y-211999999D01*
X270178571Y-211642857D01*
X270250000Y-211428571D01*
X270892857Y-210785714D02*
X270892857Y-210285714D01*
X271678571Y-210071428D02*
X271678571Y-210785714D01*
X270178571Y-210785714D01*
X270178571Y-210071428D01*
X271678571Y-208571428D02*
X270964286Y-209071428D01*
X271678571Y-209428571D02*
X270178571Y-209428571D01*
X270178571Y-208857143D01*
X270250000Y-208714285D01*
X270321429Y-208642857D01*
X270464286Y-208571428D01*
X270678571Y-208571428D01*
X270821429Y-208642857D01*
X270892857Y-208714285D01*
X270964286Y-208857143D01*
X270964286Y-209428571D01*
X270178571Y-208142857D02*
X271678571Y-207642857D01*
X270178571Y-207142857D01*
X271678571Y-206642857D02*
X270178571Y-206642857D01*
X271535714Y-205071428D02*
X271607143Y-205142857D01*
X271678571Y-205357143D01*
X271678571Y-205500000D01*
X271607143Y-205714285D01*
X271464286Y-205857143D01*
X271321429Y-205928571D01*
X271035714Y-206000000D01*
X270821429Y-206000000D01*
X270535714Y-205928571D01*
X270392857Y-205857143D01*
X270250000Y-205714285D01*
X270178571Y-205500000D01*
X270178571Y-205357143D01*
X270250000Y-205142857D01*
X270321429Y-205071428D01*
X270892857Y-204428571D02*
X270892857Y-203928571D01*
X271678571Y-203714285D02*
X271678571Y-204428571D01*
X270178571Y-204428571D01*
X270178571Y-203714285D01*
X237464286Y-237107143D02*
X237678572Y-237178571D01*
X238035715Y-237178571D01*
X238178572Y-237107143D01*
X238250001Y-237035714D01*
X238321429Y-236892857D01*
X238321429Y-236750000D01*
X238250001Y-236607143D01*
X238178572Y-236535714D01*
X238035715Y-236464286D01*
X237750001Y-236392857D01*
X237607143Y-236321429D01*
X237535715Y-236250000D01*
X237464286Y-236107143D01*
X237464286Y-235964286D01*
X237535715Y-235821429D01*
X237607143Y-235750000D01*
X237750001Y-235678571D01*
X238107143Y-235678571D01*
X238321429Y-235750000D01*
X238821429Y-235678571D02*
X239178572Y-237178571D01*
X239464286Y-236107143D01*
X239750000Y-237178571D01*
X240107143Y-235678571D01*
X240678572Y-237178571D02*
X240678572Y-235678571D01*
X241035715Y-235678571D01*
X241250000Y-235750000D01*
X241392858Y-235892857D01*
X241464286Y-236035714D01*
X241535715Y-236321429D01*
X241535715Y-236535714D01*
X241464286Y-236821429D01*
X241392858Y-236964286D01*
X241250000Y-237107143D01*
X241035715Y-237178571D01*
X240678572Y-237178571D01*
X193857143Y-237382857D02*
X194357143Y-237382857D01*
X194571429Y-238168571D02*
X193857143Y-238168571D01*
X193857143Y-236668571D01*
X194571429Y-236668571D01*
X195071429Y-236668571D02*
X196071429Y-238168571D01*
X196071429Y-236668571D02*
X195071429Y-238168571D01*
X196642857Y-238168571D02*
X196642857Y-236668571D01*
X197214285Y-236668571D01*
X197357143Y-236740000D01*
X197428571Y-236811429D01*
X197500000Y-236954286D01*
X197500000Y-237168571D01*
X197428571Y-237311429D01*
X197357143Y-237382857D01*
X197214285Y-237454286D01*
X196642857Y-237454286D01*
X198071428Y-237740000D02*
X198785714Y-237740000D01*
X197928571Y-238168571D02*
X198428571Y-236668571D01*
X198928571Y-238168571D01*
X199428571Y-238168571D02*
X199428571Y-236668571D01*
X200285714Y-238168571D01*
X200285714Y-236668571D01*
X200928571Y-238097143D02*
X201142857Y-238168571D01*
X201500000Y-238168571D01*
X201642857Y-238097143D01*
X201714286Y-238025714D01*
X201785714Y-237882857D01*
X201785714Y-237740000D01*
X201714286Y-237597143D01*
X201642857Y-237525714D01*
X201500000Y-237454286D01*
X201214286Y-237382857D01*
X201071428Y-237311429D01*
X201000000Y-237240000D01*
X200928571Y-237097143D01*
X200928571Y-236954286D01*
X201000000Y-236811429D01*
X201071428Y-236740000D01*
X201214286Y-236668571D01*
X201571428Y-236668571D01*
X201785714Y-236740000D01*
X202428571Y-238168571D02*
X202428571Y-236668571D01*
X203428571Y-236668571D02*
X203714285Y-236668571D01*
X203857143Y-236740000D01*
X204000000Y-236882857D01*
X204071428Y-237168571D01*
X204071428Y-237668571D01*
X204000000Y-237954286D01*
X203857143Y-238097143D01*
X203714285Y-238168571D01*
X203428571Y-238168571D01*
X203285714Y-238097143D01*
X203142857Y-237954286D01*
X203071428Y-237668571D01*
X203071428Y-237168571D01*
X203142857Y-236882857D01*
X203285714Y-236740000D01*
X203428571Y-236668571D01*
X204714286Y-238168571D02*
X204714286Y-236668571D01*
X205571429Y-238168571D01*
X205571429Y-236668571D01*
X207214286Y-236668571D02*
X207714286Y-238168571D01*
X208214286Y-236668571D01*
X208642857Y-237740000D02*
X209357143Y-237740000D01*
X208500000Y-238168571D02*
X209000000Y-236668571D01*
X209500000Y-238168571D01*
X210714286Y-238168571D02*
X210000000Y-238168571D01*
X210000000Y-236668571D01*
X211000000Y-236668571D02*
X211500000Y-238168571D01*
X212000000Y-236668571D01*
X212500000Y-237382857D02*
X213000000Y-237382857D01*
X213214286Y-238168571D02*
X212500000Y-238168571D01*
X212500000Y-236668571D01*
X213214286Y-236668571D01*
X180678571Y-237903571D02*
X180678571Y-236403571D01*
X180678571Y-237117857D02*
X181535714Y-237117857D01*
X181535714Y-237903571D02*
X181535714Y-236403571D01*
X182250000Y-237903571D02*
X182250000Y-236403571D01*
X183750000Y-236475000D02*
X183607143Y-236403571D01*
X183392857Y-236403571D01*
X183178572Y-236475000D01*
X183035714Y-236617857D01*
X182964286Y-236760714D01*
X182892857Y-237046429D01*
X182892857Y-237260714D01*
X182964286Y-237546429D01*
X183035714Y-237689286D01*
X183178572Y-237832143D01*
X183392857Y-237903571D01*
X183535714Y-237903571D01*
X183750000Y-237832143D01*
X183821429Y-237760714D01*
X183821429Y-237260714D01*
X183535714Y-237260714D01*
X184464286Y-237903571D02*
X184464286Y-236403571D01*
X184464286Y-237117857D02*
X185321429Y-237117857D01*
X185321429Y-237903571D02*
X185321429Y-236403571D01*
X177535715Y-240453571D02*
X177535715Y-238953571D01*
X178107143Y-238953571D01*
X178250001Y-239025000D01*
X178321429Y-239096429D01*
X178392858Y-239239286D01*
X178392858Y-239453571D01*
X178321429Y-239596429D01*
X178250001Y-239667857D01*
X178107143Y-239739286D01*
X177535715Y-239739286D01*
X179892858Y-240453571D02*
X179392858Y-239739286D01*
X179035715Y-240453571D02*
X179035715Y-238953571D01*
X179607143Y-238953571D01*
X179750001Y-239025000D01*
X179821429Y-239096429D01*
X179892858Y-239239286D01*
X179892858Y-239453571D01*
X179821429Y-239596429D01*
X179750001Y-239667857D01*
X179607143Y-239739286D01*
X179035715Y-239739286D01*
X180535715Y-239667857D02*
X181035715Y-239667857D01*
X181250001Y-240453571D02*
X180535715Y-240453571D01*
X180535715Y-238953571D01*
X181250001Y-238953571D01*
X181821429Y-240382143D02*
X182035715Y-240453571D01*
X182392858Y-240453571D01*
X182535715Y-240382143D01*
X182607144Y-240310714D01*
X182678572Y-240167857D01*
X182678572Y-240025000D01*
X182607144Y-239882143D01*
X182535715Y-239810714D01*
X182392858Y-239739286D01*
X182107144Y-239667857D01*
X181964286Y-239596429D01*
X181892858Y-239525000D01*
X181821429Y-239382143D01*
X181821429Y-239239286D01*
X181892858Y-239096429D01*
X181964286Y-239025000D01*
X182107144Y-238953571D01*
X182464286Y-238953571D01*
X182678572Y-239025000D01*
X183250000Y-240382143D02*
X183464286Y-240453571D01*
X183821429Y-240453571D01*
X183964286Y-240382143D01*
X184035715Y-240310714D01*
X184107143Y-240167857D01*
X184107143Y-240025000D01*
X184035715Y-239882143D01*
X183964286Y-239810714D01*
X183821429Y-239739286D01*
X183535715Y-239667857D01*
X183392857Y-239596429D01*
X183321429Y-239525000D01*
X183250000Y-239382143D01*
X183250000Y-239239286D01*
X183321429Y-239096429D01*
X183392857Y-239025000D01*
X183535715Y-238953571D01*
X183892857Y-238953571D01*
X184107143Y-239025000D01*
X184750000Y-238953571D02*
X184750000Y-240167857D01*
X184821428Y-240310714D01*
X184892857Y-240382143D01*
X185035714Y-240453571D01*
X185321428Y-240453571D01*
X185464286Y-240382143D01*
X185535714Y-240310714D01*
X185607143Y-240167857D01*
X185607143Y-238953571D01*
X187178572Y-240453571D02*
X186678572Y-239739286D01*
X186321429Y-240453571D02*
X186321429Y-238953571D01*
X186892857Y-238953571D01*
X187035715Y-239025000D01*
X187107143Y-239096429D01*
X187178572Y-239239286D01*
X187178572Y-239453571D01*
X187107143Y-239596429D01*
X187035715Y-239667857D01*
X186892857Y-239739286D01*
X186321429Y-239739286D01*
X187821429Y-239667857D02*
X188321429Y-239667857D01*
X188535715Y-240453571D02*
X187821429Y-240453571D01*
X187821429Y-238953571D01*
X188535715Y-238953571D01*
X166821429Y-237903571D02*
X166107143Y-237903571D01*
X166107143Y-236403571D01*
X167607143Y-236403571D02*
X167892857Y-236403571D01*
X168035715Y-236475000D01*
X168178572Y-236617857D01*
X168250000Y-236903571D01*
X168250000Y-237403571D01*
X168178572Y-237689286D01*
X168035715Y-237832143D01*
X167892857Y-237903571D01*
X167607143Y-237903571D01*
X167464286Y-237832143D01*
X167321429Y-237689286D01*
X167250000Y-237403571D01*
X167250000Y-236903571D01*
X167321429Y-236617857D01*
X167464286Y-236475000D01*
X167607143Y-236403571D01*
X168750001Y-236403571D02*
X169107144Y-237903571D01*
X169392858Y-236832143D01*
X169678572Y-237903571D01*
X170035715Y-236403571D01*
X162535715Y-240453571D02*
X162535715Y-238953571D01*
X163107143Y-238953571D01*
X163250001Y-239025000D01*
X163321429Y-239096429D01*
X163392858Y-239239286D01*
X163392858Y-239453571D01*
X163321429Y-239596429D01*
X163250001Y-239667857D01*
X163107143Y-239739286D01*
X162535715Y-239739286D01*
X164892858Y-240453571D02*
X164392858Y-239739286D01*
X164035715Y-240453571D02*
X164035715Y-238953571D01*
X164607143Y-238953571D01*
X164750001Y-239025000D01*
X164821429Y-239096429D01*
X164892858Y-239239286D01*
X164892858Y-239453571D01*
X164821429Y-239596429D01*
X164750001Y-239667857D01*
X164607143Y-239739286D01*
X164035715Y-239739286D01*
X165535715Y-239667857D02*
X166035715Y-239667857D01*
X166250001Y-240453571D02*
X165535715Y-240453571D01*
X165535715Y-238953571D01*
X166250001Y-238953571D01*
X166821429Y-240382143D02*
X167035715Y-240453571D01*
X167392858Y-240453571D01*
X167535715Y-240382143D01*
X167607144Y-240310714D01*
X167678572Y-240167857D01*
X167678572Y-240025000D01*
X167607144Y-239882143D01*
X167535715Y-239810714D01*
X167392858Y-239739286D01*
X167107144Y-239667857D01*
X166964286Y-239596429D01*
X166892858Y-239525000D01*
X166821429Y-239382143D01*
X166821429Y-239239286D01*
X166892858Y-239096429D01*
X166964286Y-239025000D01*
X167107144Y-238953571D01*
X167464286Y-238953571D01*
X167678572Y-239025000D01*
X168250000Y-240382143D02*
X168464286Y-240453571D01*
X168821429Y-240453571D01*
X168964286Y-240382143D01*
X169035715Y-240310714D01*
X169107143Y-240167857D01*
X169107143Y-240025000D01*
X169035715Y-239882143D01*
X168964286Y-239810714D01*
X168821429Y-239739286D01*
X168535715Y-239667857D01*
X168392857Y-239596429D01*
X168321429Y-239525000D01*
X168250000Y-239382143D01*
X168250000Y-239239286D01*
X168321429Y-239096429D01*
X168392857Y-239025000D01*
X168535715Y-238953571D01*
X168892857Y-238953571D01*
X169107143Y-239025000D01*
X169750000Y-238953571D02*
X169750000Y-240167857D01*
X169821428Y-240310714D01*
X169892857Y-240382143D01*
X170035714Y-240453571D01*
X170321428Y-240453571D01*
X170464286Y-240382143D01*
X170535714Y-240310714D01*
X170607143Y-240167857D01*
X170607143Y-238953571D01*
X172178572Y-240453571D02*
X171678572Y-239739286D01*
X171321429Y-240453571D02*
X171321429Y-238953571D01*
X171892857Y-238953571D01*
X172035715Y-239025000D01*
X172107143Y-239096429D01*
X172178572Y-239239286D01*
X172178572Y-239453571D01*
X172107143Y-239596429D01*
X172035715Y-239667857D01*
X171892857Y-239739286D01*
X171321429Y-239739286D01*
X172821429Y-239667857D02*
X173321429Y-239667857D01*
X173535715Y-240453571D02*
X172821429Y-240453571D01*
X172821429Y-238953571D01*
X173535715Y-238953571D01*
X150214286Y-237903571D02*
X150214286Y-236403571D01*
X150785714Y-236403571D01*
X150928572Y-236475000D01*
X151000000Y-236546429D01*
X151071429Y-236689286D01*
X151071429Y-236903571D01*
X151000000Y-237046429D01*
X150928572Y-237117857D01*
X150785714Y-237189286D01*
X150214286Y-237189286D01*
X151714286Y-236403571D02*
X151714286Y-237617857D01*
X151785714Y-237760714D01*
X151857143Y-237832143D01*
X152000000Y-237903571D01*
X152285714Y-237903571D01*
X152428572Y-237832143D01*
X152500000Y-237760714D01*
X152571429Y-237617857D01*
X152571429Y-236403571D01*
X153285715Y-237903571D02*
X153285715Y-236403571D01*
X153785715Y-237475000D01*
X154285715Y-236403571D01*
X154285715Y-237903571D01*
X155000001Y-237903571D02*
X155000001Y-236403571D01*
X155571429Y-236403571D01*
X155714287Y-236475000D01*
X155785715Y-236546429D01*
X155857144Y-236689286D01*
X155857144Y-236903571D01*
X155785715Y-237046429D01*
X155714287Y-237117857D01*
X155571429Y-237189286D01*
X155000001Y-237189286D01*
X148142857Y-240453571D02*
X148142857Y-238953571D01*
X148142857Y-239667857D02*
X149000000Y-239667857D01*
X149000000Y-240453571D02*
X149000000Y-238953571D01*
X150000000Y-238953571D02*
X150285714Y-238953571D01*
X150428572Y-239025000D01*
X150571429Y-239167857D01*
X150642857Y-239453571D01*
X150642857Y-239953571D01*
X150571429Y-240239286D01*
X150428572Y-240382143D01*
X150285714Y-240453571D01*
X150000000Y-240453571D01*
X149857143Y-240382143D01*
X149714286Y-240239286D01*
X149642857Y-239953571D01*
X149642857Y-239453571D01*
X149714286Y-239167857D01*
X149857143Y-239025000D01*
X150000000Y-238953571D01*
X151071429Y-238953571D02*
X151928572Y-238953571D01*
X151500001Y-240453571D02*
X151500001Y-238953571D01*
X153500000Y-240382143D02*
X153714286Y-240453571D01*
X154071429Y-240453571D01*
X154214286Y-240382143D01*
X154285715Y-240310714D01*
X154357143Y-240167857D01*
X154357143Y-240025000D01*
X154285715Y-239882143D01*
X154214286Y-239810714D01*
X154071429Y-239739286D01*
X153785715Y-239667857D01*
X153642857Y-239596429D01*
X153571429Y-239525000D01*
X153500000Y-239382143D01*
X153500000Y-239239286D01*
X153571429Y-239096429D01*
X153642857Y-239025000D01*
X153785715Y-238953571D01*
X154142857Y-238953571D01*
X154357143Y-239025000D01*
X155000000Y-240453571D02*
X155000000Y-238953571D01*
X155714286Y-240453571D02*
X155714286Y-238953571D01*
X156071429Y-238953571D01*
X156285714Y-239025000D01*
X156428572Y-239167857D01*
X156500000Y-239310714D01*
X156571429Y-239596429D01*
X156571429Y-239810714D01*
X156500000Y-240096429D01*
X156428572Y-240239286D01*
X156285714Y-240382143D01*
X156071429Y-240453571D01*
X155714286Y-240453571D01*
X157214286Y-239667857D02*
X157714286Y-239667857D01*
X157928572Y-240453571D02*
X157214286Y-240453571D01*
X157214286Y-238953571D01*
X157928572Y-238953571D01*
X135214286Y-237903571D02*
X135214286Y-236403571D01*
X135785714Y-236403571D01*
X135928572Y-236475000D01*
X136000000Y-236546429D01*
X136071429Y-236689286D01*
X136071429Y-236903571D01*
X136000000Y-237046429D01*
X135928572Y-237117857D01*
X135785714Y-237189286D01*
X135214286Y-237189286D01*
X136714286Y-236403571D02*
X136714286Y-237617857D01*
X136785714Y-237760714D01*
X136857143Y-237832143D01*
X137000000Y-237903571D01*
X137285714Y-237903571D01*
X137428572Y-237832143D01*
X137500000Y-237760714D01*
X137571429Y-237617857D01*
X137571429Y-236403571D01*
X138285715Y-237903571D02*
X138285715Y-236403571D01*
X138785715Y-237475000D01*
X139285715Y-236403571D01*
X139285715Y-237903571D01*
X140000001Y-237903571D02*
X140000001Y-236403571D01*
X140571429Y-236403571D01*
X140714287Y-236475000D01*
X140785715Y-236546429D01*
X140857144Y-236689286D01*
X140857144Y-236903571D01*
X140785715Y-237046429D01*
X140714287Y-237117857D01*
X140571429Y-237189286D01*
X140000001Y-237189286D01*
X133250000Y-240310714D02*
X133178571Y-240382143D01*
X132964285Y-240453571D01*
X132821428Y-240453571D01*
X132607143Y-240382143D01*
X132464285Y-240239286D01*
X132392857Y-240096429D01*
X132321428Y-239810714D01*
X132321428Y-239596429D01*
X132392857Y-239310714D01*
X132464285Y-239167857D01*
X132607143Y-239025000D01*
X132821428Y-238953571D01*
X132964285Y-238953571D01*
X133178571Y-239025000D01*
X133250000Y-239096429D01*
X134178571Y-238953571D02*
X134464285Y-238953571D01*
X134607143Y-239025000D01*
X134750000Y-239167857D01*
X134821428Y-239453571D01*
X134821428Y-239953571D01*
X134750000Y-240239286D01*
X134607143Y-240382143D01*
X134464285Y-240453571D01*
X134178571Y-240453571D01*
X134035714Y-240382143D01*
X133892857Y-240239286D01*
X133821428Y-239953571D01*
X133821428Y-239453571D01*
X133892857Y-239167857D01*
X134035714Y-239025000D01*
X134178571Y-238953571D01*
X136178572Y-240453571D02*
X135464286Y-240453571D01*
X135464286Y-238953571D01*
X136678572Y-240453571D02*
X136678572Y-238953571D01*
X137035715Y-238953571D01*
X137250000Y-239025000D01*
X137392858Y-239167857D01*
X137464286Y-239310714D01*
X137535715Y-239596429D01*
X137535715Y-239810714D01*
X137464286Y-240096429D01*
X137392858Y-240239286D01*
X137250000Y-240382143D01*
X137035715Y-240453571D01*
X136678572Y-240453571D01*
X139250000Y-240382143D02*
X139464286Y-240453571D01*
X139821429Y-240453571D01*
X139964286Y-240382143D01*
X140035715Y-240310714D01*
X140107143Y-240167857D01*
X140107143Y-240025000D01*
X140035715Y-239882143D01*
X139964286Y-239810714D01*
X139821429Y-239739286D01*
X139535715Y-239667857D01*
X139392857Y-239596429D01*
X139321429Y-239525000D01*
X139250000Y-239382143D01*
X139250000Y-239239286D01*
X139321429Y-239096429D01*
X139392857Y-239025000D01*
X139535715Y-238953571D01*
X139892857Y-238953571D01*
X140107143Y-239025000D01*
X140750000Y-240453571D02*
X140750000Y-238953571D01*
X141464286Y-240453571D02*
X141464286Y-238953571D01*
X141821429Y-238953571D01*
X142035714Y-239025000D01*
X142178572Y-239167857D01*
X142250000Y-239310714D01*
X142321429Y-239596429D01*
X142321429Y-239810714D01*
X142250000Y-240096429D01*
X142178572Y-240239286D01*
X142035714Y-240382143D01*
X141821429Y-240453571D01*
X141464286Y-240453571D01*
X142964286Y-239667857D02*
X143464286Y-239667857D01*
X143678572Y-240453571D02*
X142964286Y-240453571D01*
X142964286Y-238953571D01*
X143678572Y-238953571D01*
X88214286Y-237903571D02*
X88214286Y-236403571D01*
X88714286Y-237475000D01*
X89214286Y-236403571D01*
X89214286Y-237903571D01*
X89857143Y-237475000D02*
X90571429Y-237475000D01*
X89714286Y-237903571D02*
X90214286Y-236403571D01*
X90714286Y-237903571D01*
X91214286Y-237903571D02*
X91214286Y-236403571D01*
X91928572Y-237903571D02*
X91928572Y-236403571D01*
X92785715Y-237903571D01*
X92785715Y-236403571D01*
X86750000Y-240382143D02*
X86964286Y-240453571D01*
X87321429Y-240453571D01*
X87464286Y-240382143D01*
X87535715Y-240310714D01*
X87607143Y-240167857D01*
X87607143Y-240025000D01*
X87535715Y-239882143D01*
X87464286Y-239810714D01*
X87321429Y-239739286D01*
X87035715Y-239667857D01*
X86892857Y-239596429D01*
X86821429Y-239525000D01*
X86750000Y-239382143D01*
X86750000Y-239239286D01*
X86821429Y-239096429D01*
X86892857Y-239025000D01*
X87035715Y-238953571D01*
X87392857Y-238953571D01*
X87607143Y-239025000D01*
X88107143Y-238953571D02*
X88464286Y-240453571D01*
X88750000Y-239382143D01*
X89035714Y-240453571D01*
X89392857Y-238953571D01*
X89964286Y-240453571D02*
X89964286Y-238953571D01*
X90464286Y-238953571D02*
X91321429Y-238953571D01*
X90892858Y-240453571D02*
X90892858Y-238953571D01*
X92678572Y-240310714D02*
X92607143Y-240382143D01*
X92392857Y-240453571D01*
X92250000Y-240453571D01*
X92035715Y-240382143D01*
X91892857Y-240239286D01*
X91821429Y-240096429D01*
X91750000Y-239810714D01*
X91750000Y-239596429D01*
X91821429Y-239310714D01*
X91892857Y-239167857D01*
X92035715Y-239025000D01*
X92250000Y-238953571D01*
X92392857Y-238953571D01*
X92607143Y-239025000D01*
X92678572Y-239096429D01*
X93321429Y-240453571D02*
X93321429Y-238953571D01*
X93321429Y-239667857D02*
X94178572Y-239667857D01*
X94178572Y-240453571D02*
X94178572Y-238953571D01*
X108178572Y-238035714D02*
X108107143Y-238107143D01*
X107892857Y-238178571D01*
X107750000Y-238178571D01*
X107535715Y-238107143D01*
X107392857Y-237964286D01*
X107321429Y-237821429D01*
X107250000Y-237535714D01*
X107250000Y-237321429D01*
X107321429Y-237035714D01*
X107392857Y-236892857D01*
X107535715Y-236750000D01*
X107750000Y-236678571D01*
X107892857Y-236678571D01*
X108107143Y-236750000D01*
X108178572Y-236821429D01*
X109107143Y-236678571D02*
X109392857Y-236678571D01*
X109535715Y-236750000D01*
X109678572Y-236892857D01*
X109750000Y-237178571D01*
X109750000Y-237678571D01*
X109678572Y-237964286D01*
X109535715Y-238107143D01*
X109392857Y-238178571D01*
X109107143Y-238178571D01*
X108964286Y-238107143D01*
X108821429Y-237964286D01*
X108750000Y-237678571D01*
X108750000Y-237178571D01*
X108821429Y-236892857D01*
X108964286Y-236750000D01*
X109107143Y-236678571D01*
X110392858Y-238178571D02*
X110392858Y-236678571D01*
X110892858Y-237750000D01*
X111392858Y-236678571D01*
X111392858Y-238178571D01*
X112107144Y-238178571D02*
X112107144Y-236678571D01*
X112678572Y-236678571D01*
X112821430Y-236750000D01*
X112892858Y-236821429D01*
X112964287Y-236964286D01*
X112964287Y-237178571D01*
X112892858Y-237321429D01*
X112821430Y-237392857D01*
X112678572Y-237464286D01*
X112107144Y-237464286D01*
X114464287Y-238178571D02*
X113964287Y-237464286D01*
X113607144Y-238178571D02*
X113607144Y-236678571D01*
X114178572Y-236678571D01*
X114321430Y-236750000D01*
X114392858Y-236821429D01*
X114464287Y-236964286D01*
X114464287Y-237178571D01*
X114392858Y-237321429D01*
X114321430Y-237392857D01*
X114178572Y-237464286D01*
X113607144Y-237464286D01*
X115107144Y-237392857D02*
X115607144Y-237392857D01*
X115821430Y-238178571D02*
X115107144Y-238178571D01*
X115107144Y-236678571D01*
X115821430Y-236678571D01*
X116392858Y-238107143D02*
X116607144Y-238178571D01*
X116964287Y-238178571D01*
X117107144Y-238107143D01*
X117178573Y-238035714D01*
X117250001Y-237892857D01*
X117250001Y-237750000D01*
X117178573Y-237607143D01*
X117107144Y-237535714D01*
X116964287Y-237464286D01*
X116678573Y-237392857D01*
X116535715Y-237321429D01*
X116464287Y-237250000D01*
X116392858Y-237107143D01*
X116392858Y-236964286D01*
X116464287Y-236821429D01*
X116535715Y-236750000D01*
X116678573Y-236678571D01*
X117035715Y-236678571D01*
X117250001Y-236750000D01*
X117821429Y-238107143D02*
X118035715Y-238178571D01*
X118392858Y-238178571D01*
X118535715Y-238107143D01*
X118607144Y-238035714D01*
X118678572Y-237892857D01*
X118678572Y-237750000D01*
X118607144Y-237607143D01*
X118535715Y-237535714D01*
X118392858Y-237464286D01*
X118107144Y-237392857D01*
X117964286Y-237321429D01*
X117892858Y-237250000D01*
X117821429Y-237107143D01*
X117821429Y-236964286D01*
X117892858Y-236821429D01*
X117964286Y-236750000D01*
X118107144Y-236678571D01*
X118464286Y-236678571D01*
X118678572Y-236750000D01*
X119607143Y-236678571D02*
X119892857Y-236678571D01*
X120035715Y-236750000D01*
X120178572Y-236892857D01*
X120250000Y-237178571D01*
X120250000Y-237678571D01*
X120178572Y-237964286D01*
X120035715Y-238107143D01*
X119892857Y-238178571D01*
X119607143Y-238178571D01*
X119464286Y-238107143D01*
X119321429Y-237964286D01*
X119250000Y-237678571D01*
X119250000Y-237178571D01*
X119321429Y-236892857D01*
X119464286Y-236750000D01*
X119607143Y-236678571D01*
X121750001Y-238178571D02*
X121250001Y-237464286D01*
X120892858Y-238178571D02*
X120892858Y-236678571D01*
X121464286Y-236678571D01*
X121607144Y-236750000D01*
X121678572Y-236821429D01*
X121750001Y-236964286D01*
X121750001Y-237178571D01*
X121678572Y-237321429D01*
X121607144Y-237392857D01*
X121464286Y-237464286D01*
X120892858Y-237464286D01*
D15*
X214940000Y-163160000D02*
X184460000Y-163160000D01*
X184460000Y-163160000D02*
X184460000Y-150460000D01*
X214940000Y-150460000D02*
X184460000Y-150460000D01*
X214940000Y-150460000D02*
X214940000Y-163160000D01*
D10*
X204702260Y-179419060D02*
X203995153Y-178711953D01*
X205409367Y-177297740D02*
X204702260Y-178004847D01*
X204702260Y-176590633D02*
X203995153Y-177297740D01*
X203288047Y-176590633D02*
X202580940Y-177297740D01*
X205409367Y-178711953D02*
X204702260Y-178004847D01*
X205409367Y-177297740D02*
X204702260Y-176590633D01*
X203288047Y-179419060D02*
X202580940Y-178711953D01*
X203288047Y-178004847D02*
X202580940Y-178711953D01*
X203288047Y-178004847D02*
X202580940Y-177297740D01*
X203995153Y-177297740D02*
X203288047Y-176590633D01*
X205409367Y-178711953D02*
X204702260Y-179419060D01*
X210250001Y-182000000D02*
G75*
G03X210250001Y-182000000I-10250001J0D01*
G01*
X203995153Y-178711953D02*
X203288047Y-179419060D01*
D16*
X225150000Y-194200000D02*
X225150000Y-193200000D01*
X223450000Y-193200000D02*
X223450000Y-194200000D01*
X225150000Y-182200000D02*
X225150000Y-181200000D01*
X223450000Y-181200000D02*
X223450000Y-182200000D01*
X235500000Y-201650000D02*
X234500000Y-201650000D01*
X234500000Y-203350000D02*
X235500000Y-203350000D01*
X214850000Y-214000000D02*
X214850000Y-213000000D01*
X213150000Y-213000000D02*
X213150000Y-214000000D01*
X214850000Y-218000000D02*
X214850000Y-217000000D01*
X213150000Y-217000000D02*
X213150000Y-218000000D01*
X235500000Y-204650000D02*
X234500000Y-204650000D01*
X234500000Y-206350000D02*
X235500000Y-206350000D01*
X213150000Y-209000000D02*
X213150000Y-210000000D01*
X214850000Y-210000000D02*
X214850000Y-209000000D01*
X227500000Y-205350000D02*
X228500000Y-205350000D01*
X228500000Y-203650000D02*
X227500000Y-203650000D01*
X220150000Y-216000000D02*
X220150000Y-217000000D01*
X221850000Y-217000000D02*
X221850000Y-216000000D01*
X265500000Y-221850000D02*
X266500000Y-221850000D01*
X266500000Y-220150000D02*
X265500000Y-220150000D01*
X211150000Y-195300000D02*
X206850000Y-195300000D01*
X206850000Y-195300000D02*
X206850000Y-201000000D01*
X211150000Y-195300000D02*
X211150000Y-201000000D01*
X210300000Y-167850000D02*
X210300000Y-172150000D01*
X210300000Y-172150000D02*
X216000000Y-172150000D01*
X210300000Y-167850000D02*
X216000000Y-167850000D01*
D15*
X90048000Y-228714000D02*
X90048000Y-235572000D01*
X94620000Y-228714000D02*
X90048000Y-228714000D01*
X84968000Y-228714000D02*
X84968000Y-235572000D01*
X89540000Y-228714000D02*
X84968000Y-228714000D01*
X94620000Y-221602000D02*
X94620000Y-235572000D01*
X89540000Y-221602000D02*
X89540000Y-235572000D01*
X97160000Y-235572000D02*
X97160000Y-221602000D01*
X84460000Y-235572000D02*
X97160000Y-235572000D01*
X84460000Y-221602000D02*
X84460000Y-235572000D01*
X84460000Y-221602000D02*
X97160000Y-221602000D01*
X173450000Y-105000000D02*
X173450000Y-88800000D01*
X213050000Y-88800000D02*
X173450000Y-88800000D01*
X213050000Y-105000000D02*
X213050000Y-88800000D01*
X213050000Y-105000000D02*
X173450000Y-105000000D01*
D16*
X244870000Y-201670000D02*
X239670000Y-201670000D01*
X244870000Y-211890000D02*
X244870000Y-201670000D01*
X239670000Y-214490000D02*
X239670000Y-201670000D01*
X244870000Y-211890000D02*
X242270000Y-211890000D01*
X242270000Y-211890000D02*
X242270000Y-214490000D01*
X242270000Y-214490000D02*
X239670000Y-214490000D01*
X244870000Y-213160000D02*
X244870000Y-214490000D01*
X244870000Y-214490000D02*
X243540000Y-214490000D01*
D15*
X197808000Y-228834000D02*
X197808000Y-235692000D01*
X202380000Y-228834000D02*
X197808000Y-228834000D01*
X192728000Y-228834000D02*
X192728000Y-235692000D01*
X197300000Y-228834000D02*
X192728000Y-228834000D01*
X197300000Y-221722000D02*
X197300000Y-235692000D01*
X192220000Y-235692000D02*
X215080000Y-235692000D01*
X192220000Y-221722000D02*
X192220000Y-235692000D01*
X192220000Y-221722000D02*
X215080000Y-221722000D01*
X202380000Y-221722000D02*
X202380000Y-235692000D01*
X215080000Y-235692000D02*
X215080000Y-221722000D01*
X202888000Y-228834000D02*
X202888000Y-235692000D01*
X207460000Y-228834000D02*
X202888000Y-228834000D01*
X207460000Y-221722000D02*
X207460000Y-235692000D01*
X207968000Y-228834000D02*
X207968000Y-235692000D01*
X212540000Y-228834000D02*
X207968000Y-228834000D01*
X212540000Y-221722000D02*
X212540000Y-235692000D01*
X167548000Y-228834000D02*
X167548000Y-235692000D01*
X172120000Y-228834000D02*
X167548000Y-228834000D01*
X162468000Y-228834000D02*
X162468000Y-235692000D01*
X167040000Y-228834000D02*
X162468000Y-228834000D01*
X172120000Y-221722000D02*
X172120000Y-235692000D01*
X167040000Y-221722000D02*
X167040000Y-235692000D01*
X174660000Y-235692000D02*
X174660000Y-221722000D01*
X161960000Y-235692000D02*
X174660000Y-235692000D01*
X161960000Y-221722000D02*
X161960000Y-235692000D01*
X161960000Y-221722000D02*
X174660000Y-221722000D01*
X137548000Y-228714000D02*
X137548000Y-235572000D01*
X142120000Y-228714000D02*
X137548000Y-228714000D01*
X132468000Y-228714000D02*
X132468000Y-235572000D01*
X137040000Y-228714000D02*
X132468000Y-228714000D01*
X142120000Y-221602000D02*
X142120000Y-235572000D01*
X137040000Y-221602000D02*
X137040000Y-235572000D01*
X144660000Y-235572000D02*
X144660000Y-221602000D01*
X131960000Y-235572000D02*
X144660000Y-235572000D01*
X131960000Y-221602000D02*
X131960000Y-235572000D01*
X131960000Y-221602000D02*
X144660000Y-221602000D01*
X152548000Y-228714000D02*
X152548000Y-235572000D01*
X157120000Y-228714000D02*
X152548000Y-228714000D01*
X147468000Y-228714000D02*
X147468000Y-235572000D01*
X152040000Y-228714000D02*
X147468000Y-228714000D01*
X157120000Y-221602000D02*
X157120000Y-235572000D01*
X152040000Y-221602000D02*
X152040000Y-235572000D01*
X159660000Y-235572000D02*
X159660000Y-221602000D01*
X146960000Y-235572000D02*
X159660000Y-235572000D01*
X146960000Y-221602000D02*
X146960000Y-235572000D01*
X146960000Y-221602000D02*
X159660000Y-221602000D01*
X182548000Y-228834000D02*
X182548000Y-235692000D01*
X187120000Y-228834000D02*
X182548000Y-228834000D01*
X177468000Y-228834000D02*
X177468000Y-235692000D01*
X182040000Y-228834000D02*
X177468000Y-228834000D01*
X187120000Y-221722000D02*
X187120000Y-235692000D01*
X182040000Y-221722000D02*
X182040000Y-235692000D01*
X189660000Y-235692000D02*
X189660000Y-221722000D01*
X176960000Y-235692000D02*
X189660000Y-235692000D01*
X176960000Y-221722000D02*
X176960000Y-235692000D01*
X176960000Y-221722000D02*
X189660000Y-221722000D01*
X129550000Y-220000000D02*
X129550000Y-236200000D01*
X99450000Y-236200000D02*
X129550000Y-236200000D01*
X99450000Y-220000000D02*
X99450000Y-236200000D01*
X99450000Y-220000000D02*
X129550000Y-220000000D01*
X214940000Y-124540000D02*
X184460000Y-124540000D01*
X184460000Y-124540000D02*
X184460000Y-111840000D01*
X214940000Y-111840000D02*
X184460000Y-111840000D01*
X214940000Y-111840000D02*
X214940000Y-124540000D01*
X214940000Y-144160000D02*
X184460000Y-144160000D01*
X184460000Y-144160000D02*
X184460000Y-131460000D01*
X214940000Y-131460000D02*
X184460000Y-131460000D01*
X214940000Y-131460000D02*
X214940000Y-144160000D01*
D16*
X241450000Y-225620000D02*
X242650000Y-225620000D01*
X242650000Y-227380000D02*
X241450000Y-227380000D01*
X242650000Y-225380000D02*
X241450000Y-225380000D01*
X241450000Y-223620000D02*
X242650000Y-223620000D01*
X221120000Y-223050000D02*
X221120000Y-221850000D01*
X222880000Y-221850000D02*
X222880000Y-223050000D01*
X223120000Y-223050000D02*
X223120000Y-221850000D01*
X224880000Y-221850000D02*
X224880000Y-223050000D01*
X225120000Y-223050000D02*
X225120000Y-221850000D01*
X226880000Y-221850000D02*
X226880000Y-223050000D01*
X231880000Y-221850000D02*
X231880000Y-223050000D01*
X230120000Y-223050000D02*
X230120000Y-221850000D01*
X229880000Y-221850000D02*
X229880000Y-223050000D01*
X228120000Y-223050000D02*
X228120000Y-221850000D01*
X199880000Y-210950000D02*
X199880000Y-212150000D01*
X198120000Y-212150000D02*
X198120000Y-210950000D01*
X198120000Y-216150000D02*
X198120000Y-214950000D01*
X199880000Y-214950000D02*
X199880000Y-216150000D01*
X233880000Y-221850000D02*
X233880000Y-223050000D01*
X232120000Y-223050000D02*
X232120000Y-221850000D01*
X223620000Y-170600000D02*
X223620000Y-169400000D01*
X225380000Y-169400000D02*
X225380000Y-170600000D01*
X178650000Y-218380000D02*
X177450000Y-218380000D01*
X177450000Y-216620000D02*
X178650000Y-216620000D01*
X177450000Y-213620000D02*
X178650000Y-213620000D01*
X178650000Y-215380000D02*
X177450000Y-215380000D01*
X189650000Y-218380000D02*
X188450000Y-218380000D01*
X188450000Y-216620000D02*
X189650000Y-216620000D01*
X188350000Y-213620000D02*
X189550000Y-213620000D01*
X189550000Y-215380000D02*
X188350000Y-215380000D01*
D15*
X244048000Y-218484000D02*
X239984000Y-218484000D01*
X239984000Y-218484000D02*
X239984000Y-220516000D01*
X239984000Y-220516000D02*
X244048000Y-220516000D01*
X244048000Y-220516000D02*
X244048000Y-218484000D01*
D16*
X219740000Y-168420000D02*
X219740000Y-169350000D01*
X219740000Y-171580000D02*
X219740000Y-170650000D01*
X219740000Y-171580000D02*
X221900000Y-171580000D01*
X219740000Y-168420000D02*
X221200000Y-168420000D01*
X215890000Y-195460000D02*
X217150000Y-195460000D01*
X222710000Y-195460000D02*
X221450000Y-195460000D01*
X215890000Y-191700000D02*
X215890000Y-195460000D01*
X222710000Y-189450000D02*
X222710000Y-195460000D01*
X215890000Y-183460000D02*
X217150000Y-183460000D01*
X222710000Y-183460000D02*
X221450000Y-183460000D01*
X215890000Y-179700000D02*
X215890000Y-183460000D01*
X222710000Y-177450000D02*
X222710000Y-183460000D01*
D10*
X269000000Y-94000000D02*
X222000000Y-94000000D01*
X222000000Y-163000000D02*
X269000000Y-163000000D01*
X272000000Y-163000000D02*
G75*
G02X269000000Y-166000000I-3000000J0D01*
G01*
X269000000Y-91000000D02*
G75*
G02X272000000Y-94000000I0J-3000000D01*
G01*
X222000000Y-94000000D02*
X222000000Y-163000000D01*
X219000000Y-94000000D02*
G75*
G02X222000000Y-91000000I3000000J0D01*
G01*
X219000000Y-163000000D02*
X219000000Y-94000000D01*
X222000000Y-91000000D02*
X269000000Y-91000000D01*
X222000000Y-166000000D02*
G75*
G02X219000000Y-163000000I0J3000000D01*
G01*
X269000000Y-163000000D02*
X269000000Y-94000000D01*
X269000000Y-166000000D02*
X222000000Y-166000000D01*
X272000000Y-94000000D02*
X272000000Y-163000000D01*
D15*
X232825000Y-192400000D02*
G75*
G03X232825000Y-192400000I-1125000J0D01*
G01*
X232725000Y-172400000D02*
G75*
G03X232725000Y-172400000I-1125000J0D01*
G01*
X266933000Y-196400000D02*
X271600000Y-191733000D01*
X233000000Y-196400000D02*
X266933000Y-196400000D01*
X228700000Y-192100000D02*
X233000000Y-196400000D01*
X228700000Y-172800000D02*
X228700000Y-192100000D01*
X231500000Y-170000000D02*
X228700000Y-172800000D01*
X271600000Y-170000000D02*
X231500000Y-170000000D01*
X271600000Y-191733000D02*
X271600000Y-170000000D01*
X232875000Y-208875000D02*
X232650000Y-208875000D01*
X232875000Y-216125000D02*
X232575000Y-216125000D01*
X225625000Y-216125000D02*
X225925000Y-216125000D01*
X225625000Y-208875000D02*
X225925000Y-208875000D01*
X232875000Y-208875000D02*
X232875000Y-209175000D01*
X225625000Y-208875000D02*
X225625000Y-209175000D01*
X225625000Y-216125000D02*
X225625000Y-215825000D01*
X232875000Y-216125000D02*
X232875000Y-215825000D01*
X232650000Y-208875000D02*
X232650000Y-207650000D01*
X203850000Y-216225000D02*
X208250000Y-216225000D01*
X202275000Y-210700000D02*
X208250000Y-210700000D01*
D16*
X265390000Y-224700000D02*
X265390000Y-226500000D01*
X268610000Y-226500000D02*
X268610000Y-224050000D01*
D15*
X164250000Y-220100000D02*
X164250000Y-214600000D01*
X139750000Y-220100000D02*
X164250000Y-220100000D01*
X139750000Y-214600000D02*
X139750000Y-220100000D01*
X164250000Y-214600000D02*
X139750000Y-214600000D01*
X164250000Y-212100000D02*
X164250000Y-206600000D01*
X139750000Y-212100000D02*
X164250000Y-212100000D01*
X139750000Y-206600000D02*
X139750000Y-212100000D01*
X164250000Y-206600000D02*
X139750000Y-206600000D01*
D10*
X125000000Y-100316970D02*
X125000000Y-100250000D01*
X126000000Y-102650000D02*
X126750000Y-102650000D01*
X153900000Y-157500000D02*
X156000000Y-157500000D01*
X157000000Y-155400000D02*
X157000000Y-157500000D01*
X159100000Y-158500000D02*
X159100000Y-157500000D01*
X157000000Y-157500000D02*
X159100000Y-157500000D01*
X156000000Y-160600000D02*
X157000000Y-160600000D01*
X156500000Y-153500000D02*
X152602885Y-155750000D01*
X153302885Y-159845855D02*
X156500000Y-161691710D01*
X152602885Y-160250000D02*
X156500000Y-162500000D01*
X157000000Y-158500000D02*
X157000000Y-160600000D01*
X153302885Y-156154145D02*
X153302885Y-159845855D01*
X156500000Y-161691710D02*
X159697114Y-159845855D01*
X159697114Y-159845855D02*
X159697114Y-156154145D01*
X153900000Y-178500000D02*
X153900000Y-177500000D01*
X159100000Y-178500000D02*
X159100000Y-177500000D01*
X156000000Y-178500000D02*
X156000000Y-180600000D01*
X99500000Y-173500000D02*
X103397114Y-175750000D01*
X102100000Y-178500000D02*
X102100000Y-177500000D01*
X99500000Y-174308290D02*
X102697114Y-176154145D01*
X103397114Y-180250000D02*
X99500000Y-182500000D01*
X102697114Y-176154145D02*
X102697114Y-179845855D01*
X120000000Y-100250000D02*
X121000000Y-100250000D01*
X120000000Y-100316970D02*
X120000000Y-100250000D01*
X131500000Y-94500000D02*
X131500000Y-86500000D01*
X129500000Y-86500000D02*
X129500000Y-94500000D01*
X150500000Y-172343146D02*
X150500000Y-183656854D01*
X156000000Y-175400000D02*
X156000000Y-177500000D01*
X159697114Y-176154145D02*
X156500000Y-174308290D01*
X131000000Y-102650000D02*
X131750000Y-102650000D01*
X131000000Y-101650000D02*
X131000000Y-100316970D01*
X165800000Y-183250000D02*
X172000000Y-183250000D01*
X172000000Y-183250000D02*
X178000000Y-183250000D01*
X157000000Y-177500000D02*
X159100000Y-177500000D01*
X157000000Y-178500000D02*
X159100000Y-178500000D01*
X157000000Y-178500000D02*
X157000000Y-180600000D01*
X99500000Y-173500000D02*
G75*
G02X103397114Y-175750000I0J-4500000D01*
G01*
X103397114Y-175750000D02*
G75*
G02X103397114Y-180250000I-3897114J-2250000D01*
G01*
X95602885Y-180250001D02*
G75*
G02X95602885Y-175750000I3897115J2250001D01*
G01*
X95602886Y-175750000D02*
G75*
G02X99500000Y-173500000I3897114J-2250000D01*
G01*
X103397114Y-180250000D02*
G75*
G02X99500000Y-182500000I-3897114J2250000D01*
G01*
X114250000Y-102650000D02*
X114250000Y-101650000D01*
X120000000Y-103983030D02*
G75*
G02X120000000Y-100316970I500000J1833030D01*
G01*
X121000000Y-100316970D02*
G75*
G02X121000000Y-103983030I-500000J-1833030D01*
G01*
X119500000Y-94500000D02*
X119500000Y-96500000D01*
X129500000Y-86500000D02*
G75*
G02X131500000Y-86500000I1000000J0D01*
G01*
X129500000Y-94500000D02*
X131500000Y-94500000D01*
X129250000Y-101650000D02*
X130000000Y-101650000D01*
X130000000Y-104050000D02*
X130000000Y-103983030D01*
X120000000Y-101650000D02*
X120000000Y-100316970D01*
X121000000Y-102650000D02*
X121750000Y-102650000D01*
X159697114Y-156154145D02*
X156500000Y-154308290D01*
X156500000Y-154308290D02*
X153302885Y-156154145D01*
X152602885Y-160250001D02*
G75*
G02X152602885Y-155750000I3897115J2250001D01*
G01*
X156500000Y-162500001D02*
G75*
G02X152602885Y-160250000I0J4500001D01*
G01*
X160397114Y-155750000D02*
G75*
G02X160397114Y-160250000I-3897114J-2250000D01*
G01*
X161500000Y-158000000D02*
G75*
G03X161500000Y-158000000I-5000000J0D01*
G01*
X130000000Y-101650000D02*
X130000000Y-100316970D01*
X130000000Y-103983030D02*
X130000000Y-102650000D01*
X165800000Y-180750000D02*
X160675823Y-180750000D01*
X159133913Y-182250000D02*
X165800000Y-182250000D01*
X160675823Y-175250000D02*
X162500000Y-175250000D01*
X115000000Y-103983030D02*
X115000000Y-102650000D01*
X125000000Y-103983030D02*
G75*
G02X125000000Y-100316970I500000J1833030D01*
G01*
X126000000Y-100316970D02*
G75*
G02X126000000Y-103983030I-500000J-1833030D01*
G01*
X125000000Y-103983030D02*
X125000000Y-102650000D01*
X125000000Y-104050000D02*
X125000000Y-103983030D01*
X114500000Y-94500000D02*
X114500000Y-96500000D01*
X116500000Y-94500000D02*
X116500000Y-86500000D01*
X156500000Y-182500000D02*
X160397114Y-180250000D01*
X153302885Y-176154145D02*
X153302885Y-179845855D01*
X156500000Y-181691710D02*
X159697114Y-179845855D01*
X119250000Y-101650000D02*
X120000000Y-101650000D01*
X121000000Y-103983030D02*
X121000000Y-102650000D01*
X100000000Y-178500000D02*
X100000000Y-180600000D01*
X99000000Y-178500000D02*
X99000000Y-180600000D01*
X96900000Y-178500000D02*
X96900000Y-177500000D01*
X99000000Y-177500000D02*
X96900000Y-177500000D01*
X124500000Y-94500000D02*
X124500000Y-96500000D01*
X126500000Y-96500000D02*
X126500000Y-94500000D01*
X115000000Y-103983030D02*
G75*
G02X115000000Y-100316970I500000J1833030D01*
G01*
X116000000Y-100316970D02*
G75*
G02X116000000Y-103983030I-500000J-1833030D01*
G01*
X160397114Y-175750000D02*
X156500000Y-173500000D01*
X152602885Y-175750000D02*
X152602885Y-180250000D01*
X162500000Y-172000000D02*
X150791796Y-172000000D01*
X125000000Y-100250000D02*
X126000000Y-100250000D01*
X124250000Y-101650000D02*
X125000000Y-101650000D01*
X121750000Y-102650000D02*
X121750000Y-101650000D01*
X119250000Y-102650000D02*
X120000000Y-102650000D01*
X120000000Y-104050000D02*
X121000000Y-104050000D01*
X120000000Y-104050000D02*
X120000000Y-103983030D01*
X156000000Y-180600000D02*
X157000000Y-180600000D01*
X157000000Y-175400000D02*
X157000000Y-177500000D01*
X156000000Y-175400000D02*
X157000000Y-175400000D01*
X165800000Y-160750000D02*
X160675823Y-160750000D01*
X159133913Y-162250000D02*
X165800000Y-162250000D01*
X160675823Y-155250000D02*
X162500000Y-155250000D01*
X162500000Y-153750000D02*
X159133913Y-153750000D01*
X114500000Y-86500000D02*
X114500000Y-94500000D01*
X115000000Y-100316970D02*
X115000000Y-100250000D01*
X125000000Y-101650000D02*
X125000000Y-100316970D01*
X126000000Y-104050000D02*
X126000000Y-103983030D01*
X116000000Y-101650000D02*
X116750000Y-101650000D01*
X114500000Y-86500000D02*
G75*
G02X116500000Y-86500000I1000000J0D01*
G01*
X115000000Y-104050000D02*
X115000000Y-103983030D01*
X116000000Y-102650000D02*
X116750000Y-102650000D01*
X162500000Y-142250000D02*
X162500000Y-144000000D01*
X157000000Y-138500000D02*
X159100000Y-138500000D01*
X156000000Y-135400000D02*
X157000000Y-135400000D01*
X153900000Y-138500000D02*
X153900000Y-137500000D01*
X156000000Y-135400000D02*
X156000000Y-137500000D01*
X153900000Y-137500000D02*
X156000000Y-137500000D01*
X156000000Y-140600000D02*
X157000000Y-140600000D01*
X156000000Y-138500000D02*
X156000000Y-140600000D01*
X116000000Y-103983030D02*
X116000000Y-102650000D01*
X115000000Y-100250000D02*
X116000000Y-100250000D01*
X116000000Y-100316970D02*
X116000000Y-100250000D01*
X131750000Y-102650000D02*
X131750000Y-101650000D01*
X131000000Y-103983030D02*
X131000000Y-102650000D01*
X124250000Y-102650000D02*
X124250000Y-101650000D01*
X124250000Y-102650000D02*
X125000000Y-102650000D01*
X100000000Y-175400000D02*
X99000000Y-175400000D01*
X102100000Y-178500000D02*
X100000000Y-178500000D01*
X100000000Y-175400000D02*
X100000000Y-177500000D01*
X99500000Y-182500000D02*
X95602885Y-180250000D01*
X96302885Y-179845855D02*
X96302885Y-176154145D01*
X121500000Y-94500000D02*
X121500000Y-86500000D01*
X119500000Y-86500000D02*
X119500000Y-94500000D01*
X93500000Y-182250000D02*
X93500000Y-184000000D01*
X105500000Y-172343146D02*
X105500000Y-183656854D01*
X93500000Y-172000000D02*
X105208203Y-172000000D01*
X102100000Y-177500000D02*
X100000000Y-177500000D01*
X102697114Y-179845855D02*
X99500000Y-181691710D01*
X99500000Y-181691710D02*
X96302885Y-179845855D01*
X95602885Y-175750000D02*
X99500000Y-173500000D01*
X95602885Y-180250000D02*
X95602885Y-175750000D01*
X104500000Y-178000000D02*
G75*
G03X104500000Y-178000000I-5000000J0D01*
G01*
X116500000Y-96500000D02*
X116500000Y-94500000D01*
X121000000Y-100316970D02*
X121000000Y-100250000D01*
X121000000Y-104050000D02*
X121000000Y-103983030D01*
X116000000Y-104050000D02*
X116000000Y-103983030D01*
X130000000Y-104050000D02*
X131000000Y-104050000D01*
X131000000Y-101650000D02*
X131750000Y-101650000D01*
X125000000Y-104050000D02*
X126000000Y-104050000D01*
X126750000Y-102650000D02*
X126750000Y-101650000D01*
X116000000Y-101650000D02*
X116000000Y-100316970D01*
X115000000Y-101650000D02*
X115000000Y-100316970D01*
X119250000Y-102650000D02*
X119250000Y-101650000D01*
X121000000Y-101650000D02*
X121750000Y-101650000D01*
X126000000Y-100316970D02*
X126000000Y-100250000D01*
X126000000Y-101650000D02*
X126750000Y-101650000D01*
X121000000Y-101650000D02*
X121000000Y-100316970D01*
X120000000Y-103983030D02*
X120000000Y-102650000D01*
X172000000Y-159750000D02*
X172000000Y-163250000D01*
X165800000Y-159750000D02*
X165800000Y-163250000D01*
X139500000Y-94500000D02*
X139500000Y-96500000D01*
X141500000Y-96500000D02*
X141500000Y-94500000D01*
X114250000Y-101650000D02*
X115000000Y-101650000D01*
X159697114Y-179845855D02*
X159697114Y-176154145D01*
X156500000Y-173500000D02*
X152602885Y-175750000D01*
X160397114Y-180250000D02*
X160397114Y-175750000D01*
X126500000Y-94500000D02*
X126500000Y-86500000D01*
X124500000Y-86500000D02*
X124500000Y-94500000D01*
X119500000Y-86500000D02*
G75*
G02X121500000Y-86500000I1000000J0D01*
G01*
X119500000Y-94500000D02*
X121500000Y-94500000D01*
X129500000Y-94500000D02*
X129500000Y-96500000D01*
X131500000Y-96500000D02*
X131500000Y-94500000D01*
X131000000Y-100316970D02*
X131000000Y-100250000D01*
X131000000Y-104050000D02*
X131000000Y-103983030D01*
X156500000Y-173500000D02*
G75*
G02X160397114Y-175750000I0J-4500000D01*
G01*
X156500000Y-182500001D02*
G75*
G02X152602885Y-180250000I0J4500001D01*
G01*
X152602885Y-180250001D02*
G75*
G02X152602885Y-175750000I3897115J2250001D01*
G01*
X160397114Y-175750000D02*
G75*
G02X160397114Y-180250000I-3897114J-2250000D01*
G01*
X129250000Y-102650000D02*
X130000000Y-102650000D01*
X130000000Y-100316970D02*
X130000000Y-100250000D01*
X145900000Y-201500000D02*
X145900000Y-196500000D01*
X106600000Y-103000000D02*
G75*
G02X101400000Y-103000000I-2600000J0D01*
G01*
X95500000Y-189165091D02*
X90500000Y-189165091D01*
X160500000Y-189165091D02*
X165500000Y-189165091D01*
X152602886Y-155750000D02*
G75*
G02X156500000Y-153500000I3897114J-2250000D01*
G01*
X145900000Y-96500000D02*
X145900000Y-101500000D01*
X144500000Y-101500000D02*
X144500000Y-96500000D01*
X95500000Y-108834910D02*
X90500000Y-108834910D01*
X145900000Y-194999999D02*
G75*
G02X152000000Y-189165091I5840669J-1D01*
G01*
X98500000Y-169000000D02*
G75*
G02X98500000Y-187000000I0J-9000000D01*
G01*
X98500000Y-129000000D02*
G75*
G02X98500000Y-147000000I0J-9000000D01*
G01*
X110100000Y-201500000D02*
X110100000Y-196500000D01*
X98500000Y-149000000D02*
G75*
G02X98500000Y-167000000I0J-9000000D01*
G01*
X178000000Y-139750000D02*
G75*
G02X178000000Y-143250000I0J-1750000D01*
G01*
X110100000Y-103000000D02*
G75*
G02X104000000Y-108834910I-5840670J0D01*
G01*
X95500000Y-129000000D02*
X90500000Y-129000000D01*
X151999999Y-108834909D02*
G75*
G02X145900000Y-103000000I-259330J5834909D01*
G01*
X157500000Y-147000000D02*
G75*
G02X157500000Y-129000000I0J9000000D01*
G01*
X160500000Y-129000000D02*
X165500000Y-129000000D01*
X157500000Y-167000000D02*
G75*
G02X157500000Y-149000000I0J9000000D01*
G01*
X160500000Y-108834910D02*
X165500000Y-108834910D01*
X154600000Y-103000000D02*
G75*
G02X149400000Y-103000000I-2600000J0D01*
G01*
X160500000Y-149000000D02*
X165500000Y-149000000D01*
X160500000Y-187000000D02*
X165500000Y-187000000D01*
X104000000Y-189165090D02*
G75*
G02X110100000Y-195000000I259330J-5834910D01*
G01*
X160500000Y-147000000D02*
X165500000Y-147000000D01*
X110100000Y-96500000D02*
X110100000Y-101500000D01*
X157500000Y-187000000D02*
G75*
G02X157500000Y-169000000I0J9000000D01*
G01*
X160500000Y-167000000D02*
X165500000Y-167000000D01*
X95500000Y-149000000D02*
X90500000Y-149000000D01*
X160500000Y-169000000D02*
X165500000Y-169000000D01*
X96866086Y-153750000D02*
X93500000Y-153750000D01*
X93500000Y-155250000D02*
X95324176Y-155250000D01*
X90200000Y-162250000D02*
X96866086Y-162250000D01*
X95324176Y-160750000D02*
X90200000Y-160750000D01*
X93500000Y-155250000D02*
X93500000Y-153750000D01*
X160675823Y-135250000D02*
X162500000Y-135250000D01*
X162500000Y-133750000D02*
X159133913Y-133750000D01*
X165800000Y-140750000D02*
X160675823Y-140750000D01*
X159133913Y-142250000D02*
X165800000Y-142250000D01*
X162500000Y-135250000D02*
X162500000Y-133750000D01*
X96866086Y-133750000D02*
X93500000Y-133750000D01*
X93500000Y-135250000D02*
X95324176Y-135250000D01*
X90200000Y-142250000D02*
X96866086Y-142250000D01*
X95324176Y-140750000D02*
X90200000Y-140750000D01*
X93500000Y-135250000D02*
X93500000Y-133750000D01*
X172000000Y-139750000D02*
X165800000Y-139750000D01*
X165800000Y-143250000D02*
X172000000Y-143250000D01*
X165800000Y-139750000D02*
X165800000Y-143250000D01*
X172000000Y-143250000D02*
X178000000Y-143250000D01*
X161500000Y-138000000D02*
G75*
G03X161500000Y-138000000I-5000000J0D01*
G01*
X178000000Y-139750000D02*
X172000000Y-139750000D01*
X152602886Y-135750000D02*
G75*
G02X156500000Y-133500000I3897114J-2250000D01*
G01*
X172000000Y-139750000D02*
X172000000Y-143250000D01*
X84000000Y-143250000D02*
X90200000Y-143250000D01*
X90200000Y-139750000D02*
X84000000Y-139750000D01*
X78000000Y-143250000D02*
X84000000Y-143250000D01*
X84000000Y-139750000D02*
X78000000Y-139750000D01*
X78000000Y-143250000D02*
G75*
G02X78000000Y-139750000I0J1750000D01*
G01*
X84000000Y-139750000D02*
X84000000Y-143250000D01*
X90200000Y-139750000D02*
X90200000Y-143250000D01*
X84000000Y-163250000D02*
X90200000Y-163250000D01*
X90200000Y-159750000D02*
X84000000Y-159750000D01*
X90200000Y-159750000D02*
X90200000Y-163250000D01*
X78000000Y-163250000D02*
X84000000Y-163250000D01*
X84000000Y-159750000D02*
X78000000Y-159750000D01*
X78000000Y-163250000D02*
G75*
G02X78000000Y-159750000I0J1750000D01*
G01*
X84000000Y-159750000D02*
X84000000Y-163250000D01*
X93500000Y-132000000D02*
X105208203Y-132000000D01*
X93500000Y-132000000D02*
X93500000Y-133750000D01*
X93500000Y-135250000D02*
X93500000Y-140750000D01*
X93500000Y-142250000D02*
X93500000Y-144000000D01*
X102100000Y-138500000D02*
X102100000Y-137500000D01*
X96900000Y-138500000D02*
X96900000Y-137500000D01*
X100000000Y-135400000D02*
X99000000Y-135400000D01*
X100000000Y-135400000D02*
X100000000Y-137500000D01*
X90500000Y-149000000D02*
X90500000Y-160750000D01*
X100000000Y-138500000D02*
X100000000Y-140600000D01*
X93500000Y-144000000D02*
X105208203Y-144000000D01*
X99000000Y-138500000D02*
X99000000Y-140600000D01*
X165500000Y-149000000D02*
X165500000Y-160750000D01*
X99000000Y-138500000D02*
X96900000Y-138500000D01*
X99000000Y-135400000D02*
X99000000Y-137500000D01*
X99000000Y-137500000D02*
X96900000Y-137500000D01*
X144500000Y-96500000D02*
X143400000Y-96500000D01*
X100000000Y-140600000D02*
X99000000Y-140600000D01*
X102100000Y-137500000D02*
X100000000Y-137500000D01*
X95602885Y-140250000D02*
X95602885Y-135750000D01*
X110100000Y-201500000D02*
X145900000Y-201500000D01*
X96302885Y-139845855D02*
X96302885Y-136154145D01*
X99500000Y-133500000D02*
X103397114Y-135750000D01*
X99500000Y-141691710D02*
X96302885Y-139845855D01*
X102697114Y-139845855D02*
X99500000Y-141691710D01*
X96302885Y-136154145D02*
X99500000Y-134308290D01*
X105500000Y-132343146D02*
X105500000Y-143656854D01*
X99500000Y-142500000D02*
X95602885Y-140250000D01*
X102100000Y-138500000D02*
X100000000Y-138500000D01*
X95602885Y-135750000D02*
X99500000Y-133500000D01*
X103397114Y-140250000D02*
X99500000Y-142500000D01*
X102697114Y-136154145D02*
X102697114Y-139845855D01*
X103397114Y-135750000D02*
X103397114Y-140250000D01*
X99500000Y-134308290D02*
X102697114Y-136154145D01*
X104500000Y-138000000D02*
G75*
G03X104500000Y-138000000I-5000000J0D01*
G01*
X95602886Y-135750000D02*
G75*
G02X99500000Y-133500000I3897114J-2250000D01*
G01*
X99500000Y-142500001D02*
G75*
G02X95602885Y-140250000I0J4500001D01*
G01*
X99500000Y-133500000D02*
G75*
G02X103397114Y-135750000I0J-4500000D01*
G01*
X103397114Y-135750000D02*
G75*
G02X103397114Y-140250000I-3897114J-2250000D01*
G01*
X95602885Y-140250001D02*
G75*
G02X95602885Y-135750000I3897115J2250001D01*
G01*
X103397114Y-140250000D02*
G75*
G02X99500000Y-142500000I-3897114J2250000D01*
G01*
X96866086Y-173750000D02*
X93500000Y-173750000D01*
X93500000Y-175250000D02*
X95324176Y-175250000D01*
X90200000Y-182250000D02*
X96866086Y-182250000D01*
X95324176Y-180750000D02*
X90200000Y-180750000D01*
X93500000Y-175250000D02*
X93500000Y-173750000D01*
X93500000Y-152000000D02*
X105208203Y-152000000D01*
X93500000Y-164000000D02*
X105208203Y-164000000D01*
X93500000Y-152000000D02*
X93500000Y-153750000D01*
X162500000Y-173750000D02*
X159133913Y-173750000D01*
X162500000Y-175250000D02*
X162500000Y-173750000D01*
X162500000Y-184000000D02*
X150791796Y-184000000D01*
X153900000Y-158500000D02*
X156000000Y-158500000D01*
X152602885Y-155750000D02*
X152602885Y-160250000D01*
X156000000Y-158500000D02*
X156000000Y-160600000D01*
X156500000Y-162500000D02*
X160397114Y-160250000D01*
X160397114Y-160250000D02*
X160397114Y-155750000D01*
X160397114Y-155750000D02*
X156500000Y-153500000D01*
X150500000Y-152343146D02*
X150500000Y-163656854D01*
X157000000Y-158500000D02*
X159100000Y-158500000D01*
X153900000Y-158500000D02*
X153900000Y-157500000D01*
X162500000Y-164000000D02*
X150791796Y-164000000D01*
X156000000Y-155400000D02*
X156000000Y-157500000D01*
X156000000Y-155400000D02*
X157000000Y-155400000D01*
X129250000Y-102650000D02*
X129250000Y-101650000D01*
X130000000Y-100250000D02*
X131000000Y-100250000D01*
X116750000Y-102650000D02*
X116750000Y-101650000D01*
X121500000Y-96500000D02*
X121500000Y-94500000D01*
X124500000Y-86500000D02*
G75*
G02X126500000Y-86500000I1000000J0D01*
G01*
X124500000Y-94500000D02*
X126500000Y-94500000D01*
X172000000Y-179750000D02*
X165800000Y-179750000D01*
X172000000Y-159750000D02*
X165800000Y-159750000D01*
X165800000Y-163250000D02*
X172000000Y-163250000D01*
X172000000Y-163250000D02*
X178000000Y-163250000D01*
X178000000Y-159750000D02*
X172000000Y-159750000D01*
X178000000Y-179750000D02*
X172000000Y-179750000D01*
X165800000Y-179750000D02*
X165800000Y-183250000D01*
X172000000Y-179750000D02*
X172000000Y-183250000D01*
X153302885Y-179845855D02*
X156500000Y-181691710D01*
X153900000Y-178500000D02*
X156000000Y-178500000D01*
X160397114Y-180250000D02*
G75*
G02X156500000Y-182500000I-3897114J2250000D01*
G01*
X152602886Y-175750000D02*
G75*
G02X156500000Y-173500000I3897114J-2250000D01*
G01*
X152602885Y-180250000D02*
X156500000Y-182500000D01*
X153900000Y-177500000D02*
X156000000Y-177500000D01*
X162500000Y-172000000D02*
X162500000Y-173750000D01*
X100000000Y-180600000D02*
X99000000Y-180600000D01*
X96302885Y-176154145D02*
X99500000Y-174308290D01*
X99000000Y-178500000D02*
X96900000Y-178500000D01*
X99000000Y-175400000D02*
X99000000Y-177500000D01*
X103397114Y-175750000D02*
X103397114Y-180250000D01*
X162500000Y-175250000D02*
X162500000Y-180750000D01*
X162500000Y-182250000D02*
X162500000Y-184000000D01*
X156500000Y-174308290D02*
X153302885Y-176154145D01*
X114500000Y-94500000D02*
X116500000Y-94500000D01*
X157000000Y-135400000D02*
X157000000Y-137500000D01*
X153302885Y-139845855D02*
X156500000Y-141691710D01*
X153302885Y-136154145D02*
X153302885Y-139845855D01*
X156500000Y-142500000D02*
X160397114Y-140250000D01*
X160397114Y-140250000D02*
X160397114Y-135750000D01*
X152602885Y-135750000D02*
X152602885Y-140250000D01*
X160397114Y-135750000D02*
X156500000Y-133500000D01*
X160397114Y-135750000D02*
G75*
G02X160397114Y-140250000I-3897114J-2250000D01*
G01*
X156500000Y-133500000D02*
G75*
G02X160397114Y-135750000I0J-4500000D01*
G01*
X156500000Y-142500001D02*
G75*
G02X152602885Y-140250000I0J4500001D01*
G01*
X160397114Y-140250000D02*
G75*
G02X156500000Y-142500000I-3897114J2250000D01*
G01*
X152602885Y-140250001D02*
G75*
G02X152602885Y-135750000I3897115J2250001D01*
G01*
X135750000Y-113000000D02*
G75*
G03X135750000Y-113000000I-1750000J0D01*
G01*
X129750000Y-113000000D02*
G75*
G03X129750000Y-113000000I-1750000J0D01*
G01*
X123750000Y-113000000D02*
G75*
G03X123750000Y-113000000I-1750000J0D01*
G01*
X106600000Y-201500000D02*
X110100000Y-201500000D01*
X101400000Y-195000000D02*
X101400000Y-201500000D01*
X90500000Y-195000000D02*
X97000000Y-201500000D01*
X106600000Y-195000000D02*
X106600000Y-201500000D01*
X165500000Y-189165091D02*
X165500000Y-195000000D01*
X165500000Y-195000000D02*
X159000000Y-201500000D01*
X149400000Y-195000000D02*
X149400000Y-201500000D01*
X159000000Y-201500000D02*
X154600000Y-201500000D01*
X154600000Y-103000000D02*
X154600000Y-96500000D01*
X114250000Y-102650000D02*
X115000000Y-102650000D01*
X99500000Y-182500001D02*
G75*
G02X95602885Y-180250000I0J4500001D01*
G01*
X162500000Y-152000000D02*
X162500000Y-153750000D01*
X162500000Y-155250000D02*
X162500000Y-160750000D01*
X162500000Y-162250000D02*
X162500000Y-164000000D01*
X162500000Y-152000000D02*
X150791796Y-152000000D01*
X130000000Y-103983030D02*
G75*
G02X130000000Y-100316970I500000J1833030D01*
G01*
X131000000Y-100316970D02*
G75*
G02X131000000Y-103983030I-500000J-1833030D01*
G01*
X115000000Y-104050000D02*
X116000000Y-104050000D01*
X126000000Y-101650000D02*
X126000000Y-100316970D01*
X126000000Y-103983030D02*
X126000000Y-102650000D01*
X162500000Y-155250000D02*
X162500000Y-153750000D01*
X93500000Y-184000000D02*
X105208203Y-184000000D01*
X93500000Y-172000000D02*
X93500000Y-173750000D01*
X93500000Y-175250000D02*
X93500000Y-180750000D01*
X141500000Y-94500000D02*
X141500000Y-86500000D01*
X139500000Y-86500000D02*
X139500000Y-94500000D01*
X139500000Y-86500000D02*
G75*
G02X141500000Y-86500000I1000000J0D01*
G01*
X139500000Y-94500000D02*
X141500000Y-94500000D01*
X152602885Y-140250000D02*
X156500000Y-142500000D01*
X153900000Y-138500000D02*
X156000000Y-138500000D01*
X156500000Y-133500000D02*
X152602885Y-135750000D01*
X157000000Y-137500000D02*
X159100000Y-137500000D01*
X159697114Y-136154145D02*
X156500000Y-134308290D01*
X159100000Y-138500000D02*
X159100000Y-137500000D01*
X156500000Y-141691710D02*
X159697114Y-139845855D01*
X156500000Y-134308290D02*
X153302885Y-136154145D01*
X157000000Y-138500000D02*
X157000000Y-140600000D01*
X159697114Y-139845855D02*
X159697114Y-136154145D01*
X90500000Y-108834910D02*
X90500000Y-129000000D01*
X160500000Y-189165091D02*
X152000000Y-189165091D01*
X145900000Y-196500000D02*
X110100000Y-196500000D01*
X165500000Y-108834910D02*
X165500000Y-103000000D01*
X157500000Y-149000000D02*
X160500000Y-149000000D01*
X98500000Y-129000000D02*
X95500000Y-129000000D01*
X154600000Y-195000000D02*
X154600000Y-201500000D01*
X95500000Y-189165091D02*
X104000000Y-189165091D01*
X160500000Y-108834910D02*
X152000000Y-108834910D01*
X98500000Y-169000000D02*
X95500000Y-169000000D01*
X110100000Y-101500000D02*
X111500000Y-101500000D01*
X95500000Y-149000000D02*
X95500000Y-147000000D01*
X95500000Y-169000000D02*
X95500000Y-167000000D01*
X95500000Y-108834910D02*
X104000000Y-108834910D01*
X98500000Y-167000000D02*
X95500000Y-167000000D01*
X110100000Y-196500000D02*
X110100000Y-195000000D01*
X157500000Y-129000000D02*
X160500000Y-129000000D01*
X98500000Y-147000000D02*
X95500000Y-147000000D01*
X111500000Y-96500000D02*
X110100000Y-96500000D01*
X90500000Y-187000000D02*
X90500000Y-189165091D01*
X95500000Y-129000000D02*
X95500000Y-108834910D01*
X165500000Y-169000000D02*
X165500000Y-180750000D01*
X165500000Y-182250000D02*
X165500000Y-187000000D01*
X110100000Y-101500000D02*
X110100000Y-103000000D01*
X160500000Y-169000000D02*
X160500000Y-167000000D01*
X157500000Y-167000000D02*
X160500000Y-167000000D01*
X95500000Y-189165091D02*
X95500000Y-187000000D01*
X111500000Y-110000000D02*
X111500000Y-101500000D01*
X98500000Y-187000000D02*
X95500000Y-187000000D01*
X157500000Y-169000000D02*
X160500000Y-169000000D01*
X144500000Y-110000000D02*
X144500000Y-101500000D01*
X145900000Y-101500000D02*
X144500000Y-101500000D01*
X145900000Y-101500000D02*
X145900000Y-103000000D01*
X90500000Y-167000000D02*
X90500000Y-169000000D01*
X111500000Y-110000000D02*
X144500000Y-110000000D01*
X160500000Y-129000000D02*
X160500000Y-108834910D01*
X90500000Y-108834910D02*
X90500000Y-103000000D01*
X90500000Y-129000000D02*
X90500000Y-140750000D01*
X90500000Y-142250000D02*
X90500000Y-147000000D01*
X157500000Y-147000000D02*
X160500000Y-147000000D01*
X160500000Y-149000000D02*
X160500000Y-147000000D01*
X165500000Y-147000000D02*
X165500000Y-149000000D01*
X101400000Y-195000000D02*
G75*
G02X106600000Y-195000000I2600000J0D01*
G01*
X149400000Y-195000000D02*
G75*
G02X154600000Y-195000000I2600000J0D01*
G01*
X111500000Y-101500000D02*
X111500000Y-96500000D01*
X95500000Y-147000000D02*
X90500000Y-147000000D01*
X95500000Y-187000000D02*
X90500000Y-187000000D01*
X95500000Y-167000000D02*
X90500000Y-167000000D01*
X95500000Y-169000000D02*
X90500000Y-169000000D01*
X149400000Y-201500000D02*
X145900000Y-201500000D01*
X149400000Y-103000000D02*
X149400000Y-96500000D01*
X159000000Y-96500000D02*
X154600000Y-96500000D01*
X106600000Y-103000000D02*
X106600000Y-96500000D01*
X101400000Y-103000000D02*
X101400000Y-96500000D01*
X90500000Y-103000000D02*
X97000000Y-96500000D01*
X90500000Y-169000000D02*
X90500000Y-180750000D01*
X90500000Y-182250000D02*
X90500000Y-187000000D01*
X97000000Y-201500000D02*
X101400000Y-201500000D01*
X97000000Y-96500000D02*
X101400000Y-96500000D01*
X165500000Y-162250000D02*
X165500000Y-167000000D01*
X90500000Y-189165091D02*
X90500000Y-195000000D01*
X90500000Y-162250000D02*
X90500000Y-167000000D01*
X112600000Y-96500000D02*
X111500000Y-96500000D01*
X90500000Y-147000000D02*
X90500000Y-149000000D01*
X165500000Y-103000000D02*
X159000000Y-96500000D01*
X144500000Y-96500000D02*
X145900000Y-96500000D01*
X165500000Y-187000000D02*
X165500000Y-189165091D01*
X165500000Y-167000000D02*
X165500000Y-169000000D01*
X149400000Y-96500000D02*
X145900000Y-96500000D01*
X106600000Y-96500000D02*
X110100000Y-96500000D01*
X165500000Y-129000000D02*
X165500000Y-140750000D01*
X165500000Y-142250000D02*
X165500000Y-147000000D01*
X160500000Y-189165091D02*
X160500000Y-187000000D01*
X98500000Y-149000000D02*
X95500000Y-149000000D01*
X145900000Y-196500000D02*
X145900000Y-195000000D01*
X157500000Y-187000000D02*
X160500000Y-187000000D01*
X93500000Y-155250000D02*
X93500000Y-160750000D01*
X93500000Y-162250000D02*
X93500000Y-164000000D01*
X96900000Y-158500000D02*
X96900000Y-157500000D01*
X99000000Y-158500000D02*
X99000000Y-160600000D01*
X100000000Y-155400000D02*
X100000000Y-157500000D01*
X100000000Y-158500000D02*
X100000000Y-160600000D01*
X102100000Y-158500000D02*
X102100000Y-157500000D01*
X102100000Y-158500000D02*
X100000000Y-158500000D01*
X99000000Y-157500000D02*
X96900000Y-157500000D01*
X100000000Y-160600000D02*
X99000000Y-160600000D01*
X99000000Y-155400000D02*
X99000000Y-157500000D01*
X100000000Y-155400000D02*
X99000000Y-155400000D01*
X102100000Y-157500000D02*
X100000000Y-157500000D01*
X99500000Y-161691710D02*
X96302885Y-159845855D01*
X102697114Y-159845855D02*
X99500000Y-161691710D01*
X99500000Y-154308290D02*
X102697114Y-156154145D01*
X96302885Y-159845855D02*
X96302885Y-156154145D01*
X95602885Y-155750000D02*
X99500000Y-153500000D01*
X102697114Y-156154145D02*
X102697114Y-159845855D01*
X99000000Y-158500000D02*
X96900000Y-158500000D01*
X96302885Y-156154145D02*
X99500000Y-154308290D01*
X99500000Y-153500000D02*
X103397114Y-155750000D01*
X95602885Y-160250000D02*
X95602885Y-155750000D01*
X99500000Y-162500000D02*
X95602885Y-160250000D01*
X165500000Y-108834910D02*
X165500000Y-129000000D01*
X103397114Y-160250000D02*
X99500000Y-162500000D01*
X105500000Y-152343146D02*
X105500000Y-163656854D01*
X103397114Y-155750000D02*
X103397114Y-160250000D01*
X104500000Y-158000000D02*
G75*
G03X104500000Y-158000000I-5000000J0D01*
G01*
X103397114Y-160250000D02*
G75*
G02X99500000Y-162500000I-3897114J2250000D01*
G01*
X99500000Y-162500001D02*
G75*
G02X95602885Y-160250000I0J4500001D01*
G01*
X99500000Y-153500000D02*
G75*
G02X103397114Y-155750000I0J-4500000D01*
G01*
X95602886Y-155750000D02*
G75*
G02X99500000Y-153500000I3897114J-2250000D01*
G01*
X103397114Y-155750000D02*
G75*
G02X103397114Y-160250000I-3897114J-2250000D01*
G01*
X95602885Y-160250001D02*
G75*
G02X95602885Y-155750000I3897115J2250001D01*
G01*
X134500000Y-94500000D02*
X134500000Y-96500000D01*
X136500000Y-96500000D02*
X136500000Y-94500000D01*
X136500000Y-94500000D02*
X136500000Y-86500000D01*
X134500000Y-86500000D02*
X134500000Y-94500000D01*
X134500000Y-86500000D02*
G75*
G02X136500000Y-86500000I1000000J0D01*
G01*
X134500000Y-94500000D02*
X136500000Y-94500000D01*
X112600000Y-96500000D02*
X112600000Y-98150000D01*
X143400000Y-98150000D02*
X143400000Y-96500000D01*
X143400000Y-96500000D02*
X112600000Y-96500000D01*
X112600000Y-98150000D02*
X112600000Y-106150000D01*
X143400000Y-98150000D02*
X143400000Y-106150000D01*
X143400000Y-98150000D02*
X112600000Y-98150000D01*
X112600000Y-107800000D02*
X112600000Y-106150000D01*
X143400000Y-106150000D02*
X112600000Y-106150000D01*
X143400000Y-107800000D02*
X112600000Y-107800000D01*
X143400000Y-106150000D02*
X143400000Y-107800000D01*
X122600000Y-102150000D02*
G75*
G03X122600000Y-102150000I-2100000J0D01*
G01*
X132600000Y-102150000D02*
G75*
G03X132600000Y-102150000I-2100000J0D01*
G01*
X142600000Y-102150000D02*
G75*
G03X142600000Y-102150000I-2100000J0D01*
G01*
X127600000Y-102150000D02*
G75*
G03X127600000Y-102150000I-2100000J0D01*
G01*
X137600000Y-102150000D02*
G75*
G03X137600000Y-102150000I-2100000J0D01*
G01*
X117600000Y-102150000D02*
G75*
G03X117600000Y-102150000I-2100000J0D01*
G01*
X141000000Y-103983030D02*
X141000000Y-102650000D01*
X141750000Y-102650000D02*
X141750000Y-101650000D01*
X141000000Y-101650000D02*
X141000000Y-100316970D01*
X141000000Y-102650000D02*
X141750000Y-102650000D01*
X141000000Y-101650000D02*
X141750000Y-101650000D01*
X141000000Y-104050000D02*
X141000000Y-103983030D01*
X140000000Y-100316970D02*
X140000000Y-100250000D01*
X141000000Y-100316970D02*
X141000000Y-100250000D01*
X140000000Y-100250000D02*
X141000000Y-100250000D01*
X140000000Y-104050000D02*
X141000000Y-104050000D01*
X139250000Y-102650000D02*
X139250000Y-101650000D01*
X139250000Y-102650000D02*
X140000000Y-102650000D01*
X140000000Y-101650000D02*
X140000000Y-100316970D01*
X139250000Y-101650000D02*
X140000000Y-101650000D01*
X140000000Y-104050000D02*
X140000000Y-103983030D01*
X140000000Y-103983030D02*
X140000000Y-102650000D01*
X141000000Y-100316970D02*
G75*
G02X141000000Y-103983030I-500000J-1833030D01*
G01*
X140000000Y-103983030D02*
G75*
G02X140000000Y-100316970I500000J1833030D01*
G01*
X84000000Y-183250000D02*
X90200000Y-183250000D01*
X90200000Y-179750000D02*
X84000000Y-179750000D01*
X90200000Y-179750000D02*
X90200000Y-183250000D01*
X78000000Y-183250000D02*
X84000000Y-183250000D01*
X84000000Y-179750000D02*
X78000000Y-179750000D01*
X78000000Y-183250000D02*
G75*
G02X78000000Y-179750000I0J1750000D01*
G01*
X84000000Y-179750000D02*
X84000000Y-183250000D01*
X134250000Y-102650000D02*
X135000000Y-102650000D01*
X135000000Y-103983030D02*
X135000000Y-102650000D01*
X134250000Y-102650000D02*
X134250000Y-101650000D01*
X134250000Y-101650000D02*
X135000000Y-101650000D01*
X136000000Y-101650000D02*
X136000000Y-100316970D01*
X136000000Y-102650000D02*
X136750000Y-102650000D01*
X136750000Y-102650000D02*
X136750000Y-101650000D01*
X136000000Y-103983030D02*
X136000000Y-102650000D01*
X136000000Y-101650000D02*
X136750000Y-101650000D01*
X135000000Y-100250000D02*
X136000000Y-100250000D01*
X135000000Y-104050000D02*
X136000000Y-104050000D01*
X135000000Y-101650000D02*
X135000000Y-100316970D01*
X135000000Y-104050000D02*
X135000000Y-103983030D01*
X135000000Y-100316970D02*
X135000000Y-100250000D01*
X136000000Y-100316970D02*
X136000000Y-100250000D01*
X136000000Y-104050000D02*
X136000000Y-103983030D01*
X135000000Y-103983030D02*
G75*
G02X135000000Y-100316970I500000J1833030D01*
G01*
X136000000Y-100316970D02*
G75*
G02X136000000Y-103983030I-500000J-1833030D01*
G01*
X161500000Y-178000000D02*
G75*
G03X161500000Y-178000000I-5000000J0D01*
G01*
X178000000Y-179750000D02*
G75*
G02X178000000Y-183250000I0J-1750000D01*
G01*
X178000000Y-159750000D02*
G75*
G02X178000000Y-163250000I0J-1750000D01*
G01*
X160397114Y-160250000D02*
G75*
G02X156500000Y-162500000I-3897114J2250000D01*
G01*
X156500000Y-153500000D02*
G75*
G02X160397114Y-155750000I0J-4500000D01*
G01*
X162500000Y-132000000D02*
X150791796Y-132000000D01*
X162500000Y-144000000D02*
X150791796Y-144000000D01*
X150500000Y-132343146D02*
X150500000Y-143656854D01*
X162500000Y-132000000D02*
X162500000Y-133750000D01*
X162500000Y-135250000D02*
X162500000Y-140750000D01*
D15*
X238270000Y-232230000D02*
X238270000Y-234770000D01*
X235730000Y-232230000D02*
X243350000Y-232230000D01*
X243350000Y-232230000D02*
X243350000Y-234770000D01*
X243350000Y-234770000D02*
X235730000Y-234770000D01*
X235730000Y-234770000D02*
X235730000Y-232230000D01*
X251250000Y-228500000D02*
X260750000Y-228500000D01*
X251250000Y-233500000D02*
X260750000Y-233500000D01*
X251250000Y-228500000D02*
X251250000Y-233500000D01*
X260750000Y-228500000D02*
X260750000Y-233500000D01*
X251250000Y-229500000D02*
X251750000Y-229500000D01*
X251750000Y-229500000D02*
X251750000Y-232500000D01*
X251250000Y-232500000D02*
X251750000Y-232500000D01*
X251250000Y-216500000D02*
X260750000Y-216500000D01*
X251250000Y-221500000D02*
X260750000Y-221500000D01*
X251250000Y-216500000D02*
X251250000Y-221500000D01*
X260750000Y-216500000D02*
X260750000Y-221500000D01*
X251250000Y-217500000D02*
X251750000Y-217500000D01*
X251750000Y-217500000D02*
X251750000Y-220500000D01*
X251250000Y-220500000D02*
X251750000Y-220500000D01*
X251250000Y-204500000D02*
X260750000Y-204500000D01*
X251250000Y-209500000D02*
X260750000Y-209500000D01*
X251250000Y-204500000D02*
X251250000Y-209500000D01*
X260750000Y-204500000D02*
X260750000Y-209500000D01*
X251250000Y-205500000D02*
X251750000Y-205500000D01*
X251750000Y-205500000D02*
X251750000Y-208500000D01*
X251250000Y-208500000D02*
X251750000Y-208500000D01*
D16*
X221300000Y-234700000D02*
X221300000Y-228600000D01*
X222400000Y-234700000D02*
X221300000Y-234700000D01*
X226700000Y-228600000D02*
X226700000Y-233600000D01*
X200850000Y-202400000D02*
X205150000Y-202400000D01*
X205150000Y-202400000D02*
X205150000Y-196700000D01*
X200850000Y-202400000D02*
X200850000Y-196700000D01*
X186180000Y-201700000D02*
X186180000Y-196500000D01*
X189820000Y-196500000D02*
X189820000Y-201700000D01*
X196180000Y-201700000D02*
X196180000Y-196500000D01*
X199820000Y-196500000D02*
X199820000Y-201700000D01*
X191180000Y-201700000D02*
X191180000Y-196500000D01*
X194820000Y-196500000D02*
X194820000Y-201700000D01*
X269330000Y-201670000D02*
X266670000Y-201670000D01*
X269330000Y-214430000D02*
X269330000Y-201670000D01*
X266670000Y-214430000D02*
X266670000Y-201670000D01*
X269330000Y-214430000D02*
X266670000Y-214430000D01*
X269330000Y-215700000D02*
X269330000Y-217030000D01*
X269330000Y-217030000D02*
X268000000Y-217030000D01*
D15*
X212761905Y-149452381D02*
X212761905Y-148452381D01*
X213333334Y-149452381D02*
X212904762Y-148880952D01*
X213333334Y-148452381D02*
X212761905Y-149023810D01*
X213666667Y-148452381D02*
X214285715Y-148452381D01*
X213952381Y-148833333D01*
X214095239Y-148833333D01*
X214190477Y-148880952D01*
X214238096Y-148928571D01*
X214285715Y-149023810D01*
X214285715Y-149261905D01*
X214238096Y-149357143D01*
X214190477Y-149404762D01*
X214095239Y-149452381D01*
X213809524Y-149452381D01*
X213714286Y-149404762D01*
X213666667Y-149357143D01*
X208619969Y-190855670D02*
X208619969Y-190923013D01*
X208552625Y-191057700D01*
X208485282Y-191125044D01*
X208350594Y-191192388D01*
X208215907Y-191192388D01*
X208114892Y-191158716D01*
X207946534Y-191057701D01*
X207845518Y-190956685D01*
X207744503Y-190788326D01*
X207710831Y-190687311D01*
X207710831Y-190552624D01*
X207778175Y-190417937D01*
X207845518Y-190350593D01*
X207980205Y-190283250D01*
X208047549Y-190283250D01*
X209360747Y-190249578D02*
X208956686Y-190653640D01*
X209158716Y-190451609D02*
X208451609Y-189744503D01*
X208485281Y-189912861D01*
X208485281Y-190047548D01*
X208451609Y-190148563D01*
X224333334Y-190857143D02*
X224285715Y-190904762D01*
X224142858Y-190952381D01*
X224047620Y-190952381D01*
X223904762Y-190904762D01*
X223809524Y-190809524D01*
X223761905Y-190714286D01*
X223714286Y-190523810D01*
X223714286Y-190380952D01*
X223761905Y-190190476D01*
X223809524Y-190095238D01*
X223904762Y-190000000D01*
X224047620Y-189952381D01*
X224142858Y-189952381D01*
X224285715Y-190000000D01*
X224333334Y-190047619D01*
X224714286Y-190047619D02*
X224761905Y-190000000D01*
X224857143Y-189952381D01*
X225095239Y-189952381D01*
X225190477Y-190000000D01*
X225238096Y-190047619D01*
X225285715Y-190142857D01*
X225285715Y-190238095D01*
X225238096Y-190380952D01*
X224666667Y-190952381D01*
X225285715Y-190952381D01*
X224333334Y-178857143D02*
X224285715Y-178904762D01*
X224142858Y-178952381D01*
X224047620Y-178952381D01*
X223904762Y-178904762D01*
X223809524Y-178809524D01*
X223761905Y-178714286D01*
X223714286Y-178523810D01*
X223714286Y-178380952D01*
X223761905Y-178190476D01*
X223809524Y-178095238D01*
X223904762Y-178000000D01*
X224047620Y-177952381D01*
X224142858Y-177952381D01*
X224285715Y-178000000D01*
X224333334Y-178047619D01*
X224666667Y-177952381D02*
X225285715Y-177952381D01*
X224952381Y-178333333D01*
X225095239Y-178333333D01*
X225190477Y-178380952D01*
X225238096Y-178428571D01*
X225285715Y-178523810D01*
X225285715Y-178761905D01*
X225238096Y-178857143D01*
X225190477Y-178904762D01*
X225095239Y-178952381D01*
X224809524Y-178952381D01*
X224714286Y-178904762D01*
X224666667Y-178857143D01*
X237833334Y-202857143D02*
X237785715Y-202904762D01*
X237642858Y-202952381D01*
X237547620Y-202952381D01*
X237404762Y-202904762D01*
X237309524Y-202809524D01*
X237261905Y-202714286D01*
X237214286Y-202523810D01*
X237214286Y-202380952D01*
X237261905Y-202190476D01*
X237309524Y-202095238D01*
X237404762Y-202000000D01*
X237547620Y-201952381D01*
X237642858Y-201952381D01*
X237785715Y-202000000D01*
X237833334Y-202047619D01*
X238690477Y-202285714D02*
X238690477Y-202952381D01*
X238452381Y-201904762D02*
X238214286Y-202619048D01*
X238833334Y-202619048D01*
X215833334Y-213857143D02*
X215785715Y-213904762D01*
X215642858Y-213952381D01*
X215547620Y-213952381D01*
X215404762Y-213904762D01*
X215309524Y-213809524D01*
X215261905Y-213714286D01*
X215214286Y-213523810D01*
X215214286Y-213380952D01*
X215261905Y-213190476D01*
X215309524Y-213095238D01*
X215404762Y-213000000D01*
X215547620Y-212952381D01*
X215642858Y-212952381D01*
X215785715Y-213000000D01*
X215833334Y-213047619D01*
X216738096Y-212952381D02*
X216261905Y-212952381D01*
X216214286Y-213428571D01*
X216261905Y-213380952D01*
X216357143Y-213333333D01*
X216595239Y-213333333D01*
X216690477Y-213380952D01*
X216738096Y-213428571D01*
X216785715Y-213523810D01*
X216785715Y-213761905D01*
X216738096Y-213857143D01*
X216690477Y-213904762D01*
X216595239Y-213952381D01*
X216357143Y-213952381D01*
X216261905Y-213904762D01*
X216214286Y-213857143D01*
X215833334Y-217857143D02*
X215785715Y-217904762D01*
X215642858Y-217952381D01*
X215547620Y-217952381D01*
X215404762Y-217904762D01*
X215309524Y-217809524D01*
X215261905Y-217714286D01*
X215214286Y-217523810D01*
X215214286Y-217380952D01*
X215261905Y-217190476D01*
X215309524Y-217095238D01*
X215404762Y-217000000D01*
X215547620Y-216952381D01*
X215642858Y-216952381D01*
X215785715Y-217000000D01*
X215833334Y-217047619D01*
X216690477Y-216952381D02*
X216500000Y-216952381D01*
X216404762Y-217000000D01*
X216357143Y-217047619D01*
X216261905Y-217190476D01*
X216214286Y-217380952D01*
X216214286Y-217761905D01*
X216261905Y-217857143D01*
X216309524Y-217904762D01*
X216404762Y-217952381D01*
X216595239Y-217952381D01*
X216690477Y-217904762D01*
X216738096Y-217857143D01*
X216785715Y-217761905D01*
X216785715Y-217523810D01*
X216738096Y-217428571D01*
X216690477Y-217380952D01*
X216595239Y-217333333D01*
X216404762Y-217333333D01*
X216309524Y-217380952D01*
X216261905Y-217428571D01*
X216214286Y-217523810D01*
X237833334Y-205857143D02*
X237785715Y-205904762D01*
X237642858Y-205952381D01*
X237547620Y-205952381D01*
X237404762Y-205904762D01*
X237309524Y-205809524D01*
X237261905Y-205714286D01*
X237214286Y-205523810D01*
X237214286Y-205380952D01*
X237261905Y-205190476D01*
X237309524Y-205095238D01*
X237404762Y-205000000D01*
X237547620Y-204952381D01*
X237642858Y-204952381D01*
X237785715Y-205000000D01*
X237833334Y-205047619D01*
X238166667Y-204952381D02*
X238833334Y-204952381D01*
X238404762Y-205952381D01*
X215833334Y-209857143D02*
X215785715Y-209904762D01*
X215642858Y-209952381D01*
X215547620Y-209952381D01*
X215404762Y-209904762D01*
X215309524Y-209809524D01*
X215261905Y-209714286D01*
X215214286Y-209523810D01*
X215214286Y-209380952D01*
X215261905Y-209190476D01*
X215309524Y-209095238D01*
X215404762Y-209000000D01*
X215547620Y-208952381D01*
X215642858Y-208952381D01*
X215785715Y-209000000D01*
X215833334Y-209047619D01*
X216404762Y-209380952D02*
X216309524Y-209333333D01*
X216261905Y-209285714D01*
X216214286Y-209190476D01*
X216214286Y-209142857D01*
X216261905Y-209047619D01*
X216309524Y-209000000D01*
X216404762Y-208952381D01*
X216595239Y-208952381D01*
X216690477Y-209000000D01*
X216738096Y-209047619D01*
X216785715Y-209142857D01*
X216785715Y-209190476D01*
X216738096Y-209285714D01*
X216690477Y-209333333D01*
X216595239Y-209380952D01*
X216404762Y-209380952D01*
X216309524Y-209428571D01*
X216261905Y-209476190D01*
X216214286Y-209571429D01*
X216214286Y-209761905D01*
X216261905Y-209857143D01*
X216309524Y-209904762D01*
X216404762Y-209952381D01*
X216595239Y-209952381D01*
X216690477Y-209904762D01*
X216738096Y-209857143D01*
X216785715Y-209761905D01*
X216785715Y-209571429D01*
X216738096Y-209476190D01*
X216690477Y-209428571D01*
X216595239Y-209380952D01*
X227833334Y-202857143D02*
X227785715Y-202904762D01*
X227642858Y-202952381D01*
X227547620Y-202952381D01*
X227404762Y-202904762D01*
X227309524Y-202809524D01*
X227261905Y-202714286D01*
X227214286Y-202523810D01*
X227214286Y-202380952D01*
X227261905Y-202190476D01*
X227309524Y-202095238D01*
X227404762Y-202000000D01*
X227547620Y-201952381D01*
X227642858Y-201952381D01*
X227785715Y-202000000D01*
X227833334Y-202047619D01*
X228309524Y-202952381D02*
X228500000Y-202952381D01*
X228595239Y-202904762D01*
X228642858Y-202857143D01*
X228738096Y-202714286D01*
X228785715Y-202523810D01*
X228785715Y-202142857D01*
X228738096Y-202047619D01*
X228690477Y-202000000D01*
X228595239Y-201952381D01*
X228404762Y-201952381D01*
X228309524Y-202000000D01*
X228261905Y-202047619D01*
X228214286Y-202142857D01*
X228214286Y-202380952D01*
X228261905Y-202476190D01*
X228309524Y-202523810D01*
X228404762Y-202571429D01*
X228595239Y-202571429D01*
X228690477Y-202523810D01*
X228738096Y-202476190D01*
X228785715Y-202380952D01*
X220357143Y-214357143D02*
X220309524Y-214404762D01*
X220166667Y-214452381D01*
X220071429Y-214452381D01*
X219928571Y-214404762D01*
X219833333Y-214309524D01*
X219785714Y-214214286D01*
X219738095Y-214023810D01*
X219738095Y-213880952D01*
X219785714Y-213690476D01*
X219833333Y-213595238D01*
X219928571Y-213500000D01*
X220071429Y-213452381D01*
X220166667Y-213452381D01*
X220309524Y-213500000D01*
X220357143Y-213547619D01*
X221309524Y-214452381D02*
X220738095Y-214452381D01*
X221023809Y-214452381D02*
X221023809Y-213452381D01*
X220928571Y-213595238D01*
X220833333Y-213690476D01*
X220738095Y-213738095D01*
X221928571Y-213452381D02*
X222023810Y-213452381D01*
X222119048Y-213500000D01*
X222166667Y-213547619D01*
X222214286Y-213642857D01*
X222261905Y-213833333D01*
X222261905Y-214071429D01*
X222214286Y-214261905D01*
X222166667Y-214357143D01*
X222119048Y-214404762D01*
X222023810Y-214452381D01*
X221928571Y-214452381D01*
X221833333Y-214404762D01*
X221785714Y-214357143D01*
X221738095Y-214261905D01*
X221690476Y-214071429D01*
X221690476Y-213833333D01*
X221738095Y-213642857D01*
X221785714Y-213547619D01*
X221833333Y-213500000D01*
X221928571Y-213452381D01*
X265357143Y-219357143D02*
X265309524Y-219404762D01*
X265166667Y-219452381D01*
X265071429Y-219452381D01*
X264928571Y-219404762D01*
X264833333Y-219309524D01*
X264785714Y-219214286D01*
X264738095Y-219023810D01*
X264738095Y-218880952D01*
X264785714Y-218690476D01*
X264833333Y-218595238D01*
X264928571Y-218500000D01*
X265071429Y-218452381D01*
X265166667Y-218452381D01*
X265309524Y-218500000D01*
X265357143Y-218547619D01*
X266309524Y-219452381D02*
X265738095Y-219452381D01*
X266023809Y-219452381D02*
X266023809Y-218452381D01*
X265928571Y-218595238D01*
X265833333Y-218690476D01*
X265738095Y-218738095D01*
X267261905Y-219452381D02*
X266690476Y-219452381D01*
X266976190Y-219452381D02*
X266976190Y-218452381D01*
X266880952Y-218595238D01*
X266785714Y-218690476D01*
X266690476Y-218738095D01*
X208261905Y-193952381D02*
X208261905Y-192952381D01*
X208500000Y-192952381D01*
X208642858Y-193000000D01*
X208738096Y-193095238D01*
X208785715Y-193190476D01*
X208833334Y-193380952D01*
X208833334Y-193523810D01*
X208785715Y-193714286D01*
X208738096Y-193809524D01*
X208642858Y-193904762D01*
X208500000Y-193952381D01*
X208261905Y-193952381D01*
X209785715Y-193952381D02*
X209214286Y-193952381D01*
X209500000Y-193952381D02*
X209500000Y-192952381D01*
X209404762Y-193095238D01*
X209309524Y-193190476D01*
X209214286Y-193238095D01*
X213111905Y-167452381D02*
X213111905Y-166452381D01*
X213350000Y-166452381D01*
X213492858Y-166500000D01*
X213588096Y-166595238D01*
X213635715Y-166690476D01*
X213683334Y-166880952D01*
X213683334Y-167023810D01*
X213635715Y-167214286D01*
X213588096Y-167309524D01*
X213492858Y-167404762D01*
X213350000Y-167452381D01*
X213111905Y-167452381D01*
X214016667Y-166452381D02*
X214635715Y-166452381D01*
X214302381Y-166833333D01*
X214445239Y-166833333D01*
X214540477Y-166880952D01*
X214588096Y-166928571D01*
X214635715Y-167023810D01*
X214635715Y-167261905D01*
X214588096Y-167357143D01*
X214540477Y-167404762D01*
X214445239Y-167452381D01*
X214159524Y-167452381D01*
X214064286Y-167404762D01*
X214016667Y-167357143D01*
X212761905Y-110952381D02*
X212761905Y-109952381D01*
X213333334Y-110952381D02*
X212904762Y-110380952D01*
X213333334Y-109952381D02*
X212761905Y-110523810D01*
X214285715Y-110952381D02*
X213714286Y-110952381D01*
X214000000Y-110952381D02*
X214000000Y-109952381D01*
X213904762Y-110095238D01*
X213809524Y-110190476D01*
X213714286Y-110238095D01*
X212761905Y-130452381D02*
X212761905Y-129452381D01*
X213333334Y-130452381D02*
X212904762Y-129880952D01*
X213333334Y-129452381D02*
X212761905Y-130023810D01*
X213714286Y-129547619D02*
X213761905Y-129500000D01*
X213857143Y-129452381D01*
X214095239Y-129452381D01*
X214190477Y-129500000D01*
X214238096Y-129547619D01*
X214285715Y-129642857D01*
X214285715Y-129738095D01*
X214238096Y-129880952D01*
X213666667Y-130452381D01*
X214285715Y-130452381D01*
X244833334Y-226952381D02*
X244500000Y-226476190D01*
X244261905Y-226952381D02*
X244261905Y-225952381D01*
X244642858Y-225952381D01*
X244738096Y-226000000D01*
X244785715Y-226047619D01*
X244833334Y-226142857D01*
X244833334Y-226285714D01*
X244785715Y-226380952D01*
X244738096Y-226428571D01*
X244642858Y-226476190D01*
X244261905Y-226476190D01*
X245785715Y-226952381D02*
X245214286Y-226952381D01*
X245500000Y-226952381D02*
X245500000Y-225952381D01*
X245404762Y-226095238D01*
X245309524Y-226190476D01*
X245214286Y-226238095D01*
X244833334Y-224952381D02*
X244500000Y-224476190D01*
X244261905Y-224952381D02*
X244261905Y-223952381D01*
X244642858Y-223952381D01*
X244738096Y-224000000D01*
X244785715Y-224047619D01*
X244833334Y-224142857D01*
X244833334Y-224285714D01*
X244785715Y-224380952D01*
X244738096Y-224428571D01*
X244642858Y-224476190D01*
X244261905Y-224476190D01*
X245214286Y-224047619D02*
X245261905Y-224000000D01*
X245357143Y-223952381D01*
X245595239Y-223952381D01*
X245690477Y-224000000D01*
X245738096Y-224047619D01*
X245785715Y-224142857D01*
X245785715Y-224238095D01*
X245738096Y-224380952D01*
X245166667Y-224952381D01*
X245785715Y-224952381D01*
X221833334Y-225452381D02*
X221500000Y-224976190D01*
X221261905Y-225452381D02*
X221261905Y-224452381D01*
X221642858Y-224452381D01*
X221738096Y-224500000D01*
X221785715Y-224547619D01*
X221833334Y-224642857D01*
X221833334Y-224785714D01*
X221785715Y-224880952D01*
X221738096Y-224928571D01*
X221642858Y-224976190D01*
X221261905Y-224976190D01*
X222166667Y-224452381D02*
X222785715Y-224452381D01*
X222452381Y-224833333D01*
X222595239Y-224833333D01*
X222690477Y-224880952D01*
X222738096Y-224928571D01*
X222785715Y-225023810D01*
X222785715Y-225261905D01*
X222738096Y-225357143D01*
X222690477Y-225404762D01*
X222595239Y-225452381D01*
X222309524Y-225452381D01*
X222214286Y-225404762D01*
X222166667Y-225357143D01*
X223833334Y-225452381D02*
X223500000Y-224976190D01*
X223261905Y-225452381D02*
X223261905Y-224452381D01*
X223642858Y-224452381D01*
X223738096Y-224500000D01*
X223785715Y-224547619D01*
X223833334Y-224642857D01*
X223833334Y-224785714D01*
X223785715Y-224880952D01*
X223738096Y-224928571D01*
X223642858Y-224976190D01*
X223261905Y-224976190D01*
X224690477Y-224785714D02*
X224690477Y-225452381D01*
X224452381Y-224404762D02*
X224214286Y-225119048D01*
X224833334Y-225119048D01*
X225833334Y-225452381D02*
X225500000Y-224976190D01*
X225261905Y-225452381D02*
X225261905Y-224452381D01*
X225642858Y-224452381D01*
X225738096Y-224500000D01*
X225785715Y-224547619D01*
X225833334Y-224642857D01*
X225833334Y-224785714D01*
X225785715Y-224880952D01*
X225738096Y-224928571D01*
X225642858Y-224976190D01*
X225261905Y-224976190D01*
X226738096Y-224452381D02*
X226261905Y-224452381D01*
X226214286Y-224928571D01*
X226261905Y-224880952D01*
X226357143Y-224833333D01*
X226595239Y-224833333D01*
X226690477Y-224880952D01*
X226738096Y-224928571D01*
X226785715Y-225023810D01*
X226785715Y-225261905D01*
X226738096Y-225357143D01*
X226690477Y-225404762D01*
X226595239Y-225452381D01*
X226357143Y-225452381D01*
X226261905Y-225404762D01*
X226214286Y-225357143D01*
X230833334Y-225452381D02*
X230500000Y-224976190D01*
X230261905Y-225452381D02*
X230261905Y-224452381D01*
X230642858Y-224452381D01*
X230738096Y-224500000D01*
X230785715Y-224547619D01*
X230833334Y-224642857D01*
X230833334Y-224785714D01*
X230785715Y-224880952D01*
X230738096Y-224928571D01*
X230642858Y-224976190D01*
X230261905Y-224976190D01*
X231690477Y-224452381D02*
X231500000Y-224452381D01*
X231404762Y-224500000D01*
X231357143Y-224547619D01*
X231261905Y-224690476D01*
X231214286Y-224880952D01*
X231214286Y-225261905D01*
X231261905Y-225357143D01*
X231309524Y-225404762D01*
X231404762Y-225452381D01*
X231595239Y-225452381D01*
X231690477Y-225404762D01*
X231738096Y-225357143D01*
X231785715Y-225261905D01*
X231785715Y-225023810D01*
X231738096Y-224928571D01*
X231690477Y-224880952D01*
X231595239Y-224833333D01*
X231404762Y-224833333D01*
X231309524Y-224880952D01*
X231261905Y-224928571D01*
X231214286Y-225023810D01*
X228333334Y-225452381D02*
X228000000Y-224976190D01*
X227761905Y-225452381D02*
X227761905Y-224452381D01*
X228142858Y-224452381D01*
X228238096Y-224500000D01*
X228285715Y-224547619D01*
X228333334Y-224642857D01*
X228333334Y-224785714D01*
X228285715Y-224880952D01*
X228238096Y-224928571D01*
X228142858Y-224976190D01*
X227761905Y-224976190D01*
X228666667Y-224452381D02*
X229333334Y-224452381D01*
X228904762Y-225452381D01*
X196333334Y-212002381D02*
X196000000Y-211526190D01*
X195761905Y-212002381D02*
X195761905Y-211002381D01*
X196142858Y-211002381D01*
X196238096Y-211050000D01*
X196285715Y-211097619D01*
X196333334Y-211192857D01*
X196333334Y-211335714D01*
X196285715Y-211430952D01*
X196238096Y-211478571D01*
X196142858Y-211526190D01*
X195761905Y-211526190D01*
X196904762Y-211430952D02*
X196809524Y-211383333D01*
X196761905Y-211335714D01*
X196714286Y-211240476D01*
X196714286Y-211192857D01*
X196761905Y-211097619D01*
X196809524Y-211050000D01*
X196904762Y-211002381D01*
X197095239Y-211002381D01*
X197190477Y-211050000D01*
X197238096Y-211097619D01*
X197285715Y-211192857D01*
X197285715Y-211240476D01*
X197238096Y-211335714D01*
X197190477Y-211383333D01*
X197095239Y-211430952D01*
X196904762Y-211430952D01*
X196809524Y-211478571D01*
X196761905Y-211526190D01*
X196714286Y-211621429D01*
X196714286Y-211811905D01*
X196761905Y-211907143D01*
X196809524Y-211954762D01*
X196904762Y-212002381D01*
X197095239Y-212002381D01*
X197190477Y-211954762D01*
X197238096Y-211907143D01*
X197285715Y-211811905D01*
X197285715Y-211621429D01*
X197238096Y-211526190D01*
X197190477Y-211478571D01*
X197095239Y-211430952D01*
X196333334Y-215952381D02*
X196000000Y-215476190D01*
X195761905Y-215952381D02*
X195761905Y-214952381D01*
X196142858Y-214952381D01*
X196238096Y-215000000D01*
X196285715Y-215047619D01*
X196333334Y-215142857D01*
X196333334Y-215285714D01*
X196285715Y-215380952D01*
X196238096Y-215428571D01*
X196142858Y-215476190D01*
X195761905Y-215476190D01*
X196809524Y-215952381D02*
X197000000Y-215952381D01*
X197095239Y-215904762D01*
X197142858Y-215857143D01*
X197238096Y-215714286D01*
X197285715Y-215523810D01*
X197285715Y-215142857D01*
X197238096Y-215047619D01*
X197190477Y-215000000D01*
X197095239Y-214952381D01*
X196904762Y-214952381D01*
X196809524Y-215000000D01*
X196761905Y-215047619D01*
X196714286Y-215142857D01*
X196714286Y-215380952D01*
X196761905Y-215476190D01*
X196809524Y-215523810D01*
X196904762Y-215571429D01*
X197095239Y-215571429D01*
X197190477Y-215523810D01*
X197238096Y-215476190D01*
X197285715Y-215380952D01*
X233357143Y-225452381D02*
X233023809Y-224976190D01*
X232785714Y-225452381D02*
X232785714Y-224452381D01*
X233166667Y-224452381D01*
X233261905Y-224500000D01*
X233309524Y-224547619D01*
X233357143Y-224642857D01*
X233357143Y-224785714D01*
X233309524Y-224880952D01*
X233261905Y-224928571D01*
X233166667Y-224976190D01*
X232785714Y-224976190D01*
X234309524Y-225452381D02*
X233738095Y-225452381D01*
X234023809Y-225452381D02*
X234023809Y-224452381D01*
X233928571Y-224595238D01*
X233833333Y-224690476D01*
X233738095Y-224738095D01*
X234928571Y-224452381D02*
X235023810Y-224452381D01*
X235119048Y-224500000D01*
X235166667Y-224547619D01*
X235214286Y-224642857D01*
X235261905Y-224833333D01*
X235261905Y-225071429D01*
X235214286Y-225261905D01*
X235166667Y-225357143D01*
X235119048Y-225404762D01*
X235023810Y-225452381D01*
X234928571Y-225452381D01*
X234833333Y-225404762D01*
X234785714Y-225357143D01*
X234738095Y-225261905D01*
X234690476Y-225071429D01*
X234690476Y-224833333D01*
X234738095Y-224642857D01*
X234785714Y-224547619D01*
X234833333Y-224500000D01*
X234928571Y-224452381D01*
X223857143Y-167952381D02*
X223523809Y-167476190D01*
X223285714Y-167952381D02*
X223285714Y-166952381D01*
X223666667Y-166952381D01*
X223761905Y-167000000D01*
X223809524Y-167047619D01*
X223857143Y-167142857D01*
X223857143Y-167285714D01*
X223809524Y-167380952D01*
X223761905Y-167428571D01*
X223666667Y-167476190D01*
X223285714Y-167476190D01*
X224809524Y-167952381D02*
X224238095Y-167952381D01*
X224523809Y-167952381D02*
X224523809Y-166952381D01*
X224428571Y-167095238D01*
X224333333Y-167190476D01*
X224238095Y-167238095D01*
X225761905Y-167952381D02*
X225190476Y-167952381D01*
X225476190Y-167952381D02*
X225476190Y-166952381D01*
X225380952Y-167095238D01*
X225285714Y-167190476D01*
X225190476Y-167238095D01*
X177357143Y-219952381D02*
X177023809Y-219476190D01*
X176785714Y-219952381D02*
X176785714Y-218952381D01*
X177166667Y-218952381D01*
X177261905Y-219000000D01*
X177309524Y-219047619D01*
X177357143Y-219142857D01*
X177357143Y-219285714D01*
X177309524Y-219380952D01*
X177261905Y-219428571D01*
X177166667Y-219476190D01*
X176785714Y-219476190D01*
X178309524Y-219952381D02*
X177738095Y-219952381D01*
X178023809Y-219952381D02*
X178023809Y-218952381D01*
X177928571Y-219095238D01*
X177833333Y-219190476D01*
X177738095Y-219238095D01*
X178690476Y-219047619D02*
X178738095Y-219000000D01*
X178833333Y-218952381D01*
X179071429Y-218952381D01*
X179166667Y-219000000D01*
X179214286Y-219047619D01*
X179261905Y-219142857D01*
X179261905Y-219238095D01*
X179214286Y-219380952D01*
X178642857Y-219952381D01*
X179261905Y-219952381D01*
X177357143Y-212952381D02*
X177023809Y-212476190D01*
X176785714Y-212952381D02*
X176785714Y-211952381D01*
X177166667Y-211952381D01*
X177261905Y-212000000D01*
X177309524Y-212047619D01*
X177357143Y-212142857D01*
X177357143Y-212285714D01*
X177309524Y-212380952D01*
X177261905Y-212428571D01*
X177166667Y-212476190D01*
X176785714Y-212476190D01*
X178309524Y-212952381D02*
X177738095Y-212952381D01*
X178023809Y-212952381D02*
X178023809Y-211952381D01*
X177928571Y-212095238D01*
X177833333Y-212190476D01*
X177738095Y-212238095D01*
X178642857Y-211952381D02*
X179261905Y-211952381D01*
X178928571Y-212333333D01*
X179071429Y-212333333D01*
X179166667Y-212380952D01*
X179214286Y-212428571D01*
X179261905Y-212523810D01*
X179261905Y-212761905D01*
X179214286Y-212857143D01*
X179166667Y-212904762D01*
X179071429Y-212952381D01*
X178785714Y-212952381D01*
X178690476Y-212904762D01*
X178642857Y-212857143D01*
X188407143Y-219952381D02*
X188073809Y-219476190D01*
X187835714Y-219952381D02*
X187835714Y-218952381D01*
X188216667Y-218952381D01*
X188311905Y-219000000D01*
X188359524Y-219047619D01*
X188407143Y-219142857D01*
X188407143Y-219285714D01*
X188359524Y-219380952D01*
X188311905Y-219428571D01*
X188216667Y-219476190D01*
X187835714Y-219476190D01*
X189359524Y-219952381D02*
X188788095Y-219952381D01*
X189073809Y-219952381D02*
X189073809Y-218952381D01*
X188978571Y-219095238D01*
X188883333Y-219190476D01*
X188788095Y-219238095D01*
X190216667Y-219285714D02*
X190216667Y-219952381D01*
X189978571Y-218904762D02*
X189740476Y-219619048D01*
X190359524Y-219619048D01*
X188307143Y-212952381D02*
X187973809Y-212476190D01*
X187735714Y-212952381D02*
X187735714Y-211952381D01*
X188116667Y-211952381D01*
X188211905Y-212000000D01*
X188259524Y-212047619D01*
X188307143Y-212142857D01*
X188307143Y-212285714D01*
X188259524Y-212380952D01*
X188211905Y-212428571D01*
X188116667Y-212476190D01*
X187735714Y-212476190D01*
X189259524Y-212952381D02*
X188688095Y-212952381D01*
X188973809Y-212952381D02*
X188973809Y-211952381D01*
X188878571Y-212095238D01*
X188783333Y-212190476D01*
X188688095Y-212238095D01*
X190164286Y-211952381D02*
X189688095Y-211952381D01*
X189640476Y-212428571D01*
X189688095Y-212380952D01*
X189783333Y-212333333D01*
X190021429Y-212333333D01*
X190116667Y-212380952D01*
X190164286Y-212428571D01*
X190211905Y-212523810D01*
X190211905Y-212761905D01*
X190164286Y-212857143D01*
X190116667Y-212904762D01*
X190021429Y-212952381D01*
X189783333Y-212952381D01*
X189688095Y-212904762D01*
X189640476Y-212857143D01*
X241238095Y-221904762D02*
X241380952Y-221952381D01*
X241619048Y-221952381D01*
X241714286Y-221904762D01*
X241761905Y-221857143D01*
X241809524Y-221761905D01*
X241809524Y-221666667D01*
X241761905Y-221571429D01*
X241714286Y-221523810D01*
X241619048Y-221476190D01*
X241428571Y-221428571D01*
X241333333Y-221380952D01*
X241285714Y-221333333D01*
X241238095Y-221238095D01*
X241238095Y-221142857D01*
X241285714Y-221047619D01*
X241333333Y-221000000D01*
X241428571Y-220952381D01*
X241666667Y-220952381D01*
X241809524Y-221000000D01*
X242761905Y-221952381D02*
X242190476Y-221952381D01*
X242476190Y-221952381D02*
X242476190Y-220952381D01*
X242380952Y-221095238D01*
X242285714Y-221190476D01*
X242190476Y-221238095D01*
X219238095Y-166452381D02*
X219809524Y-166452381D01*
X219523809Y-167452381D02*
X219523809Y-166452381D01*
X220666667Y-167452381D02*
X220095238Y-167452381D01*
X220380952Y-167452381D02*
X220380952Y-166452381D01*
X220285714Y-166595238D01*
X220190476Y-166690476D01*
X220095238Y-166738095D01*
X218738095Y-186952381D02*
X218738095Y-187761905D01*
X218785714Y-187857143D01*
X218833333Y-187904762D01*
X218928571Y-187952381D01*
X219119048Y-187952381D01*
X219214286Y-187904762D01*
X219261905Y-187857143D01*
X219309524Y-187761905D01*
X219309524Y-186952381D01*
X220309524Y-187952381D02*
X219738095Y-187952381D01*
X220023809Y-187952381D02*
X220023809Y-186952381D01*
X219928571Y-187095238D01*
X219833333Y-187190476D01*
X219738095Y-187238095D01*
X218738095Y-174952381D02*
X218738095Y-175761905D01*
X218785714Y-175857143D01*
X218833333Y-175904762D01*
X218928571Y-175952381D01*
X219119048Y-175952381D01*
X219214286Y-175904762D01*
X219261905Y-175857143D01*
X219309524Y-175761905D01*
X219309524Y-174952381D01*
X219738095Y-175047619D02*
X219785714Y-175000000D01*
X219880952Y-174952381D01*
X220119048Y-174952381D01*
X220214286Y-175000000D01*
X220261905Y-175047619D01*
X220309524Y-175142857D01*
X220309524Y-175238095D01*
X220261905Y-175380952D01*
X219690476Y-175952381D01*
X220309524Y-175952381D01*
X251738095Y-88952381D02*
X251738095Y-89761905D01*
X251785714Y-89857143D01*
X251833333Y-89904762D01*
X251928571Y-89952381D01*
X252119048Y-89952381D01*
X252214286Y-89904762D01*
X252261905Y-89857143D01*
X252309524Y-89761905D01*
X252309524Y-88952381D01*
X252690476Y-88952381D02*
X253309524Y-88952381D01*
X252976190Y-89333333D01*
X253119048Y-89333333D01*
X253214286Y-89380952D01*
X253261905Y-89428571D01*
X253309524Y-89523810D01*
X253309524Y-89761905D01*
X253261905Y-89857143D01*
X253214286Y-89904762D01*
X253119048Y-89952381D01*
X252833333Y-89952381D01*
X252738095Y-89904762D01*
X252690476Y-89857143D01*
X268738095Y-167952381D02*
X268738095Y-168761905D01*
X268785714Y-168857143D01*
X268833333Y-168904762D01*
X268928571Y-168952381D01*
X269119048Y-168952381D01*
X269214286Y-168904762D01*
X269261905Y-168857143D01*
X269309524Y-168761905D01*
X269309524Y-167952381D01*
X270214286Y-168285714D02*
X270214286Y-168952381D01*
X269976190Y-167904762D02*
X269738095Y-168619048D01*
X270357143Y-168619048D01*
X233238095Y-207452381D02*
X233238095Y-208261905D01*
X233285714Y-208357143D01*
X233333333Y-208404762D01*
X233428571Y-208452381D01*
X233619048Y-208452381D01*
X233714286Y-208404762D01*
X233761905Y-208357143D01*
X233809524Y-208261905D01*
X233809524Y-207452381D01*
X234761905Y-207452381D02*
X234285714Y-207452381D01*
X234238095Y-207928571D01*
X234285714Y-207880952D01*
X234380952Y-207833333D01*
X234619048Y-207833333D01*
X234714286Y-207880952D01*
X234761905Y-207928571D01*
X234809524Y-208023810D01*
X234809524Y-208261905D01*
X234761905Y-208357143D01*
X234714286Y-208404762D01*
X234619048Y-208452381D01*
X234380952Y-208452381D01*
X234285714Y-208404762D01*
X234238095Y-208357143D01*
X205288095Y-209402381D02*
X205288095Y-210211905D01*
X205335714Y-210307143D01*
X205383333Y-210354762D01*
X205478571Y-210402381D01*
X205669048Y-210402381D01*
X205764286Y-210354762D01*
X205811905Y-210307143D01*
X205859524Y-210211905D01*
X205859524Y-209402381D01*
X206764286Y-209402381D02*
X206573809Y-209402381D01*
X206478571Y-209450000D01*
X206430952Y-209497619D01*
X206335714Y-209640476D01*
X206288095Y-209830952D01*
X206288095Y-210211905D01*
X206335714Y-210307143D01*
X206383333Y-210354762D01*
X206478571Y-210402381D01*
X206669048Y-210402381D01*
X206764286Y-210354762D01*
X206811905Y-210307143D01*
X206859524Y-210211905D01*
X206859524Y-209973810D01*
X206811905Y-209878571D01*
X206764286Y-209830952D01*
X206669048Y-209783333D01*
X206478571Y-209783333D01*
X206383333Y-209830952D01*
X206335714Y-209878571D01*
X206288095Y-209973810D01*
X266238095Y-222452381D02*
X266238095Y-223261905D01*
X266285714Y-223357143D01*
X266333333Y-223404762D01*
X266428571Y-223452381D01*
X266619048Y-223452381D01*
X266714286Y-223404762D01*
X266761905Y-223357143D01*
X266809524Y-223261905D01*
X266809524Y-222452381D01*
X267190476Y-222452381D02*
X267857143Y-222452381D01*
X267428571Y-223452381D01*
X164738095Y-216952381D02*
X164738095Y-217761905D01*
X164785714Y-217857143D01*
X164833333Y-217904762D01*
X164928571Y-217952381D01*
X165119048Y-217952381D01*
X165214286Y-217904762D01*
X165261905Y-217857143D01*
X165309524Y-217761905D01*
X165309524Y-216952381D01*
X165928571Y-217380952D02*
X165833333Y-217333333D01*
X165785714Y-217285714D01*
X165738095Y-217190476D01*
X165738095Y-217142857D01*
X165785714Y-217047619D01*
X165833333Y-217000000D01*
X165928571Y-216952381D01*
X166119048Y-216952381D01*
X166214286Y-217000000D01*
X166261905Y-217047619D01*
X166309524Y-217142857D01*
X166309524Y-217190476D01*
X166261905Y-217285714D01*
X166214286Y-217333333D01*
X166119048Y-217380952D01*
X165928571Y-217380952D01*
X165833333Y-217428571D01*
X165785714Y-217476190D01*
X165738095Y-217571429D01*
X165738095Y-217761905D01*
X165785714Y-217857143D01*
X165833333Y-217904762D01*
X165928571Y-217952381D01*
X166119048Y-217952381D01*
X166214286Y-217904762D01*
X166261905Y-217857143D01*
X166309524Y-217761905D01*
X166309524Y-217571429D01*
X166261905Y-217476190D01*
X166214286Y-217428571D01*
X166119048Y-217380952D01*
X164738095Y-208952381D02*
X164738095Y-209761905D01*
X164785714Y-209857143D01*
X164833333Y-209904762D01*
X164928571Y-209952381D01*
X165119048Y-209952381D01*
X165214286Y-209904762D01*
X165261905Y-209857143D01*
X165309524Y-209761905D01*
X165309524Y-208952381D01*
X165833333Y-209952381D02*
X166023809Y-209952381D01*
X166119048Y-209904762D01*
X166166667Y-209857143D01*
X166261905Y-209714286D01*
X166309524Y-209523810D01*
X166309524Y-209142857D01*
X166261905Y-209047619D01*
X166214286Y-209000000D01*
X166119048Y-208952381D01*
X165928571Y-208952381D01*
X165833333Y-209000000D01*
X165785714Y-209047619D01*
X165738095Y-209142857D01*
X165738095Y-209380952D01*
X165785714Y-209476190D01*
X165833333Y-209523810D01*
X165928571Y-209571429D01*
X166119048Y-209571429D01*
X166214286Y-209523810D01*
X166261905Y-209476190D01*
X166309524Y-209380952D01*
X127031905Y-202652381D02*
X127031905Y-203461905D01*
X127079524Y-203557143D01*
X127127143Y-203604762D01*
X127222381Y-203652381D01*
X127412858Y-203652381D01*
X127508096Y-203604762D01*
X127555715Y-203557143D01*
X127603334Y-203461905D01*
X127603334Y-202652381D01*
X128603334Y-203652381D02*
X128031905Y-203652381D01*
X128317619Y-203652381D02*
X128317619Y-202652381D01*
X128222381Y-202795238D01*
X128127143Y-202890476D01*
X128031905Y-202938095D01*
X129222381Y-202652381D02*
X129317620Y-202652381D01*
X129412858Y-202700000D01*
X129460477Y-202747619D01*
X129508096Y-202842857D01*
X129555715Y-203033333D01*
X129555715Y-203271429D01*
X129508096Y-203461905D01*
X129460477Y-203557143D01*
X129412858Y-203604762D01*
X129317620Y-203652381D01*
X129222381Y-203652381D01*
X129127143Y-203604762D01*
X129079524Y-203557143D01*
X129031905Y-203461905D01*
X128984286Y-203271429D01*
X128984286Y-203033333D01*
X129031905Y-202842857D01*
X129079524Y-202747619D01*
X129127143Y-202700000D01*
X129222381Y-202652381D01*
X227261905Y-231452381D02*
X227261905Y-230452381D01*
X227500000Y-230452381D01*
X227642858Y-230500000D01*
X227738096Y-230595238D01*
X227785715Y-230690476D01*
X227833334Y-230880952D01*
X227833334Y-231023810D01*
X227785715Y-231214286D01*
X227738096Y-231309524D01*
X227642858Y-231404762D01*
X227500000Y-231452381D01*
X227261905Y-231452381D01*
X228690477Y-230785714D02*
X228690477Y-231452381D01*
X228452381Y-230404762D02*
X228214286Y-231119048D01*
X228833334Y-231119048D01*
X202261905Y-194452381D02*
X202261905Y-193452381D01*
X202500000Y-193452381D01*
X202642858Y-193500000D01*
X202738096Y-193595238D01*
X202785715Y-193690476D01*
X202833334Y-193880952D01*
X202833334Y-194023810D01*
X202785715Y-194214286D01*
X202738096Y-194309524D01*
X202642858Y-194404762D01*
X202500000Y-194452381D01*
X202261905Y-194452381D01*
X203214286Y-193547619D02*
X203261905Y-193500000D01*
X203357143Y-193452381D01*
X203595239Y-193452381D01*
X203690477Y-193500000D01*
X203738096Y-193547619D01*
X203785715Y-193642857D01*
X203785715Y-193738095D01*
X203738096Y-193880952D01*
X203166667Y-194452381D01*
X203785715Y-194452381D01*
X187357143Y-194452381D02*
X187023809Y-193976190D01*
X186785714Y-194452381D02*
X186785714Y-193452381D01*
X187166667Y-193452381D01*
X187261905Y-193500000D01*
X187309524Y-193547619D01*
X187357143Y-193642857D01*
X187357143Y-193785714D01*
X187309524Y-193880952D01*
X187261905Y-193928571D01*
X187166667Y-193976190D01*
X186785714Y-193976190D01*
X188309524Y-194452381D02*
X187738095Y-194452381D01*
X188023809Y-194452381D02*
X188023809Y-193452381D01*
X187928571Y-193595238D01*
X187833333Y-193690476D01*
X187738095Y-193738095D01*
X189166667Y-193452381D02*
X188976190Y-193452381D01*
X188880952Y-193500000D01*
X188833333Y-193547619D01*
X188738095Y-193690476D01*
X188690476Y-193880952D01*
X188690476Y-194261905D01*
X188738095Y-194357143D01*
X188785714Y-194404762D01*
X188880952Y-194452381D01*
X189071429Y-194452381D01*
X189166667Y-194404762D01*
X189214286Y-194357143D01*
X189261905Y-194261905D01*
X189261905Y-194023810D01*
X189214286Y-193928571D01*
X189166667Y-193880952D01*
X189071429Y-193833333D01*
X188880952Y-193833333D01*
X188785714Y-193880952D01*
X188738095Y-193928571D01*
X188690476Y-194023810D01*
X197357143Y-194452381D02*
X197023809Y-193976190D01*
X196785714Y-194452381D02*
X196785714Y-193452381D01*
X197166667Y-193452381D01*
X197261905Y-193500000D01*
X197309524Y-193547619D01*
X197357143Y-193642857D01*
X197357143Y-193785714D01*
X197309524Y-193880952D01*
X197261905Y-193928571D01*
X197166667Y-193976190D01*
X196785714Y-193976190D01*
X198309524Y-194452381D02*
X197738095Y-194452381D01*
X198023809Y-194452381D02*
X198023809Y-193452381D01*
X197928571Y-193595238D01*
X197833333Y-193690476D01*
X197738095Y-193738095D01*
X198642857Y-193452381D02*
X199309524Y-193452381D01*
X198880952Y-194452381D01*
X192357143Y-194452381D02*
X192023809Y-193976190D01*
X191785714Y-194452381D02*
X191785714Y-193452381D01*
X192166667Y-193452381D01*
X192261905Y-193500000D01*
X192309524Y-193547619D01*
X192357143Y-193642857D01*
X192357143Y-193785714D01*
X192309524Y-193880952D01*
X192261905Y-193928571D01*
X192166667Y-193976190D01*
X191785714Y-193976190D01*
X193309524Y-194452381D02*
X192738095Y-194452381D01*
X193023809Y-194452381D02*
X193023809Y-193452381D01*
X192928571Y-193595238D01*
X192833333Y-193690476D01*
X192738095Y-193738095D01*
X193880952Y-193880952D02*
X193785714Y-193833333D01*
X193738095Y-193785714D01*
X193690476Y-193690476D01*
X193690476Y-193642857D01*
X193738095Y-193547619D01*
X193785714Y-193500000D01*
X193880952Y-193452381D01*
X194071429Y-193452381D01*
X194166667Y-193500000D01*
X194214286Y-193547619D01*
X194261905Y-193642857D01*
X194261905Y-193690476D01*
X194214286Y-193785714D01*
X194166667Y-193833333D01*
X194071429Y-193880952D01*
X193880952Y-193880952D01*
X193785714Y-193928571D01*
X193738095Y-193976190D01*
X193690476Y-194071429D01*
X193690476Y-194261905D01*
X193738095Y-194357143D01*
X193785714Y-194404762D01*
X193880952Y-194452381D01*
X194071429Y-194452381D01*
X194166667Y-194404762D01*
X194214286Y-194357143D01*
X194261905Y-194261905D01*
X194261905Y-194071429D01*
X194214286Y-193976190D01*
X194166667Y-193928571D01*
X194071429Y-193880952D01*
M02*
