G04 #@! TF.FileFunction,Copper,L2,Bot,Signal*
%FSLAX46Y46*%
G04 Gerber Fmt 4.6, Leading zero omitted, Abs format (unit mm)*
G04 Created by KiCad (PCBNEW 4.0.7-e2-6376~58~ubuntu16.04.1) date Sat Sep 15 23:25:49 2018*
%MOMM*%
%LPD*%
G01*
G04 APERTURE LIST*
%ADD10C,0.100000*%
%ADD11C,7.400000*%
%ADD12C,3.000000*%
%ADD13C,2.500000*%
%ADD14O,2.540000X3.810000*%
%ADD15R,1.700000X1.700000*%
%ADD16O,1.700000X1.700000*%
%ADD17O,3.500000X2.500000*%
%ADD18O,1.100000X2.200000*%
%ADD19R,1.500000X1.500000*%
%ADD20R,2.000000X2.000000*%
%ADD21C,1.524000*%
%ADD22C,4.000000*%
%ADD23C,0.900000*%
%ADD24C,0.600000*%
%ADD25C,1.200000*%
%ADD26C,0.600000*%
%ADD27C,0.400000*%
%ADD28C,1.000000*%
%ADD29C,5.000000*%
%ADD30C,3.600000*%
%ADD31C,0.254000*%
G04 APERTURE END LIST*
D10*
D11*
X254970000Y-235000000D03*
X90000000Y-235000000D03*
X255000000Y-125000000D03*
D12*
X185000000Y-147380000D03*
X185000000Y-155000000D03*
X164680000Y-147380000D03*
X159600000Y-147380000D03*
X169760000Y-147380000D03*
X164680000Y-155000000D03*
X159600000Y-155000000D03*
X169760000Y-155000000D03*
D13*
X213500000Y-132000000D03*
X218500000Y-132000000D03*
D14*
X185000000Y-138000000D03*
X185000000Y-130380000D03*
X179920000Y-138000000D03*
X179920000Y-130380000D03*
D15*
X215808659Y-176301441D03*
D16*
X215808659Y-178841441D03*
X213268659Y-176301441D03*
X213268659Y-178841441D03*
X210728659Y-176301441D03*
X210728659Y-178841441D03*
X208188659Y-176301441D03*
X208188659Y-178841441D03*
X205648659Y-176301441D03*
X205648659Y-178841441D03*
D14*
X226760000Y-222380000D03*
X226760000Y-230000000D03*
X231840000Y-222380000D03*
X231840000Y-230000000D03*
X242000000Y-222380000D03*
X236920000Y-222380000D03*
X236920000Y-230000000D03*
X242000000Y-230000000D03*
X196500000Y-222380000D03*
X196500000Y-230000000D03*
X201580000Y-222380000D03*
X201580000Y-230000000D03*
X166500000Y-222380000D03*
X166500000Y-230000000D03*
X171580000Y-222380000D03*
X171580000Y-230000000D03*
X181500000Y-222380000D03*
X181500000Y-230000000D03*
X186580000Y-222380000D03*
X186580000Y-230000000D03*
X211500000Y-222380000D03*
X211500000Y-230000000D03*
X216580000Y-222380000D03*
X216580000Y-230000000D03*
D12*
X115000000Y-147380000D03*
X115000000Y-155000000D03*
X94680000Y-147380000D03*
X89600000Y-147380000D03*
X99760000Y-147380000D03*
X94680000Y-155000000D03*
X89600000Y-155000000D03*
X99760000Y-155000000D03*
X150000000Y-147380000D03*
X150000000Y-155000000D03*
X129680000Y-147380000D03*
X124600000Y-147380000D03*
X134760000Y-147380000D03*
X129680000Y-155000000D03*
X124600000Y-155000000D03*
X134760000Y-155000000D03*
D17*
X156000000Y-201500000D03*
X156000000Y-178500000D03*
X94000000Y-210000000D03*
X94000000Y-190000000D03*
D18*
X252000000Y-144000000D03*
X250000000Y-144000000D03*
X248000000Y-144000000D03*
X246000000Y-144000000D03*
X244000000Y-144000000D03*
X242000000Y-144000000D03*
X240000000Y-144000000D03*
X238000000Y-144000000D03*
X236000000Y-144000000D03*
X234000000Y-144000000D03*
X232000000Y-144000000D03*
X230000000Y-144000000D03*
X228000000Y-144000000D03*
X226000000Y-144000000D03*
X224000000Y-144000000D03*
X222000000Y-144000000D03*
X222000000Y-168400000D03*
X224000000Y-168400000D03*
X226000000Y-168400000D03*
X228000000Y-168400000D03*
X230000000Y-168400000D03*
X232000000Y-168400000D03*
X234000000Y-168400000D03*
X236000000Y-168400000D03*
X238000000Y-168400000D03*
X240000000Y-168400000D03*
X242000000Y-168400000D03*
X244000000Y-168400000D03*
X246000000Y-168400000D03*
X248000000Y-168400000D03*
X250000000Y-168400000D03*
X252000000Y-168400000D03*
D19*
X171580000Y-193680000D03*
X171580000Y-196220000D03*
D20*
X171580000Y-206380000D03*
X171580000Y-214000000D03*
D19*
X186580000Y-193680000D03*
X186580000Y-196220000D03*
D20*
X186580000Y-206380000D03*
X186580000Y-214000000D03*
D21*
X233680000Y-175260000D03*
X231140000Y-175260000D03*
X228600000Y-175260000D03*
D15*
X238760000Y-175260000D03*
D16*
X241300000Y-175260000D03*
X243840000Y-175260000D03*
X246380000Y-175260000D03*
X248920000Y-175260000D03*
X251460000Y-175260000D03*
D11*
X90000000Y-125000000D03*
D14*
X200000000Y-138000000D03*
X200000000Y-130380000D03*
X194920000Y-138000000D03*
X194920000Y-130380000D03*
X240000000Y-138000000D03*
X240000000Y-130380000D03*
X234920000Y-138000000D03*
X234920000Y-130380000D03*
D22*
X115000000Y-230000000D03*
X115000000Y-224920000D03*
X135000000Y-230000000D03*
X135000000Y-224920000D03*
X155000000Y-230000000D03*
X155000000Y-224920000D03*
X105000000Y-230000000D03*
X105000000Y-224920000D03*
X125000000Y-230000000D03*
X125000000Y-224920000D03*
X145000000Y-230000000D03*
X145000000Y-224920000D03*
X105000000Y-135000000D03*
X105000000Y-129920000D03*
X125000000Y-135000000D03*
X125000000Y-129920000D03*
X145000000Y-135000000D03*
X145000000Y-129920000D03*
X115000000Y-135000000D03*
X115000000Y-129920000D03*
X135000000Y-135000000D03*
X135000000Y-129920000D03*
X155000000Y-135000000D03*
X155000000Y-129920000D03*
X169000000Y-130920000D03*
X169000000Y-136000000D03*
D13*
X202000000Y-153000000D03*
X207000000Y-153000000D03*
D23*
X194036735Y-171716078D03*
X188738924Y-191689990D03*
X207158156Y-193763009D03*
X222690609Y-197342502D03*
X186000000Y-185000000D03*
X194000000Y-174000000D03*
X220000000Y-174000000D03*
X168750000Y-178500000D03*
X169750000Y-178500000D03*
X222255582Y-208773488D03*
X248825000Y-184750000D03*
X248825000Y-196750000D03*
X248825000Y-208750000D03*
X216750000Y-198000000D03*
X216750000Y-198000000D03*
X200000000Y-177000000D03*
X169750000Y-179750000D03*
X181828234Y-179828234D03*
X206664241Y-183862581D03*
X203500000Y-191000000D03*
D24*
X232624345Y-208526575D03*
X233450064Y-207625261D03*
X231746290Y-207619446D03*
X232601085Y-207602001D03*
X232618530Y-206683243D03*
X233450064Y-208517853D03*
X233447157Y-206677428D03*
X231749198Y-206677428D03*
X231748534Y-208519201D03*
D23*
X203000000Y-211000000D03*
X215000000Y-211000000D03*
X222000000Y-206000000D03*
X244000000Y-203000000D03*
X244000000Y-206000000D03*
X244000000Y-193000000D03*
X257000000Y-183000000D03*
X252000000Y-165000000D03*
X252000000Y-147000000D03*
X251000000Y-133000000D03*
X199000000Y-190000000D03*
X195000000Y-190000000D03*
X211000000Y-200000000D03*
X222000000Y-200000000D03*
X199108662Y-187050990D03*
X220000000Y-172000000D03*
X227000000Y-172000000D03*
X240000000Y-172000000D03*
X191796684Y-187002759D03*
D24*
X205237904Y-188106475D03*
X208793370Y-188108559D03*
D23*
X245000000Y-133000000D03*
X256905681Y-134488175D03*
X208000000Y-146000000D03*
X201000000Y-146000000D03*
X174515434Y-184440362D03*
X179000000Y-167000000D03*
X203000000Y-187000000D03*
X246503833Y-187107512D03*
X228000000Y-187000000D03*
X253905000Y-184750000D03*
X189797002Y-188504136D03*
D25*
X97848832Y-123271247D03*
D24*
X226070884Y-214236688D03*
X226500000Y-205500000D03*
X227092852Y-214252020D03*
X226516885Y-207350425D03*
X229003605Y-214217520D03*
X227251311Y-208009909D03*
X228026031Y-214217520D03*
X227240272Y-209723542D03*
D22*
X90000000Y-161000000D03*
X124600000Y-160600000D03*
X156318565Y-162312381D03*
D24*
X250567416Y-179697388D03*
X255598020Y-180101429D03*
X222500000Y-194000000D03*
X216250000Y-193000000D03*
X218184384Y-192299990D03*
X222500000Y-193000000D03*
X227500000Y-191500000D03*
X217250000Y-191500000D03*
X227615486Y-184069536D03*
X222968099Y-179396440D03*
X229733974Y-183022194D03*
X225000000Y-180000000D03*
X255132023Y-182189081D03*
X230947939Y-180808493D03*
X250895048Y-180784690D03*
X226000000Y-179000000D03*
X196961631Y-185789087D03*
X193031828Y-185774368D03*
X225692443Y-188176599D03*
X215000000Y-188000000D03*
X224675773Y-189193269D03*
X215000000Y-189000000D03*
X235497888Y-203024772D03*
X213250000Y-202000000D03*
X234170308Y-201257003D03*
X213240780Y-201110186D03*
X221500000Y-202750000D03*
X219000000Y-202750000D03*
D25*
X156500000Y-215250000D03*
D23*
X194000000Y-155000000D03*
D26*
X194000000Y-174000000D02*
X194000000Y-171752813D01*
X194000000Y-171752813D02*
X194036735Y-171716078D01*
X188288925Y-191239991D02*
X188738924Y-191689990D01*
X186000000Y-188951066D02*
X188288925Y-191239991D01*
X186000000Y-185000000D02*
X186000000Y-188951066D01*
X222690609Y-197342502D02*
X221716758Y-196368651D01*
X221716758Y-196368651D02*
X209763798Y-196368651D01*
X209763798Y-196368651D02*
X207608155Y-194213008D01*
X207608155Y-194213008D02*
X207158156Y-193763009D01*
X195000000Y-190000000D02*
X199000000Y-190000000D01*
X222000000Y-200000000D02*
X211000000Y-200000000D01*
X199060431Y-187002759D02*
X199108662Y-187050990D01*
X191796684Y-187002759D02*
X199060431Y-187002759D01*
X227000000Y-172000000D02*
X220000000Y-172000000D01*
X250000000Y-168400000D02*
X250000000Y-168950000D01*
X250000000Y-168950000D02*
X246950000Y-172000000D01*
X246950000Y-172000000D02*
X240636396Y-172000000D01*
X240636396Y-172000000D02*
X240000000Y-172000000D01*
D27*
X205239988Y-188108559D02*
X205237904Y-188106475D01*
X208793370Y-188108559D02*
X205239988Y-188108559D01*
D26*
X245975460Y-133975460D02*
X245000000Y-133000000D01*
X252924461Y-133975460D02*
X245975460Y-133975460D01*
X256455682Y-134038176D02*
X256905681Y-134488175D01*
X256392966Y-133975460D02*
X256455682Y-134038176D01*
X252924461Y-133975460D02*
X256392966Y-133975460D01*
X201000000Y-146000000D02*
X208000000Y-146000000D01*
X174515434Y-183803966D02*
X174515434Y-184440362D01*
X179000000Y-167000000D02*
X174515434Y-171484566D01*
X174515434Y-171484566D02*
X174515434Y-183803966D01*
X228000000Y-187000000D02*
X203000000Y-187000000D01*
X203000000Y-187000000D02*
X202000000Y-187000000D01*
X202000000Y-187000000D02*
X201000000Y-188000000D01*
X253905000Y-184750000D02*
X253899072Y-184750000D01*
X253899072Y-184750000D02*
X251541560Y-187107512D01*
X251541560Y-187107512D02*
X247140229Y-187107512D01*
X247140229Y-187107512D02*
X246503833Y-187107512D01*
X201000000Y-188000000D02*
X200559281Y-188440719D01*
X200559281Y-188440719D02*
X189860419Y-188440719D01*
X189860419Y-188440719D02*
X189797002Y-188504136D01*
D28*
X179920000Y-130380000D02*
X179920000Y-138000000D01*
D29*
X105000000Y-129920000D02*
X105000000Y-135000000D01*
X115000000Y-129920000D02*
X105000000Y-129920000D01*
X115000000Y-129920000D02*
X115000000Y-135000000D01*
X105000000Y-135000000D02*
X115000000Y-135000000D01*
X99760000Y-147380000D02*
X99760000Y-155000000D01*
X105000000Y-135000000D02*
X105000000Y-142140000D01*
X105000000Y-142140000D02*
X99760000Y-147380000D01*
D30*
X99760000Y-155000000D02*
X94680000Y-155000000D01*
X99760000Y-147380000D02*
X94680000Y-147380000D01*
D28*
X169000000Y-136000000D02*
X169000000Y-130920000D01*
X195071180Y-123271247D02*
X169000000Y-123271247D01*
X169000000Y-123271247D02*
X98697360Y-123271247D01*
X169000000Y-130920000D02*
X169000000Y-123271247D01*
X200000000Y-130380000D02*
X200000000Y-128200067D01*
X200000000Y-128200067D02*
X195071180Y-123271247D01*
X98697360Y-123271247D02*
X97848832Y-123271247D01*
X200000000Y-130380000D02*
X200000000Y-138000000D01*
D29*
X125000000Y-135000000D02*
X125000000Y-129920000D01*
X135000000Y-135000000D02*
X125000000Y-135000000D01*
X135000000Y-129920000D02*
X135000000Y-135000000D01*
X125000000Y-129920000D02*
X135000000Y-129920000D01*
X134760000Y-147380000D02*
X134760000Y-155000000D01*
X135000000Y-135000000D02*
X135000000Y-147140000D01*
X135000000Y-147140000D02*
X134760000Y-147380000D01*
D30*
X134760000Y-155000000D02*
X129680000Y-155000000D01*
X134760000Y-147380000D02*
X129680000Y-147380000D01*
D29*
X155000000Y-135000000D02*
X156170075Y-135000000D01*
X168550075Y-147380000D02*
X169760000Y-147380000D01*
X156170075Y-135000000D02*
X168550075Y-147380000D01*
X145000000Y-135000000D02*
X145000000Y-129920000D01*
X155000000Y-135000000D02*
X145000000Y-135000000D01*
X155000000Y-129920000D02*
X155000000Y-135000000D01*
X145000000Y-129920000D02*
X155000000Y-129920000D01*
X169760000Y-147380000D02*
X169760000Y-155000000D01*
D30*
X169760000Y-155000000D02*
X164680000Y-155000000D01*
X169760000Y-147380000D02*
X164680000Y-147380000D01*
D27*
X225770885Y-206229115D02*
X225770885Y-213936689D01*
X225770885Y-213936689D02*
X226070884Y-214236688D01*
X226500000Y-205500000D02*
X225770885Y-206229115D01*
X226792853Y-213952021D02*
X227092852Y-214252020D01*
X226516885Y-213676053D02*
X226792853Y-213952021D01*
X226516885Y-207350425D02*
X226516885Y-213676053D01*
X229003605Y-209762203D02*
X229003605Y-213793256D01*
X229003605Y-213793256D02*
X229003605Y-214217520D01*
X227251311Y-208009909D02*
X229003605Y-209762203D01*
X228026031Y-213793256D02*
X228026031Y-214217520D01*
X228026031Y-210509301D02*
X228026031Y-213793256D01*
X227240272Y-209723542D02*
X228026031Y-210509301D01*
D29*
X115000000Y-224920000D02*
X115000000Y-230000000D01*
X105000000Y-224920000D02*
X105000000Y-230000000D01*
X115000000Y-230000000D02*
X105000000Y-230000000D01*
X105000000Y-224920000D02*
X115000000Y-224920000D01*
X90000000Y-161000000D02*
X105000000Y-176000000D01*
X105000000Y-176000000D02*
X105000000Y-224920000D01*
D30*
X89600000Y-155000000D02*
X89600000Y-160600000D01*
X89600000Y-160600000D02*
X90000000Y-161000000D01*
X89600000Y-147380000D02*
X89600000Y-155000000D01*
D29*
X124600000Y-160600000D02*
X124600000Y-224520000D01*
X124600000Y-224520000D02*
X125000000Y-224920000D01*
X135000000Y-224920000D02*
X135000000Y-230000000D01*
X125000000Y-224920000D02*
X125000000Y-230000000D01*
X135000000Y-230000000D02*
X125000000Y-230000000D01*
X125000000Y-224920000D02*
X135000000Y-224920000D01*
D30*
X124600000Y-155000000D02*
X124600000Y-160600000D01*
X124600000Y-147380000D02*
X124600000Y-155000000D01*
D29*
X145000000Y-224920000D02*
X145000000Y-170088759D01*
X145000000Y-170088759D02*
X150776379Y-164312380D01*
X150776379Y-164312380D02*
X154318566Y-164312380D01*
X154318566Y-164312380D02*
X156318565Y-162312381D01*
D30*
X158318564Y-160312382D02*
X156318565Y-162312381D01*
X159600000Y-159030946D02*
X158318564Y-160312382D01*
X159600000Y-155000000D02*
X159600000Y-159030946D01*
D29*
X145000000Y-224920000D02*
X145000000Y-230000000D01*
X155000000Y-224920000D02*
X155000000Y-230000000D01*
X145000000Y-230000000D02*
X155000000Y-230000000D01*
X145000000Y-224920000D02*
X155000000Y-224920000D01*
D30*
X159600000Y-147380000D02*
X159600000Y-155000000D01*
D27*
X250991680Y-179697388D02*
X250567416Y-179697388D01*
X255193979Y-179697388D02*
X250991680Y-179697388D01*
X255598020Y-180101429D02*
X255193979Y-179697388D01*
X221500000Y-193000000D02*
X222500000Y-194000000D01*
X216250000Y-193000000D02*
X221500000Y-193000000D01*
X218608648Y-192299990D02*
X218184384Y-192299990D01*
X221799990Y-192299990D02*
X218608648Y-192299990D01*
X222500000Y-193000000D02*
X221799990Y-192299990D01*
X217250000Y-191500000D02*
X227500000Y-191500000D01*
X222968099Y-179396440D02*
X227615486Y-184043827D01*
X227615486Y-184043827D02*
X227615486Y-184069536D01*
X229309710Y-183022194D02*
X229733974Y-183022194D01*
X228022194Y-183022194D02*
X229309710Y-183022194D01*
X225000000Y-180000000D02*
X228022194Y-183022194D01*
X254832024Y-181889082D02*
X255132023Y-182189081D01*
X253727632Y-180784690D02*
X254832024Y-181889082D01*
X250895048Y-180784690D02*
X253727632Y-180784690D01*
X230523675Y-180808493D02*
X230947939Y-180808493D01*
X227808493Y-180808493D02*
X230523675Y-180808493D01*
X226000000Y-179000000D02*
X227808493Y-180808493D01*
X196946912Y-185774368D02*
X196961631Y-185789087D01*
X193031828Y-185774368D02*
X196946912Y-185774368D01*
X215000000Y-188000000D02*
X225515844Y-188000000D01*
X225515844Y-188000000D02*
X225692443Y-188176599D01*
X224482504Y-189000000D02*
X224675773Y-189193269D01*
X215000000Y-189000000D02*
X224482504Y-189000000D01*
X213250000Y-202000000D02*
X213275227Y-201974773D01*
X213275227Y-201974773D02*
X234969642Y-201974773D01*
X234969642Y-201974773D02*
X235497888Y-202503019D01*
X235497888Y-202503019D02*
X235497888Y-203024772D01*
X213240780Y-201110186D02*
X234023491Y-201110186D01*
X234023491Y-201110186D02*
X234170308Y-201257003D01*
X219000000Y-202750000D02*
X221500000Y-202750000D01*
D28*
X156500000Y-215250000D02*
X156500000Y-210558236D01*
X156500000Y-210558236D02*
X160678236Y-206380000D01*
X160678236Y-206380000D02*
X162591980Y-206380000D01*
X185000000Y-138000000D02*
X185000000Y-138635000D01*
X162591980Y-171908020D02*
X162591980Y-206380000D01*
X185000000Y-138635000D02*
X177500000Y-146135000D01*
X177500000Y-146135000D02*
X177500000Y-157000000D01*
X177500000Y-157000000D02*
X162591980Y-171908020D01*
X162591980Y-206380000D02*
X165406434Y-206380000D01*
X194920000Y-138000000D02*
X185000000Y-138000000D01*
X165406434Y-206380000D02*
X171580000Y-206380000D01*
X186580000Y-206380000D02*
X184580000Y-206380000D01*
X184580000Y-206380000D02*
X171580000Y-206380000D01*
X194920000Y-130380000D02*
X194920000Y-138000000D01*
X185000000Y-130380000D02*
X185000000Y-138000000D01*
D26*
X187121320Y-155000000D02*
X194000000Y-155000000D01*
X185000000Y-155000000D02*
X187121320Y-155000000D01*
D31*
G36*
X252547628Y-121322823D02*
X251327108Y-122541213D01*
X250665754Y-124133932D01*
X250664249Y-125858502D01*
X251322823Y-127452372D01*
X252541213Y-128672892D01*
X254133932Y-129334246D01*
X255858502Y-129335751D01*
X257452372Y-128677177D01*
X258672892Y-127458787D01*
X259290000Y-125972624D01*
X259290000Y-234103378D01*
X258647177Y-232547628D01*
X257428787Y-231327108D01*
X255836068Y-230665754D01*
X254111498Y-230664249D01*
X252517628Y-231322823D01*
X251297108Y-232541213D01*
X250635754Y-234133932D01*
X250634249Y-235858502D01*
X251292823Y-237452372D01*
X252511213Y-238672892D01*
X253997376Y-239290000D01*
X194127000Y-239290000D01*
X194127000Y-229315238D01*
X194595000Y-229315238D01*
X194595000Y-230684762D01*
X194740009Y-231413774D01*
X195152962Y-232031800D01*
X195770988Y-232444753D01*
X196500000Y-232589762D01*
X197229012Y-232444753D01*
X197847038Y-232031800D01*
X198259991Y-231413774D01*
X198405000Y-230684762D01*
X198405000Y-229315238D01*
X199675000Y-229315238D01*
X199675000Y-230684762D01*
X199820009Y-231413774D01*
X200232962Y-232031800D01*
X200850988Y-232444753D01*
X201580000Y-232589762D01*
X202309012Y-232444753D01*
X202927038Y-232031800D01*
X203339991Y-231413774D01*
X203485000Y-230684762D01*
X203485000Y-229315238D01*
X209595000Y-229315238D01*
X209595000Y-230684762D01*
X209740009Y-231413774D01*
X210152962Y-232031800D01*
X210770988Y-232444753D01*
X211500000Y-232589762D01*
X212229012Y-232444753D01*
X212847038Y-232031800D01*
X213259991Y-231413774D01*
X213405000Y-230684762D01*
X213405000Y-229315238D01*
X214675000Y-229315238D01*
X214675000Y-230684762D01*
X214820009Y-231413774D01*
X215232962Y-232031800D01*
X215850988Y-232444753D01*
X216580000Y-232589762D01*
X217309012Y-232444753D01*
X217927038Y-232031800D01*
X218339991Y-231413774D01*
X218485000Y-230684762D01*
X218485000Y-229315238D01*
X224855000Y-229315238D01*
X224855000Y-230684762D01*
X225000009Y-231413774D01*
X225412962Y-232031800D01*
X226030988Y-232444753D01*
X226760000Y-232589762D01*
X227489012Y-232444753D01*
X228107038Y-232031800D01*
X228519991Y-231413774D01*
X228665000Y-230684762D01*
X228665000Y-229315238D01*
X229935000Y-229315238D01*
X229935000Y-230684762D01*
X230080009Y-231413774D01*
X230492962Y-232031800D01*
X231110988Y-232444753D01*
X231840000Y-232589762D01*
X232569012Y-232444753D01*
X233187038Y-232031800D01*
X233599991Y-231413774D01*
X233745000Y-230684762D01*
X233745000Y-229315238D01*
X235015000Y-229315238D01*
X235015000Y-230684762D01*
X235160009Y-231413774D01*
X235572962Y-232031800D01*
X236190988Y-232444753D01*
X236920000Y-232589762D01*
X237649012Y-232444753D01*
X238267038Y-232031800D01*
X238679991Y-231413774D01*
X238825000Y-230684762D01*
X238825000Y-229315238D01*
X240095000Y-229315238D01*
X240095000Y-230684762D01*
X240240009Y-231413774D01*
X240652962Y-232031800D01*
X241270988Y-232444753D01*
X242000000Y-232589762D01*
X242729012Y-232444753D01*
X243347038Y-232031800D01*
X243759991Y-231413774D01*
X243905000Y-230684762D01*
X243905000Y-229315238D01*
X243759991Y-228586226D01*
X243347038Y-227968200D01*
X242729012Y-227555247D01*
X242000000Y-227410238D01*
X241270988Y-227555247D01*
X240652962Y-227968200D01*
X240240009Y-228586226D01*
X240095000Y-229315238D01*
X238825000Y-229315238D01*
X238679991Y-228586226D01*
X238267038Y-227968200D01*
X237649012Y-227555247D01*
X236920000Y-227410238D01*
X236190988Y-227555247D01*
X235572962Y-227968200D01*
X235160009Y-228586226D01*
X235015000Y-229315238D01*
X233745000Y-229315238D01*
X233599991Y-228586226D01*
X233187038Y-227968200D01*
X232569012Y-227555247D01*
X231840000Y-227410238D01*
X231110988Y-227555247D01*
X230492962Y-227968200D01*
X230080009Y-228586226D01*
X229935000Y-229315238D01*
X228665000Y-229315238D01*
X228519991Y-228586226D01*
X228107038Y-227968200D01*
X227489012Y-227555247D01*
X226760000Y-227410238D01*
X226030988Y-227555247D01*
X225412962Y-227968200D01*
X225000009Y-228586226D01*
X224855000Y-229315238D01*
X218485000Y-229315238D01*
X218339991Y-228586226D01*
X217927038Y-227968200D01*
X217309012Y-227555247D01*
X216580000Y-227410238D01*
X215850988Y-227555247D01*
X215232962Y-227968200D01*
X214820009Y-228586226D01*
X214675000Y-229315238D01*
X213405000Y-229315238D01*
X213259991Y-228586226D01*
X212847038Y-227968200D01*
X212229012Y-227555247D01*
X211500000Y-227410238D01*
X210770988Y-227555247D01*
X210152962Y-227968200D01*
X209740009Y-228586226D01*
X209595000Y-229315238D01*
X203485000Y-229315238D01*
X203339991Y-228586226D01*
X202927038Y-227968200D01*
X202309012Y-227555247D01*
X201580000Y-227410238D01*
X200850988Y-227555247D01*
X200232962Y-227968200D01*
X199820009Y-228586226D01*
X199675000Y-229315238D01*
X198405000Y-229315238D01*
X198259991Y-228586226D01*
X197847038Y-227968200D01*
X197229012Y-227555247D01*
X196500000Y-227410238D01*
X195770988Y-227555247D01*
X195152962Y-227968200D01*
X194740009Y-228586226D01*
X194595000Y-229315238D01*
X194127000Y-229315238D01*
X194127000Y-221695238D01*
X194595000Y-221695238D01*
X194595000Y-223064762D01*
X194740009Y-223793774D01*
X195152962Y-224411800D01*
X195770988Y-224824753D01*
X196500000Y-224969762D01*
X197229012Y-224824753D01*
X197847038Y-224411800D01*
X198259991Y-223793774D01*
X198405000Y-223064762D01*
X198405000Y-221695238D01*
X199675000Y-221695238D01*
X199675000Y-223064762D01*
X199820009Y-223793774D01*
X200232962Y-224411800D01*
X200850988Y-224824753D01*
X201580000Y-224969762D01*
X202309012Y-224824753D01*
X202927038Y-224411800D01*
X203339991Y-223793774D01*
X203485000Y-223064762D01*
X203485000Y-221695238D01*
X209595000Y-221695238D01*
X209595000Y-223064762D01*
X209740009Y-223793774D01*
X210152962Y-224411800D01*
X210770988Y-224824753D01*
X211500000Y-224969762D01*
X212229012Y-224824753D01*
X212847038Y-224411800D01*
X213259991Y-223793774D01*
X213405000Y-223064762D01*
X213405000Y-221695238D01*
X214675000Y-221695238D01*
X214675000Y-223064762D01*
X214820009Y-223793774D01*
X215232962Y-224411800D01*
X215850988Y-224824753D01*
X216580000Y-224969762D01*
X217309012Y-224824753D01*
X217927038Y-224411800D01*
X218339991Y-223793774D01*
X218485000Y-223064762D01*
X218485000Y-221695238D01*
X224855000Y-221695238D01*
X224855000Y-223064762D01*
X225000009Y-223793774D01*
X225412962Y-224411800D01*
X226030988Y-224824753D01*
X226760000Y-224969762D01*
X227489012Y-224824753D01*
X228107038Y-224411800D01*
X228519991Y-223793774D01*
X228665000Y-223064762D01*
X228665000Y-221695238D01*
X229935000Y-221695238D01*
X229935000Y-223064762D01*
X230080009Y-223793774D01*
X230492962Y-224411800D01*
X231110988Y-224824753D01*
X231840000Y-224969762D01*
X232569012Y-224824753D01*
X233187038Y-224411800D01*
X233599991Y-223793774D01*
X233745000Y-223064762D01*
X233745000Y-221695238D01*
X235015000Y-221695238D01*
X235015000Y-223064762D01*
X235160009Y-223793774D01*
X235572962Y-224411800D01*
X236190988Y-224824753D01*
X236920000Y-224969762D01*
X237649012Y-224824753D01*
X238267038Y-224411800D01*
X238679991Y-223793774D01*
X238825000Y-223064762D01*
X238825000Y-221695238D01*
X240095000Y-221695238D01*
X240095000Y-223064762D01*
X240240009Y-223793774D01*
X240652962Y-224411800D01*
X241270988Y-224824753D01*
X242000000Y-224969762D01*
X242729012Y-224824753D01*
X243347038Y-224411800D01*
X243759991Y-223793774D01*
X243905000Y-223064762D01*
X243905000Y-221695238D01*
X243759991Y-220966226D01*
X243347038Y-220348200D01*
X242729012Y-219935247D01*
X242000000Y-219790238D01*
X241270988Y-219935247D01*
X240652962Y-220348200D01*
X240240009Y-220966226D01*
X240095000Y-221695238D01*
X238825000Y-221695238D01*
X238679991Y-220966226D01*
X238267038Y-220348200D01*
X237649012Y-219935247D01*
X236920000Y-219790238D01*
X236190988Y-219935247D01*
X235572962Y-220348200D01*
X235160009Y-220966226D01*
X235015000Y-221695238D01*
X233745000Y-221695238D01*
X233599991Y-220966226D01*
X233187038Y-220348200D01*
X232569012Y-219935247D01*
X231840000Y-219790238D01*
X231110988Y-219935247D01*
X230492962Y-220348200D01*
X230080009Y-220966226D01*
X229935000Y-221695238D01*
X228665000Y-221695238D01*
X228519991Y-220966226D01*
X228107038Y-220348200D01*
X227489012Y-219935247D01*
X226760000Y-219790238D01*
X226030988Y-219935247D01*
X225412962Y-220348200D01*
X225000009Y-220966226D01*
X224855000Y-221695238D01*
X218485000Y-221695238D01*
X218339991Y-220966226D01*
X217927038Y-220348200D01*
X217309012Y-219935247D01*
X216580000Y-219790238D01*
X215850988Y-219935247D01*
X215232962Y-220348200D01*
X214820009Y-220966226D01*
X214675000Y-221695238D01*
X213405000Y-221695238D01*
X213259991Y-220966226D01*
X212847038Y-220348200D01*
X212229012Y-219935247D01*
X211500000Y-219790238D01*
X210770988Y-219935247D01*
X210152962Y-220348200D01*
X209740009Y-220966226D01*
X209595000Y-221695238D01*
X203485000Y-221695238D01*
X203339991Y-220966226D01*
X202927038Y-220348200D01*
X202309012Y-219935247D01*
X201580000Y-219790238D01*
X200850988Y-219935247D01*
X200232962Y-220348200D01*
X199820009Y-220966226D01*
X199675000Y-221695238D01*
X198405000Y-221695238D01*
X198259991Y-220966226D01*
X197847038Y-220348200D01*
X197229012Y-219935247D01*
X196500000Y-219790238D01*
X195770988Y-219935247D01*
X195152962Y-220348200D01*
X194740009Y-220966226D01*
X194595000Y-221695238D01*
X194127000Y-221695238D01*
X194127000Y-206229115D01*
X224935885Y-206229115D01*
X224935885Y-213936689D01*
X224999446Y-214256230D01*
X225098396Y-214404319D01*
X225177219Y-214522286D01*
X225277767Y-214765631D01*
X225540557Y-215028880D01*
X225884085Y-215171526D01*
X226256051Y-215171850D01*
X226563739Y-215044716D01*
X226906053Y-215186858D01*
X227278019Y-215187182D01*
X227601355Y-215053582D01*
X227839232Y-215152358D01*
X228211198Y-215152682D01*
X228515142Y-215027095D01*
X228816806Y-215152358D01*
X229188772Y-215152682D01*
X229532548Y-215010637D01*
X229795797Y-214747847D01*
X229938443Y-214404319D01*
X229938767Y-214032353D01*
X229838605Y-213789942D01*
X229838605Y-209762203D01*
X229775044Y-209442662D01*
X229594039Y-209171769D01*
X228143846Y-207721576D01*
X228044428Y-207480966D01*
X227781638Y-207217717D01*
X227438110Y-207075071D01*
X227414774Y-207075051D01*
X227310002Y-206821482D01*
X227047212Y-206558233D01*
X226747208Y-206433660D01*
X226788333Y-206392535D01*
X227028943Y-206293117D01*
X227292192Y-206030327D01*
X227434838Y-205686799D01*
X227435162Y-205314833D01*
X227293117Y-204971057D01*
X227030327Y-204707808D01*
X226686799Y-204565162D01*
X226314833Y-204564838D01*
X225971057Y-204706883D01*
X225707808Y-204969673D01*
X225607222Y-205211910D01*
X225180451Y-205638681D01*
X224999446Y-205909574D01*
X224935885Y-206229115D01*
X194127000Y-206229115D01*
X194127000Y-200214873D01*
X209914812Y-200214873D01*
X210079646Y-200613800D01*
X210384595Y-200919282D01*
X210783233Y-201084811D01*
X211214873Y-201085188D01*
X211578354Y-200935000D01*
X212305932Y-200935000D01*
X212305618Y-201295353D01*
X212417628Y-201566438D01*
X212315162Y-201813201D01*
X212314838Y-202185167D01*
X212456883Y-202528943D01*
X212719673Y-202792192D01*
X213063201Y-202934838D01*
X213435167Y-202935162D01*
X213738632Y-202809773D01*
X218064947Y-202809773D01*
X218064838Y-202935167D01*
X218206883Y-203278943D01*
X218469673Y-203542192D01*
X218813201Y-203684838D01*
X219185167Y-203685162D01*
X219427578Y-203585000D01*
X221072766Y-203585000D01*
X221313201Y-203684838D01*
X221685167Y-203685162D01*
X222028943Y-203543117D01*
X222292192Y-203280327D01*
X222434838Y-202936799D01*
X222434949Y-202809773D01*
X234574760Y-202809773D01*
X234563050Y-202837973D01*
X234562726Y-203209939D01*
X234704771Y-203553715D01*
X234967561Y-203816964D01*
X235311089Y-203959610D01*
X235683055Y-203959934D01*
X236026831Y-203817889D01*
X236290080Y-203555099D01*
X236432726Y-203211571D01*
X236433050Y-202839605D01*
X236332888Y-202597194D01*
X236332888Y-202503019D01*
X236291374Y-202294313D01*
X236269328Y-202183479D01*
X236088322Y-201912585D01*
X235560076Y-201384339D01*
X235289183Y-201203334D01*
X235105387Y-201166775D01*
X235105470Y-201071836D01*
X234963425Y-200728060D01*
X234700635Y-200464811D01*
X234357107Y-200322165D01*
X234259241Y-200322080D01*
X234023491Y-200275186D01*
X223060553Y-200275186D01*
X223084811Y-200216767D01*
X223085188Y-199785127D01*
X222920354Y-199386200D01*
X222615405Y-199080718D01*
X222216767Y-198915189D01*
X221785127Y-198914812D01*
X221421646Y-199065000D01*
X211577552Y-199065000D01*
X211216767Y-198915189D01*
X210785127Y-198914812D01*
X210386200Y-199079646D01*
X210080718Y-199384595D01*
X209915189Y-199783233D01*
X209914812Y-200214873D01*
X194127000Y-200214873D01*
X194127000Y-199500000D01*
X194116994Y-199450590D01*
X194088553Y-199408965D01*
X194046159Y-199381685D01*
X194000000Y-199373000D01*
X168127000Y-199373000D01*
X168127000Y-195470000D01*
X170182560Y-195470000D01*
X170182560Y-196970000D01*
X170226838Y-197205317D01*
X170365910Y-197421441D01*
X170578110Y-197566431D01*
X170830000Y-197617440D01*
X172330000Y-197617440D01*
X172565317Y-197573162D01*
X172781441Y-197434090D01*
X172926431Y-197221890D01*
X172977440Y-196970000D01*
X172977440Y-195470000D01*
X185182560Y-195470000D01*
X185182560Y-196970000D01*
X185226838Y-197205317D01*
X185365910Y-197421441D01*
X185578110Y-197566431D01*
X185830000Y-197617440D01*
X187330000Y-197617440D01*
X187565317Y-197573162D01*
X187781441Y-197434090D01*
X187926431Y-197221890D01*
X187977440Y-196970000D01*
X187977440Y-195470000D01*
X187933162Y-195234683D01*
X187794090Y-195018559D01*
X187702231Y-194955795D01*
X187868327Y-194789698D01*
X187965000Y-194556309D01*
X187965000Y-193977882D01*
X206072968Y-193977882D01*
X206237802Y-194376809D01*
X206542751Y-194682291D01*
X206905970Y-194833113D01*
X209102653Y-197029796D01*
X209405989Y-197232478D01*
X209465354Y-197244287D01*
X209763798Y-197303652D01*
X209763803Y-197303651D01*
X221329468Y-197303651D01*
X221621073Y-197595256D01*
X221770255Y-197956302D01*
X222075204Y-198261784D01*
X222473842Y-198427313D01*
X222905482Y-198427690D01*
X223304409Y-198262856D01*
X223609891Y-197957907D01*
X223775420Y-197559269D01*
X223775797Y-197127629D01*
X223610963Y-196728702D01*
X223306014Y-196423220D01*
X222942795Y-196272398D01*
X222377903Y-195707506D01*
X222074567Y-195504824D01*
X221716758Y-195433651D01*
X210151088Y-195433651D01*
X208227692Y-193510255D01*
X208093368Y-193185167D01*
X215314838Y-193185167D01*
X215456883Y-193528943D01*
X215719673Y-193792192D01*
X216063201Y-193934838D01*
X216435167Y-193935162D01*
X216677578Y-193835000D01*
X221154132Y-193835000D01*
X221607465Y-194288333D01*
X221706883Y-194528943D01*
X221969673Y-194792192D01*
X222313201Y-194934838D01*
X222685167Y-194935162D01*
X223028943Y-194793117D01*
X223292192Y-194530327D01*
X223434838Y-194186799D01*
X223435162Y-193814833D01*
X223304931Y-193499649D01*
X223434838Y-193186799D01*
X223435162Y-192814833D01*
X223293117Y-192471057D01*
X223157297Y-192335000D01*
X227072766Y-192335000D01*
X227313201Y-192434838D01*
X227685167Y-192435162D01*
X228028943Y-192293117D01*
X228292192Y-192030327D01*
X228434838Y-191686799D01*
X228435162Y-191314833D01*
X228293117Y-190971057D01*
X228030327Y-190707808D01*
X227686799Y-190565162D01*
X227314833Y-190564838D01*
X227072422Y-190665000D01*
X217677234Y-190665000D01*
X217436799Y-190565162D01*
X217064833Y-190564838D01*
X216721057Y-190706883D01*
X216457808Y-190969673D01*
X216315162Y-191313201D01*
X216314838Y-191685167D01*
X216456883Y-192028943D01*
X216532856Y-192105048D01*
X216436799Y-192065162D01*
X216064833Y-192064838D01*
X215721057Y-192206883D01*
X215457808Y-192469673D01*
X215315162Y-192813201D01*
X215314838Y-193185167D01*
X208093368Y-193185167D01*
X208078510Y-193149209D01*
X207773561Y-192843727D01*
X207374923Y-192678198D01*
X206943283Y-192677821D01*
X206544356Y-192842655D01*
X206238874Y-193147604D01*
X206073345Y-193546242D01*
X206072968Y-193977882D01*
X187965000Y-193977882D01*
X187965000Y-193965750D01*
X187806250Y-193807000D01*
X186707000Y-193807000D01*
X186707000Y-193827000D01*
X186453000Y-193827000D01*
X186453000Y-193807000D01*
X185353750Y-193807000D01*
X185195000Y-193965750D01*
X185195000Y-194556309D01*
X185291673Y-194789698D01*
X185457249Y-194955275D01*
X185378559Y-195005910D01*
X185233569Y-195218110D01*
X185182560Y-195470000D01*
X172977440Y-195470000D01*
X172933162Y-195234683D01*
X172794090Y-195018559D01*
X172702231Y-194955795D01*
X172868327Y-194789698D01*
X172965000Y-194556309D01*
X172965000Y-193965750D01*
X172806250Y-193807000D01*
X171707000Y-193807000D01*
X171707000Y-193827000D01*
X171453000Y-193827000D01*
X171453000Y-193807000D01*
X170353750Y-193807000D01*
X170195000Y-193965750D01*
X170195000Y-194556309D01*
X170291673Y-194789698D01*
X170457249Y-194955275D01*
X170378559Y-195005910D01*
X170233569Y-195218110D01*
X170182560Y-195470000D01*
X168127000Y-195470000D01*
X168127000Y-192803691D01*
X170195000Y-192803691D01*
X170195000Y-193394250D01*
X170353750Y-193553000D01*
X171453000Y-193553000D01*
X171453000Y-192453750D01*
X171707000Y-192453750D01*
X171707000Y-193553000D01*
X172806250Y-193553000D01*
X172965000Y-193394250D01*
X172965000Y-192803691D01*
X185195000Y-192803691D01*
X185195000Y-193394250D01*
X185353750Y-193553000D01*
X186453000Y-193553000D01*
X186453000Y-192453750D01*
X186707000Y-192453750D01*
X186707000Y-193553000D01*
X187806250Y-193553000D01*
X187965000Y-193394250D01*
X187965000Y-192803691D01*
X187868327Y-192570302D01*
X187689699Y-192391673D01*
X187456310Y-192295000D01*
X186865750Y-192295000D01*
X186707000Y-192453750D01*
X186453000Y-192453750D01*
X186294250Y-192295000D01*
X185703690Y-192295000D01*
X185470301Y-192391673D01*
X185291673Y-192570302D01*
X185195000Y-192803691D01*
X172965000Y-192803691D01*
X172868327Y-192570302D01*
X172689699Y-192391673D01*
X172456310Y-192295000D01*
X171865750Y-192295000D01*
X171707000Y-192453750D01*
X171453000Y-192453750D01*
X171294250Y-192295000D01*
X170703690Y-192295000D01*
X170470301Y-192391673D01*
X170291673Y-192570302D01*
X170195000Y-192803691D01*
X168127000Y-192803691D01*
X168127000Y-177302606D01*
X173580434Y-171849172D01*
X173580434Y-183862810D01*
X173430623Y-184223595D01*
X173430246Y-184655235D01*
X173595080Y-185054162D01*
X173900029Y-185359644D01*
X174298667Y-185525173D01*
X174730307Y-185525550D01*
X175129234Y-185360716D01*
X175275331Y-185214873D01*
X184914812Y-185214873D01*
X185065000Y-185578354D01*
X185065000Y-188951066D01*
X185136173Y-189308875D01*
X185338855Y-189612211D01*
X187669388Y-191942744D01*
X187818570Y-192303790D01*
X188123519Y-192609272D01*
X188522157Y-192774801D01*
X188953797Y-192775178D01*
X189352724Y-192610344D01*
X189658206Y-192305395D01*
X189823735Y-191906757D01*
X189824112Y-191475117D01*
X189659278Y-191076190D01*
X189354329Y-190770708D01*
X188991110Y-190619886D01*
X187090233Y-188719009D01*
X188711814Y-188719009D01*
X188876648Y-189117936D01*
X189181597Y-189423418D01*
X189580235Y-189588947D01*
X190011875Y-189589324D01*
X190410802Y-189424490D01*
X190459658Y-189375719D01*
X194089610Y-189375719D01*
X194080718Y-189384595D01*
X193915189Y-189783233D01*
X193914812Y-190214873D01*
X194079646Y-190613800D01*
X194384595Y-190919282D01*
X194783233Y-191084811D01*
X195214873Y-191085188D01*
X195578354Y-190935000D01*
X198422448Y-190935000D01*
X198783233Y-191084811D01*
X199214873Y-191085188D01*
X199613800Y-190920354D01*
X199919282Y-190615405D01*
X200084811Y-190216767D01*
X200085188Y-189785127D01*
X199920354Y-189386200D01*
X199909891Y-189375719D01*
X200559281Y-189375719D01*
X200917090Y-189304546D01*
X201220426Y-189101864D01*
X202387290Y-187935000D01*
X202422448Y-187935000D01*
X202783233Y-188084811D01*
X203214873Y-188085188D01*
X203578354Y-187935000D01*
X204303053Y-187935000D01*
X204302742Y-188291642D01*
X204444787Y-188635418D01*
X204707577Y-188898667D01*
X205051105Y-189041313D01*
X205423071Y-189041637D01*
X205660438Y-188943559D01*
X208366136Y-188943559D01*
X208606571Y-189043397D01*
X208978537Y-189043721D01*
X209322313Y-188901676D01*
X209585562Y-188638886D01*
X209728208Y-188295358D01*
X209728522Y-187935000D01*
X214065056Y-187935000D01*
X214064838Y-188185167D01*
X214195069Y-188500351D01*
X214065162Y-188813201D01*
X214064838Y-189185167D01*
X214206883Y-189528943D01*
X214469673Y-189792192D01*
X214813201Y-189934838D01*
X215185167Y-189935162D01*
X215427578Y-189835000D01*
X223995247Y-189835000D01*
X224145446Y-189985461D01*
X224488974Y-190128107D01*
X224860940Y-190128431D01*
X225204716Y-189986386D01*
X225467965Y-189723596D01*
X225610611Y-189380068D01*
X225610845Y-189111529D01*
X225877610Y-189111761D01*
X226221386Y-188969716D01*
X226484635Y-188706926D01*
X226627281Y-188363398D01*
X226627605Y-187991432D01*
X226604288Y-187935000D01*
X227422448Y-187935000D01*
X227783233Y-188084811D01*
X228214873Y-188085188D01*
X228613800Y-187920354D01*
X228919282Y-187615405D01*
X229040954Y-187322385D01*
X245418645Y-187322385D01*
X245583479Y-187721312D01*
X245888428Y-188026794D01*
X246287066Y-188192323D01*
X246718706Y-188192700D01*
X247082187Y-188042512D01*
X251541560Y-188042512D01*
X251899369Y-187971339D01*
X252202705Y-187768657D01*
X254147652Y-185823710D01*
X254518800Y-185670354D01*
X254824282Y-185365405D01*
X254989811Y-184966767D01*
X254990188Y-184535127D01*
X254825354Y-184136200D01*
X254520405Y-183830718D01*
X254121767Y-183665189D01*
X253690127Y-183664812D01*
X253291200Y-183829646D01*
X252985718Y-184134595D01*
X252839106Y-184487676D01*
X251154270Y-186172512D01*
X247081385Y-186172512D01*
X246720600Y-186022701D01*
X246288960Y-186022324D01*
X245890033Y-186187158D01*
X245584551Y-186492107D01*
X245419022Y-186890745D01*
X245418645Y-187322385D01*
X229040954Y-187322385D01*
X229084811Y-187216767D01*
X229085188Y-186785127D01*
X228920354Y-186386200D01*
X228615405Y-186080718D01*
X228216767Y-185915189D01*
X227785127Y-185914812D01*
X227421646Y-186065000D01*
X203577552Y-186065000D01*
X203216767Y-185915189D01*
X202785127Y-185914812D01*
X202421646Y-186065000D01*
X202000005Y-186065000D01*
X202000000Y-186064999D01*
X201701556Y-186124364D01*
X201642191Y-186136173D01*
X201392051Y-186303311D01*
X201338855Y-186338855D01*
X200171991Y-187505719D01*
X200094663Y-187505719D01*
X200193473Y-187267757D01*
X200193850Y-186836117D01*
X200029016Y-186437190D01*
X199724067Y-186131708D01*
X199325429Y-185966179D01*
X198893789Y-185965802D01*
X198647035Y-186067759D01*
X197858320Y-186067759D01*
X197896469Y-185975886D01*
X197896793Y-185603920D01*
X197754748Y-185260144D01*
X197491958Y-184996895D01*
X197148430Y-184854249D01*
X196776464Y-184853925D01*
X196569676Y-184939368D01*
X193459062Y-184939368D01*
X193218627Y-184839530D01*
X192846661Y-184839206D01*
X192502885Y-184981251D01*
X192239636Y-185244041D01*
X192096990Y-185587569D01*
X192096672Y-185952504D01*
X192013451Y-185917948D01*
X191581811Y-185917571D01*
X191182884Y-186082405D01*
X190877402Y-186387354D01*
X190711873Y-186785992D01*
X190711496Y-187217632D01*
X190830532Y-187505719D01*
X190221829Y-187505719D01*
X190013769Y-187419325D01*
X189582129Y-187418948D01*
X189183202Y-187583782D01*
X188877720Y-187888731D01*
X188712191Y-188287369D01*
X188711814Y-188719009D01*
X187090233Y-188719009D01*
X186935000Y-188563776D01*
X186935000Y-185577552D01*
X187084811Y-185216767D01*
X187085188Y-184785127D01*
X186920354Y-184386200D01*
X186615405Y-184080718D01*
X186216767Y-183915189D01*
X185785127Y-183914812D01*
X185386200Y-184079646D01*
X185080718Y-184384595D01*
X184915189Y-184783233D01*
X184914812Y-185214873D01*
X175275331Y-185214873D01*
X175434716Y-185055767D01*
X175600245Y-184657129D01*
X175600622Y-184225489D01*
X175450434Y-183862008D01*
X175450434Y-176272348D01*
X204163659Y-176272348D01*
X204163659Y-176330534D01*
X204276698Y-176898819D01*
X204598605Y-177380588D01*
X204884237Y-177571441D01*
X204598605Y-177762294D01*
X204276698Y-178244063D01*
X204163659Y-178812348D01*
X204163659Y-178870534D01*
X204276698Y-179438819D01*
X204598605Y-179920588D01*
X205080374Y-180242495D01*
X205648659Y-180355534D01*
X206216944Y-180242495D01*
X206698713Y-179920588D01*
X206918659Y-179591415D01*
X207138605Y-179920588D01*
X207620374Y-180242495D01*
X208188659Y-180355534D01*
X208756944Y-180242495D01*
X209238713Y-179920588D01*
X209458659Y-179591415D01*
X209678605Y-179920588D01*
X210160374Y-180242495D01*
X210728659Y-180355534D01*
X211296944Y-180242495D01*
X211778713Y-179920588D01*
X211998659Y-179591415D01*
X212218605Y-179920588D01*
X212700374Y-180242495D01*
X213268659Y-180355534D01*
X213836944Y-180242495D01*
X214318713Y-179920588D01*
X214538659Y-179591415D01*
X214758605Y-179920588D01*
X215240374Y-180242495D01*
X215808659Y-180355534D01*
X216376944Y-180242495D01*
X216858713Y-179920588D01*
X217085212Y-179581607D01*
X222032937Y-179581607D01*
X222174982Y-179925383D01*
X222437772Y-180188632D01*
X222680009Y-180289218D01*
X226704849Y-184314058D01*
X226822369Y-184598479D01*
X227085159Y-184861728D01*
X227428687Y-185004374D01*
X227800653Y-185004698D01*
X228144429Y-184862653D01*
X228407678Y-184599863D01*
X228550324Y-184256335D01*
X228550648Y-183884369D01*
X228539420Y-183857194D01*
X229306740Y-183857194D01*
X229547175Y-183957032D01*
X229919141Y-183957356D01*
X230262917Y-183815311D01*
X230526166Y-183552521D01*
X230668812Y-183208993D01*
X230669136Y-182837027D01*
X230527091Y-182493251D01*
X230264301Y-182230002D01*
X229920773Y-182087356D01*
X229548807Y-182087032D01*
X229306396Y-182187194D01*
X228368062Y-182187194D01*
X227824361Y-181643493D01*
X230520705Y-181643493D01*
X230761140Y-181743331D01*
X231133106Y-181743655D01*
X231476882Y-181601610D01*
X231740131Y-181338820D01*
X231882777Y-180995292D01*
X231883101Y-180623326D01*
X231741056Y-180279550D01*
X231478266Y-180016301D01*
X231156172Y-179882555D01*
X249632254Y-179882555D01*
X249774299Y-180226331D01*
X250014557Y-180467009D01*
X249960210Y-180597891D01*
X249959886Y-180969857D01*
X250101931Y-181313633D01*
X250364721Y-181576882D01*
X250708249Y-181719528D01*
X251080215Y-181719852D01*
X251322626Y-181619690D01*
X253381764Y-181619690D01*
X254239488Y-182477414D01*
X254338906Y-182718024D01*
X254601696Y-182981273D01*
X254945224Y-183123919D01*
X255317190Y-183124243D01*
X255660966Y-182982198D01*
X255924215Y-182719408D01*
X256066861Y-182375880D01*
X256067185Y-182003914D01*
X255925140Y-181660138D01*
X255662350Y-181396889D01*
X255420113Y-181296303D01*
X254656198Y-180532388D01*
X254764417Y-180532388D01*
X254804903Y-180630372D01*
X255067693Y-180893621D01*
X255411221Y-181036267D01*
X255783187Y-181036591D01*
X256126963Y-180894546D01*
X256390212Y-180631756D01*
X256532858Y-180288228D01*
X256533182Y-179916262D01*
X256391137Y-179572486D01*
X256128347Y-179309237D01*
X255886110Y-179208651D01*
X255784413Y-179106954D01*
X255624345Y-179000000D01*
X255513520Y-178925949D01*
X255193979Y-178862388D01*
X250994650Y-178862388D01*
X250754215Y-178762550D01*
X250382249Y-178762226D01*
X250038473Y-178904271D01*
X249775224Y-179167061D01*
X249632578Y-179510589D01*
X249632254Y-179882555D01*
X231156172Y-179882555D01*
X231134738Y-179873655D01*
X230762772Y-179873331D01*
X230520361Y-179973493D01*
X228154361Y-179973493D01*
X226892535Y-178711667D01*
X226793117Y-178471057D01*
X226530327Y-178207808D01*
X226186799Y-178065162D01*
X225814833Y-178064838D01*
X225471057Y-178206883D01*
X225207808Y-178469673D01*
X225065162Y-178813201D01*
X225064943Y-179065056D01*
X224814833Y-179064838D01*
X224471057Y-179206883D01*
X224215010Y-179462483D01*
X223860634Y-179108107D01*
X223761216Y-178867497D01*
X223498426Y-178604248D01*
X223154898Y-178461602D01*
X222782932Y-178461278D01*
X222439156Y-178603323D01*
X222175907Y-178866113D01*
X222033261Y-179209641D01*
X222032937Y-179581607D01*
X217085212Y-179581607D01*
X217180620Y-179438819D01*
X217293659Y-178870534D01*
X217293659Y-178812348D01*
X217180620Y-178244063D01*
X216858713Y-177762294D01*
X216852801Y-177758344D01*
X217018358Y-177689768D01*
X217196986Y-177511139D01*
X217293659Y-177277750D01*
X217293659Y-176587191D01*
X217134909Y-176428441D01*
X215935659Y-176428441D01*
X215935659Y-176448441D01*
X215681659Y-176448441D01*
X215681659Y-176428441D01*
X213395659Y-176428441D01*
X213395659Y-176448441D01*
X213141659Y-176448441D01*
X213141659Y-176428441D01*
X210855659Y-176428441D01*
X210855659Y-176448441D01*
X210601659Y-176448441D01*
X210601659Y-176428441D01*
X208315659Y-176428441D01*
X208315659Y-176448441D01*
X208061659Y-176448441D01*
X208061659Y-176428441D01*
X208041659Y-176428441D01*
X208041659Y-176174441D01*
X208061659Y-176174441D01*
X208061659Y-174981286D01*
X208315659Y-174981286D01*
X208315659Y-176174441D01*
X210601659Y-176174441D01*
X210601659Y-174981286D01*
X210855659Y-174981286D01*
X210855659Y-176174441D01*
X213141659Y-176174441D01*
X213141659Y-174981286D01*
X213395659Y-174981286D01*
X213395659Y-176174441D01*
X215681659Y-176174441D01*
X215681659Y-174975191D01*
X215935659Y-174975191D01*
X215935659Y-176174441D01*
X217134909Y-176174441D01*
X217293659Y-176015691D01*
X217293659Y-175536661D01*
X227202758Y-175536661D01*
X227414990Y-176050303D01*
X227807630Y-176443629D01*
X228320900Y-176656757D01*
X228876661Y-176657242D01*
X229390303Y-176445010D01*
X229595457Y-176240213D01*
X230339392Y-176240213D01*
X230408857Y-176482397D01*
X230932302Y-176669144D01*
X231487368Y-176641362D01*
X231871143Y-176482397D01*
X231940608Y-176240213D01*
X231140000Y-175439605D01*
X230339392Y-176240213D01*
X229595457Y-176240213D01*
X229783629Y-176052370D01*
X229863395Y-175860273D01*
X229917603Y-175991143D01*
X230159787Y-176060608D01*
X230960395Y-175260000D01*
X231319605Y-175260000D01*
X232120213Y-176060608D01*
X232362397Y-175991143D01*
X232412509Y-175850682D01*
X232494990Y-176050303D01*
X232887630Y-176443629D01*
X233400900Y-176656757D01*
X233956661Y-176657242D01*
X234470303Y-176445010D01*
X234863629Y-176052370D01*
X235073995Y-175545750D01*
X237275000Y-175545750D01*
X237275000Y-176236309D01*
X237371673Y-176469698D01*
X237550301Y-176648327D01*
X237783690Y-176745000D01*
X238474250Y-176745000D01*
X238633000Y-176586250D01*
X238633000Y-175387000D01*
X237433750Y-175387000D01*
X237275000Y-175545750D01*
X235073995Y-175545750D01*
X235076757Y-175539100D01*
X235077242Y-174983339D01*
X234865010Y-174469697D01*
X234679329Y-174283691D01*
X237275000Y-174283691D01*
X237275000Y-174974250D01*
X237433750Y-175133000D01*
X238633000Y-175133000D01*
X238633000Y-173933750D01*
X238887000Y-173933750D01*
X238887000Y-175133000D01*
X238907000Y-175133000D01*
X238907000Y-175387000D01*
X238887000Y-175387000D01*
X238887000Y-176586250D01*
X239045750Y-176745000D01*
X239736310Y-176745000D01*
X239969699Y-176648327D01*
X240148327Y-176469698D01*
X240220597Y-176295223D01*
X240249946Y-176339147D01*
X240731715Y-176661054D01*
X241300000Y-176774093D01*
X241868285Y-176661054D01*
X242350054Y-176339147D01*
X242570000Y-176009974D01*
X242789946Y-176339147D01*
X243271715Y-176661054D01*
X243840000Y-176774093D01*
X244408285Y-176661054D01*
X244890054Y-176339147D01*
X245110000Y-176009974D01*
X245329946Y-176339147D01*
X245811715Y-176661054D01*
X246380000Y-176774093D01*
X246948285Y-176661054D01*
X247430054Y-176339147D01*
X247650000Y-176009974D01*
X247869946Y-176339147D01*
X248351715Y-176661054D01*
X248920000Y-176774093D01*
X249488285Y-176661054D01*
X249970054Y-176339147D01*
X250190000Y-176009974D01*
X250409946Y-176339147D01*
X250891715Y-176661054D01*
X251460000Y-176774093D01*
X252028285Y-176661054D01*
X252510054Y-176339147D01*
X252831961Y-175857378D01*
X252945000Y-175289093D01*
X252945000Y-175230907D01*
X252831961Y-174662622D01*
X252510054Y-174180853D01*
X252028285Y-173858946D01*
X251460000Y-173745907D01*
X250891715Y-173858946D01*
X250409946Y-174180853D01*
X250190000Y-174510026D01*
X249970054Y-174180853D01*
X249488285Y-173858946D01*
X248920000Y-173745907D01*
X248351715Y-173858946D01*
X247869946Y-174180853D01*
X247650000Y-174510026D01*
X247430054Y-174180853D01*
X246948285Y-173858946D01*
X246380000Y-173745907D01*
X245811715Y-173858946D01*
X245329946Y-174180853D01*
X245110000Y-174510026D01*
X244890054Y-174180853D01*
X244408285Y-173858946D01*
X243840000Y-173745907D01*
X243271715Y-173858946D01*
X242789946Y-174180853D01*
X242570000Y-174510026D01*
X242350054Y-174180853D01*
X241868285Y-173858946D01*
X241300000Y-173745907D01*
X240731715Y-173858946D01*
X240249946Y-174180853D01*
X240220597Y-174224777D01*
X240148327Y-174050302D01*
X239969699Y-173871673D01*
X239736310Y-173775000D01*
X239045750Y-173775000D01*
X238887000Y-173933750D01*
X238633000Y-173933750D01*
X238474250Y-173775000D01*
X237783690Y-173775000D01*
X237550301Y-173871673D01*
X237371673Y-174050302D01*
X237275000Y-174283691D01*
X234679329Y-174283691D01*
X234472370Y-174076371D01*
X233959100Y-173863243D01*
X233403339Y-173862758D01*
X232889697Y-174074990D01*
X232496371Y-174467630D01*
X232416605Y-174659727D01*
X232362397Y-174528857D01*
X232120213Y-174459392D01*
X231319605Y-175260000D01*
X230960395Y-175260000D01*
X230159787Y-174459392D01*
X229917603Y-174528857D01*
X229867491Y-174669318D01*
X229785010Y-174469697D01*
X229595432Y-174279787D01*
X230339392Y-174279787D01*
X231140000Y-175080395D01*
X231940608Y-174279787D01*
X231871143Y-174037603D01*
X231347698Y-173850856D01*
X230792632Y-173878638D01*
X230408857Y-174037603D01*
X230339392Y-174279787D01*
X229595432Y-174279787D01*
X229392370Y-174076371D01*
X228879100Y-173863243D01*
X228323339Y-173862758D01*
X227809697Y-174074990D01*
X227416371Y-174467630D01*
X227203243Y-174980900D01*
X227202758Y-175536661D01*
X217293659Y-175536661D01*
X217293659Y-175325132D01*
X217196986Y-175091743D01*
X217018358Y-174913114D01*
X216784969Y-174816441D01*
X216094409Y-174816441D01*
X215935659Y-174975191D01*
X215681659Y-174975191D01*
X215522909Y-174816441D01*
X214832349Y-174816441D01*
X214598960Y-174913114D01*
X214420332Y-175091743D01*
X214333523Y-175301319D01*
X214035583Y-175029796D01*
X213625549Y-174859965D01*
X213395659Y-174981286D01*
X213141659Y-174981286D01*
X212911769Y-174859965D01*
X212501735Y-175029796D01*
X212073476Y-175420083D01*
X211998659Y-175579395D01*
X211923842Y-175420083D01*
X211495583Y-175029796D01*
X211085549Y-174859965D01*
X210855659Y-174981286D01*
X210601659Y-174981286D01*
X210371769Y-174859965D01*
X209961735Y-175029796D01*
X209533476Y-175420083D01*
X209458659Y-175579395D01*
X209383842Y-175420083D01*
X208955583Y-175029796D01*
X208545549Y-174859965D01*
X208315659Y-174981286D01*
X208061659Y-174981286D01*
X207831769Y-174859965D01*
X207421735Y-175029796D01*
X206993476Y-175420083D01*
X206926361Y-175562994D01*
X206698713Y-175222294D01*
X206216944Y-174900387D01*
X205648659Y-174787348D01*
X205080374Y-174900387D01*
X204598605Y-175222294D01*
X204276698Y-175704063D01*
X204163659Y-176272348D01*
X175450434Y-176272348D01*
X175450434Y-174214873D01*
X192914812Y-174214873D01*
X193079646Y-174613800D01*
X193384595Y-174919282D01*
X193783233Y-175084811D01*
X194214873Y-175085188D01*
X194613800Y-174920354D01*
X194919282Y-174615405D01*
X195084811Y-174216767D01*
X195085188Y-173785127D01*
X194935000Y-173421646D01*
X194935000Y-172352463D01*
X194956017Y-172331483D01*
X195004437Y-172214873D01*
X218914812Y-172214873D01*
X219079646Y-172613800D01*
X219384595Y-172919282D01*
X219783233Y-173084811D01*
X220214873Y-173085188D01*
X220578354Y-172935000D01*
X226422448Y-172935000D01*
X226783233Y-173084811D01*
X227214873Y-173085188D01*
X227613800Y-172920354D01*
X227919282Y-172615405D01*
X228084811Y-172216767D01*
X228085188Y-171785127D01*
X227920354Y-171386200D01*
X227615405Y-171080718D01*
X227216767Y-170915189D01*
X226785127Y-170914812D01*
X226421646Y-171065000D01*
X220577552Y-171065000D01*
X220216767Y-170915189D01*
X219785127Y-170914812D01*
X219386200Y-171079646D01*
X219080718Y-171384595D01*
X218915189Y-171783233D01*
X218914812Y-172214873D01*
X195004437Y-172214873D01*
X195121546Y-171932845D01*
X195121923Y-171501205D01*
X194957089Y-171102278D01*
X194652140Y-170796796D01*
X194253502Y-170631267D01*
X193821862Y-170630890D01*
X193422935Y-170795724D01*
X193117453Y-171100673D01*
X192951924Y-171499311D01*
X192951547Y-171930951D01*
X193065000Y-172205527D01*
X193065000Y-173422448D01*
X192915189Y-173783233D01*
X192914812Y-174214873D01*
X175450434Y-174214873D01*
X175450434Y-171871856D01*
X179252754Y-168069536D01*
X179613800Y-167920354D01*
X179718327Y-167816009D01*
X220815000Y-167816009D01*
X220815000Y-168983991D01*
X220905203Y-169437471D01*
X221162078Y-169821913D01*
X221546520Y-170078788D01*
X222000000Y-170168991D01*
X222453480Y-170078788D01*
X222837922Y-169821913D01*
X223000000Y-169579345D01*
X223162078Y-169821913D01*
X223546520Y-170078788D01*
X224000000Y-170168991D01*
X224453480Y-170078788D01*
X224837922Y-169821913D01*
X225000000Y-169579345D01*
X225162078Y-169821913D01*
X225546520Y-170078788D01*
X226000000Y-170168991D01*
X226453480Y-170078788D01*
X226837922Y-169821913D01*
X227000000Y-169579345D01*
X227162078Y-169821913D01*
X227546520Y-170078788D01*
X228000000Y-170168991D01*
X228453480Y-170078788D01*
X228837922Y-169821913D01*
X229000000Y-169579345D01*
X229162078Y-169821913D01*
X229546520Y-170078788D01*
X230000000Y-170168991D01*
X230453480Y-170078788D01*
X230837922Y-169821913D01*
X231000000Y-169579345D01*
X231162078Y-169821913D01*
X231546520Y-170078788D01*
X232000000Y-170168991D01*
X232453480Y-170078788D01*
X232837922Y-169821913D01*
X233000000Y-169579345D01*
X233162078Y-169821913D01*
X233546520Y-170078788D01*
X234000000Y-170168991D01*
X234453480Y-170078788D01*
X234837922Y-169821913D01*
X235000000Y-169579345D01*
X235162078Y-169821913D01*
X235546520Y-170078788D01*
X236000000Y-170168991D01*
X236453480Y-170078788D01*
X236837922Y-169821913D01*
X237000000Y-169579345D01*
X237162078Y-169821913D01*
X237546520Y-170078788D01*
X238000000Y-170168991D01*
X238453480Y-170078788D01*
X238837922Y-169821913D01*
X239000000Y-169579345D01*
X239162078Y-169821913D01*
X239546520Y-170078788D01*
X240000000Y-170168991D01*
X240453480Y-170078788D01*
X240837922Y-169821913D01*
X241000000Y-169579345D01*
X241162078Y-169821913D01*
X241546520Y-170078788D01*
X242000000Y-170168991D01*
X242453480Y-170078788D01*
X242837922Y-169821913D01*
X243000000Y-169579345D01*
X243162078Y-169821913D01*
X243546520Y-170078788D01*
X244000000Y-170168991D01*
X244453480Y-170078788D01*
X244837922Y-169821913D01*
X245000000Y-169579345D01*
X245162078Y-169821913D01*
X245546520Y-170078788D01*
X246000000Y-170168991D01*
X246453480Y-170078788D01*
X246837922Y-169821913D01*
X247000000Y-169579345D01*
X247162078Y-169821913D01*
X247546520Y-170078788D01*
X247548523Y-170079187D01*
X246562710Y-171065000D01*
X240577552Y-171065000D01*
X240216767Y-170915189D01*
X239785127Y-170914812D01*
X239386200Y-171079646D01*
X239080718Y-171384595D01*
X238915189Y-171783233D01*
X238914812Y-172214873D01*
X239079646Y-172613800D01*
X239384595Y-172919282D01*
X239783233Y-173084811D01*
X240214873Y-173085188D01*
X240578354Y-172935000D01*
X246950000Y-172935000D01*
X247307809Y-172863827D01*
X247611145Y-172661145D01*
X250128949Y-170143341D01*
X250453480Y-170078788D01*
X250837922Y-169821913D01*
X251001195Y-169577557D01*
X251251882Y-169877724D01*
X251663854Y-170093398D01*
X251690256Y-170093803D01*
X251873000Y-169968361D01*
X251873000Y-168527000D01*
X252127000Y-168527000D01*
X252127000Y-169968361D01*
X252309744Y-170093803D01*
X252336146Y-170093398D01*
X252748118Y-169877724D01*
X253046196Y-169520813D01*
X253185000Y-169077000D01*
X253185000Y-168527000D01*
X252127000Y-168527000D01*
X251873000Y-168527000D01*
X251853000Y-168527000D01*
X251853000Y-168273000D01*
X251873000Y-168273000D01*
X251873000Y-166831639D01*
X252127000Y-166831639D01*
X252127000Y-168273000D01*
X253185000Y-168273000D01*
X253185000Y-167723000D01*
X253046196Y-167279187D01*
X252748118Y-166922276D01*
X252336146Y-166706602D01*
X252309744Y-166706197D01*
X252127000Y-166831639D01*
X251873000Y-166831639D01*
X251690256Y-166706197D01*
X251663854Y-166706602D01*
X251251882Y-166922276D01*
X251001195Y-167222443D01*
X250837922Y-166978087D01*
X250453480Y-166721212D01*
X250000000Y-166631009D01*
X249546520Y-166721212D01*
X249162078Y-166978087D01*
X249000000Y-167220655D01*
X248837922Y-166978087D01*
X248453480Y-166721212D01*
X248000000Y-166631009D01*
X247546520Y-166721212D01*
X247162078Y-166978087D01*
X247000000Y-167220655D01*
X246837922Y-166978087D01*
X246453480Y-166721212D01*
X246000000Y-166631009D01*
X245546520Y-166721212D01*
X245162078Y-166978087D01*
X245000000Y-167220655D01*
X244837922Y-166978087D01*
X244453480Y-166721212D01*
X244000000Y-166631009D01*
X243546520Y-166721212D01*
X243162078Y-166978087D01*
X243000000Y-167220655D01*
X242837922Y-166978087D01*
X242453480Y-166721212D01*
X242000000Y-166631009D01*
X241546520Y-166721212D01*
X241162078Y-166978087D01*
X241000000Y-167220655D01*
X240837922Y-166978087D01*
X240453480Y-166721212D01*
X240000000Y-166631009D01*
X239546520Y-166721212D01*
X239162078Y-166978087D01*
X239000000Y-167220655D01*
X238837922Y-166978087D01*
X238453480Y-166721212D01*
X238000000Y-166631009D01*
X237546520Y-166721212D01*
X237162078Y-166978087D01*
X237000000Y-167220655D01*
X236837922Y-166978087D01*
X236453480Y-166721212D01*
X236000000Y-166631009D01*
X235546520Y-166721212D01*
X235162078Y-166978087D01*
X235000000Y-167220655D01*
X234837922Y-166978087D01*
X234453480Y-166721212D01*
X234000000Y-166631009D01*
X233546520Y-166721212D01*
X233162078Y-166978087D01*
X233000000Y-167220655D01*
X232837922Y-166978087D01*
X232453480Y-166721212D01*
X232000000Y-166631009D01*
X231546520Y-166721212D01*
X231162078Y-166978087D01*
X231000000Y-167220655D01*
X230837922Y-166978087D01*
X230453480Y-166721212D01*
X230000000Y-166631009D01*
X229546520Y-166721212D01*
X229162078Y-166978087D01*
X229000000Y-167220655D01*
X228837922Y-166978087D01*
X228453480Y-166721212D01*
X228000000Y-166631009D01*
X227546520Y-166721212D01*
X227162078Y-166978087D01*
X227000000Y-167220655D01*
X226837922Y-166978087D01*
X226453480Y-166721212D01*
X226000000Y-166631009D01*
X225546520Y-166721212D01*
X225162078Y-166978087D01*
X225000000Y-167220655D01*
X224837922Y-166978087D01*
X224453480Y-166721212D01*
X224000000Y-166631009D01*
X223546520Y-166721212D01*
X223162078Y-166978087D01*
X223000000Y-167220655D01*
X222837922Y-166978087D01*
X222453480Y-166721212D01*
X222000000Y-166631009D01*
X221546520Y-166721212D01*
X221162078Y-166978087D01*
X220905203Y-167362529D01*
X220815000Y-167816009D01*
X179718327Y-167816009D01*
X179919282Y-167615405D01*
X180084811Y-167216767D01*
X180085188Y-166785127D01*
X179920354Y-166386200D01*
X179615405Y-166080718D01*
X179427085Y-166002521D01*
X187589803Y-157839803D01*
X187617666Y-157797789D01*
X187627000Y-157750000D01*
X187627000Y-155935000D01*
X193422448Y-155935000D01*
X193783233Y-156084811D01*
X194214873Y-156085188D01*
X194613800Y-155920354D01*
X194919282Y-155615405D01*
X195084811Y-155216767D01*
X195085188Y-154785127D01*
X194920354Y-154386200D01*
X194615405Y-154080718D01*
X194216767Y-153915189D01*
X193785127Y-153914812D01*
X193421646Y-154065000D01*
X187627000Y-154065000D01*
X187627000Y-153373305D01*
X200114674Y-153373305D01*
X200401043Y-154066372D01*
X200930839Y-154597093D01*
X201623405Y-154884672D01*
X202373305Y-154885326D01*
X203066372Y-154598957D01*
X203332472Y-154333320D01*
X205846285Y-154333320D01*
X205975533Y-154626123D01*
X206675806Y-154894388D01*
X207425435Y-154874250D01*
X208024467Y-154626123D01*
X208153715Y-154333320D01*
X207000000Y-153179605D01*
X205846285Y-154333320D01*
X203332472Y-154333320D01*
X203597093Y-154069161D01*
X203884672Y-153376595D01*
X203885283Y-152675806D01*
X205105612Y-152675806D01*
X205125750Y-153425435D01*
X205373877Y-154024467D01*
X205666680Y-154153715D01*
X206820395Y-153000000D01*
X207179605Y-153000000D01*
X208333320Y-154153715D01*
X208626123Y-154024467D01*
X208894388Y-153324194D01*
X208874250Y-152574565D01*
X208626123Y-151975533D01*
X208333320Y-151846285D01*
X207179605Y-153000000D01*
X206820395Y-153000000D01*
X205666680Y-151846285D01*
X205373877Y-151975533D01*
X205105612Y-152675806D01*
X203885283Y-152675806D01*
X203885326Y-152626695D01*
X203598957Y-151933628D01*
X203332475Y-151666680D01*
X205846285Y-151666680D01*
X207000000Y-152820395D01*
X208153715Y-151666680D01*
X208024467Y-151373877D01*
X207324194Y-151105612D01*
X206574565Y-151125750D01*
X205975533Y-151373877D01*
X205846285Y-151666680D01*
X203332475Y-151666680D01*
X203069161Y-151402907D01*
X202376595Y-151115328D01*
X201626695Y-151114674D01*
X200933628Y-151401043D01*
X200402907Y-151930839D01*
X200115328Y-152623405D01*
X200114674Y-153373305D01*
X187627000Y-153373305D01*
X187627000Y-145127000D01*
X200338763Y-145127000D01*
X200080718Y-145384595D01*
X199915189Y-145783233D01*
X199914812Y-146214873D01*
X200079646Y-146613800D01*
X200384595Y-146919282D01*
X200783233Y-147084811D01*
X201214873Y-147085188D01*
X201578354Y-146935000D01*
X207422448Y-146935000D01*
X207783233Y-147084811D01*
X208214873Y-147085188D01*
X208613800Y-146920354D01*
X208919282Y-146615405D01*
X209084811Y-146216767D01*
X209085188Y-145785127D01*
X208920354Y-145386200D01*
X208615405Y-145080718D01*
X208216767Y-144915189D01*
X207785127Y-144914812D01*
X207421646Y-145065000D01*
X206106191Y-145065000D01*
X206118315Y-145046159D01*
X206127000Y-145000000D01*
X206127000Y-143416009D01*
X220815000Y-143416009D01*
X220815000Y-144583991D01*
X220905203Y-145037471D01*
X221162078Y-145421913D01*
X221546520Y-145678788D01*
X222000000Y-145768991D01*
X222453480Y-145678788D01*
X222837922Y-145421913D01*
X223000000Y-145179345D01*
X223162078Y-145421913D01*
X223546520Y-145678788D01*
X224000000Y-145768991D01*
X224453480Y-145678788D01*
X224837922Y-145421913D01*
X225000000Y-145179345D01*
X225162078Y-145421913D01*
X225546520Y-145678788D01*
X226000000Y-145768991D01*
X226453480Y-145678788D01*
X226837922Y-145421913D01*
X227000000Y-145179345D01*
X227162078Y-145421913D01*
X227546520Y-145678788D01*
X228000000Y-145768991D01*
X228453480Y-145678788D01*
X228837922Y-145421913D01*
X229000000Y-145179345D01*
X229162078Y-145421913D01*
X229546520Y-145678788D01*
X230000000Y-145768991D01*
X230453480Y-145678788D01*
X230837922Y-145421913D01*
X231000000Y-145179345D01*
X231162078Y-145421913D01*
X231546520Y-145678788D01*
X232000000Y-145768991D01*
X232453480Y-145678788D01*
X232837922Y-145421913D01*
X233000000Y-145179345D01*
X233162078Y-145421913D01*
X233546520Y-145678788D01*
X234000000Y-145768991D01*
X234453480Y-145678788D01*
X234837922Y-145421913D01*
X235000000Y-145179345D01*
X235162078Y-145421913D01*
X235546520Y-145678788D01*
X236000000Y-145768991D01*
X236453480Y-145678788D01*
X236837922Y-145421913D01*
X237000000Y-145179345D01*
X237162078Y-145421913D01*
X237546520Y-145678788D01*
X238000000Y-145768991D01*
X238453480Y-145678788D01*
X238837922Y-145421913D01*
X239000000Y-145179345D01*
X239162078Y-145421913D01*
X239546520Y-145678788D01*
X240000000Y-145768991D01*
X240453480Y-145678788D01*
X240837922Y-145421913D01*
X241000000Y-145179345D01*
X241162078Y-145421913D01*
X241546520Y-145678788D01*
X242000000Y-145768991D01*
X242453480Y-145678788D01*
X242837922Y-145421913D01*
X243000000Y-145179345D01*
X243162078Y-145421913D01*
X243546520Y-145678788D01*
X244000000Y-145768991D01*
X244453480Y-145678788D01*
X244837922Y-145421913D01*
X245000000Y-145179345D01*
X245162078Y-145421913D01*
X245546520Y-145678788D01*
X246000000Y-145768991D01*
X246453480Y-145678788D01*
X246837922Y-145421913D01*
X247000000Y-145179345D01*
X247162078Y-145421913D01*
X247546520Y-145678788D01*
X248000000Y-145768991D01*
X248453480Y-145678788D01*
X248837922Y-145421913D01*
X249000000Y-145179345D01*
X249162078Y-145421913D01*
X249546520Y-145678788D01*
X250000000Y-145768991D01*
X250453480Y-145678788D01*
X250837922Y-145421913D01*
X251001195Y-145177557D01*
X251251882Y-145477724D01*
X251663854Y-145693398D01*
X251690256Y-145693803D01*
X251873000Y-145568361D01*
X251873000Y-144127000D01*
X252127000Y-144127000D01*
X252127000Y-145568361D01*
X252309744Y-145693803D01*
X252336146Y-145693398D01*
X252748118Y-145477724D01*
X253046196Y-145120813D01*
X253185000Y-144677000D01*
X253185000Y-144127000D01*
X252127000Y-144127000D01*
X251873000Y-144127000D01*
X251853000Y-144127000D01*
X251853000Y-143873000D01*
X251873000Y-143873000D01*
X251873000Y-142431639D01*
X252127000Y-142431639D01*
X252127000Y-143873000D01*
X253185000Y-143873000D01*
X253185000Y-143323000D01*
X253046196Y-142879187D01*
X252748118Y-142522276D01*
X252336146Y-142306602D01*
X252309744Y-142306197D01*
X252127000Y-142431639D01*
X251873000Y-142431639D01*
X251690256Y-142306197D01*
X251663854Y-142306602D01*
X251251882Y-142522276D01*
X251001195Y-142822443D01*
X250837922Y-142578087D01*
X250453480Y-142321212D01*
X250000000Y-142231009D01*
X249546520Y-142321212D01*
X249162078Y-142578087D01*
X249000000Y-142820655D01*
X248837922Y-142578087D01*
X248453480Y-142321212D01*
X248000000Y-142231009D01*
X247546520Y-142321212D01*
X247162078Y-142578087D01*
X247000000Y-142820655D01*
X246837922Y-142578087D01*
X246453480Y-142321212D01*
X246000000Y-142231009D01*
X245546520Y-142321212D01*
X245162078Y-142578087D01*
X245000000Y-142820655D01*
X244837922Y-142578087D01*
X244453480Y-142321212D01*
X244000000Y-142231009D01*
X243546520Y-142321212D01*
X243162078Y-142578087D01*
X243000000Y-142820655D01*
X242837922Y-142578087D01*
X242453480Y-142321212D01*
X242000000Y-142231009D01*
X241546520Y-142321212D01*
X241162078Y-142578087D01*
X241000000Y-142820655D01*
X240837922Y-142578087D01*
X240453480Y-142321212D01*
X240000000Y-142231009D01*
X239546520Y-142321212D01*
X239162078Y-142578087D01*
X239000000Y-142820655D01*
X238837922Y-142578087D01*
X238453480Y-142321212D01*
X238000000Y-142231009D01*
X237546520Y-142321212D01*
X237162078Y-142578087D01*
X237000000Y-142820655D01*
X236837922Y-142578087D01*
X236453480Y-142321212D01*
X236000000Y-142231009D01*
X235546520Y-142321212D01*
X235162078Y-142578087D01*
X235000000Y-142820655D01*
X234837922Y-142578087D01*
X234453480Y-142321212D01*
X234000000Y-142231009D01*
X233546520Y-142321212D01*
X233162078Y-142578087D01*
X233000000Y-142820655D01*
X232837922Y-142578087D01*
X232453480Y-142321212D01*
X232000000Y-142231009D01*
X231546520Y-142321212D01*
X231162078Y-142578087D01*
X231000000Y-142820655D01*
X230837922Y-142578087D01*
X230453480Y-142321212D01*
X230000000Y-142231009D01*
X229546520Y-142321212D01*
X229162078Y-142578087D01*
X229000000Y-142820655D01*
X228837922Y-142578087D01*
X228453480Y-142321212D01*
X228000000Y-142231009D01*
X227546520Y-142321212D01*
X227162078Y-142578087D01*
X227000000Y-142820655D01*
X226837922Y-142578087D01*
X226453480Y-142321212D01*
X226000000Y-142231009D01*
X225546520Y-142321212D01*
X225162078Y-142578087D01*
X225000000Y-142820655D01*
X224837922Y-142578087D01*
X224453480Y-142321212D01*
X224000000Y-142231009D01*
X223546520Y-142321212D01*
X223162078Y-142578087D01*
X223000000Y-142820655D01*
X222837922Y-142578087D01*
X222453480Y-142321212D01*
X222000000Y-142231009D01*
X221546520Y-142321212D01*
X221162078Y-142578087D01*
X220905203Y-142962529D01*
X220815000Y-143416009D01*
X206127000Y-143416009D01*
X206127000Y-137315238D01*
X233015000Y-137315238D01*
X233015000Y-138684762D01*
X233160009Y-139413774D01*
X233572962Y-140031800D01*
X234190988Y-140444753D01*
X234920000Y-140589762D01*
X235649012Y-140444753D01*
X236267038Y-140031800D01*
X236679991Y-139413774D01*
X236825000Y-138684762D01*
X236825000Y-138127000D01*
X238095000Y-138127000D01*
X238095000Y-138762000D01*
X238288610Y-139481345D01*
X238742764Y-140071841D01*
X239388321Y-140443591D01*
X239577219Y-140492493D01*
X239873000Y-140376626D01*
X239873000Y-138127000D01*
X240127000Y-138127000D01*
X240127000Y-140376626D01*
X240422781Y-140492493D01*
X240611679Y-140443591D01*
X241257236Y-140071841D01*
X241711390Y-139481345D01*
X241905000Y-138762000D01*
X241905000Y-138127000D01*
X240127000Y-138127000D01*
X239873000Y-138127000D01*
X238095000Y-138127000D01*
X236825000Y-138127000D01*
X236825000Y-137315238D01*
X236809637Y-137238000D01*
X238095000Y-137238000D01*
X238095000Y-137873000D01*
X239873000Y-137873000D01*
X239873000Y-135623374D01*
X240127000Y-135623374D01*
X240127000Y-137873000D01*
X241905000Y-137873000D01*
X241905000Y-137238000D01*
X241711390Y-136518655D01*
X241257236Y-135928159D01*
X240611679Y-135556409D01*
X240422781Y-135507507D01*
X240127000Y-135623374D01*
X239873000Y-135623374D01*
X239577219Y-135507507D01*
X239388321Y-135556409D01*
X238742764Y-135928159D01*
X238288610Y-136518655D01*
X238095000Y-137238000D01*
X236809637Y-137238000D01*
X236679991Y-136586226D01*
X236267038Y-135968200D01*
X235649012Y-135555247D01*
X234920000Y-135410238D01*
X234190988Y-135555247D01*
X233572962Y-135968200D01*
X233160009Y-136586226D01*
X233015000Y-137315238D01*
X206127000Y-137315238D01*
X206127000Y-132373305D01*
X211614674Y-132373305D01*
X211901043Y-133066372D01*
X212430839Y-133597093D01*
X213123405Y-133884672D01*
X213873305Y-133885326D01*
X214566372Y-133598957D01*
X214832472Y-133333320D01*
X217346285Y-133333320D01*
X217475533Y-133626123D01*
X218175806Y-133894388D01*
X218925435Y-133874250D01*
X219524467Y-133626123D01*
X219653715Y-133333320D01*
X219535268Y-133214873D01*
X243914812Y-133214873D01*
X244079646Y-133613800D01*
X244384595Y-133919282D01*
X244747814Y-134070104D01*
X245314315Y-134636605D01*
X245617651Y-134839287D01*
X245975460Y-134910460D01*
X255906194Y-134910460D01*
X255985327Y-135101975D01*
X256290276Y-135407457D01*
X256688914Y-135572986D01*
X257120554Y-135573363D01*
X257519481Y-135408529D01*
X257824963Y-135103580D01*
X257990492Y-134704942D01*
X257990869Y-134273302D01*
X257826035Y-133874375D01*
X257521086Y-133568893D01*
X257157867Y-133418071D01*
X257054111Y-133314315D01*
X256750775Y-133111633D01*
X256392966Y-133040460D01*
X246362750Y-133040460D01*
X246069536Y-132747246D01*
X245920354Y-132386200D01*
X245615405Y-132080718D01*
X245216767Y-131915189D01*
X244785127Y-131914812D01*
X244386200Y-132079646D01*
X244080718Y-132384595D01*
X243915189Y-132783233D01*
X243914812Y-133214873D01*
X219535268Y-133214873D01*
X218500000Y-132179605D01*
X217346285Y-133333320D01*
X214832472Y-133333320D01*
X215097093Y-133069161D01*
X215384672Y-132376595D01*
X215385283Y-131675806D01*
X216605612Y-131675806D01*
X216625750Y-132425435D01*
X216873877Y-133024467D01*
X217166680Y-133153715D01*
X218320395Y-132000000D01*
X218679605Y-132000000D01*
X219833320Y-133153715D01*
X220126123Y-133024467D01*
X220394388Y-132324194D01*
X220374250Y-131574565D01*
X220126123Y-130975533D01*
X219833320Y-130846285D01*
X218679605Y-132000000D01*
X218320395Y-132000000D01*
X217166680Y-130846285D01*
X216873877Y-130975533D01*
X216605612Y-131675806D01*
X215385283Y-131675806D01*
X215385326Y-131626695D01*
X215098957Y-130933628D01*
X214832475Y-130666680D01*
X217346285Y-130666680D01*
X218500000Y-131820395D01*
X219653715Y-130666680D01*
X219524467Y-130373877D01*
X218824194Y-130105612D01*
X218074565Y-130125750D01*
X217475533Y-130373877D01*
X217346285Y-130666680D01*
X214832475Y-130666680D01*
X214569161Y-130402907D01*
X213876595Y-130115328D01*
X213126695Y-130114674D01*
X212433628Y-130401043D01*
X211902907Y-130930839D01*
X211615328Y-131623405D01*
X211614674Y-132373305D01*
X206127000Y-132373305D01*
X206127000Y-129695238D01*
X233015000Y-129695238D01*
X233015000Y-131064762D01*
X233160009Y-131793774D01*
X233572962Y-132411800D01*
X234190988Y-132824753D01*
X234920000Y-132969762D01*
X235649012Y-132824753D01*
X236267038Y-132411800D01*
X236679991Y-131793774D01*
X236825000Y-131064762D01*
X236825000Y-130507000D01*
X238095000Y-130507000D01*
X238095000Y-131142000D01*
X238288610Y-131861345D01*
X238742764Y-132451841D01*
X239388321Y-132823591D01*
X239577219Y-132872493D01*
X239873000Y-132756626D01*
X239873000Y-130507000D01*
X240127000Y-130507000D01*
X240127000Y-132756626D01*
X240422781Y-132872493D01*
X240611679Y-132823591D01*
X241257236Y-132451841D01*
X241711390Y-131861345D01*
X241905000Y-131142000D01*
X241905000Y-130507000D01*
X240127000Y-130507000D01*
X239873000Y-130507000D01*
X238095000Y-130507000D01*
X236825000Y-130507000D01*
X236825000Y-129695238D01*
X236809637Y-129618000D01*
X238095000Y-129618000D01*
X238095000Y-130253000D01*
X239873000Y-130253000D01*
X239873000Y-128003374D01*
X240127000Y-128003374D01*
X240127000Y-130253000D01*
X241905000Y-130253000D01*
X241905000Y-129618000D01*
X241711390Y-128898655D01*
X241257236Y-128308159D01*
X240611679Y-127936409D01*
X240422781Y-127887507D01*
X240127000Y-128003374D01*
X239873000Y-128003374D01*
X239577219Y-127887507D01*
X239388321Y-127936409D01*
X238742764Y-128308159D01*
X238288610Y-128898655D01*
X238095000Y-129618000D01*
X236809637Y-129618000D01*
X236679991Y-128966226D01*
X236267038Y-128348200D01*
X235649012Y-127935247D01*
X234920000Y-127790238D01*
X234190988Y-127935247D01*
X233572962Y-128348200D01*
X233160009Y-128966226D01*
X233015000Y-129695238D01*
X206127000Y-129695238D01*
X206127000Y-120710000D01*
X254030772Y-120710000D01*
X252547628Y-121322823D01*
X252547628Y-121322823D01*
G37*
X252547628Y-121322823D02*
X251327108Y-122541213D01*
X250665754Y-124133932D01*
X250664249Y-125858502D01*
X251322823Y-127452372D01*
X252541213Y-128672892D01*
X254133932Y-129334246D01*
X255858502Y-129335751D01*
X257452372Y-128677177D01*
X258672892Y-127458787D01*
X259290000Y-125972624D01*
X259290000Y-234103378D01*
X258647177Y-232547628D01*
X257428787Y-231327108D01*
X255836068Y-230665754D01*
X254111498Y-230664249D01*
X252517628Y-231322823D01*
X251297108Y-232541213D01*
X250635754Y-234133932D01*
X250634249Y-235858502D01*
X251292823Y-237452372D01*
X252511213Y-238672892D01*
X253997376Y-239290000D01*
X194127000Y-239290000D01*
X194127000Y-229315238D01*
X194595000Y-229315238D01*
X194595000Y-230684762D01*
X194740009Y-231413774D01*
X195152962Y-232031800D01*
X195770988Y-232444753D01*
X196500000Y-232589762D01*
X197229012Y-232444753D01*
X197847038Y-232031800D01*
X198259991Y-231413774D01*
X198405000Y-230684762D01*
X198405000Y-229315238D01*
X199675000Y-229315238D01*
X199675000Y-230684762D01*
X199820009Y-231413774D01*
X200232962Y-232031800D01*
X200850988Y-232444753D01*
X201580000Y-232589762D01*
X202309012Y-232444753D01*
X202927038Y-232031800D01*
X203339991Y-231413774D01*
X203485000Y-230684762D01*
X203485000Y-229315238D01*
X209595000Y-229315238D01*
X209595000Y-230684762D01*
X209740009Y-231413774D01*
X210152962Y-232031800D01*
X210770988Y-232444753D01*
X211500000Y-232589762D01*
X212229012Y-232444753D01*
X212847038Y-232031800D01*
X213259991Y-231413774D01*
X213405000Y-230684762D01*
X213405000Y-229315238D01*
X214675000Y-229315238D01*
X214675000Y-230684762D01*
X214820009Y-231413774D01*
X215232962Y-232031800D01*
X215850988Y-232444753D01*
X216580000Y-232589762D01*
X217309012Y-232444753D01*
X217927038Y-232031800D01*
X218339991Y-231413774D01*
X218485000Y-230684762D01*
X218485000Y-229315238D01*
X224855000Y-229315238D01*
X224855000Y-230684762D01*
X225000009Y-231413774D01*
X225412962Y-232031800D01*
X226030988Y-232444753D01*
X226760000Y-232589762D01*
X227489012Y-232444753D01*
X228107038Y-232031800D01*
X228519991Y-231413774D01*
X228665000Y-230684762D01*
X228665000Y-229315238D01*
X229935000Y-229315238D01*
X229935000Y-230684762D01*
X230080009Y-231413774D01*
X230492962Y-232031800D01*
X231110988Y-232444753D01*
X231840000Y-232589762D01*
X232569012Y-232444753D01*
X233187038Y-232031800D01*
X233599991Y-231413774D01*
X233745000Y-230684762D01*
X233745000Y-229315238D01*
X235015000Y-229315238D01*
X235015000Y-230684762D01*
X235160009Y-231413774D01*
X235572962Y-232031800D01*
X236190988Y-232444753D01*
X236920000Y-232589762D01*
X237649012Y-232444753D01*
X238267038Y-232031800D01*
X238679991Y-231413774D01*
X238825000Y-230684762D01*
X238825000Y-229315238D01*
X240095000Y-229315238D01*
X240095000Y-230684762D01*
X240240009Y-231413774D01*
X240652962Y-232031800D01*
X241270988Y-232444753D01*
X242000000Y-232589762D01*
X242729012Y-232444753D01*
X243347038Y-232031800D01*
X243759991Y-231413774D01*
X243905000Y-230684762D01*
X243905000Y-229315238D01*
X243759991Y-228586226D01*
X243347038Y-227968200D01*
X242729012Y-227555247D01*
X242000000Y-227410238D01*
X241270988Y-227555247D01*
X240652962Y-227968200D01*
X240240009Y-228586226D01*
X240095000Y-229315238D01*
X238825000Y-229315238D01*
X238679991Y-228586226D01*
X238267038Y-227968200D01*
X237649012Y-227555247D01*
X236920000Y-227410238D01*
X236190988Y-227555247D01*
X235572962Y-227968200D01*
X235160009Y-228586226D01*
X235015000Y-229315238D01*
X233745000Y-229315238D01*
X233599991Y-228586226D01*
X233187038Y-227968200D01*
X232569012Y-227555247D01*
X231840000Y-227410238D01*
X231110988Y-227555247D01*
X230492962Y-227968200D01*
X230080009Y-228586226D01*
X229935000Y-229315238D01*
X228665000Y-229315238D01*
X228519991Y-228586226D01*
X228107038Y-227968200D01*
X227489012Y-227555247D01*
X226760000Y-227410238D01*
X226030988Y-227555247D01*
X225412962Y-227968200D01*
X225000009Y-228586226D01*
X224855000Y-229315238D01*
X218485000Y-229315238D01*
X218339991Y-228586226D01*
X217927038Y-227968200D01*
X217309012Y-227555247D01*
X216580000Y-227410238D01*
X215850988Y-227555247D01*
X215232962Y-227968200D01*
X214820009Y-228586226D01*
X214675000Y-229315238D01*
X213405000Y-229315238D01*
X213259991Y-228586226D01*
X212847038Y-227968200D01*
X212229012Y-227555247D01*
X211500000Y-227410238D01*
X210770988Y-227555247D01*
X210152962Y-227968200D01*
X209740009Y-228586226D01*
X209595000Y-229315238D01*
X203485000Y-229315238D01*
X203339991Y-228586226D01*
X202927038Y-227968200D01*
X202309012Y-227555247D01*
X201580000Y-227410238D01*
X200850988Y-227555247D01*
X200232962Y-227968200D01*
X199820009Y-228586226D01*
X199675000Y-229315238D01*
X198405000Y-229315238D01*
X198259991Y-228586226D01*
X197847038Y-227968200D01*
X197229012Y-227555247D01*
X196500000Y-227410238D01*
X195770988Y-227555247D01*
X195152962Y-227968200D01*
X194740009Y-228586226D01*
X194595000Y-229315238D01*
X194127000Y-229315238D01*
X194127000Y-221695238D01*
X194595000Y-221695238D01*
X194595000Y-223064762D01*
X194740009Y-223793774D01*
X195152962Y-224411800D01*
X195770988Y-224824753D01*
X196500000Y-224969762D01*
X197229012Y-224824753D01*
X197847038Y-224411800D01*
X198259991Y-223793774D01*
X198405000Y-223064762D01*
X198405000Y-221695238D01*
X199675000Y-221695238D01*
X199675000Y-223064762D01*
X199820009Y-223793774D01*
X200232962Y-224411800D01*
X200850988Y-224824753D01*
X201580000Y-224969762D01*
X202309012Y-224824753D01*
X202927038Y-224411800D01*
X203339991Y-223793774D01*
X203485000Y-223064762D01*
X203485000Y-221695238D01*
X209595000Y-221695238D01*
X209595000Y-223064762D01*
X209740009Y-223793774D01*
X210152962Y-224411800D01*
X210770988Y-224824753D01*
X211500000Y-224969762D01*
X212229012Y-224824753D01*
X212847038Y-224411800D01*
X213259991Y-223793774D01*
X213405000Y-223064762D01*
X213405000Y-221695238D01*
X214675000Y-221695238D01*
X214675000Y-223064762D01*
X214820009Y-223793774D01*
X215232962Y-224411800D01*
X215850988Y-224824753D01*
X216580000Y-224969762D01*
X217309012Y-224824753D01*
X217927038Y-224411800D01*
X218339991Y-223793774D01*
X218485000Y-223064762D01*
X218485000Y-221695238D01*
X224855000Y-221695238D01*
X224855000Y-223064762D01*
X225000009Y-223793774D01*
X225412962Y-224411800D01*
X226030988Y-224824753D01*
X226760000Y-224969762D01*
X227489012Y-224824753D01*
X228107038Y-224411800D01*
X228519991Y-223793774D01*
X228665000Y-223064762D01*
X228665000Y-221695238D01*
X229935000Y-221695238D01*
X229935000Y-223064762D01*
X230080009Y-223793774D01*
X230492962Y-224411800D01*
X231110988Y-224824753D01*
X231840000Y-224969762D01*
X232569012Y-224824753D01*
X233187038Y-224411800D01*
X233599991Y-223793774D01*
X233745000Y-223064762D01*
X233745000Y-221695238D01*
X235015000Y-221695238D01*
X235015000Y-223064762D01*
X235160009Y-223793774D01*
X235572962Y-224411800D01*
X236190988Y-224824753D01*
X236920000Y-224969762D01*
X237649012Y-224824753D01*
X238267038Y-224411800D01*
X238679991Y-223793774D01*
X238825000Y-223064762D01*
X238825000Y-221695238D01*
X240095000Y-221695238D01*
X240095000Y-223064762D01*
X240240009Y-223793774D01*
X240652962Y-224411800D01*
X241270988Y-224824753D01*
X242000000Y-224969762D01*
X242729012Y-224824753D01*
X243347038Y-224411800D01*
X243759991Y-223793774D01*
X243905000Y-223064762D01*
X243905000Y-221695238D01*
X243759991Y-220966226D01*
X243347038Y-220348200D01*
X242729012Y-219935247D01*
X242000000Y-219790238D01*
X241270988Y-219935247D01*
X240652962Y-220348200D01*
X240240009Y-220966226D01*
X240095000Y-221695238D01*
X238825000Y-221695238D01*
X238679991Y-220966226D01*
X238267038Y-220348200D01*
X237649012Y-219935247D01*
X236920000Y-219790238D01*
X236190988Y-219935247D01*
X235572962Y-220348200D01*
X235160009Y-220966226D01*
X235015000Y-221695238D01*
X233745000Y-221695238D01*
X233599991Y-220966226D01*
X233187038Y-220348200D01*
X232569012Y-219935247D01*
X231840000Y-219790238D01*
X231110988Y-219935247D01*
X230492962Y-220348200D01*
X230080009Y-220966226D01*
X229935000Y-221695238D01*
X228665000Y-221695238D01*
X228519991Y-220966226D01*
X228107038Y-220348200D01*
X227489012Y-219935247D01*
X226760000Y-219790238D01*
X226030988Y-219935247D01*
X225412962Y-220348200D01*
X225000009Y-220966226D01*
X224855000Y-221695238D01*
X218485000Y-221695238D01*
X218339991Y-220966226D01*
X217927038Y-220348200D01*
X217309012Y-219935247D01*
X216580000Y-219790238D01*
X215850988Y-219935247D01*
X215232962Y-220348200D01*
X214820009Y-220966226D01*
X214675000Y-221695238D01*
X213405000Y-221695238D01*
X213259991Y-220966226D01*
X212847038Y-220348200D01*
X212229012Y-219935247D01*
X211500000Y-219790238D01*
X210770988Y-219935247D01*
X210152962Y-220348200D01*
X209740009Y-220966226D01*
X209595000Y-221695238D01*
X203485000Y-221695238D01*
X203339991Y-220966226D01*
X202927038Y-220348200D01*
X202309012Y-219935247D01*
X201580000Y-219790238D01*
X200850988Y-219935247D01*
X200232962Y-220348200D01*
X199820009Y-220966226D01*
X199675000Y-221695238D01*
X198405000Y-221695238D01*
X198259991Y-220966226D01*
X197847038Y-220348200D01*
X197229012Y-219935247D01*
X196500000Y-219790238D01*
X195770988Y-219935247D01*
X195152962Y-220348200D01*
X194740009Y-220966226D01*
X194595000Y-221695238D01*
X194127000Y-221695238D01*
X194127000Y-206229115D01*
X224935885Y-206229115D01*
X224935885Y-213936689D01*
X224999446Y-214256230D01*
X225098396Y-214404319D01*
X225177219Y-214522286D01*
X225277767Y-214765631D01*
X225540557Y-215028880D01*
X225884085Y-215171526D01*
X226256051Y-215171850D01*
X226563739Y-215044716D01*
X226906053Y-215186858D01*
X227278019Y-215187182D01*
X227601355Y-215053582D01*
X227839232Y-215152358D01*
X228211198Y-215152682D01*
X228515142Y-215027095D01*
X228816806Y-215152358D01*
X229188772Y-215152682D01*
X229532548Y-215010637D01*
X229795797Y-214747847D01*
X229938443Y-214404319D01*
X229938767Y-214032353D01*
X229838605Y-213789942D01*
X229838605Y-209762203D01*
X229775044Y-209442662D01*
X229594039Y-209171769D01*
X228143846Y-207721576D01*
X228044428Y-207480966D01*
X227781638Y-207217717D01*
X227438110Y-207075071D01*
X227414774Y-207075051D01*
X227310002Y-206821482D01*
X227047212Y-206558233D01*
X226747208Y-206433660D01*
X226788333Y-206392535D01*
X227028943Y-206293117D01*
X227292192Y-206030327D01*
X227434838Y-205686799D01*
X227435162Y-205314833D01*
X227293117Y-204971057D01*
X227030327Y-204707808D01*
X226686799Y-204565162D01*
X226314833Y-204564838D01*
X225971057Y-204706883D01*
X225707808Y-204969673D01*
X225607222Y-205211910D01*
X225180451Y-205638681D01*
X224999446Y-205909574D01*
X224935885Y-206229115D01*
X194127000Y-206229115D01*
X194127000Y-200214873D01*
X209914812Y-200214873D01*
X210079646Y-200613800D01*
X210384595Y-200919282D01*
X210783233Y-201084811D01*
X211214873Y-201085188D01*
X211578354Y-200935000D01*
X212305932Y-200935000D01*
X212305618Y-201295353D01*
X212417628Y-201566438D01*
X212315162Y-201813201D01*
X212314838Y-202185167D01*
X212456883Y-202528943D01*
X212719673Y-202792192D01*
X213063201Y-202934838D01*
X213435167Y-202935162D01*
X213738632Y-202809773D01*
X218064947Y-202809773D01*
X218064838Y-202935167D01*
X218206883Y-203278943D01*
X218469673Y-203542192D01*
X218813201Y-203684838D01*
X219185167Y-203685162D01*
X219427578Y-203585000D01*
X221072766Y-203585000D01*
X221313201Y-203684838D01*
X221685167Y-203685162D01*
X222028943Y-203543117D01*
X222292192Y-203280327D01*
X222434838Y-202936799D01*
X222434949Y-202809773D01*
X234574760Y-202809773D01*
X234563050Y-202837973D01*
X234562726Y-203209939D01*
X234704771Y-203553715D01*
X234967561Y-203816964D01*
X235311089Y-203959610D01*
X235683055Y-203959934D01*
X236026831Y-203817889D01*
X236290080Y-203555099D01*
X236432726Y-203211571D01*
X236433050Y-202839605D01*
X236332888Y-202597194D01*
X236332888Y-202503019D01*
X236291374Y-202294313D01*
X236269328Y-202183479D01*
X236088322Y-201912585D01*
X235560076Y-201384339D01*
X235289183Y-201203334D01*
X235105387Y-201166775D01*
X235105470Y-201071836D01*
X234963425Y-200728060D01*
X234700635Y-200464811D01*
X234357107Y-200322165D01*
X234259241Y-200322080D01*
X234023491Y-200275186D01*
X223060553Y-200275186D01*
X223084811Y-200216767D01*
X223085188Y-199785127D01*
X222920354Y-199386200D01*
X222615405Y-199080718D01*
X222216767Y-198915189D01*
X221785127Y-198914812D01*
X221421646Y-199065000D01*
X211577552Y-199065000D01*
X211216767Y-198915189D01*
X210785127Y-198914812D01*
X210386200Y-199079646D01*
X210080718Y-199384595D01*
X209915189Y-199783233D01*
X209914812Y-200214873D01*
X194127000Y-200214873D01*
X194127000Y-199500000D01*
X194116994Y-199450590D01*
X194088553Y-199408965D01*
X194046159Y-199381685D01*
X194000000Y-199373000D01*
X168127000Y-199373000D01*
X168127000Y-195470000D01*
X170182560Y-195470000D01*
X170182560Y-196970000D01*
X170226838Y-197205317D01*
X170365910Y-197421441D01*
X170578110Y-197566431D01*
X170830000Y-197617440D01*
X172330000Y-197617440D01*
X172565317Y-197573162D01*
X172781441Y-197434090D01*
X172926431Y-197221890D01*
X172977440Y-196970000D01*
X172977440Y-195470000D01*
X185182560Y-195470000D01*
X185182560Y-196970000D01*
X185226838Y-197205317D01*
X185365910Y-197421441D01*
X185578110Y-197566431D01*
X185830000Y-197617440D01*
X187330000Y-197617440D01*
X187565317Y-197573162D01*
X187781441Y-197434090D01*
X187926431Y-197221890D01*
X187977440Y-196970000D01*
X187977440Y-195470000D01*
X187933162Y-195234683D01*
X187794090Y-195018559D01*
X187702231Y-194955795D01*
X187868327Y-194789698D01*
X187965000Y-194556309D01*
X187965000Y-193977882D01*
X206072968Y-193977882D01*
X206237802Y-194376809D01*
X206542751Y-194682291D01*
X206905970Y-194833113D01*
X209102653Y-197029796D01*
X209405989Y-197232478D01*
X209465354Y-197244287D01*
X209763798Y-197303652D01*
X209763803Y-197303651D01*
X221329468Y-197303651D01*
X221621073Y-197595256D01*
X221770255Y-197956302D01*
X222075204Y-198261784D01*
X222473842Y-198427313D01*
X222905482Y-198427690D01*
X223304409Y-198262856D01*
X223609891Y-197957907D01*
X223775420Y-197559269D01*
X223775797Y-197127629D01*
X223610963Y-196728702D01*
X223306014Y-196423220D01*
X222942795Y-196272398D01*
X222377903Y-195707506D01*
X222074567Y-195504824D01*
X221716758Y-195433651D01*
X210151088Y-195433651D01*
X208227692Y-193510255D01*
X208093368Y-193185167D01*
X215314838Y-193185167D01*
X215456883Y-193528943D01*
X215719673Y-193792192D01*
X216063201Y-193934838D01*
X216435167Y-193935162D01*
X216677578Y-193835000D01*
X221154132Y-193835000D01*
X221607465Y-194288333D01*
X221706883Y-194528943D01*
X221969673Y-194792192D01*
X222313201Y-194934838D01*
X222685167Y-194935162D01*
X223028943Y-194793117D01*
X223292192Y-194530327D01*
X223434838Y-194186799D01*
X223435162Y-193814833D01*
X223304931Y-193499649D01*
X223434838Y-193186799D01*
X223435162Y-192814833D01*
X223293117Y-192471057D01*
X223157297Y-192335000D01*
X227072766Y-192335000D01*
X227313201Y-192434838D01*
X227685167Y-192435162D01*
X228028943Y-192293117D01*
X228292192Y-192030327D01*
X228434838Y-191686799D01*
X228435162Y-191314833D01*
X228293117Y-190971057D01*
X228030327Y-190707808D01*
X227686799Y-190565162D01*
X227314833Y-190564838D01*
X227072422Y-190665000D01*
X217677234Y-190665000D01*
X217436799Y-190565162D01*
X217064833Y-190564838D01*
X216721057Y-190706883D01*
X216457808Y-190969673D01*
X216315162Y-191313201D01*
X216314838Y-191685167D01*
X216456883Y-192028943D01*
X216532856Y-192105048D01*
X216436799Y-192065162D01*
X216064833Y-192064838D01*
X215721057Y-192206883D01*
X215457808Y-192469673D01*
X215315162Y-192813201D01*
X215314838Y-193185167D01*
X208093368Y-193185167D01*
X208078510Y-193149209D01*
X207773561Y-192843727D01*
X207374923Y-192678198D01*
X206943283Y-192677821D01*
X206544356Y-192842655D01*
X206238874Y-193147604D01*
X206073345Y-193546242D01*
X206072968Y-193977882D01*
X187965000Y-193977882D01*
X187965000Y-193965750D01*
X187806250Y-193807000D01*
X186707000Y-193807000D01*
X186707000Y-193827000D01*
X186453000Y-193827000D01*
X186453000Y-193807000D01*
X185353750Y-193807000D01*
X185195000Y-193965750D01*
X185195000Y-194556309D01*
X185291673Y-194789698D01*
X185457249Y-194955275D01*
X185378559Y-195005910D01*
X185233569Y-195218110D01*
X185182560Y-195470000D01*
X172977440Y-195470000D01*
X172933162Y-195234683D01*
X172794090Y-195018559D01*
X172702231Y-194955795D01*
X172868327Y-194789698D01*
X172965000Y-194556309D01*
X172965000Y-193965750D01*
X172806250Y-193807000D01*
X171707000Y-193807000D01*
X171707000Y-193827000D01*
X171453000Y-193827000D01*
X171453000Y-193807000D01*
X170353750Y-193807000D01*
X170195000Y-193965750D01*
X170195000Y-194556309D01*
X170291673Y-194789698D01*
X170457249Y-194955275D01*
X170378559Y-195005910D01*
X170233569Y-195218110D01*
X170182560Y-195470000D01*
X168127000Y-195470000D01*
X168127000Y-192803691D01*
X170195000Y-192803691D01*
X170195000Y-193394250D01*
X170353750Y-193553000D01*
X171453000Y-193553000D01*
X171453000Y-192453750D01*
X171707000Y-192453750D01*
X171707000Y-193553000D01*
X172806250Y-193553000D01*
X172965000Y-193394250D01*
X172965000Y-192803691D01*
X185195000Y-192803691D01*
X185195000Y-193394250D01*
X185353750Y-193553000D01*
X186453000Y-193553000D01*
X186453000Y-192453750D01*
X186707000Y-192453750D01*
X186707000Y-193553000D01*
X187806250Y-193553000D01*
X187965000Y-193394250D01*
X187965000Y-192803691D01*
X187868327Y-192570302D01*
X187689699Y-192391673D01*
X187456310Y-192295000D01*
X186865750Y-192295000D01*
X186707000Y-192453750D01*
X186453000Y-192453750D01*
X186294250Y-192295000D01*
X185703690Y-192295000D01*
X185470301Y-192391673D01*
X185291673Y-192570302D01*
X185195000Y-192803691D01*
X172965000Y-192803691D01*
X172868327Y-192570302D01*
X172689699Y-192391673D01*
X172456310Y-192295000D01*
X171865750Y-192295000D01*
X171707000Y-192453750D01*
X171453000Y-192453750D01*
X171294250Y-192295000D01*
X170703690Y-192295000D01*
X170470301Y-192391673D01*
X170291673Y-192570302D01*
X170195000Y-192803691D01*
X168127000Y-192803691D01*
X168127000Y-177302606D01*
X173580434Y-171849172D01*
X173580434Y-183862810D01*
X173430623Y-184223595D01*
X173430246Y-184655235D01*
X173595080Y-185054162D01*
X173900029Y-185359644D01*
X174298667Y-185525173D01*
X174730307Y-185525550D01*
X175129234Y-185360716D01*
X175275331Y-185214873D01*
X184914812Y-185214873D01*
X185065000Y-185578354D01*
X185065000Y-188951066D01*
X185136173Y-189308875D01*
X185338855Y-189612211D01*
X187669388Y-191942744D01*
X187818570Y-192303790D01*
X188123519Y-192609272D01*
X188522157Y-192774801D01*
X188953797Y-192775178D01*
X189352724Y-192610344D01*
X189658206Y-192305395D01*
X189823735Y-191906757D01*
X189824112Y-191475117D01*
X189659278Y-191076190D01*
X189354329Y-190770708D01*
X188991110Y-190619886D01*
X187090233Y-188719009D01*
X188711814Y-188719009D01*
X188876648Y-189117936D01*
X189181597Y-189423418D01*
X189580235Y-189588947D01*
X190011875Y-189589324D01*
X190410802Y-189424490D01*
X190459658Y-189375719D01*
X194089610Y-189375719D01*
X194080718Y-189384595D01*
X193915189Y-189783233D01*
X193914812Y-190214873D01*
X194079646Y-190613800D01*
X194384595Y-190919282D01*
X194783233Y-191084811D01*
X195214873Y-191085188D01*
X195578354Y-190935000D01*
X198422448Y-190935000D01*
X198783233Y-191084811D01*
X199214873Y-191085188D01*
X199613800Y-190920354D01*
X199919282Y-190615405D01*
X200084811Y-190216767D01*
X200085188Y-189785127D01*
X199920354Y-189386200D01*
X199909891Y-189375719D01*
X200559281Y-189375719D01*
X200917090Y-189304546D01*
X201220426Y-189101864D01*
X202387290Y-187935000D01*
X202422448Y-187935000D01*
X202783233Y-188084811D01*
X203214873Y-188085188D01*
X203578354Y-187935000D01*
X204303053Y-187935000D01*
X204302742Y-188291642D01*
X204444787Y-188635418D01*
X204707577Y-188898667D01*
X205051105Y-189041313D01*
X205423071Y-189041637D01*
X205660438Y-188943559D01*
X208366136Y-188943559D01*
X208606571Y-189043397D01*
X208978537Y-189043721D01*
X209322313Y-188901676D01*
X209585562Y-188638886D01*
X209728208Y-188295358D01*
X209728522Y-187935000D01*
X214065056Y-187935000D01*
X214064838Y-188185167D01*
X214195069Y-188500351D01*
X214065162Y-188813201D01*
X214064838Y-189185167D01*
X214206883Y-189528943D01*
X214469673Y-189792192D01*
X214813201Y-189934838D01*
X215185167Y-189935162D01*
X215427578Y-189835000D01*
X223995247Y-189835000D01*
X224145446Y-189985461D01*
X224488974Y-190128107D01*
X224860940Y-190128431D01*
X225204716Y-189986386D01*
X225467965Y-189723596D01*
X225610611Y-189380068D01*
X225610845Y-189111529D01*
X225877610Y-189111761D01*
X226221386Y-188969716D01*
X226484635Y-188706926D01*
X226627281Y-188363398D01*
X226627605Y-187991432D01*
X226604288Y-187935000D01*
X227422448Y-187935000D01*
X227783233Y-188084811D01*
X228214873Y-188085188D01*
X228613800Y-187920354D01*
X228919282Y-187615405D01*
X229040954Y-187322385D01*
X245418645Y-187322385D01*
X245583479Y-187721312D01*
X245888428Y-188026794D01*
X246287066Y-188192323D01*
X246718706Y-188192700D01*
X247082187Y-188042512D01*
X251541560Y-188042512D01*
X251899369Y-187971339D01*
X252202705Y-187768657D01*
X254147652Y-185823710D01*
X254518800Y-185670354D01*
X254824282Y-185365405D01*
X254989811Y-184966767D01*
X254990188Y-184535127D01*
X254825354Y-184136200D01*
X254520405Y-183830718D01*
X254121767Y-183665189D01*
X253690127Y-183664812D01*
X253291200Y-183829646D01*
X252985718Y-184134595D01*
X252839106Y-184487676D01*
X251154270Y-186172512D01*
X247081385Y-186172512D01*
X246720600Y-186022701D01*
X246288960Y-186022324D01*
X245890033Y-186187158D01*
X245584551Y-186492107D01*
X245419022Y-186890745D01*
X245418645Y-187322385D01*
X229040954Y-187322385D01*
X229084811Y-187216767D01*
X229085188Y-186785127D01*
X228920354Y-186386200D01*
X228615405Y-186080718D01*
X228216767Y-185915189D01*
X227785127Y-185914812D01*
X227421646Y-186065000D01*
X203577552Y-186065000D01*
X203216767Y-185915189D01*
X202785127Y-185914812D01*
X202421646Y-186065000D01*
X202000005Y-186065000D01*
X202000000Y-186064999D01*
X201701556Y-186124364D01*
X201642191Y-186136173D01*
X201392051Y-186303311D01*
X201338855Y-186338855D01*
X200171991Y-187505719D01*
X200094663Y-187505719D01*
X200193473Y-187267757D01*
X200193850Y-186836117D01*
X200029016Y-186437190D01*
X199724067Y-186131708D01*
X199325429Y-185966179D01*
X198893789Y-185965802D01*
X198647035Y-186067759D01*
X197858320Y-186067759D01*
X197896469Y-185975886D01*
X197896793Y-185603920D01*
X197754748Y-185260144D01*
X197491958Y-184996895D01*
X197148430Y-184854249D01*
X196776464Y-184853925D01*
X196569676Y-184939368D01*
X193459062Y-184939368D01*
X193218627Y-184839530D01*
X192846661Y-184839206D01*
X192502885Y-184981251D01*
X192239636Y-185244041D01*
X192096990Y-185587569D01*
X192096672Y-185952504D01*
X192013451Y-185917948D01*
X191581811Y-185917571D01*
X191182884Y-186082405D01*
X190877402Y-186387354D01*
X190711873Y-186785992D01*
X190711496Y-187217632D01*
X190830532Y-187505719D01*
X190221829Y-187505719D01*
X190013769Y-187419325D01*
X189582129Y-187418948D01*
X189183202Y-187583782D01*
X188877720Y-187888731D01*
X188712191Y-188287369D01*
X188711814Y-188719009D01*
X187090233Y-188719009D01*
X186935000Y-188563776D01*
X186935000Y-185577552D01*
X187084811Y-185216767D01*
X187085188Y-184785127D01*
X186920354Y-184386200D01*
X186615405Y-184080718D01*
X186216767Y-183915189D01*
X185785127Y-183914812D01*
X185386200Y-184079646D01*
X185080718Y-184384595D01*
X184915189Y-184783233D01*
X184914812Y-185214873D01*
X175275331Y-185214873D01*
X175434716Y-185055767D01*
X175600245Y-184657129D01*
X175600622Y-184225489D01*
X175450434Y-183862008D01*
X175450434Y-176272348D01*
X204163659Y-176272348D01*
X204163659Y-176330534D01*
X204276698Y-176898819D01*
X204598605Y-177380588D01*
X204884237Y-177571441D01*
X204598605Y-177762294D01*
X204276698Y-178244063D01*
X204163659Y-178812348D01*
X204163659Y-178870534D01*
X204276698Y-179438819D01*
X204598605Y-179920588D01*
X205080374Y-180242495D01*
X205648659Y-180355534D01*
X206216944Y-180242495D01*
X206698713Y-179920588D01*
X206918659Y-179591415D01*
X207138605Y-179920588D01*
X207620374Y-180242495D01*
X208188659Y-180355534D01*
X208756944Y-180242495D01*
X209238713Y-179920588D01*
X209458659Y-179591415D01*
X209678605Y-179920588D01*
X210160374Y-180242495D01*
X210728659Y-180355534D01*
X211296944Y-180242495D01*
X211778713Y-179920588D01*
X211998659Y-179591415D01*
X212218605Y-179920588D01*
X212700374Y-180242495D01*
X213268659Y-180355534D01*
X213836944Y-180242495D01*
X214318713Y-179920588D01*
X214538659Y-179591415D01*
X214758605Y-179920588D01*
X215240374Y-180242495D01*
X215808659Y-180355534D01*
X216376944Y-180242495D01*
X216858713Y-179920588D01*
X217085212Y-179581607D01*
X222032937Y-179581607D01*
X222174982Y-179925383D01*
X222437772Y-180188632D01*
X222680009Y-180289218D01*
X226704849Y-184314058D01*
X226822369Y-184598479D01*
X227085159Y-184861728D01*
X227428687Y-185004374D01*
X227800653Y-185004698D01*
X228144429Y-184862653D01*
X228407678Y-184599863D01*
X228550324Y-184256335D01*
X228550648Y-183884369D01*
X228539420Y-183857194D01*
X229306740Y-183857194D01*
X229547175Y-183957032D01*
X229919141Y-183957356D01*
X230262917Y-183815311D01*
X230526166Y-183552521D01*
X230668812Y-183208993D01*
X230669136Y-182837027D01*
X230527091Y-182493251D01*
X230264301Y-182230002D01*
X229920773Y-182087356D01*
X229548807Y-182087032D01*
X229306396Y-182187194D01*
X228368062Y-182187194D01*
X227824361Y-181643493D01*
X230520705Y-181643493D01*
X230761140Y-181743331D01*
X231133106Y-181743655D01*
X231476882Y-181601610D01*
X231740131Y-181338820D01*
X231882777Y-180995292D01*
X231883101Y-180623326D01*
X231741056Y-180279550D01*
X231478266Y-180016301D01*
X231156172Y-179882555D01*
X249632254Y-179882555D01*
X249774299Y-180226331D01*
X250014557Y-180467009D01*
X249960210Y-180597891D01*
X249959886Y-180969857D01*
X250101931Y-181313633D01*
X250364721Y-181576882D01*
X250708249Y-181719528D01*
X251080215Y-181719852D01*
X251322626Y-181619690D01*
X253381764Y-181619690D01*
X254239488Y-182477414D01*
X254338906Y-182718024D01*
X254601696Y-182981273D01*
X254945224Y-183123919D01*
X255317190Y-183124243D01*
X255660966Y-182982198D01*
X255924215Y-182719408D01*
X256066861Y-182375880D01*
X256067185Y-182003914D01*
X255925140Y-181660138D01*
X255662350Y-181396889D01*
X255420113Y-181296303D01*
X254656198Y-180532388D01*
X254764417Y-180532388D01*
X254804903Y-180630372D01*
X255067693Y-180893621D01*
X255411221Y-181036267D01*
X255783187Y-181036591D01*
X256126963Y-180894546D01*
X256390212Y-180631756D01*
X256532858Y-180288228D01*
X256533182Y-179916262D01*
X256391137Y-179572486D01*
X256128347Y-179309237D01*
X255886110Y-179208651D01*
X255784413Y-179106954D01*
X255624345Y-179000000D01*
X255513520Y-178925949D01*
X255193979Y-178862388D01*
X250994650Y-178862388D01*
X250754215Y-178762550D01*
X250382249Y-178762226D01*
X250038473Y-178904271D01*
X249775224Y-179167061D01*
X249632578Y-179510589D01*
X249632254Y-179882555D01*
X231156172Y-179882555D01*
X231134738Y-179873655D01*
X230762772Y-179873331D01*
X230520361Y-179973493D01*
X228154361Y-179973493D01*
X226892535Y-178711667D01*
X226793117Y-178471057D01*
X226530327Y-178207808D01*
X226186799Y-178065162D01*
X225814833Y-178064838D01*
X225471057Y-178206883D01*
X225207808Y-178469673D01*
X225065162Y-178813201D01*
X225064943Y-179065056D01*
X224814833Y-179064838D01*
X224471057Y-179206883D01*
X224215010Y-179462483D01*
X223860634Y-179108107D01*
X223761216Y-178867497D01*
X223498426Y-178604248D01*
X223154898Y-178461602D01*
X222782932Y-178461278D01*
X222439156Y-178603323D01*
X222175907Y-178866113D01*
X222033261Y-179209641D01*
X222032937Y-179581607D01*
X217085212Y-179581607D01*
X217180620Y-179438819D01*
X217293659Y-178870534D01*
X217293659Y-178812348D01*
X217180620Y-178244063D01*
X216858713Y-177762294D01*
X216852801Y-177758344D01*
X217018358Y-177689768D01*
X217196986Y-177511139D01*
X217293659Y-177277750D01*
X217293659Y-176587191D01*
X217134909Y-176428441D01*
X215935659Y-176428441D01*
X215935659Y-176448441D01*
X215681659Y-176448441D01*
X215681659Y-176428441D01*
X213395659Y-176428441D01*
X213395659Y-176448441D01*
X213141659Y-176448441D01*
X213141659Y-176428441D01*
X210855659Y-176428441D01*
X210855659Y-176448441D01*
X210601659Y-176448441D01*
X210601659Y-176428441D01*
X208315659Y-176428441D01*
X208315659Y-176448441D01*
X208061659Y-176448441D01*
X208061659Y-176428441D01*
X208041659Y-176428441D01*
X208041659Y-176174441D01*
X208061659Y-176174441D01*
X208061659Y-174981286D01*
X208315659Y-174981286D01*
X208315659Y-176174441D01*
X210601659Y-176174441D01*
X210601659Y-174981286D01*
X210855659Y-174981286D01*
X210855659Y-176174441D01*
X213141659Y-176174441D01*
X213141659Y-174981286D01*
X213395659Y-174981286D01*
X213395659Y-176174441D01*
X215681659Y-176174441D01*
X215681659Y-174975191D01*
X215935659Y-174975191D01*
X215935659Y-176174441D01*
X217134909Y-176174441D01*
X217293659Y-176015691D01*
X217293659Y-175536661D01*
X227202758Y-175536661D01*
X227414990Y-176050303D01*
X227807630Y-176443629D01*
X228320900Y-176656757D01*
X228876661Y-176657242D01*
X229390303Y-176445010D01*
X229595457Y-176240213D01*
X230339392Y-176240213D01*
X230408857Y-176482397D01*
X230932302Y-176669144D01*
X231487368Y-176641362D01*
X231871143Y-176482397D01*
X231940608Y-176240213D01*
X231140000Y-175439605D01*
X230339392Y-176240213D01*
X229595457Y-176240213D01*
X229783629Y-176052370D01*
X229863395Y-175860273D01*
X229917603Y-175991143D01*
X230159787Y-176060608D01*
X230960395Y-175260000D01*
X231319605Y-175260000D01*
X232120213Y-176060608D01*
X232362397Y-175991143D01*
X232412509Y-175850682D01*
X232494990Y-176050303D01*
X232887630Y-176443629D01*
X233400900Y-176656757D01*
X233956661Y-176657242D01*
X234470303Y-176445010D01*
X234863629Y-176052370D01*
X235073995Y-175545750D01*
X237275000Y-175545750D01*
X237275000Y-176236309D01*
X237371673Y-176469698D01*
X237550301Y-176648327D01*
X237783690Y-176745000D01*
X238474250Y-176745000D01*
X238633000Y-176586250D01*
X238633000Y-175387000D01*
X237433750Y-175387000D01*
X237275000Y-175545750D01*
X235073995Y-175545750D01*
X235076757Y-175539100D01*
X235077242Y-174983339D01*
X234865010Y-174469697D01*
X234679329Y-174283691D01*
X237275000Y-174283691D01*
X237275000Y-174974250D01*
X237433750Y-175133000D01*
X238633000Y-175133000D01*
X238633000Y-173933750D01*
X238887000Y-173933750D01*
X238887000Y-175133000D01*
X238907000Y-175133000D01*
X238907000Y-175387000D01*
X238887000Y-175387000D01*
X238887000Y-176586250D01*
X239045750Y-176745000D01*
X239736310Y-176745000D01*
X239969699Y-176648327D01*
X240148327Y-176469698D01*
X240220597Y-176295223D01*
X240249946Y-176339147D01*
X240731715Y-176661054D01*
X241300000Y-176774093D01*
X241868285Y-176661054D01*
X242350054Y-176339147D01*
X242570000Y-176009974D01*
X242789946Y-176339147D01*
X243271715Y-176661054D01*
X243840000Y-176774093D01*
X244408285Y-176661054D01*
X244890054Y-176339147D01*
X245110000Y-176009974D01*
X245329946Y-176339147D01*
X245811715Y-176661054D01*
X246380000Y-176774093D01*
X246948285Y-176661054D01*
X247430054Y-176339147D01*
X247650000Y-176009974D01*
X247869946Y-176339147D01*
X248351715Y-176661054D01*
X248920000Y-176774093D01*
X249488285Y-176661054D01*
X249970054Y-176339147D01*
X250190000Y-176009974D01*
X250409946Y-176339147D01*
X250891715Y-176661054D01*
X251460000Y-176774093D01*
X252028285Y-176661054D01*
X252510054Y-176339147D01*
X252831961Y-175857378D01*
X252945000Y-175289093D01*
X252945000Y-175230907D01*
X252831961Y-174662622D01*
X252510054Y-174180853D01*
X252028285Y-173858946D01*
X251460000Y-173745907D01*
X250891715Y-173858946D01*
X250409946Y-174180853D01*
X250190000Y-174510026D01*
X249970054Y-174180853D01*
X249488285Y-173858946D01*
X248920000Y-173745907D01*
X248351715Y-173858946D01*
X247869946Y-174180853D01*
X247650000Y-174510026D01*
X247430054Y-174180853D01*
X246948285Y-173858946D01*
X246380000Y-173745907D01*
X245811715Y-173858946D01*
X245329946Y-174180853D01*
X245110000Y-174510026D01*
X244890054Y-174180853D01*
X244408285Y-173858946D01*
X243840000Y-173745907D01*
X243271715Y-173858946D01*
X242789946Y-174180853D01*
X242570000Y-174510026D01*
X242350054Y-174180853D01*
X241868285Y-173858946D01*
X241300000Y-173745907D01*
X240731715Y-173858946D01*
X240249946Y-174180853D01*
X240220597Y-174224777D01*
X240148327Y-174050302D01*
X239969699Y-173871673D01*
X239736310Y-173775000D01*
X239045750Y-173775000D01*
X238887000Y-173933750D01*
X238633000Y-173933750D01*
X238474250Y-173775000D01*
X237783690Y-173775000D01*
X237550301Y-173871673D01*
X237371673Y-174050302D01*
X237275000Y-174283691D01*
X234679329Y-174283691D01*
X234472370Y-174076371D01*
X233959100Y-173863243D01*
X233403339Y-173862758D01*
X232889697Y-174074990D01*
X232496371Y-174467630D01*
X232416605Y-174659727D01*
X232362397Y-174528857D01*
X232120213Y-174459392D01*
X231319605Y-175260000D01*
X230960395Y-175260000D01*
X230159787Y-174459392D01*
X229917603Y-174528857D01*
X229867491Y-174669318D01*
X229785010Y-174469697D01*
X229595432Y-174279787D01*
X230339392Y-174279787D01*
X231140000Y-175080395D01*
X231940608Y-174279787D01*
X231871143Y-174037603D01*
X231347698Y-173850856D01*
X230792632Y-173878638D01*
X230408857Y-174037603D01*
X230339392Y-174279787D01*
X229595432Y-174279787D01*
X229392370Y-174076371D01*
X228879100Y-173863243D01*
X228323339Y-173862758D01*
X227809697Y-174074990D01*
X227416371Y-174467630D01*
X227203243Y-174980900D01*
X227202758Y-175536661D01*
X217293659Y-175536661D01*
X217293659Y-175325132D01*
X217196986Y-175091743D01*
X217018358Y-174913114D01*
X216784969Y-174816441D01*
X216094409Y-174816441D01*
X215935659Y-174975191D01*
X215681659Y-174975191D01*
X215522909Y-174816441D01*
X214832349Y-174816441D01*
X214598960Y-174913114D01*
X214420332Y-175091743D01*
X214333523Y-175301319D01*
X214035583Y-175029796D01*
X213625549Y-174859965D01*
X213395659Y-174981286D01*
X213141659Y-174981286D01*
X212911769Y-174859965D01*
X212501735Y-175029796D01*
X212073476Y-175420083D01*
X211998659Y-175579395D01*
X211923842Y-175420083D01*
X211495583Y-175029796D01*
X211085549Y-174859965D01*
X210855659Y-174981286D01*
X210601659Y-174981286D01*
X210371769Y-174859965D01*
X209961735Y-175029796D01*
X209533476Y-175420083D01*
X209458659Y-175579395D01*
X209383842Y-175420083D01*
X208955583Y-175029796D01*
X208545549Y-174859965D01*
X208315659Y-174981286D01*
X208061659Y-174981286D01*
X207831769Y-174859965D01*
X207421735Y-175029796D01*
X206993476Y-175420083D01*
X206926361Y-175562994D01*
X206698713Y-175222294D01*
X206216944Y-174900387D01*
X205648659Y-174787348D01*
X205080374Y-174900387D01*
X204598605Y-175222294D01*
X204276698Y-175704063D01*
X204163659Y-176272348D01*
X175450434Y-176272348D01*
X175450434Y-174214873D01*
X192914812Y-174214873D01*
X193079646Y-174613800D01*
X193384595Y-174919282D01*
X193783233Y-175084811D01*
X194214873Y-175085188D01*
X194613800Y-174920354D01*
X194919282Y-174615405D01*
X195084811Y-174216767D01*
X195085188Y-173785127D01*
X194935000Y-173421646D01*
X194935000Y-172352463D01*
X194956017Y-172331483D01*
X195004437Y-172214873D01*
X218914812Y-172214873D01*
X219079646Y-172613800D01*
X219384595Y-172919282D01*
X219783233Y-173084811D01*
X220214873Y-173085188D01*
X220578354Y-172935000D01*
X226422448Y-172935000D01*
X226783233Y-173084811D01*
X227214873Y-173085188D01*
X227613800Y-172920354D01*
X227919282Y-172615405D01*
X228084811Y-172216767D01*
X228085188Y-171785127D01*
X227920354Y-171386200D01*
X227615405Y-171080718D01*
X227216767Y-170915189D01*
X226785127Y-170914812D01*
X226421646Y-171065000D01*
X220577552Y-171065000D01*
X220216767Y-170915189D01*
X219785127Y-170914812D01*
X219386200Y-171079646D01*
X219080718Y-171384595D01*
X218915189Y-171783233D01*
X218914812Y-172214873D01*
X195004437Y-172214873D01*
X195121546Y-171932845D01*
X195121923Y-171501205D01*
X194957089Y-171102278D01*
X194652140Y-170796796D01*
X194253502Y-170631267D01*
X193821862Y-170630890D01*
X193422935Y-170795724D01*
X193117453Y-171100673D01*
X192951924Y-171499311D01*
X192951547Y-171930951D01*
X193065000Y-172205527D01*
X193065000Y-173422448D01*
X192915189Y-173783233D01*
X192914812Y-174214873D01*
X175450434Y-174214873D01*
X175450434Y-171871856D01*
X179252754Y-168069536D01*
X179613800Y-167920354D01*
X179718327Y-167816009D01*
X220815000Y-167816009D01*
X220815000Y-168983991D01*
X220905203Y-169437471D01*
X221162078Y-169821913D01*
X221546520Y-170078788D01*
X222000000Y-170168991D01*
X222453480Y-170078788D01*
X222837922Y-169821913D01*
X223000000Y-169579345D01*
X223162078Y-169821913D01*
X223546520Y-170078788D01*
X224000000Y-170168991D01*
X224453480Y-170078788D01*
X224837922Y-169821913D01*
X225000000Y-169579345D01*
X225162078Y-169821913D01*
X225546520Y-170078788D01*
X226000000Y-170168991D01*
X226453480Y-170078788D01*
X226837922Y-169821913D01*
X227000000Y-169579345D01*
X227162078Y-169821913D01*
X227546520Y-170078788D01*
X228000000Y-170168991D01*
X228453480Y-170078788D01*
X228837922Y-169821913D01*
X229000000Y-169579345D01*
X229162078Y-169821913D01*
X229546520Y-170078788D01*
X230000000Y-170168991D01*
X230453480Y-170078788D01*
X230837922Y-169821913D01*
X231000000Y-169579345D01*
X231162078Y-169821913D01*
X231546520Y-170078788D01*
X232000000Y-170168991D01*
X232453480Y-170078788D01*
X232837922Y-169821913D01*
X233000000Y-169579345D01*
X233162078Y-169821913D01*
X233546520Y-170078788D01*
X234000000Y-170168991D01*
X234453480Y-170078788D01*
X234837922Y-169821913D01*
X235000000Y-169579345D01*
X235162078Y-169821913D01*
X235546520Y-170078788D01*
X236000000Y-170168991D01*
X236453480Y-170078788D01*
X236837922Y-169821913D01*
X237000000Y-169579345D01*
X237162078Y-169821913D01*
X237546520Y-170078788D01*
X238000000Y-170168991D01*
X238453480Y-170078788D01*
X238837922Y-169821913D01*
X239000000Y-169579345D01*
X239162078Y-169821913D01*
X239546520Y-170078788D01*
X240000000Y-170168991D01*
X240453480Y-170078788D01*
X240837922Y-169821913D01*
X241000000Y-169579345D01*
X241162078Y-169821913D01*
X241546520Y-170078788D01*
X242000000Y-170168991D01*
X242453480Y-170078788D01*
X242837922Y-169821913D01*
X243000000Y-169579345D01*
X243162078Y-169821913D01*
X243546520Y-170078788D01*
X244000000Y-170168991D01*
X244453480Y-170078788D01*
X244837922Y-169821913D01*
X245000000Y-169579345D01*
X245162078Y-169821913D01*
X245546520Y-170078788D01*
X246000000Y-170168991D01*
X246453480Y-170078788D01*
X246837922Y-169821913D01*
X247000000Y-169579345D01*
X247162078Y-169821913D01*
X247546520Y-170078788D01*
X247548523Y-170079187D01*
X246562710Y-171065000D01*
X240577552Y-171065000D01*
X240216767Y-170915189D01*
X239785127Y-170914812D01*
X239386200Y-171079646D01*
X239080718Y-171384595D01*
X238915189Y-171783233D01*
X238914812Y-172214873D01*
X239079646Y-172613800D01*
X239384595Y-172919282D01*
X239783233Y-173084811D01*
X240214873Y-173085188D01*
X240578354Y-172935000D01*
X246950000Y-172935000D01*
X247307809Y-172863827D01*
X247611145Y-172661145D01*
X250128949Y-170143341D01*
X250453480Y-170078788D01*
X250837922Y-169821913D01*
X251001195Y-169577557D01*
X251251882Y-169877724D01*
X251663854Y-170093398D01*
X251690256Y-170093803D01*
X251873000Y-169968361D01*
X251873000Y-168527000D01*
X252127000Y-168527000D01*
X252127000Y-169968361D01*
X252309744Y-170093803D01*
X252336146Y-170093398D01*
X252748118Y-169877724D01*
X253046196Y-169520813D01*
X253185000Y-169077000D01*
X253185000Y-168527000D01*
X252127000Y-168527000D01*
X251873000Y-168527000D01*
X251853000Y-168527000D01*
X251853000Y-168273000D01*
X251873000Y-168273000D01*
X251873000Y-166831639D01*
X252127000Y-166831639D01*
X252127000Y-168273000D01*
X253185000Y-168273000D01*
X253185000Y-167723000D01*
X253046196Y-167279187D01*
X252748118Y-166922276D01*
X252336146Y-166706602D01*
X252309744Y-166706197D01*
X252127000Y-166831639D01*
X251873000Y-166831639D01*
X251690256Y-166706197D01*
X251663854Y-166706602D01*
X251251882Y-166922276D01*
X251001195Y-167222443D01*
X250837922Y-166978087D01*
X250453480Y-166721212D01*
X250000000Y-166631009D01*
X249546520Y-166721212D01*
X249162078Y-166978087D01*
X249000000Y-167220655D01*
X248837922Y-166978087D01*
X248453480Y-166721212D01*
X248000000Y-166631009D01*
X247546520Y-166721212D01*
X247162078Y-166978087D01*
X247000000Y-167220655D01*
X246837922Y-166978087D01*
X246453480Y-166721212D01*
X246000000Y-166631009D01*
X245546520Y-166721212D01*
X245162078Y-166978087D01*
X245000000Y-167220655D01*
X244837922Y-166978087D01*
X244453480Y-166721212D01*
X244000000Y-166631009D01*
X243546520Y-166721212D01*
X243162078Y-166978087D01*
X243000000Y-167220655D01*
X242837922Y-166978087D01*
X242453480Y-166721212D01*
X242000000Y-166631009D01*
X241546520Y-166721212D01*
X241162078Y-166978087D01*
X241000000Y-167220655D01*
X240837922Y-166978087D01*
X240453480Y-166721212D01*
X240000000Y-166631009D01*
X239546520Y-166721212D01*
X239162078Y-166978087D01*
X239000000Y-167220655D01*
X238837922Y-166978087D01*
X238453480Y-166721212D01*
X238000000Y-166631009D01*
X237546520Y-166721212D01*
X237162078Y-166978087D01*
X237000000Y-167220655D01*
X236837922Y-166978087D01*
X236453480Y-166721212D01*
X236000000Y-166631009D01*
X235546520Y-166721212D01*
X235162078Y-166978087D01*
X235000000Y-167220655D01*
X234837922Y-166978087D01*
X234453480Y-166721212D01*
X234000000Y-166631009D01*
X233546520Y-166721212D01*
X233162078Y-166978087D01*
X233000000Y-167220655D01*
X232837922Y-166978087D01*
X232453480Y-166721212D01*
X232000000Y-166631009D01*
X231546520Y-166721212D01*
X231162078Y-166978087D01*
X231000000Y-167220655D01*
X230837922Y-166978087D01*
X230453480Y-166721212D01*
X230000000Y-166631009D01*
X229546520Y-166721212D01*
X229162078Y-166978087D01*
X229000000Y-167220655D01*
X228837922Y-166978087D01*
X228453480Y-166721212D01*
X228000000Y-166631009D01*
X227546520Y-166721212D01*
X227162078Y-166978087D01*
X227000000Y-167220655D01*
X226837922Y-166978087D01*
X226453480Y-166721212D01*
X226000000Y-166631009D01*
X225546520Y-166721212D01*
X225162078Y-166978087D01*
X225000000Y-167220655D01*
X224837922Y-166978087D01*
X224453480Y-166721212D01*
X224000000Y-166631009D01*
X223546520Y-166721212D01*
X223162078Y-166978087D01*
X223000000Y-167220655D01*
X222837922Y-166978087D01*
X222453480Y-166721212D01*
X222000000Y-166631009D01*
X221546520Y-166721212D01*
X221162078Y-166978087D01*
X220905203Y-167362529D01*
X220815000Y-167816009D01*
X179718327Y-167816009D01*
X179919282Y-167615405D01*
X180084811Y-167216767D01*
X180085188Y-166785127D01*
X179920354Y-166386200D01*
X179615405Y-166080718D01*
X179427085Y-166002521D01*
X187589803Y-157839803D01*
X187617666Y-157797789D01*
X187627000Y-157750000D01*
X187627000Y-155935000D01*
X193422448Y-155935000D01*
X193783233Y-156084811D01*
X194214873Y-156085188D01*
X194613800Y-155920354D01*
X194919282Y-155615405D01*
X195084811Y-155216767D01*
X195085188Y-154785127D01*
X194920354Y-154386200D01*
X194615405Y-154080718D01*
X194216767Y-153915189D01*
X193785127Y-153914812D01*
X193421646Y-154065000D01*
X187627000Y-154065000D01*
X187627000Y-153373305D01*
X200114674Y-153373305D01*
X200401043Y-154066372D01*
X200930839Y-154597093D01*
X201623405Y-154884672D01*
X202373305Y-154885326D01*
X203066372Y-154598957D01*
X203332472Y-154333320D01*
X205846285Y-154333320D01*
X205975533Y-154626123D01*
X206675806Y-154894388D01*
X207425435Y-154874250D01*
X208024467Y-154626123D01*
X208153715Y-154333320D01*
X207000000Y-153179605D01*
X205846285Y-154333320D01*
X203332472Y-154333320D01*
X203597093Y-154069161D01*
X203884672Y-153376595D01*
X203885283Y-152675806D01*
X205105612Y-152675806D01*
X205125750Y-153425435D01*
X205373877Y-154024467D01*
X205666680Y-154153715D01*
X206820395Y-153000000D01*
X207179605Y-153000000D01*
X208333320Y-154153715D01*
X208626123Y-154024467D01*
X208894388Y-153324194D01*
X208874250Y-152574565D01*
X208626123Y-151975533D01*
X208333320Y-151846285D01*
X207179605Y-153000000D01*
X206820395Y-153000000D01*
X205666680Y-151846285D01*
X205373877Y-151975533D01*
X205105612Y-152675806D01*
X203885283Y-152675806D01*
X203885326Y-152626695D01*
X203598957Y-151933628D01*
X203332475Y-151666680D01*
X205846285Y-151666680D01*
X207000000Y-152820395D01*
X208153715Y-151666680D01*
X208024467Y-151373877D01*
X207324194Y-151105612D01*
X206574565Y-151125750D01*
X205975533Y-151373877D01*
X205846285Y-151666680D01*
X203332475Y-151666680D01*
X203069161Y-151402907D01*
X202376595Y-151115328D01*
X201626695Y-151114674D01*
X200933628Y-151401043D01*
X200402907Y-151930839D01*
X200115328Y-152623405D01*
X200114674Y-153373305D01*
X187627000Y-153373305D01*
X187627000Y-145127000D01*
X200338763Y-145127000D01*
X200080718Y-145384595D01*
X199915189Y-145783233D01*
X199914812Y-146214873D01*
X200079646Y-146613800D01*
X200384595Y-146919282D01*
X200783233Y-147084811D01*
X201214873Y-147085188D01*
X201578354Y-146935000D01*
X207422448Y-146935000D01*
X207783233Y-147084811D01*
X208214873Y-147085188D01*
X208613800Y-146920354D01*
X208919282Y-146615405D01*
X209084811Y-146216767D01*
X209085188Y-145785127D01*
X208920354Y-145386200D01*
X208615405Y-145080718D01*
X208216767Y-144915189D01*
X207785127Y-144914812D01*
X207421646Y-145065000D01*
X206106191Y-145065000D01*
X206118315Y-145046159D01*
X206127000Y-145000000D01*
X206127000Y-143416009D01*
X220815000Y-143416009D01*
X220815000Y-144583991D01*
X220905203Y-145037471D01*
X221162078Y-145421913D01*
X221546520Y-145678788D01*
X222000000Y-145768991D01*
X222453480Y-145678788D01*
X222837922Y-145421913D01*
X223000000Y-145179345D01*
X223162078Y-145421913D01*
X223546520Y-145678788D01*
X224000000Y-145768991D01*
X224453480Y-145678788D01*
X224837922Y-145421913D01*
X225000000Y-145179345D01*
X225162078Y-145421913D01*
X225546520Y-145678788D01*
X226000000Y-145768991D01*
X226453480Y-145678788D01*
X226837922Y-145421913D01*
X227000000Y-145179345D01*
X227162078Y-145421913D01*
X227546520Y-145678788D01*
X228000000Y-145768991D01*
X228453480Y-145678788D01*
X228837922Y-145421913D01*
X229000000Y-145179345D01*
X229162078Y-145421913D01*
X229546520Y-145678788D01*
X230000000Y-145768991D01*
X230453480Y-145678788D01*
X230837922Y-145421913D01*
X231000000Y-145179345D01*
X231162078Y-145421913D01*
X231546520Y-145678788D01*
X232000000Y-145768991D01*
X232453480Y-145678788D01*
X232837922Y-145421913D01*
X233000000Y-145179345D01*
X233162078Y-145421913D01*
X233546520Y-145678788D01*
X234000000Y-145768991D01*
X234453480Y-145678788D01*
X234837922Y-145421913D01*
X235000000Y-145179345D01*
X235162078Y-145421913D01*
X235546520Y-145678788D01*
X236000000Y-145768991D01*
X236453480Y-145678788D01*
X236837922Y-145421913D01*
X237000000Y-145179345D01*
X237162078Y-145421913D01*
X237546520Y-145678788D01*
X238000000Y-145768991D01*
X238453480Y-145678788D01*
X238837922Y-145421913D01*
X239000000Y-145179345D01*
X239162078Y-145421913D01*
X239546520Y-145678788D01*
X240000000Y-145768991D01*
X240453480Y-145678788D01*
X240837922Y-145421913D01*
X241000000Y-145179345D01*
X241162078Y-145421913D01*
X241546520Y-145678788D01*
X242000000Y-145768991D01*
X242453480Y-145678788D01*
X242837922Y-145421913D01*
X243000000Y-145179345D01*
X243162078Y-145421913D01*
X243546520Y-145678788D01*
X244000000Y-145768991D01*
X244453480Y-145678788D01*
X244837922Y-145421913D01*
X245000000Y-145179345D01*
X245162078Y-145421913D01*
X245546520Y-145678788D01*
X246000000Y-145768991D01*
X246453480Y-145678788D01*
X246837922Y-145421913D01*
X247000000Y-145179345D01*
X247162078Y-145421913D01*
X247546520Y-145678788D01*
X248000000Y-145768991D01*
X248453480Y-145678788D01*
X248837922Y-145421913D01*
X249000000Y-145179345D01*
X249162078Y-145421913D01*
X249546520Y-145678788D01*
X250000000Y-145768991D01*
X250453480Y-145678788D01*
X250837922Y-145421913D01*
X251001195Y-145177557D01*
X251251882Y-145477724D01*
X251663854Y-145693398D01*
X251690256Y-145693803D01*
X251873000Y-145568361D01*
X251873000Y-144127000D01*
X252127000Y-144127000D01*
X252127000Y-145568361D01*
X252309744Y-145693803D01*
X252336146Y-145693398D01*
X252748118Y-145477724D01*
X253046196Y-145120813D01*
X253185000Y-144677000D01*
X253185000Y-144127000D01*
X252127000Y-144127000D01*
X251873000Y-144127000D01*
X251853000Y-144127000D01*
X251853000Y-143873000D01*
X251873000Y-143873000D01*
X251873000Y-142431639D01*
X252127000Y-142431639D01*
X252127000Y-143873000D01*
X253185000Y-143873000D01*
X253185000Y-143323000D01*
X253046196Y-142879187D01*
X252748118Y-142522276D01*
X252336146Y-142306602D01*
X252309744Y-142306197D01*
X252127000Y-142431639D01*
X251873000Y-142431639D01*
X251690256Y-142306197D01*
X251663854Y-142306602D01*
X251251882Y-142522276D01*
X251001195Y-142822443D01*
X250837922Y-142578087D01*
X250453480Y-142321212D01*
X250000000Y-142231009D01*
X249546520Y-142321212D01*
X249162078Y-142578087D01*
X249000000Y-142820655D01*
X248837922Y-142578087D01*
X248453480Y-142321212D01*
X248000000Y-142231009D01*
X247546520Y-142321212D01*
X247162078Y-142578087D01*
X247000000Y-142820655D01*
X246837922Y-142578087D01*
X246453480Y-142321212D01*
X246000000Y-142231009D01*
X245546520Y-142321212D01*
X245162078Y-142578087D01*
X245000000Y-142820655D01*
X244837922Y-142578087D01*
X244453480Y-142321212D01*
X244000000Y-142231009D01*
X243546520Y-142321212D01*
X243162078Y-142578087D01*
X243000000Y-142820655D01*
X242837922Y-142578087D01*
X242453480Y-142321212D01*
X242000000Y-142231009D01*
X241546520Y-142321212D01*
X241162078Y-142578087D01*
X241000000Y-142820655D01*
X240837922Y-142578087D01*
X240453480Y-142321212D01*
X240000000Y-142231009D01*
X239546520Y-142321212D01*
X239162078Y-142578087D01*
X239000000Y-142820655D01*
X238837922Y-142578087D01*
X238453480Y-142321212D01*
X238000000Y-142231009D01*
X237546520Y-142321212D01*
X237162078Y-142578087D01*
X237000000Y-142820655D01*
X236837922Y-142578087D01*
X236453480Y-142321212D01*
X236000000Y-142231009D01*
X235546520Y-142321212D01*
X235162078Y-142578087D01*
X235000000Y-142820655D01*
X234837922Y-142578087D01*
X234453480Y-142321212D01*
X234000000Y-142231009D01*
X233546520Y-142321212D01*
X233162078Y-142578087D01*
X233000000Y-142820655D01*
X232837922Y-142578087D01*
X232453480Y-142321212D01*
X232000000Y-142231009D01*
X231546520Y-142321212D01*
X231162078Y-142578087D01*
X231000000Y-142820655D01*
X230837922Y-142578087D01*
X230453480Y-142321212D01*
X230000000Y-142231009D01*
X229546520Y-142321212D01*
X229162078Y-142578087D01*
X229000000Y-142820655D01*
X228837922Y-142578087D01*
X228453480Y-142321212D01*
X228000000Y-142231009D01*
X227546520Y-142321212D01*
X227162078Y-142578087D01*
X227000000Y-142820655D01*
X226837922Y-142578087D01*
X226453480Y-142321212D01*
X226000000Y-142231009D01*
X225546520Y-142321212D01*
X225162078Y-142578087D01*
X225000000Y-142820655D01*
X224837922Y-142578087D01*
X224453480Y-142321212D01*
X224000000Y-142231009D01*
X223546520Y-142321212D01*
X223162078Y-142578087D01*
X223000000Y-142820655D01*
X222837922Y-142578087D01*
X222453480Y-142321212D01*
X222000000Y-142231009D01*
X221546520Y-142321212D01*
X221162078Y-142578087D01*
X220905203Y-142962529D01*
X220815000Y-143416009D01*
X206127000Y-143416009D01*
X206127000Y-137315238D01*
X233015000Y-137315238D01*
X233015000Y-138684762D01*
X233160009Y-139413774D01*
X233572962Y-140031800D01*
X234190988Y-140444753D01*
X234920000Y-140589762D01*
X235649012Y-140444753D01*
X236267038Y-140031800D01*
X236679991Y-139413774D01*
X236825000Y-138684762D01*
X236825000Y-138127000D01*
X238095000Y-138127000D01*
X238095000Y-138762000D01*
X238288610Y-139481345D01*
X238742764Y-140071841D01*
X239388321Y-140443591D01*
X239577219Y-140492493D01*
X239873000Y-140376626D01*
X239873000Y-138127000D01*
X240127000Y-138127000D01*
X240127000Y-140376626D01*
X240422781Y-140492493D01*
X240611679Y-140443591D01*
X241257236Y-140071841D01*
X241711390Y-139481345D01*
X241905000Y-138762000D01*
X241905000Y-138127000D01*
X240127000Y-138127000D01*
X239873000Y-138127000D01*
X238095000Y-138127000D01*
X236825000Y-138127000D01*
X236825000Y-137315238D01*
X236809637Y-137238000D01*
X238095000Y-137238000D01*
X238095000Y-137873000D01*
X239873000Y-137873000D01*
X239873000Y-135623374D01*
X240127000Y-135623374D01*
X240127000Y-137873000D01*
X241905000Y-137873000D01*
X241905000Y-137238000D01*
X241711390Y-136518655D01*
X241257236Y-135928159D01*
X240611679Y-135556409D01*
X240422781Y-135507507D01*
X240127000Y-135623374D01*
X239873000Y-135623374D01*
X239577219Y-135507507D01*
X239388321Y-135556409D01*
X238742764Y-135928159D01*
X238288610Y-136518655D01*
X238095000Y-137238000D01*
X236809637Y-137238000D01*
X236679991Y-136586226D01*
X236267038Y-135968200D01*
X235649012Y-135555247D01*
X234920000Y-135410238D01*
X234190988Y-135555247D01*
X233572962Y-135968200D01*
X233160009Y-136586226D01*
X233015000Y-137315238D01*
X206127000Y-137315238D01*
X206127000Y-132373305D01*
X211614674Y-132373305D01*
X211901043Y-133066372D01*
X212430839Y-133597093D01*
X213123405Y-133884672D01*
X213873305Y-133885326D01*
X214566372Y-133598957D01*
X214832472Y-133333320D01*
X217346285Y-133333320D01*
X217475533Y-133626123D01*
X218175806Y-133894388D01*
X218925435Y-133874250D01*
X219524467Y-133626123D01*
X219653715Y-133333320D01*
X219535268Y-133214873D01*
X243914812Y-133214873D01*
X244079646Y-133613800D01*
X244384595Y-133919282D01*
X244747814Y-134070104D01*
X245314315Y-134636605D01*
X245617651Y-134839287D01*
X245975460Y-134910460D01*
X255906194Y-134910460D01*
X255985327Y-135101975D01*
X256290276Y-135407457D01*
X256688914Y-135572986D01*
X257120554Y-135573363D01*
X257519481Y-135408529D01*
X257824963Y-135103580D01*
X257990492Y-134704942D01*
X257990869Y-134273302D01*
X257826035Y-133874375D01*
X257521086Y-133568893D01*
X257157867Y-133418071D01*
X257054111Y-133314315D01*
X256750775Y-133111633D01*
X256392966Y-133040460D01*
X246362750Y-133040460D01*
X246069536Y-132747246D01*
X245920354Y-132386200D01*
X245615405Y-132080718D01*
X245216767Y-131915189D01*
X244785127Y-131914812D01*
X244386200Y-132079646D01*
X244080718Y-132384595D01*
X243915189Y-132783233D01*
X243914812Y-133214873D01*
X219535268Y-133214873D01*
X218500000Y-132179605D01*
X217346285Y-133333320D01*
X214832472Y-133333320D01*
X215097093Y-133069161D01*
X215384672Y-132376595D01*
X215385283Y-131675806D01*
X216605612Y-131675806D01*
X216625750Y-132425435D01*
X216873877Y-133024467D01*
X217166680Y-133153715D01*
X218320395Y-132000000D01*
X218679605Y-132000000D01*
X219833320Y-133153715D01*
X220126123Y-133024467D01*
X220394388Y-132324194D01*
X220374250Y-131574565D01*
X220126123Y-130975533D01*
X219833320Y-130846285D01*
X218679605Y-132000000D01*
X218320395Y-132000000D01*
X217166680Y-130846285D01*
X216873877Y-130975533D01*
X216605612Y-131675806D01*
X215385283Y-131675806D01*
X215385326Y-131626695D01*
X215098957Y-130933628D01*
X214832475Y-130666680D01*
X217346285Y-130666680D01*
X218500000Y-131820395D01*
X219653715Y-130666680D01*
X219524467Y-130373877D01*
X218824194Y-130105612D01*
X218074565Y-130125750D01*
X217475533Y-130373877D01*
X217346285Y-130666680D01*
X214832475Y-130666680D01*
X214569161Y-130402907D01*
X213876595Y-130115328D01*
X213126695Y-130114674D01*
X212433628Y-130401043D01*
X211902907Y-130930839D01*
X211615328Y-131623405D01*
X211614674Y-132373305D01*
X206127000Y-132373305D01*
X206127000Y-129695238D01*
X233015000Y-129695238D01*
X233015000Y-131064762D01*
X233160009Y-131793774D01*
X233572962Y-132411800D01*
X234190988Y-132824753D01*
X234920000Y-132969762D01*
X235649012Y-132824753D01*
X236267038Y-132411800D01*
X236679991Y-131793774D01*
X236825000Y-131064762D01*
X236825000Y-130507000D01*
X238095000Y-130507000D01*
X238095000Y-131142000D01*
X238288610Y-131861345D01*
X238742764Y-132451841D01*
X239388321Y-132823591D01*
X239577219Y-132872493D01*
X239873000Y-132756626D01*
X239873000Y-130507000D01*
X240127000Y-130507000D01*
X240127000Y-132756626D01*
X240422781Y-132872493D01*
X240611679Y-132823591D01*
X241257236Y-132451841D01*
X241711390Y-131861345D01*
X241905000Y-131142000D01*
X241905000Y-130507000D01*
X240127000Y-130507000D01*
X239873000Y-130507000D01*
X238095000Y-130507000D01*
X236825000Y-130507000D01*
X236825000Y-129695238D01*
X236809637Y-129618000D01*
X238095000Y-129618000D01*
X238095000Y-130253000D01*
X239873000Y-130253000D01*
X239873000Y-128003374D01*
X240127000Y-128003374D01*
X240127000Y-130253000D01*
X241905000Y-130253000D01*
X241905000Y-129618000D01*
X241711390Y-128898655D01*
X241257236Y-128308159D01*
X240611679Y-127936409D01*
X240422781Y-127887507D01*
X240127000Y-128003374D01*
X239873000Y-128003374D01*
X239577219Y-127887507D01*
X239388321Y-127936409D01*
X238742764Y-128308159D01*
X238288610Y-128898655D01*
X238095000Y-129618000D01*
X236809637Y-129618000D01*
X236679991Y-128966226D01*
X236267038Y-128348200D01*
X235649012Y-127935247D01*
X234920000Y-127790238D01*
X234190988Y-127935247D01*
X233572962Y-128348200D01*
X233160009Y-128966226D01*
X233015000Y-129695238D01*
X206127000Y-129695238D01*
X206127000Y-120710000D01*
X254030772Y-120710000D01*
X252547628Y-121322823D01*
M02*
