G04 #@! TF.FileFunction,Soldermask,Top*
%FSLAX46Y46*%
G04 Gerber Fmt 4.6, Leading zero omitted, Abs format (unit mm)*
G04 Created by KiCad (PCBNEW 4.0.7-e2-6376~58~ubuntu16.04.1) date Sat Sep 15 23:25:49 2018*
%MOMM*%
%LPD*%
G01*
G04 APERTURE LIST*
%ADD10C,0.100000*%
%ADD11C,7.800000*%
%ADD12C,3.400000*%
%ADD13C,2.900000*%
%ADD14R,1.400000X1.650000*%
%ADD15R,1.650000X1.400000*%
%ADD16R,2.700000X2.900000*%
%ADD17R,2.900000X2.700000*%
%ADD18O,2.940000X4.210000*%
%ADD19R,2.100000X2.100000*%
%ADD20O,2.100000X2.100000*%
%ADD21R,1.700000X1.100000*%
%ADD22R,1.100000X1.700000*%
%ADD23R,1.924000X1.924000*%
%ADD24R,1.200000X1.300000*%
%ADD25R,2.400000X4.200000*%
%ADD26R,2.400000X1.900000*%
%ADD27O,3.900000X2.900000*%
%ADD28O,1.500000X2.600000*%
%ADD29R,1.600000X1.000000*%
%ADD30R,1.000000X1.600000*%
%ADD31R,1.050000X1.460000*%
%ADD32R,1.900000X1.900000*%
%ADD33R,2.400000X2.400000*%
%ADD34C,1.924000*%
%ADD35R,1.900000X3.400000*%
%ADD36R,2.400000X1.500000*%
%ADD37R,3.600000X1.400000*%
%ADD38R,1.900000X0.850000*%
%ADD39R,2.710000X2.860000*%
%ADD40C,4.400000*%
G04 APERTURE END LIST*
D10*
D11*
X254970000Y-235000000D03*
X90000000Y-235000000D03*
X255000000Y-125000000D03*
D12*
X185000000Y-147380000D03*
X185000000Y-155000000D03*
X164680000Y-147380000D03*
X159600000Y-147380000D03*
X169760000Y-147380000D03*
X164680000Y-155000000D03*
X159600000Y-155000000D03*
X169760000Y-155000000D03*
D13*
X213500000Y-132000000D03*
X218500000Y-132000000D03*
D14*
X185754098Y-177128234D03*
X187754098Y-177128234D03*
X173754098Y-177128234D03*
X175754098Y-177128234D03*
D15*
X205148659Y-185841441D03*
X205148659Y-183841441D03*
X242000000Y-206000000D03*
X242000000Y-208000000D03*
D14*
X242000000Y-211000000D03*
X240000000Y-211000000D03*
D15*
X208148659Y-185841441D03*
X208148659Y-183841441D03*
D14*
X242000000Y-203000000D03*
X240000000Y-203000000D03*
X207000000Y-191000000D03*
X205000000Y-191000000D03*
X220148659Y-198841441D03*
X218148659Y-198841441D03*
X247000000Y-133000000D03*
X249000000Y-133000000D03*
D16*
X190000000Y-164700000D03*
X190000000Y-169000000D03*
D17*
X202300000Y-169000000D03*
X198000000Y-169000000D03*
D18*
X185000000Y-138000000D03*
X185000000Y-130380000D03*
X179920000Y-138000000D03*
X179920000Y-130380000D03*
D19*
X215808659Y-176301441D03*
D20*
X215808659Y-178841441D03*
X213268659Y-176301441D03*
X213268659Y-178841441D03*
X210728659Y-176301441D03*
X210728659Y-178841441D03*
X208188659Y-176301441D03*
X208188659Y-178841441D03*
X205648659Y-176301441D03*
X205648659Y-178841441D03*
D18*
X226760000Y-222380000D03*
X226760000Y-230000000D03*
X231840000Y-222380000D03*
X231840000Y-230000000D03*
X242000000Y-222380000D03*
X236920000Y-222380000D03*
X236920000Y-230000000D03*
X242000000Y-230000000D03*
X196500000Y-222380000D03*
X196500000Y-230000000D03*
X201580000Y-222380000D03*
X201580000Y-230000000D03*
X166500000Y-222380000D03*
X166500000Y-230000000D03*
X171580000Y-222380000D03*
X171580000Y-230000000D03*
X181500000Y-222380000D03*
X181500000Y-230000000D03*
X186580000Y-222380000D03*
X186580000Y-230000000D03*
X211500000Y-222380000D03*
X211500000Y-230000000D03*
X216580000Y-222380000D03*
X216580000Y-230000000D03*
D12*
X115000000Y-147380000D03*
X115000000Y-155000000D03*
X94680000Y-147380000D03*
X89600000Y-147380000D03*
X99760000Y-147380000D03*
X94680000Y-155000000D03*
X89600000Y-155000000D03*
X99760000Y-155000000D03*
X150000000Y-147380000D03*
X150000000Y-155000000D03*
X129680000Y-147380000D03*
X124600000Y-147380000D03*
X134760000Y-147380000D03*
X129680000Y-155000000D03*
X124600000Y-155000000D03*
X134760000Y-155000000D03*
D21*
X257000000Y-175000000D03*
X257000000Y-176900000D03*
X257000000Y-179000000D03*
X257000000Y-180900000D03*
D22*
X232100000Y-195500000D03*
X234000000Y-195500000D03*
X232100000Y-193500000D03*
X234000000Y-193500000D03*
X232100000Y-191500000D03*
X234000000Y-191500000D03*
D21*
X253000000Y-220900000D03*
X253000000Y-219000000D03*
X250000000Y-220900000D03*
X250000000Y-219000000D03*
D22*
X223000000Y-206000000D03*
X224900000Y-206000000D03*
X223000000Y-209000000D03*
X224900000Y-209000000D03*
D21*
X256000000Y-220900000D03*
X256000000Y-219000000D03*
X197000000Y-180000000D03*
X197000000Y-181900000D03*
X201580000Y-217000000D03*
X201580000Y-215100000D03*
X201580000Y-212900000D03*
X201580000Y-211000000D03*
X216580000Y-217000000D03*
X216580000Y-215100000D03*
X216580000Y-212900000D03*
X216580000Y-211000000D03*
D23*
X220000000Y-178000000D03*
X220000000Y-175968000D03*
D24*
X197000000Y-177000000D03*
X198900000Y-177000000D03*
X197950000Y-175000000D03*
D25*
X189754098Y-182128234D03*
D26*
X183454098Y-182128234D03*
X183454098Y-184428234D03*
X183454098Y-179828234D03*
D25*
X177754098Y-182128234D03*
D26*
X171454098Y-182128234D03*
X171454098Y-184428234D03*
X171454098Y-179828234D03*
D27*
X156000000Y-201500000D03*
X156000000Y-178500000D03*
X94000000Y-210000000D03*
X94000000Y-190000000D03*
D28*
X252000000Y-144000000D03*
X250000000Y-144000000D03*
X248000000Y-144000000D03*
X246000000Y-144000000D03*
X244000000Y-144000000D03*
X242000000Y-144000000D03*
X240000000Y-144000000D03*
X238000000Y-144000000D03*
X236000000Y-144000000D03*
X234000000Y-144000000D03*
X232000000Y-144000000D03*
X230000000Y-144000000D03*
X228000000Y-144000000D03*
X226000000Y-144000000D03*
X224000000Y-144000000D03*
X222000000Y-144000000D03*
X222000000Y-168400000D03*
X224000000Y-168400000D03*
X226000000Y-168400000D03*
X228000000Y-168400000D03*
X230000000Y-168400000D03*
X232000000Y-168400000D03*
X234000000Y-168400000D03*
X236000000Y-168400000D03*
X238000000Y-168400000D03*
X240000000Y-168400000D03*
X242000000Y-168400000D03*
X244000000Y-168400000D03*
X246000000Y-168400000D03*
X248000000Y-168400000D03*
X250000000Y-168400000D03*
X252000000Y-168400000D03*
D29*
X210898659Y-187791441D03*
X210898659Y-188591441D03*
X210898659Y-189391441D03*
X210898659Y-190191441D03*
X210898659Y-190991441D03*
X210898659Y-191791441D03*
X210898659Y-192591441D03*
X210898659Y-193391441D03*
D30*
X212348659Y-194841441D03*
X213148659Y-194841441D03*
X213948659Y-194841441D03*
X214748659Y-194841441D03*
X215548659Y-194841441D03*
X216348659Y-194841441D03*
X217148659Y-194841441D03*
X217948659Y-194841441D03*
D29*
X219398659Y-193391441D03*
X219398659Y-192591441D03*
X219398659Y-191791441D03*
X219398659Y-190991441D03*
X219398659Y-190191441D03*
X219398659Y-189391441D03*
X219398659Y-188591441D03*
X219398659Y-187791441D03*
D30*
X217948659Y-186341441D03*
X217148659Y-186341441D03*
X216348659Y-186341441D03*
X215548659Y-186341441D03*
X214748659Y-186341441D03*
X213948659Y-186341441D03*
X213148659Y-186341441D03*
X212348659Y-186341441D03*
D31*
X248900000Y-136800000D03*
X247950000Y-136800000D03*
X247000000Y-136800000D03*
X247000000Y-139000000D03*
X248900000Y-139000000D03*
X247950000Y-139000000D03*
D32*
X171580000Y-193680000D03*
X171580000Y-196220000D03*
D33*
X171580000Y-206380000D03*
X171580000Y-214000000D03*
D32*
X186580000Y-193680000D03*
X186580000Y-196220000D03*
D33*
X186580000Y-206380000D03*
X186580000Y-214000000D03*
D34*
X233680000Y-175260000D03*
X231140000Y-175260000D03*
X228600000Y-175260000D03*
D35*
X248825000Y-208750000D03*
X250095000Y-213250000D03*
X251365000Y-208750000D03*
X252635000Y-213250000D03*
X253905000Y-208750000D03*
X255175000Y-213250000D03*
X248825000Y-196750000D03*
X250095000Y-201250000D03*
X251365000Y-196750000D03*
X252635000Y-201250000D03*
X253905000Y-196750000D03*
X255175000Y-201250000D03*
X248825000Y-184750000D03*
X250095000Y-189250000D03*
X251365000Y-184750000D03*
X252635000Y-189250000D03*
X253905000Y-184750000D03*
X255175000Y-189250000D03*
D36*
X242000000Y-194700000D03*
X242000000Y-193000000D03*
X242000000Y-191300000D03*
X237200000Y-191300000D03*
X237200000Y-193000000D03*
X237200000Y-194700000D03*
D16*
X184000000Y-169000000D03*
X184000000Y-164700000D03*
D37*
X169000000Y-164000000D03*
X169000000Y-170200000D03*
X179000000Y-164000000D03*
X179000000Y-170200000D03*
X174000000Y-164000000D03*
X174000000Y-170200000D03*
D19*
X238760000Y-175260000D03*
D20*
X241300000Y-175260000D03*
X243840000Y-175260000D03*
X246380000Y-175260000D03*
X248920000Y-175260000D03*
X251460000Y-175260000D03*
D11*
X90000000Y-125000000D03*
D15*
X240000000Y-208000000D03*
X240000000Y-206000000D03*
D38*
X229650000Y-205325000D03*
X229650000Y-205975000D03*
X229650000Y-206625000D03*
X229650000Y-207275000D03*
X229650000Y-207925000D03*
X229650000Y-208575000D03*
X229650000Y-209225000D03*
X229650000Y-209875000D03*
X235550000Y-209875000D03*
X235550000Y-209225000D03*
X235550000Y-208575000D03*
X235550000Y-207925000D03*
X235550000Y-207275000D03*
X235550000Y-206625000D03*
X235550000Y-205975000D03*
X235550000Y-205325000D03*
D39*
X232600000Y-207600000D03*
D18*
X200000000Y-138000000D03*
X200000000Y-130380000D03*
X194920000Y-138000000D03*
X194920000Y-130380000D03*
X240000000Y-138000000D03*
X240000000Y-130380000D03*
X234920000Y-138000000D03*
X234920000Y-130380000D03*
D40*
X115000000Y-230000000D03*
X115000000Y-224920000D03*
X135000000Y-230000000D03*
X135000000Y-224920000D03*
X155000000Y-230000000D03*
X155000000Y-224920000D03*
X105000000Y-230000000D03*
X105000000Y-224920000D03*
X125000000Y-230000000D03*
X125000000Y-224920000D03*
X145000000Y-230000000D03*
X145000000Y-224920000D03*
X105000000Y-135000000D03*
X105000000Y-129920000D03*
X125000000Y-135000000D03*
X125000000Y-129920000D03*
X145000000Y-135000000D03*
X145000000Y-129920000D03*
X115000000Y-135000000D03*
X115000000Y-129920000D03*
X135000000Y-135000000D03*
X135000000Y-129920000D03*
X155000000Y-135000000D03*
X155000000Y-129920000D03*
X169000000Y-130920000D03*
X169000000Y-136000000D03*
D13*
X202000000Y-153000000D03*
X207000000Y-153000000D03*
M02*
