G04 #@! TF.FileFunction,Copper,L1,Top,Signal*
%FSLAX46Y46*%
G04 Gerber Fmt 4.6, Leading zero omitted, Abs format (unit mm)*
G04 Created by KiCad (PCBNEW 4.0.7-e2-6376~58~ubuntu16.04.1) date Thu Oct  4 00:19:24 2018*
%MOMM*%
%LPD*%
G01*
G04 APERTURE LIST*
%ADD10C,0.100000*%
%ADD11R,1.000000X1.250000*%
%ADD12R,1.250000X1.000000*%
%ADD13R,0.900000X0.800000*%
%ADD14R,1.300000X0.700000*%
%ADD15O,2.200000X1.100000*%
%ADD16R,1.000000X1.000000*%
%ADD17R,1.500000X3.000000*%
%ADD18C,0.600000*%
%ADD19C,0.400000*%
G04 APERTURE END LIST*
D10*
D11*
X139500000Y-137000000D03*
X141500000Y-137000000D03*
X139500000Y-134500000D03*
X141500000Y-134500000D03*
X139500000Y-132000000D03*
X141500000Y-132000000D03*
D12*
X150000000Y-133500000D03*
X150000000Y-131500000D03*
D13*
X155500000Y-139050000D03*
X155500000Y-140950000D03*
X157500000Y-140000000D03*
D14*
X152500000Y-131500000D03*
X152500000Y-133400000D03*
X155000000Y-131500000D03*
X155000000Y-133400000D03*
X145000000Y-131500000D03*
X145000000Y-133400000D03*
X147500000Y-131500000D03*
X147500000Y-133400000D03*
X157500000Y-131500000D03*
X157500000Y-133400000D03*
D15*
X136301100Y-112603600D03*
X136301100Y-114603600D03*
X136301100Y-116603600D03*
X136301100Y-118603600D03*
X136301100Y-120603600D03*
X136301100Y-122603600D03*
X136301100Y-124603600D03*
X136301100Y-126603600D03*
X136301100Y-128603600D03*
X136301100Y-130603600D03*
X136301100Y-132603600D03*
X136301100Y-134603600D03*
X136301100Y-136603600D03*
X136301100Y-138603600D03*
X136301100Y-140603600D03*
X136301100Y-142603600D03*
X160701100Y-142603600D03*
X160701100Y-140603600D03*
X160701100Y-138603600D03*
X160701100Y-136603600D03*
X160701100Y-134603600D03*
X160701100Y-132603600D03*
X160701100Y-130603600D03*
X160701100Y-128603600D03*
X160701100Y-126603600D03*
X160701100Y-124603600D03*
X160701100Y-122603600D03*
X160701100Y-120603600D03*
X160701100Y-118603600D03*
X160701100Y-116603600D03*
X160701100Y-114603600D03*
X160701100Y-112603600D03*
D16*
X140251100Y-114000000D03*
X140251100Y-116000000D03*
X140251100Y-118000000D03*
X140251100Y-120000000D03*
X140251100Y-122000000D03*
X140251100Y-124000000D03*
X140251100Y-126000000D03*
X140251100Y-128000000D03*
X156751100Y-128000000D03*
X156751100Y-126000000D03*
X156751100Y-124000000D03*
X156751100Y-122000000D03*
X156751100Y-120000000D03*
X156751100Y-118000000D03*
X156751100Y-116000000D03*
X156751100Y-114000000D03*
D17*
X145190000Y-140750000D03*
X146460000Y-145250000D03*
X147730000Y-140750000D03*
X149000000Y-145250000D03*
X150270000Y-140750000D03*
X151540000Y-145250000D03*
D18*
X143000000Y-130000000D03*
X145293178Y-141475991D03*
X156989698Y-129500000D03*
X157500000Y-135000000D03*
X150000000Y-135000000D03*
X150530529Y-130008376D03*
X153500000Y-138000000D03*
X145636544Y-137976841D03*
X152504591Y-124653732D03*
X155000000Y-122000000D03*
X152500000Y-122000000D03*
X138929876Y-122045706D03*
X142000000Y-122000000D03*
X142000000Y-126000000D03*
X148411239Y-137925460D03*
X154000000Y-135500000D03*
X143027609Y-141025496D03*
X151000000Y-136000000D03*
D19*
X145000000Y-137000000D02*
X143974999Y-138025001D01*
X143974999Y-138025001D02*
X140400000Y-138025000D01*
X140400000Y-138025000D02*
X139500000Y-137125000D01*
X139500000Y-137125000D02*
X139500000Y-137000000D01*
X139500000Y-134500000D02*
X139500000Y-137000000D01*
X139500000Y-132000000D02*
X139500000Y-134500000D01*
X140000000Y-128000000D02*
X139500000Y-128500000D01*
X139500000Y-128500000D02*
X139500000Y-132000000D01*
X140251100Y-128000000D02*
X140000000Y-128000000D01*
X155000000Y-140000000D02*
X154465639Y-139465639D01*
X154465639Y-139465639D02*
X154465639Y-137000000D01*
X157500000Y-140000000D02*
X155000000Y-140000000D01*
X152500000Y-137000000D02*
X154465639Y-137000000D01*
X154465639Y-137000000D02*
X155000000Y-136465639D01*
X155000000Y-136465639D02*
X155000000Y-133400000D01*
X145000000Y-137000000D02*
X147500000Y-137000000D01*
X145000000Y-133400000D02*
X145000000Y-137000000D01*
X147500000Y-137000000D02*
X152500000Y-137000000D01*
X147500000Y-133400000D02*
X147500000Y-137000000D01*
X152500000Y-133400000D02*
X152500000Y-137000000D01*
X142475000Y-130000000D02*
X143000000Y-130000000D01*
X141500000Y-132000000D02*
X141500000Y-130975000D01*
X141500000Y-130975000D02*
X142475000Y-130000000D01*
X141500000Y-134500000D02*
X141500000Y-137000000D01*
X141500000Y-132000000D02*
X141500000Y-134500000D01*
X156751100Y-128000000D02*
X156751100Y-129261402D01*
X156751100Y-129261402D02*
X156989698Y-129500000D01*
X157500000Y-133400000D02*
X157500000Y-135000000D01*
X150000000Y-133500000D02*
X150000000Y-135000000D01*
X150230530Y-130308375D02*
X150530529Y-130008376D01*
X150000000Y-130538905D02*
X150230530Y-130308375D01*
X150000000Y-131500000D02*
X150000000Y-130538905D01*
X152650000Y-138850000D02*
X153500000Y-138000000D01*
X150270000Y-138850000D02*
X152650000Y-138850000D01*
X150270000Y-140750000D02*
X150270000Y-138850000D01*
X150000000Y-131500000D02*
X147500000Y-131500000D01*
X140251100Y-114000000D02*
X141151100Y-114000000D01*
X141151100Y-114000000D02*
X147500000Y-120348900D01*
X147500000Y-120348900D02*
X147500000Y-130750000D01*
X147500000Y-130750000D02*
X147500000Y-131500000D01*
X155500000Y-139050000D02*
X155500000Y-138500000D01*
X155500000Y-138500000D02*
X158561109Y-135438891D01*
X158561109Y-135438891D02*
X158561109Y-116193591D01*
X158561109Y-116193591D02*
X160151100Y-114603600D01*
X160151100Y-114603600D02*
X160701100Y-114603600D01*
X151540000Y-145250000D02*
X152690000Y-145250000D01*
X152690000Y-145250000D02*
X155500000Y-142440000D01*
X155500000Y-142440000D02*
X155500000Y-141750000D01*
X155500000Y-141750000D02*
X155500000Y-140950000D01*
X143847824Y-139255506D02*
X145126489Y-137976841D01*
X143847824Y-142577625D02*
X143847824Y-139255506D01*
X147494145Y-142994145D02*
X144264344Y-142994145D01*
X149000000Y-145250000D02*
X149000000Y-144500000D01*
X145126489Y-137976841D02*
X145212280Y-137976841D01*
X145212280Y-137976841D02*
X145636544Y-137976841D01*
X144264344Y-142994145D02*
X143847824Y-142577625D01*
X149000000Y-144500000D02*
X147494145Y-142994145D01*
X152500000Y-124658323D02*
X152504591Y-124653732D01*
X152500000Y-131500000D02*
X152500000Y-124658323D01*
X152500000Y-124649141D02*
X152504591Y-124653732D01*
X152500000Y-122000000D02*
X152500000Y-124649141D01*
X155000000Y-122000000D02*
X156751100Y-122000000D01*
X155000000Y-131500000D02*
X154725109Y-131225109D01*
X154725109Y-131225109D02*
X154725109Y-125125991D01*
X155851100Y-124000000D02*
X156751100Y-124000000D01*
X154725109Y-125125991D02*
X155851100Y-124000000D01*
X140251100Y-118000000D02*
X141151100Y-118000000D01*
X145000000Y-130750000D02*
X145000000Y-131500000D01*
X141151100Y-118000000D02*
X145000000Y-121848900D01*
X145000000Y-121848900D02*
X145000000Y-130750000D01*
X157500000Y-131500000D02*
X157800000Y-131500000D01*
X157800000Y-131500000D02*
X155772130Y-129472130D01*
X155772130Y-129472130D02*
X155772130Y-126451186D01*
X155772130Y-126451186D02*
X156223316Y-126000000D01*
X156223316Y-126000000D02*
X156751100Y-126000000D01*
X138929876Y-122469970D02*
X138929876Y-122045706D01*
X138929876Y-123578776D02*
X138929876Y-122469970D01*
X139351100Y-124000000D02*
X138929876Y-123578776D01*
X140251100Y-124000000D02*
X139351100Y-124000000D01*
X142000000Y-122000000D02*
X140251100Y-122000000D01*
X140251100Y-126000000D02*
X142000000Y-126000000D01*
X148111240Y-138225459D02*
X148411239Y-137925460D01*
X147730000Y-138606699D02*
X148111240Y-138225459D01*
X147730000Y-140750000D02*
X147730000Y-138606699D01*
X153550001Y-135050001D02*
X154000000Y-135500000D01*
X156751100Y-116000000D02*
X155851100Y-116000000D01*
X155851100Y-116000000D02*
X153550001Y-118301099D01*
X153550001Y-118301099D02*
X153550001Y-135050001D01*
X143027609Y-141449760D02*
X143027609Y-141025496D01*
X146460000Y-145250000D02*
X145310000Y-145250000D01*
X143027609Y-142967609D02*
X143027609Y-141449760D01*
X145310000Y-145250000D02*
X143027609Y-142967609D01*
X151449999Y-135550001D02*
X151000000Y-136000000D01*
X156751100Y-114000000D02*
X155851100Y-114000000D01*
X155851100Y-114000000D02*
X151449999Y-118401101D01*
X151449999Y-118401101D02*
X151449999Y-135550001D01*
M02*
