G04 #@! TF.FileFunction,Legend,Top*
%FSLAX46Y46*%
G04 Gerber Fmt 4.6, Leading zero omitted, Abs format (unit mm)*
G04 Created by KiCad (PCBNEW 4.0.7-e2-6376~58~ubuntu16.04.1) date Thu Oct  4 00:19:24 2018*
%MOMM*%
%LPD*%
G01*
G04 APERTURE LIST*
%ADD10C,0.100000*%
%ADD11C,0.120000*%
%ADD12C,0.150000*%
G04 APERTURE END LIST*
D10*
D11*
X141000000Y-136150000D02*
X140000000Y-136150000D01*
X140000000Y-137850000D02*
X141000000Y-137850000D01*
X141000000Y-133650000D02*
X140000000Y-133650000D01*
X140000000Y-135350000D02*
X141000000Y-135350000D01*
X141000000Y-131150000D02*
X140000000Y-131150000D01*
X140000000Y-132850000D02*
X141000000Y-132850000D01*
X149150000Y-132000000D02*
X149150000Y-133000000D01*
X150850000Y-133000000D02*
X150850000Y-132000000D01*
X157260000Y-141580000D02*
X157260000Y-140650000D01*
X157260000Y-138420000D02*
X157260000Y-139350000D01*
X157260000Y-138420000D02*
X155100000Y-138420000D01*
X157260000Y-141580000D02*
X155800000Y-141580000D01*
X151620000Y-133050000D02*
X151620000Y-131850000D01*
X153380000Y-131850000D02*
X153380000Y-133050000D01*
X154120000Y-133050000D02*
X154120000Y-131850000D01*
X155880000Y-131850000D02*
X155880000Y-133050000D01*
X144120000Y-133050000D02*
X144120000Y-131850000D01*
X145880000Y-131850000D02*
X145880000Y-133050000D01*
X146620000Y-133050000D02*
X146620000Y-131850000D01*
X148380000Y-131850000D02*
X148380000Y-133050000D01*
X156620000Y-133050000D02*
X156620000Y-131850000D01*
X158380000Y-131850000D02*
X158380000Y-133050000D01*
D12*
X158826100Y-144903600D02*
G75*
G03X158826100Y-144903600I-1125000J0D01*
G01*
X138826100Y-145003600D02*
G75*
G03X138826100Y-145003600I-1125000J0D01*
G01*
X161701100Y-109670600D02*
X157034100Y-105003600D01*
X161701100Y-143603600D02*
X161701100Y-109670600D01*
X157401100Y-147903600D02*
X161701100Y-143603600D01*
X138101100Y-147903600D02*
X157401100Y-147903600D01*
X135301100Y-145103600D02*
X138101100Y-147903600D01*
X135301100Y-105003600D02*
X135301100Y-145103600D01*
X157034100Y-105003600D02*
X135301100Y-105003600D01*
X156501100Y-105500000D02*
X156501100Y-129500000D01*
X140501100Y-105500000D02*
X156501100Y-105500000D01*
X140501100Y-129500000D02*
X140501100Y-105500000D01*
X156501100Y-129500000D02*
X140501100Y-129500000D01*
X143615000Y-140500000D02*
X153115000Y-140500000D01*
X143615000Y-145500000D02*
X153115000Y-145500000D01*
X143615000Y-140500000D02*
X143615000Y-145500000D01*
X153115000Y-140500000D02*
X153115000Y-145500000D01*
X143615000Y-141500000D02*
X144115000Y-141500000D01*
X144115000Y-141500000D02*
X144115000Y-144500000D01*
X143615000Y-144500000D02*
X144115000Y-144500000D01*
X140333334Y-142857143D02*
X140285715Y-142904762D01*
X140142858Y-142952381D01*
X140047620Y-142952381D01*
X139904762Y-142904762D01*
X139809524Y-142809524D01*
X139761905Y-142714286D01*
X139714286Y-142523810D01*
X139714286Y-142380952D01*
X139761905Y-142190476D01*
X139809524Y-142095238D01*
X139904762Y-142000000D01*
X140047620Y-141952381D01*
X140142858Y-141952381D01*
X140285715Y-142000000D01*
X140333334Y-142047619D01*
X141285715Y-142952381D02*
X140714286Y-142952381D01*
X141000000Y-142952381D02*
X141000000Y-141952381D01*
X140904762Y-142095238D01*
X140809524Y-142190476D01*
X140714286Y-142238095D01*
X140333334Y-141357143D02*
X140285715Y-141404762D01*
X140142858Y-141452381D01*
X140047620Y-141452381D01*
X139904762Y-141404762D01*
X139809524Y-141309524D01*
X139761905Y-141214286D01*
X139714286Y-141023810D01*
X139714286Y-140880952D01*
X139761905Y-140690476D01*
X139809524Y-140595238D01*
X139904762Y-140500000D01*
X140047620Y-140452381D01*
X140142858Y-140452381D01*
X140285715Y-140500000D01*
X140333334Y-140547619D01*
X140714286Y-140547619D02*
X140761905Y-140500000D01*
X140857143Y-140452381D01*
X141095239Y-140452381D01*
X141190477Y-140500000D01*
X141238096Y-140547619D01*
X141285715Y-140642857D01*
X141285715Y-140738095D01*
X141238096Y-140880952D01*
X140666667Y-141452381D01*
X141285715Y-141452381D01*
X140333334Y-139857143D02*
X140285715Y-139904762D01*
X140142858Y-139952381D01*
X140047620Y-139952381D01*
X139904762Y-139904762D01*
X139809524Y-139809524D01*
X139761905Y-139714286D01*
X139714286Y-139523810D01*
X139714286Y-139380952D01*
X139761905Y-139190476D01*
X139809524Y-139095238D01*
X139904762Y-139000000D01*
X140047620Y-138952381D01*
X140142858Y-138952381D01*
X140285715Y-139000000D01*
X140333334Y-139047619D01*
X140666667Y-138952381D02*
X141285715Y-138952381D01*
X140952381Y-139333333D01*
X141095239Y-139333333D01*
X141190477Y-139380952D01*
X141238096Y-139428571D01*
X141285715Y-139523810D01*
X141285715Y-139761905D01*
X141238096Y-139857143D01*
X141190477Y-139904762D01*
X141095239Y-139952381D01*
X140809524Y-139952381D01*
X140714286Y-139904762D01*
X140666667Y-139857143D01*
X150357143Y-135666666D02*
X150404762Y-135714285D01*
X150452381Y-135857142D01*
X150452381Y-135952380D01*
X150404762Y-136095238D01*
X150309524Y-136190476D01*
X150214286Y-136238095D01*
X150023810Y-136285714D01*
X149880952Y-136285714D01*
X149690476Y-136238095D01*
X149595238Y-136190476D01*
X149500000Y-136095238D01*
X149452381Y-135952380D01*
X149452381Y-135857142D01*
X149500000Y-135714285D01*
X149547619Y-135666666D01*
X149785714Y-134809523D02*
X150452381Y-134809523D01*
X149404762Y-135047619D02*
X150119048Y-135285714D01*
X150119048Y-134666666D01*
X155761905Y-143452381D02*
X155761905Y-142452381D01*
X156000000Y-142452381D01*
X156142858Y-142500000D01*
X156238096Y-142595238D01*
X156285715Y-142690476D01*
X156333334Y-142880952D01*
X156333334Y-143023810D01*
X156285715Y-143214286D01*
X156238096Y-143309524D01*
X156142858Y-143404762D01*
X156000000Y-143452381D01*
X155761905Y-143452381D01*
X156714286Y-142547619D02*
X156761905Y-142500000D01*
X156857143Y-142452381D01*
X157095239Y-142452381D01*
X157190477Y-142500000D01*
X157238096Y-142547619D01*
X157285715Y-142642857D01*
X157285715Y-142738095D01*
X157238096Y-142880952D01*
X156666667Y-143452381D01*
X157285715Y-143452381D01*
X152952381Y-135666666D02*
X152476190Y-136000000D01*
X152952381Y-136238095D02*
X151952381Y-136238095D01*
X151952381Y-135857142D01*
X152000000Y-135761904D01*
X152047619Y-135714285D01*
X152142857Y-135666666D01*
X152285714Y-135666666D01*
X152380952Y-135714285D01*
X152428571Y-135761904D01*
X152476190Y-135857142D01*
X152476190Y-136238095D01*
X152285714Y-134809523D02*
X152952381Y-134809523D01*
X151904762Y-135047619D02*
X152619048Y-135285714D01*
X152619048Y-134666666D01*
X155452381Y-135666666D02*
X154976190Y-136000000D01*
X155452381Y-136238095D02*
X154452381Y-136238095D01*
X154452381Y-135857142D01*
X154500000Y-135761904D01*
X154547619Y-135714285D01*
X154642857Y-135666666D01*
X154785714Y-135666666D01*
X154880952Y-135714285D01*
X154928571Y-135761904D01*
X154976190Y-135857142D01*
X154976190Y-136238095D01*
X154452381Y-134761904D02*
X154452381Y-135238095D01*
X154928571Y-135285714D01*
X154880952Y-135238095D01*
X154833333Y-135142857D01*
X154833333Y-134904761D01*
X154880952Y-134809523D01*
X154928571Y-134761904D01*
X155023810Y-134714285D01*
X155261905Y-134714285D01*
X155357143Y-134761904D01*
X155404762Y-134809523D01*
X155452381Y-134904761D01*
X155452381Y-135142857D01*
X155404762Y-135238095D01*
X155357143Y-135285714D01*
X145452381Y-135666666D02*
X144976190Y-136000000D01*
X145452381Y-136238095D02*
X144452381Y-136238095D01*
X144452381Y-135857142D01*
X144500000Y-135761904D01*
X144547619Y-135714285D01*
X144642857Y-135666666D01*
X144785714Y-135666666D01*
X144880952Y-135714285D01*
X144928571Y-135761904D01*
X144976190Y-135857142D01*
X144976190Y-136238095D01*
X144452381Y-134809523D02*
X144452381Y-135000000D01*
X144500000Y-135095238D01*
X144547619Y-135142857D01*
X144690476Y-135238095D01*
X144880952Y-135285714D01*
X145261905Y-135285714D01*
X145357143Y-135238095D01*
X145404762Y-135190476D01*
X145452381Y-135095238D01*
X145452381Y-134904761D01*
X145404762Y-134809523D01*
X145357143Y-134761904D01*
X145261905Y-134714285D01*
X145023810Y-134714285D01*
X144928571Y-134761904D01*
X144880952Y-134809523D01*
X144833333Y-134904761D01*
X144833333Y-135095238D01*
X144880952Y-135190476D01*
X144928571Y-135238095D01*
X145023810Y-135285714D01*
X147952381Y-135666666D02*
X147476190Y-136000000D01*
X147952381Y-136238095D02*
X146952381Y-136238095D01*
X146952381Y-135857142D01*
X147000000Y-135761904D01*
X147047619Y-135714285D01*
X147142857Y-135666666D01*
X147285714Y-135666666D01*
X147380952Y-135714285D01*
X147428571Y-135761904D01*
X147476190Y-135857142D01*
X147476190Y-136238095D01*
X146952381Y-135333333D02*
X146952381Y-134666666D01*
X147952381Y-135095238D01*
X157952381Y-135666666D02*
X157476190Y-136000000D01*
X157952381Y-136238095D02*
X156952381Y-136238095D01*
X156952381Y-135857142D01*
X157000000Y-135761904D01*
X157047619Y-135714285D01*
X157142857Y-135666666D01*
X157285714Y-135666666D01*
X157380952Y-135714285D01*
X157428571Y-135761904D01*
X157476190Y-135857142D01*
X157476190Y-136238095D01*
X157380952Y-135095238D02*
X157333333Y-135190476D01*
X157285714Y-135238095D01*
X157190476Y-135285714D01*
X157142857Y-135285714D01*
X157047619Y-135238095D01*
X157000000Y-135190476D01*
X156952381Y-135095238D01*
X156952381Y-134904761D01*
X157000000Y-134809523D01*
X157047619Y-134761904D01*
X157142857Y-134714285D01*
X157190476Y-134714285D01*
X157285714Y-134761904D01*
X157333333Y-134809523D01*
X157380952Y-134904761D01*
X157380952Y-135095238D01*
X157428571Y-135190476D01*
X157476190Y-135238095D01*
X157571429Y-135285714D01*
X157761905Y-135285714D01*
X157857143Y-135238095D01*
X157904762Y-135190476D01*
X157952381Y-135095238D01*
X157952381Y-134904761D01*
X157904762Y-134809523D01*
X157857143Y-134761904D01*
X157761905Y-134714285D01*
X157571429Y-134714285D01*
X157476190Y-134761904D01*
X157428571Y-134809523D01*
X157380952Y-134904761D01*
X147739195Y-107455981D02*
X147739195Y-108265505D01*
X147786814Y-108360743D01*
X147834433Y-108408362D01*
X147929671Y-108455981D01*
X148120148Y-108455981D01*
X148215386Y-108408362D01*
X148263005Y-108360743D01*
X148310624Y-108265505D01*
X148310624Y-107455981D01*
X149310624Y-108455981D02*
X148739195Y-108455981D01*
X149024909Y-108455981D02*
X149024909Y-107455981D01*
X148929671Y-107598838D01*
X148834433Y-107694076D01*
X148739195Y-107741695D01*
X141953481Y-128761905D02*
X142763005Y-128761905D01*
X142858243Y-128714286D01*
X142905862Y-128666667D01*
X142953481Y-128571429D01*
X142953481Y-128380952D01*
X142905862Y-128285714D01*
X142858243Y-128238095D01*
X142763005Y-128190476D01*
X141953481Y-128190476D01*
X141953481Y-127809524D02*
X141953481Y-127190476D01*
X142334433Y-127523810D01*
X142334433Y-127380952D01*
X142382052Y-127285714D01*
X142429671Y-127238095D01*
X142524910Y-127190476D01*
X142763005Y-127190476D01*
X142858243Y-127238095D01*
X142905862Y-127285714D01*
X142953481Y-127380952D01*
X142953481Y-127666667D01*
X142905862Y-127761905D01*
X142858243Y-127809524D01*
X147555476Y-142452381D02*
X148222143Y-143452381D01*
X148222143Y-142452381D02*
X147555476Y-143452381D01*
X148555476Y-142547619D02*
X148603095Y-142500000D01*
X148698333Y-142452381D01*
X148936429Y-142452381D01*
X149031667Y-142500000D01*
X149079286Y-142547619D01*
X149126905Y-142642857D01*
X149126905Y-142738095D01*
X149079286Y-142880952D01*
X148507857Y-143452381D01*
X149126905Y-143452381D01*
M02*
