M48
;DRILL file {KiCad 4.0.7-e2-6376~58~ubuntu16.04.1} date Thu Oct  4 00:19:27 2018
;FORMAT={-:-/ absolute / inch / decimal}
FMAT,2
INCH,TZ
T1C0.016
T2C0.035
%
G90
G05
M72
T1
X5.4697Y-4.8049
X5.5906Y-4.8031
X5.5906Y-4.9606
X5.6299Y-5.1181
X5.631Y-5.5522
X5.7202Y-5.5699
X5.7337Y-5.4322
X5.843Y-5.4301
X5.9055Y-5.315
X5.9264Y-5.1184
X5.9449Y-5.3543
X6.0039Y-4.8031
X6.0041Y-4.9076
X6.0433Y-5.4331
X6.063Y-5.3346
X6.1024Y-4.8031
X6.1807Y-5.0984
X6.2008Y-5.315
T2
X5.3662Y-4.4332
X5.3662Y-4.512
X5.3662Y-4.5907
X5.3662Y-4.6694
X5.3662Y-4.7482
X5.3662Y-4.8269
X5.3662Y-4.9057
X5.3662Y-4.9844
X5.3662Y-5.0631
X5.3662Y-5.1419
X5.3662Y-5.2206
X5.3662Y-5.2994
X5.3662Y-5.3781
X5.3662Y-5.4568
X5.3662Y-5.5356
X5.3662Y-5.6143
X6.3268Y-4.4332
X6.3268Y-4.512
X6.3268Y-4.5907
X6.3268Y-4.6694
X6.3268Y-4.7482
X6.3268Y-4.8269
X6.3268Y-4.9057
X6.3268Y-4.9844
X6.3268Y-5.0631
X6.3268Y-5.1419
X6.3268Y-5.2206
X6.3268Y-5.2994
X6.3268Y-5.3781
X6.3268Y-5.4568
X6.3268Y-5.5356
X6.3268Y-5.6143
T0
M30
