G04 #@! TF.FileFunction,Copper,L2,Bot,Signal*
%FSLAX46Y46*%
G04 Gerber Fmt 4.6, Leading zero omitted, Abs format (unit mm)*
G04 Created by KiCad (PCBNEW 4.0.7-e2-6376~58~ubuntu16.04.1) date Thu Oct  4 00:19:24 2018*
%MOMM*%
%LPD*%
G01*
G04 APERTURE LIST*
%ADD10C,0.100000*%
%ADD11O,2.200000X1.100000*%
%ADD12C,0.600000*%
%ADD13C,0.400000*%
%ADD14C,0.254000*%
G04 APERTURE END LIST*
D10*
D11*
X136301100Y-112603600D03*
X136301100Y-114603600D03*
X136301100Y-116603600D03*
X136301100Y-118603600D03*
X136301100Y-120603600D03*
X136301100Y-122603600D03*
X136301100Y-124603600D03*
X136301100Y-126603600D03*
X136301100Y-128603600D03*
X136301100Y-130603600D03*
X136301100Y-132603600D03*
X136301100Y-134603600D03*
X136301100Y-136603600D03*
X136301100Y-138603600D03*
X136301100Y-140603600D03*
X136301100Y-142603600D03*
X160701100Y-142603600D03*
X160701100Y-140603600D03*
X160701100Y-138603600D03*
X160701100Y-136603600D03*
X160701100Y-134603600D03*
X160701100Y-132603600D03*
X160701100Y-130603600D03*
X160701100Y-128603600D03*
X160701100Y-126603600D03*
X160701100Y-124603600D03*
X160701100Y-122603600D03*
X160701100Y-120603600D03*
X160701100Y-118603600D03*
X160701100Y-116603600D03*
X160701100Y-114603600D03*
X160701100Y-112603600D03*
D12*
X143000000Y-130000000D03*
X145293178Y-141475991D03*
X156989698Y-129500000D03*
X157500000Y-135000000D03*
X150000000Y-135000000D03*
X150530529Y-130008376D03*
X153500000Y-138000000D03*
X145636544Y-137976841D03*
X152504591Y-124653732D03*
X155000000Y-122000000D03*
X152500000Y-122000000D03*
X138929876Y-122045706D03*
X142000000Y-122000000D03*
X142000000Y-126000000D03*
X148411239Y-137925460D03*
X154000000Y-135500000D03*
X143027609Y-141025496D03*
X151000000Y-136000000D03*
D13*
X150830528Y-130308375D02*
X150530529Y-130008376D01*
X155500000Y-134977847D02*
X150830528Y-130308375D01*
X155500000Y-136000000D02*
X155500000Y-134977847D01*
X153500000Y-138000000D02*
X155500000Y-136000000D01*
X152504591Y-124653732D02*
X149725602Y-124653732D01*
X149725602Y-124653732D02*
X145636544Y-128742790D01*
X145636544Y-137552577D02*
X145636544Y-137976841D01*
X145636544Y-128742790D02*
X145636544Y-137552577D01*
X152500000Y-122000000D02*
X155000000Y-122000000D01*
X139229875Y-122345705D02*
X138929876Y-122045706D01*
X139324062Y-122439892D02*
X139229875Y-122345705D01*
X139324062Y-144474421D02*
X139324062Y-122439892D01*
X141817274Y-146967633D02*
X139324062Y-144474421D01*
X154837067Y-146967633D02*
X141817274Y-146967633D01*
X159201100Y-142603600D02*
X154837067Y-146967633D01*
X160701100Y-142603600D02*
X159201100Y-142603600D01*
X160701100Y-140603600D02*
X160151100Y-140603600D01*
X160151100Y-140603600D02*
X154518082Y-146236618D01*
X154518082Y-146236618D02*
X142888075Y-146236618D01*
X142888075Y-146236618D02*
X140443766Y-143792309D01*
X140443766Y-143792309D02*
X140443766Y-123556234D01*
X140443766Y-123556234D02*
X141608171Y-122391829D01*
X141608171Y-122391829D02*
X142000000Y-122000000D01*
X160701100Y-138603600D02*
X160232768Y-138603600D01*
X153391683Y-145444685D02*
X143444685Y-145444685D01*
X160232768Y-138603600D02*
X153391683Y-145444685D01*
X143444685Y-145444685D02*
X141224101Y-143224101D01*
X141224101Y-143224101D02*
X141224101Y-126775899D01*
X141224101Y-126775899D02*
X142000000Y-126000000D01*
X148835503Y-137925460D02*
X148411239Y-137925460D01*
X154000000Y-135500000D02*
X151574540Y-137925460D01*
X151574540Y-137925460D02*
X148835503Y-137925460D01*
X151000000Y-136000000D02*
X149007759Y-136000000D01*
X149007759Y-136000000D02*
X143982263Y-141025496D01*
X143982263Y-141025496D02*
X143451873Y-141025496D01*
X143451873Y-141025496D02*
X143027609Y-141025496D01*
D14*
G36*
X159007702Y-112267454D02*
X159007297Y-112293856D01*
X159132739Y-112476600D01*
X160574100Y-112476600D01*
X160574100Y-112456600D01*
X160828100Y-112456600D01*
X160828100Y-112476600D01*
X160848100Y-112476600D01*
X160848100Y-112730600D01*
X160828100Y-112730600D01*
X160828100Y-112750600D01*
X160574100Y-112750600D01*
X160574100Y-112730600D01*
X159132739Y-112730600D01*
X159007297Y-112913344D01*
X159007702Y-112939746D01*
X159223376Y-113351718D01*
X159523543Y-113602405D01*
X159279187Y-113765678D01*
X159022312Y-114150120D01*
X158932109Y-114603600D01*
X159022312Y-115057080D01*
X159279187Y-115441522D01*
X159521755Y-115603600D01*
X159279187Y-115765678D01*
X159022312Y-116150120D01*
X158932109Y-116603600D01*
X159022312Y-117057080D01*
X159279187Y-117441522D01*
X159521755Y-117603600D01*
X159279187Y-117765678D01*
X159022312Y-118150120D01*
X158932109Y-118603600D01*
X159022312Y-119057080D01*
X159279187Y-119441522D01*
X159521755Y-119603600D01*
X159279187Y-119765678D01*
X159022312Y-120150120D01*
X158932109Y-120603600D01*
X159022312Y-121057080D01*
X159279187Y-121441522D01*
X159521755Y-121603600D01*
X159279187Y-121765678D01*
X159022312Y-122150120D01*
X158932109Y-122603600D01*
X159022312Y-123057080D01*
X159279187Y-123441522D01*
X159521755Y-123603600D01*
X159279187Y-123765678D01*
X159022312Y-124150120D01*
X158932109Y-124603600D01*
X159022312Y-125057080D01*
X159279187Y-125441522D01*
X159521755Y-125603600D01*
X159279187Y-125765678D01*
X159022312Y-126150120D01*
X158932109Y-126603600D01*
X159022312Y-127057080D01*
X159279187Y-127441522D01*
X159521755Y-127603600D01*
X159279187Y-127765678D01*
X159022312Y-128150120D01*
X158932109Y-128603600D01*
X159022312Y-129057080D01*
X159279187Y-129441522D01*
X159521755Y-129603600D01*
X159279187Y-129765678D01*
X159022312Y-130150120D01*
X158932109Y-130603600D01*
X159022312Y-131057080D01*
X159279187Y-131441522D01*
X159521755Y-131603600D01*
X159279187Y-131765678D01*
X159022312Y-132150120D01*
X158932109Y-132603600D01*
X159022312Y-133057080D01*
X159279187Y-133441522D01*
X159521755Y-133603600D01*
X159279187Y-133765678D01*
X159022312Y-134150120D01*
X158932109Y-134603600D01*
X159022312Y-135057080D01*
X159279187Y-135441522D01*
X159521755Y-135603600D01*
X159279187Y-135765678D01*
X159022312Y-136150120D01*
X158932109Y-136603600D01*
X159022312Y-137057080D01*
X159279187Y-137441522D01*
X159521755Y-137603600D01*
X159279187Y-137765678D01*
X159022312Y-138150120D01*
X158932109Y-138603600D01*
X158951984Y-138703516D01*
X153045815Y-144609685D01*
X143790553Y-144609685D01*
X142059101Y-142878233D01*
X142059101Y-141210663D01*
X142092447Y-141210663D01*
X142234492Y-141554439D01*
X142497282Y-141817688D01*
X142840810Y-141960334D01*
X143212776Y-141960658D01*
X143455187Y-141860496D01*
X143982263Y-141860496D01*
X144301804Y-141796935D01*
X144572697Y-141615930D01*
X147676122Y-138512505D01*
X147880912Y-138717652D01*
X148224440Y-138860298D01*
X148596406Y-138860622D01*
X148838817Y-138760460D01*
X151574540Y-138760460D01*
X151894081Y-138696899D01*
X152164974Y-138515894D01*
X152564898Y-138115970D01*
X152564838Y-138185167D01*
X152706883Y-138528943D01*
X152969673Y-138792192D01*
X153313201Y-138934838D01*
X153685167Y-138935162D01*
X154028943Y-138793117D01*
X154292192Y-138530327D01*
X154392778Y-138288090D01*
X156090434Y-136590434D01*
X156194400Y-136434838D01*
X156271439Y-136319541D01*
X156335000Y-136000000D01*
X156335000Y-134977847D01*
X156281102Y-134706883D01*
X156271440Y-134658307D01*
X156090434Y-134387413D01*
X151423064Y-129720043D01*
X151323646Y-129479433D01*
X151060856Y-129216184D01*
X150717328Y-129073538D01*
X150345362Y-129073214D01*
X150001586Y-129215259D01*
X149738337Y-129478049D01*
X149595691Y-129821577D01*
X149595367Y-130193543D01*
X149737412Y-130537319D01*
X150000202Y-130800568D01*
X150242439Y-130901154D01*
X153906203Y-134564918D01*
X153814833Y-134564838D01*
X153471057Y-134706883D01*
X153207808Y-134969673D01*
X153107222Y-135211910D01*
X151794597Y-136524535D01*
X151934838Y-136186799D01*
X151935162Y-135814833D01*
X151793117Y-135471057D01*
X151530327Y-135207808D01*
X151186799Y-135065162D01*
X150814833Y-135064838D01*
X150572422Y-135165000D01*
X149007759Y-135165000D01*
X148688219Y-135228560D01*
X148417325Y-135409566D01*
X146471544Y-137355347D01*
X146471544Y-129088658D01*
X150071470Y-125488732D01*
X152077357Y-125488732D01*
X152317792Y-125588570D01*
X152689758Y-125588894D01*
X153033534Y-125446849D01*
X153296783Y-125184059D01*
X153439429Y-124840531D01*
X153439753Y-124468565D01*
X153297708Y-124124789D01*
X153034918Y-123861540D01*
X152691390Y-123718894D01*
X152319424Y-123718570D01*
X152077013Y-123818732D01*
X149725602Y-123818732D01*
X149406061Y-123882293D01*
X149135168Y-124063298D01*
X145046110Y-128152356D01*
X144865105Y-128423249D01*
X144801544Y-128742790D01*
X144801544Y-137549607D01*
X144701706Y-137790042D01*
X144701382Y-138162008D01*
X144843427Y-138505784D01*
X145082059Y-138744832D01*
X143636395Y-140190496D01*
X143454843Y-140190496D01*
X143214408Y-140090658D01*
X142842442Y-140090334D01*
X142498666Y-140232379D01*
X142235417Y-140495169D01*
X142092771Y-140838697D01*
X142092447Y-141210663D01*
X142059101Y-141210663D01*
X142059101Y-127121767D01*
X142288333Y-126892535D01*
X142528943Y-126793117D01*
X142792192Y-126530327D01*
X142934838Y-126186799D01*
X142935162Y-125814833D01*
X142793117Y-125471057D01*
X142530327Y-125207808D01*
X142186799Y-125065162D01*
X141814833Y-125064838D01*
X141471057Y-125206883D01*
X141278766Y-125398839D01*
X141278766Y-123902102D01*
X142288333Y-122892535D01*
X142528943Y-122793117D01*
X142792192Y-122530327D01*
X142934838Y-122186799D01*
X142934839Y-122185167D01*
X151564838Y-122185167D01*
X151706883Y-122528943D01*
X151969673Y-122792192D01*
X152313201Y-122934838D01*
X152685167Y-122935162D01*
X152927578Y-122835000D01*
X154572766Y-122835000D01*
X154813201Y-122934838D01*
X155185167Y-122935162D01*
X155528943Y-122793117D01*
X155792192Y-122530327D01*
X155934838Y-122186799D01*
X155935162Y-121814833D01*
X155793117Y-121471057D01*
X155530327Y-121207808D01*
X155186799Y-121065162D01*
X154814833Y-121064838D01*
X154572422Y-121165000D01*
X152927234Y-121165000D01*
X152686799Y-121065162D01*
X152314833Y-121064838D01*
X151971057Y-121206883D01*
X151707808Y-121469673D01*
X151565162Y-121813201D01*
X151564838Y-122185167D01*
X142934839Y-122185167D01*
X142935162Y-121814833D01*
X142793117Y-121471057D01*
X142530327Y-121207808D01*
X142186799Y-121065162D01*
X141814833Y-121064838D01*
X141471057Y-121206883D01*
X141207808Y-121469673D01*
X141107222Y-121711910D01*
X140159062Y-122660070D01*
X140159062Y-122439892D01*
X140135123Y-122319541D01*
X140095502Y-122120352D01*
X139914496Y-121849458D01*
X139822411Y-121757373D01*
X139722993Y-121516763D01*
X139460203Y-121253514D01*
X139116675Y-121110868D01*
X138744709Y-121110544D01*
X138400933Y-121252589D01*
X138137684Y-121515379D01*
X137995038Y-121858907D01*
X137994719Y-122224682D01*
X137979888Y-122150120D01*
X137723013Y-121765678D01*
X137480445Y-121603600D01*
X137723013Y-121441522D01*
X137979888Y-121057080D01*
X138070091Y-120603600D01*
X137979888Y-120150120D01*
X137723013Y-119765678D01*
X137480445Y-119603600D01*
X137723013Y-119441522D01*
X137979888Y-119057080D01*
X138070091Y-118603600D01*
X137979888Y-118150120D01*
X137723013Y-117765678D01*
X137480445Y-117603600D01*
X137723013Y-117441522D01*
X137979888Y-117057080D01*
X138070091Y-116603600D01*
X137979888Y-116150120D01*
X137723013Y-115765678D01*
X137480445Y-115603600D01*
X137723013Y-115441522D01*
X137979888Y-115057080D01*
X138070091Y-114603600D01*
X137979888Y-114150120D01*
X137723013Y-113765678D01*
X137478657Y-113602405D01*
X137778824Y-113351718D01*
X137994498Y-112939746D01*
X137994903Y-112913344D01*
X137869461Y-112730600D01*
X136428100Y-112730600D01*
X136428100Y-112750600D01*
X136174100Y-112750600D01*
X136174100Y-112730600D01*
X136154100Y-112730600D01*
X136154100Y-112476600D01*
X136174100Y-112476600D01*
X136174100Y-112456600D01*
X136428100Y-112456600D01*
X136428100Y-112476600D01*
X137869461Y-112476600D01*
X137994903Y-112293856D01*
X137994498Y-112267454D01*
X137920968Y-112127000D01*
X159081232Y-112127000D01*
X159007702Y-112267454D01*
X159007702Y-112267454D01*
G37*
X159007702Y-112267454D02*
X159007297Y-112293856D01*
X159132739Y-112476600D01*
X160574100Y-112476600D01*
X160574100Y-112456600D01*
X160828100Y-112456600D01*
X160828100Y-112476600D01*
X160848100Y-112476600D01*
X160848100Y-112730600D01*
X160828100Y-112730600D01*
X160828100Y-112750600D01*
X160574100Y-112750600D01*
X160574100Y-112730600D01*
X159132739Y-112730600D01*
X159007297Y-112913344D01*
X159007702Y-112939746D01*
X159223376Y-113351718D01*
X159523543Y-113602405D01*
X159279187Y-113765678D01*
X159022312Y-114150120D01*
X158932109Y-114603600D01*
X159022312Y-115057080D01*
X159279187Y-115441522D01*
X159521755Y-115603600D01*
X159279187Y-115765678D01*
X159022312Y-116150120D01*
X158932109Y-116603600D01*
X159022312Y-117057080D01*
X159279187Y-117441522D01*
X159521755Y-117603600D01*
X159279187Y-117765678D01*
X159022312Y-118150120D01*
X158932109Y-118603600D01*
X159022312Y-119057080D01*
X159279187Y-119441522D01*
X159521755Y-119603600D01*
X159279187Y-119765678D01*
X159022312Y-120150120D01*
X158932109Y-120603600D01*
X159022312Y-121057080D01*
X159279187Y-121441522D01*
X159521755Y-121603600D01*
X159279187Y-121765678D01*
X159022312Y-122150120D01*
X158932109Y-122603600D01*
X159022312Y-123057080D01*
X159279187Y-123441522D01*
X159521755Y-123603600D01*
X159279187Y-123765678D01*
X159022312Y-124150120D01*
X158932109Y-124603600D01*
X159022312Y-125057080D01*
X159279187Y-125441522D01*
X159521755Y-125603600D01*
X159279187Y-125765678D01*
X159022312Y-126150120D01*
X158932109Y-126603600D01*
X159022312Y-127057080D01*
X159279187Y-127441522D01*
X159521755Y-127603600D01*
X159279187Y-127765678D01*
X159022312Y-128150120D01*
X158932109Y-128603600D01*
X159022312Y-129057080D01*
X159279187Y-129441522D01*
X159521755Y-129603600D01*
X159279187Y-129765678D01*
X159022312Y-130150120D01*
X158932109Y-130603600D01*
X159022312Y-131057080D01*
X159279187Y-131441522D01*
X159521755Y-131603600D01*
X159279187Y-131765678D01*
X159022312Y-132150120D01*
X158932109Y-132603600D01*
X159022312Y-133057080D01*
X159279187Y-133441522D01*
X159521755Y-133603600D01*
X159279187Y-133765678D01*
X159022312Y-134150120D01*
X158932109Y-134603600D01*
X159022312Y-135057080D01*
X159279187Y-135441522D01*
X159521755Y-135603600D01*
X159279187Y-135765678D01*
X159022312Y-136150120D01*
X158932109Y-136603600D01*
X159022312Y-137057080D01*
X159279187Y-137441522D01*
X159521755Y-137603600D01*
X159279187Y-137765678D01*
X159022312Y-138150120D01*
X158932109Y-138603600D01*
X158951984Y-138703516D01*
X153045815Y-144609685D01*
X143790553Y-144609685D01*
X142059101Y-142878233D01*
X142059101Y-141210663D01*
X142092447Y-141210663D01*
X142234492Y-141554439D01*
X142497282Y-141817688D01*
X142840810Y-141960334D01*
X143212776Y-141960658D01*
X143455187Y-141860496D01*
X143982263Y-141860496D01*
X144301804Y-141796935D01*
X144572697Y-141615930D01*
X147676122Y-138512505D01*
X147880912Y-138717652D01*
X148224440Y-138860298D01*
X148596406Y-138860622D01*
X148838817Y-138760460D01*
X151574540Y-138760460D01*
X151894081Y-138696899D01*
X152164974Y-138515894D01*
X152564898Y-138115970D01*
X152564838Y-138185167D01*
X152706883Y-138528943D01*
X152969673Y-138792192D01*
X153313201Y-138934838D01*
X153685167Y-138935162D01*
X154028943Y-138793117D01*
X154292192Y-138530327D01*
X154392778Y-138288090D01*
X156090434Y-136590434D01*
X156194400Y-136434838D01*
X156271439Y-136319541D01*
X156335000Y-136000000D01*
X156335000Y-134977847D01*
X156281102Y-134706883D01*
X156271440Y-134658307D01*
X156090434Y-134387413D01*
X151423064Y-129720043D01*
X151323646Y-129479433D01*
X151060856Y-129216184D01*
X150717328Y-129073538D01*
X150345362Y-129073214D01*
X150001586Y-129215259D01*
X149738337Y-129478049D01*
X149595691Y-129821577D01*
X149595367Y-130193543D01*
X149737412Y-130537319D01*
X150000202Y-130800568D01*
X150242439Y-130901154D01*
X153906203Y-134564918D01*
X153814833Y-134564838D01*
X153471057Y-134706883D01*
X153207808Y-134969673D01*
X153107222Y-135211910D01*
X151794597Y-136524535D01*
X151934838Y-136186799D01*
X151935162Y-135814833D01*
X151793117Y-135471057D01*
X151530327Y-135207808D01*
X151186799Y-135065162D01*
X150814833Y-135064838D01*
X150572422Y-135165000D01*
X149007759Y-135165000D01*
X148688219Y-135228560D01*
X148417325Y-135409566D01*
X146471544Y-137355347D01*
X146471544Y-129088658D01*
X150071470Y-125488732D01*
X152077357Y-125488732D01*
X152317792Y-125588570D01*
X152689758Y-125588894D01*
X153033534Y-125446849D01*
X153296783Y-125184059D01*
X153439429Y-124840531D01*
X153439753Y-124468565D01*
X153297708Y-124124789D01*
X153034918Y-123861540D01*
X152691390Y-123718894D01*
X152319424Y-123718570D01*
X152077013Y-123818732D01*
X149725602Y-123818732D01*
X149406061Y-123882293D01*
X149135168Y-124063298D01*
X145046110Y-128152356D01*
X144865105Y-128423249D01*
X144801544Y-128742790D01*
X144801544Y-137549607D01*
X144701706Y-137790042D01*
X144701382Y-138162008D01*
X144843427Y-138505784D01*
X145082059Y-138744832D01*
X143636395Y-140190496D01*
X143454843Y-140190496D01*
X143214408Y-140090658D01*
X142842442Y-140090334D01*
X142498666Y-140232379D01*
X142235417Y-140495169D01*
X142092771Y-140838697D01*
X142092447Y-141210663D01*
X142059101Y-141210663D01*
X142059101Y-127121767D01*
X142288333Y-126892535D01*
X142528943Y-126793117D01*
X142792192Y-126530327D01*
X142934838Y-126186799D01*
X142935162Y-125814833D01*
X142793117Y-125471057D01*
X142530327Y-125207808D01*
X142186799Y-125065162D01*
X141814833Y-125064838D01*
X141471057Y-125206883D01*
X141278766Y-125398839D01*
X141278766Y-123902102D01*
X142288333Y-122892535D01*
X142528943Y-122793117D01*
X142792192Y-122530327D01*
X142934838Y-122186799D01*
X142934839Y-122185167D01*
X151564838Y-122185167D01*
X151706883Y-122528943D01*
X151969673Y-122792192D01*
X152313201Y-122934838D01*
X152685167Y-122935162D01*
X152927578Y-122835000D01*
X154572766Y-122835000D01*
X154813201Y-122934838D01*
X155185167Y-122935162D01*
X155528943Y-122793117D01*
X155792192Y-122530327D01*
X155934838Y-122186799D01*
X155935162Y-121814833D01*
X155793117Y-121471057D01*
X155530327Y-121207808D01*
X155186799Y-121065162D01*
X154814833Y-121064838D01*
X154572422Y-121165000D01*
X152927234Y-121165000D01*
X152686799Y-121065162D01*
X152314833Y-121064838D01*
X151971057Y-121206883D01*
X151707808Y-121469673D01*
X151565162Y-121813201D01*
X151564838Y-122185167D01*
X142934839Y-122185167D01*
X142935162Y-121814833D01*
X142793117Y-121471057D01*
X142530327Y-121207808D01*
X142186799Y-121065162D01*
X141814833Y-121064838D01*
X141471057Y-121206883D01*
X141207808Y-121469673D01*
X141107222Y-121711910D01*
X140159062Y-122660070D01*
X140159062Y-122439892D01*
X140135123Y-122319541D01*
X140095502Y-122120352D01*
X139914496Y-121849458D01*
X139822411Y-121757373D01*
X139722993Y-121516763D01*
X139460203Y-121253514D01*
X139116675Y-121110868D01*
X138744709Y-121110544D01*
X138400933Y-121252589D01*
X138137684Y-121515379D01*
X137995038Y-121858907D01*
X137994719Y-122224682D01*
X137979888Y-122150120D01*
X137723013Y-121765678D01*
X137480445Y-121603600D01*
X137723013Y-121441522D01*
X137979888Y-121057080D01*
X138070091Y-120603600D01*
X137979888Y-120150120D01*
X137723013Y-119765678D01*
X137480445Y-119603600D01*
X137723013Y-119441522D01*
X137979888Y-119057080D01*
X138070091Y-118603600D01*
X137979888Y-118150120D01*
X137723013Y-117765678D01*
X137480445Y-117603600D01*
X137723013Y-117441522D01*
X137979888Y-117057080D01*
X138070091Y-116603600D01*
X137979888Y-116150120D01*
X137723013Y-115765678D01*
X137480445Y-115603600D01*
X137723013Y-115441522D01*
X137979888Y-115057080D01*
X138070091Y-114603600D01*
X137979888Y-114150120D01*
X137723013Y-113765678D01*
X137478657Y-113602405D01*
X137778824Y-113351718D01*
X137994498Y-112939746D01*
X137994903Y-112913344D01*
X137869461Y-112730600D01*
X136428100Y-112730600D01*
X136428100Y-112750600D01*
X136174100Y-112750600D01*
X136174100Y-112730600D01*
X136154100Y-112730600D01*
X136154100Y-112476600D01*
X136174100Y-112476600D01*
X136174100Y-112456600D01*
X136428100Y-112456600D01*
X136428100Y-112476600D01*
X137869461Y-112476600D01*
X137994903Y-112293856D01*
X137994498Y-112267454D01*
X137920968Y-112127000D01*
X159081232Y-112127000D01*
X159007702Y-112267454D01*
M02*
